<?xml version="1.0" encoding="UTF-8" standalone="no"?>
<!-- Created with Inkscape (http://www.inkscape.org/) -->

<svg
   xmlns:dc="http://purl.org/dc/elements/1.1/"
   xmlns:cc="http://creativecommons.org/ns#"
   xmlns:rdf="http://www.w3.org/1999/02/22-rdf-syntax-ns#"
   xmlns:svg="http://www.w3.org/2000/svg"
   xmlns="http://www.w3.org/2000/svg"
   xmlns:xlink="http://www.w3.org/1999/xlink"
   xmlns:sodipodi="http://sodipodi.sourceforge.net/DTD/sodipodi-0.dtd"
   xmlns:inkscape="http://www.inkscape.org/namespaces/inkscape"
   width="16"
   height="16"
   id="svg3301"
   version="1.1"
   inkscape:version="0.48.4 r9939"
   sodipodi:docname="unknown.svg">
  <defs
     id="defs3303">
    <linearGradient
       id="linearGradient3827">
      <stop
         id="stop3829"
         offset="0"
         style="stop-color:#dbdbdb;stop-opacity:1" />
      <stop
         id="stop3831"
         offset="1"
         style="stop-color:#f5f5f5;stop-opacity:1" />
    </linearGradient>
    <linearGradient
       inkscape:collect="always"
       xlink:href="#linearGradient3827"
       id="linearGradient3788"
       gradientUnits="userSpaceOnUse"
       gradientTransform="matrix(1.0138955,0.46133418,-0.46236544,1.0116342,482.76263,-16.849919)"
       x1="5.2746978"
       y1="1038.7067"
       x2="10.457751"
       y2="1050.0723" />
    <linearGradient
       inkscape:collect="always"
       xlink:href="#linearGradient3827"
       id="linearGradient3845"
       x1="8"
       y1="1040.3622"
       x2="8"
       y2="1035.3622"
       gradientUnits="userSpaceOnUse" />
    <linearGradient
       id="linearGradient4800">
      <stop
         id="stop4802"
         offset="0"
         style="stop-color:#000000;stop-opacity:1;" />
      <stop
         id="stop4804"
         offset="1"
         style="stop-color:#fff6d5;stop-opacity:0;" />
    </linearGradient>
    <linearGradient
       id="linearGradient4794">
      <stop
         id="stop4796"
         offset="0"
         style="stop-color:#646464;stop-opacity:1;" />
      <stop
         id="stop4798"
         offset="1"
         style="stop-color:#969696;stop-opacity:1;" />
    </linearGradient>
  </defs>
  <sodipodi:namedview
     id="base"
     pagecolor="#ffffff"
     bordercolor="#666666"
     borderopacity="1.0"
     inkscape:pageopacity="0.0"
     inkscape:pageshadow="2"
     inkscape:zoom="39.4375"
     inkscape:cx="3.4358162"
     inkscape:cy="8.6242695"
     inkscape:document-units="px"
     inkscape:current-layer="layer1"
     showgrid="true"
     inkscape:window-width="1440"
     inkscape:window-height="848"
     inkscape:window-x="-8"
     inkscape:window-y="-8"
     inkscape:window-maximized="1">
    <inkscape:grid
       type="xygrid"
       id="grid3219"
       empspacing="5"
       visible="true"
       enabled="true"
       snapvisiblegridlinesonly="true" />
  </sodipodi:namedview>
  <metadata
     id="metadata3306">
    <rdf:RDF>
      <cc:Work
         rdf:about="">
        <dc:format>image/svg+xml</dc:format>
        <dc:type
           rdf:resource="http://purl.org/dc/dcmitype/StillImage" />
        <dc:title />
      </cc:Work>
    </rdf:RDF>
  </metadata>
  <g
     inkscape:label="Layer 1"
     inkscape:groupmode="layer"
     id="layer1"
     transform="translate(0,-1036.3622)">
    <path
       style="font-size:medium;font-style:normal;font-variant:normal;font-weight:normal;font-stretch:normal;text-indent:0;text-align:start;text-decoration:none;line-height:normal;letter-spacing:normal;word-spacing:normal;text-transform:none;direction:ltr;block-progression:tb;writing-mode:lr-tb;text-anchor:start;baseline-shift:baseline;opacity:0.08;color:#000000;fill:#000000;fill-opacity:1;fill-rule:nonzero;stroke:none;stroke-width:1;marker:none;visibility:visible;display:inline;overflow:visible;enable-background:accumulate;font-family:Sans;-inkscape-font-specification:Sans"
       d="m 1.7692296,1036.3668 c -0.96828404,-0.021 -1.76814594,0.777 -1.7692283412433,1.7317 l 0,12.4695 C -0.00114174,1051.5222 0.77627876,1052.2982 1.7307681,1052.2999 c 11.1778579,0.1157 11.0059349,0.034 12.4999819,0.038 0.967958,0.021 1.768028,-0.7767 1.769229,-1.732 l 0,-12.5079 c 0.0023,-0.5477 -0.182351,-1.0101 -0.538461,-1.3084 -0.35611,-0.2982 -0.809058,-0.4065 -1.192306,-0.4233 -4.168918,-0.014 -8.332916,0.013 -12.4999824,0 z"
       id="path3803"
       inkscape:connector-curvature="0" />
    <path
       style="font-size:medium;font-style:normal;font-variant:normal;font-weight:normal;font-stretch:normal;text-indent:0;text-align:start;text-decoration:none;line-height:normal;letter-spacing:normal;word-spacing:normal;text-transform:none;direction:ltr;block-progression:tb;writing-mode:lr-tb;text-anchor:start;baseline-shift:baseline;opacity:0.1;color:#000000;fill:#000000;fill-opacity:1;fill-rule:nonzero;stroke:none;stroke-width:0.50000000000000000;marker:none;visibility:visible;display:inline;overflow:visible;enable-background:accumulate;font-family:Sans;-inkscape-font-specification:Sans"
       d="m 1.7692296,1036.6744 c -0.79312144,-0.017 -1.46064594,0.6385 -1.46153644,1.424 l 0,12.4697 c -9.432e-4,0.7853 0.6368484,1.4228 1.42307494,1.4242 11.1761099,0.1156 10.9928779,0.034 12.4999819,0.038 0.792762,0.017 1.460549,-0.6382 1.461536,-1.4243 l 0,-12.5081 c 0.0021,-0.4859 -0.14288,-0.843 -0.423075,-1.0777 -0.280195,-0.2345 -0.653795,-0.331 -0.999999,-0.3463 -4.168373,-0.014 -8.3325525,0.013 -12.4999824,0 z"
       id="path3799"
       inkscape:connector-curvature="0" />
    <path
       sodipodi:nodetypes="cccccccccccc"
       inkscape:connector-curvature="0"
       id="path3005"
       d="m 14.699955,1037.0912 c -0.141455,-0.049 -0.288566,-0.086 -0.439797,-0.087 -4.167827,-0.014 -8.3361549,-0.016 -12.5039484,-0.026 -0.6179588,-0.014 -1.12663354,0.5034 -1.12733214,1.1192 l -0.013491,12.468 c -7.404e-4,0.616 0.50546324,1.1238 1.12342664,1.1249 11.1743599,0.1157 10.9847939,0.018 12.5049579,0.022 0.617563,0.014 1.12656,-0.5032 1.127335,-1.1194 l 0.01349,-12.4678 c 5.07e-4,-0.4466 -0.261276,-0.8387 -0.647138,-1.0187 -0.01263,-4e-4 -0.0248,-0.014 -0.0376,-0.016 z"
       style="opacity:0.15;fill:#000000;fill-opacity:1;stroke:none" />
    <path
       style="opacity:0.3;fill:#000000;fill-opacity:1;stroke:none"
       d="m 14.351019,1037.2185 c -0.134087,-0.046 -0.273537,-0.081 -0.416891,-0.082 -3.9507589,-0.014 -7.9019928,-0.015 -11.8527202,-0.024 -0.5857743,-0.014 -1.0679564,0.4772 -1.0686186,1.0611 l -0.012788,11.8185 c -7.0187e-4,0.584 0.4791378,1.0654 1.0649165,1.0663 10.5923793,0.1097 10.4126853,0.017 11.8536773,0.021 0.585399,0.014 1.067886,-0.4769 1.068621,-1.0611 l 0.01278,-11.8185 c 4.81e-4,-0.4234 -0.247668,-0.7951 -0.613434,-0.9656 -0.01197,-4e-4 -0.02351,-0.014 -0.03565,-0.015 z"
       id="path3764"
       inkscape:connector-curvature="0"
       sodipodi:nodetypes="cccccccccccc" />
    <path
       sodipodi:nodetypes="cccccccccccc"
       inkscape:connector-curvature="0"
       id="path3786"
       d="m 14.351019,1036.4685 c -0.134087,-0.046 -0.273536,-0.081 -0.416891,-0.082 -3.9507586,-0.014 -7.9019926,-0.015 -11.8527202,-0.024 -0.5857743,-0.014 -1.0679564,0.4772 -1.0686186,1.0611 l -0.012788,11.8185 c -7.0187e-4,0.584 0.4791378,1.0654 1.0649165,1.0663 10.5923783,0.1097 10.4126853,0.017 11.8536773,0.021 0.585399,0.014 1.067886,-0.4769 1.068621,-1.0611 l 0.01278,-11.8185 c 4.81e-4,-0.4234 -0.247668,-0.7951 -0.613433,-0.9656 -0.01197,-4e-4 -0.02351,-0.014 -0.03565,-0.015 z"
       style="fill:url(#linearGradient3788);fill-opacity:1;stroke:none" />
    <path
       id="path3824"
       d="m 1,1037.9221 0,0.9219 14,0 0,-0.9219 z"
       style="opacity:0.15;fill:#000000;fill-opacity:1;stroke:none"
       inkscape:connector-curvature="0"
       sodipodi:nodetypes="ccccc" />
    <path
       style="fill:url(#linearGradient3845);fill-opacity:1;fill-rule:evenodd;stroke:#000000;stroke-width:0.25;stroke-miterlimit:4;stroke-opacity:0.17254902;stroke-dasharray:none"
       d="m 2.09375,1036.4872 c -0.5857743,-0.014 -1.0930878,0.4786 -1.09375,1.0625 l 0,0.8125 14,0 0,-0.7812 c 4.81e-4,-0.4234 -0.259235,-0.7983 -0.625,-0.9688 -0.01197,-4e-4 -0.01911,-0.03 -0.03125,-0.031 -0.134087,-0.046 -0.262895,-0.062 -0.40625,-0.062 -3.9507586,-0.014 -7.8930224,-0.022 -11.84375,-0.031 z"
       id="path3042"
       inkscape:connector-curvature="0"
       sodipodi:nodetypes="cccccccccc" />
    <path
       style="opacity:0.50000000000000000;fill:#ffffff;fill-opacity:1;stroke:none"
       d="m 2.0862072,1036.3621 c -0.5857743,-0.014 -1.085545,0.4722 -1.0862072,1.056 l 0,0.6337 c 6.622e-4,-0.5839 0.5004329,-1.0696 1.0862072,-1.0561 3.9507276,0.01 7.9070037,-0.014 11.8577628,0 0.143354,0 0.258154,0.044 0.392241,0.091 0.01214,0 0.04837,0.03 0.06034,0.03 0.365765,0.1705 0.603929,0.5421 0.603448,0.9655 l 0,-0.6336 c 4.81e-4,-0.4235 -0.237683,-0.795 -0.603448,-0.9655 -0.01197,-4e-4 -0.04821,0 -0.06034,0 -0.134087,-0.046 -0.248887,-0.09 -0.392241,-0.091 -3.9507591,-0.014 -7.9070352,-0.022 -11.8577628,-0.03 z"
       id="path3805"
       inkscape:connector-curvature="0" />
    <path
       style="opacity:0.07999998;fill:#505050;fill-opacity:1;fill-rule:evenodd;stroke:none"
       d="M 2 3 L 2 4 L 3.3125 4 C 3.3510927 3.9090544 3.3602089 3.8104356 3.40625 3.71875 C 3.5279747 3.4763242 3.6931063 3.2316387 3.875 3 L 2 3 z M 12.46875 3 C 12.566938 3.1242925 12.648485 3.2713605 12.71875 3.40625 C 12.81632 3.5936 12.882912 3.7885697 12.9375 4 L 14 4 L 14 3 L 12.46875 3 z M 2 5 L 2 6 L 2.875 6 L 2.9375 5.375 C 2.9517905 5.2366159 2.9779564 5.1290499 3 5 L 2 5 z M 7.53125 5 C 7.4496996 5.16493 7.340059 5.386029 7.28125 5.71875 L 7.1875 6 L 7.90625 6 C 8.1386718 5.8339766 8.3787772 5.6850031 8.46875 5.59375 C 8.5912185 5.46955 8.689153 5.32725 8.71875 5.28125 C 8.72849 5.22495 8.71875 5.1325 8.71875 5.0625 C 8.718749 5.0277333 8.7156921 5.0244148 8.71875 5 L 7.53125 5 z M 13.0625 5 C 13.062758 5.0208074 13.0625 5.0418393 13.0625 5.0625 C 13.06249 5.3953232 12.977263 5.6940706 12.875 6 L 14 6 L 14 5 L 13.0625 5 z M 2 7 L 2 8 L 6.21875 8 C 6.2554972 7.8951367 6.2922159 7.7826979 6.34375 7.6875 C 6.4786816 7.4411995 6.6523804 7.2287661 6.84375 7 L 2 7 z M 12.40625 7 C 12.39357 7.0197389 12.38797 7.0428952 12.375 7.0625 C 12.181767 7.3547 12.044523 7.65205 11.78125 7.90625 C 11.743398 7.9427994 11.695727 7.966145 11.65625 8 L 14 8 L 14 7 L 12.40625 7 z M 2 9 L 2 10 L 5.75 10 L 6 10 C 6.0100222 9.6414966 6.0375837 9.3230049 6.0625 9 L 2 9 z M 10.4375 9 C 10.421367 9.0155847 10.389695 9.0487425 10.375 9.0625 C 10.246371 9.1833 10.10454 9.32125 10.125 9.28125 C 10.16996 9.19525 10.16502 9.6603 10.125 10 L 10.25 10 L 14 10 L 14 9 L 10.4375 9 z M 2 11 L 2 12 L 5.75 12 L 5.75 11 L 2 11 z M 10.25 11 L 10.25 12 L 14 12 L 14 11 L 10.25 11 z "
       transform="translate(0,1036.3622)"
       id="rect3781" />
    <path
       inkscape:connector-curvature="0"
       id="path3783"
       style="font-size:5px;font-style:normal;font-variant:normal;font-weight:bold;font-stretch:normal;line-height:125%;letter-spacing:0px;word-spacing:0px;opacity:0.1;fill:#000000;fill-opacity:1;stroke:none;font-family:Raavi;-inkscape-font-specification:Raavi Bold"
       d="m 3.9999999,1041.8704 c 0.055298,-0.5355 0.19201,-1.0204 0.4101384,-1.4549 0.2181262,-0.4344 0.5038387,-0.8033 0.8571431,-1.1065 0.3533018,-0.3033 0.764974,-0.5369 1.2350231,-0.7009 0.4700423,-0.1639 0.9815626,-0.2459 1.5345623,-0.2459 0.5898566,10e-5 1.1274904,0.075 1.6129035,0.2255 0.4854007,0.1502 0.9016827,0.3593 1.2488487,0.627 0.347148,0.2678 0.617503,0.5874 0.811059,0.959 0.193539,0.3716 0.290314,0.776 0.290322,1.2131 -9e-6,0.2951 -0.04302,0.5724 -0.129033,0.832 -0.08603,0.2596 -0.205846,0.5055 -0.359448,0.7377 -0.153617,0.2322 -0.337949,0.4522 -0.552996,0.6598 -0.215061,0.2077 -0.45162,0.4071 -0.709677,0.5984 -0.2887929,0.2131 -0.5207439,0.4016 -0.6958527,0.5656 -0.1751201,0.1639 -0.293402,0.306 -0.3548382,0.4262 -0.1228951,0.235 -0.1843389,0.7514 -0.1843314,1.5492 l -2.073733,0 c -3.8e-6,-1.0929 0.1198109,-1.8607 0.3594477,-2.3033 0.2334841,-0.4262 0.6697353,-0.877 1.3087571,-1.3525 0.2764921,-0.2021 0.4915458,-0.3811 0.6451616,-0.5368 0.1536019,-0.1558 0.2703474,-0.2951 0.3502288,-0.4181 0.07987,-0.1229 0.129026,-0.2377 0.1474674,-0.3442 0.018423,-0.1066 0.027634,-0.2172 0.027634,-0.332 -6.4e-6,-0.2131 -0.041481,-0.4098 -0.124424,-0.5902 -0.082954,-0.1803 -0.2012363,-0.336 -0.3548382,-0.4672 -0.153617,-0.1311 -0.3348755,-0.2336 -0.543779,-0.3074 -0.2089149,-0.074 -0.4424013,-0.1106 -0.7004611,-0.1106 -1.0076841,0 -1.6221231,0.6257 -1.843318,1.877 z m 5.1705077,7.4918 -2.2949314,0 0,-2.0164 2.2949314,0 z" />
  </g>
</svg>
