<svg xmlns="http://www.w3.org/2000/svg" viewBox="0 0 16 16">
<defs>
<linearGradient id="linearGradient3827">
<stop offset="0" stop-color="#dbdbdb"/>
<stop offset="1" stop-color="#f5f5f5"/>
</linearGradient>
<linearGradient gradientTransform="matrix(1.0139 .46133 -.46237 1.01163 482.76263 -16.84992)" xlink:href="#linearGradient3827" id="linearGradient3788" y1="1038.707" x1="5.275" y2="1050.072" gradientUnits="userSpaceOnUse" x2="10.458"/>
<linearGradient xlink:href="#linearGradient3827" id="linearGradient3845" y1="1040.362" y2="1035.362" x2="0" gradientUnits="userSpaceOnUse"/>
</defs>
<g transform="translate(0 -1036.3622)">
<path opacity=".08" direction="ltr" block-progression="tb" color="#000000" d="m1.7692,1036.3668c-.9683-.021-1.7681,.777-1.7692,1.7317v12.4695c-.0011,.9542 .7763,1.7302 1.7308,1.7319c11.1779,.1157 11.0059,.034 12.5,.038c.968,.021 1.768-.7767 1.7692-1.732v-12.5079c.0023-.5477-.1824-1.0101-.5385-1.3084c-.3561-.2982-.8091-.4065-1.1923-.4233c-4.1689-.014-8.3329,.013-12.5,0z"/>
<path opacity=".1" direction="ltr" block-progression="tb" color="#000000" d="m1.7692,1036.6744c-.7931-.017-1.4606,.6385-1.4615,1.424v12.4697c-.0009,.7853 .6368,1.4228 1.4231,1.4242c11.1761,.1156 10.9929,.034 12.5,.038c.7928,.017 1.4605-.6382 1.4615-1.4243v-12.5081c.0021-.4859-.1429-.843-.4231-1.0777c-.2802-.2345-.6538-.331-1-.3463c-4.1684-.014-8.3326,.013-12.5,0z"/>
<path opacity=".15" d="m14.7,1037.0912c-.1415-.049-.2886-.086-.4398-.087c-4.1678-.014-8.3362-.016-12.5039-.026c-.618-.014-1.1266,.5034-1.1273,1.1192l-.0135,12.468c-.0007,.616 .5055,1.1238 1.1234,1.1249c11.1744,.1157 10.9848,.018 12.505,.022c.6176,.014 1.1266-.5032 1.1273-1.1194l.0135-12.4678c.0005-.4466-.2613-.8387-.6471-1.0187c-.0126-.0004-.0248-.014-.0376-.016z"/>
<path opacity=".3" d="m14.351,1037.2185c-.1341-.046-.2735-.081-.4169-.082c-3.9508-.014-7.902-.015-11.8527-.024c-.5858-.014-1.068,.4772-1.0686,1.0611l-.0128,11.8185c-.0007,.584 .4791,1.0654 1.0649,1.0663c10.5924,.1097 10.4127,.017 11.8537,.021c.5854,.014 1.0679-.4769 1.0686-1.0611l.0128-11.8185c.0005-.4234-.2477-.7951-.6134-.9656c-.012-.0004-.0235-.014-.0357-.015z"/>
<path fill="url(#linearGradient3788)" d="m14.351,1036.4685c-.1341-.046-.2735-.081-.4169-.082c-3.9508-.014-7.902-.015-11.8527-.024c-.5858-.014-1.068,.4772-1.0686,1.0611l-.0128,11.8185c-.0007,.584 .4791,1.0654 1.0649,1.0663c10.5924,.1097 10.4127,.017 11.8537,.021c.5854,.014 1.0679-.4769 1.0686-1.0611l.0128-11.8185c.0005-.4234-.2477-.7951-.6134-.9656c-.012-.0004-.0235-.014-.0357-.015z"/>
<path opacity=".15" d="m1,1037.9221 0,.9219 14,0 0-.9219z"/>
<path stroke-opacity=".173" fill="url(#linearGradient3845)" fill-rule="evenodd" stroke="#000" stroke-width=".25" d="m2.0938,1036.4872c-.5858-.014-1.0931,.4786-1.0938,1.0625v.8125h14v-.7812c.0005-.4234-.2592-.7983-.625-.9688c-.012-.0004-.0191-.03-.0312-.031c-.1341-.046-.2629-.062-.4062-.062c-3.9508-.014-7.893-.022-11.8438-.031z"/>
<path opacity=".5" fill="#fff" d="m2.0862,1036.3621c-.5858-.014-1.0855,.4722-1.0862,1.056v.6337c.0007-.5839 .5004-1.0696 1.0862-1.0561c3.9507,.01 7.907-.014 11.8578,0c.1434,0 .2582,.044 .3922,.091c.0121,0 .0484,.03 .0603,.03c.3658,.1705 .6039,.5421 .6034,.9655v-.6336c.0005-.4235-.2377-.795-.6034-.9655c-.012-.0004-.0482,0-.0603,0c-.1341-.046-.2489-.09-.3922-.091c-3.9508-.014-7.907-.022-11.8578-.03z"/>
<path opacity=".08" fill="#505050" fill-rule="evenodd" d="m2,3v1h1.3125c.0386-.0909 .0477-.1896 .0938-.2812c.1217-.2424 .2869-.4871 .4688-.7188h-1.875zm10.4688,0c.0982,.1243 .1797,.2714 .25,.4062c.0976,.1873 .1642,.3823 .2188,.5938h1.0625v-1h-1.5312zm-10.4688,2v1h.875l.0625-.625c.0143-.1384 .0405-.246 .0625-.375h-1zm5.5312,0c-.0816,.1649-.1912,.386-.25,.7188l-.0938,.2812h.7188c.2324-.166 .4725-.315 .5625-.4062c.1225-.1242 .2204-.2665 .25-.3125c.0097-.0563 0-.1487 0-.2188c0-.0348-.0031-.0381 0-.0625h-1.1875zm5.5312,0c.0003,.0208 0,.0418 0,.0625c0,.3328-.0852,.6316-.1875,.9375h1.125v-1h-.9375zm-11.0625,2v1h4.2188c.0367-.1049 .0735-.2173 .125-.3125c.1349-.2463 .3086-.4587 .5-.6875h-4.8438zm10.4062,0c-.0127,.0197-.0183,.0429-.0312,.0625c-.1932,.2922-.3305,.5896-.5938,.8438c-.0379,.0365-.0855,.0599-.125,.0938h2.3438v-1h-1.5938zm-10.4062,2v1h3.75h.25c.01-.3585 .0376-.677 .0625-1h-4.0625zm8.4375,0c-.0161,.0156-.0478,.0487-.0625,.0625c-.1286,.1208-.2705,.2587-.25,.2188c.045-.086 .04,.379 0,.7188h.125h3.75v-1h-3.5625zm-8.4375,2v1h3.75v-1h-3.75zm8.25,0v1h3.75v-1h-3.75z" transform="translate(0 1036.3622)"/>
<path opacity=".1" word-spacing="0" d="m4,1041.8704c.0553-.5355 .192-1.0204 .4101-1.4549c.2181-.4344 .5038-.8033 .8571-1.1065c.3533-.3033 .765-.5369 1.235-.7009c.47-.1639 .9816-.2459 1.5346-.2459c.5899,.0001 1.1275,.075 1.6129,.2255c.4854,.1502 .9017,.3593 1.2488,.627c.3471,.2678 .6175,.5874 .8111,.959c.1935,.3716 .2903,.776 .2903,1.2131c0,.2951-.043,.5724-.129,.832c-.086,.2596-.2058,.5055-.3594,.7377c-.1536,.2322-.3379,.4522-.553,.6598c-.2151,.2077-.4516,.4071-.7097,.5984c-.2888,.2131-.5207,.4016-.6959,.5656c-.1751,.1639-.2934,.306-.3548,.4262c-.1229,.235-.1843,.7514-.1843,1.5492h-2.0737c0-1.0929 .1198-1.8607 .3594-2.3033c.2335-.4262 .6697-.877 1.3088-1.3525c.2765-.2021 .4915-.3811 .6452-.5368c.1536-.1558 .2703-.2951 .3502-.4181c.0799-.1229 .129-.2377 .1475-.3442c.0184-.1066 .0276-.2172 .0276-.332c0-.2131-.0415-.4098-.1244-.5902c-.083-.1803-.2012-.336-.3548-.4672c-.1536-.1311-.3349-.2336-.5438-.3074c-.2089-.074-.4424-.1106-.7005-.1106c-1.0077,0-1.6221,.6257-1.8433,1.877zm5.1705,7.4918-2.2949,0 0-2.0164 2.2949,0z" letter-spacing="0"/>
</g>
</svg>
