<?xml version="1.0" encoding="UTF-8" standalone="no"?>
<!-- Created with Inkscape (http://www.inkscape.org/) -->

<svg
   xmlns:dc="http://purl.org/dc/elements/1.1/"
   xmlns:cc="http://creativecommons.org/ns#"
   xmlns:rdf="http://www.w3.org/1999/02/22-rdf-syntax-ns#"
   xmlns:svg="http://www.w3.org/2000/svg"
   xmlns="http://www.w3.org/2000/svg"
   xmlns:xlink="http://www.w3.org/1999/xlink"
   xmlns:sodipodi="http://sodipodi.sourceforge.net/DTD/sodipodi-0.dtd"
   xmlns:inkscape="http://www.inkscape.org/namespaces/inkscape"
   width="16"
   height="16"
   id="svg3301"
   version="1.1"
   inkscape:version="0.48.4 r9939"
   sodipodi:docname="preferences-desktop-icons.svg">
  <defs
     id="defs3303">
    <linearGradient
       id="linearGradient3827">
      <stop
         id="stop3829"
         offset="0"
         style="stop-color:#dbdbdb;stop-opacity:1" />
      <stop
         id="stop3831"
         offset="1"
         style="stop-color:#f5f5f5;stop-opacity:1" />
    </linearGradient>
    <linearGradient
       inkscape:collect="always"
       xlink:href="#linearGradient3827"
       id="linearGradient3788"
       gradientUnits="userSpaceOnUse"
       gradientTransform="matrix(1.0138955,0.46133418,-0.46236544,1.0116342,482.76263,-16.849919)"
       x1="5.2746978"
       y1="1038.7067"
       x2="10.457751"
       y2="1050.0723" />
    <linearGradient
       id="linearGradient4108-0">
      <stop
         style="stop-color:#e66c00;stop-opacity:1;"
         offset="0"
         id="stop4110-9" />
      <stop
         style="stop-color:#ffe991;stop-opacity:1;"
         offset="1"
         id="stop4112-4" />
    </linearGradient>
    <linearGradient
       id="linearGradient4148-1">
      <stop
         id="stop4150-7"
         offset="0"
         style="stop-color:#fffad5;stop-opacity:1;" />
      <stop
         id="stop4152-4"
         offset="1"
         style="stop-color:#fff6d5;stop-opacity:0;" />
    </linearGradient>
    <linearGradient
       id="linearGradient4085-1">
      <stop
         style="stop-color:#3b8c00;stop-opacity:1;"
         offset="0"
         id="stop4087-1" />
      <stop
         style="stop-color:#00ec16;stop-opacity:1;"
         offset="1"
         id="stop4089-5" />
    </linearGradient>
    <linearGradient
       id="linearGradient4091-5">
      <stop
         id="stop4093-1"
         offset="0"
         style="stop-color:#d5fff6;stop-opacity:1;" />
      <stop
         id="stop4095-7"
         offset="1"
         style="stop-color:#fff6d5;stop-opacity:0;" />
    </linearGradient>
    <linearGradient
       id="linearGradient4414-3">
      <stop
         id="stop4416-4"
         offset="0"
         style="stop-color:#0069c8;stop-opacity:1;" />
      <stop
         id="stop4418-1"
         offset="1"
         style="stop-color:#55c4ff;stop-opacity:1;" />
    </linearGradient>
    <linearGradient
       id="linearGradient3981-7">
      <stop
         id="stop3983-9"
         offset="0"
         style="stop-color:#d5ebff;stop-opacity:1;" />
      <stop
         id="stop3985-5"
         offset="1"
         style="stop-color:#fff6d5;stop-opacity:0;" />
    </linearGradient>
    <linearGradient
       id="linearGradient3806-6">
      <stop
         style="stop-color:#fff6d5;stop-opacity:1;"
         offset="0"
         id="stop3808-1" />
      <stop
         style="stop-color:#fff6d5;stop-opacity:0;"
         offset="1"
         id="stop3810-3" />
    </linearGradient>
    <linearGradient
       id="linearGradient3290-7-9">
      <stop
         id="stop3292-2-0"
         offset="0"
         style="stop-color:#ba0000;stop-opacity:1;" />
      <stop
         id="stop3294-3-0"
         offset="1"
         style="stop-color:#ff331e;stop-opacity:1;" />
    </linearGradient>
    <linearGradient
       inkscape:collect="always"
       xlink:href="#linearGradient3290-7-9"
       id="linearGradient3069"
       gradientUnits="userSpaceOnUse"
       x1="7"
       y1="10"
       x2="7"
       y2="2" />
    <linearGradient
       inkscape:collect="always"
       xlink:href="#linearGradient3806-6"
       id="linearGradient3074"
       gradientUnits="userSpaceOnUse"
       gradientTransform="matrix(0.60606175,0,0,0.60607169,0.2575742,1036.2255)"
       x1="7"
       y1="2"
       x2="7"
       y2="10" />
    <linearGradient
       inkscape:collect="always"
       xlink:href="#linearGradient4108-0"
       id="linearGradient3077"
       gradientUnits="userSpaceOnUse"
       x1="7"
       y1="10"
       x2="7"
       y2="2" />
    <linearGradient
       inkscape:collect="always"
       xlink:href="#linearGradient4148-1"
       id="linearGradient3082"
       gradientUnits="userSpaceOnUse"
       gradientTransform="matrix(0.60613479,0,0,0.60605946,7.2573581,1036.2258)"
       x1="7"
       y1="2"
       x2="7"
       y2="10" />
    <linearGradient
       inkscape:collect="always"
       xlink:href="#linearGradient4414-3"
       id="linearGradient3085"
       gradientUnits="userSpaceOnUse"
       x1="7"
       y1="10"
       x2="7"
       y2="2" />
    <linearGradient
       inkscape:collect="always"
       xlink:href="#linearGradient3981-7"
       id="linearGradient3090"
       gradientUnits="userSpaceOnUse"
       gradientTransform="matrix(0.60613479,0,0,0.60605946,7.2573576,1043.2258)"
       x1="7"
       y1="2"
       x2="7"
       y2="10" />
    <linearGradient
       inkscape:collect="always"
       xlink:href="#linearGradient4085-1"
       id="linearGradient3093"
       gradientUnits="userSpaceOnUse"
       x1="7"
       y1="10"
       x2="7"
       y2="2" />
    <linearGradient
       inkscape:collect="always"
       xlink:href="#linearGradient4091-5"
       id="linearGradient3098"
       gradientUnits="userSpaceOnUse"
       gradientTransform="matrix(0.60613479,0,0,0.60605946,0.25736371,1043.2258)"
       x1="7"
       y1="2"
       x2="7"
       y2="10" />
  </defs>
  <sodipodi:namedview
     id="base"
     pagecolor="#ffffff"
     bordercolor="#666666"
     borderopacity="1.0"
     inkscape:pageopacity="0.0"
     inkscape:pageshadow="2"
     inkscape:zoom="39.4375"
     inkscape:cx="5.5530903"
     inkscape:cy="7.7464342"
     inkscape:document-units="px"
     inkscape:current-layer="layer1"
     showgrid="true"
     inkscape:window-width="1440"
     inkscape:window-height="848"
     inkscape:window-x="-8"
     inkscape:window-y="-8"
     inkscape:window-maximized="1">
    <inkscape:grid
       type="xygrid"
       id="grid3219"
       empspacing="5"
       visible="true"
       enabled="true"
       snapvisiblegridlinesonly="true" />
  </sodipodi:namedview>
  <metadata
     id="metadata3306">
    <rdf:RDF>
      <cc:Work
         rdf:about="">
        <dc:format>image/svg+xml</dc:format>
        <dc:type
           rdf:resource="http://purl.org/dc/dcmitype/StillImage" />
        <dc:title />
      </cc:Work>
    </rdf:RDF>
  </metadata>
  <g
     inkscape:label="Layer 1"
     inkscape:groupmode="layer"
     id="layer1"
     transform="translate(0,-1036.3622)">
    <path
       style="font-size:medium;font-style:normal;font-variant:normal;font-weight:normal;font-stretch:normal;text-indent:0;text-align:start;text-decoration:none;line-height:normal;letter-spacing:normal;word-spacing:normal;text-transform:none;direction:ltr;block-progression:tb;writing-mode:lr-tb;text-anchor:start;baseline-shift:baseline;opacity:0.08;color:#000000;fill:#000000;fill-opacity:1;fill-rule:nonzero;stroke:none;stroke-width:1;marker:none;visibility:visible;display:inline;overflow:visible;enable-background:accumulate;font-family:Sans;-inkscape-font-specification:Sans"
       d="m 1.7692296,1036.3668 c -0.96828404,-0.021 -1.76814594,0.777 -1.7692283412433,1.7317 l 0,12.4695 C -0.00114174,1051.5222 0.77627876,1052.2982 1.7307681,1052.2999 c 11.1778579,0.1157 11.0059349,0.034 12.4999819,0.038 0.967958,0.021 1.768028,-0.7767 1.769229,-1.732 l 0,-12.5079 c 0.0023,-0.5477 -0.182351,-1.0101 -0.538461,-1.3084 -0.35611,-0.2982 -0.809058,-0.4065 -1.192306,-0.4233 -4.168918,-0.014 -8.332916,0.013 -12.4999824,0 z"
       id="path3803"
       inkscape:connector-curvature="0" />
    <path
       style="font-size:medium;font-style:normal;font-variant:normal;font-weight:normal;font-stretch:normal;text-indent:0;text-align:start;text-decoration:none;line-height:normal;letter-spacing:normal;word-spacing:normal;text-transform:none;direction:ltr;block-progression:tb;writing-mode:lr-tb;text-anchor:start;baseline-shift:baseline;opacity:0.1;color:#000000;fill:#000000;fill-opacity:1;fill-rule:nonzero;stroke:none;stroke-width:0.50000000000000000;marker:none;visibility:visible;display:inline;overflow:visible;enable-background:accumulate;font-family:Sans;-inkscape-font-specification:Sans"
       d="m 1.7692296,1036.6744 c -0.79312144,-0.017 -1.46064594,0.6385 -1.46153644,1.424 l 0,12.4697 c -9.432e-4,0.7853 0.6368484,1.4228 1.42307494,1.4242 11.1761099,0.1156 10.9928779,0.034 12.4999819,0.038 0.792762,0.017 1.460549,-0.6382 1.461536,-1.4243 l 0,-12.5081 c 0.0021,-0.4859 -0.14288,-0.843 -0.423075,-1.0777 -0.280195,-0.2345 -0.653795,-0.331 -0.999999,-0.3463 -4.168373,-0.014 -8.3325525,0.013 -12.4999824,0 z"
       id="path3799"
       inkscape:connector-curvature="0" />
    <path
       sodipodi:nodetypes="cccccccccccc"
       inkscape:connector-curvature="0"
       id="path3005"
       d="m 14.699955,1037.0912 c -0.141455,-0.049 -0.288566,-0.086 -0.439797,-0.087 -4.167827,-0.014 -8.3361549,-0.016 -12.5039484,-0.026 -0.6179588,-0.014 -1.12663354,0.5034 -1.12733214,1.1192 l -0.013491,12.468 c -7.404e-4,0.616 0.50546324,1.1238 1.12342664,1.1249 11.1743599,0.1157 10.9847939,0.018 12.5049579,0.022 0.617563,0.014 1.12656,-0.5032 1.127335,-1.1194 l 0.01349,-12.4678 c 5.07e-4,-0.4466 -0.261276,-0.8387 -0.647138,-1.0187 -0.01263,-4e-4 -0.0248,-0.014 -0.0376,-0.016 z"
       style="opacity:0.15;fill:#000000;fill-opacity:1;stroke:none" />
    <path
       style="opacity:0.3;fill:#000000;fill-opacity:1;stroke:none"
       d="m 14.351019,1037.2185 c -0.134087,-0.046 -0.273537,-0.081 -0.416891,-0.082 -3.9507589,-0.014 -7.9019928,-0.015 -11.8527202,-0.024 -0.5857743,-0.014 -1.0679564,0.4772 -1.0686186,1.0611 l -0.012788,11.8185 c -7.0187e-4,0.584 0.4791378,1.0654 1.0649165,1.0663 10.5923793,0.1097 10.4126853,0.017 11.8536773,0.021 0.585399,0.014 1.067886,-0.4769 1.068621,-1.0611 l 0.01278,-11.8185 c 4.81e-4,-0.4234 -0.247668,-0.7951 -0.613434,-0.9656 -0.01197,-4e-4 -0.02351,-0.014 -0.03565,-0.015 z"
       id="path3764"
       inkscape:connector-curvature="0"
       sodipodi:nodetypes="cccccccccccc" />
    <path
       sodipodi:nodetypes="cccccccccccc"
       inkscape:connector-curvature="0"
       id="path3786"
       d="m 14.351019,1036.4685 c -0.134087,-0.046 -0.273536,-0.081 -0.416891,-0.082 -3.9507586,-0.014 -7.9019926,-0.015 -11.8527202,-0.024 -0.5857743,-0.014 -1.0679564,0.4772 -1.0686186,1.0611 l -0.012788,11.8185 c -7.0187e-4,0.584 0.4791378,1.0654 1.0649165,1.0663 10.5923783,0.1097 10.4126853,0.017 11.8536773,0.021 0.585399,0.014 1.067886,-0.4769 1.068621,-1.0611 l 0.01278,-11.8185 c 4.81e-4,-0.4234 -0.247668,-0.7951 -0.613433,-0.9656 -0.01197,-4e-4 -0.02351,-0.014 -0.03565,-0.015 z"
       style="fill:url(#linearGradient3788);fill-opacity:1;stroke:none" />
    <path
       style="opacity:0.3;fill:#000000;fill-opacity:1;fill-rule:evenodd;stroke:none"
       d="M 4.4631579,1037.9565 C 3.1101899,1037.9565 2,1039.0667 2,1040.4197 c 0,1.353 1.1101899,2.4631 2.4631579,2.4631 1.352968,0 2.4631579,-1.1101 2.4631579,-2.4631 0,-1.353 -1.1101899,-2.4632 -2.4631579,-2.4632 z m 7.0736841,0 c -1.353131,0 -2.4631578,1.1102 -2.4631578,2.4632 0,1.353 1.1100268,2.4631 2.4631578,2.4631 1.353131,0 2.463158,-1.1101 2.463158,-2.4631 0,-1.353 -1.110027,-2.4632 -2.463158,-2.4632 z m -7.0736841,7.0737 C 3.1100268,1045.0302 2,1046.1403 2,1047.4933 c 0,1.353 1.1100268,2.4632 2.4631579,2.4632 1.3531311,0 2.4631579,-1.1102 2.4631579,-2.4632 0,-1.353 -1.1100268,-2.4631 -2.4631579,-2.4631 z m 7.0736841,0 c -1.353131,0 -2.4631578,1.1101 -2.4631578,2.4631 0,1.353 1.1100268,2.4632 2.4631578,2.4632 1.353131,0 2.463158,-1.1102 2.463158,-2.4632 0,-1.353 -1.110027,-2.4631 -2.463158,-2.4631 z"
       id="path3101"
       inkscape:connector-curvature="0" />
    <path
       style="opacity:0.5;fill:#ffffff;fill-opacity:1;stroke:none"
       d="m 2.0862072,1036.3621 c -0.5857743,-0.014 -1.085545,0.4722 -1.0862072,1.056 l 0,0.6337 c 6.622e-4,-0.5839 0.5004329,-1.0696 1.0862072,-1.0561 3.9507276,0.01 7.9070037,-0.014 11.8577628,0 0.143354,0 0.258154,0.044 0.392241,0.091 0.01214,0 0.04837,0.03 0.06034,0.03 0.365765,0.1705 0.603929,0.5421 0.603448,0.9655 l 0,-0.6336 c 4.81e-4,-0.4235 -0.237683,-0.795 -0.603448,-0.9655 -0.01197,-4e-4 -0.04821,0 -0.06034,0 -0.134087,-0.046 -0.248887,-0.09 -0.392241,-0.091 -3.9507591,-0.014 -7.9070352,-0.022 -11.8577628,-0.03 z"
       id="path3805"
       inkscape:connector-curvature="0" />
    <path
       transform="matrix(0.60613479,0,0,0.60605946,7.2573581,1036.2258)"
       d="M 11,6 A 4,4 0 1 1 3,6 4,4 0 1 1 11,6 z"
       sodipodi:ry="4"
       sodipodi:rx="4"
       sodipodi:cy="6"
       sodipodi:cx="7"
       id="path3480"
       style="fill:url(#linearGradient3077);fill-opacity:1;fill-rule:evenodd;stroke:#a07200;stroke-width:0.25;stroke-miterlimit:4;stroke-opacity:1;stroke-dasharray:none"
       sodipodi:type="arc" />
    <path
       id="path3482"
       d="m 11.500302,1037.438 c -1.339036,0 -2.4245396,1.0854 -2.4245396,2.4242 0,0.1031 0.025391,0.2033 0.037883,0.303 0.1497553,-1.1951 1.1507351,-2.1212 2.3866561,-2.1212 1.23592,0 2.2369,0.9261 2.386655,2.1212 0.01249,-0.1 0.03788,-0.1999 0.03788,-0.303 0,-1.3388 -1.085503,-2.4242 -2.424539,-2.4242 z"
       style="opacity:0.5;fill:url(#linearGradient3082);fill-opacity:1;fill-rule:evenodd;stroke:none"
       inkscape:connector-curvature="0" />
    <path
       sodipodi:type="arc"
       style="fill:url(#linearGradient3093);fill-opacity:1;fill-rule:evenodd;stroke:#00a000;stroke-width:0.25;stroke-miterlimit:4;stroke-opacity:1;stroke-dasharray:none"
       id="path3486"
       sodipodi:cx="7"
       sodipodi:cy="6"
       sodipodi:rx="4"
       sodipodi:ry="4"
       d="M 11,6 A 4,4 0 1 1 3,6 4,4 0 1 1 11,6 z"
       transform="matrix(0.60613479,0,0,0.60605946,0.25736371,1043.2258)" />
    <path
       inkscape:connector-curvature="0"
       style="opacity:0.5;fill:url(#linearGradient3098);fill-opacity:1;fill-rule:evenodd;stroke:none"
       d="m 4.5003072,1044.438 c -1.339036,0 -2.4245391,1.0853 -2.4245391,2.4242 0,0.1031 0.025391,0.2033 0.037883,0.303 0.1497553,-1.1951 1.1507354,-2.1212 2.3866557,-2.1212 1.2359204,0 2.2369005,0.9261 2.3866558,2.1212 0.012492,-0.1 0.037883,-0.1999 0.037883,-0.303 0,-1.3389 -1.0855032,-2.4242 -2.4245392,-2.4242 z"
       id="path3488" />
    <path
       transform="matrix(0.60613479,0,0,0.60605946,7.2573576,1043.2258)"
       d="M 11,6 A 4,4 0 1 1 3,6 4,4 0 1 1 11,6 z"
       sodipodi:ry="4"
       sodipodi:rx="4"
       sodipodi:cy="6"
       sodipodi:cx="7"
       id="path3492"
       style="fill:url(#linearGradient3085);fill-opacity:1;fill-rule:evenodd;stroke:#0038a0;stroke-width:0.25;stroke-miterlimit:4;stroke-opacity:1;stroke-dasharray:none"
       sodipodi:type="arc" />
    <path
       id="path3494"
       d="m 11.500301,1044.438 c -1.339036,0 -2.424539,1.0854 -2.424539,2.4242 0,0.1031 0.025391,0.2033 0.037883,0.303 0.1497553,-1.1951 1.1507356,-2.1212 2.3866556,-2.1212 1.235921,0 2.236901,0.9261 2.386656,2.1212 0.01249,-0.1 0.03788,-0.1999 0.03788,-0.303 0,-1.3388 -1.085503,-2.4242 -2.424539,-2.4242 z"
       style="opacity:0.5;fill:url(#linearGradient3090);fill-opacity:1;fill-rule:evenodd;stroke:none"
       inkscape:connector-curvature="0" />
    <path
       sodipodi:type="arc"
       style="fill:url(#linearGradient3069);fill-opacity:1;fill-rule:evenodd;stroke:#a00000;stroke-width:0.25;stroke-miterlimit:4;stroke-opacity:1;stroke-dasharray:none"
       id="path3498"
       sodipodi:cx="7"
       sodipodi:cy="6"
       sodipodi:rx="4"
       sodipodi:ry="4"
       d="M 11,6 A 4,4 0 1 1 3,6 4,4 0 1 1 11,6 z"
       transform="matrix(0.60606175,0,0,0.60607169,0.2575742,1036.2255)" />
    <path
       style="opacity:0.5;fill:url(#linearGradient3074);fill-opacity:1;fill-rule:evenodd;stroke:none"
       d="m 4.5000064,1037.4376 c -1.3388746,0 -2.424247,1.0854 -2.424247,2.4243 0,0.1031 0.025388,0.2033 0.037879,0.303 0.1497373,-1.1952 1.1505967,-2.1212 2.3863681,-2.1212 1.2357715,0 2.2366309,0.926 2.3863682,2.1212 0.012491,-0.1 0.037879,-0.1999 0.037879,-0.303 0,-1.3389 -1.0853723,-2.4243 -2.424247,-2.4243 z"
       id="path3500"
       inkscape:connector-curvature="0" />
  </g>
</svg>
