<?xml version="1.0" encoding="UTF-8" standalone="no"?>
<!-- Created with Inkscape (http://www.inkscape.org/) -->

<svg
   xmlns:dc="http://purl.org/dc/elements/1.1/"
   xmlns:cc="http://creativecommons.org/ns#"
   xmlns:rdf="http://www.w3.org/1999/02/22-rdf-syntax-ns#"
   xmlns:svg="http://www.w3.org/2000/svg"
   xmlns="http://www.w3.org/2000/svg"
   xmlns:xlink="http://www.w3.org/1999/xlink"
   xmlns:sodipodi="http://sodipodi.sourceforge.net/DTD/sodipodi-0.dtd"
   xmlns:inkscape="http://www.inkscape.org/namespaces/inkscape"
   width="16"
   height="16"
   id="svg3301"
   version="1.1"
   inkscape:version="0.48.4 r9939"
   sodipodi:docname="preferences-contact-list.svg">
  <defs
     id="defs3303">
    <linearGradient
       id="linearGradient3827">
      <stop
         id="stop3829"
         offset="0"
         style="stop-color:#dbdbdb;stop-opacity:1" />
      <stop
         id="stop3831"
         offset="1"
         style="stop-color:#f5f5f5;stop-opacity:1" />
    </linearGradient>
    <linearGradient
       inkscape:collect="always"
       xlink:href="#linearGradient3827"
       id="linearGradient3788"
       gradientUnits="userSpaceOnUse"
       gradientTransform="matrix(1.0138955,0.46133418,-0.46236544,1.0116342,482.76263,-16.849919)"
       x1="5.2746978"
       y1="1038.7067"
       x2="10.457751"
       y2="1050.0723" />
    <linearGradient
       inkscape:collect="always"
       xlink:href="#linearGradient3827"
       id="linearGradient3845"
       x1="8"
       y1="1040.3622"
       x2="8"
       y2="1035.3622"
       gradientUnits="userSpaceOnUse" />
    <linearGradient
       id="linearGradient4800">
      <stop
         id="stop4802"
         offset="0"
         style="stop-color:#000000;stop-opacity:1;" />
      <stop
         id="stop4804"
         offset="1"
         style="stop-color:#fff6d5;stop-opacity:0;" />
    </linearGradient>
    <linearGradient
       id="linearGradient4794">
      <stop
         id="stop4796"
         offset="0"
         style="stop-color:#646464;stop-opacity:1;" />
      <stop
         id="stop4798"
         offset="1"
         style="stop-color:#969696;stop-opacity:1;" />
    </linearGradient>
    <linearGradient
       inkscape:collect="always"
       xlink:href="#linearGradient4794"
       id="linearGradient3853"
       x1="11"
       y1="1"
       x2="11"
       y2="3"
       gradientUnits="userSpaceOnUse" />
    <linearGradient
       inkscape:collect="always"
       xlink:href="#linearGradient4800"
       id="linearGradient3866"
       x1="11"
       y1="1"
       x2="11"
       y2="3"
       gradientUnits="userSpaceOnUse" />
  </defs>
  <sodipodi:namedview
     id="base"
     pagecolor="#ffffff"
     bordercolor="#666666"
     borderopacity="1.0"
     inkscape:pageopacity="0.0"
     inkscape:pageshadow="2"
     inkscape:zoom="39.4375"
     inkscape:cx="8"
     inkscape:cy="8.0670935"
     inkscape:document-units="px"
     inkscape:current-layer="layer1"
     showgrid="true"
     inkscape:window-width="1440"
     inkscape:window-height="848"
     inkscape:window-x="-8"
     inkscape:window-y="-8"
     inkscape:window-maximized="1">
    <inkscape:grid
       type="xygrid"
       id="grid3219"
       empspacing="5"
       visible="true"
       enabled="true"
       snapvisiblegridlinesonly="true" />
  </sodipodi:namedview>
  <metadata
     id="metadata3306">
    <rdf:RDF>
      <cc:Work
         rdf:about="">
        <dc:format>image/svg+xml</dc:format>
        <dc:type
           rdf:resource="http://purl.org/dc/dcmitype/StillImage" />
        <dc:title />
      </cc:Work>
    </rdf:RDF>
  </metadata>
  <g
     inkscape:label="Layer 1"
     inkscape:groupmode="layer"
     id="layer1"
     transform="translate(0,-1036.3622)">
    <path
       style="font-size:medium;font-style:normal;font-variant:normal;font-weight:normal;font-stretch:normal;text-indent:0;text-align:start;text-decoration:none;line-height:normal;letter-spacing:normal;word-spacing:normal;text-transform:none;direction:ltr;block-progression:tb;writing-mode:lr-tb;text-anchor:start;baseline-shift:baseline;opacity:0.08;color:#000000;fill:#000000;fill-opacity:1;fill-rule:nonzero;stroke:none;stroke-width:1;marker:none;visibility:visible;display:inline;overflow:visible;enable-background:accumulate;font-family:Sans;-inkscape-font-specification:Sans"
       d="m 1.7692296,1036.3668 c -0.96828404,-0.021 -1.76814594,0.777 -1.7692283412433,1.7317 l 0,12.4695 C -0.00114174,1051.5222 0.77627876,1052.2982 1.7307681,1052.2999 c 11.1778579,0.1157 11.0059349,0.034 12.4999819,0.038 0.967958,0.021 1.768028,-0.7767 1.769229,-1.732 l 0,-12.5079 c 0.0023,-0.5477 -0.182351,-1.0101 -0.538461,-1.3084 -0.35611,-0.2982 -0.809058,-0.4065 -1.192306,-0.4233 -4.168918,-0.014 -8.332916,0.013 -12.4999824,0 z"
       id="path3803"
       inkscape:connector-curvature="0" />
    <path
       style="font-size:medium;font-style:normal;font-variant:normal;font-weight:normal;font-stretch:normal;text-indent:0;text-align:start;text-decoration:none;line-height:normal;letter-spacing:normal;word-spacing:normal;text-transform:none;direction:ltr;block-progression:tb;writing-mode:lr-tb;text-anchor:start;baseline-shift:baseline;opacity:0.1;color:#000000;fill:#000000;fill-opacity:1;fill-rule:nonzero;stroke:none;stroke-width:0.50000000000000000;marker:none;visibility:visible;display:inline;overflow:visible;enable-background:accumulate;font-family:Sans;-inkscape-font-specification:Sans"
       d="m 1.7692296,1036.6744 c -0.79312144,-0.017 -1.46064594,0.6385 -1.46153644,1.424 l 0,12.4697 c -9.432e-4,0.7853 0.6368484,1.4228 1.42307494,1.4242 11.1761099,0.1156 10.9928779,0.034 12.4999819,0.038 0.792762,0.017 1.460549,-0.6382 1.461536,-1.4243 l 0,-12.5081 c 0.0021,-0.4859 -0.14288,-0.843 -0.423075,-1.0777 -0.280195,-0.2345 -0.653795,-0.331 -0.999999,-0.3463 -4.168373,-0.014 -8.3325525,0.013 -12.4999824,0 z"
       id="path3799"
       inkscape:connector-curvature="0" />
    <path
       sodipodi:nodetypes="cccccccccccc"
       inkscape:connector-curvature="0"
       id="path3005"
       d="m 14.699955,1037.0912 c -0.141455,-0.049 -0.288566,-0.086 -0.439797,-0.087 -4.167827,-0.014 -8.3361549,-0.016 -12.5039484,-0.026 -0.6179588,-0.014 -1.12663354,0.5034 -1.12733214,1.1192 l -0.013491,12.468 c -7.404e-4,0.616 0.50546324,1.1238 1.12342664,1.1249 11.1743599,0.1157 10.9847939,0.018 12.5049579,0.022 0.617563,0.014 1.12656,-0.5032 1.127335,-1.1194 l 0.01349,-12.4678 c 5.07e-4,-0.4466 -0.261276,-0.8387 -0.647138,-1.0187 -0.01263,-4e-4 -0.0248,-0.014 -0.0376,-0.016 z"
       style="opacity:0.15;fill:#000000;fill-opacity:1;stroke:none" />
    <path
       style="opacity:0.3;fill:#000000;fill-opacity:1;stroke:none"
       d="m 14.351019,1037.2185 c -0.134087,-0.046 -0.273537,-0.081 -0.416891,-0.082 -3.9507589,-0.014 -7.9019928,-0.015 -11.8527202,-0.024 -0.5857743,-0.014 -1.0679564,0.4772 -1.0686186,1.0611 l -0.012788,11.8185 c -7.0187e-4,0.584 0.4791378,1.0654 1.0649165,1.0663 10.5923793,0.1097 10.4126853,0.017 11.8536773,0.021 0.585399,0.014 1.067886,-0.4769 1.068621,-1.0611 l 0.01278,-11.8185 c 4.81e-4,-0.4234 -0.247668,-0.7951 -0.613434,-0.9656 -0.01197,-4e-4 -0.02351,-0.014 -0.03565,-0.015 z"
       id="path3764"
       inkscape:connector-curvature="0"
       sodipodi:nodetypes="cccccccccccc" />
    <path
       sodipodi:nodetypes="cccccccccccc"
       inkscape:connector-curvature="0"
       id="path3786"
       d="m 14.351019,1036.4685 c -0.134087,-0.046 -0.273536,-0.081 -0.416891,-0.082 -3.9507586,-0.014 -7.9019926,-0.015 -11.8527202,-0.024 -0.5857743,-0.014 -1.0679564,0.4772 -1.0686186,1.0611 l -0.012788,11.8185 c -7.0187e-4,0.584 0.4791378,1.0654 1.0649165,1.0663 10.5923783,0.1097 10.4126853,0.017 11.8536773,0.021 0.585399,0.014 1.067886,-0.4769 1.068621,-1.0611 l 0.01278,-11.8185 c 4.81e-4,-0.4234 -0.247668,-0.7951 -0.613433,-0.9656 -0.01197,-4e-4 -0.02351,-0.014 -0.03565,-0.015 z"
       style="fill:url(#linearGradient3788);fill-opacity:1;stroke:none" />
    <path
       id="path3824"
       d="m 1,1037.9221 0,0.9221 14,0 0,-0.9221 z"
       style="opacity:0.3;fill:#000000;fill-opacity:1;stroke:none"
       inkscape:connector-curvature="0"
       sodipodi:nodetypes="ccccc" />
    <path
       style="fill:url(#linearGradient3845);fill-opacity:1;fill-rule:evenodd;stroke:#000000;stroke-width:0.25;stroke-miterlimit:4;stroke-opacity:0.17254902;stroke-dasharray:none"
       d="m 2.09375,1036.4872 c -0.5857743,-0.014 -1.0930878,0.4786 -1.09375,1.0625 l 0,0.9375 14,0 0,-0.9062 c 4.81e-4,-0.4234 -0.259235,-0.7983 -0.625,-0.9688 -0.01197,-4e-4 -0.01911,-0.03 -0.03125,-0.031 -0.134087,-0.046 -0.262895,-0.062 -0.40625,-0.062 -3.9507586,-0.014 -7.8930224,-0.022 -11.84375,-0.031 z"
       id="path3042"
       inkscape:connector-curvature="0"
       sodipodi:nodetypes="cccccccccc" />
    <path
       style="opacity:0.50000000000000000;fill:#ffffff;fill-opacity:1;stroke:none"
       d="m 2.0862072,1036.3621 c -0.5857743,-0.014 -1.085545,0.4722 -1.0862072,1.056 l 0,0.6337 c 6.622e-4,-0.5839 0.5004329,-1.0696 1.0862072,-1.0561 3.9507276,0.01 7.9070037,-0.014 11.8577628,0 0.143354,0 0.258154,0.044 0.392241,0.091 0.01214,0 0.04837,0.03 0.06034,0.03 0.365765,0.1705 0.603929,0.5421 0.603448,0.9655 l 0,-0.6336 c 4.81e-4,-0.4235 -0.237683,-0.795 -0.603448,-0.9655 -0.01197,-4e-4 -0.04821,0 -0.06034,0 -0.134087,-0.046 -0.248887,-0.09 -0.392241,-0.091 -3.9507591,-0.014 -7.9070352,-0.022 -11.8577628,-0.03 z"
       id="path3805"
       inkscape:connector-curvature="0" />
    <path
       style="opacity:0.3;fill:#505050;fill-opacity:1;fill-rule:evenodd;stroke:none"
       d="M 2,4 2,7 5,7 5,4 z m 4,0 0,1 8,0 0,-1 z m 0,2 0,1 8,0 0,-1 z m -4,3 0,3 3,0 0,-3 z m 4,0 0,1 8,0 0,-1 z m 0,2 0,1 8,0 0,-1 z"
       transform="translate(0,1036.3622)"
       id="rect3781"
       inkscape:connector-curvature="0"
       sodipodi:nodetypes="cccccccccccccccccccccccccccccc" />
    <path
       style="opacity:1;fill:url(#linearGradient3853);fill-opacity:1;fill-rule:evenodd;stroke:#505050;stroke-opacity:1;stroke-width:0.1;stroke-miterlimit:4;stroke-dasharray:none"
       d="M 10 1 C 9.4477153 1 9 1.4477153 9 2 C 9 2.5522847 9.4477153 3 10 3 C 10.552285 3 11 2.5522847 11 2 C 11 1.4477153 10.552285 1 10 1 z M 13 1 C 12.447715 1 12 1.4477153 12 2 C 12 2.5522847 12.447715 3 13 3 C 13.552285 3 14 2.5522847 14 2 C 14 1.4477153 13.552285 1 13 1 z "
       transform="translate(0,1036.3622)"
       id="path3775" />
    <path
       style="opacity:0.66926070000000004;fill:url(#linearGradient3866);fill-opacity:1;fill-rule:evenodd;stroke:none;stroke-opacity:1;stroke-width:0.10000000000000001;stroke-miterlimit:4;stroke-dasharray:none"
       d="M 10 1 C 9.4477153 1 9 1.4477153 9 2 C 9 2.0676819 9.0184337 2.1235905 9.03125 2.1875 C 9.1106759 1.7146344 9.5045681 1.34375 10 1.34375 C 10.495432 1.34375 10.889324 1.7146344 10.96875 2.1875 C 10.981566 2.1235905 11 2.0676819 11 2 C 11 1.4477153 10.552285 1 10 1 z M 13 1 C 12.447715 1 12 1.4477153 12 2 C 12 2.0676819 12.018434 2.1235905 12.03125 2.1875 C 12.110676 1.7146344 12.504568 1.34375 13 1.34375 C 13.495432 1.34375 13.889324 1.7146344 13.96875 2.1875 C 13.981566 2.1235905 14 2.0676819 14 2 C 14 1.4477153 13.552285 1 13 1 z "
       transform="translate(0,1036.3622)"
       id="path3855" />
  </g>
</svg>
