<?xml version="1.0" encoding="UTF-8" standalone="no"?>
<!-- Created with Inkscape (http://www.inkscape.org/) -->

<svg
   xmlns:dc="http://purl.org/dc/elements/1.1/"
   xmlns:cc="http://creativecommons.org/ns#"
   xmlns:rdf="http://www.w3.org/1999/02/22-rdf-syntax-ns#"
   xmlns:svg="http://www.w3.org/2000/svg"
   xmlns="http://www.w3.org/2000/svg"
   xmlns:xlink="http://www.w3.org/1999/xlink"
   xmlns:sodipodi="http://sodipodi.sourceforge.net/DTD/sodipodi-0.dtd"
   xmlns:inkscape="http://www.inkscape.org/namespaces/inkscape"
   width="96"
   height="96"
   id="svg2408"
   sodipodi:version="0.32"
   inkscape:version="0.48.4 r9939"
   version="1.0"
   sodipodi:docname="qutim[FAENZA].svg"
   inkscape:output_extension="org.inkscape.output.svg.inkscape">
  <defs
     id="defs2410">
    <linearGradient
       id="ButtonShadow"
       gradientTransform="scale(1.0058652,0.994169)"
       x1="45.447727"
       y1="92.539597"
       x2="45.447727"
       y2="7.0165396"
       gradientUnits="userSpaceOnUse">
      <stop
         style="stop-color:#000000;stop-opacity:1;"
         offset="0"
         id="stop3750" />
      <stop
         style="stop-color:#000000;stop-opacity:0.58823532;"
         offset="1"
         id="stop3752" />
    </linearGradient>
    <linearGradient
       inkscape:collect="always"
       id="linearGradient3737">
      <stop
         style="stop-color:#ffffff;stop-opacity:1;"
         offset="0"
         id="stop3739" />
      <stop
         style="stop-color:#ffffff;stop-opacity:0;"
         offset="1"
         id="stop3741" />
    </linearGradient>
    <linearGradient
       id="linearGradient3700">
      <stop
         style="stop-color:#b3b3b3;stop-opacity:1;"
         offset="0"
         id="stop3702" />
      <stop
         style="stop-color:#f0f0f0;stop-opacity:1;"
         offset="1"
         id="stop3704" />
    </linearGradient>
    <filter
       inkscape:collect="always"
       id="filter3174">
      <feGaussianBlur
         inkscape:collect="always"
         stdDeviation="1.71"
         id="feGaussianBlur3176" />
    </filter>
    <linearGradient
       inkscape:collect="always"
       xlink:href="#linearGradient3737"
       id="linearGradient3188"
       gradientUnits="userSpaceOnUse"
       x1="36.357143"
       y1="6"
       x2="36.357143"
       y2="63.893143" />
    <filter
       inkscape:collect="always"
       id="filter3794"
       x="-0.192"
       width="1.384"
       y="-0.192"
       height="1.384">
      <feGaussianBlur
         inkscape:collect="always"
         stdDeviation="5.28"
         id="feGaussianBlur3796" />
    </filter>
    <linearGradient
       inkscape:collect="always"
       xlink:href="#linearGradient3737"
       id="linearGradient3613"
       x1="48"
       y1="20.220806"
       x2="48"
       y2="138.66119"
       gradientUnits="userSpaceOnUse" />
    <radialGradient
       inkscape:collect="always"
       xlink:href="#linearGradient3737"
       id="radialGradient3619"
       cx="48"
       cy="90.171875"
       fx="48"
       fy="90.171875"
       r="42"
       gradientTransform="matrix(1.1573129,0,0,0.99590774,-7.5510206,0.19713193)"
       gradientUnits="userSpaceOnUse" />
    <clipPath
       clipPathUnits="userSpaceOnUse"
       id="clipPath3613">
      <rect
         ry="6"
         rx="6"
         y="6"
         x="6"
         height="84"
         width="84"
         id="rect3615"
         style="fill:#ffffff;fill-opacity:1;fill-rule:nonzero;stroke:none" />
    </clipPath>
    <linearGradient
       inkscape:collect="always"
       xlink:href="#linearGradient3700"
       id="linearGradient3617"
       gradientUnits="userSpaceOnUse"
       x1="48"
       y1="90"
       x2="48"
       y2="5.9877172" />
    <linearGradient
       id="ButtonShadow-0"
       gradientTransform="matrix(1.0058652,0,0,0.994169,100,0)"
       x1="45.447727"
       y1="92.539597"
       x2="45.447727"
       y2="7.0165396"
       gradientUnits="userSpaceOnUse">
      <stop
         style="stop-color:#000000;stop-opacity:1;"
         offset="0"
         id="stop3750-8" />
      <stop
         style="stop-color:#000000;stop-opacity:0.58823532;"
         offset="1"
         id="stop3752-5" />
    </linearGradient>
    <linearGradient
       inkscape:collect="always"
       xlink:href="#ButtonShadow-0"
       id="linearGradient3780"
       gradientUnits="userSpaceOnUse"
       gradientTransform="matrix(1.0238095,0,0,1.0119048,-1.1428571,-98.071429)"
       x1="32.251034"
       y1="6.1317081"
       x2="32.251034"
       y2="90.238609" />
    <linearGradient
       inkscape:collect="always"
       xlink:href="#ButtonShadow-0"
       id="linearGradient3772"
       gradientUnits="userSpaceOnUse"
       gradientTransform="matrix(1.0238095,0,0,1.0119048,-1.1428571,-98.071429)"
       x1="32.251034"
       y1="6.1317081"
       x2="32.251034"
       y2="90.238609" />
    <linearGradient
       inkscape:collect="always"
       xlink:href="#ButtonShadow-0"
       id="linearGradient3725"
       gradientUnits="userSpaceOnUse"
       gradientTransform="matrix(1.0238095,0,0,1.0119048,-1.1428571,-98.071429)"
       x1="32.251034"
       y1="6.1317081"
       x2="32.251034"
       y2="90.238609" />
    <linearGradient
       inkscape:collect="always"
       xlink:href="#ButtonShadow-0"
       id="linearGradient3721"
       gradientUnits="userSpaceOnUse"
       gradientTransform="translate(0,-97)"
       x1="32.251034"
       y1="6.1317081"
       x2="32.251034"
       y2="90.238609" />
    <linearGradient
       y2="90.238609"
       x2="32.251034"
       y1="6.1317081"
       x1="32.251034"
       gradientTransform="matrix(1.0238095,0,0,1.0119048,-1.1428571,-98.071429)"
       gradientUnits="userSpaceOnUse"
       id="linearGradient3026"
       xlink:href="#ButtonShadow-0"
       inkscape:collect="always" />
    <linearGradient
       id="linearGradient5339-5">
      <stop
         id="stop5341-2"
         offset="0"
         style="stop-color:#6cebff;stop-opacity:1;" />
      <stop
         id="stop5344-5"
         offset="1"
         style="stop-color:#c9dafe;stop-opacity:0;" />
    </linearGradient>
    <linearGradient
       id="linearGradient6701-4-0">
      <stop
         id="stop6703-0-7"
         offset="0"
         style="stop-color:#ffffff;stop-opacity:1;" />
      <stop
         style="stop-color:#27baf2;stop-opacity:1;"
         offset="0.35140693"
         id="stop6705-9-8" />
      <stop
         id="stop6707-4-6"
         offset="1"
         style="stop-color:#0053cc;stop-opacity:1;" />
    </linearGradient>
    <linearGradient
       id="linearGradient5373-3-9">
      <stop
         style="stop-color:#8e8e8e;stop-opacity:1;"
         offset="0"
         id="stop5375-2-1" />
      <stop
         id="stop5381-2-5"
         offset="0.30555555"
         style="stop-color:#dfdfdf;stop-opacity:1;" />
      <stop
         style="stop-color:#6c6c6c;stop-opacity:1;"
         offset="0.3923611"
         id="stop5383-1-7" />
      <stop
         id="stop6483-6-3"
         offset="0.63710457"
         style="stop-color:#6a6a6a;stop-opacity:1;" />
      <stop
         style="stop-color:#cacaca;stop-opacity:1;"
         offset="1"
         id="stop5377-8-5" />
    </linearGradient>
    <linearGradient
       inkscape:collect="always"
       xlink:href="#linearGradient5339-5"
       id="linearGradient3186"
       gradientUnits="userSpaceOnUse"
       gradientTransform="matrix(0.11616437,0,0,0.11617803,-14.016497,-11.646012)"
       x1="983.69751"
       y1="112.17704"
       x2="439.86325"
       y2="719.50128" />
    <linearGradient
       inkscape:collect="always"
       xlink:href="#linearGradient6701-4-0"
       id="linearGradient3189"
       gradientUnits="userSpaceOnUse"
       gradientTransform="matrix(0.11616437,0,0,0.11617803,-14.016497,-17.729348)"
       x1="349.31244"
       y1="186.90736"
       x2="892.97491"
       y2="835.42529" />
    <radialGradient
       inkscape:collect="always"
       xlink:href="#linearGradient5373-3-9"
       id="radialGradient3194"
       gradientUnits="userSpaceOnUse"
       gradientTransform="matrix(0.36305636,-0.40049095,0.49745396,0.45106202,-392.67717,-51.369812)"
       cx="371.98123"
       cy="570.03644"
       fx="371.98123"
       fy="570.03644"
       r="424.89359" />
  </defs>
  <sodipodi:namedview
     id="base"
     pagecolor="#ffffff"
     bordercolor="#666666"
     borderopacity="1.0"
     inkscape:pageopacity="0.0"
     inkscape:pageshadow="2"
     inkscape:zoom="3.3193989"
     inkscape:cx="46.941694"
     inkscape:cy="37.814875"
     inkscape:document-units="px"
     inkscape:current-layer="layer1"
     showgrid="false"
     showborder="true"
     inkscape:showpageshadow="false"
     inkscape:window-width="1440"
     inkscape:window-height="848"
     inkscape:window-x="-8"
     inkscape:window-y="-8"
     inkscape:window-maximized="1">
    <inkscape:grid
       type="xygrid"
       id="grid3732"
       visible="true"
       enabled="true"
       empspacing="5"
       snapvisiblegridlinesonly="true" />
  </sodipodi:namedview>
  <metadata
     id="metadata2413">
    <rdf:RDF>
      <cc:Work
         rdf:about="">
        <dc:format>image/svg+xml</dc:format>
        <dc:type
           rdf:resource="http://purl.org/dc/dcmitype/StillImage" />
        <dc:title />
      </cc:Work>
    </rdf:RDF>
  </metadata>
  <g
     inkscape:groupmode="layer"
     id="layer2"
     inkscape:label="Blur Shadow"
     style="display:none"
     sodipodi:insensitive="true">
    <rect
       style="opacity:0.9;fill:url(#ButtonShadow);fill-opacity:1;fill-rule:nonzero;stroke:none;filter:url(#filter3174)"
       id="rect3745"
       width="86"
       height="85"
       x="5"
       y="7"
       rx="6"
       ry="6" />
  </g>
  <g
     inkscape:groupmode="layer"
     id="layer3"
     inkscape:label="Shadow"
     sodipodi:insensitive="true">
    <path
       sodipodi:type="inkscape:offset"
       inkscape:radius="0.99097413"
       inkscape:original="M 12 -94.03125 C 7.028367 -94.03125 2.96875 -89.971633 2.96875 -85 L 2.96875 -14 C 2.96875 -9.0283671 7.0283671 -4.96875 12 -4.96875 L 84 -4.96875 C 88.971633 -4.96875 93.03125 -9.028367 93.03125 -14 L 93.03125 -85 C 93.03125 -89.971633 88.971633 -94.03125 84 -94.03125 L 12 -94.03125 z "
       style="opacity:0.07999998;fill:url(#linearGradient3026);fill-opacity:1;fill-rule:nonzero;stroke:none;display:inline"
       id="path3786"
       d="m 12,-95.03125 c -5.5110903,0 -10.03125,4.52016 -10.03125,10.03125 l 0,71 c 0,5.5110902 4.5201598,10.03125 10.03125,10.03125 l 72,0 c 5.51109,0 10.03125,-4.5201597 10.03125,-10.03125 l 0,-71 c 0,-5.51109 -4.52016,-10.03125 -10.03125,-10.03125 l -72,0 z"
       transform="scale(1,-1)" />
    <path
       sodipodi:type="inkscape:offset"
       inkscape:radius="1.0360184"
       inkscape:original="M 12 -93 C 7.5908667 -93 4 -89.409133 4 -85 L 4 -14 C 4 -9.5908667 7.5908667 -6 12 -6 L 84 -6 C 88.409133 -6 92 -9.5908667 92 -14 L 92 -85 C 92 -89.409133 88.409133 -93 84 -93 L 12 -93 z "
       style="opacity:0.1;fill:url(#linearGradient3780);fill-opacity:1;fill-rule:nonzero;stroke:none;display:inline"
       id="path3778"
       d="m 12,-94.03125 c -4.971633,0 -9.03125,4.059617 -9.03125,9.03125 l 0,71 c 0,4.9716329 4.0596171,9.03125 9.03125,9.03125 l 72,0 c 4.971633,0 9.03125,-4.059617 9.03125,-9.03125 l 0,-71 c 0,-4.971633 -4.059617,-9.03125 -9.03125,-9.03125 l -72,0 z"
       transform="scale(1,-1)" />
    <path
       sodipodi:type="inkscape:offset"
       inkscape:radius="0.98962283"
       inkscape:original="M 12 -92 C 8.122 -92 5 -88.878 5 -85 L 5 -14 C 5 -10.122 8.122 -7 12 -7 L 84 -7 C 87.878 -7 91 -10.122 91 -14 L 91 -85 C 91 -88.878 87.878 -92 84 -92 L 12 -92 z "
       style="opacity:0.2;fill:url(#linearGradient3772);fill-opacity:1;fill-rule:nonzero;stroke:none;display:inline"
       id="path3770"
       d="m 12,-93 c -4.4091333,0 -8,3.590867 -8,8 l 0,71 c 0,4.4091333 3.5908667,8 8,8 l 72,0 c 4.409133,0 8,-3.5908667 8,-8 l 0,-71 c 0,-4.409133 -3.590867,-8 -8,-8 l -72,0 z"
       transform="scale(1,-1)" />
    <rect
       style="opacity:0.3;fill:url(#linearGradient3725);fill-opacity:1;fill-rule:nonzero;stroke:none;display:inline"
       id="rect3723"
       width="86"
       height="85"
       x="5"
       y="-92"
       rx="7"
       ry="7"
       transform="scale(1,-1)" />
    <rect
       transform="scale(1,-1)"
       ry="6"
       rx="6"
       y="-91"
       x="6"
       height="84"
       width="84"
       id="rect3716"
       style="opacity:0.45;fill:url(#linearGradient3721);fill-opacity:1;fill-rule:nonzero;stroke:none;display:inline" />
  </g>
  <g
     inkscape:label="Button"
     inkscape:groupmode="layer"
     id="layer1">
    <rect
       style="fill:url(#linearGradient3617);fill-opacity:1;fill-rule:nonzero;stroke:none"
       id="rect2419"
       width="84"
       height="84"
       x="6"
       y="6"
       rx="6"
       ry="6" />
    <path
       style="fill:#00345c;fill-opacity:1;fill-rule:nonzero;stroke:none;stroke-width:2.29999995;marker-start:none"
       d="M 55.0625 6 C 49.544108 8.909851 43.323703 14.414911 43.5625 21.0625 C 43.748404 26.237585 38.447722 26.458909 39.53125 20.46875 C 40.772755 13.605348 36.329303 10.511229 32.09375 8.03125 C 40.696701 19.698444 30.396451 19.73601 26.40625 34.71875 C 25.052363 39.802413 23.967645 45.040083 25.90625 49.53125 C 26.458416 50.810444 27.944375 52.365991 27.8125 53.90625 C 27.674579 55.517063 26.828203 56.741493 26.15625 58.15625 C 25.133248 60.310107 23.19024 62.256002 22.3125 64.1875 C 21.827731 65.254269 23.042614 66.078414 23.90625 66.59375 C 25.208092 67.370573 26.984955 67.603123 27.75 69.03125 C 28.283049 70.026309 28.137359 71.09879 27.6875 72.0625 C 27.268958 72.959234 26.974506 74.309052 27.84375 74.90625 C 28.482761 75.345222 29.341919 75.610783 29.78125 76.375 C 30.205321 77.112727 29.984313 77.987451 30.65625 78.5625 C 31.776032 79.520822 33.621874 79.443712 34.46875 81.4375 C 34.862722 82.365036 35.132307 83.392134 35.65625 84.3125 C 36.450004 85.706764 38.655956 86.128226 40.1875 85.96875 C 41.835471 85.797216 43.042022 85.286262 44.625 84.78125 C 48.728131 83.472238 52.590887 81.736743 56.25 79.34375 C 59.354886 77.313224 61.176194 76.143322 63.96875 74.46875 C 65.964773 73.271824 68.903213 73.687855 71.125 73.09375 C 73.869402 72.359865 77.207383 71.217475 79.15625 69.21875 C 81.215484 67.106815 82.072834 65.424516 82.71875 61.53125 C 81.829654 62.801197 79.50414 65.730066 77.21875 66.5 C 74.70594 67.346564 73.817158 66.911034 73.0625 65.84375 C 72.417178 64.931069 72.251542 63.713125 72.28125 62.59375 C 73.777775 57.507791 80.208024 59.628482 84.53125 57.875 C 86.840404 56.938426 88.614399 55.649878 90 54.15625 L 90 38.9375 C 89.990515 38.958728 89.978138 38.978713 89.96875 39 C 88.602462 42.098075 84.28261 45.730485 81.6875 42.6875 C 78.605165 39.07323 84.775858 34.317561 90 32.5625 L 90 17.8125 C 89.630155 18.28472 89.218554 18.763011 88.75 19.25 C 83.179522 25.039636 77.287491 21.977851 79.5 17.03125 C 80.929001 13.83638 84.369645 15.775147 85.5 8.40625 C 82.320141 13.182099 72.034802 9.9553499 69.09375 17.71875 C 63.976301 31.227161 56.876802 18.224178 68.53125 11.75 C 71.375731 10.169858 76.537492 9.8018854 80.9375 6 L 55.0625 6 z "
       id="path3941" />
    <path
       style="fill:url(#linearGradient3189);fill-opacity:1;fill-rule:nonzero;stroke:none;stroke-width:2.29999995000000013;marker-start:none"
       d="M 53.65625 6 C 48.99377 9.1127481 44.643602 13.865819 44.84375 19.4375 C 45.029654 24.612584 39.760221 24.86516 40.84375 18.875 C 42.085254 12.011598 37.641803 8.9174783 33.40625 6.4375 C 42.009201 18.104693 31.708951 18.14226 27.71875 33.125 C 26.364863 38.208664 25.248895 43.446333 27.1875 47.9375 C 27.739666 49.216694 29.225625 50.740991 29.09375 52.28125 C 28.955829 53.892063 28.140703 55.147744 27.46875 56.5625 C 26.445748 58.716358 24.50274 60.662252 23.625 62.59375 C 23.140231 63.660518 24.323864 64.484664 25.1875 65 C 26.489343 65.776823 28.297454 66.009373 29.0625 67.4375 C 29.595548 68.432559 29.449858 69.50504 29 70.46875 C 28.581459 71.365484 28.287006 72.715302 29.15625 73.3125 C 29.795261 73.751472 30.623169 74.017033 31.0625 74.78125 C 31.486571 75.518977 31.296812 76.393701 31.96875 76.96875 C 33.088531 77.927072 34.934374 77.849962 35.78125 79.84375 C 36.175222 80.771286 36.413558 81.798384 36.9375 82.71875 C 37.731254 84.113014 39.968456 84.534476 41.5 84.375 C 43.147971 84.203466 44.354521 83.692511 45.9375 83.1875 C 50.04063 81.878488 53.903386 80.142993 57.5625 77.75 C 60.667385 75.719475 62.488693 74.549572 65.28125 72.875 C 67.277272 71.678074 70.184463 72.094105 72.40625 71.5 C 75.150652 70.766116 78.519883 69.623725 80.46875 67.625 C 82.527985 65.513066 83.354085 63.830766 84 59.9375 C 83.110904 61.207448 80.81664 64.136315 78.53125 64.90625 C 76.01844 65.752814 75.098408 65.317284 74.34375 64.25 C 73.698428 63.337319 73.532792 62.119375 73.5625 61 C 75.059025 55.914041 81.489275 58.034731 85.8125 56.28125 C 87.45992 55.61307 88.840072 54.753662 90 53.78125 L 90 39.40625 C 88.096297 41.757126 85.003713 43.479916 82.96875 41.09375 C 80.142613 37.779891 85.126324 33.539896 90 31.5 L 90 17.71875 C 84.448217 23.419728 78.577114 20.365382 80.78125 15.4375 C 82.210252 12.24263 85.650895 14.181397 86.78125 6.8125 C 83.60139 11.588349 73.347302 8.3616001 70.40625 16.125 C 65.288802 29.633411 58.189302 16.630428 69.84375 10.15625 C 72.216463 8.8381806 76.190135 8.3279064 80 6 L 53.65625 6 z "
       id="path3039-0-9" />
    <path
       style="opacity:0.29646020000000001;fill:url(#linearGradient3186);fill-opacity:1;fill-rule:nonzero;stroke:none"
       d="M 62.34375 6.125 C 61.753112 6.105788 61.153808 6.3914452 60.78125 6.90625 C 60.185177 7.7299469 60.363913 8.8725986 61.1875 9.46875 C 62.011103 10.064901 63.153911 9.8861969 63.75 9.0625 C 64.346073 8.2388187 64.167337 7.0961357 63.34375 6.5 C 63.034904 6.2764374 62.698126 6.1364647 62.34375 6.125 z M 53.84375 8.59375 C 53.412838 8.579692 52.990562 8.7806624 52.71875 9.15625 C 52.283871 9.757181 52.430382 10.596308 53.03125 11.03125 C 53.632119 11.466176 54.471355 11.319681 54.90625 10.71875 C 55.34113 10.117804 55.194618 9.2786763 54.59375 8.84375 C 54.368422 8.6806351 54.1023 8.6021221 53.84375 8.59375 z M 56.53125 16.75 C 55.527834 16.76562 54.539919 17.249384 53.90625 18.125 C 52.839044 19.599704 53.150468 21.651419 54.625 22.71875 C 56.099532 23.78608 58.182794 23.474704 59.25 22 C 60.317206 20.525296 59.974532 18.44233 58.5 17.375 C 57.900975 16.941401 57.217807 16.739253 56.53125 16.75 z M 38.375 18.6875 C 37.944088 18.67344 37.490546 18.874412 37.21875 19.25 C 36.783855 19.850946 36.930381 20.690058 37.53125 21.125 C 38.132118 21.559942 38.971371 21.413447 39.40625 20.8125 C 39.841146 20.211554 39.694618 19.372427 39.09375 18.9375 C 38.868422 18.774401 38.633535 18.695872 38.375 18.6875 z M 71.4375 19.625 C 70.755223 19.60298 70.086616 19.905317 69.65625 20.5 C 68.967678 21.451496 69.173613 22.7801 70.125 23.46875 C 71.076371 24.157385 72.405178 23.951496 73.09375 23 C 73.782322 22.048519 73.576371 20.719901 72.625 20.03125 C 72.268233 19.772997 71.846857 19.638246 71.4375 19.625 z M 90 21.71875 C 89.201149 22.952194 89.237118 24.51087 90 25.6875 L 90 21.71875 z M 81.34375 22.5625 C 80.753128 22.54344 80.153792 22.797696 79.78125 23.3125 C 79.185162 24.136197 79.363897 25.310099 80.1875 25.90625 C 81.011088 26.502401 82.185161 26.323697 82.78125 25.5 C 83.377323 24.676319 83.198588 23.502401 82.375 22.90625 C 82.066155 22.682687 81.698126 22.573965 81.34375 22.5625 z M 37.09375 24.96875 C 36.090335 24.98437 35.102403 25.436884 34.46875 26.3125 C 33.401544 27.787204 33.744218 29.838904 35.21875 30.90625 C 36.693283 31.973581 38.745295 31.662205 39.8125 30.1875 C 40.879722 28.712796 40.537032 26.661096 39.0625 25.59375 C 38.463474 25.160152 37.780323 24.95802 37.09375 24.96875 z M 48.75 27.3125 C 48.138464 27.35139 47.543568 27.652296 47.15625 28.1875 C 46.467678 29.138996 46.673629 30.4676 47.625 31.15625 C 48.576387 31.8449 49.905194 31.607731 50.59375 30.65625 C 51.282323 29.704754 51.076371 28.37615 50.125 27.6875 C 49.70877 27.386215 49.225631 27.28226 48.75 27.3125 z M 59.9375 27.6875 C 58.800397 27.70531 57.686827 28.226487 56.96875 29.21875 C 55.759375 30.889901 56.110287 33.227984 57.78125 34.4375 C 59.452214 35.647015 61.790625 35.296167 63 33.625 C 64.209375 31.953849 63.858463 29.615766 62.1875 28.40625 C 61.508659 27.91489 60.71551 27.675333 59.9375 27.6875 z M 75.96875 28.875 C 74.367247 28.89999 72.792585 29.633753 71.78125 31.03125 C 70.077938 33.384928 70.615337 36.6715 72.96875 38.375 C 75.322147 40.078499 78.609204 39.572445 80.3125 37.21875 C 82.015796 34.865072 81.509663 31.578514 79.15625 29.875 C 78.200177 29.18296 77.064524 28.857865 75.96875 28.875 z M 51.75 37.46875 C 51.319088 37.45469 50.865546 37.655662 50.59375 38.03125 C 50.158855 38.632196 50.305381 39.471308 50.90625 39.90625 C 51.507118 40.341192 52.346355 40.194681 52.78125 39.59375 C 53.21613 38.992803 53.069619 38.153677 52.46875 37.71875 C 52.243423 37.555635 52.008535 37.477122 51.75 37.46875 z M 64.15625 40.28125 C 63.473972 40.25923 62.80535 40.561567 62.375 41.15625 C 61.686428 42.107731 61.892379 43.43635 62.84375 44.125 C 63.795137 44.81365 65.123928 44.607746 65.8125 43.65625 C 66.501057 42.704754 66.295121 41.376166 65.34375 40.6875 C 64.986984 40.429262 64.565622 40.294495 64.15625 40.28125 z M 80.25 42.625 C 79.863775 42.64952 79.494618 42.849478 79.25 43.1875 C 78.81512 43.788447 78.930382 44.627558 79.53125 45.0625 C 80.132119 45.497426 80.971355 45.350947 81.40625 44.75 C 81.841129 44.149069 81.725868 43.309927 81.125 42.875 C 80.862123 42.684707 80.550395 42.605912 80.25 42.625 z M 88.09375 43.21875 C 87.707526 43.24327 87.338383 43.443211 87.09375 43.78125 C 86.65887 44.382196 86.774131 45.221324 87.375 45.65625 C 87.975868 46.091192 88.815105 45.944697 89.25 45.34375 C 89.68488 44.742819 89.569619 43.903677 88.96875 43.46875 C 88.705873 43.278457 88.394161 43.199662 88.09375 43.21875 z M 50.71875 44.1875 C 49.715319 44.20312 48.727404 44.686883 48.09375 45.5625 C 47.026544 47.037204 47.337968 49.08892 48.8125 50.15625 C 50.287032 51.223581 52.370294 50.912204 53.4375 49.4375 C 54.504706 47.962796 54.162033 45.879831 52.6875 44.8125 C 52.088475 44.378902 51.405307 44.176753 50.71875 44.1875 z M 72.9375 47.09375 C 71.934068 47.10937 70.946154 47.561899 70.3125 48.4375 C 69.245295 49.912204 69.587968 51.99517 71.0625 53.0625 C 72.537032 54.129831 74.589028 53.787219 75.65625 52.3125 C 76.723455 50.837796 76.380783 48.786096 74.90625 47.71875 C 74.307225 47.285151 73.624057 47.08302 72.9375 47.09375 z M 82.96875 50.0625 C 82.378112 50.04344 81.778808 50.328945 81.40625 50.84375 C 80.810177 51.667431 80.988913 52.810083 81.8125 53.40625 C 82.636088 54.002402 83.810176 53.823682 84.40625 53 C 85.002338 52.176304 84.792338 51.033651 83.96875 50.4375 C 83.659889 50.213953 83.323126 50.073965 82.96875 50.0625 z M 59.6875 50.1875 C 59.005222 50.16548 58.336615 50.467817 57.90625 51.0625 C 57.217693 52.013996 57.423629 53.342599 58.375 54.03125 C 59.326371 54.7199 60.655193 54.513981 61.34375 53.5625 C 62.032322 52.611004 61.826387 51.2824 60.875 50.59375 C 60.518249 50.335512 60.096857 50.200746 59.6875 50.1875 z M 65.625 59.1875 C 64.023496 59.21249 62.480085 59.977503 61.46875 61.375 C 59.765454 63.728694 60.271587 67.01525 62.625 68.71875 C 64.978413 70.422249 68.265438 69.884944 69.96875 67.53125 C 71.672046 65.177571 71.165913 61.891 68.8125 60.1875 C 67.856427 59.495445 66.720774 59.170381 65.625 59.1875 z M 55.0625 60.625 C 54.380222 60.60298 53.68035 60.905317 53.25 61.5 C 52.561428 62.45148 52.798629 63.780099 53.75 64.46875 C 54.701371 65.1574 56.030194 64.95148 56.71875 64 C 57.407323 63.048504 57.170137 61.7199 56.21875 61.03125 C 55.861984 60.773012 55.471857 60.638246 55.0625 60.625 z M 54.21875 69.5625 C 53.215319 69.57812 52.227404 70.03065 51.59375 70.90625 C 50.526544 72.380955 50.869218 74.46392 52.34375 75.53125 C 53.818283 76.598596 55.870294 76.255954 56.9375 74.78125 C 58.004706 73.306531 57.693282 71.254831 56.21875 70.1875 C 55.619725 69.753901 54.905307 69.55177 54.21875 69.5625 z "
       id="path4971-6" />
    <path
       style="opacity:0.5;fill:url(#linearGradient3188);fill-opacity:1;fill-rule:nonzero;stroke:none"
       d="M 12,6 C 8.676,6 6,8.676 6,12 l 0,2 0,68 0,2 c 0,0.334721 0.04135,0.6507 0.09375,0.96875 0.0487,0.295596 0.09704,0.596915 0.1875,0.875 0.00988,0.03038 0.020892,0.0636 0.03125,0.09375 0.098865,0.287771 0.2348802,0.547452 0.375,0.8125 0.1445918,0.273507 0.3156161,0.535615 0.5,0.78125 0.1843839,0.245635 0.3737765,0.473472 0.59375,0.6875 0.439947,0.428056 0.94291,0.814526 1.5,1.09375 0.278545,0.139612 0.5734731,0.246947 0.875,0.34375 -0.2562018,-0.100222 -0.4867109,-0.236272 -0.71875,-0.375 -0.00741,-0.0044 -0.023866,0.0045 -0.03125,0 -0.031933,-0.0193 -0.062293,-0.04251 -0.09375,-0.0625 -0.120395,-0.0767 -0.2310226,-0.163513 -0.34375,-0.25 -0.1061728,-0.0808 -0.2132809,-0.161112 -0.3125,-0.25 C 8.4783201,88.557317 8.3087904,88.373362 8.15625,88.1875 8.0486711,88.057245 7.9378561,87.922215 7.84375,87.78125 7.818661,87.74287 7.805304,87.69538 7.78125,87.65625 7.716487,87.553218 7.6510225,87.451733 7.59375,87.34375 7.4927417,87.149044 7.3880752,86.928049 7.3125,86.71875 7.30454,86.69694 7.288911,86.6782 7.28125,86.65625 7.2494249,86.5643 7.2454455,86.469419 7.21875,86.375 7.1884177,86.268382 7.1483606,86.171969 7.125,86.0625 7.0521214,85.720988 7,85.364295 7,85 L 7,83 7,15 7,13 C 7,10.218152 9.2181517,8 12,8 l 2,0 68,0 2,0 c 2.781848,0 5,2.218152 5,5 l 0,2 0,68 0,2 c 0,0.364295 -0.05212,0.720988 -0.125,1.0625 -0.04415,0.206893 -0.08838,0.397658 -0.15625,0.59375 -0.0077,0.02195 -0.0233,0.04069 -0.03125,0.0625 -0.06274,0.173739 -0.138383,0.367449 -0.21875,0.53125 -0.04158,0.0828 -0.07904,0.169954 -0.125,0.25 -0.0546,0.09721 -0.126774,0.18835 -0.1875,0.28125 -0.09411,0.140965 -0.204921,0.275995 -0.3125,0.40625 -0.143174,0.17445 -0.303141,0.346998 -0.46875,0.5 -0.01117,0.0102 -0.01998,0.02115 -0.03125,0.03125 -0.138386,0.125556 -0.285091,0.234436 -0.4375,0.34375 -0.102571,0.07315 -0.204318,0.153364 -0.3125,0.21875 -0.0074,0.0045 -0.02384,-0.0044 -0.03125,0 -0.232039,0.138728 -0.462548,0.274778 -0.71875,0.375 0.301527,-0.0968 0.596455,-0.204138 0.875,-0.34375 0.55709,-0.279224 1.060053,-0.665694 1.5,-1.09375 0.219973,-0.214028 0.409366,-0.441865 0.59375,-0.6875 0.184384,-0.245635 0.355408,-0.507743 0.5,-0.78125 0.14012,-0.265048 0.276135,-0.524729 0.375,-0.8125 0.01041,-0.03078 0.02133,-0.06274 0.03125,-0.09375 0.09046,-0.278085 0.1388,-0.579404 0.1875,-0.875 C 89.95865,84.6507 90,84.334721 90,84 l 0,-2 0,-68 0,-2 C 90,8.676 87.324,6 84,6 L 12,6 z"
       id="rect3728" />
    <path
       id="path3615"
       d="M 12,90 C 8.676,90 6,87.324 6,84 L 6,82 6,14 6,12 c 0,-0.334721 0.04135,-0.6507 0.09375,-0.96875 0.0487,-0.295596 0.09704,-0.596915 0.1875,-0.875 C 6.29113,10.12587 6.302142,10.09265 6.3125,10.0625 6.411365,9.774729 6.5473802,9.515048 6.6875,9.25 6.8320918,8.976493 7.0031161,8.714385 7.1875,8.46875 7.3718839,8.223115 7.5612765,7.995278 7.78125,7.78125 8.221197,7.353194 8.72416,6.966724 9.28125,6.6875 9.559795,6.547888 9.8547231,6.440553 10.15625,6.34375 9.9000482,6.443972 9.6695391,6.580022 9.4375,6.71875 c -0.00741,0.0044 -0.023866,-0.0045 -0.03125,0 -0.031933,0.0193 -0.062293,0.04251 -0.09375,0.0625 -0.120395,0.0767 -0.2310226,0.163513 -0.34375,0.25 -0.1061728,0.0808 -0.2132809,0.161112 -0.3125,0.25 C 8.4783201,7.442683 8.3087904,7.626638 8.15625,7.8125 8.0486711,7.942755 7.9378561,8.077785 7.84375,8.21875 7.818661,8.25713 7.805304,8.30462 7.78125,8.34375 7.716487,8.446782 7.6510225,8.548267 7.59375,8.65625 7.4927417,8.850956 7.3880752,9.071951 7.3125,9.28125 7.30454,9.30306 7.288911,9.3218 7.28125,9.34375 7.2494249,9.4357 7.2454455,9.530581 7.21875,9.625 7.1884177,9.731618 7.1483606,9.828031 7.125,9.9375 7.0521214,10.279012 7,10.635705 7,11 l 0,2 0,68 0,2 c 0,2.781848 2.2181517,5 5,5 l 2,0 68,0 2,0 c 2.781848,0 5,-2.218152 5,-5 l 0,-2 0,-68 0,-2 C 89,10.635705 88.94788,10.279012 88.875,9.9375 88.83085,9.730607 88.78662,9.539842 88.71875,9.34375 88.71105,9.3218 88.69545,9.30306 88.6875,9.28125 88.62476,9.107511 88.549117,8.913801 88.46875,8.75 88.42717,8.6672 88.38971,8.580046 88.34375,8.5 88.28915,8.40279 88.216976,8.31165 88.15625,8.21875 88.06214,8.077785 87.951329,7.942755 87.84375,7.8125 87.700576,7.63805 87.540609,7.465502 87.375,7.3125 87.36383,7.3023 87.35502,7.29135 87.34375,7.28125 87.205364,7.155694 87.058659,7.046814 86.90625,6.9375 86.803679,6.86435 86.701932,6.784136 86.59375,6.71875 c -0.0074,-0.0045 -0.02384,0.0044 -0.03125,0 -0.232039,-0.138728 -0.462548,-0.274778 -0.71875,-0.375 0.301527,0.0968 0.596455,0.204138 0.875,0.34375 0.55709,0.279224 1.060053,0.665694 1.5,1.09375 0.219973,0.214028 0.409366,0.441865 0.59375,0.6875 0.184384,0.245635 0.355408,0.507743 0.5,0.78125 0.14012,0.265048 0.276135,0.524729 0.375,0.8125 0.01041,0.03078 0.02133,0.06274 0.03125,0.09375 0.09046,0.278085 0.1388,0.579404 0.1875,0.875 C 89.95865,11.3493 90,11.665279 90,12 l 0,2 0,68 0,2 c 0,3.324 -2.676,6 -6,6 l -72,0 z"
       style="opacity:0.2;fill:url(#radialGradient3619);fill-opacity:1;fill-rule:nonzero;stroke:none" />
  </g>
  <g
     inkscape:groupmode="layer"
     id="layer5"
     inkscape:label="Highlight"
     sodipodi:insensitive="true">
    <rect
       style="opacity:0.1;fill:url(#linearGradient3613);fill-opacity:1;fill-rule:nonzero;stroke:#ffffff;stroke-width:0.5;stroke-linecap:round;stroke-linejoin:miter;stroke-miterlimit:4;stroke-opacity:1;stroke-dasharray:none;stroke-dashoffset:0;filter:url(#filter3794)"
       id="rect3171"
       width="66"
       height="66"
       x="15"
       y="15"
       rx="12"
       ry="12"
       clip-path="url(#clipPath3613)" />
  </g>
</svg>
