<?xml version="1.0" encoding="UTF-8" standalone="no"?>
<!-- Created with Inkscape (http://www.inkscape.org/) -->

<svg
   xmlns:osb="http://www.openswatchbook.org/uri/2009/osb"
   xmlns:dc="http://purl.org/dc/elements/1.1/"
   xmlns:cc="http://creativecommons.org/ns#"
   xmlns:rdf="http://www.w3.org/1999/02/22-rdf-syntax-ns#"
   xmlns:svg="http://www.w3.org/2000/svg"
   xmlns="http://www.w3.org/2000/svg"
   xmlns:xlink="http://www.w3.org/1999/xlink"
   xmlns:sodipodi="http://sodipodi.sourceforge.net/DTD/sodipodi-0.dtd"
   xmlns:inkscape="http://www.inkscape.org/namespaces/inkscape"
   inkscape:version="0.48.4 r9939"
   version="1.1"
   id="svg2"
   height="32"
   width="32"
   sodipodi:docname="qutim-online.svg"
   inkscape:export-filename="C:\Users\Madnester\Desktop\qutim-onlione.png"
   inkscape:export-xdpi="2.8800001"
   inkscape:export-ydpi="2.8800001">
  <defs
     id="defs4">
    <linearGradient
       id="linearGradient4414">
      <stop
         style="stop-color:#56aeff;stop-opacity:1;"
         offset="0"
         id="stop4416" />
      <stop
         style="stop-color:#b1e4ff;stop-opacity:1;"
         offset="1"
         id="stop4418" />
    </linearGradient>
    <linearGradient
       id="linearGradient5361-2">
      <stop
         id="stop5369-8"
         offset="0"
         style="stop-color:#e1e1e1;stop-opacity:1;" />
      <stop
         style="stop-color:#e8e8e8;stop-opacity:1;"
         offset="1"
         id="stop5365-60" />
    </linearGradient>
    <linearGradient
       id="linearGradient4094-5">
      <stop
         style="stop-color:#f0f0f0;stop-opacity:1;"
         offset="0"
         id="stop4096-8" />
      <stop
         style="stop-color:#ffffff;stop-opacity:1;"
         offset="1"
         id="stop4098-6" />
    </linearGradient>
    <linearGradient
       id="linearGradient4156"
       osb:paint="gradient">
      <stop
         style="stop-color:#a7a7a7;stop-opacity:1"
         offset="0"
         id="stop4158" />
      <stop
         id="stop4160"
         offset="1"
         style="stop-color:#e1e1e1;stop-opacity:1;" />
    </linearGradient>
    <linearGradient
       id="linearGradient4683">
      <stop
         id="stop4685"
         offset="0"
         style="stop-color:#1169ae;stop-opacity:1;" />
      <stop
         id="stop4687"
         offset="1"
         style="stop-color:#64a5d6;stop-opacity:1;" />
    </linearGradient>
    <radialGradient
       inkscape:collect="always"
       xlink:href="#linearGradient5361-2"
       id="radialGradient4794"
       gradientUnits="userSpaceOnUse"
       gradientTransform="matrix(1.1098159,-0.48679144,0.4361157,0.79508716,-466.00642,202.35225)"
       cx="-26.501856"
       cy="1050.4344"
       fx="-26.501856"
       fy="1050.4344"
       r="15.130388" />
    <linearGradient
       inkscape:collect="always"
       xlink:href="#linearGradient4094-5"
       id="linearGradient4796"
       gradientUnits="userSpaceOnUse"
       gradientTransform="matrix(0.03323687,0,0,0.02972163,-48.69347,1019.4559)"
       x1="411.70193"
       y1="207.13803"
       x2="411.70193"
       y2="992.90033" />
    <radialGradient
       inkscape:collect="always"
       xlink:href="#linearGradient4683"
       id="radialGradient4798"
       gradientUnits="userSpaceOnUse"
       gradientTransform="matrix(1.5585876,-1.0348696,0.48491094,0.73031049,-562.12389,298.68191)"
       cx="15.261762"
       cy="1042.5221"
       fx="15.261762"
       fy="1042.5221"
       r="9.3150511" />
    <linearGradient
       inkscape:collect="always"
       xlink:href="#linearGradient4414"
       id="linearGradient4800"
       gradientUnits="userSpaceOnUse"
       gradientTransform="matrix(0.02878683,0,0,0.02727544,-46.41644,1019.7226)"
       x1="537.27936"
       y1="845.302"
       x2="579.22949"
       y2="97.690788" />
    <linearGradient
       inkscape:collect="always"
       xlink:href="#linearGradient4414"
       id="linearGradient4825"
       gradientUnits="userSpaceOnUse"
       gradientTransform="matrix(0.02410512,-0.0061168,0.00581189,0.02277574,-2.7402209,1028.1379)"
       x1="461.78595"
       y1="797.47272"
       x2="973.50885"
       y2="95.660049" />
    <linearGradient
       inkscape:collect="always"
       xlink:href="#linearGradient4094-5"
       id="linearGradient4853"
       gradientUnits="userSpaceOnUse"
       gradientTransform="matrix(0.03437119,0,0,0.03065015,-1.1736417,1018.1336)"
       x1="411.70193"
       y1="207.13803"
       x2="411.70193"
       y2="992.90033" />
    <radialGradient
       inkscape:collect="always"
       xlink:href="#linearGradient5361-2"
       id="radialGradient4855"
       gradientUnits="userSpaceOnUse"
       gradientTransform="matrix(1.1476919,-0.50199905,0.45099954,0.81992609,-432.72874,175.50321)"
       cx="-26.501856"
       cy="1050.4344"
       fx="-26.501856"
       fy="1050.4344"
       r="15.130388" />
  </defs>
  <sodipodi:namedview
     id="base"
     pagecolor="#ffffff"
     bordercolor="#666666"
     borderopacity="1.0"
     inkscape:pageopacity="0.0"
     inkscape:pageshadow="2"
     inkscape:zoom="6.9716309"
     inkscape:cx="16.298237"
     inkscape:cy="17.758598"
     inkscape:document-units="px"
     inkscape:current-layer="layer1"
     showgrid="false"
     inkscape:window-width="1440"
     inkscape:window-height="848"
     inkscape:window-x="-8"
     inkscape:window-y="-8"
     inkscape:window-maximized="1"
     inkscape:snap-bbox="false"
     inkscape:snap-global="true"
     showguides="false"
     inkscape:guide-bbox="true">
    <sodipodi:guide
       orientation="1,0"
       position="0,810.14234"
       id="guide3219" />
    <sodipodi:guide
       orientation="1,0"
       position="1000.051,496.99505"
       id="guide3221" />
    <sodipodi:guide
       orientation="0,1"
       position="125.25891,1000.051"
       id="guide3223" />
    <sodipodi:guide
       orientation="0,1"
       position="-389.91888,499.01535"
       id="guide3224" />
    <sodipodi:guide
       orientation="1,0"
       position="499.01535,349.51278"
       id="guide3226" />
    <sodipodi:guide
       orientation="1,0"
       position="-499.01535,256.57874"
       id="guide3228" />
    <sodipodi:guide
       orientation="0,1"
       position="-909.13728,0"
       id="guide3230" />
  </sodipodi:namedview>
  <metadata
     id="metadata7">
    <rdf:RDF>
      <cc:Work
         rdf:about="">
        <dc:format>image/svg+xml</dc:format>
        <dc:type
           rdf:resource="http://purl.org/dc/dcmitype/StillImage" />
        <dc:title></dc:title>
      </cc:Work>
    </rdf:RDF>
  </metadata>
  <g
     inkscape:label="Layer 1"
     inkscape:groupmode="layer"
     id="layer1"
     transform="translate(0,-1020.3622)">
    <g
       id="g4857">
      <path
         sodipodi:nodetypes="cccccccccccccccc"
         inkscape:connector-curvature="0"
         id="path4802"
         d="m 21.335799,1020.8788 c -0.152282,0 -0.304568,0.037 -0.452431,0.097 l -19.6807525,7.992 c -0.37111319,0.1502 -0.61717988,0.4409 -0.67864671,0.7734 l 0,0.064 c -0.008764,0.076 -0.0103176,0.1485 0,0.2256 l 0,3.1582 c -0.0112853,0.1649 0.0146607,0.354 0.0969491,0.5155 l 8.91935631,17.5312 c 0.2685986,0.5273 0.9920458,0.755 1.5835088,0.5155 l 19.680752,-7.9598 c 0.390364,-0.1581 0.633687,-0.4851 0.678647,-0.8379 -0.0056,-3.443 -0.02437,0.023 0,-3.4482 7.53e-4,-0.1464 -0.02436,-0.2764 -0.09695,-0.4189 l -8.951672,-17.5956 c -0.201454,-0.3954 -0.641908,-0.6233 -1.098761,-0.6122 z"
         style="fill:none;stroke:#9bb5c9;stroke-width:1.03268325;stroke-opacity:1" />
      <path
         sodipodi:nodetypes="cccccccccccccc"
         inkscape:connector-curvature="0"
         id="path3858"
         d="m 21.335799,1020.8788 c -0.152282,0 -0.304568,0.037 -0.452431,0.097 l -19.6807525,7.992 c -0.37111319,0.1502 -0.61717988,0.4409 -0.67864671,0.7734 -0.001685,1.138 0,2.3001 0,3.4483 -0.0112853,0.1649 0.0146607,0.354 0.0969491,0.5155 l 8.91935628,17.5312 c 0.2685986,0.5273 0.9920458,0.755 1.5835088,0.5155 l 19.680752,-7.9598 c 0.390364,-0.1581 0.633687,-0.4851 0.678647,-0.8379 0.01887,-3.3848 -0.01835,0.01 0,-3.4482 7.53e-4,-0.1464 -0.02436,-0.2764 -0.09695,-0.4189 l -8.951672,-17.5956 c -0.201454,-0.3954 -0.641908,-0.6233 -1.098761,-0.6122 z"
         style="fill:url(#radialGradient4855);fill-opacity:1;fill-rule:nonzero;stroke:none" />
      <path
         inkscape:connector-curvature="0"
         id="path4838"
         d="m 21.335799,1020.8788 c -0.152282,0 -0.304568,0.037 -0.452431,0.097 l -19.6807525,7.992 c -0.59146159,0.2395 -0.85029582,0.8585 -0.58169718,1.3858 l 8.95167258,17.563 c 0.2686006,0.5274 0.9597291,0.7551 1.5511921,0.5156 l 19.680752,-7.9922 c 0.591459,-0.2396 0.850297,-0.8262 0.581697,-1.3534 L 22.43456,1021.491 c -0.201454,-0.3954 -0.641908,-0.6233 -1.098761,-0.6122 z"
         style="fill:#5882a4;fill-opacity:1;fill-rule:nonzero;stroke:none" />
      <path
         style="fill:url(#linearGradient4825);fill-opacity:1;fill-rule:nonzero;stroke:#a9d9ff;stroke-width:0.0945262;stroke-miterlimit:4;stroke-opacity:1;stroke-dasharray:none;marker-start:none"
         d="m 11.335444,1032.3274 c 0.297474,1.0049 -0.787384,1.3286 -0.862236,0.097 -0.08569,-1.4108 -1.1602523,-1.7829 -2.1632408,-2.046 2.3688358,1.8343 0.2325113,2.3806 0.1540505,5.5281 -0.026633,1.0679 0.00638,2.1541 0.6333136,2.9324 0.1785665,0.2217 0.5637913,0.4473 0.6134432,0.7559 0.051964,0.3231 -0.060588,0.6106 -0.1292709,0.9232 -0.1045326,0.476 -0.407308,0.9609 -0.4928425,1.3858 -0.047221,0.2346 0.2406569,0.3294 0.4456465,0.385 0.3089968,0.082 0.6955314,0.035 0.9256204,0.2774 0.160365,0.1668 0.18311,0.3825 0.137946,0.595 -0.04198,0.1979 -0.03768,0.4833 0.17258,0.5545 0.154508,0.053 0.342818,0.057 0.472208,0.1822 0.124902,0.1224 0.127554,0.3059 0.295749,0.3833 0.280312,0.1289 0.657099,0.014 0.932561,0.3605 0.128186,0.1613 0.234455,0.3497 0.389209,0.5025 0.234462,0.2315 0.716719,0.1985 1.026539,0.087 0.333297,-0.1206 0.558613,-0.2856 0.861845,-0.4679 0.785969,-0.4727 1.497778,-1.0155 2.137367,-1.6773 0.542711,-0.5616 0.866392,-0.8842 1.362125,-1.3594 0.354311,-0.3398 0.978622,-0.4138 1.409921,-0.6474 0.532794,-0.2882 1.1711,-0.6903 1.475533,-1.1846 0.321655,-0.5223 0.412984,-0.894 0.352246,-1.6913 -0.120936,0.2959 -0.455083,0.9898 -0.890814,1.261 -0.479071,0.2984 -0.686857,0.2605 -0.896901,0.091 -0.179587,-0.1451 -0.274681,-0.3743 -0.324518,-0.5953 0.05616,-1.0761 1.496653,-0.9995 2.306063,-1.5708 1.473282,-1.0402 1.48675,-2.5571 1.302283,-3.6985 -0.100754,-0.6232 -0.128129,-1.0497 0.610304,-2.5427 -1.176267,0.8851 -1.590433,1.529 -1.727558,2.2534 -0.128512,0.6794 -0.845122,1.6227 -1.535853,1.1627 -0.880349,-0.5862 0.391526,-1.9921 1.441315,-2.5484 0.838869,-0.4448 1.445043,-1.5255 1.409405,-2.4113 -0.294851,-3.0292 -2.030611,-3.9708 -1.509337,-6.3917 -2.56084,3.234 0.480953,3.8689 -1.044028,6.3831 -0.866293,1.4284 -2.245049,1.1364 -2.033421,0.05 0.136709,-0.7014 0.945512,-0.5018 0.811441,-2.0059 -0.420924,1.1037 -2.711913,1.0111 -2.933856,2.6878 -0.386125,2.9177 -2.512237,0.7428 -0.417612,-1.1398 0.883682,-0.7942 3.383873,-1.243 3.00512,-5.2136 -0.617272,2.5653 -3.639537,2.949 -5.750333,4.5232 -1.087485,0.8109 -2.397253,2.3943 -1.972042,3.8304 z"
         id="path4823"
         inkscape:connector-curvature="0"
         sodipodi:nodetypes="sscssssssssssssssssssscsscsscsssccsscsscss" />
      <path
         inkscape:connector-curvature="0"
         id="path3854"
         d="m 21.335799,1020.8788 c -0.152282,0 -0.304568,0.037 -0.452431,0.097 l -19.6807525,7.992 c -0.59146159,0.2395 -0.85029582,0.8585 -0.58169718,1.3857 l 8.95167258,17.5634 c 0.2686006,0.5274 0.9597291,0.7551 1.5511921,0.5156 l 19.680752,-7.9922 c 0.591459,-0.2396 0.850297,-0.8262 0.581697,-1.3534 l -8.951672,-17.5956 c -0.201454,-0.3954 -0.641908,-0.6233 -1.098761,-0.6122 z m 0.323165,1.6757 c -0.521274,2.4208 1.224024,3.3515 1.518875,6.3808 0.03564,0.8858 -0.583056,1.9722 -1.421926,2.417 -1.049788,0.5563 -2.302274,1.9597 -1.421926,2.5458 0.690731,0.4599 1.390364,-0.4808 1.518876,-1.1601 0.137124,-0.7244 0.568825,-1.3707 1.745092,-2.2558 -0.738433,1.493 -0.71477,1.9226 -0.614014,2.5459 0.184465,1.1413 0.180621,2.6657 -1.29266,3.706 -0.80941,0.5712 -2.270636,0.5031 -2.326789,1.5791 0.04984,0.221 0.143577,0.435 0.323166,0.58 0.210042,0.1698 0.42579,0.2017 0.904862,-0.097 0.43573,-0.2714 0.783927,-0.961 0.904861,-1.2569 0.06074,0.7973 -0.03382,1.1856 -0.355481,1.708 -0.304432,0.4942 -0.953766,0.8719 -1.486559,1.1601 -0.4313,0.2336 -1.067617,0.337 -1.421926,0.6768 -0.495734,0.4752 -0.814583,0.7919 -1.357294,1.3535 -0.639589,0.6618 -1.34692,1.2032 -2.132889,1.6758 -0.303234,0.1823 -0.539248,0.3305 -0.872546,0.4512 -0.309821,0.1119 -0.76735,0.167 -1.001812,-0.064 -0.154755,-0.1528 -0.259611,-0.3543 -0.387798,-0.5156 -0.275462,-0.3461 -0.656867,-0.2256 -0.937179,-0.3545 -0.168196,-0.077 -0.165946,-0.2644 -0.290848,-0.3867 -0.12939,-0.1255 -0.33024,-0.1408 -0.484748,-0.1934 -0.210264,-0.071 -0.203557,-0.35 -0.161582,-0.5479 0.04517,-0.2125 -0.0012,-0.4132 -0.161583,-0.58 -0.230089,-0.2424 -0.5958641,-0.2076 -0.9048618,-0.2901 -0.2049892,-0.056 -0.4996525,-0.1521 -0.4524311,-0.3867 0.085534,-0.4249 0.3802147,-0.9097 0.4847478,-1.3857 0.068681,-0.3126 0.1812301,-0.6114 0.1292658,-0.9345 -0.049648,-0.3088 -0.4354471,-0.5195 -0.6140136,-0.7412 -0.626933,-0.7783 -0.6406466,-1.8648 -0.6140136,-2.9327 0.078461,-3.1475 2.2072535,-3.7086 -0.1615826,-5.5429 1.0029885,0.2632 2.0795181,0.6518 2.1652061,2.0625 0.07486,1.2318 1.170021,0.9083 0.872546,-0.097 -0.425211,-1.4361 0.883821,-3.0241 1.971306,-3.8349 2.110796,-1.5743 5.135066,-1.9464 5.752338,-4.5117 0.378754,3.9706 -2.121752,4.3941 -3.005434,5.1884 -2.094625,1.8826 0.0017,4.0779 0.387797,1.1602 0.221945,-1.6767 2.51988,-1.6034 2.940802,-2.707 0.134072,1.504 -0.671203,1.3288 -0.807912,2.0302 -0.211628,1.0869 1.169646,1.364 2.03594,-0.064 1.524981,-2.5142 -1.526712,-3.1469 1.034128,-6.3808 z"
         style="fill:url(#linearGradient4853);fill-opacity:1;fill-rule:nonzero;stroke:#ffffff;stroke-width:0;stroke-miterlimit:4;stroke-opacity:1;stroke-dasharray:none" />
      <path
         inkscape:connector-curvature="0"
         id="path4840"
         d="m 21.335799,1020.8788 c -0.152282,0 -0.304568,0.037 -0.452431,0.097 l -19.6807525,7.992 c -0.59146159,0.2395 -0.85029582,0.8585 -0.58169718,1.3857 l 8.95167258,17.5634 c 0.2686006,0.5274 0.9597291,0.7551 1.5511921,0.5156 l 19.680752,-7.9922 c 0.591459,-0.2396 0.850297,-0.8262 0.581697,-1.3534 l -8.951672,-17.5956 c -0.201454,-0.3954 -0.641908,-0.6233 -1.098761,-0.6122 z m 0,0.1933 c 0.384736,-0.01 0.744008,0.1997 0.904862,0.5156 l 8.951672,17.5956 c 0.216249,0.4244 0.04949,0.86 -0.452431,1.0634 l -19.680752,7.9921 c -0.497083,0.2013 -1.078028,0 -1.2926599,-0.4189 l -8.95167271,-17.5633 c -0.214697,-0.4215 -0.0434095,-0.895 0.45243111,-1.0957 l 19.6807525,-7.9922 c 0.12946,-0.053 0.268991,-0.097 0.387798,-0.097 z m 0.226216,1.289 a 0.20684632,0.20626873 0 0 0 -0.03232,0.032 0.20684632,0.20626873 0 0 0 -0.03232,0.032 c -0.02809,0.035 -0.0055,0.062 -0.03232,0.097 -0.598405,0.7792 -0.933459,1.4287 -1.034128,1.9981 -0.105182,0.5948 6.4e-5,1.0978 0.129266,1.5469 0.129201,0.4491 0.261825,0.8639 0.290848,1.289 0.02903,0.4251 -0.02436,0.8831 -0.387797,1.4824 -0.404892,0.6676 -0.937071,0.8902 -1.260344,0.8701 -0.161637,-0.01 -0.248227,-0.09 -0.323165,-0.1933 -0.07495,-0.1036 -0.141519,-0.2546 -0.09695,-0.4835 0.02661,-0.1365 0.08336,-0.2008 0.161582,-0.29 0.07823,-0.09 0.176598,-0.191 0.290849,-0.3223 0.208583,-0.2398 0.346815,-0.6917 0.323165,-1.3534 0.0031,-0.01 -0.0066,-0.028 0,-0.032 -0.0024,-0.049 0.03699,-0.044 0.03232,-0.097 a 0.20684632,0.20626873 0 0 0 0,-0.032 0.20684632,0.20626873 0 0 0 0,-0.032 0.20684632,0.20626873 0 0 0 -0.03232,-0.032 0.20684632,0.20626873 0 0 0 -0.03232,-0.032 0.20684632,0.20626873 0 0 0 -0.06463,-0.032 0.20684632,0.20626873 0 0 0 -0.03232,0 0.20684632,0.20626873 0 0 0 -0.03232,0 0.20684632,0.20626873 0 0 0 -0.03232,0 0.20684632,0.20626873 0 0 0 -0.03232,0 0.20684632,0.20626873 0 0 0 -0.03232,0 0.20684632,0.20626873 0 0 0 -0.03232,0.032 0.20684632,0.20626873 0 0 0 -0.03232,0.032 0.20684632,0.20626873 0 0 0 -0.03232,0.064 c -0.08273,0.2169 -0.257869,0.385 -0.517065,0.5477 -0.259196,0.1627 -0.603433,0.3157 -0.937178,0.4834 -0.333746,0.1678 -0.657951,0.3408 -0.937179,0.6123 -0.279228,0.2715 -0.48781,0.6306 -0.549381,1.0958 -0.09292,0.702 -0.308222,1.0765 -0.452431,1.1923 -0.07211,0.058 -0.118854,0.073 -0.161582,0.064 -0.04273,-0.01 -0.10772,-0.056 -0.161583,-0.1289 -0.215453,-0.291 -0.281161,-1.2031 0.710964,-2.0947 0.383358,-0.3447 1.277047,-0.6775 2.003623,-1.418 0.717197,-0.731 1.23849,-1.9185 1.066444,-3.8994 -0.0023,-0.026 0.0025,-0.039 0,-0.064 a 0.20684632,0.20626873 0 0 0 0,-0.032 0.20684632,0.20626873 0 0 0 0,-0.032 0.20684632,0.20626873 0 0 0 -0.03232,-0.032 0.20684632,0.20626873 0 0 0 -0.03232,-0.032 0.20684632,0.20626873 0 0 0 -0.06463,-0.032 0.20684632,0.20626873 0 0 0 -0.03232,0 0.20684632,0.20626873 0 0 0 -0.03232,0 0.20684632,0.20626873 0 0 0 -0.03232,0 0.20684632,0.20626873 0 0 0 -0.03232,0 0.20684632,0.20626873 0 0 0 -0.03232,0 0.20684632,0.20626873 0 0 0 -0.03232,0.032 0.20684632,0.20626873 0 0 0 -0.03232,0.032 0.20684632,0.20626873 0 0 0 -0.03232,0.064 0.20684632,0.20626873 0 0 0 0,0.032 c -0.291284,1.2105 -1.151878,1.8816 -2.22984,2.4814 -1.077961,0.5998 -2.370789,1.0906 -3.457866,1.9013 -0.563725,0.4204 -1.187626,1.0324 -1.615825,1.7403 -0.4282,0.7078 -0.654905,1.5273 -0.420115,2.3203 0.06377,0.2154 0.04097,0.3826 0,0.4834 -0.04097,0.1011 -0.114686,0.1188 -0.161582,0.1289 -0.0469,0.01 -0.0926,0.016 -0.161583,-0.064 -0.06898,-0.081 -0.144744,-0.2387 -0.161582,-0.5157 -0.04594,-0.7563 -0.362962,-1.2749 -0.8079129,-1.6113 -0.4251439,-0.3216 -0.9334869,-0.4819 -1.4219263,-0.6123 -0.022756,-0.01 -0.042015,-0.026 -0.064633,-0.032 a 0.20684632,0.20626873 0 0 0 -0.032317,0 0.20684632,0.20626873 0 0 0 -0.032317,0 0.20684632,0.20626873 0 0 0 -0.032317,0 0.20684632,0.20626873 0 0 0 -0.032317,0 0.20684632,0.20626873 0 0 0 -0.064632,0.032 0.20684632,0.20626873 0 0 0 -0.032317,0.032 0.20684632,0.20626873 0 0 0 -0.032317,0.032 0.20684632,0.20626873 0 0 0 0,0.032 0.20684632,0.20626873 0 0 0 0,0.032 0.20684632,0.20626873 0 0 0 0,0.032 0.20684632,0.20626873 0 0 0 0,0.032 0.20684632,0.20626873 0 0 0 0,0.032 0.20684632,0.20626873 0 0 0 0,0.032 0.20684632,0.20626873 0 0 0 0.032317,0.032 0.20684632,0.20626873 0 0 0 0.032317,0.032 c 0.5763219,0.4463 0.8570984,0.7902 0.9694951,1.0958 0.1123968,0.3055 0.084312,0.6049 -0.032317,0.9668 -0.233257,0.7237 -0.7998516,1.6993 -0.8402292,3.3192 -0.026763,1.073 -0.038536,2.2114 0.6463301,3.0616 0.1147871,0.1425 0.2737986,0.2459 0.3877982,0.3545 0.1139995,0.1084 0.1811696,0.2108 0.193899,0.29 0.041411,0.2575 -0.056371,0.5383 -0.129266,0.87 -0.093435,0.4254 -0.3871461,0.901 -0.4847477,1.3858 -0.020511,0.1021 -0.014103,0.2076 0.032317,0.29 0.04642,0.082 0.1285082,0.1189 0.1938991,0.1612 0.1307819,0.084 0.247949,0.1319 0.3554816,0.1611 0.1812123,0.048 0.3762457,0.068 0.5170636,0.097 0.1408191,0.028 0.2168221,0.05 0.2908481,0.1289 0.116829,0.1216 0.163005,0.2601 0.129266,0.4189 -0.02459,0.1159 -0.05983,0.2399 -0.03232,0.3867 0.02751,0.1468 0.139621,0.3245 0.323165,0.3868 0.19479,0.066 0.361401,0.1042 0.420115,0.1611 0.0244,0.024 0.0229,0.045 0.06463,0.1289 0.04173,0.084 0.116534,0.2247 0.258532,0.29 0.194805,0.09 0.37406,0.071 0.517064,0.097 0.143003,0.026 0.253915,0.066 0.355481,0.1934 0.110203,0.1387 0.201648,0.364 0.387799,0.5478 0.170863,0.1688 0.431331,0.192 0.64633,0.1934 0.214998,0 0.406372,-0.033 0.581697,-0.097 0.354918,-0.1285 0.603428,-0.3022 0.904862,-0.4834 0.798792,-0.4803 1.544174,-1.032 2.197522,-1.708 0.541583,-0.5605 0.830399,-0.8472 1.324977,-1.3213 0.280243,-0.2688 0.90583,-0.3826 1.38961,-0.6445 0.53744,-0.2908 1.202706,-0.691 1.551192,-1.2568 0.317664,-0.5159 0.396212,-0.9697 0.355482,-1.708 -8.94e-4,-0.017 0.03336,-0.016 0.03232,-0.032 -0.0018,-0.027 0.0022,-0.037 0,-0.064 a 0.20684632,0.20626873 0 0 0 0,-0.032 0.20684632,0.20626873 0 0 0 0,-0.032 0.20684632,0.20626873 0 0 0 0,-0.032 0.20684632,0.20626873 0 0 0 -0.03232,-0.032 0.20684632,0.20626873 0 0 0 -0.03232,-0.032 0.20684632,0.20626873 0 0 0 -0.06463,-0.032 0.20684632,0.20626873 0 0 0 -0.03232,0 0.20684632,0.20626873 0 0 0 -0.03232,0 0.20684632,0.20626873 0 0 0 -0.03232,0 0.20684632,0.20626873 0 0 0 -0.03232,0 0.20684632,0.20626873 0 0 0 -0.03232,0 0.20684632,0.20626873 0 0 0 -0.03232,0.032 0.20684632,0.20626873 0 0 0 -0.03232,0.032 0.20684632,0.20626873 0 0 0 -0.03232,0.064 c -0.110962,0.2714 -0.463748,0.9458 -0.807913,1.1601 -0.224893,0.1401 -0.367911,0.1885 -0.452431,0.1934 -0.08451,0 -0.143178,-0.03 -0.226215,-0.097 -0.122677,-0.099 -0.21345,-0.2377 -0.258533,-0.4189 6.37e-4,-0.012 -0.001,-0.021 0,-0.032 0.01739,-0.2018 0.106962,-0.3347 0.226216,-0.4511 0.126161,-0.1233 0.324394,-0.2004 0.549381,-0.2901 0.449975,-0.1794 1.030785,-0.3229 1.486559,-0.6445 0.77546,-0.5475 1.15291,-1.2395 1.324977,-1.9336 0.172067,-0.6942 0.126887,-1.3807 0.03232,-1.9658 -0.0496,-0.3069 -0.06804,-0.5272 0,-0.8701 0.06804,-0.3429 0.248666,-0.8082 0.614014,-1.5469 a 0.20684632,0.20626873 0 0 0 0,-0.032 0.20684632,0.20626873 0 0 0 0,-0.032 0.20684632,0.20626873 0 0 0 0,-0.032 0.20684632,0.20626873 0 0 0 0,-0.032 0.20684632,0.20626873 0 0 0 0,-0.032 0.20684632,0.20626873 0 0 0 0,-0.032 0.20684632,0.20626873 0 0 0 -0.03232,-0.032 0.20684632,0.20626873 0 0 0 -0.03232,-0.032 0.20684632,0.20626873 0 0 0 -0.03232,-0.032 0.20684632,0.20626873 0 0 0 -0.03232,0 0.20684632,0.20626873 0 0 0 -0.03232,0 0.20684632,0.20626873 0 0 0 -0.03232,0 0.20684632,0.20626873 0 0 0 -0.03232,0 0.20684632,0.20626873 0 0 0 -0.03232,0 0.20684632,0.20626873 0 0 0 -0.06463,0.032 c -0.03064,0.023 -0.03493,0.042 -0.06463,0.064 -1.129398,0.8668 -1.601234,1.5603 -1.745091,2.3203 -0.05481,0.2898 -0.247162,0.6772 -0.484748,0.9023 -0.118794,0.1125 -0.27296,0.1695 -0.387798,0.1933 -0.114838,0.024 -0.190971,0.023 -0.323165,-0.064 -0.169554,-0.113 -0.233596,-0.2228 -0.226216,-0.3868 0.0073,-0.1638 0.104432,-0.3847 0.258532,-0.6122 0.308203,-0.4552 0.865937,-0.932 1.357294,-1.1924 0.92491,-0.4903 1.558629,-1.6223 1.518875,-2.6103 a 0.20684632,0.20626873 0 0 0 0,-0.032 c -0.15102,-1.5516 -0.661898,-2.5742 -1.066444,-3.4804 -0.404546,-0.9061 -0.701979,-1.677 -0.452431,-2.8359 a 0.20684632,0.20626873 0 0 0 0,-0.032 0.20684632,0.20626873 0 0 0 0,-0.032 0.20684632,0.20626873 0 0 0 0,-0.032 0.20684632,0.20626873 0 0 0 0,-0.032 0.20684632,0.20626873 0 0 0 -0.03232,-0.032 0.20684632,0.20626873 0 0 0 -0.03232,-0.032 0.20684632,0.20626873 0 0 0 -0.06463,-0.032 0.20684632,0.20626873 0 0 0 -0.03232,0 0.20684632,0.20626873 0 0 0 -0.03232,0 0.20684632,0.20626873 0 0 0 -0.03232,0 0.20684632,0.20626873 0 0 0 -0.03232,0 0.20684632,0.20626873 0 0 0 -0.03232,0 z m 0.09695,0.1934 c -0.521274,2.4208 1.224024,3.3515 1.518875,6.3808 0.03564,0.8858 -0.583056,1.9722 -1.421926,2.417 -1.049788,0.5563 -2.302274,1.9597 -1.421926,2.5458 0.690731,0.4599 1.390364,-0.4808 1.518876,-1.1601 0.137124,-0.7244 0.568825,-1.3707 1.745092,-2.2558 -0.738433,1.493 -0.71477,1.9226 -0.614014,2.5459 0.184465,1.1413 0.180621,2.6657 -1.29266,3.706 -0.80941,0.5712 -2.270636,0.5031 -2.326789,1.5791 0.04984,0.221 0.143577,0.435 0.323166,0.58 0.210042,0.1698 0.42579,0.2017 0.904862,-0.097 0.43573,-0.2714 0.783927,-0.961 0.904861,-1.2569 0.06074,0.7973 -0.03382,1.1856 -0.355481,1.708 -0.304432,0.4942 -0.953766,0.8719 -1.486559,1.1601 -0.4313,0.2336 -1.067617,0.337 -1.421926,0.6768 -0.495734,0.4752 -0.814583,0.7919 -1.357294,1.3535 -0.639589,0.6618 -1.34692,1.2032 -2.132889,1.6758 -0.303234,0.1823 -0.539248,0.3305 -0.872546,0.4512 -0.309821,0.1119 -0.76735,0.167 -1.001812,-0.064 -0.154755,-0.1528 -0.259611,-0.3543 -0.387798,-0.5156 -0.275462,-0.3461 -0.656867,-0.2256 -0.937179,-0.3545 -0.168196,-0.077 -0.165946,-0.2644 -0.290848,-0.3867 -0.12939,-0.1255 -0.33024,-0.1408 -0.484748,-0.1934 -0.210264,-0.071 -0.203557,-0.35 -0.161582,-0.5479 0.04517,-0.2125 -0.0012,-0.4132 -0.161583,-0.58 -0.230089,-0.2424 -0.5958641,-0.2076 -0.9048618,-0.2901 -0.2049892,-0.056 -0.4996525,-0.1521 -0.4524311,-0.3867 0.085534,-0.4249 0.3802147,-0.9097 0.4847478,-1.3857 0.068681,-0.3126 0.1812301,-0.6114 0.1292658,-0.9345 -0.049648,-0.3088 -0.4354471,-0.5195 -0.6140136,-0.7412 -0.626933,-0.7783 -0.6406466,-1.8648 -0.6140136,-2.9327 0.078461,-3.1475 2.2072535,-3.7086 -0.1615826,-5.5429 1.0029885,0.2632 2.0795181,0.6518 2.1652061,2.0625 0.07486,1.2318 1.170021,0.9083 0.872546,-0.097 -0.425211,-1.4361 0.883821,-3.0241 1.971306,-3.8349 2.110796,-1.5743 5.135066,-1.9464 5.752338,-4.5117 0.378754,3.9706 -2.121752,4.3941 -3.005434,5.1884 -2.094625,1.8826 0.0017,4.0779 0.387797,1.1602 0.221945,-1.6767 2.51988,-1.6034 2.940802,-2.707 0.134072,1.504 -0.671203,1.3288 -0.807912,2.0302 -0.211628,1.0869 1.169646,1.364 2.03594,-0.064 1.524981,-2.5142 -1.526712,-3.1469 1.034128,-6.3808 z"
         style="font-size:medium;font-style:normal;font-variant:normal;font-weight:normal;font-stretch:normal;text-indent:0;text-align:start;text-decoration:none;line-height:normal;letter-spacing:normal;word-spacing:normal;text-transform:none;direction:ltr;block-progression:tb;writing-mode:lr-tb;text-anchor:start;baseline-shift:baseline;color:#000000;fill:#ffffff;fill-opacity:1;fill-rule:nonzero;stroke:none;stroke-width:0.40000001;marker:none;visibility:visible;display:inline;overflow:visible;enable-background:accumulate;font-family:Sans;-inkscape-font-specification:Sans" />
    </g>
  </g>
</svg>
