<?xml version="1.0" encoding="UTF-8" standalone="no"?>
<!-- Created with Inkscape (http://www.inkscape.org/) -->

<svg
   xmlns:osb="http://www.openswatchbook.org/uri/2009/osb"
   xmlns:dc="http://purl.org/dc/elements/1.1/"
   xmlns:cc="http://creativecommons.org/ns#"
   xmlns:rdf="http://www.w3.org/1999/02/22-rdf-syntax-ns#"
   xmlns:svg="http://www.w3.org/2000/svg"
   xmlns="http://www.w3.org/2000/svg"
   xmlns:xlink="http://www.w3.org/1999/xlink"
   xmlns:sodipodi="http://sodipodi.sourceforge.net/DTD/sodipodi-0.dtd"
   xmlns:inkscape="http://www.inkscape.org/namespaces/inkscape"
   width="256"
   height="256"
   id="svg2"
   version="1.1"
   inkscape:version="0.48+devel r11802"
   sodipodi:docname="qutim-0.2.svg"
   inkscape:export-filename="C:\Users\Madnester\Desktop\qutim-online1.png"
   inkscape:export-xdpi="44.969795"
   inkscape:export-ydpi="44.969795">
  <defs
     id="defs4">
    <linearGradient
       osb:paint="gradient"
       id="linearGradient4156">
      <stop
         id="stop4158"
         offset="0"
         style="stop-color:#a7a7a7;stop-opacity:1" />
      <stop
         style="stop-color:#e1e1e1;stop-opacity:1;"
         offset="1"
         id="stop4160" />
    </linearGradient>
    <linearGradient
       inkscape:collect="always"
       xlink:href="#linearGradient4094-5"
       id="linearGradient3788"
       gradientUnits="userSpaceOnUse"
       gradientTransform="matrix(0.25576293,0,0,0.25579303,-0.24233539,783.19838)"
       x1="831.07263"
       y1="746.60095"
       x2="512.15491"
       y2="197.74156" />
    <linearGradient
       id="linearGradient4094-5">
      <stop
         id="stop4096-8"
         offset="0"
         style="stop-color:#aaaaaa;stop-opacity:1;" />
      <stop
         id="stop4098-6"
         offset="1"
         style="stop-color:#f0f0f0;stop-opacity:1;" />
    </linearGradient>
    <linearGradient
       id="linearGradient4414">
      <stop
         id="stop4416"
         offset="0"
         style="stop-color:#0069c8;stop-opacity:1;" />
      <stop
         id="stop4418"
         offset="1"
         style="stop-color:#55c4ff;stop-opacity:1;" />
    </linearGradient>
    <linearGradient
       inkscape:collect="always"
       xlink:href="#linearGradient4414"
       id="linearGradient2438"
       x1="109.10094"
       y1="1053.3105"
       x2="111.49563"
       y2="796.78009"
       gradientUnits="userSpaceOnUse" />
  </defs>
  <sodipodi:namedview
     id="base"
     pagecolor="#ffffff"
     bordercolor="#666666"
     borderopacity="1.0"
     inkscape:pageopacity="0.0"
     inkscape:pageshadow="2"
     inkscape:zoom="1.7043185"
     inkscape:cx="195.36165"
     inkscape:cy="121.04577"
     inkscape:document-units="px"
     inkscape:current-layer="layer1"
     showgrid="false"
     inkscape:window-width="1440"
     inkscape:window-height="848"
     inkscape:window-x="-8"
     inkscape:window-y="-8"
     inkscape:window-maximized="1" />
  <metadata
     id="metadata7">
    <rdf:RDF>
      <cc:Work
         rdf:about="">
        <dc:format>image/svg+xml</dc:format>
        <dc:type
           rdf:resource="http://purl.org/dc/dcmitype/StillImage" />
        <dc:title />
      </cc:Work>
    </rdf:RDF>
  </metadata>
  <g
     inkscape:label="Layer 1"
     inkscape:groupmode="layer"
     id="layer1"
     transform="translate(0,-796.36218)">
    <path
       style="opacity:0.07999998;fill:#000000;fill-opacity:1;fill-rule:nonzero;stroke:none"
       d="m 169.88307,796.36754 c -9.69722,1.13009 -17.67207,7.41379 -26.70366,10.6286 -45.502441,20.79517 -91.230004,41.09964 -136.5619496,62.26862 -7.32785782,5.12572 -8.6537707,16.35688 -3.558009,23.46272 23.4030496,50.95498 46.0949406,102.23559 69.8175346,153.04472 5.138791,7.3796 16.481544,8.6124 23.655725,3.4405 50.875969,-23.3454 102.056619,-46.0467 152.797349,-69.67412 7.30423,-5.09603 8.68387,-16.30461 3.62081,-23.42147 -23.35796,-50.86489 -46.0815,-102.02975 -69.66651,-152.7846 -2.96663,-4.32375 -8.15923,-7.10937 -13.40129,-6.96497 z m -7.84607,38.72691 c 1.72423,2.54304 2.20694,5.69934 3.82979,8.31222 17.17764,38.29682 35.11747,76.25815 51.74734,114.79154 -2.61483,1.96086 -5.98605,2.39124 -8.74922,4.10527 -38.24725,17.19359 -76.21096,35.06952 -114.665044,51.72362 -2.088963,-2.6776 -2.445177,-6.2045 -4.259037,-9.0333 -17.144485,-38.14623 -34.990247,-75.98645 -51.578208,-114.37259 2.412845,-1.98367 5.683614,-2.26247 8.278587,-3.94741 38.405028,-17.26005 76.512892,-35.19288 115.144052,-51.93179 l 0.15607,0.21851 0.0957,0.13393 z"
       id="path4054-4"
       inkscape:connector-curvature="0" />
    <path
       style="opacity:0.1;fill:#000000;fill-opacity:1;fill-rule:nonzero;stroke:none"
       d="m 169.45512,798.53255 c -8.10539,1.14547 -14.82347,6.3434 -22.40827,9.04472 -46.35964,21.18148 -92.915856,41.93284 -139.1454854,63.39937 -6.380015,4.39722 -7.51047365,14.19919 -3.1132579,20.35785 23.3682883,51.00176 46.1572933,102.2691 69.8007513,153.14541 4.398688,6.3888 14.162498,7.4778 20.315896,3.1133 50.945896,-23.3026 102.097866,-46.1579 152.952446,-69.65811 6.54881,-4.31893 7.76621,-14.17843 3.33983,-20.45856 -23.27032,-50.862 -46.101,-101.9238 -69.54063,-152.70907 -2.60508,-3.97346 -7.4201,-6.54611 -12.20128,-6.23491 z m -7.48525,33.91018 c 2.8919,0.98175 2.99064,4.51878 4.3578,6.80001 17.82777,39.62762 36.23943,79.00159 53.67803,118.79603 -0.5333,2.88222 -3.9448,3.22062 -6.07697,4.33117 -39.93582,17.9549 -79.59644,36.5386 -119.720473,54.05706 -2.920792,-0.8268 -3.199609,-4.3205 -4.440317,-6.6056 -17.865319,-39.74257 -36.368335,-79.20581 -53.805297,-119.13306 0.605742,-2.84082 3.930351,-3.17246 6.100643,-4.28807 39.927039,-17.955 79.571334,-36.55622 119.705194,-54.03307 l 0.20139,0.0755 z"
       id="path4024-2"
       inkscape:connector-curvature="0" />
    <path
       style="opacity:0.15;fill:#000000;fill-opacity:1;fill-rule:nonzero;stroke:none"
       d="m 169.40477,800.65561 c -5.99134,0.80426 -10.94006,4.59843 -16.53623,6.62404 -47.80973,21.80929 -95.764004,43.31041 -143.490266,65.29977 -5.3982113,3.52549 -6.6533963,11.59878 -3.0941548,16.84277 23.3980118,51.23317 46.3874468,102.66357 70.0295088,153.78031 3.640214,5.3218 11.719612,6.3718 16.938967,2.7772 51.085805,-23.32 102.337375,-46.28517 153.337495,-69.79005 5.40828,-3.5072 6.64526,-11.58943 3.08605,-16.8429 -23.25392,-51.04823 -46.28535,-102.19828 -69.67288,-153.1863 -2.22149,-3.55269 -6.40235,-5.74987 -10.59849,-5.50484 z m -7.61951,29.56336 c 3.09069,0.089 4.6467,3.36581 5.47297,5.9005 18.25696,40.37089 36.80214,80.61569 54.84535,121.08014 0.54552,2.95957 -2.18773,5.42584 -4.8683,6.01852 -40.71296,18.40803 -81.29369,37.12397 -122.112346,55.28997 -2.962482,0.5262 -5.378517,-2.2362 -5.984724,-4.8851 -18.384319,-40.69674 -37.087789,-81.25337 -55.27345,-122.03676 -0.529681,-2.96111 2.182488,-5.45284 4.868305,-6.02691 40.69316,-18.39451 81.253675,-37.09979 122.045205,-55.26483 0.33336,-0.0517 0.66977,-0.0725 1.00699,-0.0755 z"
       id="path4010-8"
       inkscape:connector-curvature="0" />
    <path
       style="opacity:0.3;fill:#000000;fill-opacity:1;fill-rule:nonzero;stroke:none"
       d="m 169.7476,803.33251 c -1.18972,0.0325 -2.39327,0.30765 -3.54848,0.83226 L 12.305498,874.04452 c -4.6208685,2.09843 -6.6532274,7.51512 -4.5547675,12.13589 L 77.63841,1040.0657 c 2.098469,4.6208 7.50752,6.6531 12.128391,4.5547 L 243.66047,974.7331 c 4.62085,-2.09843 6.65323,-7.50755 4.55476,-12.12833 l -69.8877,-153.89282 c -1.57388,-3.46558 -5.01072,-5.477 -8.57993,-5.37944 z m -8.35292,24.21126 c 2.85535,-0.078 5.60334,1.53256 6.86242,4.30506 l 55.91319,123.11426 c 1.67876,3.69667 0.0498,8.02087 -3.64684,9.69963 L 97.408521,1020.5756 c -3.696693,1.6788 -8.020918,0.05 -9.699686,-3.6468 L 31.795661,893.81453 c -1.67877,-3.69667 -0.04985,-8.02087 3.646839,-9.69964 l 123.11491,-55.91288 c 0.92417,-0.41969 1.88547,-0.63222 2.83727,-0.65824 z"
       id="path4022-2"
       inkscape:export-filename="C:\Users\Madnester\Desktop\Sketches\256.png"
       inkscape:export-xdpi="23.039482"
       inkscape:export-ydpi="23.039482"
       inkscape:connector-curvature="0" />
    <path
       style="fill:url(#linearGradient2438);fill-opacity:1;fill-rule:nonzero;stroke:none"
       d="m 169.7476,800.64722 c -1.18972,0.0325 -2.39327,0.30765 -3.54848,0.83226 L 12.305498,871.35923 c -4.6208685,2.09843 -6.6532274,7.51512 -4.5547675,12.13589 L 77.63841,1037.3804 c 2.098469,4.6208 7.50752,6.6531 12.128391,4.5547 L 243.66047,972.04781 c 4.62085,-2.09843 6.65323,-7.50755 4.55476,-12.12833 L 178.32753,806.02666 C 176.75365,802.56108 173.31681,800.54966 169.7476,800.64722 Z"
       id="path838" />
    <path
       style="opacity:0.6;fill:#ffffff;fill-opacity:1;fill-rule:nonzero;stroke:none"
       d="m 169.7487,800.64381 c -1.18973,0.0325 -2.3944,0.31454 -3.54961,0.83915 L 12.306805,871.35923 c -4.1633951,1.89068 -6.2190903,6.47219 -5.0517011,10.74116 0.6966821,-2.52654 2.4699497,-4.73521 5.0517011,-5.90763 L 166.19909,806.31648 c 1.15521,-0.52461 2.35988,-0.80663 3.54961,-0.83915 3.5692,-0.0976 7.00229,1.91339 8.57615,5.37897 l 69.89306,153.90067 c 0.20775,0.45746 0.36682,0.91566 0.4951,1.3846 0.55025,-1.99387 0.43093,-4.17904 -0.4951,-6.21812 L 178.32485,806.02278 C 176.75099,802.5572 173.3179,800.54625 169.7487,800.64381 Z"
       id="path834" />
    <path
       sodipodi:nodetypes="sscssssssssssssssssssscsscsscsssccsscsscss"
       inkscape:connector-curvature="0"
       id="path4076-8"
       d="m 121.76203,870.3283 c 0.3875,11.17842 -10.62636,11.6806 -8.36789,-1.25841 2.58772,-14.82524 -6.65386,-21.4965 -15.482279,-26.85337 17.931619,25.20164 -3.537511,25.24742 -11.854503,57.61078 -2.821975,10.98094 -5.125482,22.30702 -1.084732,32.00813 1.150906,2.76312 4.242175,6.10711 3.967312,9.43412 -0.28743,3.47947 -2.041259,6.15663 -3.441847,9.21257 -2.132298,4.65241 -6.155687,8.87389 -7.985204,13.04603 -1.010448,2.30426 1.477173,4.0406 3.277272,5.15373 2.713526,1.67797 6.469484,2.21692 8.064114,5.30175 1.111051,2.14936 0.806769,4.43851 -0.130846,6.52017 -0.872411,1.93698 -1.518819,4.90153 0.29312,6.19147 1.331945,0.94823 3.100204,1.47483 4.015907,3.12557 0.883936,1.5935 0.467137,3.49955 1.867701,4.7417 2.33399,2.06999 6.164475,1.87442 7.929655,6.18106 0.82118,2.0035 1.37008,4.2328 2.46215,6.2207 1.65449,3.0118 6.28341,3.9366 9.47572,3.5921 3.43495,-0.3705 5.95763,-1.4903 9.25713,-2.5811 8.55239,-2.8276 16.57418,-6.5744 24.20106,-11.74332 6.47168,-4.38604 10.30161,-6.87257 16.12232,-10.48972 4.1604,-2.58539 10.22851,-1.71344 14.8595,-2.99676 5.72032,-1.58519 12.70953,-4.06794 16.77163,-8.38529 4.2922,-4.56187 6.04818,-8.16655 7.39449,-16.57617 -1.85318,2.74313 -6.67609,9.04795 -11.43967,10.71105 -5.23759,1.8286 -7.10674,0.88897 -8.6797,-1.41641 -1.34509,-1.97142 -1.68983,-4.59623 -1.6279,-7.01415 3.11929,-10.9859 16.52503,-6.41195 25.53618,-10.19952 16.40245,-6.89429 20.18117,-22.55585 21.18852,-34.85143 0.55012,-6.71434 1.31841,-11.19968 11.8791,-24.71178 -13.22739,6.06997 -18.68504,11.64693 -21.72231,18.78405 -2.84784,6.69198 -11.87877,14.57095 -17.28793,7.99794 -6.89388,-8.37716 8.48913,-19.58595 19.73221,-22.58778 8.98409,-2.39869 17.30409,-11.98846 19.10043,-21.25069 4.51111,-32.12209 -9.59726,-46.42254 1.14779,-70.10492 -31.94314,26.73835 -4.7761,41.29792 -25.21521,63.31258 -11.61085,12.50587 -23.91457,5.86171 -19.30291,-4.82316 2.97854,-6.90105 10.1278,-2.71031 12.48387,-18.62746 -6.62798,10.31603 -28.0174,3.34036 -34.14757,20.10965 -10.6666,29.17874 -25.48819,1.09496 -1.19619,-12.88955 10.24857,-5.89993 34.91541,-3.97951 40.90045,-46.06152 -11.99799,24.92293 -41.43349,20.95852 -65.13586,31.70608 C 137.37573,841.40411 121.20809,854.34748 121.76203,870.3283 Z"
       style="opacity:0.4;fill:#000000;fill-opacity:1;fill-rule:nonzero;stroke:none;stroke-width:2.29999995;marker-start:none" />
    <path
       style="fill:url(#linearGradient3788);fill-opacity:1;fill-rule:nonzero;stroke:#c8c8c8;stroke-width:1;stroke-miterlimit:4;stroke-opacity:1;stroke-dasharray:none;marker-start:none"
       d="m 129.36913,865.06388 c 0.40932,11.39417 -11.22477,11.90604 -8.83912,-1.28269 2.73344,-15.11138 -7.02857,-21.9114 -16.35414,-27.37166 18.94141,25.68804 -3.73673,25.73471 -12.522081,58.7227 -2.980891,11.19288 -5.414117,22.73756 -1.145818,32.62591 1.215718,2.81645 4.481069,6.22498 4.190727,9.61621 -0.303616,3.54661 -2.156209,6.27545 -3.63567,9.39037 -2.252376,4.74221 -6.502338,9.04516 -8.434882,13.29783 -1.06735,2.34873 1.560358,4.11858 3.461828,5.25319 2.866335,1.71036 6.833806,2.25971 8.518235,5.40408 1.173619,2.19085 0.852202,4.52418 -0.138214,6.64601 -0.92154,1.97436 -1.60435,4.99614 0.309626,6.31098 1.406952,0.96652 3.274789,1.50329 4.242059,3.18589 0.933714,1.62426 0.493443,3.56709 1.97288,4.83321 2.46543,2.10995 6.51162,1.91061 8.37621,6.30041 0.86742,2.04218 1.44723,4.31438 2.6008,6.34078 1.74765,3.0698 6.63725,4.0125 10.00933,3.6614 3.62839,-0.3777 6.29313,-1.5191 9.77843,-2.631 9.03401,-2.8821 17.50754,-6.70121 25.56392,-11.96993 6.83613,-4.47069 10.88174,-7.00521 17.03023,-10.69217 4.3947,-2.63529 10.80453,-1.74651 15.6963,-3.0546 6.04245,-1.61579 13.42525,-4.14645 17.71611,-8.54713 4.53391,-4.64992 6.38878,-8.32417 7.8109,-16.8961 -1.95754,2.79608 -7.05205,9.22258 -12.08388,10.91778 -5.53254,1.86389 -7.50695,0.90613 -9.16849,-1.44374 -1.42084,-2.00948 -1.78499,-4.68495 -1.71957,-7.14953 3.29494,-11.19794 17.45562,-6.53571 26.97422,-10.39638 17.32614,-7.02736 21.31765,-22.9912 22.38173,-35.52409 0.58109,-6.84392 1.39265,-11.41583 12.54806,-25.18872 -13.97228,6.18712 -19.73728,11.87172 -22.94559,19.14659 -3.0082,6.82114 -12.5477,14.85218 -18.26147,8.15231 -7.28211,-8.53885 8.96718,-19.96398 20.84339,-23.02375 9.49003,-2.44499 18.27856,-12.21984 20.17607,-21.66083 4.76513,-32.74207 -10.13773,-47.31852 1.21241,-71.45799 -33.74197,27.25441 -5.04505,42.095 -26.63517,64.53455 -12.2647,12.74724 -25.26129,5.97485 -20.38993,-4.91625 3.14627,-7.03425 10.69813,-2.76262 13.18688,-18.98698 -7.00123,10.51513 -29.59517,3.40483 -36.07055,20.49777 -11.26728,29.74192 -26.92352,1.1161 -1.26355,-13.13832 10.82571,-6.0138 36.88163,-4.05632 43.20371,-46.95053 -12.67364,25.40395 -43.76677,21.36303 -68.80391,32.31802 C 145.8621,835.58145 128.78399,848.77463 129.36913,865.06388 Z"
       id="path3039-0-9"
       inkscape:connector-curvature="0"
       sodipodi:nodetypes="sscssssssssssssssssssscsscsscsssccsscsscss" />
    <path
       inkscape:connector-curvature="0"
       id="path4411"
       d="m 242.1875,811.14343 c -9.26493,15.56245 -0.32424,27.27467 -7.03125,41.1875 C 244.66624,837.91162 235.80527,826.20301 242.1875,811.14343 z m -20.53125,7.25 c -10.50281,18.00227 -27.16197,18.00789 -35.28125,22.5625 -6.41499,3.59857 -10.25414,8.11008 -12.21875,12.375 2.20856,-3.11217 5.54232,-6.15219 10.21875,-8.75 C 193.03288,839.77138 211.40073,840.02626 221.65625,818.39343 Z M 104.1875,836.42468 c 8.58283,11.63989 8.59333,18.00176 5.25,24.5625 3.93586,-6.20462 5.85715,-11.51547 1.84375,-19.96875 C 109.03778,839.30993 106.59539,837.83453 104.1875,836.42468 z m 115.75,7.65625 c -3.22006,4.20926 -7.32293,3.85098 -9.4375,8.625 -0.16713,0.37733 -0.31168,0.75809 -0.4375,1.125 C 212.92559,850.76048 217.21469,850.87871 219.9375,844.08093 z m -85.8125,5.46875 c -3.08597,4.68686 -4.95114,9.90057 -4.75,15.5 0.0583,1.62396 -0.14451,3.04506 -0.5,4.21875 1.50488,-1.32632 2.63235,-3.87335 2.5,-7.59375 C 131.2229,857.39885 132.27372,853.32401 134.125,849.54968 z m 53.90625,3.75 c -0.93667,1.26595 -1.75954,2.69913 -2.40625,4.40625 -0.68084,1.79718 -1.39095,3.363 -2.09375,4.75 1.37197,-2.02111 2.76884,-4.6871 4.09375,-8.21875 C 187.74699,853.912 187.89803,853.60779 188.03125,853.29968 z m -87.1875,21.03125 c -3.342188,5.28963 -6.787247,11.79982 -9.1875,20.8125 -2.980891,11.19288 -5.424549,22.73665 -1.15625,32.625 1.215718,2.81645 4.477842,6.20252 4.1875,9.59375 -0.303616,3.54661 -2.145539,6.29133 -3.625,9.40625 -2.252376,4.74221 -6.504956,9.02858 -8.4375,13.28125 -1.06735,2.34873 1.56728,4.14664 3.46875,5.28125 2.866335,1.71036 6.815571,2.23063 8.5,5.375 1.173619,2.19085 0.865416,4.53442 -0.125,6.65625 -0.92154,1.97436 -1.601476,4.99766 0.3125,6.3125 1.406952,0.96652 3.28273,1.5049 4.25,3.1875 0.933714,1.62426 0.489313,3.57763 1.96875,4.84375 2.46543,2.10995 6.51041,1.89145 8.375,6.28125 0.86742,2.04222 1.44018,4.31732 2.59375,6.34372 1.74765,3.0698 6.62792,4.0074 10,3.6563 3.62839,-0.3777 6.29595,-1.5131 9.78125,-2.625 9.03401,-2.8821 17.50612,-6.70005 25.5625,-11.96877 6.83613,-4.47069 10.88276,-7.00054 17.03125,-10.6875 4.3947,-2.63529 10.82698,-1.75441 15.71875,-3.0625 6.04245,-1.61579 13.42789,-4.13057 17.71875,-8.53125 1.03987,-1.06648 1.90238,-2.09031 2.6875,-3.125 -0.23254,0.25215 -0.43926,0.49291 -0.6875,0.75 -4.29086,4.44386 -11.6763,6.99336 -17.71875,8.625 -4.89177,1.32093 -11.32405,0.43261 -15.71875,3.09375 -6.14849,3.72314 -10.19512,6.29795 -17.03125,10.8125 -8.05638,5.32042 -16.52849,9.15207 -25.5625,12.06247 -3.4853,1.1228 -6.15286,2.2749 -9.78125,2.6563 -3.37208,0.3545 -8.25235,-0.5876 -10,-3.6875 -1.15357,-2.0463 -1.72633,-4.34405 -2.59375,-6.40627 -1.86459,-4.43287 -5.90957,-4.2131 -8.375,-6.34375 -1.47944,-1.27855 -1.03504,-3.26605 -1.96875,-4.90625 -0.96727,-1.69911 -2.843048,-2.24274 -4.25,-3.21875 -1.913976,-1.32774 -1.23404,-4.38127 -0.3125,-6.375 0.990416,-2.14265 1.298619,-4.47515 0.125,-6.6875 -1.684429,-3.17522 -5.633665,-3.7416 -8.5,-5.46875 -1.90147,-1.14574 -4.5361,-2.94072 -3.46875,-5.3125 1.932544,-4.2944 6.185124,-8.61751 8.4375,-13.40625 1.479461,-3.14548 3.321384,-5.91859 3.625,-9.5 0.290342,-3.4245 -2.971782,-6.87467 -4.1875,-9.71875 -4.268299,-9.98538 -1.824641,-21.63479 1.15625,-32.9375 C 95.578046,884.7315 98.173448,879.05357 100.84375,874.33093 z m 151,0.40625 c -3.87631,5.60388 -9.62272,10.23465 -15.6875,11.8125 -8.21864,2.13821 -18.52816,8.31759 -21.6875,14.78125 4.37183,-5.23265 12.77246,-9.84342 19.6875,-11.625 C 241.38122,887.84451 248.16323,881.71376 251.84375,874.73718 z m 2.65625,10.6875 c -0.2589,0.11464 -0.4967,0.22944 -0.75,0.34375 -2.29806,3.0234 -4.03185,5.54812 -5.34375,7.75 C 249.99339,891.20043 251.95905,888.56183 254.5,885.42468 z m -19.6875,13.59375 c -1.33961,1.76466 -2.38849,3.60903 -3.25,5.5625 -0.1825,0.41382 -0.36548,0.83083 -0.59375,1.25 1.08201,-1.38071 1.97468,-2.86374 2.59375,-4.28125 C 233.93959,900.68623 234.35559,899.84094 234.8125,899.01843 z m -0.0312,34.96875 c -3.18964,3.86942 -7.45713,7.18425 -13.1875,9.53125 -8.78151,3.59666 -21.52474,-0.12378 -26.03125,8.15625 5.56439,-4.88332 16.32836,-2.40702 24.03125,-5.53125 C 226.63249,943.28856 231.4462,938.96258 234.78125,933.98718 z m -19.21875,20.21875 c -0.2121,0.30296 -0.46831,0.68493 -0.75,1.0625 0.24712,-0.29236 0.4921,-0.59413 0.71875,-0.875 C 215.54239,954.32717 215.55141,954.27278 215.5625,954.20593 Z"
       style="opacity:0.6;fill:#f3f3f3;fill-opacity:1;fill-rule:nonzero;stroke:none;stroke-width:2.29999995;marker-start:none" />
  </g>
</svg>
