<?xml version="1.0" encoding="UTF-8" standalone="no"?>
<!-- Created with Inkscape (http://www.inkscape.org/) -->

<svg
   xmlns:osb="http://www.openswatchbook.org/uri/2009/osb"
   xmlns:dc="http://purl.org/dc/elements/1.1/"
   xmlns:cc="http://creativecommons.org/ns#"
   xmlns:rdf="http://www.w3.org/1999/02/22-rdf-syntax-ns#"
   xmlns:svg="http://www.w3.org/2000/svg"
   xmlns="http://www.w3.org/2000/svg"
   xmlns:xlink="http://www.w3.org/1999/xlink"
   xmlns:sodipodi="http://sodipodi.sourceforge.net/DTD/sodipodi-0.dtd"
   xmlns:inkscape="http://www.inkscape.org/namespaces/inkscape"
   inkscape:version="0.48.4 r9939"
   version="1.1"
   id="svg2"
   height="32"
   width="32"
   sodipodi:docname="qutim[HAIKU1].svg"
   inkscape:export-filename="C:\Users\Madnester\Desktop\qutim-onlione.png"
   inkscape:export-xdpi="2.8800001"
   inkscape:export-ydpi="2.8800001">
  <defs
     id="defs4">
    <linearGradient
       id="linearGradient4414">
      <stop
         style="stop-color:#56aeff;stop-opacity:1;"
         offset="0"
         id="stop4416" />
      <stop
         style="stop-color:#b1e4ff;stop-opacity:1;"
         offset="1"
         id="stop4418" />
    </linearGradient>
    <linearGradient
       id="linearGradient5361-2">
      <stop
         id="stop5369-8"
         offset="0"
         style="stop-color:#e1e1e1;stop-opacity:1;" />
      <stop
         style="stop-color:#e8e8e8;stop-opacity:1;"
         offset="1"
         id="stop5365-60" />
    </linearGradient>
    <linearGradient
       id="linearGradient4094-5">
      <stop
         style="stop-color:#f0f0f0;stop-opacity:1;"
         offset="0"
         id="stop4096-8" />
      <stop
         style="stop-color:#ffffff;stop-opacity:1;"
         offset="1"
         id="stop4098-6" />
    </linearGradient>
    <linearGradient
       id="linearGradient4156"
       osb:paint="gradient">
      <stop
         style="stop-color:#a7a7a7;stop-opacity:1"
         offset="0"
         id="stop4158" />
      <stop
         id="stop4160"
         offset="1"
         style="stop-color:#e1e1e1;stop-opacity:1;" />
    </linearGradient>
    <linearGradient
       id="linearGradient4683">
      <stop
         id="stop4685"
         offset="0"
         style="stop-color:#1169ae;stop-opacity:1;" />
      <stop
         id="stop4687"
         offset="1"
         style="stop-color:#64a5d6;stop-opacity:1;" />
    </linearGradient>
    <radialGradient
       inkscape:collect="always"
       xlink:href="#linearGradient5361-2"
       id="radialGradient4794"
       gradientUnits="userSpaceOnUse"
       gradientTransform="matrix(1.1098159,-0.48679144,0.4361157,0.79508716,-466.00642,202.35225)"
       cx="-26.501856"
       cy="1050.4344"
       fx="-26.501856"
       fy="1050.4344"
       r="15.130388" />
    <linearGradient
       inkscape:collect="always"
       xlink:href="#linearGradient4094-5"
       id="linearGradient4796"
       gradientUnits="userSpaceOnUse"
       gradientTransform="matrix(0.03323687,0,0,0.02972163,-48.69347,1019.4559)"
       x1="411.70193"
       y1="207.13803"
       x2="411.70193"
       y2="992.90033" />
    <radialGradient
       inkscape:collect="always"
       xlink:href="#linearGradient4683"
       id="radialGradient4798"
       gradientUnits="userSpaceOnUse"
       gradientTransform="matrix(1.5585876,-1.0348696,0.48491094,0.73031049,-562.12389,298.68191)"
       cx="15.261762"
       cy="1042.5221"
       fx="15.261762"
       fy="1042.5221"
       r="9.3150511" />
    <linearGradient
       inkscape:collect="always"
       xlink:href="#linearGradient4414"
       id="linearGradient4800"
       gradientUnits="userSpaceOnUse"
       gradientTransform="matrix(0.02878683,0,0,0.02727544,-46.41644,1019.7226)"
       x1="537.27936"
       y1="845.302"
       x2="579.22949"
       y2="97.690788" />
    <linearGradient
       inkscape:collect="always"
       xlink:href="#linearGradient4414"
       id="linearGradient4825"
       gradientUnits="userSpaceOnUse"
       gradientTransform="matrix(0.02410512,-0.0061168,0.00581189,0.02277574,-2.7402209,1028.1379)"
       x1="461.78595"
       y1="797.47272"
       x2="973.50885"
       y2="95.660049" />
    <linearGradient
       inkscape:collect="always"
       xlink:href="#linearGradient4094-5"
       id="linearGradient4853"
       gradientUnits="userSpaceOnUse"
       gradientTransform="matrix(0.03437119,0,0,0.03065015,-1.1736417,1018.1336)"
       x1="411.70193"
       y1="207.13803"
       x2="411.70193"
       y2="992.90033" />
    <radialGradient
       inkscape:collect="always"
       xlink:href="#linearGradient5361-2"
       id="radialGradient4855"
       gradientUnits="userSpaceOnUse"
       gradientTransform="matrix(1.1476919,-0.50199905,0.45099954,0.81992609,-432.72874,175.50321)"
       cx="-26.501856"
       cy="1050.4344"
       fx="-26.501856"
       fy="1050.4344"
       r="15.130388" />
    <radialGradient
       inkscape:collect="always"
       xlink:href="#linearGradient5361-2-4"
       id="radialGradient4794-9"
       gradientUnits="userSpaceOnUse"
       gradientTransform="matrix(1.1098159,-0.48679144,0.4361157,0.79508716,-466.00642,202.35225)"
       cx="-26.501856"
       cy="1050.4344"
       fx="-26.501856"
       fy="1050.4344"
       r="15.130388" />
    <linearGradient
       id="linearGradient5361-2-4">
      <stop
         id="stop5369-8-6"
         offset="0"
         style="stop-color:#e1e1e1;stop-opacity:1;" />
      <stop
         style="stop-color:#e8e8e8;stop-opacity:1;"
         offset="1"
         id="stop5365-60-0" />
    </linearGradient>
    <linearGradient
       inkscape:collect="always"
       xlink:href="#linearGradient4094-5-6"
       id="linearGradient4796-3"
       gradientUnits="userSpaceOnUse"
       gradientTransform="matrix(0.03323687,0,0,0.02972163,-48.69347,1019.4559)"
       x1="411.70193"
       y1="207.13803"
       x2="411.70193"
       y2="992.90033" />
    <linearGradient
       id="linearGradient4094-5-6">
      <stop
         style="stop-color:#f0f0f0;stop-opacity:1;"
         offset="0"
         id="stop4096-8-2" />
      <stop
         style="stop-color:#ffffff;stop-opacity:1;"
         offset="1"
         id="stop4098-6-4" />
    </linearGradient>
    <radialGradient
       inkscape:collect="always"
       xlink:href="#linearGradient4683-8"
       id="radialGradient4798-5"
       gradientUnits="userSpaceOnUse"
       gradientTransform="matrix(1.5585876,-1.0348696,0.48491094,0.73031049,-562.12389,298.68191)"
       cx="15.261762"
       cy="1042.5221"
       fx="15.261762"
       fy="1042.5221"
       r="9.3150511" />
    <linearGradient
       id="linearGradient4683-8">
      <stop
         id="stop4685-8"
         offset="0"
         style="stop-color:#1169ae;stop-opacity:1;" />
      <stop
         id="stop4687-1"
         offset="1"
         style="stop-color:#64a5d6;stop-opacity:1;" />
    </linearGradient>
    <linearGradient
       inkscape:collect="always"
       xlink:href="#linearGradient4414-1"
       id="linearGradient4800-2"
       gradientUnits="userSpaceOnUse"
       gradientTransform="matrix(0.02878683,0,0,0.02727544,-46.41644,1019.7226)"
       x1="537.27936"
       y1="845.302"
       x2="579.22949"
       y2="97.690788" />
    <linearGradient
       id="linearGradient4414-1">
      <stop
         style="stop-color:#56aeff;stop-opacity:1;"
         offset="0"
         id="stop4416-4" />
      <stop
         style="stop-color:#b1e4ff;stop-opacity:1;"
         offset="1"
         id="stop4418-9" />
    </linearGradient>
  </defs>
  <sodipodi:namedview
     id="base"
     pagecolor="#ffffff"
     bordercolor="#666666"
     borderopacity="1.0"
     inkscape:pageopacity="0.0"
     inkscape:pageshadow="2"
     inkscape:zoom="4.9296875"
     inkscape:cx="16.298237"
     inkscape:cy="17.758598"
     inkscape:document-units="px"
     inkscape:current-layer="layer1"
     showgrid="false"
     inkscape:window-width="1440"
     inkscape:window-height="848"
     inkscape:window-x="-8"
     inkscape:window-y="-8"
     inkscape:window-maximized="1"
     inkscape:snap-bbox="false"
     inkscape:snap-global="true"
     showguides="false"
     inkscape:guide-bbox="true">
    <sodipodi:guide
       orientation="1,0"
       position="0,810.14234"
       id="guide3219" />
    <sodipodi:guide
       orientation="1,0"
       position="1000.051,496.99505"
       id="guide3221" />
    <sodipodi:guide
       orientation="0,1"
       position="125.25891,1000.051"
       id="guide3223" />
    <sodipodi:guide
       orientation="0,1"
       position="-389.91888,499.01535"
       id="guide3224" />
    <sodipodi:guide
       orientation="1,0"
       position="499.01535,349.51278"
       id="guide3226" />
    <sodipodi:guide
       orientation="1,0"
       position="-499.01535,256.57874"
       id="guide3228" />
    <sodipodi:guide
       orientation="0,1"
       position="-909.13728,0"
       id="guide3230" />
  </sodipodi:namedview>
  <metadata
     id="metadata7">
    <rdf:RDF>
      <cc:Work
         rdf:about="">
        <dc:format>image/svg+xml</dc:format>
        <dc:type
           rdf:resource="http://purl.org/dc/dcmitype/StillImage" />
        <dc:title></dc:title>
      </cc:Work>
    </rdf:RDF>
  </metadata>
  <g
     inkscape:label="Layer 1"
     inkscape:groupmode="layer"
     id="layer1"
     transform="translate(0,-1020.3622)">
    <g
       transform="matrix(1.0339253,0,0,0.99998582,49.1651,-0.27199735)"
       id="g4865">
      <path
         style="fill:none;stroke:#9bb5c9;stroke-width:0.9903211;stroke-linejoin:round;stroke-opacity:1"
         d="m -17.623139,1021.1438 c -0.730969,0.5593 -1.21569,1.0708 -1.51643,1.5473 -0.01328,0.021 -0.01832,0.041 -0.03095,0.062 -0.02524,0.042 -0.03918,0.082 -0.06189,0.1238 -0.04418,0.08 -0.08839,0.1694 -0.12379,0.2476 -0.02538,0.057 -0.04073,0.1295 -0.0619,0.1857 -0.0737,0.1955 -0.122868,0.3705 -0.154738,0.557 -0.02683,0.1571 -0.05501,0.312 -0.06189,0.4643 -0.0014,0.03 8.61e-4,0.063 0,0.093 -7.88e-4,0.03 2.89e-4,0.063 0,0.093 -0.942249,1.2201 -0.725853,2.2301 -0.711793,3.2186 -0.08358,0.099 -0.175606,0.2081 -0.278528,0.3095 -0.690213,0.6796 -1.387134,0.8366 -1.856852,0.6808 0.168753,-0.2127 0.314808,-0.523 0.402318,-1.0832 -0.201957,0.2978 -0.519031,0.4737 -0.897479,0.588 -0.07013,-0.2049 -0.06914,-0.4342 0.06189,-0.7117 0.08853,-0.1876 0.206562,-0.3125 0.340423,-0.4024 0.02986,-0.02 0.06174,-0.043 0.09284,-0.062 0.101281,-0.06 0.234687,-0.1158 0.340423,-0.1856 0.08899,-0.06 0.164089,-0.153 0.24758,-0.2476 0.08977,-0.1018 0.17324,-0.2315 0.24758,-0.4023 0.08322,-0.1913 0.165221,-0.4253 0.216633,-0.7428 -0.191835,0.273 -0.487225,0.4425 -0.835583,0.5571 0.359952,-0.6118 0.638538,-1.4217 0.804635,-2.5068 0.0016,-0.01 -0.0016,-0.02 0,-0.031 0.293994,-0.5811 0.536606,-1.3011 0.680846,-2.2282 -0.90456,1.7177 -2.64891,2.1676 -4.51834,2.5686 l -0.557055,-1.1141 c -0.194807,-0.3836 -0.610441,-0.5987 -1.052217,-0.588 -0.147255,0 -0.290281,0.034 -0.433265,0.093 l -19.063681,7.7369 c -0.357464,0.1452 -0.558397,0.4218 -0.618951,0.7427 l -0.03095,0 0,3.3424 c -0.01091,0.16 0.01327,0.3385 0.09284,0.4951 l 8.634362,17.0212 c 0.259736,0.5114 0.944486,0.7274 1.516429,0.4951 l 19.032734,-7.7059 c 0.377481,-0.1533 0.606421,-0.4934 0.649898,-0.8356 l 0.03095,0 0,-0.1547 0,-3.1876 c 3.56e-4,-0.1413 -0.02303,-0.2649 -0.09284,-0.4023 l -2.38296,-4.704 c 0.226177,-0.5298 0.314609,-1.0656 0.37137,-1.5784 0.165122,-0.2342 0.361094,-0.492 0.618951,-0.8046 -0.203043,0.088 -0.354068,0.1607 -0.526108,0.2476 0.06557,-0.4072 0.212061,-0.8064 0.680846,-1.4546 0.178637,-0.2471 0.394855,-0.5321 0.680846,-0.8665 -0.02914,0.012 -0.06433,0.019 -0.09284,0.031 -0.0064,0.01 0.0063,0.023 0,0.031 -0.298228,0.1283 -0.570876,0.2451 -0.804636,0.3714 0.01821,-0.062 0.04926,-0.124 0.0619,-0.1857 0.03746,-0.2527 0.04528,-0.4786 0.06189,-0.7118 0.03487,-0.038 0.05974,-0.085 0.09284,-0.1238 0.04203,-0.05 0.08486,-0.1031 0.12379,-0.1547 0.26149,-0.3445 0.44602,-0.7366 0.526108,-1.1141 0.536329,-3.4914 -1.122753,-5.0392 0.154738,-7.6131 z"
         id="path4782"
         inkscape:connector-curvature="0" />
      <path
         style="fill:url(#radialGradient4794-9);fill-opacity:1;fill-rule:nonzero;stroke:none"
         d="m -26.907443,1025.3583 c -0.147256,0 -0.290281,0.053 -0.433266,0.1106 l -17.206829,6.9741 0,-1.7436 -2.506751,0 0,3.3487 c -0.01091,0.16 0.01327,0.3415 0.09284,0.4981 l 8.634362,17.0198 c 0.259735,0.5114 0.944486,0.7303 1.516429,0.4981 l 19.032734,-7.7211 c 0.377481,-0.1533 0.606422,-0.4882 0.649899,-0.8303 l 0.03095,0 0,-0.1384 0,-3.1825 -1.516429,0 -7.241723,-14.2246 c -0.194806,-0.3836 -0.610441,-0.6196 -1.052216,-0.6089 z"
         id="path4784"
         inkscape:connector-curvature="0" />
      <path
         id="path4786"
         d="m -26.915164,1022.1308 c -0.147256,0 -0.296224,0.034 -0.439208,0.092 l -19.048008,7.7345 c -0.571942,0.2322 -0.823496,0.8318 -0.563761,1.3431 l 8.650267,17.0326 c 0.259736,0.5115 0.929234,0.7364 1.501177,0.5041 l 19.048015,-7.7353 c 0.57194,-0.2324 0.823495,-0.831 0.56376,-1.3423 l -8.65027,-17.0335 c -0.194806,-0.3835 -0.620196,-0.6061 -1.061972,-0.5954 z"
         style="fill:url(#linearGradient4796-3);fill-opacity:1;fill-rule:nonzero;stroke:#ffffff;stroke-width:0.19806422;stroke-miterlimit:4;stroke-opacity:1;stroke-dasharray:none"
         inkscape:connector-curvature="0" />
      <path
         sodipodi:nodetypes="sscssssssssssssssssssscsscsscsssccsscsscss"
         inkscape:connector-curvature="0"
         id="path4788"
         d="m -31.911171,1030.5535 c 0.04361,1.1921 -1.196027,1.2456 -0.94183,-0.1341 0.291254,-1.5809 -0.748911,-2.2921 -1.742574,-2.8635 2.018254,2.6874 -0.398157,2.6922 -1.334259,6.1431 -0.317621,1.1711 -0.576887,2.3787 -0.12209,3.4131 0.129538,0.2947 0.47747,0.6513 0.446533,1.006 -0.03234,0.371 -0.22975,0.6565 -0.38739,0.9823 -0.239996,0.4962 -0.692839,0.9463 -0.898757,1.3911 -0.113728,0.2458 0.16626,0.4309 0.368866,0.5496 0.305415,0.1789 0.728159,0.2364 0.907638,0.5653 0.125053,0.2293 0.0908,0.4733 -0.01473,0.6953 -0.09819,0.2066 -0.170946,0.5226 0.03299,0.6602 0.149914,0.1011 0.348937,0.1572 0.452002,0.3333 0.09949,0.17 0.05258,0.3732 0.210217,0.5056 0.262696,0.2207 0.693829,0.1998 0.892505,0.659 0.09243,0.2137 0.154206,0.4514 0.277121,0.6633 0.186217,0.3212 0.707216,0.4198 1.066519,0.3831 0.386613,-0.04 0.670548,-0.1589 1.041916,-0.2752 0.962596,-0.3015 1.865469,-0.7011 2.723897,-1.2523 0.728407,-0.4676 1.159475,-0.7327 1.814611,-1.1184 0.468267,-0.2757 1.15125,-0.1827 1.672481,-0.3196 0.643837,-0.169 1.430493,-0.4338 1.887693,-0.8942 0.4831,-0.4864 0.680741,-0.8708 0.832271,-1.7674 -0.20858,0.2924 -0.751413,0.9648 -1.287567,1.142 -0.589505,0.195 -0.799884,0.095 -0.976924,-0.1509 -0.151394,-0.2102 -0.190195,-0.4901 -0.183224,-0.748 0.351083,-1.1714 1.859938,-0.6837 2.874168,-1.0875 1.846142,-0.7352 2.271447,-2.4051 2.384828,-3.7163 0.06191,-0.7159 0.148391,-1.1942 1.337026,-2.6351 -1.48878,0.6473 -2.103055,1.242 -2.444908,2.003 -0.320531,0.7136 -1.336988,1.5538 -1.945804,0.8528 -0.775926,-0.8932 0.955474,-2.0885 2.220915,-2.4085 1.011185,-0.2558 1.947624,-1.2783 2.149807,-2.266 0.507738,-3.4252 -1.080199,-4.9501 0.129186,-7.4753 -3.595289,2.8511 -0.537562,4.4036 -2.838042,6.751 -1.306834,1.3336 -2.691652,0.6251 -2.172596,-0.5142 0.335241,-0.7359 1.139912,-0.2891 1.405094,-1.9864 -0.745999,1.1001 -3.153439,0.3562 -3.843405,2.1444 -1.200557,3.1114 -2.868767,0.1167 -0.134635,-1.3744 1.153506,-0.6292 3.929827,-0.4244 4.60346,-4.9116 -1.350406,2.6575 -4.663454,2.2349 -7.331223,3.3809 -1.374426,0.5904 -3.194139,1.9705 -3.131791,3.6745 z"
         style="fill:url(#radialGradient4798-5);fill-opacity:1;fill-rule:nonzero;stroke:none;stroke-width:2.29999995;marker-start:none" />
      <path
         style="fill:url(#linearGradient4800-2);fill-opacity:1;fill-rule:nonzero;stroke:#c0e3ff;stroke-width:0.10955186;stroke-miterlimit:4;stroke-opacity:1;stroke-dasharray:none;marker-start:none"
         d="m -31.828307,1028.452 c 0.04607,1.215 -1.263381,1.2696 -0.994868,-0.1368 0.307655,-1.6112 -0.791085,-2.3364 -1.840705,-2.9186 2.131909,2.7391 -0.42058,2.744 -1.409395,6.2616 -0.335508,1.1935 -0.609374,2.4246 -0.128966,3.4789 0.136833,0.3003 0.504357,0.6639 0.471678,1.0254 -0.03418,0.3782 -0.242688,0.6693 -0.409205,1.0013 -0.25351,0.5057 -0.731856,0.9646 -0.949369,1.418 -0.120133,0.2504 0.175623,0.4392 0.389638,0.5602 0.322614,0.1823 0.769165,0.2409 0.958751,0.5763 0.132094,0.2335 0.09592,0.4824 -0.01556,0.7085 -0.103721,0.2106 -0.180574,0.5328 0.03485,0.673 0.158358,0.1032 0.368587,0.1604 0.477456,0.3397 0.105092,0.1732 0.05554,0.3804 0.222054,0.5154 0.277491,0.225 0.732901,0.2037 0.942767,0.6717 0.09763,0.2179 0.162889,0.4602 0.292727,0.6762 0.196702,0.3273 0.74704,0.4279 1.126577,0.3904 0.408386,-0.041 0.70831,-0.1619 1.10059,-0.2804 1.016803,-0.3073 1.970523,-0.7147 2.877291,-1.2764 0.769425,-0.4768 1.22477,-0.7471 1.9168,-1.1401 0.494635,-0.2811 1.21608,-0.1863 1.766662,-0.3258 0.680095,-0.1723 1.51105,-0.4421 1.993998,-0.9113 0.510304,-0.4959 0.719075,-0.8877 0.879138,-1.8017 -0.220326,0.2982 -0.793727,0.9834 -1.360074,1.1641 -0.622703,0.1988 -0.844928,0.097 -1.031939,-0.1539 -0.15992,-0.2143 -0.200906,-0.4995 -0.193543,-0.7623 0.370856,-1.1941 1.96468,-0.697 3.036024,-1.1086 1.950106,-0.7493 2.399362,-2.4516 2.519127,-3.788 0.0654,-0.7298 0.156747,-1.2173 1.412319,-2.6859 -1.572619,0.6598 -2.221485,1.266 -2.58259,2.0416 -0.338582,0.7274 -1.412278,1.5837 -2.05538,0.8693 -0.819621,-0.9105 1.009281,-2.1288 2.345983,-2.455 1.068128,-0.2607 2.057303,-1.3031 2.270872,-2.3097 0.536329,-3.4914 -1.14103,-5.0457 0.136461,-7.6196 -3.797754,2.9062 -0.567835,4.4886 -2.997864,6.8813 -1.380426,1.3593 -2.843229,0.6372 -2.294943,-0.5242 0.354122,-0.7501 1.204104,-0.2946 1.48422,-2.0246 -0.788009,1.1213 -3.33102,0.3631 -4.059841,2.1857 -1.268164,3.1715 -3.030318,0.119 -0.142216,-1.401 1.218463,-0.6412 4.151129,-0.4325 4.862698,-5.0063 -1.426454,2.7088 -4.926072,2.2779 -7.744072,3.4461 -1.451825,0.6018 -3.374015,2.0087 -3.308154,3.7455 z"
         id="path4790"
         inkscape:connector-curvature="0"
         sodipodi:nodetypes="sscssssssssssssssssssscsscsscsssccsscsscss" />
      <path
         id="path4792"
         d="m -19.130284,1022.7025 c -1.042794,1.6594 -0.03649,2.9083 -0.791387,4.3918 1.070376,-1.5375 0.07305,-2.786 0.791387,-4.3918 z m -2.310851,0.773 c -1.18212,1.9197 -3.057155,1.9203 -3.971003,2.4059 -0.722025,0.3838 -1.154132,0.8648 -1.375255,1.3196 0.248581,-0.3319 0.623805,-0.656 1.150149,-0.933 0.97447,-0.513 3.041822,-0.4857 4.196109,-2.7925 z m -13.221436,1.9227 c 0.966022,1.2412 0.967203,1.9196 0.590902,2.6191 0.442993,-0.6616 0.659239,-1.2279 0.20752,-2.1293 -0.252509,-0.1821 -0.527406,-0.3394 -0.798422,-0.4898 z m 13.027988,0.8164 c -0.362427,0.4489 -0.824218,0.4106 -1.062219,0.9197 -0.01881,0.041 -0.03509,0.081 -0.04924,0.12 0.322249,-0.3274 0.804999,-0.3148 1.111459,-1.0397 z m -9.658439,0.5832 c -0.347333,0.4998 -0.557264,1.0556 -0.534625,1.6527 0.0065,0.1732 -0.01626,0.3248 -0.05628,0.4499 0.169379,-0.1414 0.29628,-0.413 0.281382,-0.8098 -0.01711,-0.4559 0.101154,-0.8904 0.30952,-1.2928 z m 6.0673,0.3998 c -0.105425,0.135 -0.198041,0.2878 -0.27083,0.4699 -0.07663,0.1916 -0.156555,0.3585 -0.235658,0.5065 0.154419,-0.2156 0.311642,-0.4998 0.460763,-0.8763 0.01373,-0.035 0.03073,-0.067 0.04573,-0.1001 z m -9.813198,2.2426 c -0.376173,0.564 -0.763924,1.2582 -1.034079,2.2193 -0.335508,1.1935 -0.610549,2.4243 -0.130139,3.4788 0.136833,0.3004 0.503993,0.6614 0.471315,1.023 -0.03417,0.3781 -0.241487,0.6709 -0.408005,1.003 -0.25351,0.5057 -0.73215,0.9626 -0.949663,1.4162 -0.120134,0.2504 0.176402,0.4422 0.390417,0.5631 0.322614,0.1824 0.767113,0.2379 0.956699,0.5732 0.132094,0.2336 0.09741,0.4835 -0.01406,0.7098 -0.103722,0.2105 -0.18025,0.5328 0.03518,0.673 0.158357,0.1032 0.36948,0.1605 0.478349,0.3399 0.105092,0.1732 0.05507,0.3815 0.221589,0.5165 0.277492,0.225 0.732765,0.2017 0.94263,0.6698 0.09763,0.2177 0.162097,0.4604 0.291934,0.6764 0.196702,0.3274 0.745991,0.4274 1.125528,0.3899 0.408385,-0.041 0.708627,-0.1613 1.100907,-0.2799 1.016803,-0.3073 1.970362,-0.7144 2.87713,-1.2763 0.769426,-0.4767 1.224886,-0.7465 1.916916,-1.1395 0.494635,-0.2811 1.218606,-0.1871 1.769189,-0.3266 0.680094,-0.1723 1.511347,-0.4404 1.994295,-0.9097 0.11704,-0.1137 0.214118,-0.2229 0.302485,-0.3332 -0.02616,0.027 -0.04945,0.053 -0.07737,0.08 -0.482949,0.4739 -1.314201,0.7457 -1.994295,0.9197 -0.550583,0.1409 -1.274554,0.046 -1.76919,0.3299 -0.692029,0.397 -1.147489,0.6716 -1.916915,1.1531 -0.906768,0.5671 -1.860327,0.9758 -2.87713,1.2861 -0.392281,0.1197 -0.692522,0.2426 -1.100908,0.2832 -0.379536,0.038 -0.928825,-0.062 -1.125527,-0.3931 -0.129837,-0.2182 -0.194303,-0.4632 -0.291934,-0.6832 -0.209865,-0.4726 -0.665138,-0.4492 -0.94263,-0.6765 -0.166515,-0.1362 -0.116497,-0.3482 -0.221588,-0.523 -0.108871,-0.1813 -0.319994,-0.2392 -0.478351,-0.3432 -0.215423,-0.1416 -0.138895,-0.4672 -0.03518,-0.6798 0.111475,-0.2285 0.146164,-0.4773 0.01406,-0.7132 -0.189588,-0.3385 -0.634085,-0.399 -0.956699,-0.5831 -0.214015,-0.1221 -0.510551,-0.3135 -0.390418,-0.5664 0.217514,-0.458 0.696153,-0.919 0.949664,-1.4296 0.166518,-0.3354 0.373832,-0.6311 0.408005,-1.013 0.03267,-0.3651 -0.334482,-0.733 -0.471316,-1.0363 -0.480409,-1.0647 -0.205368,-2.307 0.13014,-3.5122 0.216303,-0.7769 0.508423,-1.3824 0.808973,-1.886 z m 16.995474,0.044 c -0.436289,0.5975 -1.083064,1.0912 -1.765673,1.2595 -0.92503,0.2281 -2.085396,0.8869 -2.440989,1.5762 0.492062,-0.558 1.437577,-1.0497 2.215883,-1.2396 0.813192,-0.1986 1.576526,-0.8522 1.990779,-1.5961 z m 0.298968,1.1396 c -0.02914,0.012 -0.0559,0.025 -0.08441,0.037 -0.258653,0.3225 -0.453796,0.5916 -0.601454,0.8264 0.178637,-0.2472 0.399878,-0.5286 0.685869,-0.863 z m -2.215883,1.4495 c -0.150777,0.1882 -0.268831,0.3848 -0.365796,0.5931 -0.02054,0.045 -0.04114,0.088 -0.06683,0.1333 0.121782,-0.1473 0.222255,-0.3054 0.291933,-0.4565 0.04245,-0.092 0.08926,-0.1822 0.140691,-0.2699 z m -0.0035,3.7288 c -0.359003,0.4125 -0.839321,0.7661 -1.48429,1.0163 -0.988383,0.3835 -2.422669,-0.013 -2.92989,0.8696 0.626287,-0.5206 1.837804,-0.2566 2.704785,-0.5897 0.792229,-0.3045 1.334026,-0.7657 1.709395,-1.2962 z m -2.163124,2.1558 c -0.02387,0.032 -0.05271,0.073 -0.08441,0.1134 0.02782,-0.031 0.05539,-0.063 0.0809,-0.093 0.0013,-0.01 0.0023,-0.013 0.0035,-0.02 z"
         style="opacity:0.6;fill:#aedbff;fill-opacity:1;fill-rule:nonzero;stroke:none;stroke-width:2.29999995;marker-start:none"
         inkscape:connector-curvature="0" />
    </g>
  </g>
</svg>
