<svg width="16" xmlns="http://www.w3.org/2000/svg" viewBox="0 0 15.999999 16" height="16" enable-background="new 0 0 595.28 841.89">
<defs/>
<path fill="#e6e6e6" d="m8,.5c-4.1539,0-7.5,3.3461-7.5,7.5c0,4.1539 3.3461,7.5 7.5,7.5c4.1539,0 7.5-3.3461 7.5-7.5c0-4.1539-3.3461-7.5-7.5-7.5z"/>
<path direction="ltr" fill="#656565" block-progression="tb" color="#000000" d="m8,0c-4.4224,0-8,3.5776-8,8c0,4.4224 3.5776,8 8,8c4.4224,0 8-3.5776 8-8c0-4.4224-3.5776-8-8-8zm0,1c3.8853,0 7,3.1147 7,7c0,3.8853-3.1147,7-7,7c-3.8853,0-7-3.1147-7-7c0-3.8853 3.1147-7 7-7zm0,2.1562c-2.7278,0-4.9688,2.1632-4.9688,4.8438c0,2.6805 2.241,4.8438 4.9688,4.8438c2.7278,0 4.9688-2.1632 4.9688-4.8438c0-2.6805-2.241-4.8438-4.9688-4.8438zm0,1c2.2028,0 3.9688,1.7192 3.9688,3.8438c0,2.1246-1.7659,3.8438-3.9688,3.8438c-2.2028,0-3.9688-1.7192-3.9688-3.8438c0-2.1246 1.7659-3.8438 3.9688-3.8438z"/>
<path fill="#3473e3" d="m12.6849,10.1877a2.6316,2.6316 0 1,1 -5.2633,0a2.6316,2.6316 0 1,1 5.2633,0z" transform="matrix(.88029 0 0 .85789 -.84977 -.73984)"/>
</svg>
