<svg xmlns="http://www.w3.org/2000/svg" viewBox="0 0 16 16">
<defs>
<linearGradient xlink:href="#linearGradient3981" id="linearGradient3909" y1="1036.362" y2="1044.362" x2="0" gradientUnits="userSpaceOnUse"/>
<linearGradient gradientTransform="matrix(-1 0 0 -1 16 1052.3622)" xlink:href="#linearGradient3827" id="linearGradient3927" y1="13" y2="5" gradientUnits="userSpaceOnUse" x2="0"/>
<linearGradient id="linearGradient3981">
<stop offset="0" stop-color="#d5ebff"/>
<stop offset="1" stop-color="#fff6d5" stop-opacity="0"/>
</linearGradient>
<linearGradient id="linearGradient4414">
<stop offset="0" stop-color="#0069c8"/>
<stop offset="1" stop-color="#55c4ff"/>
</linearGradient>
<linearGradient id="linearGradient3827">
<stop offset="0" stop-color="#dbdbdb"/>
<stop offset="1" stop-color="#f5f5f5"/>
</linearGradient>
<linearGradient xlink:href="#linearGradient4414" id="linearGradient3800" y1="14" y2="3" x2="0" gradientUnits="userSpaceOnUse"/>
</defs>
<g transform="translate(0 -1036.3622)">
<path opacity=".08" fill-rule="evenodd" d="m13,8.5c0,3.0376-2.2386,5.5-5,5.5c-2.7614,0-5-2.4624-5-5.5c0-3.0376 2.2386-5.5 5-5.5c2.7614,0 5,2.4624 5,5.5z" transform="matrix(1.6 0 0 1.45455 -4.8 1031.9986)"/>
<path opacity=".1" fill-rule="evenodd" d="m13,8.5c0,3.0376-2.2386,5.5-5,5.5c-2.7614,0-5-2.4624-5-5.5c0-3.0376 2.2386-5.5 5-5.5c2.7614,0 5,2.4624 5,5.5z" transform="matrix(1.5 0 0 1.36364 -4 1032.7713)"/>
<path opacity=".15" fill-rule="evenodd" d="m13,8.5c0,3.0376-2.2386,5.5-5,5.5c-2.7614,0-5-2.4624-5-5.5c0-3.0376 2.2386-5.5 5-5.5c2.7614,0 5,2.4624 5,5.5z" transform="matrix(1.4 0 0 1.27273 -3.2 1033.544)"/>
<path fill="url(#linearGradient3800)" fill-rule="evenodd" stroke="#0038a0" stroke-width=".187" d="m13,8.5c0,3.0376-2.2386,5.5-5,5.5c-2.7614,0-5-2.4624-5-5.5c0-3.0376 2.2386-5.5 5-5.5c2.7614,0 5,2.4624 5,5.5z" transform="matrix(1.37544 0 0 1.2504 -3.12851 1032.7338)"/>
<path opacity=".5" fill="url(#linearGradient3909)" fill-rule="evenodd" d="m7.875,1036.4872c-3.7982,0-6.875,3.0768-6.875,6.875c0,.2944 .0266,.5904 .0625,.875c.4375-3.3766 3.3167-6 6.8125-6c3.4958,0 6.375,2.6234 6.8125,6c.0359-.2846 .0625-.5806 .0625-.875c0-3.7982-3.0768-6.875-6.875-6.875z"/>
<path opacity=".3" word-spacing="0" d="m9,1047.7622 0-1c0-1.1205-.045-1.0865-.125-2c-.08-.9135-.1612-1.0932-.2812-2h-1.1875c-.1201,.9069-.2013,1.0865-.2812,2c-.08,.9135-.125,.8795-.125,2v1h2zm-1-6c.3086,0 .5397-.1135 .7188-.3125c.179-.1991 .2813-.4187 .2812-.6875c0-.2684-.1022-.4884-.2812-.6875c-.179-.1987-.4102-.3125-.7188-.3125c-.3086,0-.5397,.1134-.7188,.3125c-.179,.1991-.2812,.4191-.2812,.6875c0,.2688 .1022,.4884 .2812,.6875c.179,.1986 .4102,.3125 .7188,.3125z" letter-spacing="0"/>
<path fill="url(#linearGradient3927)" word-spacing="0" d="m9,1047.3622 0-1c0-1.1205-.045-1.0865-.125-2c-.08-.9135-.1612-1.0932-.2812-2h-1.1875c-.1201,.9069-.2013,1.0865-.2812,2c-.08,.9135-.125,.8795-.125,2v1h2zm-1-6c.3086,0 .5397-.1135 .7188-.3125c.179-.1991 .2813-.4187 .2812-.6875c0-.2684-.1022-.4884-.2812-.6875c-.179-.1987-.4102-.3125-.7188-.3125c-.3086,0-.5397,.1134-.7188,.3125c-.179,.1991-.2812,.4191-.2812,.6875c0,.2688 .1022,.4884 .2812,.6875c.179,.1986 .4102,.3125 .7188,.3125z" letter-spacing="0"/>
<path opacity=".5" fill="#fff" word-spacing="0" d="m8,3c-.3086,0-.5397,.1134-.7188,.3125c-.179,.1991-.2812,.4191-.2812,.6875c0,.1344 .0146,.2616 .0625,.375c.0479-.1134 .1292-.213 .2188-.3125c.179-.1991 .4102-.3125 .7188-.3125c.3086,0 .5397,.1138 .7188,.3125c.0895,.0995 .1708,.1991 .2188,.3125c.0479-.1134 .0625-.2406 .0625-.375c0-.2684-.1022-.4884-.2812-.6875c-.179-.1987-.4102-.3125-.7188-.3125zm-.5938,3c-.1201,.9069-.2013,1.0865-.2812,2c-.08,.9135-.125,.8795-.125,2v.75c0-1.1205 .045-1.0865 .125-2c.08-.9135 .1612-1.0931 .2812-2h1.1875c.1201,.9068 .2013,1.0865 .2812,2c.08,.9135 .125,.8795 .125,2v-.75c0-1.1205-.045-1.0865-.125-2c-.08-.9135-.1612-1.0932-.2812-2h-1.1875z" letter-spacing="0" transform="translate(0 1036.3622)"/>
</g>
</svg>
