<svg xmlns="http://www.w3.org/2000/svg" viewBox="0 0 16 16">
<defs>
<linearGradient xlink:href="#linearGradient4148" id="linearGradient3799" y1="1" y2="14" x2="0" gradientUnits="userSpaceOnUse"/>
<linearGradient xlink:href="#linearGradient3827" id="linearGradient3843" y1="13" y2="5" x2="0" gradientUnits="userSpaceOnUse"/>
<linearGradient xlink:href="#linearGradient4108" id="linearGradient3786" y1="7.109" x1="6.975" y2="-1.162" x2="3.243" gradientUnits="userSpaceOnUse"/>
<linearGradient id="linearGradient4108">
<stop offset="0" stop-color="#e66c00"/>
<stop offset="1" stop-color="#ffe991"/>
</linearGradient>
<linearGradient id="linearGradient4148">
<stop offset="0" stop-color="#fffad5"/>
<stop offset="1" stop-color="#fff6d5" stop-opacity="0"/>
</linearGradient>
<linearGradient id="linearGradient3827">
<stop offset="0" stop-color="#dbdbdb"/>
<stop offset="1" stop-color="#f5f5f5"/>
</linearGradient>
</defs>
<g transform="translate(0 -1036.3622)">
<path opacity=".08" fill-rule="evenodd" d="m6.976,7.1021c-.4434,.2043-4.1853,1.9613-4.584,1.6795c-.3986-.2818 .0094-4.3955 .0541-4.8817c.0447-.4861 .3941-4.6053 .8375-4.8096c.4434-.2043 3.8019,2.2059 4.2006,2.4877c.3986,.2818 3.7912,2.6439 3.7465,3.1301c-.0447,.4861-3.8113,2.1896-4.2547,2.3939z" transform="matrix(1.49253 .67344 -.67344 1.49253 2.37729 1036.7497)"/>
<path opacity=".1" fill-rule="evenodd" d="m6.976,7.1021c-.4434,.2043-4.1853,1.9613-4.584,1.6795c-.3986-.2818 .0094-4.3955 .0541-4.8817c.0447-.4861 .3941-4.6053 .8375-4.8096c.4434-.2043 3.8019,2.2059 4.2006,2.4877c.3986,.2818 3.7912,2.6439 3.7465,3.1301c-.0447,.4861-3.8113,2.1896-4.2547,2.3939z" transform="matrix(1.44589 .65239 -.65239 1.44589 2.553 1036.726)"/>
<path opacity=".15" fill-rule="evenodd" d="m6.976,7.1021c-.4434,.2043-4.1853,1.9613-4.584,1.6795c-.3986-.2818 .0094-4.3955 .0541-4.8817c.0447-.4861 .3941-4.6053 .8375-4.8096c.4434-.2043 3.8019,2.2059 4.2006,2.4877c.3986,.2818 3.7912,2.6439 3.7465,3.1301c-.0447,.4861-3.8113,2.1896-4.2547,2.3939z" transform="matrix(1.30596 .58926 -.58926 1.30596 3.08013 1037.5687)"/>
<path fill="url(#linearGradient3786)" fill-rule="evenodd" stroke="#a07200" stroke-width=".174" d="m6.976,7.1021c-.4434,.2043-4.1853,1.9613-4.584,1.6795c-.3986-.2818 .0094-4.3955 .0541-4.8817c.0447-.4861 .3941-4.6053 .8375-4.8096c.4434-.2043 3.8019,2.2059 4.2006,2.4877c.3986,.2818 3.7912,2.6439 3.7465,3.1301c-.0447,.4861-3.8113,2.1896-4.2547,2.3939z" transform="matrix(1.30596 .58926 -.58926 1.30596 3.08013 1036.9687)"/>
<path opacity=".5" fill="url(#linearGradient3799)" fill-rule="evenodd" d="m7.9062,1.3438c-.6994,.0056-3.5926,5.204-3.9375,5.8125c-.3449,.6085-3.2921,5.7408-2.9375,6.3438c.0461,.0784 .1955,.1308 .4062,.1875c.7671-1.7538 2.2891-4.3852 2.5312-4.8125c.3449-.6085 3.2381-5.7757 3.9375-5.7812c.6994-.0056 3.6767,5.1158 4.0312,5.7188c.2485,.4226 1.7973,3.0086 2.5938,4.75c.2233-.0616 .3909-.1054 .4375-.1875c.3449-.6085-2.6767-5.7096-3.0312-6.3125c-.3546-.6029-3.3318-5.7243-4.0312-5.7188z" transform="translate(0 1036.3622)"/>
<path opacity=".3" word-spacing="0" d="m7,1041.7701 0,1c0,1.1205 .045,1.0865 .125,2c.08,.9135 .1612,1.0932 .2812,2h1.1875c.1201-.9069 .2013-1.0865 .2812-2c.08-.9135 .125-.8795 .125-2v-1h-2zm1,6c-.3086,0-.5397,.1135-.7188,.3125c-.179,.1991-.2813,.4187-.2812,.6875c0,.2684 .1022,.4884 .2812,.6875c.179,.1987 .4102,.3125 .7188,.3125c.3086,0 .5397-.1134 .7188-.3125c.179-.1991 .2812-.4191 .2812-.6875c0-.2688-.1022-.4884-.2812-.6875c-.179-.1986-.4102-.3125-.7188-.3125z" letter-spacing="0"/>
<path fill="url(#linearGradient3843)" word-spacing="0" d="m7,5v1c0,1.1205 .045,1.0865 .125,2c.08,.9135 .1612,1.0932 .2812,2h1.1875c.1201-.9069 .2013-1.0865 .2812-2c.08-.9135 .125-.8795 .125-2v-1h-2zm1,6c-.3086,0-.5397,.1135-.7188,.3125c-.179,.1991-.2813,.4187-.2812,.6875c0,.2684 .1022,.4884 .2812,.6875c.179,.1987 .4102,.3125 .7188,.3125c.3086,0 .5397-.1134 .7188-.3125c.179-.1991 .2812-.4191 .2812-.6875c0-.2688-.1022-.4884-.2812-.6875c-.179-.1986-.4102-.3125-.7188-.3125z" letter-spacing="0" transform="translate(0 1036.3622)"/>
<path opacity=".5" fill="#fff" word-spacing="0" d="m7,5v.75h2v-.75h-2zm1,6c-.3086,0-.5397,.1135-.7188,.3125c-.179,.1991-.2813,.4187-.2812,.6875c0,.1342 .0146,.2616 .0625,.375c.0479-.1134 .1292-.2129 .2188-.3125c.179-.199 .4102-.3125 .7188-.3125c.3086,0 .5397,.1139 .7188,.3125c.0895,.0996 .1708,.1991 .2188,.3125c.0479-.1134 .0625-.2408 .0625-.375c0-.2688-.1022-.4884-.2812-.6875c-.179-.1986-.4102-.3125-.7188-.3125z" letter-spacing="0" transform="translate(0 1036.3622)"/>
</g>
</svg>
