<svg xmlns="http://www.w3.org/2000/svg" viewBox="0 0 16 16">
<defs>
<linearGradient id="linearGradient4414">
<stop offset="0" stop-color="#0069c8"/>
<stop offset="1" stop-color="#55c4ff"/>
</linearGradient>
<linearGradient xlink:href="#linearGradient4414" id="linearGradient4099" y1="16" y2="0" x2="0" gradientUnits="userSpaceOnUse"/>
</defs>
<g transform="translate(0 -1036.3622)">
<path opacity=".3" fill-rule="evenodd" d="m16,8a8,8 0 1,1 -16,0a8,8 0 1,1 16,0Z" transform="matrix(.625 0 0 .625 3 1040.3622)"/>
<path fill="url(#linearGradient4099)" fill-rule="evenodd" d="m16,8a8,8 0 1,1 -16,0a8,8 0 1,1 16,0Z" transform="matrix(.625 0 0 .625 3 1039.3622)"/>
<path opacity=".6" fill="#fff" fill-rule="evenodd" d="m8,3c-2.7614,0-5,2.2386-5,5c0,.1726 .0142,.3319 .0312,.5c.2561-2.5213 2.3799-4.5 4.9688-4.5c2.5888,0 4.7127,1.9787 4.9688,4.5c.0171-.1681 .0312-.3274 .0312-.5c0-2.7614-2.2386-5-5-5z" transform="translate(0 1036.3622)"/>
</g>
</svg>
