<svg xmlns="http://www.w3.org/2000/svg" viewBox="0 0 16 16">
<defs>
<linearGradient gradientTransform="matrix(.06242 0 0 .06242 .0111 986.64269)" xlink:href="#linearGradient3772" id="linearGradient3021" x1="140.219" gradientUnits="userSpaceOnUse" x2="174.781"/>
<linearGradient gradientTransform="matrix(.06242 0 0 .06242 .0111 986.64269)" xlink:href="#linearGradient3772" id="linearGradient3024" x1="60.938" gradientUnits="userSpaceOnUse" x2="100.719"/>
<linearGradient id="linearGradient3772">
<stop offset="0" stop-color="#656565"/>
<stop offset=".686" stop-color="#aaa" stop-opacity=".996"/>
<stop offset="1" stop-color="#656565" stop-opacity="0"/>
</linearGradient>
<radialGradient cx="123.47" cy="966.735" gradientTransform="matrix(.01384 -.15291 .0726 .00657 -64.35841 1059.1657)" xlink:href="#linearGradient3772" id="radialGradient3028" r="66.781" gradientUnits="userSpaceOnUse"/>
</defs>
<g transform="matrix(.90805 .41885 -.41885 .90805 438.18739 -943.70434)">
<path direction="ltr" fill="#e6e6e6" block-progression="tb" color="#000000" d="m10.6536,1036.3619c-.0117,0-.0235,0-.0352,.0004c-.1271,.01-.2526,.034-.3701,.087c-3.229,1.4662-6.458,2.9324-9.6871,4.3983c-.4788,.2174-.6937,.789-.4763,1.2677l4.3994,9.6858c.2173,.4785 .7887,.6936 1.2674,.4762l9.6871-4.3988c.4786-.2173 .6937-.789 .4763-1.2677l-4.3994-9.6862c-.1576-.3469-.4997-.5589-.8621-.5624z"/>
<path fill="#656565" d="m10.415,1037.3621c-.0688,0-.1384,.017-.2052,.048l-8.8986,4.0407c-.2672,.1214-.3847,.4345-.2634,.7017l4.0411,8.8982c.1213,.2671 .4341,.3847 .7013,.2633l8.8986-4.0411c.2672-.1214 .3847-.4342 .2634-.7012l-4.0411-8.8987c-.091-.2003-.2897-.3167-.4961-.311zm-.483,1.4001c.1651-.01 .324,.088 .3968,.2488l3.2331,7.1189c.0971,.2137 .003,.4637-.2109,.5608l-7.1189,3.233c-.2138,.097-.4638,.01-.5609-.2108l-3.2331-7.1188c-.0971-.2138-.0029-.4639 .2109-.5609l7.1189-3.233c.0534-.024 .109-.037 .1641-.039z"/>
</g>
<g transform="translate(0 -1036.3622)">
<path direction="ltr" fill="#e6e6e6" block-progression="tb" fill-rule="evenodd" color="#000000" d="m11.2849,1036.296-.1619,.2204-2.6175,3.5518-.0605,.082 0,.1015-.0019,1.7554-.0019,.1853 .1638,.088 1.8354,1.0064 .3296,.1814 .117-.3569 .4798-1.459 2.5746-3.4972 .2126-.2867-.314-.1717-2.3172-1.2697-.238-.1307zm.1775,.8094 1.7652,.9675-2.3913,3.2475-.0312,.039-.0156,.049-.3784,1.1508-1.3439-.7353 .0019-1.4688 2.3932-3.2495zm-3.5323,5.4945-.1619,.2204-.9967,1.3517-.2126,.2887 .314,.1716 1.8354,1.0065 .2399,.1307 .1619-.2204 .9967-1.3517 .2126-.2887-.314-.1716-1.8354-1.0065-.2399-.1307zm.1775,.8095 1.2854,.7041-.6242,.8465-1.2834-.7041 .6222-.8465z"/>
<path fill="url(#radialGradient3028)" d="m4.2534,1040.1493c-.2261-.001-.4086,.1797-.4096,.4057l-.0039,.8836l3.2905,5.7578c.1402,.2454 .4511,.3313 .6963,.1912l4.3437-2.483l.0058-1.2054l-4.0511,2.3152c-.1962,.1122-.4437,.044-.5559-.1521l-3.2632-5.713h-.0527z"/>
<path fill="#d63434" fill-rule="evenodd" d="m11.3737,1036.7009-2.6161,3.5515-.0033,1.7543 1.8365,1.0066 .4957-1.5082 2.6036-3.5345zm-3.3547,6.304-.9966,1.3529 1.8365,1.0065 .9966-1.3528z"/>
<path opacity=".515" fill="url(#linearGradient3024)" d="m5.7787,1044.8324-1.9583,1.1196-.0059,1.2054 2.483-1.418-.5188-.907z"/>
<path opacity=".515" fill="url(#linearGradient3021)" d="m9.6699,1046.3343-.907,.5169 .9518,1.6657 1.2054,.01-1.2503-2.1884z"/>
</g>
</svg>
