<svg xmlns="http://www.w3.org/2000/svg" viewBox="0 0 16 16">
<g transform="translate(0 -1036.3622)">
<path direction="ltr" fill="#e6e6e6" block-progression="tb" color="#000000" d="m10.6536,1036.3622c-.0117-.0001-.0235,.0002-.0352,.0005c-.1271,.01-.2526,.034-.3701,.087l-1.988,.9024c-.1173-.2527-.2045-.4816-.2367-.65c-.0974-.3069-.5064-.455-.7201-.088c-.1748,.3786-.1656,.8004-.1129,1.2243l-6.6294,3.0097c-.4788,.2174-.6937,.789-.4763,1.2677l4.3994,9.6857c.2173,.4785 .7887,.6936 1.2674,.4762l9.6871-4.3988c.4786-.2173 .6937-.789 .4763-1.2676l-4.3994-9.6863c-.1576-.3469-.4997-.5588-.8621-.5624z"/>
<path fill="#656565" d="m10.415,1037.3626c-.0688,0-.1384,.017-.2052,.048l-8.8986,4.0405c-.2672,.1215-.3847,.4346-.2634,.7018l4.0411,8.8981c.1213,.2671 .4341,.3847 .7013,.2633l8.8986-4.041c.2672-.1214 .3847-.4341 .2634-.7014l-4.0411-8.8985c-.091-.2003-.2897-.3166-.4961-.3111zm-.483,1.4c.1651-.01 .324,.088 .3968,.2488l3.2331,7.1188c.0971,.2138 .003,.4637-.2109,.5608l-7.1189,3.2331c-.2138,.097-.4638,.01-.5609-.2109l-3.2331-7.1188c-.0971-.2138-.0029-.4636 .2109-.5608l7.1189-3.233c.0534-.024 .109-.038 .1641-.039z"/>
<path fill="#3473e3" d="m5.4442,1039.8163c0,0 1.0105,1.1533-.1883,3.6729c-.4304,.9046-1.0759,1.5898-.9683,2.8507c.1776,2.0817 1.8828,3.1795 3.658,3.1795c1.7752,0 3.658-1.4253 3.7656-3.0151c.1076-1.5898-.8607-2.138-1.1297-2.741c-.269-.603 .0807-1.9735 .5648-2.741c-.7531,.5208-.8338,.5208-1.318,1.672c-.4841,1.1513 .2189,2.6165-.4304,2.9603c-.8245,.4367-1.4934-.5418-1.2373-1.5075c.269-1.0142 1.0941-2.0628 1.1835-3.3441c.0744-1.0668-1.4793-2.9054-1.6945-4.0292c-.4304,.9319 .545,2.8472 .2152,3.9196c-.7096,2.3075-1.5008,2.5561-1.4793,1.069c.0123-.8524-.9414-1.9461-.9414-1.9461z"/>
</g>
</svg>
