<?xml version="1.0" encoding="UTF-8" standalone="no"?>
<!-- Created with Inkscape (http://www.inkscape.org/) -->

<svg
   xmlns:dc="http://purl.org/dc/elements/1.1/"
   xmlns:cc="http://creativecommons.org/ns#"
   xmlns:rdf="http://www.w3.org/1999/02/22-rdf-syntax-ns#"
   xmlns:svg="http://www.w3.org/2000/svg"
   xmlns="http://www.w3.org/2000/svg"
   xmlns:sodipodi="http://sodipodi.sourceforge.net/DTD/sodipodi-0.dtd"
   xmlns:inkscape="http://www.inkscape.org/namespaces/inkscape"
   width="16"
   height="16"
   id="svg3301"
   version="1.1"
   inkscape:version="0.48.4 r9939"
   sodipodi:docname="user-online-vkontakte.svg">
  <defs
     id="defs3303" />
  <sodipodi:namedview
     id="base"
     pagecolor="#ffffff"
     bordercolor="#666666"
     borderopacity="1.0"
     inkscape:pageopacity="0.0"
     inkscape:pageshadow="2"
     inkscape:zoom="39.4375"
     inkscape:cx="5.362916"
     inkscape:cy="8.5832013"
     inkscape:document-units="px"
     inkscape:current-layer="layer1"
     showgrid="true"
     inkscape:window-width="1440"
     inkscape:window-height="848"
     inkscape:window-x="-8"
     inkscape:window-y="-8"
     inkscape:window-maximized="1">
    <inkscape:grid
       type="xygrid"
       id="grid2985"
       empspacing="5"
       visible="true"
       enabled="true"
       snapvisiblegridlinesonly="true" />
  </sodipodi:namedview>
  <metadata
     id="metadata3306">
    <rdf:RDF>
      <cc:Work
         rdf:about="">
        <dc:format>image/svg+xml</dc:format>
        <dc:type
           rdf:resource="http://purl.org/dc/dcmitype/StillImage" />
        <dc:title />
      </cc:Work>
    </rdf:RDF>
  </metadata>
  <g
     inkscape:label="Layer 1"
     inkscape:groupmode="layer"
     id="layer1"
     transform="translate(0,-1036.3622)">
    <path
       id="path4319-1"
       d="m 10.653628,1036.3619 c -0.01169,0 -0.02352,0 -0.03524,4e-4 -0.127055,0.01 -0.252635,0.034 -0.370072,0.087 -3.2290177,1.4662 -6.4580237,2.9324 -9.68712468,4.3983 -0.4788,0.2174 -0.693713,0.789 -0.476284,1.2677 l 4.39942898,9.6858 c 0.217339,0.4785 0.788664,0.6936 1.26739,0.4762 l 9.6871237,-4.3988 c 0.478584,-0.2173 0.693697,-0.789 0.476284,-1.2677 l -4.399429,-9.6862 c -0.157574,-0.3469 -0.499717,-0.5589 -0.862072,-0.5624 z"
       style="font-size:medium;font-style:normal;font-variant:normal;font-weight:normal;font-stretch:normal;text-indent:0;text-align:start;text-decoration:none;line-height:normal;letter-spacing:normal;word-spacing:normal;text-transform:none;direction:ltr;block-progression:tb;writing-mode:lr-tb;text-anchor:start;baseline-shift:baseline;color:#000000;fill:#e6e6e6;fill-opacity:1;fill-rule:nonzero;stroke:none;stroke-width:30;marker:none;visibility:visible;display:inline;overflow:visible;enable-background:accumulate;font-family:Sans;-inkscape-font-specification:Sans"
       inkscape:connector-curvature="0"
       sodipodi:nodetypes="ccccssccccc" />
    <path
       inkscape:connector-curvature="0"
       inkscape:export-ydpi="23.039482"
       inkscape:export-xdpi="23.039482"
       inkscape:export-filename="C:\Users\Madnester\Desktop\Sketches\256.png"
       id="path4321-7"
       d="m 10.414952,1037.3621 c -0.0688,0 -0.138384,0.017 -0.205185,0.048 l -8.8985957,4.0407 c -0.267192,0.1214 -0.38470998,0.4345 -0.26337,0.7017 l 4.041117,8.8982 c 0.12134,0.2671 0.434108,0.3847 0.701301,0.2633 l 8.8985977,-4.0411 c 0.267191,-0.1214 0.384711,-0.4342 0.26337,-0.7012 l -4.041118,-8.8987 c -0.09101,-0.2003 -0.289735,-0.3167 -0.496117,-0.311 z m -0.4829917,1.4001 c 0.1651057,-0.01 0.3240027,0.088 0.3968067,0.2488 l 3.233068,7.1189 c 0.09708,0.2137 0.003,0.4637 -0.21087,0.5608 l -7.1188787,3.233 c -0.213753,0.097 -0.463794,0.01 -0.560865,-0.2108 l -3.233069,-7.1188 c -0.09707,-0.2138 -0.0029,-0.4639 0.210871,-0.5609 l 7.118877,-3.233 c 0.05344,-0.024 0.109025,-0.037 0.16406,-0.039 z"
       style="fill:#656565;fill-opacity:1;fill-rule:nonzero;stroke:none" />
    <path
       style="font-size:5.13703537px;font-style:normal;font-variant:normal;font-weight:normal;font-stretch:normal;text-indent:0;text-align:start;text-decoration:none;line-height:125%;letter-spacing:0px;word-spacing:0px;text-transform:none;direction:ltr;block-progression:tb;writing-mode:lr-tb;text-anchor:start;baseline-shift:baseline;color:#000000;fill:#e6e6e6;fill-opacity:1;stroke:none;stroke-width:0.5;marker:none;visibility:visible;display:inline;overflow:visible;enable-background:accumulate;font-family:Arial;-inkscape-font-specification:Arial"
       d="m 6.75,1040.4062 c -0.3042495,0 -0.5609247,0.1234 -0.75,0.2813 -0.094538,0.079 -0.1622458,0.1839 -0.21875,0.2813 -0.056504,0.097 -0.1026117,0.1944 -0.0625,0.3437 l 0,0.031 c 0.022649,0.08 0.090466,0.1592 0.15625,0.1874 0.065784,0.028 0.1193716,0.03 0.15625,0.031 0.073757,0 0.1188121,0 0.1875,0 0.00456,2e-4 0.038934,-0.023 0.09375,0.094 0.054816,0.1171 0.09375,0.3604 0.09375,0.6876 0,0.5775 0,0.8781 0,1.5 0,0.186 -0.049214,0.2121 -0.0625,0.2187 -0.013286,0.01 -0.032247,0.043 -0.09375,-0.031 -0.1078803,-0.1306 -0.6858285,-0.8723 -1.4375,-2.8124 l 0,-0.031 c -0.1067114,-0.2368 -0.2983927,-0.3724 -0.46875,-0.4375 -0.1703573,-0.065 -0.3308987,-0.062 -0.40625,-0.062 l -0.25,0 -1.28125,0 c -0.1703483,0 -0.3493461,0.01 -0.5,0.1563 -0.1506539,0.1469 -0.2021936,0.4255 -0.125,0.6562 0.2158287,0.6449 0.7722953,1.9569 1.46875,3.25 0.6964547,1.2931 1.5011553,2.5545 2.34375,3.0938 1.4297003,0.9149 2.4487011,0.75 2.96875,0.75 0.1485428,0 0.3047287,-0.028 0.4375,-0.125 0.1327713,-0.097 0.2145718,-0.2651 0.25,-0.4376 0.038489,-0.1876 0.03496,-0.4418 0.0625,-0.6874 0.01377,-0.1229 0.040703,-0.2227 0.0625,-0.3126 0.021797,-0.09 0.065103,-0.1593 0.0625,-0.1562 0.031311,-0.037 0.112663,-0.039 0.125,-0.031 0.03348,0.021 0.1381334,0.1216 0.25,0.25 0.1118666,0.1283 0.245661,0.3046 0.375,0.4687 0.258677,0.3283 0.468094,0.6355 0.71875,0.8125 0.09425,0.066 0.209754,0.1182 0.3125,0.1562 0.102746,0.038 0.187409,0.063 0.3125,0.063 0.659967,0 1.3672,0.031 1.96875,0.031 0.140587,0 0.309119,-0.036 0.46875,-0.1562 0.159631,-0.1207 0.29269,-0.3531 0.28125,-0.625 -0.01083,-0.2575 -0.149623,-0.4986 -0.3125,-0.75 -0.162877,-0.2515 -0.346504,-0.5223 -0.5625,-0.7813 -0.431992,-0.518 -0.92161,-1.0235 -1.03125,-1.2187 0.0079,0.014 -0.01756,-0.1878 0.03125,-0.3126 0.09957,-0.2552 0.573691,-0.9159 1,-1.5624 0.213154,-0.3233 0.408071,-0.6325 0.5625,-0.9376 0.154429,-0.305 0.263706,-0.595 0.25,-0.875 -0.0068,-0.1398 -0.01714,-0.2899 -0.125,-0.4374 -0.107861,-0.1476 -0.30853,-0.25 -0.53125,-0.25 l -1.84375,0 c -0.260226,0 -0.486898,0.064 -0.625,0.1874 -0.138102,0.1235 -0.17489,0.2454 -0.21875,0.3438 -0.138204,0.3105 -0.40685,0.9815 -0.71875,1.5938 -0.15595,0.3061 -0.316924,0.5909 -0.46875,0.8124 -0.151826,0.2216 -0.3075139,0.3597 -0.34375,0.375 0.00121,-6e-4 -0.03125,-0.016 -0.03125,-0.1562 0,-0.5997 0.03125,-1.9008 0.03125,-2.5625 0,-0.3782 -0.2042503,-0.6304 -0.4375,-0.75 -0.2332497,-0.1196 -0.4616858,-0.125 -0.59375,-0.125 -0.4339545,0 -0.9534115,-0.031 -1.53125,-0.031 z"
       id="path3790" />
    <g
       id="g3779"
       style="font-size:5.13703537000000040px;font-style:normal;font-variant:normal;font-weight:normal;font-stretch:normal;line-height:125%;letter-spacing:0px;word-spacing:0px;fill:#3473e3;fill-opacity:1;stroke:none;font-family:Arial;-inkscape-font-specification:Arial;stroke-opacity:1;stroke-width:0.87470029999999999;stroke-miterlimit:4;stroke-dasharray:none"
       transform="matrix(0.52785883,0,0,0.61901855,11.675728,414.86474)">
      <path
         sodipodi:nodetypes="csssssssssssssssssssssssssssccc"
         inkscape:connector-curvature="0"
         id="path3781"
         d="m -14.660064,1011.3961 c -1.476217,0 -1.088922,0 -2.897925,0 -0.517164,0 -0.936325,0.1792 -0.708677,0.7593 0.7845,1.999 4.198806,8.4947 7.02916,10.0393 2.608764,1.4237 4.26167,1.1498 5.340825,1.1498 0.444354,0 0.740497,-0.142 0.842596,-0.5659 0.110641,-0.4599 0.100042,-1.7116 0.445872,-2.0593 0.229184,-0.2305 0.616701,-0.2316 0.844923,-0.1115 0.634884,0.3354 1.956467,2.0974 2.605957,2.4884 0.23920503,0.1442 0.70269703,0.2829 0.87142613,0.2829 1.255039,0 2.61867897,0.011 3.75300797,0.011 0.330992,0 0.9671007,-0.1803 0.9349301,-0.8325 -0.052124,-1.0564 -2.9694211,-3.3954 -3.54322207,-4.2668 -0.116242,-0.177 -0.111271,-0.5222 0.0251,-0.8194 0.50242697,-1.0983 3.48344997,-4.0762 3.41361037,-5.2927 -0.02106,-0.367 -0.1789584,-0.7417 -0.7990044,-0.7417 -0.873763,0 -2.50309797,0 -3.50542497,0 -0.8675101,0 -0.9377131,0.2775 -1.12316713,0.6325 -0.512639,0.9821 -2.142236,4.331 -3.183229,4.707 -0.276427,0.098 -0.672652,0.044 -0.672652,-0.6325 0,-0.9832 0.06167,-3.069 0.06167,-4.1244 0,-0.9537 -1.115032,-1.0542 -1.52456,-1.0542 -0.829316,0 -1.777386,-0.01 -2.866578,-0.01 -0.870183,0 -1.626015,0.6642 -1.53134,0.9646 0.03261,0.098 0.220443,0.055 0.538992,0.066 0.437307,0.011 0.815264,0.5276 0.815264,1.661 0,0.933 -2.89e-4,1.4245 -2.89e-4,2.429 0,0.804 -0.710148,1.0203 -1.149448,0.5658 -0.239036,-0.2468 -1.368891,-1.5003 -2.807856,-4.6674 -0.301394,-0.5703 -0.949189,-0.5878 -1.209909,-0.5878 z"
         style="fill:#3473e3;fill-opacity:1;stroke:none;stroke-opacity:1;stroke-width:0.87470029999999999;stroke-miterlimit:4;stroke-dasharray:none" />
    </g>
  </g>
</svg>
