<svg xmlns="http://www.w3.org/2000/svg" viewBox="0 0 16 16">
<g transform="translate(0 -1036.3622)">
<path direction="ltr" fill="#e6e6e6" block-progression="tb" color="#000000" d="m10.6536,1036.3619c-.0117,0-.0235,0-.0352,.0004c-.1271,.01-.2526,.034-.3701,.087c-3.229,1.4662-6.458,2.9324-9.6871,4.3983c-.4788,.2174-.6937,.789-.4763,1.2677l4.3994,9.6858c.2173,.4785 .7887,.6936 1.2674,.4762l9.6871-4.3988c.4786-.2173 .6937-.789 .4763-1.2677l-4.3994-9.6862c-.1576-.3469-.4997-.5589-.8621-.5624z"/>
<path fill="#656565" d="m10.415,1037.3621c-.0688,0-.1384,.017-.2052,.048l-8.8986,4.0407c-.2672,.1214-.3847,.4345-.2634,.7017l4.0411,8.8982c.1213,.2671 .4341,.3847 .7013,.2633l8.8986-4.0411c.2672-.1214 .3847-.4342 .2634-.7012l-4.0411-8.8987c-.091-.2003-.2897-.3167-.4961-.311zm-.483,1.4001c.1651-.01 .324,.088 .3968,.2488l3.2331,7.1189c.0971,.2137 .003,.4637-.2109,.5608l-7.1189,3.233c-.2138,.097-.4638,.01-.5609-.2108l-3.2331-7.1188c-.0971-.2138-.0029-.4639 .2109-.5609l7.1189-3.233c.0534-.024 .109-.037 .1641-.039z"/>
</g>
</svg>
