<svg xmlns="http://www.w3.org/2000/svg" viewBox="0 0 16 16">
<g transform="translate(0 -1036.3622)">
<path direction="ltr" fill="#e6e6e6" block-progression="tb" color="#000000" d="m10.6536,1036.3619c-.0117,0-.0235,0-.0352,.0004c-.1271,.01-.2526,.034-.3701,.087c-3.229,1.4662-6.458,2.9324-9.6871,4.3983c-.4788,.2174-.6937,.789-.4763,1.2677l4.3994,9.6858c.2173,.4785 .7887,.6936 1.2674,.4762l9.6871-4.3988c.4786-.2173 .6937-.789 .4763-1.2677l-4.3994-9.6862c-.1576-.3469-.4997-.5589-.8621-.5624z"/>
<path fill="#656565" d="m10.415,1037.3621c-.0688,0-.1384,.017-.2052,.048l-8.8986,4.0407c-.2672,.1214-.3847,.4345-.2634,.7017l4.0411,8.8982c.1213,.2671 .4341,.3847 .7013,.2633l8.8986-4.0411c.2672-.1214 .3847-.4342 .2634-.7012l-4.0411-8.8987c-.091-.2003-.2897-.3167-.4961-.311zm-.483,1.4001c.1651-.01 .324,.088 .3968,.2488l3.2331,7.1189c.0971,.2137 .003,.4637-.2109,.5608l-7.1189,3.233c-.2138,.097-.4638,.01-.5609-.2108l-3.2331-7.1188c-.0971-.2138-.0029-.4639 .2109-.5609l7.1189-3.233c.0534-.024 .109-.037 .1641-.039z"/>
</g>
<g fill="#e6e6e6" stroke="#656565" word-spacing="0" stroke-linejoin="round" stroke-width=".875" letter-spacing="0" transform="matrix(.52786 0 0 .61902 11.67573 -621.49746)">
<path fill="#e6e6e6" stroke="#656565" d="m-14.6601,1011.3961c-1.4762,0-1.0889,0-2.8979,0c-.5172,0-.9363,.1792-.7087,.7593c.7845,1.999 4.1988,8.4947 7.0292,10.0393c2.6088,1.4237 4.2617,1.1498 5.3408,1.1498c.4444,0 .7405-.142 .8426-.5659c.1106-.4599 .1-1.7116 .4459-2.0593c.2292-.2305 .6167-.2316 .8449-.1115c.6349,.3354 1.9565,2.0974 2.606,2.4884c.2392,.1442 .7027,.2829 .8714,.2829c1.255,0 2.6187,.011 3.753,.011c.331,0 .9671-.1803 .9349-.8325c-.0521-1.0564-2.9694-3.3954-3.5432-4.2668c-.1162-.177-.1113-.5222 .0251-.8194c.5024-1.0983 3.4834-4.0762 3.4136-5.2927c-.0211-.367-.179-.7417-.799-.7417c-.8738,0-2.5031,0-3.5054,0c-.8675,0-.9377,.2775-1.1232,.6325c-.5126,.9821-2.1422,4.331-3.1832,4.707c-.2764,.098-.6727,.044-.6727-.6325c0-.9832 .0617-3.069 .0617-4.1244c0-.9537-1.115-1.0542-1.5246-1.0542c-.8293,0-1.7774-.01-2.8666-.01c-.8702,0-1.626,.6642-1.5313,.9646c.0326,.098 .2204,.055 .539,.066c.4373,.011 .8153,.5276 .8153,1.661c0,.933-.0003,1.4245-.0003,2.429c0,.804-.7101,1.0203-1.1494,.5658c-.239-.2468-1.3689-1.5003-2.8079-4.6674c-.3014-.5703-.9492-.5878-1.2099-.5878z"/>
</g>
</svg>
