<svg xmlns="http://www.w3.org/2000/svg" viewBox="0 0 16 16">
<g transform="translate(0 -1036.3622)">
<path direction="ltr" fill="#e6e6e6" block-progression="tb" color="#000000" d="m10.6536,1036.3622c-.0117,0-.0235,0-.0352,.0004c-.1271,.01-.2526,.034-.3701,.087c-3.229,1.4662-6.458,2.9323-9.6871,4.3983c-.4788,.2174-.6937,.789-.4763,1.2677l4.3994,9.6858c.2173,.4785 .7887,.6936 1.2674,.4762l9.6871-4.3988c.4786-.2173 .6937-.789 .4763-1.2677l-4.3994-9.6862c-.1576-.3469-.4997-.5589-.8621-.5624z"/>
<path fill="#3473e3" word-spacing="0" d="m13.2153,1044.4031c-.8411,.6891-1.5764,1.2044-2.206,1.5457c-.6264,.3405-1.3164,.6122-2.0681,.8137c-.3695,.099-.7369,.1726-1.1024,.2231c-.3624,.05-.7524,.081-1.1686,.094c-.4162,.013-.7888,.01-1.1176-.019c-.3288-.027-.8093-.098-1.4418-.2094l.2466,.9201c.9699,.3224 1.9094,.4893 2.8194,.4993c.8107,.01 1.5458-.08 2.2059-.257c.7833-.2099 1.5215-.5499 2.2116-1.0192c.6909-.4661 1.3123-1.0275 1.8636-1.6864zm-4.3806-5.1332-1.2212,.3272 1.4008,5.1553 1.2213-.3272zm-2.0972,.5619-1.1283,.6266 1.3016,4.8577 1.2276-.329z" letter-spacing="0"/>
<path fill="#656565" d="m10.415,1037.3625c-.0688,0-.1384,.017-.2052,.048l-8.8986,4.0408c-.2672,.1213-.3847,.4345-.2634,.7017l4.0411,8.8981c.1213,.2672 .4341,.3847 .7013,.2633l8.8986-4.041c.2672-.1214 .3847-.4343 .2634-.7012l-4.0411-8.8988c-.091-.2003-.2897-.3167-.4961-.3109zm-.483,1.4c.1651-.01 .324,.088 .3968,.2489l3.2331,7.1189c.0971,.2136 .003,.4637-.2109,.5608l-7.1189,3.2329c-.2138,.097-.4638,.01-.5609-.2107l-3.2331-7.1188c-.0971-.2139-.0029-.464 .2109-.561l7.1189-3.233c.0534-.024 .109-.038 .1641-.039z"/>
</g>
</svg>
