<svg xmlns="http://www.w3.org/2000/svg" viewBox="0 0 16 16">
<g transform="translate(0 -1036.3622)">
<path direction="ltr" fill="#e6e6e6" block-progression="tb" color="#000000" d="m10.6536,1036.3622c-.0117,0-.0235,0-.0352,.0005c-.1271,.01-.2526,.034-.3701,.087c-3.229,1.4661-6.458,2.9323-9.6871,4.3983c-.4788,.2174-.6937,.789-.4763,1.2677l4.3994,9.6858c.2173,.4785 .7887,.6936 1.2674,.4762l9.6871-4.3989c.4786-.2173 .6937-.789 .4763-1.2676l-4.3994-9.6863c-.1576-.3469-.4997-.5588-.8621-.5624z"/>
<path direction="ltr" fill="#d63434" block-progression="tb" color="#000000" d="m9.8633,1038.9638c-.0531,.001-.1067,.014-.1582,.037l-6.8652,3.1172c-.2062,.094-.2967,.3339-.2031,.54l3.1172,6.8643c.0936,.2089 .3349,.2967 .541,.2031l6.8652-3.1172c.2061-.094 .2967-.3349 .2031-.541l-3.1182-6.8633c-.0702-.1545-.2226-.2457-.3818-.2402z"/>
<path fill="#e6e6e6" word-spacing="0" d="m9.2519,1040.304c-.5295,.5935-1.0587,1.1873-1.5889,1.7803c-.7627-.2472-1.5254-.4941-2.2881-.7412c-.4925,.1321-.985,.2643-1.4775,.3965c.4946,.1359 .9895,.271 1.4844,.4062c-.6539,.2704-1.1916,.948-1.1016,1.6826c.0445,.6251 .5124,1.1967 1.1338,1.3184c.7121,.1704 1.5091,0 2.0889-.4434c.3159-.2622 .5011-.637 .543-1.041c.3958,.5625 1.1837,.6652 1.791,.419c.6318-.1983 1.1899-.8205 1.0759-1.5145c-.0503-.5804-.4417-1.1712-1.0466-1.2805c-.1449-.034-.2901-.047-.4375-.062c.4296-.4382 .8597-.876 1.29-1.3135c-.4889,.1309-.9779,.2618-1.4668,.3926zm.1172,1.6738c.4291-.013 .8287,.3931 .7451,.8291c-.0876,.4712-.5994,.7087-1.0381,.7325c-.3499,.028-.7314-.1648-.8213-.5225c-.1234-.3888 .1549-.8038 .5277-.9205c.1848-.078 .3851-.1193 .5865-.1186zm-2.8125,.6631c.3821-.019 .8274,.1644 .9229,.5684c.1362,.4648-.2449,.9198-.6683,1.0653c-.4584,.1917-1.0479,.2836-1.4724-.034c-.3178-.2685-.3383-.801-.0342-1.0879c.3125-.3493 .7977-.492 1.252-.5117zm3.4395,2.1641c-1.1396,.033-2.2535,.3522-3.292,.8115c-.5418,.2653-1.1287,.6164-1.3535,1.2051c-.129,.5047 .1415,.9895 .2348,1.4781c.0652,.1555 .0668,.4211 .1695,.5119c2.1211-.568 4.2422-1.1359 6.3634-1.7039c-.1813-.5709-.2496-1.19-.5244-1.7246c-.3482-.5104-1.031-.5853-1.5977-.5781zm-.0781,.5488c.4113-.019 .8638,.2093 .9562,.6351c.095,.2764 .1493,.5679 .2343,.8464c-1.5467,.4149-3.0934,.8299-4.6406,1.2431c-.0759-.445-.3493-.9156-.1582-1.3662c.2569-.5116 .849-.7125 1.3545-.8906c.73-.2395 1.4823-.441 2.2539-.4678z" letter-spacing="0"/>
<path fill="#656565" d="m10.415,1037.3626c-.0688,0-.1384,.017-.2052,.048l-8.8986,4.0406c-.2672,.1214-.3847,.4346-.2634,.7018l4.0411,8.8981c.1213,.2672 .4341,.3847 .7013,.2633l8.8986-4.041c.2672-.1215 .3847-.4341 .2634-.7013l-4.0411-8.8987c-.091-.2003-.2897-.3166-.4961-.3109zm-.483,1.4c.1651-.01 .324,.088 .3968,.2488l3.2331,7.1188c.0971,.2138 .003,.4637-.2109,.5608l-7.1189,3.2331c-.2138,.097-.4638,.01-.5609-.2109l-3.2331-7.1189c-.0971-.2137-.0029-.4636 .2109-.5607l7.1189-3.2331c.0534-.024 .109-.038 .1641-.039z"/>
</g>
</svg>
