<svg xmlns="http://www.w3.org/2000/svg" viewBox="0 0 16 16">
<g transform="translate(0 -1036.3622)">
<path direction="ltr" fill="#e6e6e6" block-progression="tb" color="#000000" d="m10.6536,1036.3622c-.0117,0-.0235,0-.0352,.0004c-.1271,.01-.2526,.034-.3701,.087l-1.988,.9024c-.1173-.2527-.2045-.4815-.2367-.65c-.0974-.3069-.5064-.455-.7201-.088c-.1748,.3786-.1656,.8004-.1129,1.2244l-6.6294,3.0096c-.4788,.2174-.6937,.789-.4763,1.2677l4.3994,9.6858c.2173,.4785 .7887,.6936 1.2674,.4762l9.6871-4.3988c.4786-.2173 .6937-.789 .4763-1.2676l-4.3994-9.6863c-.1576-.3469-.4997-.5589-.8621-.5624z"/>
<path fill="#656565" d="m10.415,1037.3625c-.0688,0-.1384,.017-.2052,.048l-8.8986,4.0407c-.2672,.1214-.3847,.4346-.2634,.7017l4.0411,8.8982c.1213,.2671 .4341,.3847 .7013,.2633l8.8986-4.041c.2672-.1215 .3847-.4342 .2634-.7013l-4.0411-8.8987c-.091-.2003-.2897-.3167-.4961-.311zm-.483,1.4001c.1651-.01 .324,.088 .3968,.2489l3.2331,7.1188c.0971,.2137 .003,.4638-.2109,.5607l-7.1189,3.2332c-.2138,.097-.4638,.01-.5609-.2109l-3.2331-7.1188c-.0971-.2138-.0029-.4639 .2109-.5609l7.1189-3.233c.0534-.024 .109-.038 .1641-.039z"/>
<path fill="#3473e3" d="m7.6494,1036.7733c-.0438,.095-.0723,.2002-.0898,.3135h.1768c-.0378-.1092-.0679-.2144-.0869-.3135zm-.1016,.8515c.0107,.1384 .0298,.2827 .0537,.4307h.5869c-.0791-.1465-.1553-.2905-.2236-.4307h-.417zm.1543,.9688c.029,.1432 .0585,.2871 .0869,.4307h.9346c-.0776-.1435-.1579-.2868-.2383-.4307h-.7832zm.1816,.9687c.0215,.1471 .0373,.2913 .0449,.4297h1.2559c-.0523-.139-.1156-.2828-.1855-.4297h-1.1152zm-2.4287,.2676c.0183,.023 .0577,.078 .1045,.1621h.0264c-.0731-.094-.1178-.1468-.1309-.1621zm.3076,.7002c.0304,.1263 .055,.2697 .0684,.4307h.3535c-.0682-.1509-.1472-.2962-.2285-.4307h-.1934zm2.1416,0c-.0102,.056-.0229,.1107-.0391,.1631c-.0285,.093-.0572,.1815-.0859,.2676h1.5498c.0061-.052 .0119-.1053 .0156-.1582c.006-.086 0-.1769-.0137-.2725h-1.4268zm-2.0723,.9688c-.0098,.1348-.0268,.2788-.0537,.4306h.6084c-.0016-.053-.0018-.1081-.001-.167c.0012-.086-.008-.1742-.0244-.2636h-.5293zm1.75,0c-.0645,.1596-.1291,.3036-.1924,.4306h1.6992c.0512-.1409 .0968-.2843 .1357-.4306h-1.6426zm2.9209,0c-.1199,.1138-.2169,.2417-.3213,.4306h.5479c.05-.1481 .105-.2932 .166-.4306h-.3926zm-4.8525,.9687c-.0402,.1379-.0878,.2815-.1436,.4307h3.1621c.0668-.1414 .134-.2849 .1992-.4307h-1.8145c-.2559,.3036-.4693,.2977-.582,0h-.8213zm4.2754,0c-.0306,.071-.0634,.1451-.0977,.2266c-.0281,.067-.0517,.1354-.0723,.2041h.751c.0153-.1393 .039-.2838 .0713-.4307h-.6523zm-4.6455,.9688c-.0082,.017-.016,.035-.0244,.053c-.0618,.1299-.1285,.2548-.1963,.3779h3.1885c.0501-.1421 .1093-.2859 .1729-.4306h-3.1406zm4.3779,0c-.012,.1439-.015,.2886-.0127,.4306h.9893c-.0198-.034-.0382-.069-.0537-.1035c-.0412-.092-.0672-.2035-.0811-.3271h-.8418zm-4.8984,.9687c-.0761,.1402-.1491,.2825-.2139,.4297h3.5811c-.023-.137-.0277-.2819-.0127-.4297h-3.3545zm4.9111,0c.0095,.1512 .0182,.2956 .0205,.4297h1.6396c-.096-.1594-.1998-.2999-.3008-.4297h-1.3594zm-5.3115,.9678c-.0338,.1365-.0578,.2791-.0713,.4307h7.3965c-.024-.1557-.0595-.2986-.1035-.4307h-1.9502c-.0442,.1241-.1169,.2201-.2324,.2812c-.4351,.2305-.8271,.067-1.0625-.2812h-3.9766zm-.0713,.9687c.0128,.1487 .0337,.2921 .0615,.4307h7.3262c.0172-.089 .0291-.1775 .0352-.2676c.0038-.056 .0056-.11 .0068-.1631h-7.4297zm.2139,.9688c.0565,.151 .1226,.2947 .1973,.4307h6.5674c.0923-.1389 .1714-.2832 .2373-.4307h-7.002zm.5693,.9687c.1353,.1582 .2845,.3014 .4453,.4297h4.8037c.1812-.1313 .3501-.2751 .5039-.4297h-5.7529zm1.3877,.9678c.4662,.1807 .9732,.2725 1.4863,.2725c.4664,0 .9405-.098 1.3877-.2725h-2.874z"/>
</g>
</svg>
