<svg xmlns="http://www.w3.org/2000/svg" viewBox="0 0 16 16">
<g transform="translate(0 -1036.3622)">
<path direction="ltr" fill="#e6e6e6" block-progression="tb" color="#000000" d="m10.6536,1036.3619c-.0117,0-.0235,0-.0352,.0004c-.1271,.01-.2526,.034-.3701,.087c-3.229,1.4662-6.458,2.9324-9.6871,4.3983c-.4788,.2174-.6937,.789-.4763,1.2677l4.3994,9.6858c.2173,.4785 .7887,.6936 1.2674,.4762l9.6871-4.3988c.4786-.2173 .6937-.789 .4763-1.2677l-4.3994-9.6862c-.1576-.3469-.4997-.5589-.8621-.5624z"/>
<path fill="#656565" d="m10.415,1037.3621c-.0688,0-.1384,.017-.2052,.048l-8.8986,4.0407c-.2672,.1214-.3847,.4345-.2634,.7017l4.0411,8.8982c.1213,.2671 .4341,.3847 .7013,.2633l8.8986-4.0411c.2672-.1214 .3847-.4342 .2634-.7012l-4.0411-8.8987c-.091-.2003-.2897-.3167-.4961-.311zm-.483,1.4001c.1651-.01 .324,.088 .3968,.2488l3.2331,7.1189c.0971,.2137 .003,.4637-.2109,.5608l-7.1189,3.233c-.2138,.097-.4638,.01-.5609-.2108l-3.2331-7.1188c-.0971-.2138-.0029-.4639 .2109-.5609l7.1189-3.233c.0534-.024 .109-.037 .1641-.039z"/>
<path direction="ltr" fill="#e6e6e6" block-progression="tb" word-spacing="0" color="#000000" d="m6.75,1040.4062c-.3042,0-.5609,.1234-.75,.2813c-.0945,.079-.1622,.1839-.2188,.2813c-.0565,.097-.1026,.1944-.0625,.3437v.031c.0226,.08 .0905,.1592 .1562,.1874c.0658,.028 .1194,.03 .1562,.031c.0738,0 .1188,0 .1875,0c.0046,.0002 .0389-.023 .0938,.094c.0548,.1171 .0938,.3604 .0938,.6876c0,.5775 0,.8781 0,1.5c0,.186-.0492,.2121-.0625,.2187c-.0133,.01-.0322,.043-.0938-.031c-.1079-.1306-.6858-.8723-1.4375-2.8124v-.031c-.1067-.2368-.2984-.3724-.4688-.4375c-.1704-.065-.3309-.062-.4062-.062h-.25h-1.2812c-.1703,0-.3493,.01-.5,.1563c-.1507,.1469-.2022,.4255-.125,.6562c.2158,.6449 .7723,1.9569 1.4688,3.25c.6965,1.2931 1.5012,2.5545 2.3438,3.0938c1.4297,.9149 2.4487,.75 2.9688,.75c.1485,0 .3047-.028 .4375-.125c.1328-.097 .2146-.2651 .25-.4376c.0385-.1876 .035-.4418 .0625-.6874c.0138-.1229 .0407-.2227 .0625-.3126c.0218-.09 .0651-.1593 .0625-.1562c.0313-.037 .1127-.039 .125-.031c.0335,.021 .1381,.1216 .25,.25c.1119,.1283 .2457,.3046 .375,.4687c.2587,.3283 .4681,.6355 .7188,.8125c.0943,.066 .2098,.1182 .3125,.1562c.1027,.038 .1874,.063 .3125,.063c.66,0 1.3672,.031 1.9688,.031c.1406,0 .3091-.036 .4688-.1562c.1596-.1207 .2927-.3531 .2812-.625c-.0108-.2575-.1496-.4986-.3125-.75c-.1629-.2515-.3465-.5223-.5625-.7813c-.432-.518-.9216-1.0235-1.0312-1.2187c.0079,.014-.0176-.1878 .0312-.3126c.0996-.2552 .5737-.9159 1-1.5624c.2132-.3233 .4081-.6325 .5625-.9376c.1544-.305 .2637-.595 .25-.875c-.0068-.1398-.0171-.2899-.125-.4374c-.1079-.1476-.3085-.25-.5312-.25h-1.8438c-.2602,0-.4869,.064-.625,.1874c-.1381,.1235-.1749,.2454-.2188,.3438c-.1382,.3105-.4069,.9815-.7188,1.5938c-.156,.3061-.3169,.5909-.4688,.8124c-.1518,.2216-.3075,.3597-.3438,.375c.0012-.0006-.0312-.016-.0312-.1562c0-.5997 .0312-1.9008 .0312-2.5625c0-.3782-.2043-.6304-.4375-.75c-.2332-.1196-.4617-.125-.5938-.125c-.434,0-.9534-.031-1.5312-.031z" letter-spacing="0"/>
</g>
<g fill="#3473e3" word-spacing="0" letter-spacing="0" transform="matrix(.52786 0 0 .61902 11.67573 -621.49746)">
<path fill="#3473e3" d="m-14.6601,1011.3961c-1.4762,0-1.0889,0-2.8979,0c-.5172,0-.9363,.1792-.7087,.7593c.7845,1.999 4.1988,8.4947 7.0292,10.0393c2.6088,1.4237 4.2617,1.1498 5.3408,1.1498c.4444,0 .7405-.142 .8426-.5659c.1106-.4599 .1-1.7116 .4459-2.0593c.2292-.2305 .6167-.2316 .8449-.1115c.6349,.3354 1.9565,2.0974 2.606,2.4884c.2392,.1442 .7027,.2829 .8714,.2829c1.255,0 2.6187,.011 3.753,.011c.331,0 .9671-.1803 .9349-.8325c-.0521-1.0564-2.9694-3.3954-3.5432-4.2668c-.1162-.177-.1113-.5222 .0251-.8194c.5024-1.0983 3.4834-4.0762 3.4136-5.2927c-.0211-.367-.179-.7417-.799-.7417c-.8738,0-2.5031,0-3.5054,0c-.8675,0-.9377,.2775-1.1232,.6325c-.5126,.9821-2.1422,4.331-3.1832,4.707c-.2764,.098-.6727,.044-.6727-.6325c0-.9832 .0617-3.069 .0617-4.1244c0-.9537-1.115-1.0542-1.5246-1.0542c-.8293,0-1.7774-.01-2.8666-.01c-.8702,0-1.626,.6642-1.5313,.9646c.0326,.098 .2204,.055 .539,.066c.4373,.011 .8153,.5276 .8153,1.661c0,.933-.0003,1.4245-.0003,2.429c0,.804-.7101,1.0203-1.1494,.5658c-.239-.2468-1.3689-1.5003-2.8079-4.6674c-.3014-.5703-.9492-.5878-1.2099-.5878z"/>
</g>
</svg>
