<?xml version="1.0" encoding="UTF-8" standalone="no"?>
<!-- Created with Inkscape (http://www.inkscape.org/) -->

<svg
   xmlns:dc="http://purl.org/dc/elements/1.1/"
   xmlns:cc="http://creativecommons.org/ns#"
   xmlns:rdf="http://www.w3.org/1999/02/22-rdf-syntax-ns#"
   xmlns:svg="http://www.w3.org/2000/svg"
   xmlns="http://www.w3.org/2000/svg"
   xmlns:sodipodi="http://sodipodi.sourceforge.net/DTD/sodipodi-0.dtd"
   xmlns:inkscape="http://www.inkscape.org/namespaces/inkscape"
   width="16"
   height="16"
   id="svg3301"
   version="1.1"
   inkscape:version="0.48.3.1 r9886"
   sodipodi:docname="user-invisible.svg">
  <defs
     id="defs3303" />
  <sodipodi:namedview
     id="base"
     pagecolor="#ffffff"
     bordercolor="#666666"
     borderopacity="1.0"
     inkscape:pageopacity="0.0"
     inkscape:pageshadow="2"
     inkscape:zoom="39.9375"
     inkscape:cx="8"
     inkscape:cy="8"
     inkscape:document-units="px"
     inkscape:current-layer="layer1"
     showgrid="true"
     inkscape:window-width="1440"
     inkscape:window-height="848"
     inkscape:window-x="-8"
     inkscape:window-y="-8"
     inkscape:window-maximized="1">
    <inkscape:grid
       type="xygrid"
       id="grid2986"
       empspacing="5"
       visible="true"
       enabled="true"
       snapvisiblegridlinesonly="true" />
  </sodipodi:namedview>
  <metadata
     id="metadata3306">
    <rdf:RDF>
      <cc:Work
         rdf:about="">
        <dc:format>image/svg+xml</dc:format>
        <dc:type
           rdf:resource="http://purl.org/dc/dcmitype/StillImage" />
        <dc:title />
      </cc:Work>
    </rdf:RDF>
  </metadata>
  <g
     inkscape:label="Layer 1"
     inkscape:groupmode="layer"
     id="layer1"
     transform="translate(0,-1036.3622)">
    <path
       id="path4330"
       d="m 10.653634,1036.3622 c -0.01169,0 -0.02352,0 -0.03524,4e-4 -0.127055,0.01 -0.252635,0.034 -0.370072,0.087 l -1.9880066,0.9024 c -0.1172747,-0.2527 -0.204455,-0.4815 -0.2367125,-0.65 -0.09739,-0.3069 -0.5064369,-0.455 -0.7201403,-0.088 -0.1748332,0.3786 -0.1656391,0.8004 -0.1128791,1.2244 l -6.62938688,3.0096 c -0.47879937,0.2174 -0.69371218,0.789 -0.47628343,1.2677 l 4.39942901,9.6858 c 0.2173391,0.4785 0.7886641,0.6936 1.2673894,0.4762 l 9.6871244,-4.3988 c 0.478584,-0.2173 0.693697,-0.789 0.476284,-1.2676 l -4.399429,-9.6863 c -0.157574,-0.3469 -0.499717,-0.5589 -0.862072,-0.5624 z"
       style="font-size:medium;font-style:normal;font-variant:normal;font-weight:normal;font-stretch:normal;text-indent:0;text-align:start;text-decoration:none;line-height:normal;letter-spacing:normal;word-spacing:normal;text-transform:none;direction:ltr;block-progression:tb;writing-mode:lr-tb;text-anchor:start;baseline-shift:baseline;color:#000000;fill:#e6e6e6;fill-opacity:1;fill-rule:nonzero;stroke:none;stroke-width:30;marker:none;visibility:visible;display:inline;overflow:visible;enable-background:accumulate;font-family:Sans;-inkscape-font-specification:Sans"
       inkscape:connector-curvature="0" />
    <path
       inkscape:connector-curvature="0"
       inkscape:export-ydpi="23.039482"
       inkscape:export-xdpi="23.039482"
       inkscape:export-filename="C:\Users\Madnester\Desktop\Sketches\256.png"
       id="path4332"
       d="m 10.414958,1037.3625 c -0.06881,0 -0.138384,0.017 -0.205185,0.048 l -8.8985956,4.0407 c -0.2671927,0.1214 -0.38471001,0.4346 -0.2633705,0.7017 l 4.0411173,8.8982 c 0.1213394,0.2671 0.4341079,0.3847 0.701301,0.2633 l 8.8985978,-4.041 c 0.267191,-0.1215 0.384711,-0.4342 0.26337,-0.7013 l -4.041118,-8.8987 c -0.09101,-0.2003 -0.289735,-0.3167 -0.496117,-0.311 z m -0.4829916,1.4001 c 0.1651056,-0.01 0.3240026,0.088 0.3968066,0.2489 l 3.233068,7.1188 c 0.09708,0.2137 0.003,0.4638 -0.21087,0.5607 l -7.1188789,3.2332 c -0.2137535,0.097 -0.4637936,0.01 -0.5608654,-0.2109 l -3.2330688,-7.1188 c -0.097072,-0.2138 -0.0029,-0.4639 0.2108711,-0.5609 l 7.1188775,-3.233 c 0.053442,-0.024 0.1090247,-0.038 0.1640599,-0.039 z"
       style="fill:#656565;fill-opacity:1;fill-rule:nonzero;stroke:none" />
    <path
       inkscape:connector-curvature="0"
       style="fill:#3473e3;fill-opacity:1;stroke:none"
       d="m 7.6494151,1036.7733 c -0.04377,0.095 -0.072303,0.2002 -0.089844,0.3135 l 0.1767578,0 c -0.037759,-0.1092 -0.067939,-0.2144 -0.086914,-0.3135 z m -0.1015625,0.8515 c 0.010741,0.1384 0.029838,0.2827 0.053711,0.4307 l 0.5869141,0 c -0.079149,-0.1465 -0.1553466,-0.2905 -0.2236329,-0.4307 l -0.4169921,0 z m 0.1542968,0.9688 c 0.028989,0.1432 0.058484,0.2871 0.086914,0.4307 l 0.9345703,0 c -0.077643,-0.1435 -0.1578534,-0.2868 -0.2382812,-0.4307 l -0.7832032,0 z m 0.1816407,0.9687 c 0.021488,0.1471 0.037344,0.2913 0.044922,0.4297 l 1.2558594,0 c -0.052348,-0.139 -0.1156084,-0.2828 -0.1855469,-0.4297 l -1.1152343,0 z m -2.428711,0.2676 c 0.018301,0.023 0.057699,0.078 0.1044922,0.1621 l 0.026367,0 c -0.073133,-0.094 -0.1177522,-0.1468 -0.1308594,-0.1621 z m 0.3076172,0.7002 c 0.030427,0.1263 0.05503,0.2697 0.068359,0.4307 l 0.3535156,0 c -0.068222,-0.1509 -0.1472047,-0.2962 -0.2285156,-0.4307 l -0.1933594,0 z m 2.1416016,0 c -0.010198,0.056 -0.02295,0.1107 -0.039063,0.1631 -0.028498,0.093 -0.057235,0.1815 -0.085937,0.2676 l 1.5498047,0 c 0.00612,-0.052 0.011931,-0.1053 0.015625,-0.1582 0.00602,-0.086 3.12e-5,-0.1769 -0.013672,-0.2725 l -1.4267578,0 z m -2.0722657,0.9688 c -0.00983,0.1348 -0.026784,0.2788 -0.053711,0.4306 l 0.6083984,0 c -0.00165,-0.053 -0.00183,-0.1081 -9.75e-4,-0.167 0.00124,-0.086 -0.008,-0.1742 -0.024414,-0.2636 l -0.5292969,0 z m 1.75,0 c -0.064537,0.1596 -0.129094,0.3036 -0.1923828,0.4306 l 1.6992188,0 c 0.05125,-0.1409 0.096828,-0.2843 0.1357422,-0.4306 l -1.6425782,0 z m 2.9208988,0 c -0.119907,0.1138 -0.216928,0.2417 -0.321289,0.4306 l 0.547851,0 c 0.04996,-0.1481 0.105049,-0.2932 0.166016,-0.4306 l -0.392578,0 z m -4.8525394,0.9687 c -0.040245,0.1379 -0.087779,0.2815 -0.1435547,0.4307 l 3.1621094,0 c 0.06681,-0.1414 0.1340244,-0.2849 0.1992188,-0.4307 l -1.8144532,0 c -0.2559403,0.3036 -0.4693065,0.2977 -0.5820312,0 l -0.8212891,0 z m 4.2753906,0 c -0.030614,0.071 -0.063379,0.1451 -0.097656,0.2266 -0.028128,0.067 -0.051654,0.1354 -0.072266,0.2041 l 0.7509766,0 c 0.01534,-0.1393 0.03904,-0.2838 0.07129,-0.4307 l -0.6523438,0 z m -4.6455078,0.9688 c -0.0082,0.017 -0.015997,0.035 -0.024414,0.053 -0.06178,0.1299 -0.128505,0.2548 -0.1962891,0.3779 l 3.1884766,0 c 0.050087,-0.1421 0.1093203,-0.2859 0.1728515,-0.4306 l -3.140625,0 z m 4.3779297,0 c -0.011975,0.1439 -0.014972,0.2886 -0.012695,0.4306 l 0.9892582,0 c -0.01979,-0.034 -0.03822,-0.069 -0.05371,-0.1035 -0.04125,-0.092 -0.06716,-0.2035 -0.08106,-0.3271 l -0.8417969,0 z m -4.8984375,0.9687 c -0.076146,0.1402 -0.1491028,0.2825 -0.2138672,0.4297 l 3.5810547,0 c -0.023044,-0.137 -0.027684,-0.2819 -0.012695,-0.4297 l -3.3544922,0 z m 4.9111328,0 c 0.00949,0.1512 0.018236,0.2956 0.020508,0.4297 l 1.6396488,0 c -0.09598,-0.1594 -0.199752,-0.2999 -0.300782,-0.4297 l -1.3593746,0 z m -5.3115234,0.9678 c -0.033848,0.1365 -0.057774,0.2791 -0.071289,0.4307 l 7.3964841,0 c -0.02396,-0.1557 -0.05946,-0.2986 -0.103515,-0.4307 l -1.9501956,0 c -0.044202,0.1241 -0.1169163,0.2201 -0.2324219,0.2812 -0.4351153,0.2305 -0.8271453,0.067 -1.0625,-0.2812 l -3.9765625,0 z m -0.071289,0.9687 c 0.012759,0.1487 0.03371,0.2921 0.061524,0.4307 l 7.3261716,0 c 0.01716,-0.089 0.02906,-0.1775 0.03516,-0.2676 0.0038,-0.056 0.0056,-0.11 0.0068,-0.1631 l -7.4296871,0 z m 0.2138672,0.9688 c 0.056454,0.151 0.1225813,0.2947 0.1972656,0.4307 l 6.5673833,0 c 0.09227,-0.1389 0.171442,-0.2832 0.237304,-0.4307 l -7.0019529,0 z m 0.569336,0.9687 c 0.1352821,0.1582 0.2845087,0.3014 0.4453125,0.4297 l 4.8037104,0 c 0.181226,-0.1313 0.350099,-0.2751 0.503907,-0.4297 l -5.7529299,0 z m 1.3876953,0.9678 c 0.4662356,0.1807 0.9731834,0.2725 1.4863281,0.2725 0.4664472,0 0.9405478,-0.098 1.3876953,-0.2725 l -2.8740234,0 z"
       id="path4334" />
  </g>
</svg>
