<?xml version="1.0" encoding="UTF-8" standalone="no"?>
<!-- Created with Inkscape (http://www.inkscape.org/) -->

<svg
   xmlns:dc="http://purl.org/dc/elements/1.1/"
   xmlns:cc="http://creativecommons.org/ns#"
   xmlns:rdf="http://www.w3.org/1999/02/22-rdf-syntax-ns#"
   xmlns:svg="http://www.w3.org/2000/svg"
   xmlns="http://www.w3.org/2000/svg"
   xmlns:sodipodi="http://sodipodi.sourceforge.net/DTD/sodipodi-0.dtd"
   xmlns:inkscape="http://www.inkscape.org/namespaces/inkscape"
   width="16"
   height="16"
   id="svg3301"
   version="1.1"
   inkscape:version="0.48.3.1 r9886"
   sodipodi:docname="user-busy.svg">
  <defs
     id="defs3303" />
  <sodipodi:namedview
     id="base"
     pagecolor="#ffffff"
     bordercolor="#666666"
     borderopacity="1.0"
     inkscape:pageopacity="0.0"
     inkscape:pageshadow="2"
     inkscape:zoom="39.937502"
     inkscape:cx="8.4507861"
     inkscape:cy="8.0000073"
     inkscape:document-units="px"
     inkscape:current-layer="layer1"
     showgrid="true"
     inkscape:window-width="1440"
     inkscape:window-height="848"
     inkscape:window-x="-8"
     inkscape:window-y="-8"
     inkscape:window-maximized="1">
    <inkscape:grid
       type="xygrid"
       id="grid2991"
       empspacing="5"
       visible="true"
       enabled="true"
       snapvisiblegridlinesonly="true" />
  </sodipodi:namedview>
  <metadata
     id="metadata3306">
    <rdf:RDF>
      <cc:Work
         rdf:about="">
        <dc:format>image/svg+xml</dc:format>
        <dc:type
           rdf:resource="http://purl.org/dc/dcmitype/StillImage" />
        <dc:title />
      </cc:Work>
    </rdf:RDF>
  </metadata>
  <g
     inkscape:label="Layer 1"
     inkscape:groupmode="layer"
     id="layer1"
     transform="translate(0,-1036.3622)">
    <path
       style="font-size:medium;font-style:normal;font-variant:normal;font-weight:normal;font-stretch:normal;text-indent:0;text-align:start;text-decoration:none;line-height:normal;letter-spacing:normal;word-spacing:normal;text-transform:none;direction:ltr;block-progression:tb;writing-mode:lr-tb;text-anchor:start;baseline-shift:baseline;color:#000000;fill:#e6e6e6;fill-opacity:1;fill-rule:nonzero;stroke:none;stroke-width:20;marker:none;visibility:visible;display:inline;overflow:visible;enable-background:accumulate;font-family:Sans;-inkscape-font-specification:Sans"
       d="m 9.8525271,1038.6516 c -0.1140769,-0.085 -0.2920249,0.073 -0.3017578,0.075 l -6.8398438,3.1065 c -0.3585874,0.1628 -0.5214064,0.5952 -0.3583984,0.9541 l 3.1162109,6.8623 c 3.125e-4,7e-4 6.719e-4,0 9.75e-4,0 0.1628228,0.3603 0.5988722,0.5202 0.9550781,0.3584 l 6.8642579,-3.1172 c 0.358587,-0.1628 0.521442,-0.5952 0.358398,-0.9541 l -3.117187,-6.8642 c -0.121228,-0.2669 -0.389802,-0.4307 -0.6728517,-0.4229 -3.281e-4,0 -6.469e-4,0 -9.75e-4,0 -0.00132,0 -0.00259,0 -0.00391,0 z m 0.016602,0.625 0.00488,0 c 0.03356,0 0.068437,0.016 0.086914,0.057 l 3.1181649,6.8632 c 0.02417,0.053 0.0049,0.1026 -0.04883,0.127 l -6.8642578,3.1172 c -0.055366,0.025 -0.1008706,0.01 -0.1259765,-0.047 l -9.75e-4,0 0,-10e-4 -3.1181641,-6.8632 c -0.024202,-0.053 -0.00486,-0.1026 0.048828,-0.127 l 6.8623047,-3.1162 0.00195,-10e-4 c 0.015036,-0.01 0.027614,-0.01 0.035156,-0.01 z"
       id="path4281"
       inkscape:connector-curvature="0"
       sodipodi:nodetypes="cccccccccccscccsccscccccccccc" />
    <path
       inkscape:connector-curvature="0"
       style="font-size:medium;font-style:normal;font-variant:normal;font-weight:normal;font-stretch:normal;text-indent:0;text-align:start;text-decoration:none;line-height:normal;letter-spacing:normal;word-spacing:normal;text-transform:none;direction:ltr;block-progression:tb;writing-mode:lr-tb;text-anchor:start;baseline-shift:baseline;color:#000000;fill:#e6e6e6;fill-opacity:1;fill-rule:nonzero;stroke:none;stroke-width:30;marker:none;visibility:visible;display:inline;overflow:visible;enable-background:accumulate;font-family:Sans;-inkscape-font-specification:Sans"
       d="m 10.653633,1036.3622 c -0.01169,0 -0.02352,3e-4 -0.03524,4e-4 -0.127055,0.01 -0.252635,0.034 -0.370072,0.087 -3.2290157,1.4662 -6.4580235,2.9323 -9.68712525,4.3983 -0.47879944,0.2174 -0.69371241,0.789 -0.47628344,1.2677 l 4.39942889,9.6858 c 0.2173391,0.4785 0.7886638,0.6936 1.2673894,0.4762 l 9.6871244,-4.3988 c 0.478585,-0.2173 0.693695,-0.789 0.476283,-1.2677 l -4.399428,-9.6862 c -0.157574,-0.3469 -0.499717,-0.5589 -0.862072,-0.5624 z"
       id="path4246"
       sodipodi:nodetypes="ccccssccccc" />
    <path
       style="fill:#d63434;fill-opacity:1;stroke:none"
       d="m 4.5517578,1041.3407 -1.711914,0.7773 c -0.20614,0.094 -0.2967301,0.3339 -0.203125,0.54 l 0.2539062,0.5596 2.7460937,1.585 -1.6054687,0.9267 1.0205078,2.2461 3.0400391,-1.7548 2.6074221,1.5048 2.460937,-1.1172 c 0.08729,-0.04 0.153653,-0.1059 0.194336,-0.1845 l -2.807617,-1.6211 1.776367,-1.0254 -1.020508,-2.2461 -3.2099606,1.8535 z"
       id="rect4252"
       inkscape:connector-curvature="0"
       sodipodi:nodetypes="cccccccccccccccc" />
    <path
       style="fill:#656565;fill-opacity:1;fill-rule:nonzero;stroke:none"
       d="m 10.414958,1037.3628 c -0.0688,0 -0.138384,0.017 -0.205185,0.048 l -8.8985955,4.0406 c -0.2671926,0.1214 -0.38471013,0.4347 -0.2633705,0.7017 l 4.0411172,8.8982 c 0.1213394,0.2671 0.4341076,0.3847 0.7013009,0.2633 l 8.8985959,-4.0411 c 0.267193,-0.1214 0.384713,-0.4342 0.263371,-0.7012 l -4.041117,-8.8986 c -0.091,-0.2003 -0.289735,-0.3167 -0.496117,-0.3111 z m -0.4829925,1.4001 c 0.1651065,-0.01 0.3240015,0.088 0.3968065,0.2488 l 3.233069,7.1188 c 0.09708,0.2137 0.003,0.4637 -0.21087,0.5608 l -7.1188789,3.233 c -0.2137535,0.097 -0.4637935,0.01 -0.5608654,-0.2109 l -3.2330688,-7.1187 c -0.097072,-0.2137 -0.0029,-0.4638 0.2108711,-0.5609 l 7.1188774,-3.2329 c 0.053441,-0.024 0.1090247,-0.038 0.1640591,-0.039 z"
       id="path4248"
       inkscape:export-filename="C:\Users\Madnester\Desktop\Sketches\256.png"
       inkscape:export-xdpi="23.039482"
       inkscape:export-ydpi="23.039482"
       inkscape:connector-curvature="0" />
  </g>
</svg>
