<svg xmlns="http://www.w3.org/2000/svg" viewBox="0 0 16 16">
<g transform="translate(0 -1036.3622)">
<path direction="ltr" fill="#e6e6e6" block-progression="tb" color="#000000" d="m9.8525,1038.6516c-.1141-.085-.292,.073-.3018,.075l-6.8398,3.1065c-.3586,.1628-.5214,.5952-.3584,.9541l3.1162,6.8623c.0003,.0007 .0007,0 .001,0c.1628,.3603 .5989,.5202 .9551,.3584l6.8643-3.1172c.3586-.1628 .5214-.5952 .3584-.9541l-3.1172-6.8642c-.1212-.2669-.3898-.4307-.6729-.4229c-.0003,0-.0006,0-.001,0c-.0013,0-.0026,0-.0039,0zm.0166,.625 .0049,0c.0336,0 .0684,.016 .0869,.057l3.1182,6.8632c.0242,.053 .0049,.1026-.0488,.127l-6.8643,3.1172c-.0554,.025-.1009,.01-.126-.047h-.001v-.001l-3.1182-6.8632c-.0242-.053-.0049-.1026 .0488-.127l6.8623-3.1162l.002-.001c.015-.01 .0276-.01 .0352-.01z"/>
<path direction="ltr" fill="#e6e6e6" block-progression="tb" color="#000000" d="m10.6536,1036.3622c-.0117,0-.0235,.0003-.0352,.0004c-.1271,.01-.2526,.034-.3701,.087c-3.229,1.4662-6.458,2.9323-9.6871,4.3983c-.4788,.2174-.6937,.789-.4763,1.2677l4.3994,9.6858c.2173,.4785 .7887,.6936 1.2674,.4762l9.6871-4.3988c.4786-.2173 .6937-.789 .4763-1.2677l-4.3994-9.6862c-.1576-.3469-.4997-.5589-.8621-.5624z"/>
<path fill="#d63434" d="m4.5518,1041.3407-1.7119,.7773c-.2061,.094-.2967,.3339-.2031,.54l.2539,.5596l2.7461,1.585l-1.6055,.9267l1.0205,2.2461l3.04-1.7548l2.6074,1.5048l2.4609-1.1172c.0873-.04 .1537-.1059 .1943-.1845l-2.8076-1.6211l1.7764-1.0254l-1.0205-2.2461l-3.21,1.8535z"/>
<path fill="#656565" d="m10.415,1037.3628c-.0688,0-.1384,.017-.2052,.048l-8.8986,4.0406c-.2672,.1214-.3847,.4347-.2634,.7017l4.0411,8.8982c.1213,.2671 .4341,.3847 .7013,.2633l8.8986-4.0411c.2672-.1214 .3847-.4342 .2634-.7012l-4.0411-8.8986c-.091-.2003-.2897-.3167-.4961-.3111zm-.483,1.4001c.1651-.01 .324,.088 .3968,.2488l3.2331,7.1188c.0971,.2137 .003,.4637-.2109,.5608l-7.1189,3.233c-.2138,.097-.4638,.01-.5609-.2109l-3.2331-7.1187c-.0971-.2137-.0029-.4638 .2109-.5609l7.1189-3.2329c.0534-.024 .109-.038 .1641-.039z"/>
</g>
</svg>
