<?xml version="1.0" encoding="utf8" standalone="no"?>
<svg height="256" id="svg3301" inkscape:version="0.48.0 r9654" sodipodi:docname="user-away.svg.2011_06_18_22_33_36.0.svg" width="256" xmlns="http://www.w3.org/2000/svg" xmlns:cc="http://creativecommons.org/ns#" xmlns:dc="http://purl.org/dc/elements/1.1/" xmlns:inkscape="http://www.inkscape.org/namespaces/inkscape" xmlns:rdf="http://www.w3.org/1999/02/22-rdf-syntax-ns#" xmlns:sodipodi="http://sodipodi.sourceforge.net/DTD/sodipodi-0.dtd" xmlns:svg="http://www.w3.org/2000/svg" xmlns:xlink="http://www.w3.org/1999/xlink">
<defs id="defs3303">
<linearGradient id="linearGradient3772">
<stop id="stop3774" offset="0" style="stop-color:#707070"/>
<stop id="stop3780" offset="0.68615735" style="stop-opacity:0.9955157;stop-color:#aaa"/>
<stop id="stop3776" offset="1" style="stop-opacity:0;stop-color:#707070"/>
</linearGradient>
<linearGradient gradientUnits="userSpaceOnUse" id="linearGradient3786" inkscape:collect="always" x1="106.9375" x2="146.4375" xlink:href="#linearGradient3772" y1="932.23633" y2="932.23633"/>
<linearGradient gradientUnits="userSpaceOnUse" id="linearGradient3784" inkscape:collect="always" x1="60.9375" x2="100.71875" xlink:href="#linearGradient3772" y1="950.92468" y2="950.92468"/>
<linearGradient gradientUnits="userSpaceOnUse" id="linearGradient3782" inkscape:collect="always" x1="140.21875" x2="174.78125" xlink:href="#linearGradient3772" y1="973.89337" y2="973.89337"/>
<linearGradient gradientUnits="userSpaceOnUse" id="linearGradient3780" inkscape:collect="always" x1="165.03125" x2="185.8125" xlink:href="#linearGradient3772" y1="1019.7371" y2="1019.7371"/>
<linearGradient gradientTransform="translate(397.7185,-1.8236)" gradientUnits="userSpaceOnUse" id="linearGradient3034" inkscape:collect="always" x1="140.21875" x2="174.78125" xlink:href="#linearGradient3772" y1="973.89337" y2="973.89337"/>
<linearGradient gradientTransform="translate(397.7185,-1.8236)" gradientUnits="userSpaceOnUse" id="linearGradient3037" inkscape:collect="always" x1="60.9375" x2="100.71875" xlink:href="#linearGradient3772" y1="950.92468" y2="950.92468"/>
<radialGradient cx="123.4697" cy="966.73462" fx="123.4697" fy="966.73462" gradientTransform="matrix(-.22178,2.4499,-1.16317,-.1053,1278.4685,-69.64819)" gradientUnits="userSpaceOnUse" id="radialGradient3001" inkscape:collect="always" r="66.781225" xlink:href="#linearGradient3772"/>
<radialGradient cx="123.4697" cy="966.73462" fx="123.4697" fy="966.73462" gradientTransform="matrix(.22178,-2.4499,1.16317,.1053,-1031.3099,1161.9436)" gradientUnits="userSpaceOnUse" id="radialGradient2995" inkscape:collect="always" r="66.781225" xlink:href="#linearGradient3772"/>
<radialGradient cx="123.4697" cy="966.73462" fx="123.4697" fy="966.73462" gradientTransform="matrix(.22178,-2.4499,1.16317,.1053,-633.59145,1160.12)" gradientUnits="userSpaceOnUse" id="radialGradient3041" inkscape:collect="always" r="66.781225" xlink:href="#linearGradient3772"/>
</defs>
<sodipodi:namedview id="base" inkscape:current-layer="layer1" inkscape:cx="120.12255" inkscape:cy="127.45359" inkscape:document-units="px" inkscape:pageopacity="0" inkscape:pageshadow="2" inkscape:window-height="742" inkscape:window-maximized="1" inkscape:window-width="1250" inkscape:window-x="0" inkscape:window-y="23" inkscape:zoom="1.4"/>
<g id="layer1" inkscape:groupmode="layer" inkscape:label="Layer 1" transform="translate(0,-796.3622)">
<path d="m 170.45812,796.36253 c -0.18704,0 -0.37632,0.005 -0.56392,0.007 -2.03288,0.08 -4.04215,0.536 -5.92115,1.3872 -51.66424,23.45855 -103.32837,46.91735 -154.993998,70.37285 -7.660791,3.4784 -11.0993985,12.624 -7.620535,20.28325 L 71.74938,1043.3852 c 3.477425,7.656 12.61862,11.0976 20.27823,7.6192 l 154.99398,-70.38092 c 7.65736,-3.4768 11.09913,-12.624 7.62054,-20.2824 L 184.25128,805.36093 c -2.52119,-5.5504 -7.99548,-8.9416 -13.79316,-8.9984 z" id="path4125" inkscape:connector-curvature="0" sodipodi:nodetypes="ccccssccccc" style="font-family:Sans;fill:#e6e6e6;stroke-width:30"/>
<path d="m 165.25927,816.39373 c -1.06138,0 -2.13509,0.28 -3.1657,0.744 l -137.2926,62.33205 c -4.1224,1.8728 -5.935527,6.70405 -4.063432,10.82645 l 62.348657,137.26567 c 1.872095,4.1208 6.69766,5.9345 10.82007,4.0624 L 231.19888,969.28508 c 4.1224,-1.8728 5.93555,-6.6976 4.06342,-10.8184 L 172.91364,821.19293 c -1.40408,-3.0912 -4.4702,-4.8856 -7.65437,-4.7984 z m -7.45187,21.59685 c 2.54734,-0.088 4.99888,1.3664 6.12215,3.8392 l 49.88163,109.8193 c 1.49769,3.2968 0.0448,7.1536 -3.25344,8.6512 l -109.8341,49.87442 c -3.29791,1.4976 -7.15567,0.088 -8.65335,-3.2536 L 42.188664,897.10343 c -1.49768,-3.2976 -0.0448,-7.1544 3.25344,-8.652 L 155.27619,838.57698 c 0.82452,-0.368 1.6821,-0.568 2.53121,-0.584 z" id="path4127" inkscape:connector-curvature="0" inkscape:export-filename="C:\Users\Madnester\Desktop\Sketches\256.png" inkscape:export-xdpi="23.039482" inkscape:export-ydpi="23.039482" style="fill:#707070"/>
<path d="m 140.90625,803.78125 -5.75,0.40625 -46.84375,3.375 -4.625,0.34375 0,4.65625 0.0625,74.90625 0,1.1875 0.5625,1.0625 11.78125,23.34375 1.46875,2.875 3.25,-0.125 33.59375,-1.5625 5.4375,-0.25 -0.71875,-5.40625 -3.53125,-26.46875 4.90625,-72.59375 0.40625,-5.75 z m -10.75,10.78125 -4.5625,67.375 -0.0312,0.5 0.0625,0.5 2.875,21.59375 -24.9375,1.125 -9.8125,-19.375 -0.0625,-69.09375 36.46875,-2.625 z M 255.25,892.25 l -5.21875,0.28125 -81.09375,4.5 -1.875,0.125 -1.34375,1.3125 -21.5625,21.1875 -1.53125,1.5 0.0312,2.15625 0.4375,27.53125 0.15625,8.90625 7.53125,-4.75 20.15625,-12.78125 79.875,-2 4.90625,-0.125 -0.0312,-4.90625 -0.375,-37.71875 L 255.25,892.25 z m -9.875,10.5625 0.25,27.53125 -76.3125,1.90625 -1.375,0.0312 -1.1875,0.75 -13.8125,8.75 -0.25,-16.5 18.6875,-18.34375 74,-4.125 z m -104.59375,15.625 -5.34375,0.40625 -34.625,2.5625 -4.5625,0.3125 -0.0625,4.59375 -0.375,26.96875 -0.0625,5.4375 5.4375,-0.40625 35.125,-2.53125 4.65625,-0.34375 0,-4.6875 -0.15625,-26.96875 -0.0312,-5.34375 z m -9.9375,10.78125 0.0937,16.9375 -25.0625,1.8125 0.25,-16.9375 24.71875,-1.8125 z" id="path3773" inkscape:connector-curvature="0" style="fill-rule:evenodd;font-family:Sans;fill:#e6e6e6;stroke-width:10"/>
<path d="m 135.51976,809.18295 -46.837881,3.36992 0.08201,74.92148 11.803141,23.3336 33.60977,-1.54727 -3.59454,-26.98398 z m 33.70046,92.85268 -21.56451,21.19459 0.44848,27.53554 21.33053,-13.52232 81.24211,-2.0148 -0.37579,-37.70194 z m -33.41921,21.78913 -34.61992,2.55743 -0.35978,26.9586 35.13595,-2.54728 z" id="path3775" inkscape:connector-curvature="0" sodipodi:nodetypes="ccccccccccccccccccc" style="fill:#d63434;fill-rule:evenodd"/>
</g>
</svg>
