<svg xmlns="http://www.w3.org/2000/svg" viewBox="0 0 16 16">
<g transform="translate(0 -1036.3622)">
<path direction="ltr" fill="#e6e6e6" block-progression="tb" color="#000000" d="m10.6536,1036.3622c-.0117,0-.0235,.0003-.0352,.0004c-.1271,.01-.2526,.034-.3701,.087c-3.229,1.4662-6.458,2.9324-9.6871,4.3984c-.4788,.2174-.6937,.789-.4763,1.2677l4.3994,9.6857c.2173,.4785 .7887,.6936 1.2674,.4762l9.6871-4.3988c.4786-.2173 .6937-.789 .4763-1.2676l-4.3994-9.6863c-.1576-.3469-.4997-.5588-.8621-.5624z"/>
<path fill="#656565" d="m10.415,1037.3626c-.0688,0-.1384,.017-.2052,.048l-8.8986,4.0405c-.2672,.1215-.3847,.4347-.2634,.7018l4.0411,8.8982c.1213,.2671 .4341,.3847 .7013,.2633l8.8986-4.041c.2672-.1215 .3847-.4341 .2634-.7013l-4.0411-8.8987c-.091-.2003-.2897-.3166-.4961-.311zm-.483,1.4001c.1651-.01 .324,.088 .3968,.2487l3.2331,7.1189c.0971,.2138 .003,.4637-.2109,.5608l-7.1189,3.2331c-.2138,.097-.4638,.01-.5609-.2109l-3.2331-7.1189c-.0971-.2137-.0029-.4636 .2109-.5607l7.1189-3.2331c.0534-.024 .109-.038 .1641-.039z"/>
<path direction="ltr" fill="#e6e6e6" block-progression="tb" fill-rule="evenodd" color="#000000" d="m8.8066,1036.8259-.3594,.025-2.9277,.2109-.2891,.021 0,.291 .0039,4.6817 0,.074 .0352,.066 .7363,1.459 .0918,.1797 .2031-.01 2.0996-.098 .3398-.016-.0449-.3379-.2207-1.6543 .3066-4.5371 .0254-.3594zm-.6719,.6738-.2852,4.2109-.0019,.031 .0039,.031 .1797,1.3497-1.5586,.07-.6133-1.211-.0039-4.3183 2.2793-.1641zm7.8184,4.8555-.3262,.018-5.0684,.2812-.1172,.01-.084,.082-1.3477,1.3242-.0957,.094 .002,.1348 .0273,1.7207 .0098,.5566 .4707-.2968 1.2598-.7989 4.9922-.125 .3066-.01-.002-.3066-.0234-2.3574-.0039-.3262zm-.6172,.6601 .0156,1.7207-4.7695,.1192-.0859,0-.0742,.047-.8633,.5469-.0156-1.0313 1.168-1.1465 4.625-.2578zm-6.5371,.9766-.334,.025-2.1641,.1601-.2852,.02-.0039,.2871-.0234,1.6855-.0039,.3399 .3398-.025 2.1953-.1582 .291-.022 0-.293-.0098-1.6855-.002-.334zm-.6211,.6738 .0059,1.0586-1.5664,.1133 .0156-1.0586 1.5449-.1133z"/>
<path fill="#d63434" fill-rule="evenodd" d="m8.47,1037.1635-2.9274,.2106 .0051,4.6826 .7377,1.4584 2.1006-.097-.2247-1.6866zm2.1063,5.8033-1.3478,1.3246 .028,1.721 1.3332-.8451 5.0776-.1259-.0235-2.3564zm-2.0887,1.3618-2.1637,.1598-.0225,1.685 2.196-.1592z"/>
</g>
</svg>
