<svg xmlns="http://www.w3.org/2000/svg" viewBox="0 0 16 16">
<g transform="translate(0 -1036.3622)">
<path direction="ltr" fill="#e6e6e6" block-progression="tb" color="#000000" d="m10.6536,1036.3622c-.0117-.0001-.0235,.0002-.0352,.0005c-.1271,.01-.2526,.034-.3701,.087c-3.229,1.4661-6.458,2.9323-9.6871,4.3983c-.4788,.2174-.6937,.789-.4763,1.2677l4.3994,9.6857c.2173,.4785 .7887,.6936 1.2674,.4762l9.6871-4.3988c.4786-.2173 .6937-.789 .4763-1.2676l-4.3994-9.6863c-.1576-.3469-.4997-.5588-.8621-.5624z"/>
<path fill="#656565" d="m10.415,1037.3629c-.0688,0-.1384,.017-.2052,.048l-8.8986,4.0405c-.2672,.1215-.3847,.4346-.2634,.7019l4.0411,8.898c.1213,.2671 .4341,.3847 .7013,.2633l8.8986-4.041c.2672-.1214 .3847-.4342 .2634-.7013l-4.0411-8.8986c-.091-.2003-.2897-.3166-.4961-.3111zm-.483,1.4c.1651-.01 .324,.088 .3968,.2488l3.2331,7.1188c.0971,.2137 .003,.4637-.2109,.5608l-7.1189,3.2331c-.2138,.097-.4638,.01-.5609-.211l-3.2331-7.1187c-.0971-.2137-.0029-.4637 .2109-.5608l7.1189-3.233c.0534-.024 .109-.038 .1641-.039z"/>
<path direction="ltr" fill="#e6e6e6" block-progression="tb" color="#000000" d="m11.7686,1038.2601c-.004,.0001-.0077,.0008-.0117,.001c-.8431,.028-1.4852,.8361-1.3262,1.663c.0002,0 .0007,0 .001,0c.0008,0 .0011,.01 .002,.013h.001c.0367,.2239 .1275,.4259 .2568,.5967c-.8985-.02-1.7981-.024-2.6924-.026h-.0527l-.0488,.017c-.2098,.072-.3224,.2383-.3877,.3516c-.0653,.1133-.1091,.1939-.125,.2109l-.0195,.02l-.0156,.024c-.3502,.5475-.7308,1.0955-1.0781,1.666l-.0234,.037l-.0117,.043c-.0336,.1238-.0158,.2683 .0361,.3711c.052,.1029 .1211,.1668 .1807,.2149c.1192,.096 .2187,.1594 .2158,.1562c.0888,.1064 .1985,.1924 .3564,.2422c.0827,.026 .1838,.04 .2949,.013c.1111-.028 .2216-.1061 .2881-.2041h.0019h.0019c.3178-.4926 .6316-.9861 .9473-1.4776c.1724,.015 .3457,.031 .5186,.047c-.6281,.8584-1.2561,1.7172-1.8848,2.5752c-.8821,.1682-1.776,.3183-2.666,.5029l-.0488,.01l-.043,.024c-.1132,.065-.2052,.1823-.2402,.2949c-.0351,.1127-.0273,.21-.0166,.2881c.0214,.1563 .0547,.2771 .0547,.2764v.034l.0088,.034c.0045,.019 .0071,.1464 .0459,.2998c.0194,.077 .0517,.1686 .1279,.2568c.0762,.088 .2032,.157 .3281,.1719h.0449l.0449-.01c1.066-.1827 2.1323-.3809 3.1924-.5849l.0752-.014l.0596-.048c.2922-.2304 .4046-.5197 .5283-.6602l.0088-.01l.0088-.012c.201-.2743 .4012-.5478 .6016-.8213c.2167,.1582 .4334,.3167 .6504,.4756c-.4198,.6406-.8531,1.2805-1.2627,1.9395l-.0244,.04l-.0127,.046c-.0327,.1256-.0131,.2725 .042,.376c.055,.1035 .1282,.1667 .1904,.2139c.1244,.094 .23,.1558 .2266,.1523l.0273,.027l.0332,.021c.0112,.01 .1041,.097 .2412,.1807c.0685,.042 .1578,.087 .2783,.094c.1205,.01 .2615-.042 .3584-.1241l.0312-.026l.0244-.035c.6674-.9695 1.3228-1.9514 1.9727-2.9297l.0166-.026l.0117-.028c.0473-.1164 .0492-.2631 .0068-.373c-.0423-.1099-.1097-.1809-.1689-.2334c-.1185-.1051-.232-.1662-.2471-.1787l-.0078-.01l-.0078-.01c-.4529-.3318-.9063-.6627-1.3584-.9942c.2031-.2782 .4063-.5563 .6104-.8349c.4498,.3328 .9009,.6784 1.375,1.0019l.042,.029l.0498,.014c.1248,.035 .2722,.02 .3779-.034c.1057-.054 .1708-.1279 .2188-.1904c.096-.1251 .1566-.2308 .1553-.2295l.0195-.019l.0146-.022c.396-.5556 .8299-1.1056 1.2236-1.6914l.0293-.045l.0137-.052c.032-.1249 .0118-.2699-.042-.3721c-.0538-.1022-.1249-.1656-.1855-.2129c-.1212-.095-.2216-.1573-.2178-.1533l-.0176-.019l-.0205-.015c-.0243-.019-.0688-.061-.1445-.1055c-.0757-.045-.2-.091-.335-.072h-.0146h-.0146c-.2228,.053-.3482,.2182-.4209,.3301c-.0727,.1119-.1221,.1941-.1387,.2099l-.0205,.019l-.0156,.023c-.1379,.1879-.275,.3753-.4121,.5625c-.2168-.1582-.4352-.3164-.6553-.4786c.1582,0 .3186-.021 .4756-.076c.0026,0 .0052,0 .0078,0c.0033,0 .0065,0 .0098,0c.8003-.256 1.1965-1.2087 .8174-1.9599c-.0015,0-.0024-.01-.0039-.01h-.001c-.2432-.5023-.7726-.8249-1.3418-.7949v-.001zm.0273,.624c.3085-.019 .625,.1749 .7549,.4482h.002h.002c.2009,.3911-.0395,.966-.4561,1.0928h-.0088h-.0088c-.4228,.1563-.9671-.167-1.0332-.6075l-.001-.01l-.002-.01c-.0895-.4345 .2956-.9189 .7393-.9297h.0059l.0059-.001zm1.7852,2.2139c.0014,0 .0015,.0008 .0029,0c.0921,.091 .1659,.1341 .2188,.166c-.3522,.5113-.7395,1.015-1.1133,1.5391c-.0015,0-.0034,0-.0049,.01c-.0783,.087-.1182,.155-.1475,.205c-.4921-.3436-.976-.7198-1.4795-1.0839l-.2529-.1827l-.1826,.251c-.326,.4464-.6552,.8927-.9814,1.3418l-.1826,.251l.251,.1846c.5314,.3903 1.0637,.778 1.5947,1.167c.006,0 .0098,.01 .0156,.012c.0706,.057 .1249,.092 .166,.1191c-.5939,.8937-1.1918,1.788-1.7979,2.6709c-.0347-.029-.0826-.065-.1475-.1084c-.0984-.093-.177-.1355-.2305-.167c.4295-.6829 .8903-1.358 1.3369-2.0478l.1602-.2481l-.2383-.1738c-.3806-.2782-.7613-.5587-1.1445-.8369l-.251-.1826l-.1846,.25c-.2624,.3566-.5226,.7146-.7832,1.0703c-.001,0-.002,0-.0029,0c-.1829,.2135-.2872,.4102-.3867,.5166c-.974,.187-1.9523,.3683-2.9287,.5371c-.0057-.055-.0129-.1264-.0371-.2275c-.0001-.0004 .0001-.0007 0-.001c-.01-.1054-.0255-.1822-.0391-.2344c.8637-.1752 1.7424-.3237 2.6211-.4932l.1201-.023l.0723-.099c.7621-1.0402 1.5238-2.0804 2.2852-3.1211l.3271-.4473l-.5518-.049c-.4181-.037-.837-.076-1.2578-.1133l-.1885-.017l-.1016,.1592c-.3291,.5112-.6555,1.0231-.9834,1.5322c-.0028,0-.0083,0-.0098-.01l-.0059-.01l-.0068-.01c-.1051-.1154-.193-.1623-.249-.1982c.3121-.5028 .6547-1.0028 .9844-1.5176c.1008-.1179 .1461-.2291 .1846-.2959c.032-.056 .0336-.052 .0361-.055c.9086,0 1.8188,.01 2.7227,.028c.5109,.347 1.0103,.7394 1.5371,1.1123l.25,.1767l.1826-.2461c.1986-.2692 .3944-.5387 .5908-.8066c.1072-.1134 .1588-.2228 .2012-.2881c.0114-.017 .0027-.01 .0098-.016z"/>
<path fill="#d63434" d="m11.7764,1038.5726c-.6493,.016-1.1681,.6699-1.0371,1.3056c.0973,.6483 .8312,1.0835 1.4502,.8545c.616-.1875 .9388-.9595 .6436-1.5341c-.1863-.3922-.6139-.6531-1.0566-.626zm1.7637,2.1738c-.2082,.049-.2689,.3214-.4164,.4623c-.1989,.2712-.3966,.5434-.5963,.8141c-.5421-.3837-1.0656-.7998-1.6162-1.168c-.9692-.025-1.9433-.028-2.9131-.03c-.2045,.07-.248,.3337-.3854,.4803c-.3546,.5544-.7339,1.0999-1.0746,1.6594c-.0624,.2298 .2397,.3156 .3619,.4499c.1015,.1266 .3336,.2563 .4496,.085c.3513-.5445 .699-1.0917 1.0498-1.6367c.4194,.037 .8385,.076 1.2578,.1133c-.7613,1.0406-1.5231,2.081-2.2852,3.1211c-.9259,.1786-1.8596,.3332-2.7812,.5244c-.2115,.1209-.048,.4015-.0452,.5829c.0393,.1636 .0038,.4637 .2356,.4913c1.063-.1822 2.1277-.3802 3.1865-.584c.2046-.1613 .3145-.4255 .4869-.6213c.262-.3575 .5228-.716 .7855-1.073c.3821,.2774 .7624,.5573 1.1436,.8359c-.4714,.728-.965,1.4457-1.4219,2.1807c-.0613,.2353 .2508,.3149 .3782,.4436c.1446,.088 .3303,.3356 .5144,.1795c.6657-.967 1.3201-1.9479 1.9697-2.9258c.0872-.2146-.1946-.3216-.3206-.4267c-.5366-.3931-1.074-.785-1.6101-1.1788c.3255-.4479 .654-.8937 .9805-1.3408c.5406,.391 1.0677,.8076 1.6172,1.1826c.2383,.067 .3177-.2454 .4479-.375c.4018-.5637 .8331-1.1119 1.2181-1.6846c.0594-.2315-.2468-.314-.3707-.4458c-.073-.056-.1467-.1297-.2465-.1157z"/>
</g>
</svg>
