<?xml version="1.0" encoding="utf8" standalone="no"?>
<svg height="512" id="svg2" inkscape:export-filename="/home/madnester/Рабочий стол/q22.png" inkscape:export-xdpi="1.98" inkscape:export-ydpi="1.98" inkscape:version="0.48.0 r9654" sodipodi:docname="status2.svg" width="512" xmlns="http://www.w3.org/2000/svg" xmlns:cc="http://creativecommons.org/ns#" xmlns:dc="http://purl.org/dc/elements/1.1/" xmlns:inkscape="http://www.inkscape.org/namespaces/inkscape" xmlns:rdf="http://www.w3.org/1999/02/22-rdf-syntax-ns#" xmlns:sodipodi="http://sodipodi.sourceforge.net/DTD/sodipodi-0.dtd" xmlns:svg="http://www.w3.org/2000/svg" xmlns:xlink="http://www.w3.org/1999/xlink">
<defs id="defs4">
<clipPath id="clipPath6769">
<rect height="554.61725" id="rect6771" rx="25.929497" style="fill:#4dff43" transform="rotate(.116)" width="554.61725" x="-1037.426" y="-374.23117"/>
</clipPath>
<clipPath id="clipPath6601">
<rect height="757.37421" id="rect6603" rx="35.408802" style="fill:#4dff43" transform="rotate(.116)" width="757.37421" x="-1031.5856" y="340.27667"/>
</clipPath>
<clipPath id="clipPath6988">
<rect height="430.66013" id="rect6990" inkscape:export-filename="C:\Users\Madnester\Desktop\QutIM\qutim x16.png" inkscape:export-xdpi="1.3333334" inkscape:export-ydpi="1.3333334" rx="20.134249" style="fill:url(#linearGradient6992)" transform="matrix(.9414,-.33728,.33728,.9414,0,0)" width="430.66013" x="1052.2825" y="1094.6482"/>
</clipPath>
<clipPath id="clipPath6970">
<rect height="659.80383" id="rect6972" inkscape:export-filename="C:\Users\Madnester\Desktop\QutIM\qutim x16.png" inkscape:export-xdpi="1.3333334" inkscape:export-ydpi="1.3333334" rx="30.847187" style="fill:url(#linearGradient6974)" transform="matrix(.9414,-.33728,.33728,.9414,0,0)" width="659.80383" x="1118.8516" y="887.25159"/>
</clipPath>
<clipPath id="clipPath6904">
<rect height="513.22998" id="rect6906" inkscape:export-filename="C:\Users\Madnester\Desktop\QutIM\qutim x512.png" inkscape:export-xdpi="38.117695" inkscape:export-ydpi="38.117695" rx="23.99456" style="fill:url(#radialGradient6908)" transform="matrix(.9414,-.33728,.33728,.9414,0,0)" width="513.22998" x="1009.4083" y="1028.2593"/>
</clipPath>
<clipPath id="clipPath6886">
<rect height="786.30707" id="rect6888" inkscape:export-filename="C:\Users\Madnester\Desktop\QutIM\qutim x512.png" inkscape:export-xdpi="38.117695" inkscape:export-ydpi="38.117695" rx="36.761475" style="fill:url(#radialGradient6890)" transform="matrix(.9414,-.33728,.33728,.9414,0,0)" width="786.30707" x="1053.165" y="785.5387"/>
</clipPath>
<linearGradient gradientTransform="translate(-1148.0069,-810.4698)" gradientUnits="userSpaceOnUse" id="linearGradient6666" inkscape:collect="always" x1="422.58987" x2="889.19104" y1="919.09467" y2="89.199226">
<stop id="stop6695" offset="0" style="stop-color:#e6e6e6"/>
<stop id="stop6697" offset="0.41666666" style="stop-color:#e1e1e1"/>
<stop id="stop6699" offset="1" style="stop-color:#fff"/>
</linearGradient>
<linearGradient id="linearGradient3809">
<stop id="stop3811" offset="0" style="stop-color:#e7e7e7"/>
<stop id="stop3813" offset="1" style="stop-color:#656565"/>
</linearGradient>
<linearGradient id="linearGradient5319">
<stop id="stop5321" offset="0" style="stop-color:#a7a7a7"/>
<stop id="stop6405" offset="0.41666666" style="stop-color:#e1e1e1"/>
<stop id="stop5323" offset="1" style="stop-color:#fff"/>
</linearGradient>
<linearGradient id="linearGradient5341">
<stop id="stop5343" offset="0" style="stop-color:#fff"/>
<stop id="stop6267" offset="0.35140693" style="stop-color:#8bddf7"/>
<stop id="stop5345" offset="1" style="stop-color:#3e78cd"/>
</linearGradient>
<linearGradient id="linearGradient5361">
<stop id="stop5369" offset="0" style="stop-color:#c1c1c1"/>
<stop id="stop5365" offset="1" style="stop-color:#d6d6d6"/>
</linearGradient>
<linearGradient id="linearGradient5373">
<stop id="stop5375" offset="0" style="stop-color:#8e8e8e"/>
<stop id="stop5381" offset="0.30555555" style="stop-color:#dfdfdf"/>
<stop id="stop5383" offset="0.3923611" style="stop-color:#6c6c6c"/>
<stop id="stop6483" offset="0.63710457" style="stop-color:#6a6a6a"/>
<stop id="stop5377" offset="1" style="stop-color:#cacaca"/>
</linearGradient>
<linearGradient id="linearGradient5461">
<stop id="stop5463" offset="0"/>
<stop id="stop5465" offset="1" style="stop-color:#838383"/>
</linearGradient>
<linearGradient id="linearGradient5469">
<stop id="stop5471" offset="0" style="stop-color:#e3e3e3"/>
<stop id="stop5473" offset="1" style="stop-color:#121212"/>
</linearGradient>
<linearGradient id="linearGradient6469">
<stop id="stop6471" offset="0" style="stop-color:#e3e3e3"/>
<stop id="stop6481" offset="0.49165267" style="stop-color:#9ec6ed"/>
<stop id="stop6477" offset="0.52565688" style="stop-color:#24405d"/>
<stop id="stop6473" offset="1" style="stop-color:#121212"/>
</linearGradient>
<linearGradient gradientTransform="matrix(1.28304,0,0,1.28304,-78.4433,-250.31311)" gradientUnits="userSpaceOnUse" id="linearGradient7058" inkscape:collect="always" x1="422.58987" x2="889.19104" y1="919.09467" y2="89.199226">
<stop id="stop7006" offset="0" style="stop-color:#fdfdfd"/>
<stop id="stop7008" offset="1" style="stop-color:#b8b8b8"/>
</linearGradient>
<linearGradient gradientTransform="matrix(1.00767,0,0,1.00767,-242.61653,1219.7462)" gradientUnits="userSpaceOnUse" id="linearGradient6936" inkscape:collect="always" x1="953.02039" x2="1765.8719" y1="1398.2271" y2="608.85431">
<stop id="stop7022" offset="0" style="stop-color:#222"/>
<stop id="stop7024" offset="0.30555555" style="stop-color:#7c7c7c"/>
<stop id="stop7026" offset="0.3923611"/>
<stop id="stop7028" offset="0.63710457" style="stop-color:#292929"/>
<stop id="stop7030" offset="1" style="stop-color:#5c5c5c"/>
</linearGradient>
<linearGradient id="linearGradient7010">
<stop id="stop7012" offset="0" style="stop-color:#fff"/>
<stop id="stop7014" offset="0.35140693" style="stop-color:#2894f0"/>
<stop id="stop7016" offset="1" style="stop-color:#3e78cd"/>
</linearGradient>
<linearGradient gradientTransform="translate(-1149.1152,-807.029)" gradientUnits="userSpaceOnUse" id="linearGradient6669" inkscape:collect="always" x1="422.58987" x2="889.19104" xlink:href="#linearGradient5469" y1="919.09467" y2="89.199226"/>
<linearGradient gradientTransform="translate(-1144.0069,107.1969)" gradientUnits="userSpaceOnUse" id="linearGradient6663" inkscape:collect="always" x1="422.58987" x2="889.19104" xlink:href="#linearGradient5319" y1="919.09467" y2="89.199226"/>
<linearGradient gradientTransform="translate(-1145.1152,110.6376)" gradientUnits="userSpaceOnUse" id="linearGradient6661" inkscape:collect="always" x1="422.58987" x2="889.19104" xlink:href="#linearGradient5469" y1="919.09467" y2="89.199226"/>
<linearGradient gradientTransform="translate(-2213.231,174.4352)" gradientUnits="userSpaceOnUse" id="linearGradient6659" inkscape:collect="always" x1="1658.4646" x2="1763.1934" xlink:href="#linearGradient5469" y1="875.22601" y2="-139.51535"/>
<linearGradient gradientTransform="translate(-1144.0069,117.6824)" gradientUnits="userSpaceOnUse" id="linearGradient6657" inkscape:collect="always" x1="422.58987" x2="889.19104" xlink:href="#linearGradient5461" y1="919.09467" y2="89.199226"/>
<linearGradient gradientTransform="matrix(1.00202,0,0,1.00202,-2142.7122,-594.24254)" gradientUnits="userSpaceOnUse" id="linearGradient6542" inkscape:collect="always" x1="964.13104" x2="1747.3324" xlink:href="#linearGradient6469" y1="1384.9419" y2="614.99689"/>
<linearGradient gradientTransform="matrix(1.00767,0,0,1.00767,-2150.6562,-599.6676)" gradientUnits="userSpaceOnUse" id="linearGradient6540" inkscape:collect="always" x1="953.02039" x2="1765.8719" xlink:href="#linearGradient5373" y1="1398.2271" y2="608.85431"/>
<linearGradient gradientTransform="matrix(.5477,0,0,.5477,652.22229,90.83025)" gradientUnits="userSpaceOnUse" id="linearGradient6992" inkscape:collect="always" x1="172.49559" x2="1488.5695" xlink:href="#linearGradient5341" y1="3096.7139" y2="1846.9016"/>
<linearGradient gradientTransform="matrix(.83912,0,0,.83912,505.92924,-650.67331)" gradientUnits="userSpaceOnUse" id="linearGradient6974" inkscape:collect="always" x1="172.49559" x2="1488.5695" xlink:href="#linearGradient5341" y1="3096.7139" y2="1846.9016"/>
<linearGradient gradientUnits="userSpaceOnUse" id="linearGradient6950" inkscape:collect="always" x1="172.49559" x2="1488.5695" xlink:href="#linearGradient5341" y1="3096.7139" y2="1846.9016"/>
<linearGradient gradientTransform="matrix(1.53208,0,0,1.53208,1139.0577,-458.09631)" gradientUnits="userSpaceOnUse" id="linearGradient6948" inkscape:collect="always" x1="422.58987" x2="889.19104" xlink:href="#linearGradient5319" y1="919.09467" y2="89.199226"/>
<linearGradient gradientTransform="matrix(1.00202,0,0,1.00202,93.17027,175.50446)" gradientUnits="userSpaceOnUse" id="linearGradient6869" inkscape:collect="always" x1="964.13104" x2="1747.3324" xlink:href="#linearGradient6469" y1="1384.9419" y2="614.99689"/>
<linearGradient gradientTransform="matrix(1.00767,0,0,1.00767,85.22627,170.0794)" gradientUnits="userSpaceOnUse" id="linearGradient6867" inkscape:collect="always" x1="953.02039" x2="1765.8719" xlink:href="#linearGradient5373" y1="1398.2271" y2="608.85431"/>
<linearGradient gradientTransform="matrix(.96514,.00196,-.00196,.96514,-1960.6822,-1255.6254)" gradientUnits="userSpaceOnUse" id="linearGradient6808" inkscape:collect="always" x1="964.13104" x2="1747.3324" xlink:href="#linearGradient6469" y1="1384.9419" y2="614.99689"/>
<linearGradient gradientTransform="matrix(.97059,.00197,-.00197,.97059,-1968.3233,-1260.8663)" gradientUnits="userSpaceOnUse" id="linearGradient6805" inkscape:collect="always" x1="953.02039" x2="1765.8719" xlink:href="#linearGradient5373" y1="1398.2271" y2="608.85431"/>
<linearGradient gradientTransform="translate(-2217.231,-743.2314)" gradientUnits="userSpaceOnUse" id="linearGradient6675-8" inkscape:collect="always" x1="1658.4646" x2="1763.1934" xlink:href="#linearGradient5469" y1="875.22601" y2="-139.51535"/>
<linearGradient gradientTransform="translate(-1148.0069,-799.9843)" gradientUnits="userSpaceOnUse" id="linearGradient6673-8" inkscape:collect="always" x1="422.58987" x2="889.19104" xlink:href="#linearGradient5461" y1="919.09467" y2="89.199226"/>
<linearGradient gradientTransform="matrix(.96515,0,0,.96515,-1963.2238,-1251.6478)" gradientUnits="userSpaceOnUse" id="linearGradient6631-4" inkscape:collect="always" x1="964.13104" x2="1747.3324" xlink:href="#linearGradient6469" y1="1384.9419" y2="614.99689"/>
<linearGradient gradientTransform="matrix(.97059,0,0,.97059,-1970.8755,-1256.8732)" gradientUnits="userSpaceOnUse" id="linearGradient6629-4" inkscape:collect="always" x1="953.02039" x2="1765.8719" xlink:href="#linearGradient5373" y1="1398.2271" y2="608.85431"/>
<linearGradient gradientTransform="matrix(.97059,0,0,.97059,-1969.0069,-335.20845)" gradientUnits="userSpaceOnUse" id="linearGradient6559-4" inkscape:collect="always" x1="953.02039" x2="1765.8719" xlink:href="#linearGradient5373" y1="1398.2271" y2="608.85431"/>
<linearGradient gradientTransform="matrix(.96515,0,0,.96515,-1961.3552,-329.98301)" gradientUnits="userSpaceOnUse" id="linearGradient6556-2" inkscape:collect="always" x1="964.13104" x2="1747.3324" xlink:href="#linearGradient6469" y1="1384.9419" y2="614.99689"/>
<linearGradient gradientTransform="translate(5.8331,23.3675)" gradientUnits="userSpaceOnUse" id="linearGradient6395-3" inkscape:collect="always" x1="422.58987" x2="889.19104" xlink:href="#linearGradient5469" y1="919.09467" y2="89.199226"/>
<linearGradient gradientTransform="translate(-1062.2827,87.1651)" gradientUnits="userSpaceOnUse" id="linearGradient6261-4" inkscape:collect="always" x1="1658.4646" x2="1763.1934" xlink:href="#linearGradient5469" y1="875.22601" y2="-139.51535"/>
<linearGradient gradientTransform="translate(6.9414,30.4123)" gradientUnits="userSpaceOnUse" id="linearGradient6259-3" inkscape:collect="always" x1="422.58987" x2="889.19104" xlink:href="#linearGradient5461" y1="919.09467" y2="89.199226"/>
<marker id="Arrow1Lstart" inkscape:stockid="Arrow1Lstart" orient="auto" refX="0" refY="0">
<path d="M 0,0 5,-5 -12.5,0 5,5 0,0 z" id="path5480" inkscape:connector-curvature="0" style="stroke:#000;stroke-width:1pt;fill-rule:evenodd" transform="matrix(.8,0,0,.8,10,0)"/>
</marker>
<radialGradient cx="1268.403" cy="1141.4786" fx="1268.403" fy="1141.4786" gradientTransform="matrix(1.31259,.46522,-.31929,.90085,-2018.0928,-1801.7977)" gradientUnits="userSpaceOnUse" id="radialGradient6633-6" inkscape:collect="always" r="396.21722">
<stop id="stop6703" offset="0" style="stop-color:#fff"/>
<stop id="stop6705" offset="0.35140693" style="stop-color:#3fb4da"/>
<stop id="stop6707" offset="1" style="stop-color:#3e78cd"/>
</radialGradient>
<radialGradient cx="1268.403" cy="1141.4786" fx="1268.403" fy="1141.4786" gradientTransform="matrix(1.31259,.46522,-.31929,.90085,-2016.0519,-795.13307)" gradientUnits="userSpaceOnUse" id="radialGradient6596" inkscape:collect="always" r="396.21722" xlink:href="#linearGradient5341"/>
<radialGradient cx="1268.403" cy="1141.4786" fx="1268.403" fy="1141.4786" gradientTransform="matrix(1.36274,.48299,-.33148,.93526,-2199.6772,-1165.409)" gradientUnits="userSpaceOnUse" id="radialGradient6544" inkscape:collect="always" r="396.21722" xlink:href="#linearGradient5341"/>
<radialGradient cx="1243.1949" cy="1177.9652" fx="1243.1949" fy="1177.9652" gradientTransform="matrix(1.62386,.57601,-.42728,1.20457,-527.71412,200.25572)" gradientUnits="userSpaceOnUse" id="radialGradient6966" inkscape:collect="always" r="396.21722" xlink:href="#linearGradient5341"/>
<radialGradient cx="1243.1949" cy="1177.9652" fx="1243.1949" fy="1177.9652" gradientTransform="matrix(1.62386,.57601,-.42728,1.20457,-527.71412,200.25566)" gradientUnits="userSpaceOnUse" id="radialGradient6962" inkscape:collect="always" r="396.21722" xlink:href="#linearGradient5341"/>
<radialGradient cx="1243.1949" cy="1177.9652" fx="1243.1949" fy="1177.9652" gradientTransform="matrix(.88939,.31548,-.23402,.65974,363.19343,200.51024)" gradientUnits="userSpaceOnUse" id="radialGradient6908" inkscape:collect="always" r="396.21722" xlink:href="#linearGradient5341"/>
<radialGradient cx="1243.1949" cy="1177.9652" fx="1243.1949" fy="1177.9652" gradientTransform="matrix(1.36261,.48334,-.35854,1.01077,63.11523,-482.63533)" gradientUnits="userSpaceOnUse" id="radialGradient6890" inkscape:collect="always" r="396.21722" xlink:href="#linearGradient5341"/>
<radialGradient cx="1243.1949" cy="1177.9652" fx="1243.1949" fy="1177.9652" gradientTransform="matrix(1.36261,.48334,-.35854,1.01077,68.22997,-485.0518)" gradientUnits="userSpaceOnUse" id="radialGradient6871" inkscape:collect="always" r="396.21722" xlink:href="#linearGradient5341"/>
<radialGradient cx="1268.403" cy="1141.4786" fx="1268.403" fy="1141.4786" gradientTransform="matrix(1.31259,.46522,-.31929,.90085,-2016.2242,-880.13289)" gradientUnits="userSpaceOnUse" id="radialGradient6777-6" inkscape:collect="always" r="396.21722" xlink:href="#linearGradient5341"/>
</defs>
<sodipodi:namedview id="base" inkscape:current-layer="layer1" inkscape:cx="1199.8351" inkscape:cy="-180.65802" inkscape:document-units="px" inkscape:guide-bbox="true" inkscape:pageopacity="0" inkscape:pageshadow="2" inkscape:snap-bbox="false" inkscape:snap-global="true" inkscape:window-height="742" inkscape:window-maximized="1" inkscape:window-width="1266" inkscape:window-x="0" inkscape:window-y="23" inkscape:zoom="0.2226972">
<sodipodi:guide id="guide3219" orientation="1,0"/>
<sodipodi:guide id="guide3221" orientation="1,0"/>
<sodipodi:guide id="guide3223" orientation="0,1"/>
<sodipodi:guide id="guide3224" orientation="0,1"/>
<sodipodi:guide id="guide3226" orientation="1,0"/>
<sodipodi:guide id="guide3228" orientation="1,0"/>
<sodipodi:guide id="guide3230" orientation="0,1"/>
<sodipodi:guide id="guide4875" orientation="1,0"/>
<sodipodi:guide id="guide4877" orientation="1,0"/>
<sodipodi:guide id="guide4879" orientation="1,0"/>
<sodipodi:guide id="guide4881" orientation="0,1"/>
<sodipodi:guide id="guide4883" orientation="0,1"/>
<sodipodi:guide id="guide4885" orientation="0,1"/>
</sodipodi:namedview>
<g id="layer1" inkscape:groupmode="layer" inkscape:label="Layer 1" transform="translate(0,-540.3622)">
<g id="g4932" inkscape:export-filename="/home/madnester/Рабочий стол/витва.png" inkscape:export-xdpi="2.8124993" inkscape:export-ydpi="2.8124993" transform="translate(-1024,-1024)">
<path d="m 1364.9162,1564.3628 c -0.3741,0 -0.7526,0 -1.1278,0.014 -4.0658,0.16 -8.0843,1.072 -11.8423,2.7744 -103.3286,46.9171 -206.6568,93.8349 -309.988,140.7461 -15.3216,6.9568 -22.1988,25.2481 -15.2411,40.5665 l 140.7817,309.9444 c 6.9549,15.312 25.2373,22.1952 40.5565,15.2384 l 309.988,-140.7618 c 15.3147,-6.9537 22.1983,-25.2481 15.2411,-40.5649 l -140.7818,-309.9603 c -5.0423,-11.1008 -15.9909,-17.8832 -27.5863,-17.9968 z" id="path4506" inkscape:connector-curvature="0" sodipodi:nodetypes="ccccssccccc" style="font-family:Sans;fill:#e6e6e6;stroke-width:30"/>
<path d="m 1339.625,1107.25 c -1.6983,0.032 -3.4135,0.4515 -5.0625,1.1875 l -219.6875,99.75 c -6.5969,2.9952 -9.4954,10.6861 -6.5,17.2813 l 99.75,219.6562 c 2.9954,6.6832 10.7167,9.4952 17.3125,6.5 l 219.6875,-99.75 c 6.5968,-2.9952 9.4954,-10.7189 6.5,-17.3125 l -99.7812,-219.625 c -2.2467,-4.9456 -7.1241,-7.8635 -12.2188,-7.6875 z" id="path4510" inkscape:connector-curvature="0" sodipodi:nodetypes="cccccccccc" style="font-family:Sans;fill:#d63434;stroke-width:30" transform="translate(0,540.3622)"/>
<path d="m 1320.0625,1690.5 c -16.9449,18.9923 -33.8799,37.9934 -50.8437,56.9688 -24.4055,-7.9087 -48.8127,-15.8121 -73.2188,-23.7188 -15.7604,4.2292 -31.5208,8.4583 -47.2812,12.6875 15.8287,4.3499 31.6651,8.6722 47.5,13 -20.9254,8.6518 -38.1308,30.3361 -35.25,53.8437 1.4233,20.0024 16.3965,38.295 36.2812,42.1876 22.7862,5.4539 48.2918,0.065 66.8438,-14.1876 10.1079,-8.392 16.0339,-20.3836 17.375,-33.3124 12.6652,17.9985 37.8771,21.2861 57.3124,13.4062 20.2184,-6.3429 38.0771,-26.2555 34.4284,-48.4634 -1.6113,-18.5727 -14.1359,-37.4791 -33.4908,-40.9741 -4.6377,-1.0778 -9.284,-1.5072 -14,-1.9687 13.7467,-14.0239 27.5095,-28.032 41.2812,-42.0313 -15.6458,4.1875 -31.2917,8.375 -46.9375,12.5625 z m 3.75,53.5625 c 13.7302,-0.4159 26.5184,12.5791 23.8437,26.5313 -2.8031,15.0766 -19.1808,22.6764 -33.2187,23.4374 -11.1955,0.9042 -23.4046,-5.2733 -26.2813,-16.7187 -3.9478,-12.4432 4.9564,-25.7203 16.8879,-29.4564 5.9128,-2.4994 12.3248,-3.8164 18.7684,-3.7936 z m -90,21.2187 c 12.2271,-0.592 26.4768,5.2603 29.5313,18.1876 4.3597,14.8732 -7.8368,29.4334 -21.3844,34.0894 -14.6695,6.1345 -33.5323,9.0747 -47.1156,-1.0894 -10.1692,-8.5939 -10.8266,-25.6318 -1.0938,-34.8126 10.0004,-11.1804 25.5258,-15.7458 40.0625,-16.375 z m 110.0625,69.25 c -36.4684,1.0596 -72.1117,11.2697 -105.3438,25.9688 -17.3364,8.4897 -36.1177,19.7255 -43.3124,38.5625 -4.1282,16.152 4.5294,31.6637 7.5123,47.2985 2.0873,4.9756 2.1386,13.4764 5.4224,16.3804 67.8759,-18.1742 135.7518,-36.3484 203.6277,-54.5226 -5.8016,-18.2704 -7.9858,-38.082 -16.7812,-55.1876 -11.1432,-16.3332 -32.9911,-18.7297 -51.125,-18.5 z m -2.5,17.5626 c 13.1616,-0.6047 27.6417,6.6961 30.5975,20.3236 3.0413,8.8435 4.7781,18.1703 7.4963,27.0826 -49.4952,13.2783 -98.9899,26.5589 -148.5,39.7812 -2.4284,-14.2419 -11.1773,-29.3016 -5.0626,-43.7187 8.2208,-16.3713 27.1669,-22.8003 43.3438,-28.5 23.3595,-7.6645 47.4331,-14.1114 72.125,-14.9687 z" id="path4493" inkscape:connector-curvature="0" style="font-family:Arial;fill:#e6e6e6;font-weight:bold;letter-spacing:0;font-size:144;word-spacing:0"/>
<path d="m 1354.5185,1604.4252 c -2.1228,0 -4.2702,0.56 -6.3314,1.488 l -274.5852,124.6642 c -8.2448,3.7456 -11.871,13.408 -8.1269,21.6528 l 124.6974,274.5314 c 3.7441,8.2416 13.3953,11.869 21.6401,8.1248 l 274.5852,-124.6785 c 8.2448,-3.7456 11.8711,-13.3952 8.1269,-21.6368 l -124.6973,-274.5474 c -2.8082,-6.1825 -8.9404,-9.7713 -15.3088,-9.5969 z m -14.9037,43.1937 c 5.0947,-0.176 9.9977,2.7328 12.2443,7.6784 l 99.7632,219.6386 c 2.9954,6.5936 0.09,14.3072 -6.5068,17.3024 l -219.6683,99.7489 c -6.5958,2.9952 -14.3113,0.176 -17.3067,-6.5072 l -99.7632,-219.6354 c -2.9954,-6.5952 -0.09,-14.3088 6.5069,-17.304 l 219.6682,-99.7489 c 1.649,-0.736 3.3641,-1.136 5.0624,-1.168 z" id="path4508" inkscape:connector-curvature="0" inkscape:export-filename="C:\Users\Madnester\Desktop\Sketches\256.png" inkscape:export-xdpi="23.039482" inkscape:export-ydpi="23.039482" style="fill:#656565"/>
</g>
</g>
</svg>
