<?xml version="1.0" encoding="UTF-8" standalone="no"?>
<!-- Created with Inkscape (http://www.inkscape.org/) -->

<svg
   xmlns:dc="http://purl.org/dc/elements/1.1/"
   xmlns:cc="http://creativecommons.org/ns#"
   xmlns:rdf="http://www.w3.org/1999/02/22-rdf-syntax-ns#"
   xmlns:svg="http://www.w3.org/2000/svg"
   xmlns="http://www.w3.org/2000/svg"
   xmlns:xlink="http://www.w3.org/1999/xlink"
   xmlns:sodipodi="http://sodipodi.sourceforge.net/DTD/sodipodi-0.dtd"
   xmlns:inkscape="http://www.inkscape.org/namespaces/inkscape"
   inkscape:version="0.48.4 r9939"
   version="1.1"
   id="svg2"
   height="16"
   width="16"
   sodipodi:docname="bookmark-new-list.svg">
  <defs
     id="defs4">
    <linearGradient
       id="linearGradient4085">
      <stop
         style="stop-color:#3b8c00;stop-opacity:1;"
         offset="0"
         id="stop4087" />
      <stop
         style="stop-color:#00ec16;stop-opacity:1;"
         offset="1"
         id="stop4089" />
    </linearGradient>
    <linearGradient
       id="linearGradient4091">
      <stop
         id="stop4093"
         offset="0"
         style="stop-color:#d5fff6;stop-opacity:1;" />
      <stop
         id="stop4095"
         offset="1"
         style="stop-color:#fff6d5;stop-opacity:0;" />
    </linearGradient>
    <linearGradient
       id="linearGradient4108">
      <stop
         style="stop-color:#e66c00;stop-opacity:1;"
         offset="0"
         id="stop4110" />
      <stop
         style="stop-color:#ffe991;stop-opacity:1;"
         offset="1"
         id="stop4112" />
    </linearGradient>
    <linearGradient
       id="linearGradient4148">
      <stop
         id="stop4150"
         offset="0"
         style="stop-color:#fffad5;stop-opacity:1;" />
      <stop
         id="stop4152"
         offset="1"
         style="stop-color:#fff6d5;stop-opacity:0;" />
    </linearGradient>
    <linearGradient
       inkscape:collect="always"
       xlink:href="#linearGradient4108"
       id="linearGradient3870"
       x1="-815.0282"
       y1="504.68909"
       x2="-815.0282"
       y2="-104.3399"
       gradientUnits="userSpaceOnUse" />
    <linearGradient
       inkscape:collect="always"
       xlink:href="#linearGradient4148"
       id="linearGradient3801"
       gradientUnits="userSpaceOnUse"
       gradientTransform="matrix(0.02216953,0,0,0.02216953,25.968944,1039.7623)"
       x1="-811.22919"
       y1="-102.64641"
       x2="-811.22919"
       y2="506.42688" />
    <linearGradient
       inkscape:collect="always"
       xlink:href="#linearGradient4085"
       id="linearGradient3027"
       gradientUnits="userSpaceOnUse"
       gradientTransform="matrix(-37.939029,-37.939029,38.668059,-38.668059,902.07065,1796.1168)"
       x1="11.888988"
       y1="7.9403172"
       x2="18.091633"
       y2="14.026019" />
    <linearGradient
       inkscape:collect="always"
       xlink:href="#linearGradient4091"
       id="linearGradient3029"
       gradientUnits="userSpaceOnUse"
       gradientTransform="matrix(-37.939028,-37.939028,38.668059,-38.668059,902.12083,1796.0619)"
       x1="18.069223"
       y1="14.004032"
       x2="11.900706"
       y2="7.9518137" />
    <linearGradient
       inkscape:collect="always"
       xlink:href="#linearGradient4108"
       id="linearGradient3019"
       gradientUnits="userSpaceOnUse"
       x1="-815.0282"
       y1="504.68909"
       x2="-815.0282"
       y2="-104.3399" />
    <linearGradient
       inkscape:collect="always"
       xlink:href="#linearGradient4148"
       id="linearGradient3021"
       gradientUnits="userSpaceOnUse"
       gradientTransform="matrix(0.02216953,0,0,0.02216953,25.968944,1039.7623)"
       x1="-811.22919"
       y1="-102.64641"
       x2="-811.22919"
       y2="506.42688" />
    <linearGradient
       inkscape:collect="always"
       xlink:href="#linearGradient4148"
       id="linearGradient3024"
       gradientUnits="userSpaceOnUse"
       gradientTransform="matrix(0.02216953,0,0,0.02216953,25.968944,1039.6289)"
       x1="-811.22919"
       y1="-102.64641"
       x2="-811.22919"
       y2="506.42688" />
    <linearGradient
       inkscape:collect="always"
       xlink:href="#linearGradient4091"
       id="linearGradient3031"
       gradientUnits="userSpaceOnUse"
       gradientTransform="matrix(-0.60702445,-0.60702445,0.61868894,-0.61868894,14.285876,1064.0649)"
       x1="18.069223"
       y1="14.004032"
       x2="11.900706"
       y2="7.9518137" />
    <linearGradient
       inkscape:collect="always"
       xlink:href="#linearGradient4085"
       id="linearGradient3034"
       gradientUnits="userSpaceOnUse"
       gradientTransform="matrix(-0.60702446,-0.60702446,0.61868894,-0.61868894,14.285073,1064.0658)"
       x1="11.888988"
       y1="7.9403172"
       x2="18.091633"
       y2="14.026019" />
  </defs>
  <sodipodi:namedview
     id="base"
     pagecolor="#ffffff"
     bordercolor="#666666"
     borderopacity="1.0"
     inkscape:pageopacity="0.0"
     inkscape:pageshadow="2"
     inkscape:zoom="39.4375"
     inkscape:cx="8"
     inkscape:cy="8"
     inkscape:document-units="px"
     inkscape:current-layer="layer1"
     showgrid="false"
     inkscape:window-width="1440"
     inkscape:window-height="848"
     inkscape:window-x="-8"
     inkscape:window-y="-8"
     inkscape:window-maximized="1"
     inkscape:snap-bbox="false"
     inkscape:snap-global="true"
     showguides="true"
     inkscape:guide-bbox="true">
    <sodipodi:guide
       orientation="0,1"
       position="125.25891,1000.051"
       id="guide3223" />
    <sodipodi:guide
       orientation="1,0"
       position="-499.01535,256.57874"
       id="guide3228" />
    <inkscape:grid
       type="xygrid"
       id="grid3002"
       empspacing="5"
       visible="true"
       enabled="true"
       snapvisiblegridlinesonly="true" />
  </sodipodi:namedview>
  <metadata
     id="metadata7">
    <rdf:RDF>
      <cc:Work
         rdf:about="">
        <dc:format>image/svg+xml</dc:format>
        <dc:type
           rdf:resource="http://purl.org/dc/dcmitype/StillImage" />
        <dc:title />
      </cc:Work>
    </rdf:RDF>
  </metadata>
  <g
     inkscape:label="Layer 1"
     inkscape:groupmode="layer"
     id="layer1"
     transform="translate(0,-1036.3622)">
    <path
       inkscape:transform-center-y="-0.74561563"
       inkscape:transform-center-x="0.063618764"
       transform="matrix(0.02497721,0,0,0.02497721,28.244623,1039.3551)"
       d="m -607.37225,500.98465 c -0.62159,0.46485 -198.2422,-74.62486 -199.01831,-74.61415 -0.7761,0.0107 -196.24974,80.52411 -196.88394,80.07659 -0.6342,-0.44753 9.71223,-211.59989 9.46222,-212.3347 -0.25001,-0.73482 -137.22752,-161.76133 -136.99782,-162.50276 0.2296,-0.74142 204.24467,-56.151053 204.86626,-56.615899 0.62159,-0.464847 111.43853,-180.498101 112.21464,-180.508811 0.7761,-0.0107 116.51791,176.896625 117.15209,177.344146 0.63418,0.44752 206.1003,50.207354 206.35031,50.942174 0.25001,0.73481 -132.23267,165.47918 -132.46232,166.22061 -0.22964,0.74143 15.93846,211.52796 15.31687,211.9928 z"
       inkscape:randomized="0"
       inkscape:rounded="0.0036518307"
       inkscape:flatsided="false"
       sodipodi:arg2="1.5569998"
       sodipodi:arg1="0.92868125"
       sodipodi:r2="195.12956"
       sodipodi:r1="336.80664"
       sodipodi:cy="231.25951"
       sodipodi:cx="-809.08258"
       sodipodi:sides="5"
       id="path3986"
       style="opacity:0.07999998;fill:#000000;fill-opacity:1;fill-rule:nonzero;stroke:none"
       sodipodi:type="star" />
    <path
       sodipodi:type="star"
       style="opacity:0.15;fill:#000000;fill-opacity:1;fill-rule:nonzero;stroke:none"
       id="path3984"
       sodipodi:sides="5"
       sodipodi:cx="-809.08258"
       sodipodi:cy="231.25951"
       sodipodi:r1="336.80664"
       sodipodi:r2="192.94801"
       sodipodi:arg1="0.92868125"
       sodipodi:arg2="1.5569998"
       inkscape:flatsided="false"
       inkscape:rounded="0.0036518307"
       inkscape:randomized="0"
       d="m -607.37225,500.98465 c -0.62394,0.46661 -198.26936,-76.80624 -199.0484,-76.79549 -0.77904,0.0107 -196.21725,82.70714 -196.85385,82.25793 -0.6366,-0.44922 11.77846,-212.29981 11.5275,-213.0374 -0.25096,-0.73759 -139.2936,-161.05582 -139.0631,-161.80006 0.2305,-0.74423 205.54883,-54.402243 206.17277,-54.868848 0.62394,-0.466604 110.12909,-182.245112 110.90813,-182.255862 0.77904,-0.0108 115.2577,178.677366 115.89428,179.126578 0.63657,0.449213 207.35716,48.422152 207.60812,49.159742 0.25096,0.73759 -134.31568,164.83093 -134.5462,165.57516 -0.23051,0.74424 18.02469,212.17165 17.40075,212.63825 z"
       transform="matrix(0.02354469,0,0,0.02354469,27.080032,1039.6961)"
       inkscape:transform-center-x="0.059975374"
       inkscape:transform-center-y="-0.70287319" />
    <path
       inkscape:transform-center-y="-0.66174716"
       inkscape:transform-center-x="0.056470738"
       transform="matrix(0.02216953,0,0,0.02216953,25.968944,1040.0129)"
       d="m -607.37225,500.98465 c -0.62182,0.46502 -198.24489,-74.841 -199.02129,-74.83029 -0.77639,0.0107 -196.24656,80.74041 -196.88096,80.29273 -0.6344,-0.44769 9.91696,-211.66925 9.66686,-212.40433 -0.25011,-0.73508 -137.43226,-161.69142 -137.20246,-162.43313 0.2297,-0.7417 204.3739,-55.977776 204.99572,-56.442795 0.62181,-0.465019 111.30878,-180.671205 112.08518,-180.681915 0.77639,-0.0107 116.39305,177.073069 117.02746,177.520756 0.63441,0.447686 206.22483,50.030474 206.47494,50.765564 0.25011,0.73508 -132.43907,165.41495 -132.6688,166.15666 -0.22973,0.7417 16.14517,211.59174 15.52335,212.05675 z"
       inkscape:randomized="0"
       inkscape:rounded="0.0036518307"
       inkscape:flatsided="false"
       sodipodi:arg2="1.5569998"
       sodipodi:arg1="0.92868125"
       sodipodi:r2="194.91341"
       sodipodi:r1="336.80664"
       sodipodi:cy="231.25951"
       sodipodi:cx="-809.08258"
       sodipodi:sides="5"
       id="path3955"
       style="opacity:0.3;fill:#000000;fill-opacity:1;fill-rule:nonzero;stroke:none"
       sodipodi:type="star" />
    <path
       sodipodi:type="star"
       style="fill:url(#linearGradient3019);fill-opacity:1;fill-rule:nonzero;stroke:#a07200;stroke-width:14.43422604;stroke-miterlimit:4;stroke-opacity:1;stroke-dasharray:none"
       id="path3094"
       sodipodi:sides="5"
       sodipodi:cx="-809.08258"
       sodipodi:cy="231.25951"
       sodipodi:r1="336.80664"
       sodipodi:r2="194.91341"
       sodipodi:arg1="0.92868125"
       sodipodi:arg2="1.5569998"
       inkscape:flatsided="false"
       inkscape:rounded="0.0036518307"
       inkscape:randomized="0"
       d="m -607.37225,500.98465 c -0.62182,0.46502 -198.24489,-74.841 -199.02129,-74.83029 -0.77639,0.0107 -196.24656,80.74041 -196.88096,80.29273 -0.6344,-0.44769 9.91696,-211.66925 9.66686,-212.40433 -0.25011,-0.73508 -137.43226,-161.69142 -137.20246,-162.43313 0.2297,-0.7417 204.3739,-55.977776 204.99572,-56.442795 0.62181,-0.465019 111.30878,-180.671205 112.08518,-180.681915 0.77639,-0.0107 116.39305,177.073069 117.02746,177.520756 0.63441,0.447686 206.22483,50.030474 206.47494,50.765564 0.25011,0.73508 -132.43907,165.41495 -132.6688,166.15666 -0.22973,0.7417 16.14517,211.59174 15.52335,212.05675 z"
       transform="matrix(0.02216953,0,0,0.02216953,25.968944,1039.6289)"
       inkscape:transform-center-x="0.056470738"
       inkscape:transform-center-y="-0.66174719" />
    <path
       style="opacity:0.5;fill:url(#linearGradient3024);fill-opacity:1;fill-rule:nonzero;stroke:none"
       d="m 7.9291312,1037.2898 c -0.017212,2e-4 -2.4712144,3.9952 -2.4849998,4.0055 -0.013786,0.01 -4.53940668,1.235 -4.54449971,1.2515 -0.001418,0 0.24324191,0.2959 0.58300001,0.698 1.2123725,-0.3355 3.950735,-1.0775 3.9614997,-1.0855 0.013785,-0.01 2.4677875,-4.0053 2.4849998,-4.0055 0.017212,-3e-4 2.5804348,3.9256 2.5944998,3.9355 0.01105,0.01 2.80037,0.6814 4.0095,0.9805 0.330526,-0.4138 0.56905,-0.7145 0.5675,-0.719 -0.0055,-0.016 -4.562935,-1.1156 -4.577,-1.1255 -0.01407,-0.01 -2.5772875,-3.9358 -2.5944998,-3.9355 z m 4.2879998,9.535 c -0.03341,0.042 -0.0571,0.072 -0.0575,0.073 -0.0037,0.012 0.185135,2.4613 0.2845,3.817 0.03651,0.013 0.05859,0.021 0.0595,0.02 0.01023,-0.01 -0.186151,-2.5756 -0.2865,-3.9105 z m -8.3124995,0.142 c -0.063823,1.3435 -0.1883787,3.8827 -0.178,3.89 6.864e-4,5e-4 0.014749,0 0.035,-0.013 0.061801,-1.3561 0.1835309,-3.8207 0.1795,-3.8325 -3.52e-4,0 -0.013203,-0.017 -0.0365,-0.045 z"
       id="path3794"
       inkscape:connector-curvature="0" />
    <path
       inkscape:connector-curvature="0"
       id="path3349"
       d="m 10.487324,1046.9219 -2.4231922,0 0,3.0191 2.4231922,0 0,2.4212 3.017152,0 0,-2.4212 2.382988,0 0,-3.0191 -2.382988,0 0,-2.383 -3.017152,0 z"
       style="opacity:0.07999998;fill:#000000;fill-opacity:1;fill-rule:evenodd;stroke:none;display:inline"
       sodipodi:nodetypes="ccccccccccccc" />
    <path
       inkscape:connector-curvature="0"
       id="path3337"
       d="m 10.626391,1044.6951 0,2.3662 -2.422612,0 0,2.739 2.422612,0 0,2.4219 2.738244,0 0,-2.4219 2.383183,0 0,-2.739 -2.383183,0 0,-2.3662 -2.738244,0 0,0 z"
       style="opacity:0.15;fill:#000000;fill-opacity:1;fill-rule:evenodd;stroke:none;display:inline"
       sodipodi:nodetypes="ccccccccccccccc" />
    <path
       inkscape:connector-curvature="0"
       id="path3751"
       d="m 8.3782169,1049.6243 2.4228051,0 0,2.4228 2.388208,0 0,-2.4228 2.38415,0 0,-2.3882 -2.38415,0 0,-2.3842 -2.388208,0 0,2.3842 -2.4228051,0 z"
       style="opacity:0.3;fill:#000000;fill-opacity:1;fill-rule:evenodd;stroke:none;display:inline"
       sodipodi:nodetypes="ccccccccccccc" />
    <path
       inkscape:connector-curvature="0"
       style="fill:url(#linearGradient3034);fill-opacity:1;fill-rule:evenodd;stroke:#00a000;stroke-width:0.16382472;stroke-miterlimit:4;stroke-opacity:1;stroke-dasharray:none;display:inline"
       d="m 10.730751,1051.8321 2.528035,0 0,-2.4227 2.38485,0 0,-2.5281 -2.38485,0 0,-2.3848 -2.528035,0 0,2.3848 -2.4227903,0 0,2.5281 2.4227903,0 z"
       id="path7165"
       sodipodi:nodetypes="ccccccccccccc" />
    <path
       style="opacity:0.5;fill:url(#linearGradient3031);fill-opacity:1;fill-rule:evenodd;stroke:none;display:inline"
       d="m 13.262384,1044.4956 -2.530905,0 0,2.3848 -2.4109624,0 0,0.4259 2.4109624,0 0,-2.3848 2.530905,0 z m 2.392245,2.3848 -2.392245,0 0,0.4259 2.392245,0 z"
       id="path3077"
       inkscape:connector-curvature="0"
       sodipodi:nodetypes="cccccccccccccc" />
  </g>
</svg>
