<?xml version="1.0" encoding="UTF-8" standalone="no"?>
<!-- Created with Inkscape (http://www.inkscape.org/) -->

<svg
   xmlns:dc="http://purl.org/dc/elements/1.1/"
   xmlns:cc="http://creativecommons.org/ns#"
   xmlns:rdf="http://www.w3.org/1999/02/22-rdf-syntax-ns#"
   xmlns:svg="http://www.w3.org/2000/svg"
   xmlns="http://www.w3.org/2000/svg"
   xmlns:xlink="http://www.w3.org/1999/xlink"
   xmlns:sodipodi="http://sodipodi.sourceforge.net/DTD/sodipodi-0.dtd"
   xmlns:inkscape="http://www.inkscape.org/namespaces/inkscape"
   width="16"
   height="16"
   id="svg3301"
   version="1.1"
   inkscape:version="0.48.4 r9939"
   sodipodi:docname="download.svg">
  <defs
     id="defs3303">
    <linearGradient
       id="linearGradient3827">
      <stop
         id="stop3829"
         offset="0"
         style="stop-color:#dbdbdb;stop-opacity:1" />
      <stop
         id="stop3831"
         offset="1"
         style="stop-color:#f5f5f5;stop-opacity:1" />
    </linearGradient>
    <linearGradient
       inkscape:collect="always"
       xlink:href="#linearGradient3827"
       id="linearGradient3788"
       gradientUnits="userSpaceOnUse"
       gradientTransform="matrix(1.0138955,0.46133418,-0.46236544,1.0116342,482.76263,-16.849919)"
       x1="5.2746978"
       y1="1038.7067"
       x2="10.457751"
       y2="1050.0723" />
    <linearGradient
       inkscape:collect="always"
       xlink:href="#linearGradient3827"
       id="linearGradient3845"
       x1="8"
       y1="1040.3622"
       x2="8"
       y2="1035.3622"
       gradientUnits="userSpaceOnUse"
       gradientTransform="matrix(0.98229326,0,0,1.0009436,0.14165356,-0.97910622)" />
    <linearGradient
       id="linearGradient3981">
      <stop
         style="stop-color:#d5ebff;stop-opacity:1;"
         offset="0"
         id="stop3983" />
      <stop
         style="stop-color:#fff6d5;stop-opacity:0;"
         offset="1"
         id="stop3985" />
    </linearGradient>
    <linearGradient
       id="linearGradient4414">
      <stop
         style="stop-color:#0069c8;stop-opacity:1;"
         offset="0"
         id="stop4416" />
      <stop
         style="stop-color:#55c4ff;stop-opacity:1;"
         offset="1"
         id="stop4418" />
    </linearGradient>
    <linearGradient
       id="linearGradient4794">
      <stop
         style="stop-color:#646464;stop-opacity:1;"
         offset="0"
         id="stop4796" />
      <stop
         style="stop-color:#969696;stop-opacity:1;"
         offset="1"
         id="stop4798" />
    </linearGradient>
    <linearGradient
       id="linearGradient4800">
      <stop
         style="stop-color:#000000;stop-opacity:1;"
         offset="0"
         id="stop4802" />
      <stop
         style="stop-color:#fff6d5;stop-opacity:0;"
         offset="1"
         id="stop4804" />
    </linearGradient>
    <linearGradient
       inkscape:collect="always"
       xlink:href="#linearGradient4800"
       id="linearGradient3891"
       gradientUnits="userSpaceOnUse"
       gradientTransform="translate(0.1,-4.9996913)"
       x1="8"
       y1="1045.3622"
       x2="8"
       y2="1048.3622" />
    <linearGradient
       inkscape:collect="always"
       xlink:href="#linearGradient4800"
       id="linearGradient3901"
       gradientUnits="userSpaceOnUse"
       x1="8"
       y1="1045.3622"
       x2="8"
       y2="1048.3622" />
    <linearGradient
       inkscape:collect="always"
       xlink:href="#linearGradient4794"
       id="linearGradient3904"
       gradientUnits="userSpaceOnUse"
       x1="8"
       y1="1045.3622"
       x2="8"
       y2="1048.3622" />
    <linearGradient
       inkscape:collect="always"
       xlink:href="#linearGradient4794"
       id="linearGradient3912"
       gradientUnits="userSpaceOnUse"
       gradientTransform="translate(9.6857548e-8,-4.9999896)"
       x1="8"
       y1="1045.3622"
       x2="8"
       y2="1048.3622" />
    <linearGradient
       inkscape:collect="always"
       xlink:href="#linearGradient3981"
       id="linearGradient3939"
       gradientUnits="userSpaceOnUse"
       gradientTransform="matrix(0.6697097,0,0,0.99770458,0.70929335,-2.6184187)"
       x1="7.9000001"
       y1="1045.3802"
       x2="7.9000001"
       y2="1048.3871" />
    <linearGradient
       inkscape:collect="always"
       xlink:href="#linearGradient4414"
       id="linearGradient3942"
       gradientUnits="userSpaceOnUse"
       gradientTransform="matrix(0.66970969,0,0,0.99770457,0.64232247,-2.6187164)"
       x1="10.986368"
       y1="1048.3875"
       x2="10.986368"
       y2="1045.3805" />
    <linearGradient
       inkscape:collect="always"
       xlink:href="#linearGradient3981"
       id="linearGradient3945"
       gradientUnits="userSpaceOnUse"
       x1="9.1835613"
       y1="1045.3536"
       x2="9.1835613"
       y2="1048.3278"
       gradientTransform="matrix(0.42245368,0,0,1.0086805,1.1203706,-9.0656047)" />
    <linearGradient
       inkscape:collect="always"
       xlink:href="#linearGradient4414"
       id="linearGradient3948"
       gradientUnits="userSpaceOnUse"
       x1="11.550685"
       y1="1048.3278"
       x2="11.550685"
       y2="1045.3536"
       gradientTransform="matrix(0.42245368,0,0,1.0086805,1.1203706,-9.0656047)" />
  </defs>
  <sodipodi:namedview
     id="base"
     pagecolor="#ffffff"
     bordercolor="#666666"
     borderopacity="1.0"
     inkscape:pageopacity="0.0"
     inkscape:pageshadow="2"
     inkscape:zoom="39.4375"
     inkscape:cx="8.5071315"
     inkscape:cy="11.017433"
     inkscape:document-units="px"
     inkscape:current-layer="layer1"
     showgrid="true"
     inkscape:window-width="1440"
     inkscape:window-height="848"
     inkscape:window-x="-8"
     inkscape:window-y="-8"
     inkscape:window-maximized="1">
    <inkscape:grid
       type="xygrid"
       id="grid3219"
       empspacing="5"
       visible="true"
       enabled="true"
       snapvisiblegridlinesonly="true" />
  </sodipodi:namedview>
  <metadata
     id="metadata3306">
    <rdf:RDF>
      <cc:Work
         rdf:about="">
        <dc:format>image/svg+xml</dc:format>
        <dc:type
           rdf:resource="http://purl.org/dc/dcmitype/StillImage" />
        <dc:title />
      </cc:Work>
    </rdf:RDF>
  </metadata>
  <g
     inkscape:label="Layer 1"
     inkscape:groupmode="layer"
     id="layer1"
     transform="translate(0,-1036.3622)">
    <path
       style="font-size:medium;font-style:normal;font-variant:normal;font-weight:normal;font-stretch:normal;text-indent:0;text-align:start;text-decoration:none;line-height:normal;letter-spacing:normal;word-spacing:normal;text-transform:none;direction:ltr;block-progression:tb;writing-mode:lr-tb;text-anchor:start;baseline-shift:baseline;opacity:0.08;color:#000000;fill:#000000;fill-opacity:1;fill-rule:nonzero;stroke:none;stroke-width:1;marker:none;visibility:visible;display:inline;overflow:visible;enable-background:accumulate;font-family:Sans;-inkscape-font-specification:Sans"
       d="m 1.7692296,1036.3668 c -0.96828404,-0.021 -1.76814594,0.777 -1.7692283412433,1.7317 l 0,12.4695 C -0.00114174,1051.5222 0.77627876,1052.2982 1.7307681,1052.2999 c 11.1778579,0.1157 11.0059349,0.034 12.4999819,0.038 0.967958,0.021 1.768028,-0.7767 1.769229,-1.732 l 0,-12.5079 c 0.0023,-0.5477 -0.182351,-1.0101 -0.538461,-1.3084 -0.35611,-0.2982 -0.809058,-0.4065 -1.192306,-0.4233 -4.168918,-0.014 -8.332916,0.013 -12.4999824,0 z"
       id="path3803"
       inkscape:connector-curvature="0" />
    <path
       style="font-size:medium;font-style:normal;font-variant:normal;font-weight:normal;font-stretch:normal;text-indent:0;text-align:start;text-decoration:none;line-height:normal;letter-spacing:normal;word-spacing:normal;text-transform:none;direction:ltr;block-progression:tb;writing-mode:lr-tb;text-anchor:start;baseline-shift:baseline;opacity:0.1;color:#000000;fill:#000000;fill-opacity:1;fill-rule:nonzero;stroke:none;stroke-width:0.50000000000000000;marker:none;visibility:visible;display:inline;overflow:visible;enable-background:accumulate;font-family:Sans;-inkscape-font-specification:Sans"
       d="m 1.7692296,1036.6744 c -0.79312144,-0.017 -1.46064594,0.6385 -1.46153644,1.424 l 0,12.4697 c -9.432e-4,0.7853 0.6368484,1.4228 1.42307494,1.4242 11.1761099,0.1156 10.9928779,0.034 12.4999819,0.038 0.792762,0.017 1.460549,-0.6382 1.461536,-1.4243 l 0,-12.5081 c 0.0021,-0.4859 -0.14288,-0.843 -0.423075,-1.0777 -0.280195,-0.2345 -0.653795,-0.331 -0.999999,-0.3463 -4.168373,-0.014 -8.3325525,0.013 -12.4999824,0 z"
       id="path3799"
       inkscape:connector-curvature="0" />
    <path
       sodipodi:nodetypes="cccccccccccc"
       inkscape:connector-curvature="0"
       id="path3005"
       d="m 14.699955,1037.0912 c -0.141455,-0.049 -0.288566,-0.086 -0.439797,-0.087 -4.167827,-0.014 -8.3361549,-0.016 -12.5039484,-0.026 -0.6179588,-0.014 -1.12663354,0.5034 -1.12733214,1.1192 l -0.013491,12.468 c -7.404e-4,0.616 0.50546324,1.1238 1.12342664,1.1249 11.1743599,0.1157 10.9847939,0.018 12.5049579,0.022 0.617563,0.014 1.12656,-0.5032 1.127335,-1.1194 l 0.01349,-12.4678 c 5.07e-4,-0.4466 -0.261276,-0.8387 -0.647138,-1.0187 -0.01263,-4e-4 -0.0248,-0.014 -0.0376,-0.016 z"
       style="opacity:0.15;fill:#000000;fill-opacity:1;stroke:none" />
    <path
       style="opacity:0.3;fill:#000000;fill-opacity:1;stroke:none"
       d="m 14.351019,1037.2185 c -0.134087,-0.046 -0.273537,-0.081 -0.416891,-0.082 -3.9507589,-0.014 -7.9019928,-0.015 -11.8527202,-0.024 -0.5857743,-0.014 -1.0679564,0.4772 -1.0686186,1.0611 l -0.012788,11.8185 c -7.0187e-4,0.584 0.4791378,1.0654 1.0649165,1.0663 10.5923793,0.1097 10.4126853,0.017 11.8536773,0.021 0.585399,0.014 1.067886,-0.4769 1.068621,-1.0611 l 0.01278,-11.8185 c 4.81e-4,-0.4234 -0.247668,-0.7951 -0.613434,-0.9656 -0.01197,-4e-4 -0.02351,-0.014 -0.03565,-0.015 z"
       id="path3764"
       inkscape:connector-curvature="0"
       sodipodi:nodetypes="cccccccccccc" />
    <path
       sodipodi:nodetypes="cccccccccccc"
       inkscape:connector-curvature="0"
       id="path3786"
       d="m 14.351019,1036.4685 c -0.134087,-0.046 -0.273536,-0.081 -0.416891,-0.082 -3.9507586,-0.014 -7.9019926,-0.015 -11.8527202,-0.024 -0.5857743,-0.014 -1.0679564,0.4772 -1.0686186,1.0611 l -0.012788,11.8185 c -7.0187e-4,0.584 0.4791378,1.0654 1.0649165,1.0663 10.5923783,0.1097 10.4126853,0.017 11.8536773,0.021 0.585399,0.014 1.067886,-0.4769 1.068621,-1.0611 l 0.01278,-11.8185 c 4.81e-4,-0.4234 -0.247668,-0.7951 -0.613433,-0.9656 -0.01197,-4e-4 -0.02351,-0.014 -0.03565,-0.015 z"
       style="fill:url(#linearGradient3788);fill-opacity:1;stroke:none" />
    <path
       id="path3824"
       d="m 1.1239468,1037.9224 0,0.9228 13.7521062,0 0,-0.9228 z"
       style="opacity:0.15;fill:#000000;fill-opacity:1;stroke:none"
       inkscape:connector-curvature="0"
       sodipodi:nodetypes="ccccc" />
    <path
       style="fill:url(#linearGradient3845);fill-opacity:1;fill-rule:evenodd;stroke:#000000;stroke-width:0.24789365;stroke-miterlimit:4;stroke-opacity:0.17254902;stroke-dasharray:none"
       d="m 2.1983301,1036.4861 c -0.5754022,-0.014 -1.0737328,0.4791 -1.0743833,1.0635 l 0,0.8133 13.7521062,0 0,-0.7819 c 4.72e-4,-0.4238 -0.254645,-0.7991 -0.613934,-0.9697 -0.01176,-4e-4 -0.01877,-0.03 -0.0307,-0.031 -0.131713,-0.046 -0.25824,-0.062 -0.399057,-0.062 -3.880804,-0.014 -7.7532628,-0.022 -11.6340359,-0.031 z"
       id="path3042"
       inkscape:connector-curvature="0"
       sodipodi:nodetypes="cccccccccc" />
    <path
       style="opacity:0.5;fill:#ffffff;fill-opacity:1;stroke:none"
       d="m 2.1909208,1036.3609 c -0.5754021,-0.014 -1.0663235,0.4727 -1.066974,1.057 l 0,0.6343 c 6.505e-4,-0.5844 0.4915719,-1.0706 1.066974,-1.0571 3.8807731,0.01 7.7669966,-0.014 11.6478002,0 0.140816,0 0.253583,0.044 0.385296,0.091 0.01192,0 0.04751,0.03 0.05927,0.03 0.359288,0.1707 0.593235,0.5427 0.592763,0.9665 l 0,-0.6342 c 4.72e-4,-0.4239 -0.233475,-0.7958 -0.592763,-0.9665 -0.01176,-4e-4 -0.04736,0 -0.05927,0 -0.131713,-0.046 -0.24448,-0.09 -0.385296,-0.091 -3.8808036,-0.014 -7.7670271,-0.022 -11.6478002,-0.03 z"
       id="path3805"
       inkscape:connector-curvature="0" />
    <g
       id="g3914">
      <rect
         y="1045.3622"
         x="2"
         height="3"
         width="12"
         id="rect3015"
         style="fill:url(#linearGradient3904);fill-opacity:1;fill-rule:evenodd;stroke:#505050;stroke-width:0.2;stroke-miterlimit:4;stroke-opacity:1;stroke-dasharray:none" />
      <path
         id="rect3841"
         d="m 2,1045.3622 0,0.7188 12,0 0,-0.7188 -12,0 z"
         style="opacity:0.5;fill:url(#linearGradient3901);fill-opacity:1;fill-rule:evenodd;stroke:none"
         inkscape:connector-curvature="0" />
      <rect
         style="fill:url(#linearGradient3912);fill-opacity:1;fill-rule:evenodd;stroke:#505050;stroke-width:0.2;stroke-miterlimit:4;stroke-opacity:1;stroke-dasharray:none"
         id="rect3882"
         width="12"
         height="3"
         x="2"
         y="1040.3622" />
      <path
         style="opacity:0.5;fill:url(#linearGradient3891);fill-opacity:1;fill-rule:evenodd;stroke:none"
         d="m 2.1,1040.3625 0,0.7187 12,0 0,-0.7187 -12,0 z"
         id="path3884"
         inkscape:connector-curvature="0" />
    </g>
    <rect
       y="1045.3708"
       x="1.9652779"
       height="3.0260415"
       width="5.0694442"
       id="rect3922"
       style="fill:url(#linearGradient3948);fill-opacity:1;fill-rule:evenodd;stroke:#0030a0;stroke-width:0.13055585000000000;stroke-miterlimit:4;stroke-opacity:1;stroke-dasharray:none" />
    <path
       id="path3924"
       d="m 1.9652779,1045.3709 0,0.725 5.0694442,0 0,-0.725 -5.0694442,0 z"
       style="opacity:0.50000000000000000;fill:url(#linearGradient3945);fill-opacity:1;fill-rule:evenodd;stroke:none"
       inkscape:connector-curvature="0" />
    <rect
       style="fill:url(#linearGradient3942);fill-opacity:1;fill-rule:evenodd;stroke:#0030a0;stroke-width:0.16348362000000000;stroke-miterlimit:4;stroke-opacity:1;stroke-dasharray:none"
       id="rect3926"
       width="8.0365162"
       height="2.9931138"
       x="1.9817418"
       y="1040.344" />
    <path
       style="opacity:0.50000000000000000;fill:url(#linearGradient3939);fill-opacity:1;fill-rule:evenodd;stroke:none"
       d="m 2.0487128,1040.3443 0,0.717 8.0365162,0 0,-0.717 -8.0365162,0 z"
       id="path3928"
       inkscape:connector-curvature="0" />
  </g>
</svg>
