<?xml version="1.0" encoding="UTF-8" standalone="no"?>
<svg
   xmlns:dc="http://purl.org/dc/elements/1.1/"
   xmlns:cc="http://creativecommons.org/ns#"
   xmlns:rdf="http://www.w3.org/1999/02/22-rdf-syntax-ns#"
   xmlns:svg="http://www.w3.org/2000/svg"
   xmlns="http://www.w3.org/2000/svg"
   xmlns:xlink="http://www.w3.org/1999/xlink"
   xmlns:sodipodi="http://sodipodi.sourceforge.net/DTD/sodipodi-0.dtd"
   xmlns:inkscape="http://www.inkscape.org/namespaces/inkscape"
   height="16"
   id="Layer_1"
   inkscape:export-filename="D:\Hobby\QutIM\Images\q_outmsgok2.png"
   inkscape:export-xdpi="90"
   inkscape:export-ydpi="90"
   inkscape:version="0.48.4 r9939"
   sodipodi:docname="mail-message-new.svg"
   style="enable-background:new 0 0 595.28 841.89"
   version="1.1"
   viewBox="0 0 15.999999 16"
   width="16"
   xml:space="preserve"><metadata
   id="metadata30"><rdf:RDF><cc:Work
       rdf:about=""><dc:format>image/svg+xml</dc:format><dc:type
         rdf:resource="http://purl.org/dc/dcmitype/StillImage" /></cc:Work></rdf:RDF></metadata><defs
   id="defs31"><radialGradient
     cx="25.706499"
     cy="-306.87061"
     gradientTransform="matrix(.28038,-2.47538,-1.47033,-.10639,-451.57769,42.62509)"
     gradientUnits="userSpaceOnUse"
     id="radialGradient3976"
     r="4.7227998">
	<stop
   id="stop3978"
   offset="0"
   style="stop-color:#707070" />
	
	<stop
   id="stop3980"
   offset="1"
   style="stop-opacity:0;stop-color:#707070" />
</radialGradient><linearGradient
     inkscape:collect="always"
     xlink:href="#radialGradient3976"
     id="linearGradient3026"
     gradientUnits="userSpaceOnUse"
     gradientTransform="matrix(1.01578,0,0,-1.07412,-312.00904,-394.95776)"
     x1="315.7207"
     y1="-379.52151"
     x2="319.02151"
     y2="-379.52151" /><linearGradient
     inkscape:collect="always"
     xlink:href="#radialGradient3976"
     id="linearGradient3029"
     gradientUnits="userSpaceOnUse"
     gradientTransform="matrix(1.01578,0,0,-1.07412,-312.00904,-394.95776)"
     x1="308.14651"
     y1="-377.9277"
     x2="311.9473"
     y2="-377.9277" /><radialGradient
     inkscape:collect="always"
     xlink:href="#radialGradient3976"
     id="radialGradient3032"
     gradientUnits="userSpaceOnUse"
     gradientTransform="matrix(0.28177755,-2.58175,-1.4776262,-0.11096,-453.36973,44.06675)"
     cx="25.706499"
     cy="-306.87061"
     r="4.7227998" /><linearGradient
     id="linearGradient4794"><stop
       id="stop4796"
       offset="0"
       style="stop-color:#646464;stop-opacity:1;" /><stop
       id="stop4798"
       offset="1"
       style="stop-color:#969696;stop-opacity:1;" /></linearGradient><linearGradient
     id="linearGradient3827"><stop
       id="stop3829"
       offset="0"
       style="stop-color:#dbdbdb;stop-opacity:1" /><stop
       id="stop3831"
       offset="1"
       style="stop-color:#f5f5f5;stop-opacity:1" /></linearGradient><linearGradient
     inkscape:collect="always"
     xlink:href="#linearGradient3827"
     id="linearGradient3924"
     x1="8.999999"
     y1="15"
     x2="8.999999"
     y2="3"
     gradientUnits="userSpaceOnUse" /><linearGradient
     inkscape:collect="always"
     xlink:href="#linearGradient4794"
     id="linearGradient3932"
     x1="8.999999"
     y1="15"
     x2="8.999999"
     y2="3"
     gradientUnits="userSpaceOnUse" /><linearGradient
     id="linearGradient4091"><stop
       style="stop-color:#d5fff6;stop-opacity:1;"
       offset="0"
       id="stop4093" /><stop
       style="stop-color:#fff6d5;stop-opacity:0;"
       offset="1"
       id="stop4095" /></linearGradient><linearGradient
     id="linearGradient4085"><stop
       id="stop4087"
       offset="0"
       style="stop-color:#3b8c00;stop-opacity:1;" /><stop
       id="stop4089"
       offset="1"
       style="stop-color:#00ec16;stop-opacity:1;" /></linearGradient><linearGradient
     inkscape:collect="always"
     xlink:href="#linearGradient4091"
     id="linearGradient3039"
     gradientUnits="userSpaceOnUse"
     gradientTransform="matrix(-0.77591571,-0.77634832,0.79082559,-0.79126651,13.952808,27.167007)"
     x1="18.069223"
     y1="14.004032"
     x2="11.900706"
     y2="7.9518137" /><linearGradient
     inkscape:collect="always"
     xlink:href="#linearGradient4085"
     id="linearGradient3042"
     gradientUnits="userSpaceOnUse"
     gradientTransform="matrix(-0.7759157,-0.77634831,0.79082558,-0.7912665,13.951781,27.167006)"
     x1="11.888988"
     y1="7.9403172"
     x2="18.091633"
     y2="14.026019" /></defs><sodipodi:namedview
   id="namedview29"
   inkscape:current-layer="Layer_1"
   inkscape:cx="8.5324881"
   inkscape:cy="8.3803487"
   inkscape:pageopacity="0"
   inkscape:pageshadow="2"
   inkscape:window-height="692"
   inkscape:window-maximized="0"
   inkscape:window-width="1016"
   inkscape:window-x="399"
   inkscape:window-y="12"
   inkscape:zoom="39.4375"
   showgrid="true"><inkscape:grid
     id="grid3010"
     type="xygrid" /></sodipodi:namedview>








<rect
   height="12.000013"
   id="rect5314"
   inkscape:export-filename="D:\Hobby\QutIM\Images\th3.png"
   inkscape:export-xdpi="90"
   inkscape:export-ydpi="90"
   rx="1.0664759"
   style="opacity:0.07999998"
   width="16"
   x="-5e-007"
   y="4.00001" /><rect
   height="11.750012"
   id="rect5316"
   inkscape:export-filename="D:\Hobby\QutIM\Images\th3.png"
   inkscape:export-xdpi="90"
   inkscape:export-ydpi="90"
   rx="1.0561854"
   style="opacity:0.15"
   width="15.25"
   x="0.3999995"
   y="4.00001" /><rect
   height="11.4"
   id="rect5318"
   inkscape:export-filename="D:\Hobby\QutIM\Images\th3.png"
   inkscape:export-xdpi="90"
   inkscape:export-ydpi="90"
   rx="0.99982119"
   style="opacity:0.15"
   width="14.5"
   x="0.74999952"
   y="4" /><rect
   height="11.999998"
   id="rect3801"
   inkscape:export-filename="D:\Hobby\QutIM\Images\th3.png"
   inkscape:export-xdpi="90"
   inkscape:export-ydpi="90"
   rx="1"
   style="fill:url(#linearGradient3924);fill-opacity:1"
   width="13.99999"
   x="0.99999952"
   y="3" /><path
   d="M 2.5944063,4.000004 C 2.2699311,3.998904 2.00659,4.215901 2.0056493,4.485505 l -0.00565,1.054784 4.7373322,6.874354 c 0.2003285,0.293234 0.6489504,0.396348 1.0016403,0.228787 L 13.990517,9.6788651 14,8.2395468 8.1688569,11.003252 c -0.2840321,0.135337 -0.6395443,0.05369 -0.801312,-0.1826 L 2.6706029,4.000004 H 2.59442 z"
   id="path2995"
   inkscape:connector-curvature="0"
   inkscape:export-filename="D:\Hobby\QutIM\Images\th3.png"
   inkscape:export-xdpi="90"
   inkscape:export-ydpi="90"
   style="fill:url(#radialGradient3032)" /><path
   d="M 4.053437,9.5940095 1.010156,10.929138 0.999996,12.368456 4.860983,10.674571 4.053437,9.5940095 z"
   id="path3008"
   inkscape:connector-curvature="0"
   inkscape:export-filename="D:\Hobby\QutIM\Images\th3.png"
   inkscape:export-xdpi="90"
   inkscape:export-ydpi="90"
   style="opacity:0.51529996000000000;fill:url(#linearGradient3029);enable-background:new;fill-opacity:1.0" /><path
   d="m 10.103432,11.386713 -1.409904,0.616544 1.479993,1.988191 1.873102,0.0086 -1.943191,-2.613329 0,0 z"
   id="path3006"
   inkscape:connector-curvature="0"
   inkscape:export-filename="D:\Hobby\QutIM\Images\th3.png"
   inkscape:export-xdpi="90"
   inkscape:export-ydpi="90"
   style="opacity:0.51529996000000000;fill:url(#linearGradient3026);enable-background:new;fill-opacity:1.0" /><path
   d="m 1.9999995,3 c -0.554,0 -1,0.446 -1,1 l 0,10 c 0,0.554 0.446,1 1,1 L 14,15 c 0.554,0 1,-0.446 1,-1 L 15,4 C 15,3.446 14.554,3 14,3 z m 0.5,1 L 13.5,4 C 13.784681,4 14,4.215319 14,4.5 l 0,9 C 14,13.784681 13.784681,14 13.5,14 L 2.4999995,14 c -0.28468,0 -0.5,-0.215319 -0.5,-0.5 l 0,-9 c 0,-0.284681 0.21532,-0.5 0.5,-0.5 z"
   id="rect3025"
   inkscape:connector-curvature="0"
   inkscape:export-filename="D:\Hobby\QutIM\Images\th3.png"
   inkscape:export-xdpi="90"
   inkscape:export-ydpi="90"
   style="fill:url(#linearGradient3932);fill-opacity:1"
   sodipodi:nodetypes="ssssssssssssssssss" /><path
   inkscape:connector-curvature="0"
   id="path3349"
   d="m 9.097392,5.2421244 -3.0973925,0 0,3.8612301 3.0973925,0 0,3.0966475 3.856608,0 0,-3.0966475 3.046004,0 0,-3.8612301 -3.046004,0 0,-3.0477023 -3.856608,0 z"
   style="opacity:0.07999998;fill:#000000;fill-opacity:1;fill-rule:evenodd;stroke:none;display:inline"
   sodipodi:nodetypes="ccccccccccccc" /><path
   inkscape:connector-curvature="0"
   id="path3337"
   d="m 9.2751517,2.3942428 0,3.026196 -3.0966513,0 0,3.5030403 3.0966513,0 0,3.0973899 3.5001003,0 0,-3.0973899 3.046251,0 0,-3.5030403 -3.046251,0 0,-3.026196 -3.5001003,0 0,0 z"
   style="opacity:0.15;fill:#000000;fill-opacity:1;fill-rule:evenodd;stroke:none;display:inline"
   sodipodi:nodetypes="ccccccccccccccc" /><path
   inkscape:connector-curvature="0"
   id="path3751"
   d="m 6.4014718,8.6983252 3.0968983,0 0,3.0986238 3.0526739,0 0,-3.0986238 3.047488,0 0,-3.0543771 -3.047488,0 0,-3.0491855 -3.0526739,0 0,3.0491855 -3.0968983,0 z"
   style="opacity:0.3;fill:#000000;fill-opacity:1;fill-rule:evenodd;stroke:none;display:inline"
   sodipodi:nodetypes="ccccccccccccc" /><path
   inkscape:connector-curvature="0"
   style="opacity:0.5;fill:#ffffff;fill-opacity:1"
   d="m 1.9999995,3.0002501 c -0.554,0 -1,0.446 -1,1 l 0,0.46875 c 0,-0.554 0.446,-1 1,-1 l 12.0000005,0 c 0.554,0 1,0.446 1,1 l 0,-0.46875 c 0,-0.554 -0.446,-1 -1,-1 l -12.0000005,0 z m 0.65625,1.46875 4.71875,6.8124999 c 0.161768,0.23629 0.497218,0.322837 0.78125,0.1875 L 14,8.7190001 14,8.2502501 8.1562495,11.00025 c -0.284032,0.135337 -0.619482,0.04879 -0.78125,-0.1875 l -4.40625,-6.3437499 -0.3125,0 z m 1.40625,5.125 -2.0625,0.9062499 0,0.46875 2.0625,-0.90625 0.5625,0.75 0.25,-0.125 -0.8125,-1.0937499 z M 10.4375,11.844 l -0.25,0.125 1.84375,2.5 1.46875,0 c 0.284682,0 0.5,-0.215319 0.5,-0.5 l 0,-0.46875 c 0,0.284681 -0.215318,0.5 -0.5,0.5 l -1.46875,0 L 10.4375,11.844 z m -8.4375005,1.65625 0,0.46875 c 0,0.284681 0.21532,0.5 0.5,0.5 l 7.6875005,0 -0.3437505,-0.46875 -7.34375,0 c -0.28468,0 -0.5,-0.215319 -0.5,-0.5 z"
   id="path3072" /><path
   inkscape:connector-curvature="0"
   style="opacity:0.98999999;fill:url(#linearGradient3042);fill-opacity:1;fill-rule:evenodd;stroke:#00a000;stroke-width:0.21134469;stroke-miterlimit:4;stroke-opacity:1;stroke-dasharray:none;display:inline"
   d="m 9.4085473,11.520926 3.2314047,0 0,-3.0986051 3.048383,0 0,-3.2332055 -3.048383,0 0,-3.0500821 -3.2314047,0 0,3.0500821 -3.0968788,0 0,3.2332055 3.0968788,0 z"
   id="path7165"
   sodipodi:nodetypes="ccccccccccccc" /><path
   style="opacity:0.5;fill:url(#linearGradient3039);fill-opacity:1;fill-rule:evenodd;stroke:none;display:inline"
   d="m 12.644552,2.1390375 -3.235074,0 0,3.0499721 -3.0817601,0 0,0.5447489 3.0817601,0 0,-3.049972 3.235074,0 z m 3.057835,3.0499721 -3.057835,0 0,0.5447489 3.057835,0 z"
   id="path3077"
   inkscape:connector-curvature="0"
   sodipodi:nodetypes="cccccccccccccc" /></svg>