<?xml version="1.0" encoding="UTF-8" standalone="no"?>
<svg
   xmlns:dc="http://purl.org/dc/elements/1.1/"
   xmlns:cc="http://creativecommons.org/ns#"
   xmlns:rdf="http://www.w3.org/1999/02/22-rdf-syntax-ns#"
   xmlns:svg="http://www.w3.org/2000/svg"
   xmlns="http://www.w3.org/2000/svg"
   xmlns:xlink="http://www.w3.org/1999/xlink"
   xmlns:sodipodi="http://sodipodi.sourceforge.net/DTD/sodipodi-0.dtd"
   xmlns:inkscape="http://www.inkscape.org/namespaces/inkscape"
   height="16"
   id="Layer_1"
   inkscape:export-filename="D:\Hobby\QutIM\Images\q_outmsgok2.png"
   inkscape:export-xdpi="90"
   inkscape:export-ydpi="90"
   inkscape:version="0.48.4 r9939"
   sodipodi:docname="mail-send.svg"
   style="enable-background:new 0 0 595.28 841.89"
   version="1.1"
   viewBox="0 0 15.999999 16"
   width="16"
   xml:space="preserve"><metadata
   id="metadata30"><rdf:RDF><cc:Work
       rdf:about=""><dc:format>image/svg+xml</dc:format><dc:type
         rdf:resource="http://purl.org/dc/dcmitype/StillImage" /></cc:Work></rdf:RDF></metadata><defs
   id="defs31"><radialGradient
     cx="25.706499"
     cy="-306.87061"
     gradientTransform="matrix(.28038,-2.47538,-1.47033,-.10639,-451.57769,42.62509)"
     gradientUnits="userSpaceOnUse"
     id="radialGradient3976"
     r="4.7227998">
	<stop
   id="stop3978"
   offset="0"
   style="stop-color:#707070" />
	
	<stop
   id="stop3980"
   offset="1"
   style="stop-opacity:0;stop-color:#707070" />
</radialGradient><linearGradient
     inkscape:collect="always"
     xlink:href="#radialGradient3976"
     id="linearGradient3026"
     gradientUnits="userSpaceOnUse"
     gradientTransform="matrix(1.01578,0,0,-1.07412,-312.00904,-394.95776)"
     x1="315.7207"
     y1="-379.52151"
     x2="319.02151"
     y2="-379.52151" /><linearGradient
     inkscape:collect="always"
     xlink:href="#radialGradient3976"
     id="linearGradient3029"
     gradientUnits="userSpaceOnUse"
     gradientTransform="matrix(1.01578,0,0,-1.07412,-312.00904,-394.95776)"
     x1="308.14651"
     y1="-377.9277"
     x2="311.9473"
     y2="-377.9277" /><radialGradient
     inkscape:collect="always"
     xlink:href="#radialGradient3976"
     id="radialGradient3032"
     gradientUnits="userSpaceOnUse"
     gradientTransform="matrix(0.28177755,-2.58175,-1.4776262,-0.11096,-453.36973,44.06675)"
     cx="25.706499"
     cy="-306.87061"
     r="4.7227998" /><linearGradient
     id="linearGradient4794"><stop
       id="stop4796"
       offset="0"
       style="stop-color:#646464;stop-opacity:1;" /><stop
       id="stop4798"
       offset="1"
       style="stop-color:#969696;stop-opacity:1;" /></linearGradient><linearGradient
     id="linearGradient3827"><stop
       id="stop3829"
       offset="0"
       style="stop-color:#dbdbdb;stop-opacity:1" /><stop
       id="stop3831"
       offset="1"
       style="stop-color:#f5f5f5;stop-opacity:1" /></linearGradient><linearGradient
     inkscape:collect="always"
     xlink:href="#linearGradient3827"
     id="linearGradient3924"
     x1="8.999999"
     y1="15"
     x2="8.999999"
     y2="3"
     gradientUnits="userSpaceOnUse" /><linearGradient
     inkscape:collect="always"
     xlink:href="#linearGradient4794"
     id="linearGradient3932"
     x1="8.999999"
     y1="15"
     x2="8.999999"
     y2="3"
     gradientUnits="userSpaceOnUse" /><linearGradient
     y2="15"
     x2="8"
     y1="1"
     x1="8"
     gradientTransform="translate(-0.78125,1036.3622)"
     gradientUnits="userSpaceOnUse"
     id="linearGradient3039-1"
     xlink:href="#linearGradient3981"
     inkscape:collect="always" /><linearGradient
     y2="1044.3157"
     x2="14.918597"
     y1="1044.3157"
     x1="-0.011090625"
     gradientTransform="matrix(0,-0.93772894,0.93772894,0,-972.0607,1051.3518)"
     gradientUnits="userSpaceOnUse"
     id="linearGradient3037"
     xlink:href="#linearGradient4414"
     inkscape:collect="always" /><linearGradient
     id="linearGradient3981"><stop
       style="stop-color:#d5ebff;stop-opacity:1;"
       offset="0"
       id="stop3983" /><stop
       style="stop-color:#fff6d5;stop-opacity:0;"
       offset="1"
       id="stop3985" /></linearGradient><linearGradient
     id="linearGradient4414"><stop
       style="stop-color:#0069c8;stop-opacity:1;"
       offset="0"
       id="stop4416" /><stop
       style="stop-color:#55c4ff;stop-opacity:1;"
       offset="1"
       id="stop4418" /></linearGradient></defs><sodipodi:namedview
   id="namedview29"
   inkscape:current-layer="Layer_1"
   inkscape:cx="4.3106181"
   inkscape:cy="8.0760697"
   inkscape:pageopacity="0"
   inkscape:pageshadow="2"
   inkscape:window-height="848"
   inkscape:window-maximized="1"
   inkscape:window-width="1440"
   inkscape:window-x="-8"
   inkscape:window-y="-8"
   inkscape:zoom="39.4375"
   showgrid="true"><inkscape:grid
     id="grid3010"
     type="xygrid" /></sodipodi:namedview>








<rect
   height="12.000013"
   id="rect5314"
   inkscape:export-filename="D:\Hobby\QutIM\Images\th3.png"
   inkscape:export-xdpi="90"
   inkscape:export-ydpi="90"
   rx="1.0664759"
   style="opacity:0.07999998"
   width="16"
   x="-5e-007"
   y="4.00001" /><rect
   height="11.750012"
   id="rect5316"
   inkscape:export-filename="D:\Hobby\QutIM\Images\th3.png"
   inkscape:export-xdpi="90"
   inkscape:export-ydpi="90"
   rx="1.0561854"
   style="opacity:0.15"
   width="15.25"
   x="0.3999995"
   y="4.00001" /><rect
   height="11.4"
   id="rect5318"
   inkscape:export-filename="D:\Hobby\QutIM\Images\th3.png"
   inkscape:export-xdpi="90"
   inkscape:export-ydpi="90"
   rx="0.99982119"
   style="opacity:0.15"
   width="14.5"
   x="0.74999952"
   y="4" /><rect
   height="11.999998"
   id="rect3801"
   inkscape:export-filename="D:\Hobby\QutIM\Images\th3.png"
   inkscape:export-xdpi="90"
   inkscape:export-ydpi="90"
   rx="1"
   style="fill:url(#linearGradient3924);fill-opacity:1"
   width="13.99999"
   x="0.99999952"
   y="3" /><path
   d="M 2.5944063,4.000004 C 2.2699311,3.998904 2.00659,4.215901 2.0056493,4.485505 l -0.00565,1.054784 4.7373322,6.874354 c 0.2003285,0.293234 0.6489504,0.396348 1.0016403,0.228787 L 13.990517,9.6788651 14,8.2395468 8.1688569,11.003252 c -0.2840321,0.135337 -0.6395443,0.05369 -0.801312,-0.1826 L 2.6706029,4.000004 H 2.59442 z"
   id="path2995"
   inkscape:connector-curvature="0"
   inkscape:export-filename="D:\Hobby\QutIM\Images\th3.png"
   inkscape:export-xdpi="90"
   inkscape:export-ydpi="90"
   style="fill:url(#radialGradient3032)" /><path
   d="M 4.053437,9.5940095 1.010156,10.929138 0.999996,12.368456 4.860983,10.674571 4.053437,9.5940095 z"
   id="path3008"
   inkscape:connector-curvature="0"
   inkscape:export-filename="D:\Hobby\QutIM\Images\th3.png"
   inkscape:export-xdpi="90"
   inkscape:export-ydpi="90"
   style="opacity:0.51529996000000000;fill:url(#linearGradient3029);enable-background:new;fill-opacity:1.0" /><path
   d="m 10.103432,11.386713 -1.409904,0.616544 1.479993,1.988191 1.873102,0.0086 -1.943191,-2.613329 0,0 z"
   id="path3006"
   inkscape:connector-curvature="0"
   inkscape:export-filename="D:\Hobby\QutIM\Images\th3.png"
   inkscape:export-xdpi="90"
   inkscape:export-ydpi="90"
   style="opacity:0.51529996000000000;fill:url(#linearGradient3026);enable-background:new;fill-opacity:1.0" /><path
   d="m 1.9999995,3 c -0.554,0 -1,0.446 -1,1 l 0,10 c 0,0.554 0.446,1 1,1 L 14,15 c 0.554,0 1,-0.446 1,-1 L 15,4 C 15,3.446 14.554,3 14,3 z m 0.5,1 L 13.5,4 C 13.784681,4 14,4.215319 14,4.5 l 0,9 C 14,13.784681 13.784681,14 13.5,14 L 2.4999995,14 c -0.28468,0 -0.5,-0.215319 -0.5,-0.5 l 0,-9 c 0,-0.284681 0.21532,-0.5 0.5,-0.5 z"
   id="rect3025"
   inkscape:connector-curvature="0"
   inkscape:export-filename="D:\Hobby\QutIM\Images\th3.png"
   inkscape:export-xdpi="90"
   inkscape:export-ydpi="90"
   style="fill:url(#linearGradient3932);fill-opacity:1"
   sodipodi:nodetypes="ssssssssssssssssss" /><path
   style="fill:#ffffff;fill-opacity:1;opacity:0.5"
   d="M 2 3 C 1.446 3 1 3.446 1 4 L 1 4.46875 C 1 3.91475 1.446 3.46875 2 3.46875 L 14 3.46875 C 14.554 3.46875 15 3.91475 15 4.46875 L 15 4 C 15 3.446 14.554 3 14 3 L 2 3 z M 2.65625 4.46875 L 7.375 11.28125 C 7.5367677 11.51754 7.8722179 11.604087 8.15625 11.46875 L 14 8.71875 L 14 8.25 L 8.15625 11 C 7.8722179 11.135337 7.5367677 11.04879 7.375 10.8125 L 2.96875 4.46875 L 2.65625 4.46875 z M 4.0625 9.59375 L 2 10.5 L 2 10.96875 L 4.0625 10.0625 L 4.625 10.8125 L 4.875 10.6875 L 4.0625 9.59375 z M 10.4375 11.84375 L 10.1875 11.96875 L 12.03125 14.46875 L 13.5 14.46875 C 13.784681 14.46875 14 14.253431 14 13.96875 L 14 13.5 C 14 13.784681 13.784681 14 13.5 14 L 12.03125 14 L 10.4375 11.84375 z M 2 13.5 L 2 13.96875 C 2 14.253431 2.21532 14.46875 2.5 14.46875 L 10.1875 14.46875 L 9.84375 14 L 2.5 14 C 2.21532 14 2 13.784681 2 13.5 z "
   id="path3072" /><g
   transform="matrix(0.68559832,0,0,0.68559832,6.3224419,-710.01297)"
   id="layer1"
   inkscape:label="Layer 1"><g
     transform="translate(0,-0.7071)"
     id="g3030"><path
       style="font-size:medium;font-style:normal;font-variant:normal;font-weight:normal;font-stretch:normal;text-indent:0;text-align:start;text-decoration:none;line-height:normal;letter-spacing:normal;word-spacing:normal;text-transform:none;direction:ltr;block-progression:tb;writing-mode:lr-tb;text-anchor:start;baseline-shift:baseline;opacity:0.1;color:#000000;fill:#000000;fill-opacity:1;fill-rule:nonzero;stroke:none;stroke-width:1;marker:none;visibility:visible;display:inline;overflow:visible;enable-background:accumulate;font-family:Sans;-inkscape-font-specification:Sans"
       d="m 2.630409,1041.4979 0.3222272,0.3224 3.1572674,3.1572 -3.3406795,3.3407 -0.3223722,0.3224 0.3223827,0.3516 3.0769079,3.0476 0.3223979,0.3224 0.322372,-0.3224 6.7397926,-6.7399 0.322443,-0.3223 -0.322398,-0.3224 -6.5565082,-6.5565 -0.3222766,-0.3223 -0.3223226,0.3223 -3.0771586,3.0475 z"
       id="path3828"
       inkscape:connector-curvature="0"
       sodipodi:nodetypes="ccccccccccccccccc" /><path
       style="font-size:medium;font-style:normal;font-variant:normal;font-weight:normal;font-stretch:normal;text-indent:0;text-align:start;text-decoration:none;line-height:normal;letter-spacing:normal;word-spacing:normal;text-transform:none;direction:ltr;block-progression:tb;writing-mode:lr-tb;text-anchor:start;baseline-shift:baseline;opacity:0.15;color:#000000;fill:#000000;fill-opacity:1;fill-rule:nonzero;stroke:none;stroke-width:0.5;marker:none;visibility:visible;display:inline;overflow:visible;enable-background:accumulate;font-family:Sans;-inkscape-font-specification:Sans"
       d="m 2.9526935,1041.498 0.1759105,0.1465 3.3036347,3.333 -3.4869925,3.5167 -0.1760094,0.1463 0.1758454,0.1759 3.0476707,3.0476 0.1757747,0.1758 0.1758121,-0.1758 6.7107323,-6.7106 0.175691,-0.1759 -0.175724,-0.1758 -6.527286,-6.5272 -0.1757748,-0.1758 -0.1758122,0.1758 -3.04761,3.0476 z"
       id="path3836"
       inkscape:connector-curvature="0"
       sodipodi:nodetypes="ccccccccccccccccc" /><path
       sodipodi:nodetypes="ccccccc"
       inkscape:connector-curvature="0"
       id="path3814"
       d="m 3.2928278,1041.4914 3.4827665,3.4829 -3.6727709,3.6729 3.0605731,3.0607 6.7337805,-6.7336 -6.5437517,-6.5437 z"
       style="opacity:0.28999999;fill:#000000;fill-opacity:1;fill-rule:nonzero;stroke:none" /><path
       style="fill:url(#linearGradient3037);fill-opacity:1;fill-rule:nonzero;stroke:#0038a0;stroke-width:0.25;stroke-miterlimit:4;stroke-opacity:1;stroke-dasharray:none"
       d="m 3.2927923,1040.9791 3.4828372,3.483 -3.6728415,3.6729 3.0606938,3.0607 6.7337302,-6.7336 -6.543701,-6.5437 z"
       id="rect3010"
       inkscape:connector-curvature="0"
       sodipodi:nodetypes="ccccccc" /><path
       style="opacity:0.5;fill:url(#linearGradient3039-1);fill-opacity:1;fill-rule:nonzero;stroke:none"
       d="m 6.34375,1037.9247 -3.0625,3.0625 0.46875,0.4375 2.59375,-2.5937 6.09375,6.0937 0.46875,-0.4687 -6.5625,-6.5313 z m -0.03125,7 -3.21875,3.2188 0.4375,0.4687 3.25,-3.25 -0.46875,-0.4375 z"
       id="path3895"
       inkscape:connector-curvature="0" /></g></g></svg>