<?xml version="1.0" encoding="UTF-8" standalone="no"?>
<!-- Created with Inkscape (http://www.inkscape.org/) -->

<svg
   xmlns:dc="http://purl.org/dc/elements/1.1/"
   xmlns:cc="http://creativecommons.org/ns#"
   xmlns:rdf="http://www.w3.org/1999/02/22-rdf-syntax-ns#"
   xmlns:svg="http://www.w3.org/2000/svg"
   xmlns="http://www.w3.org/2000/svg"
   xmlns:xlink="http://www.w3.org/1999/xlink"
   xmlns:sodipodi="http://sodipodi.sourceforge.net/DTD/sodipodi-0.dtd"
   xmlns:inkscape="http://www.inkscape.org/namespaces/inkscape"
   width="16"
   height="16"
   id="svg3301"
   version="1.1"
   inkscape:version="0.48.4 r9939"
   sodipodi:docname="mail-signature-unknown.svg">
  <defs
     id="defs3303">
    <linearGradient
       id="linearGradient3827">
      <stop
         id="stop3829"
         offset="0"
         style="stop-color:#dbdbdb;stop-opacity:1" />
      <stop
         id="stop3831"
         offset="1"
         style="stop-color:#f5f5f5;stop-opacity:1" />
    </linearGradient>
    <linearGradient
       inkscape:collect="always"
       xlink:href="#linearGradient3827"
       id="linearGradient3788"
       gradientUnits="userSpaceOnUse"
       gradientTransform="matrix(1.0138955,0.46133418,-0.46236544,1.0116342,482.76263,-16.849919)"
       x1="5.2746978"
       y1="1038.7067"
       x2="10.457751"
       y2="1050.0723" />
    <linearGradient
       inkscape:collect="always"
       xlink:href="#linearGradient3827"
       id="linearGradient3845"
       x1="8"
       y1="1040.3622"
       x2="8"
       y2="1035.3622"
       gradientUnits="userSpaceOnUse" />
    <linearGradient
       gradientUnits="userSpaceOnUse"
       y2="-1.1619365"
       x2="3.2429624"
       y1="7.1086192"
       x1="6.9746933"
       id="linearGradient3786"
       xlink:href="#linearGradient4108"
       inkscape:collect="always" />
    <linearGradient
       id="linearGradient3827-1">
      <stop
         id="stop3829-7"
         offset="0"
         style="stop-color:#dbdbdb;stop-opacity:1" />
      <stop
         id="stop3831-4"
         offset="1"
         style="stop-color:#f5f5f5;stop-opacity:1" />
    </linearGradient>
    <linearGradient
       id="linearGradient4108">
      <stop
         style="stop-color:#e66c00;stop-opacity:1;"
         offset="0"
         id="stop4110" />
      <stop
         style="stop-color:#ffe991;stop-opacity:1;"
         offset="1"
         id="stop4112" />
    </linearGradient>
    <linearGradient
       id="linearGradient4148">
      <stop
         id="stop4150"
         offset="0"
         style="stop-color:#fffad5;stop-opacity:1;" />
      <stop
         id="stop4152"
         offset="1"
         style="stop-color:#fff6d5;stop-opacity:0;" />
    </linearGradient>
    <linearGradient
       inkscape:collect="always"
       xlink:href="#linearGradient3827-1"
       id="linearGradient3060"
       gradientUnits="userSpaceOnUse"
       x1="8"
       y1="13"
       x2="8"
       y2="5"
       gradientTransform="matrix(0.625,0,0,0.625,4.6529315,1040.0427)" />
    <linearGradient
       inkscape:collect="always"
       xlink:href="#linearGradient4148"
       id="linearGradient3064"
       gradientUnits="userSpaceOnUse"
       x1="8"
       y1="1"
       x2="8"
       y2="14"
       gradientTransform="matrix(0.625,0,0,0.625,4.6529315,1040.0427)" />
  </defs>
  <sodipodi:namedview
     id="base"
     pagecolor="#ffffff"
     bordercolor="#666666"
     borderopacity="1.0"
     inkscape:pageopacity="0.0"
     inkscape:pageshadow="2"
     inkscape:zoom="39.4375"
     inkscape:cx="8"
     inkscape:cy="8"
     inkscape:document-units="px"
     inkscape:current-layer="layer1"
     showgrid="true"
     inkscape:window-width="1440"
     inkscape:window-height="848"
     inkscape:window-x="-8"
     inkscape:window-y="-8"
     inkscape:window-maximized="1">
    <inkscape:grid
       type="xygrid"
       id="grid3219"
       empspacing="5"
       visible="true"
       enabled="true"
       snapvisiblegridlinesonly="true" />
  </sodipodi:namedview>
  <metadata
     id="metadata3306">
    <rdf:RDF>
      <cc:Work
         rdf:about="">
        <dc:format>image/svg+xml</dc:format>
        <dc:type
           rdf:resource="http://purl.org/dc/dcmitype/StillImage" />
        <dc:title />
      </cc:Work>
    </rdf:RDF>
  </metadata>
  <g
     inkscape:label="Layer 1"
     inkscape:groupmode="layer"
     id="layer1"
     transform="translate(0,-1036.3622)">
    <path
       style="font-size:medium;font-style:normal;font-variant:normal;font-weight:normal;font-stretch:normal;text-indent:0;text-align:start;text-decoration:none;line-height:normal;letter-spacing:normal;word-spacing:normal;text-transform:none;direction:ltr;block-progression:tb;writing-mode:lr-tb;text-anchor:start;baseline-shift:baseline;opacity:0.08;color:#000000;fill:#000000;fill-opacity:1;fill-rule:nonzero;stroke:none;stroke-width:1;marker:none;visibility:visible;display:inline;overflow:visible;enable-background:accumulate;font-family:Sans;-inkscape-font-specification:Sans"
       d="m 1.7692296,1036.3668 c -0.96828404,-0.021 -1.76814594,0.777 -1.7692283412433,1.7317 l 0,12.4695 C -0.00114174,1051.5222 0.77627876,1052.2982 1.7307681,1052.2999 c 11.1778579,0.1157 11.0059349,0.034 12.4999819,0.038 0.967958,0.021 1.768028,-0.7767 1.769229,-1.732 l 0,-12.5079 c 0.0023,-0.5477 -0.182351,-1.0101 -0.538461,-1.3084 -0.35611,-0.2982 -0.809058,-0.4065 -1.192306,-0.4233 -4.168918,-0.014 -8.332916,0.013 -12.4999824,0 z"
       id="path3803"
       inkscape:connector-curvature="0" />
    <path
       style="font-size:medium;font-style:normal;font-variant:normal;font-weight:normal;font-stretch:normal;text-indent:0;text-align:start;text-decoration:none;line-height:normal;letter-spacing:normal;word-spacing:normal;text-transform:none;direction:ltr;block-progression:tb;writing-mode:lr-tb;text-anchor:start;baseline-shift:baseline;opacity:0.1;color:#000000;fill:#000000;fill-opacity:1;fill-rule:nonzero;stroke:none;stroke-width:0.50000000000000000;marker:none;visibility:visible;display:inline;overflow:visible;enable-background:accumulate;font-family:Sans;-inkscape-font-specification:Sans"
       d="m 1.7692296,1036.6744 c -0.79312144,-0.017 -1.46064594,0.6385 -1.46153644,1.424 l 0,12.4697 c -9.432e-4,0.7853 0.6368484,1.4228 1.42307494,1.4242 11.1761099,0.1156 10.9928779,0.034 12.4999819,0.038 0.792762,0.017 1.460549,-0.6382 1.461536,-1.4243 l 0,-12.5081 c 0.0021,-0.4859 -0.14288,-0.843 -0.423075,-1.0777 -0.280195,-0.2345 -0.653795,-0.331 -0.999999,-0.3463 -4.168373,-0.014 -8.3325525,0.013 -12.4999824,0 z"
       id="path3799"
       inkscape:connector-curvature="0" />
    <path
       sodipodi:nodetypes="cccccccccccc"
       inkscape:connector-curvature="0"
       id="path3005"
       d="m 14.699955,1037.0912 c -0.141455,-0.049 -0.288566,-0.086 -0.439797,-0.087 -4.167827,-0.014 -8.3361549,-0.016 -12.5039484,-0.026 -0.6179588,-0.014 -1.12663354,0.5034 -1.12733214,1.1192 l -0.013491,12.468 c -7.404e-4,0.616 0.50546324,1.1238 1.12342664,1.1249 11.1743599,0.1157 10.9847939,0.018 12.5049579,0.022 0.617563,0.014 1.12656,-0.5032 1.127335,-1.1194 l 0.01349,-12.4678 c 5.07e-4,-0.4466 -0.261276,-0.8387 -0.647138,-1.0187 -0.01263,-4e-4 -0.0248,-0.014 -0.0376,-0.016 z"
       style="opacity:0.15;fill:#000000;fill-opacity:1;stroke:none" />
    <path
       style="opacity:0.3;fill:#000000;fill-opacity:1;stroke:none"
       d="m 14.351019,1037.2185 c -0.134087,-0.046 -0.273537,-0.081 -0.416891,-0.082 -3.9507589,-0.014 -7.9019928,-0.015 -11.8527202,-0.024 -0.5857743,-0.014 -1.0679564,0.4772 -1.0686186,1.0611 l -0.012788,11.8185 c -7.0187e-4,0.584 0.4791378,1.0654 1.0649165,1.0663 10.5923793,0.1097 10.4126853,0.017 11.8536773,0.021 0.585399,0.014 1.067886,-0.4769 1.068621,-1.0611 l 0.01278,-11.8185 c 4.81e-4,-0.4234 -0.247668,-0.7951 -0.613434,-0.9656 -0.01197,-4e-4 -0.02351,-0.014 -0.03565,-0.015 z"
       id="path3764"
       inkscape:connector-curvature="0"
       sodipodi:nodetypes="cccccccccccc" />
    <path
       sodipodi:nodetypes="cccccccccccc"
       inkscape:connector-curvature="0"
       id="path3786"
       d="m 14.351019,1036.4685 c -0.134087,-0.046 -0.273536,-0.081 -0.416891,-0.082 -3.9507586,-0.014 -7.9019926,-0.015 -11.8527202,-0.024 -0.5857743,-0.014 -1.0679564,0.4772 -1.0686186,1.0611 l -0.012788,11.8185 c -7.0187e-4,0.584 0.4791378,1.0654 1.0649165,1.0663 10.5923783,0.1097 10.4126853,0.017 11.8536773,0.021 0.585399,0.014 1.067886,-0.4769 1.068621,-1.0611 l 0.01278,-11.8185 c 4.81e-4,-0.4234 -0.247668,-0.7951 -0.613433,-0.9656 -0.01197,-4e-4 -0.02351,-0.014 -0.03565,-0.015 z"
       style="fill:url(#linearGradient3788);fill-opacity:1;stroke:none" />
    <path
       id="path3824"
       d="m 1,1037.9221 0,0.9219 14,0 0,-0.9219 z"
       style="opacity:0.15;fill:#000000;fill-opacity:1;stroke:none"
       inkscape:connector-curvature="0"
       sodipodi:nodetypes="ccccc" />
    <path
       style="fill:url(#linearGradient3845);fill-opacity:1;fill-rule:evenodd;stroke:#000000;stroke-width:0.25;stroke-miterlimit:4;stroke-opacity:0.17254902;stroke-dasharray:none"
       d="m 2.09375,1036.4872 c -0.5857743,-0.014 -1.0930878,0.4786 -1.09375,1.0625 l 0,0.8125 14,0 0,-0.7812 c 4.81e-4,-0.4234 -0.259235,-0.7983 -0.625,-0.9688 -0.01197,-4e-4 -0.01911,-0.03 -0.03125,-0.031 -0.134087,-0.046 -0.262895,-0.062 -0.40625,-0.062 -3.9507586,-0.014 -7.8930224,-0.022 -11.84375,-0.031 z"
       id="path3042"
       inkscape:connector-curvature="0"
       sodipodi:nodetypes="cccccccccc" />
    <path
       style="opacity:0.50000000000000000;fill:#ffffff;fill-opacity:1;stroke:none"
       d="m 2.0862072,1036.3621 c -0.5857743,-0.014 -1.085545,0.4722 -1.0862072,1.056 l 0,0.6337 c 6.622e-4,-0.5839 0.5004329,-1.0696 1.0862072,-1.0561 3.9507276,0.01 7.9070037,-0.014 11.8577628,0 0.143354,0 0.258154,0.044 0.392241,0.091 0.01214,0 0.04837,0.03 0.06034,0.03 0.365765,0.1705 0.603929,0.5421 0.603448,0.9655 l 0,-0.6336 c 4.81e-4,-0.4235 -0.237683,-0.795 -0.603448,-0.9655 -0.01197,-4e-4 -0.04821,0 -0.06034,0 -0.134087,-0.046 -0.248887,-0.09 -0.392241,-0.091 -3.9507591,-0.014 -7.9070352,-0.022 -11.8577628,-0.03 z"
       id="path3805"
       inkscape:connector-curvature="0" />
    <path
       style="opacity:0.07999998;fill:#505050;fill-opacity:1;fill-rule:evenodd;stroke:none"
       d="m 2,3 0,1 12,0 0,-1 z m 0,2 0,1 12,0 0,-1 z m 0,2 0,1 12,0 0,-1 z m 0,2 0,1 12,0 0,-1 z m 0,2 0,1 12,0 0,-1 z"
       id="rect3781"
       inkscape:connector-curvature="0"
       sodipodi:nodetypes="ccccccccccccccccccccccccc"
       transform="translate(0,1036.3622)" />
    <path
       style="font-size:medium;font-style:normal;font-variant:normal;font-weight:normal;font-stretch:normal;text-indent:0;text-align:start;text-decoration:none;line-height:normal;letter-spacing:normal;word-spacing:normal;text-transform:none;direction:ltr;block-progression:tb;writing-mode:lr-tb;text-anchor:start;baseline-shift:baseline;opacity:0;color:#000000;fill:#000000;fill-opacity:1;fill-rule:nonzero;stroke:none;stroke-width:0.30000001;marker:none;visibility:visible;display:inline;overflow:visible;enable-background:accumulate;font-family:Sans;-inkscape-font-specification:Sans"
       d="m 32.522732,1035.4227 0,0.3437 0,2.875 -4.40625,0 -0.15625,0 0,0.1563 0,5.9687 0,0.1563 0.15625,0 4.40625,0 0,2.8437 0,0.375 0.25,-0.25 5.9375,-6 0.125,-0.125 -0.125,-0.094 -5.875,-5.9063 -0.0625,-0.094 -0.25,-0.25 z m 0.3125,0.7187 5.59375,5.6563 -5.59375,5.625 0,-2.6563 0,-0.1562 -0.15625,0 -4.40625,0 0,-5.6562 4.40625,0 0.15625,0 0,-0.1563 0,-2.6563 z m -6.125,8.2813 -0.25,0.25 -0.0625,0.094 -5.875,5.9063 -0.125,0.094 0.125,0.125 5.9375,6 0.25,0.25 0,-0.375 0,-2.8437 4.40625,0 0.15625,0 0,-0.1563 0,-5.9687 0,-0.1563 -0.15625,0 -4.40625,0 0,-2.875 0,-0.3437 z m -0.3125,0.7187 0,2.6563 0,0.1563 0.15625,0 4.40625,0 0,5.6562 -4.40625,0 -0.15625,0 0,0.1562 0,2.6563 -5.59375,-5.625 5.59375,-5.6563 z"
       id="path3815"
       inkscape:connector-curvature="0" />
    <path
       inkscape:transform-center-y="-2.40133"
       inkscape:transform-center-x="3.2250966"
       transform="matrix(0.81622706,0.36828719,-0.36828719,0.81622706,6.6033682,1040.9743)"
       d="M 6.9760379,7.1020603 C 6.5326628,7.3063984 2.7907225,9.0633924 2.392073,8.7815874 1.9934236,8.4997824 2.4014818,4.3860697 2.4462074,3.8999267 2.490933,3.4137837 2.8403017,-0.70532876 3.2836767,-0.90966683 3.7270517,-1.1140049 7.0856023,1.2962403 7.4842517,1.5780453 7.8829012,1.8598503 11.275473,4.2219687 11.230747,4.7081118 11.186022,5.1942548 7.4194129,6.8977223 6.9760379,7.1020603 z"
       inkscape:randomized="0"
       inkscape:rounded="0.1"
       inkscape:flatsided="false"
       sodipodi:arg2="2.1861377"
       sodipodi:arg1="1.1389401"
       sodipodi:r2="5.6188779"
       sodipodi:r1="3.2027605"
       sodipodi:cy="4.1933441"
       sodipodi:cx="5.635499"
       sodipodi:sides="3"
       id="path3810"
       style="opacity:0.15;fill:#000000;fill-opacity:1;fill-rule:evenodd;stroke:none"
       sodipodi:type="star" />
    <path
       sodipodi:type="star"
       style="fill:url(#linearGradient3786);fill-opacity:1;fill-rule:evenodd;stroke:#a07200;stroke-width:0.17448986;stroke-miterlimit:4;stroke-opacity:1;stroke-dasharray:none"
       id="path3010"
       sodipodi:sides="3"
       sodipodi:cx="5.635499"
       sodipodi:cy="4.1933441"
       sodipodi:r1="3.2027605"
       sodipodi:r2="5.6188779"
       sodipodi:arg1="1.1389401"
       sodipodi:arg2="2.1861377"
       inkscape:flatsided="false"
       inkscape:rounded="0.1"
       inkscape:randomized="0"
       d="M 6.9760379,7.1020603 C 6.5326628,7.3063984 2.7907225,9.0633924 2.392073,8.7815874 1.9934236,8.4997824 2.4014818,4.3860697 2.4462074,3.8999267 2.490933,3.4137837 2.8403017,-0.70532876 3.2836767,-0.90966683 3.7270517,-1.1140049 7.0856023,1.2962403 7.4842517,1.5780453 7.8829012,1.8598503 11.275473,4.2219687 11.230747,4.7081118 11.186022,5.1942548 7.4194129,6.8977223 6.9760379,7.1020603 z"
       transform="matrix(0.81622706,0.36828719,-0.36828719,0.81622706,6.5780116,1040.4218)"
       inkscape:transform-center-x="3.2250966"
       inkscape:transform-center-y="-2.40133" />
    <path
       inkscape:connector-curvature="0"
       style="opacity:0.5;fill:url(#linearGradient3064);fill-opacity:1;fill-rule:evenodd;stroke:none"
       d="m 9.5943378,1040.8825 c -0.4371498,0 -2.245391,3.2525 -2.4609376,3.6329 -0.2155465,0.3803 -2.0575407,3.588 -1.8359375,3.9648 0.028823,0.049 0.1221847,0.082 0.2539063,0.1172 0.4794136,-1.0961 1.4306643,-2.7407 1.5820312,-3.0078 0.2155466,-0.3804 2.0237878,-3.6098 2.4609376,-3.6133 0.4371502,-0 2.2979282,3.1974 2.5195312,3.5742 0.155334,0.2642 1.123341,1.8804 1.621094,2.9688 0.139533,-0.039 0.244342,-0.066 0.273437,-0.1172 0.215547,-0.3804 -1.672928,-3.5685 -1.894531,-3.9453 -0.221603,-0.3769 -2.082381,-3.5778 -2.5195312,-3.5743 z"
       id="path3788" />
    <path
       id="path3829"
       d="m 9.0279315,1043.4227 0,0.625 c 0,0.7003 0.028139,0.679 0.078125,1.25 0.049984,0.5709 0.1007394,0.6832 0.1757813,1.25 l 0.7421872,0 c 0.07504,-0.5668 0.125795,-0.6791 0.175782,-1.25 0.04998,-0.571 0.07813,-0.5497 0.07813,-1.25 l 0,-0.625 -1.2500005,0 z m 0.625,3.75 c -0.1928636,0 -0.3373177,0.071 -0.4492187,0.1953 -0.1119031,0.1244 -0.175782,0.2617 -0.1757813,0.4297 -7e-7,0.1677 0.063878,0.3052 0.1757813,0.4297 0.111901,0.1241 0.2563551,0.1953 0.4492187,0.1953 0.1928612,0 0.3373151,-0.071 0.4492185,-0.1953 0.1119,-0.1245 0.17578,-0.262 0.175782,-0.4297 -2e-6,-0.168 -0.06388,-0.3053 -0.175782,-0.4297 -0.1119034,-0.1241 -0.2563573,-0.1953 -0.4492185,-0.1953 z"
       style="font-size:14.92847347px;font-style:normal;font-variant:normal;font-weight:normal;font-stretch:normal;line-height:125%;letter-spacing:0px;word-spacing:0px;opacity:0.3;fill:#000000;fill-opacity:1;stroke:none;font-family:Ubuntu;-inkscape-font-specification:Ubuntu"
       inkscape:connector-curvature="0" />
    <path
       inkscape:connector-curvature="0"
       style="font-size:14.92847347px;font-style:normal;font-variant:normal;font-weight:normal;font-stretch:normal;line-height:125%;letter-spacing:0px;word-spacing:0px;fill:url(#linearGradient3060);fill-opacity:1;stroke:none;font-family:Ubuntu;-inkscape-font-specification:Ubuntu"
       d="m 9.0279315,1043.1677 0,0.625 c 0,0.7003 0.028139,0.6791 0.078125,1.25 0.049984,0.5709 0.1007394,0.6833 0.1757813,1.25 l 0.7421872,0 c 0.07504,-0.5668 0.125795,-0.6791 0.175782,-1.25 0.04998,-0.5709 0.07813,-0.5497 0.07813,-1.25 l 0,-0.625 -1.2500005,0 z m 0.625,3.75 c -0.1928636,0 -0.3373177,0.071 -0.4492187,0.1953 -0.1119031,0.1245 -0.175782,0.2617 -0.1757813,0.4297 -7e-7,0.1678 0.063878,0.3052 0.1757813,0.4297 0.111901,0.1242 0.2563551,0.1953 0.4492187,0.1953 0.1928612,0 0.3373151,-0.071 0.4492185,-0.1953 0.1119,-0.1245 0.17578,-0.2619 0.175782,-0.4297 -2e-6,-0.168 -0.06388,-0.3052 -0.175782,-0.4297 -0.1119034,-0.1241 -0.2563573,-0.1953 -0.4492185,-0.1953 z"
       id="path3826" />
    <path
       inkscape:connector-curvature="0"
       style="font-size:14.92847347px;font-style:normal;font-variant:normal;font-weight:normal;font-stretch:normal;line-height:125%;letter-spacing:0px;word-spacing:0px;opacity:0.5;fill:#ffffff;fill-opacity:1;stroke:none;font-family:Ubuntu;-inkscape-font-specification:Ubuntu"
       d="m 9.0279315,1043.1677 0,0.4688 1.2500005,0 0,-0.4688 -1.2500005,0 z m 0.625,3.75 c -0.1928636,0 -0.3373177,0.071 -0.4492187,0.1953 -0.1119031,0.1245 -0.175782,0.2617 -0.1757813,0.4297 -4e-7,0.084 0.0091,0.1635 0.039063,0.2344 0.029958,-0.071 0.080767,-0.1331 0.1367188,-0.1953 0.111901,-0.1244 0.2563551,-0.1953 0.4492187,-0.1953 0.1928612,0 0.3373151,0.071 0.4492185,0.1953 0.05595,0.062 0.106761,0.1244 0.136719,0.1953 0.02996,-0.071 0.03906,-0.1505 0.03906,-0.2344 -2e-6,-0.168 -0.06388,-0.3052 -0.175782,-0.4297 -0.1119034,-0.1241 -0.2563573,-0.1953 -0.4492185,-0.1953 z"
       id="path3831" />
  </g>
</svg>
