<?xml version="1.0" encoding="UTF-8" standalone="no"?>
<svg
   xmlns:dc="http://purl.org/dc/elements/1.1/"
   xmlns:cc="http://creativecommons.org/ns#"
   xmlns:rdf="http://www.w3.org/1999/02/22-rdf-syntax-ns#"
   xmlns:svg="http://www.w3.org/2000/svg"
   xmlns="http://www.w3.org/2000/svg"
   xmlns:xlink="http://www.w3.org/1999/xlink"
   xmlns:sodipodi="http://sodipodi.sourceforge.net/DTD/sodipodi-0.dtd"
   xmlns:inkscape="http://www.inkscape.org/namespaces/inkscape"
   height="16"
   id="svg3301"
   inkscape:version="0.48.4 r9939"
   sodipodi:docname="mail-send.svg"
   width="16"
   version="1.1">
  <metadata
     id="metadata20">
    <rdf:RDF>
      <cc:Work
         rdf:about="">
        <dc:format>image/svg+xml</dc:format>
        <dc:type
           rdf:resource="http://purl.org/dc/dcmitype/StillImage" />
      </cc:Work>
    </rdf:RDF>
  </metadata>
  <defs
     id="defs3303">
    <linearGradient
       id="linearGradient3772">
      <stop
         id="stop3774"
         offset="0"
         style="stop-color:#656565" />
      <stop
         id="stop3780"
         offset="0.68615735"
         style="stop-opacity:0.9955157;stop-color:#aaa" />
      <stop
         id="stop3776"
         offset="1"
         style="stop-opacity:0;stop-color:#656565" />
    </linearGradient>
    <linearGradient
       gradientUnits="userSpaceOnUse"
       id="linearGradient4286"
       inkscape:collect="always"
       x1="60.9375"
       x2="100.71875"
       xlink:href="#linearGradient3772"
       y1="950.92468"
       y2="950.92468" />
    <linearGradient
       gradientUnits="userSpaceOnUse"
       id="linearGradient4288"
       inkscape:collect="always"
       x1="140.21875"
       x2="174.78125"
       xlink:href="#linearGradient3772"
       y1="973.89337"
       y2="973.89337" />
    <radialGradient
       cx="123.4697"
       cy="966.73462"
       fx="123.4697"
       fy="966.73462"
       gradientTransform="matrix(0.22178,-2.4499,1.16317,0.1053,-1031.3099,1161.9436)"
       gradientUnits="userSpaceOnUse"
       id="radialGradient4284"
       inkscape:collect="always"
       r="66.781227"
       xlink:href="#linearGradient3772" />
    <radialGradient
       inkscape:collect="always"
       xlink:href="#linearGradient3772"
       id="radialGradient3009"
       gradientUnits="userSpaceOnUse"
       gradientTransform="matrix(0.22178,-2.4499,1.16317,0.1053,-1031.3099,1161.9436)"
       cx="123.4697"
       cy="966.73462"
       fx="123.4697"
       fy="966.73462"
       r="66.781227" />
    <linearGradient
       inkscape:collect="always"
       xlink:href="#linearGradient3772"
       id="linearGradient3011"
       gradientUnits="userSpaceOnUse"
       x1="60.9375"
       y1="950.92468"
       x2="100.71875"
       y2="950.92468" />
    <linearGradient
       inkscape:collect="always"
       xlink:href="#linearGradient3772"
       id="linearGradient3013"
       gradientUnits="userSpaceOnUse"
       x1="140.21875"
       y1="973.89337"
       x2="174.78125"
       y2="973.89337" />
    <radialGradient
       inkscape:collect="always"
       xlink:href="#linearGradient3772"
       id="radialGradient3021"
       gradientUnits="userSpaceOnUse"
       gradientTransform="matrix(0.22178,-2.4499,1.16317,0.1053,-1031.3099,1161.9436)"
       cx="123.4697"
       cy="966.73462"
       fx="123.4697"
       fy="966.73462"
       r="66.781227" />
    <linearGradient
       inkscape:collect="always"
       xlink:href="#linearGradient3772"
       id="linearGradient3023"
       gradientUnits="userSpaceOnUse"
       x1="60.9375"
       y1="950.92468"
       x2="100.71875"
       y2="950.92468" />
    <linearGradient
       inkscape:collect="always"
       xlink:href="#linearGradient3772"
       id="linearGradient3025"
       gradientUnits="userSpaceOnUse"
       x1="140.21875"
       y1="973.89337"
       x2="174.78125"
       y2="973.89337" />
  </defs>
  <sodipodi:namedview
     id="base"
     inkscape:current-layer="layer1"
     inkscape:cx="8.5578447"
     inkscape:cy="7.5924279"
     inkscape:document-units="px"
     inkscape:guide-bbox="true"
     inkscape:pageopacity="0"
     inkscape:pageshadow="2"
     inkscape:window-height="848"
     inkscape:window-maximized="1"
     inkscape:window-width="1440"
     inkscape:window-x="-8"
     inkscape:window-y="-8"
     inkscape:zoom="39.4375"
     showgrid="true">
    <inkscape:grid
       type="xygrid"
       id="grid3007"
       empspacing="5"
       visible="true"
       enabled="true"
       snapvisiblegridlinesonly="true" />
  </sodipodi:namedview>
  <g
     id="layer1"
     inkscape:groupmode="layer"
     inkscape:label="Layer 1"
     transform="translate(0,-1036.3622)">
    <path
       d="m 10.382803,1041.634 c -0.0082,0 -0.01639,-0.01 -0.02468,-0.011 -0.09004,-0.037 -0.18651,-0.057 -0.285131,-0.057 -2.7127681,0 -5.4255348,0 -8.1383026,-0.01 -0.4022423,0 -0.7330077,0.3295 -0.7333137,0.7316 l -0.00613,8.1357 c -3.005e-4,0.4019 0.3293149,0.7326 0.7315125,0.733 l 8.1384578,0.01 c 0.402061,0 0.732998,-0.3295 0.733298,-0.7316 l 0.0063,-8.136 c 1.69e-4,-0.2914 -0.170838,-0.5473 -0.421999,-0.6646 z"
       id="path4319"
       inkscape:connector-curvature="0"
       sodipodi:nodetypes="ccccssccccc"
       style="fill:#e6e6e6;stroke-width:30;font-family:Sans" />
    <path
       d="m 10.702361,1041.41 c -0.05776,-0.027 -0.123132,-0.038 -0.190711,-0.037 l -9.0155853,-0.01 c -0.2707305,9e-4 -0.4890706,0.2178 -0.4892946,0.4883 l -0.00677,9.0119 c -1.8368e-4,0.2706 0.2175102,0.4888 0.4882266,0.489 l 9.0157663,0.01 c 0.270729,-9e-4 0.488912,-0.2174 0.489094,-0.488 l 0.0069,-9.0127 c 1.52e-4,-0.203 -0.122265,-0.3767 -0.297714,-0.4506 z m -0.9404707,0.9904 c 0.1408105,0.058 0.2382047,0.1983 0.2380864,0.3606 l -0.0054,7.2102 c -1.5e-4,0.2165 -0.1747472,0.3903 -0.3913365,0.3902 l -7.2126885,-0.01 c -0.2165714,-2e-4 -0.3916036,-0.1725 -0.3903429,-0.3914 l 0.0054,-7.2101 c 1.707e-4,-0.2165 0.174767,-0.3903 0.3913563,-0.3902 l 7.2126876,0.01 c 0.053986,4e-4 0.1056117,0.011 0.1522192,0.032 z"
       id="path4321"
       inkscape:connector-curvature="0"
       inkscape:export-filename="C:\Users\Madnester\Desktop\Sketches\256.png"
       inkscape:export-xdpi="23.039482"
       inkscape:export-ydpi="23.039482"
       style="fill:#656565" />
    <g
       id="g4279"
       transform="matrix(0.05979268,-2.1922542e-4,2.1927883e-4,0.05977812,-1.8514507,991.13482)">
      <path
         d="m 67.96875,857.26843 c -3.622281,-0.0165 -6.54636,2.87827 -6.5625,6.5 l -0.0625,14.15625 52.71875,92.25 c 2.24659,3.9312 7.22671,5.3085 11.15625,3.0625 l 69.59375,-39.78125 0.0937,-19.3125 L 130,951.23718 c -3.14379,1.7968 -7.10938,0.7077 -8.90625,-2.4375 l -52.28125,-91.53125 -0.84375,0 z"
         id="path2995"
         inkscape:connector-curvature="0"
         style="fill:url(#radialGradient4284)" />
      <path
         d="m 92.40625,932.29968 -31.375,17.9375 -0.09375,19.3125 39.78125,-22.71875 -8.3125,-14.53125 z"
         id="path3008"
         inkscape:connector-curvature="0"
         style="opacity:0.51525424;fill:url(#linearGradient4286)" />
      <path
         d="m 154.75,956.36218 -14.53125,8.28125 15.25,26.6875 19.3125,0.0937 -20.03125,-35.0625 z"
         id="path3006"
         inkscape:connector-curvature="0"
         style="opacity:0.51525424;fill:url(#linearGradient4288)" />
    </g>
    <path
       style="fill:#e6e6e6;stroke-width:30;font-family:Sans"
       sodipodi:nodetypes="ccccssccccc"
       inkscape:connector-curvature="0"
       id="path3009"
       d="m 14.382803,1037.634 c -0.0082,0 -0.01639,-0.01 -0.02468,-0.011 -0.09004,-0.037 -0.186511,-0.057 -0.285132,-0.057 -2.712767,0 -5.4255338,0 -8.1383016,-0.01 -0.4022423,0 -0.7330077,0.3295 -0.7333137,0.7316 l -0.00613,8.1357 c -3.005e-4,0.4019 0.3293149,0.7326 0.7315125,0.733 l 8.1384568,0.01 c 0.402062,0 0.732998,-0.3295 0.733299,-0.7316 l 0.0063,-8.136 c 1.69e-4,-0.2914 -0.170839,-0.5473 -0.421999,-0.6646 z" />
    <path
       style="fill:#656565"
       inkscape:export-ydpi="23.039482"
       inkscape:export-xdpi="23.039482"
       inkscape:export-filename="C:\Users\Madnester\Desktop\Sketches\256.png"
       inkscape:connector-curvature="0"
       id="path3011"
       d="m 14.70236,1037.41 c -0.05776,-0.027 -0.123132,-0.038 -0.19071,-0.037 l -9.0155852,-0.01 c -0.2707306,9e-4 -0.4890707,0.2178 -0.4892947,0.4883 l -0.00677,9.0119 c -1.837e-4,0.2706 0.2175102,0.4888 0.4882266,0.489 l 9.0157663,0.01 c 0.270728,-9e-4 0.488913,-0.2174 0.489094,-0.488 l 0.0069,-9.0127 c 1.51e-4,-0.203 -0.122266,-0.3767 -0.297713,-0.4506 z m -0.94047,0.9904 c 0.140811,0.058 0.238204,0.1983 0.238086,0.3606 l -0.0054,7.2102 c -1.5e-4,0.2165 -0.174747,0.3903 -0.391336,0.3902 l -7.2126883,-0.01 c -0.2165714,-2e-4 -0.3916036,-0.1725 -0.3903429,-0.3914 l 0.0054,-7.2101 c 1.707e-4,-0.2165 0.174767,-0.3903 0.3913563,-0.3902 l 7.2126869,0.01 c 0.05399,4e-4 0.105612,0.011 0.15222,0.032 z" />
    <g
       transform="matrix(0.05979268,-2.1922542e-4,2.1927883e-4,0.05977812,2.1485493,987.13485)"
       id="g3013">
      <path
         style="fill:url(#radialGradient3021)"
         inkscape:connector-curvature="0"
         id="path3015"
         d="m 67.96875,857.26843 c -3.622281,-0.0165 -6.54636,2.87827 -6.5625,6.5 l -0.0625,14.15625 52.71875,92.25 c 2.24659,3.9312 7.22671,5.3085 11.15625,3.0625 l 69.59375,-39.78125 0.0937,-19.3125 L 130,951.23718 c -3.14379,1.7968 -7.10938,0.7077 -8.90625,-2.4375 l -52.28125,-91.53125 -0.84375,0 z" />
      <path
         style="opacity:0.51525424;fill:url(#linearGradient3023)"
         inkscape:connector-curvature="0"
         id="path3017"
         d="m 92.40625,932.29968 -31.375,17.9375 -0.09375,19.3125 39.78125,-22.71875 -8.3125,-14.53125 z" />
      <path
         style="opacity:0.51525424;fill:url(#linearGradient3025)"
         inkscape:connector-curvature="0"
         id="path3019"
         d="m 154.75,956.36218 -14.53125,8.28125 15.25,26.6875 19.3125,0.0937 -20.03125,-35.0625 z" />
    </g>
  </g>
</svg>
