<?xml version="1.0" encoding="UTF-8" standalone="no"?>
<!-- Created with Inkscape (http://www.inkscape.org/) -->

<svg
   xmlns:dc="http://purl.org/dc/elements/1.1/"
   xmlns:cc="http://creativecommons.org/ns#"
   xmlns:rdf="http://www.w3.org/1999/02/22-rdf-syntax-ns#"
   xmlns:svg="http://www.w3.org/2000/svg"
   xmlns="http://www.w3.org/2000/svg"
   xmlns:xlink="http://www.w3.org/1999/xlink"
   xmlns:sodipodi="http://sodipodi.sourceforge.net/DTD/sodipodi-0.dtd"
   xmlns:inkscape="http://www.inkscape.org/namespaces/inkscape"
   version="1.0"
   width="512"
   height="512"
   id="svg2"
   inkscape:version="0.48.4 r9939"
   sodipodi:docname="speaker - копия.svg">
  <metadata
     id="metadata18">
    <rdf:RDF>
      <cc:Work
         rdf:about="">
        <dc:format>image/svg+xml</dc:format>
        <dc:type
           rdf:resource="http://purl.org/dc/dcmitype/StillImage" />
        <dc:title />
      </cc:Work>
    </rdf:RDF>
  </metadata>
  <sodipodi:namedview
     pagecolor="#ffffff"
     bordercolor="#666666"
     borderopacity="1"
     objecttolerance="10"
     gridtolerance="10"
     guidetolerance="10"
     inkscape:pageopacity="0"
     inkscape:pageshadow="2"
     inkscape:window-width="1440"
     inkscape:window-height="848"
     id="namedview16"
     showgrid="false"
     inkscape:zoom="0.8096141"
     inkscape:cx="189.47082"
     inkscape:cy="226.03539"
     inkscape:window-x="-8"
     inkscape:window-y="-8"
     inkscape:window-maximized="1"
     inkscape:current-layer="svg2" />
  <defs
     id="defs4">
    <linearGradient
       id="linearGradient4094">
      <stop
         id="stop4096"
         offset="0"
         style="stop-color:#aaaaaa;stop-opacity:1;" />
      <stop
         id="stop4098"
         offset="1"
         style="stop-color:#f0f0f0;stop-opacity:1;" />
    </linearGradient>
    <linearGradient
       id="linearGradient3809">
      <stop
         style="stop-color:#f8f8f8;stop-opacity:1;"
         offset="0"
         id="stop3811" />
      <stop
         style="stop-color:#a4a4a4;stop-opacity:1;"
         offset="1"
         id="stop3813" />
    </linearGradient>
    <linearGradient
       inkscape:collect="always"
       xlink:href="#linearGradient4094"
       id="linearGradient3310"
       gradientUnits="userSpaceOnUse"
       gradientTransform="matrix(0.92081079,0,0,0.92003564,20.263759,12.966777)"
       x1="271.05276"
       y1="501.89111"
       x2="271.05276"
       y2="37.294041" />
    <linearGradient
       inkscape:collect="always"
       xlink:href="#linearGradient3809"
       id="linearGradient3786"
       x1="311.37796"
       y1="204.10365"
       x2="313.23138"
       y2="304.18942"
       gradientUnits="userSpaceOnUse" />
    <linearGradient
       inkscape:collect="always"
       xlink:href="#linearGradient3809"
       id="linearGradient3790"
       gradientUnits="userSpaceOnUse"
       x1="412.64841"
       y1="254.14655"
       x2="236.80086"
       y2="252.29309"
       gradientTransform="matrix(0.48499997,0,0,1,-292.73981,1.2240601e-5)" />
    <linearGradient
       inkscape:collect="always"
       xlink:href="#linearGradient3809"
       id="linearGradient3800"
       gradientUnits="userSpaceOnUse"
       x1="311.37796"
       y1="204.10365"
       x2="313.23138"
       y2="304.18942" />
    <linearGradient
       y2="123.49242"
       x2="-113.45702"
       y1="98.470978"
       x1="-113.45702"
       gradientUnits="userSpaceOnUse"
       id="linearGradient4170"
       xlink:href="#linearGradient7004-7"
       inkscape:collect="always" />
    <linearGradient
       y2="123.49242"
       x2="-113.45702"
       y1="98.470978"
       x1="-113.45702"
       gradientUnits="userSpaceOnUse"
       id="linearGradient4164"
       xlink:href="#linearGradient7004-7"
       inkscape:collect="always" />
    <linearGradient
       y2="123.49242"
       x2="-113.45702"
       y1="98.470978"
       x1="-113.45702"
       gradientUnits="userSpaceOnUse"
       id="linearGradient4158"
       xlink:href="#linearGradient7004-7"
       inkscape:collect="always" />
    <linearGradient
       gradientUnits="userSpaceOnUse"
       y2="123.49242"
       x2="-113.45702"
       y1="98.470978"
       x1="-113.45702"
       id="linearGradient4144"
       xlink:href="#linearGradient7004-7"
       inkscape:collect="always" />
    <radialGradient
       gradientTransform="matrix(1.382859,0.11617778,-0.10848753,1.2913225,-32.479278,-22.893013)"
       spreadMethod="pad"
       gradientUnits="userSpaceOnUse"
       r="155.689"
       fy="40.208275"
       fx="96.226974"
       cy="40.208275"
       cx="96.226974"
       id="radialGradient4111"
       xlink:href="#linearGradient3809-6"
       inkscape:collect="always" />
    <linearGradient
       y2="37.294041"
       x2="271.05276"
       y1="501.89111"
       x1="271.05276"
       gradientTransform="matrix(0.92081079,0,0,0.92003564,20.263759,12.966777)"
       gradientUnits="userSpaceOnUse"
       id="linearGradient3310-9"
       xlink:href="#linearGradient4094-8"
       inkscape:collect="always" />
    <linearGradient
       id="linearGradient3809-6">
      <stop
         id="stop3811-0"
         offset="0"
         style="stop-color:#f8f8f8;stop-opacity:1;" />
      <stop
         id="stop3813-4"
         offset="1"
         style="stop-color:#a4a4a4;stop-opacity:1;" />
    </linearGradient>
    <linearGradient
       id="linearGradient7004-7">
      <stop
         style="stop-color:#fdfdfd;stop-opacity:1;"
         offset="0"
         id="stop7006-1" />
      <stop
         style="stop-color:#b8b8b8;stop-opacity:1;"
         offset="1"
         id="stop7008-2" />
    </linearGradient>
    <linearGradient
       id="linearGradient4094-8">
      <stop
         style="stop-color:#aaaaaa;stop-opacity:1;"
         offset="0"
         id="stop4096-2" />
      <stop
         style="stop-color:#f0f0f0;stop-opacity:1;"
         offset="1"
         id="stop4098-7" />
    </linearGradient>
    <linearGradient
       inkscape:collect="always"
       xlink:href="#linearGradient4094-8"
       id="linearGradient3879"
       gradientUnits="userSpaceOnUse"
       gradientTransform="matrix(0.92081079,0,0,0.92003564,475.99352,72.508851)"
       x1="271.05276"
       y1="501.89111"
       x2="271.05276"
       y2="37.294041" />
    <linearGradient
       inkscape:collect="always"
       xlink:href="#linearGradient3809"
       id="linearGradient3889"
       gradientUnits="userSpaceOnUse"
       x1="311.37796"
       y1="204.10365"
       x2="313.23138"
       y2="304.18942"
       gradientTransform="matrix(0.64499999,0,0,1,-190.04167,90.170832)" />
    <linearGradient
       inkscape:collect="always"
       xlink:href="#linearGradient3809"
       id="linearGradient3896"
       gradientUnits="userSpaceOnUse"
       x1="311.37796"
       y1="204.10365"
       x2="313.23138"
       y2="304.18942" />
  </defs>
  <path
     style="opacity:0.07999998;fill:#000000;fill-opacity:1;fill-rule:nonzero;stroke:none"
     d="M 257.34375 0 C 255.94486 -0.00046 254.55476 0.0089 253.15625 0.03125 C 145.73888 -0.21139 43.15527 75.081166 12 177.8125 C -16.965778 266.88673 7.4410732 371.59213 74.875 436.8125 C 134.02375 496.11181 223.67265 524.46093 306.15625 506.78125 C 384.71422 491.31648 454.74067 437.28892 487.96875 364.40625 C 523.84337 288.48886 519.59119 194.22912 474.8125 122.9375 C 432.0168 52.129567 353.01618 3.816989 269.90625 0.34375 C 265.71725 0.093503 261.54042 0.001384 257.34375 0 z M 257.6875 76.90625 C 296.12379 77.122521 334.07348 90.873537 364.125 114.875 C 413.9916 153.62183 438.01815 221.10724 425.96875 282.84375 C 414.87193 343.74436 368.18503 395.60873 309.375 414.6875 C 248.30983 435.20734 176.80679 417.18877 132.28125 371.125 C 86.082353 325.15075 70.66799 251.79325 93.21875 190.75 C 116.43814 124.56911 183.81493 76.630601 253.9375 76.9375 C 255.17814 76.91623 256.44762 76.89927 257.6875 76.90625 z "
     id="path4115" />
  <path
     style="opacity:0.1;fill:#000000;fill-opacity:1;fill-rule:nonzero;stroke:none"
     d="m 257.64683,7.3603086 c -1.535,-0.0068 -3.06923,0.0062 -4.60406,0.02876 C 152.5457,7.2873826 56.01303,75.060046 22.52354,169.6891 -7.925353,251.25848 7.963588,349.39943 65.283691,415.45362 117.44632,478.01855 201.78388,513.01177 283.25688,502.82826 360.19726,494.48802 432.42602,448.61219 470.6131,381.1823 508.68221,316.51077 515.77007,233.74562 487.01504,164.05388 459.24436,94.054456 398.48989,37.812589 325.72927,17.423199 303.67525,10.874214 280.6717,7.4624456 257.64683,7.3603086 z"
     id="path4433"
     inkscape:connector-curvature="0" />
  <path
     style="opacity:0.15;fill:#000000;fill-opacity:1;fill-rule:nonzero;stroke:none"
     d="M 249.03856,14.835599 C 158.67427,16.492312 72.23915,73.851476 35.948082,156.3514 2.938486,228.72549 8.319974,317.9753 51.898711,384.77619 c 39.274444,62.07339 107.910919,105.17802 181.540159,111.174 72.2933,6.71338 147.20871,-20.41264 196.76921,-73.39504 51.19086,-53.36116 76.4765,-131.11839 63.96758,-204.39167 C 482.79202,145.29888 436.48448,78.640856 371.10354,44.161735 333.99521,23.838218 291.47065,13.4885 249.03856,14.835599 z"
     id="path3308"
     inkscape:connector-curvature="0" />
  <path
     style="opacity:0.3;fill:#000000;fill-opacity:1;fill-rule:nonzero;stroke:none"
     d="m 255.99133,20.327062 c -130.18874,0 -235.727577,105.449978 -235.727577,235.529128 0,130.07914 105.538837,235.52913 235.727577,235.52913 130.18874,0 235.72756,-105.44999 235.72756,-235.52913 0,-130.07915 -105.53882,-235.529128 -235.72756,-235.529128 z"
     id="path3288"
     inkscape:connector-curvature="0" />
  <path
     style="fill:url(#linearGradient3310);fill-opacity:1;fill-rule:nonzero;stroke:none"
     d="m 255.99132,12.96875 c -130.18874,0 -235.71875,105.4521 -235.71875,235.53125 0,130.07914 105.53001,235.53125 235.71875,235.53125 130.18874,0 235.71875,-105.45211 235.71875,-235.53125 0,-130.07915 -105.53001,-235.53125 -235.71875,-235.53125 z m 0,56.21875 c 99.0359,0 179.3125,80.2766 179.3125,179.3125 0,99.0359 -80.2766,179.3125 -179.3125,179.3125 -99.0359,0 -179.3125,-80.2766 -179.3125,-179.3125 0,-99.0359 80.2766,-179.3125 179.3125,-179.3125 z"
     id="path4438"
     inkscape:connector-curvature="0" />
  <path
     style="opacity:0.6;fill:#ffffff;fill-opacity:1;fill-rule:nonzero;stroke:none"
     d="M 256 12.96875 C 125.81126 12.96875 20.25 118.42085 20.25 248.5 C 20.25 250.3495 20.30131 252.19194 20.34375 254.03125 C 23.286119 126.50813 127.66232 24 256 24 C 384.33768 24 488.68263 126.50813 491.625 254.03125 C 491.6674 252.19194 491.71875 250.3495 491.71875 248.5 C 491.71875 118.42085 386.18874 12.96875 256 12.96875 z M 76.6875 251 C 76.67585 251.86614 76.65625 252.72476 76.65625 253.59375 C 76.65625 355.44462 156.9641 438 256 438 C 355.0359 438 435.3125 355.44462 435.3125 253.59375 C 435.3125 252.72476 435.2929 251.86614 435.28125 251 C 433.94092 348.88104 354.19946 427.8125 256 427.8125 C 157.80054 427.8125 78.027832 348.88104 76.6875 251 z "
     id="path3296" />
  <path
     transform="matrix(-0.90681505,0,0,0.90681505,341.71711,153.79794)"
     d="m 250.21445,101.46296 a 155.689,155.689 0 1 1 -311.377986,0 155.689,155.689 0 1 1 311.377986,0 z"
     sodipodi:ry="155.689"
     sodipodi:rx="155.689"
     sodipodi:cy="101.46296"
     sodipodi:cx="94.525459"
     id="path4179"
     style="opacity:0.4;fill:#000000;fill-opacity:0.50588229;fill-rule:nonzero;stroke:none"
     sodipodi:type="arc" />
  <path
     style="opacity:0.3;fill:#000000;fill-opacity:1;fill-rule:nonzero;stroke:none"
     d="m 237.46875,97.8125 0,88.9375 37.0625,0 0,-88.9375 z m 10.6875,151.6875 -111.75,61.3125 18.28125,30.75 107.21875,-57.03125 160.59375,0 0,-35.03125 z"
     id="path3892"
     inkscape:connector-curvature="0"
     sodipodi:nodetypes="cccccccccccc" />
  <path
     style="fill:url(#linearGradient3786);fill-opacity:1;fill-rule:nonzero;stroke:none"
     d="m 248.15625,239.49819 -111.75,61.31431 18.28125,30.75 107.21875,-57.03125 160.59375,0 0,-35.03306 z"
     id="rect3010"
     inkscape:connector-curvature="0"
     sodipodi:nodetypes="ccccccc" />
  <rect
     rx="0"
     y="237.46559"
     x="-177.22879"
     height="37.068806"
     width="89.891846"
     id="rect3788"
     style="fill:url(#linearGradient3790);fill-opacity:1;fill-rule:nonzero;stroke:none"
     transform="matrix(0,-1,1,0,0,0)"
     inkscape:transform-center-y="-44.945919"
     ry="0" />
</svg>
