<?xml version="1.0" encoding="UTF-8" standalone="no"?>
<!-- Created with Inkscape (http://www.inkscape.org/) -->

<svg
   xmlns:dc="http://purl.org/dc/elements/1.1/"
   xmlns:cc="http://creativecommons.org/ns#"
   xmlns:rdf="http://www.w3.org/1999/02/22-rdf-syntax-ns#"
   xmlns:svg="http://www.w3.org/2000/svg"
   xmlns="http://www.w3.org/2000/svg"
   xmlns:sodipodi="http://sodipodi.sourceforge.net/DTD/sodipodi-0.dtd"
   xmlns:inkscape="http://www.inkscape.org/namespaces/inkscape"
   inkscape:version="0.48.3.1 r9886"
   version="1.1"
   id="svg2"
   height="32"
   width="32"
   sodipodi:docname="qutim-offline.svg">
  <defs
     id="defs4" />
  <sodipodi:namedview
     id="base"
     pagecolor="#ffffff"
     bordercolor="#666666"
     borderopacity="1.0"
     inkscape:pageopacity="0.0"
     inkscape:pageshadow="2"
     inkscape:zoom="19.96875"
     inkscape:cx="16"
     inkscape:cy="16"
     inkscape:document-units="px"
     inkscape:current-layer="layer1"
     showgrid="true"
     inkscape:window-width="1440"
     inkscape:window-height="848"
     inkscape:window-x="-8"
     inkscape:window-y="-8"
     inkscape:window-maximized="1"
     inkscape:snap-bbox="false"
     inkscape:snap-global="true"
     showguides="false"
     inkscape:guide-bbox="true">
    <sodipodi:guide
       orientation="1,0"
       position="0,810.14234"
       id="guide3219" />
    <sodipodi:guide
       orientation="1,0"
       position="1000.051,496.99505"
       id="guide3221" />
    <sodipodi:guide
       orientation="0,1"
       position="125.25891,1000.051"
       id="guide3223" />
    <sodipodi:guide
       orientation="0,1"
       position="-389.91888,499.01535"
       id="guide3224" />
    <sodipodi:guide
       orientation="1,0"
       position="499.01535,349.51278"
       id="guide3226" />
    <sodipodi:guide
       orientation="1,0"
       position="-499.01535,256.57874"
       id="guide3228" />
    <sodipodi:guide
       orientation="0,1"
       position="-909.13728,0"
       id="guide3230" />
    <inkscape:grid
       type="xygrid"
       id="grid3462"
       empspacing="5"
       visible="true"
       enabled="true"
       snapvisiblegridlinesonly="true" />
  </sodipodi:namedview>
  <metadata
     id="metadata7">
    <rdf:RDF>
      <cc:Work
         rdf:about="">
        <dc:format>image/svg+xml</dc:format>
        <dc:type
           rdf:resource="http://purl.org/dc/dcmitype/StillImage" />
        <dc:title />
      </cc:Work>
    </rdf:RDF>
  </metadata>
  <g
     inkscape:label="Layer 1"
     inkscape:groupmode="layer"
     id="layer1"
     transform="translate(0,-1020.3622)">
    <path
       style="opacity:0.3;fill:#000000;fill-opacity:1;fill-rule:nonzero;stroke:none"
       d="m 21.239364,1022.0437 c -0.148983,0 -0.299693,0.038 -0.444354,0.1042 l -19.2711132,8.7506 c -0.57864201,0.2628 -0.83314101,0.9411 -0.57036501,1.5197 l 8.75158721,19.2701 c 0.262778,0.5786 0.940119,0.8331 1.518761,0.5704 l 19.271114,-8.7516 c 0.57864,-0.2628 0.833144,-0.9401 0.570364,-1.5187 l -8.751587,-19.2711 c -0.197084,-0.4339 -0.627459,-0.6858 -1.074407,-0.6736 z m -1.045984,3.0318 c 0.357558,-0.01 0.70167,0.1919 0.859336,0.5391 l 7.001649,15.4168 c 0.210222,0.463 0.0062,1.0044 -0.45667,1.2147 l -15.416892,7.0016 c -0.462913,0.2102 -1.004408,0.01 -1.214629,-0.4567 l -7.0016492,-15.4168 c -0.210222,-0.4629 -0.0062,-1.0044 0.456671,-1.2146 l 15.4168912,-7.0016 c 0.115728,-0.053 0.236107,-0.079 0.355293,-0.082 z"
       id="path4571"
       inkscape:export-filename="C:\Users\Madnester\Desktop\Sketches\256.png"
       inkscape:export-xdpi="23.039482"
       inkscape:export-ydpi="23.039482"
       inkscape:connector-curvature="0" />
    <path
       inkscape:connector-curvature="0"
       inkscape:export-ydpi="23.039482"
       inkscape:export-xdpi="23.039482"
       inkscape:export-filename="C:\Users\Madnester\Desktop\Sketches\256.png"
       id="path4021-6"
       d="m 21.239364,1020.3626 c -0.148983,0 -0.299693,0.038 -0.444354,0.1042 l -19.2711132,8.7506 c -0.57864201,0.2628 -0.83314101,0.9411 -0.57036501,1.5197 l 8.75158721,19.2701 c 0.262778,0.5786 0.940119,0.8331 1.518761,0.5703 l 19.271114,-8.7515 c 0.57864,-0.2628 0.833144,-0.9401 0.570364,-1.5187 l -8.751587,-19.2711 c -0.197084,-0.4339 -0.627459,-0.6858 -1.074407,-0.6736 z m -1.045984,3.0318 c 0.357558,-0.01 0.70167,0.1919 0.859336,0.5391 l 7.001649,15.4168 c 0.210222,0.4629 0.0062,1.0044 -0.45667,1.2147 l -15.416892,7.0016 c -0.462913,0.2102 -1.004408,0.01 -1.214629,-0.4567 l -7.0016492,-15.4168 c -0.210222,-0.4629 -0.0062,-1.0044 0.456671,-1.2146 l 15.4168912,-7.0016 c 0.115728,-0.053 0.236107,-0.079 0.355293,-0.082 z"
       style="fill:#dfdbd2;fill-opacity:1;fill-rule:nonzero;stroke:none" />
    <g
       id="g4573"
       style="opacity:0.4"
       transform="matrix(0.032,0,0,0.032,0.0499888,1018.6866)">
      <path
         inkscape:export-ydpi="23.039482"
         inkscape:export-xdpi="23.039482"
         inkscape:export-filename="C:\Users\Madnester\Desktop\Sketches\256.png"
         sodipodi:nodetypes="cssssscsssscssc"
         inkscape:connector-curvature="0"
         id="path4569"
         d="m 339.84686,281.4063 c 0,0 62.81646,71.70877 -11.70438,228.36142 -26.75299,56.23825 -66.8825,98.843 -60.19419,177.23572 11.04295,129.43299 117.0442,197.68604 227.40026,197.68604 110.35596,0 227.40025,-88.61791 234.08847,-187.4609 6.68821,-98.84298 -53.50599,-132.92681 -70.22662,-170.41895 -16.72055,-37.49218 5.01623,-122.70168 35.11336,-170.41896 -46.81776,32.37958 -51.83391,32.37958 -81.93102,103.95556 -30.0971,71.57595 13.60729,162.67486 -26.753,184.05248 -51.25705,27.14931 -92.83658,-33.68765 -76.91474,-93.73044 16.72055,-63.05502 68.01427,-128.25129 73.57064,-207.91112 4.62652,-66.3276 -91.96336,-180.64412 -105.3398,-250.515894 -26.75298,57.942444 33.8777,177.024864 13.37652,243.699124 -44.11412,143.46864 -93.29524,158.92552 -91.96333,66.4634 0.76331,-52.99492 -58.52217,-120.99748 -58.52217,-120.99748 z"
         style="opacity:0.3;fill:#000000;fill-opacity:1;stroke:none" />
      <path
         style="fill:#dedcd2;fill-opacity:1;stroke:none"
         d="m 339.84686,243.4063 c 0,0 62.81646,71.70877 -11.70438,228.36142 -26.75299,56.23825 -66.8825,98.843 -60.19419,177.23572 11.04295,129.43299 117.0442,197.68604 227.40026,197.68604 110.35596,0 227.40025,-88.61791 234.08847,-187.4609 6.68821,-98.84298 -53.50599,-132.92681 -70.22662,-170.41895 -16.72055,-37.49218 5.01623,-122.70168 35.11336,-170.41896 -46.81776,32.37958 -51.83391,32.37958 -81.93102,103.95556 -30.0971,71.57595 13.60729,162.67486 -26.753,184.05248 -51.25705,27.14931 -92.83658,-33.68765 -76.91474,-93.73044 16.72055,-63.05502 68.01427,-128.25129 73.57064,-207.91112 4.62652,-66.3276 -91.96336,-180.64412 -105.3398,-250.515894 -26.75298,57.942444 33.8777,177.024864 13.37652,243.699124 -44.11412,143.46864 -93.29524,158.92552 -91.96333,66.4634 0.76331,-52.99492 -58.52217,-120.99748 -58.52217,-120.99748 z"
         id="path4019"
         inkscape:connector-curvature="0"
         sodipodi:nodetypes="cssssscsssscssc"
         inkscape:export-filename="C:\Users\Madnester\Desktop\Sketches\256.png"
         inkscape:export-xdpi="23.039482"
         inkscape:export-ydpi="23.039482" />
    </g>
  </g>
</svg>
