<?xml version="1.0" encoding="UTF-8" standalone="no"?>
<!-- Created with Inkscape (http://www.inkscape.org/) -->

<svg
   xmlns:dc="http://purl.org/dc/elements/1.1/"
   xmlns:cc="http://creativecommons.org/ns#"
   xmlns:rdf="http://www.w3.org/1999/02/22-rdf-syntax-ns#"
   xmlns:svg="http://www.w3.org/2000/svg"
   xmlns="http://www.w3.org/2000/svg"
   xmlns:sodipodi="http://sodipodi.sourceforge.net/DTD/sodipodi-0.dtd"
   xmlns:inkscape="http://www.inkscape.org/namespaces/inkscape"
   inkscape:version="0.48.3.1 r9886"
   version="1.1"
   id="svg2"
   height="32"
   width="32"
   sodipodi:docname="qutim-message-new.svg">
  <defs
     id="defs4" />
  <sodipodi:namedview
     id="base"
     pagecolor="#ffffff"
     bordercolor="#666666"
     borderopacity="1.0"
     inkscape:pageopacity="0.0"
     inkscape:pageshadow="2"
     inkscape:zoom="19.96875"
     inkscape:cx="16"
     inkscape:cy="16"
     inkscape:document-units="px"
     inkscape:current-layer="layer1"
     showgrid="false"
     inkscape:window-width="1440"
     inkscape:window-height="848"
     inkscape:window-x="-8"
     inkscape:window-y="-8"
     inkscape:window-maximized="1"
     inkscape:snap-bbox="false"
     inkscape:snap-global="true"
     showguides="false"
     inkscape:guide-bbox="true">
    <sodipodi:guide
       orientation="1,0"
       position="0,810.14234"
       id="guide3219" />
    <sodipodi:guide
       orientation="1,0"
       position="1000.051,496.99505"
       id="guide3221" />
    <sodipodi:guide
       orientation="0,1"
       position="125.25891,1000.051"
       id="guide3223" />
    <sodipodi:guide
       orientation="0,1"
       position="-389.91888,499.01535"
       id="guide3224" />
    <sodipodi:guide
       orientation="1,0"
       position="499.01535,349.51278"
       id="guide3226" />
    <sodipodi:guide
       orientation="1,0"
       position="-499.01535,256.57874"
       id="guide3228" />
    <sodipodi:guide
       orientation="0,1"
       position="-909.13728,0"
       id="guide3230" />
    <inkscape:grid
       type="xygrid"
       id="grid4049"
       empspacing="5"
       visible="true"
       enabled="true"
       snapvisiblegridlinesonly="true" />
  </sodipodi:namedview>
  <metadata
     id="metadata7">
    <rdf:RDF>
      <cc:Work
         rdf:about="">
        <dc:format>image/svg+xml</dc:format>
        <dc:type
           rdf:resource="http://purl.org/dc/dcmitype/StillImage" />
        <dc:title />
      </cc:Work>
    </rdf:RDF>
  </metadata>
  <g
     inkscape:label="Layer 1"
     inkscape:groupmode="layer"
     id="layer1"
     transform="translate(0,-1020.3622)">
    <path
       style="opacity:0.3;fill:#000000;fill-opacity:1;stroke:none"
       d="m 15.312915,1021.6326 c -0.350517,0.7592 -0.232646,1.847 -0.01576,3.0127 l -13.7730672,6.2534 c -0.57864189,0.2628 -0.83337088,0.9409 -0.57059401,1.5195 l 8.75120931,19.2699 c 0.2627779,0.5786 0.9408399,0.8334 1.5194819,0.5706 l 19.270945,-8.7512 c 0.57864,-0.2628 0.833373,-0.9398 0.570594,-1.5184 l -8.75226,-19.272 c -0.197084,-0.434 -0.626988,-0.6858 -1.073936,-0.6736 -0.148982,0 -0.299835,0.039 -0.444496,0.1051 l -4.426044,2.0091 c -0.497865,-0.9237 -0.917206,-1.7997 -1.056071,-2.5251 z m 4.879997,3.4435 c 0.357558,-0.01 0.701902,0.1919 0.859569,0.5391 l 7.001598,15.4166 c 0.210221,0.4629 0.0069,1.0045 -0.456055,1.2147 l -7.108782,3.2281 c 1.61452,-1.1236 2.785419,-2.7535 2.902359,-4.4817 0.214023,-3.163 -1.711588,-4.254 -2.246648,-5.4538 -0.535058,-1.1997 0.160216,-3.9268 1.123324,-5.4537 -1.498169,1.0361 -1.658683,1.0364 -2.62179,3.3269 -0.963107,2.2904 0.435113,5.2057 -0.856417,5.8898 -1.640225,0.8688 -2.970513,-1.0787 -2.461014,-3.0001 0.535057,-2.0177 2.177078,-4.1036 2.354882,-6.6527 0.06499,-0.9317 -0.494978,-2.1587 -1.179017,-3.432 l 2.332815,-1.0592 c 0.115728,-0.053 0.23599,-0.079 0.355176,-0.082 z m -4.439704,1.9367 c 0.14197,0.8974 0.195308,1.7417 -0.01261,2.4179 -1.411652,4.591 -2.984911,5.0857 -2.94229,2.1269 0.01311,-0.91 -0.527376,-1.9581 -1.030852,-2.7342 l 3.985752,-1.8106 z m -4.236897,1.9251 c 0.322675,1.1622 0.415004,3.1534 -0.965702,6.0559 -0.8560951,1.7996 -2.1401742,3.1627 -1.9261483,5.6712 0.3533741,4.1419 3.7455183,6.3259 7.2769123,6.3259 0.572543,0 1.150253,-0.075 1.718086,-0.2133 l -5.439032,2.4705 c -0.462913,0.2102 -1.004523,0.01 -1.214745,-0.4571 l -7.0015976,-15.4166 c -0.2102217,-0.4629 -0.00581,-1.0045 0.4571056,-1.2147 l 7.095121,-3.2218 z"
       id="path4051"
       inkscape:connector-curvature="0" />
    <path
       inkscape:connector-curvature="0"
       inkscape:export-ydpi="23.039482"
       inkscape:export-xdpi="23.039482"
       inkscape:export-filename="C:\Users\Madnester\Desktop\Sketches\256.png"
       id="path4021"
       d="m 21.239375,1020.3626 c -0.148983,0 -0.299693,0.038 -0.444354,0.1042 l -19.2711132,8.7506 c -0.57864187,0.2628 -0.83314123,0.9411 -0.57036437,1.5197 l 8.75158677,19.2701 c 0.2627776,0.5786 0.9401188,0.8331 1.5187608,0.5703 l 19.271114,-8.7515 c 0.57864,-0.2628 0.833144,-0.9401 0.570364,-1.5188 l -8.751587,-19.271 c -0.197084,-0.4339 -0.627459,-0.6858 -1.074407,-0.6736 z m -1.045984,3.0318 c 0.357558,-0.01 0.70167,0.1919 0.859337,0.5391 l 7.001648,15.4168 c 0.210222,0.4629 0.0062,1.0044 -0.45667,1.2147 l -15.416891,7.0016 c -0.462914,0.2102 -1.004409,0.01 -1.21463,-0.4567 l -7.0016487,-15.4168 c -0.2102218,-0.4629 -0.00624,-1.0044 0.4566704,-1.2146 l 15.4168913,-7.0016 c 0.115728,-0.053 0.236107,-0.079 0.355293,-0.082 z"
       style="fill:#dfdbd2;fill-opacity:1;fill-rule:nonzero;stroke:none" />
    <path
       inkscape:export-ydpi="23.039482"
       inkscape:export-xdpi="23.039482"
       inkscape:export-filename="C:\Users\Madnester\Desktop\Sketches\256.png"
       sodipodi:nodetypes="cssssscsssscssc"
       inkscape:connector-curvature="0"
       id="path4019"
       d="m 10.925099,1026.4756 c 0,0 2.010127,2.2947 -0.37454,7.3076 -0.8560954,1.7996 -2.1402397,3.1629 -1.9262138,5.6715 0.3533744,4.1419 3.7454148,6.326 7.2768088,6.326 3.53139,0 7.276807,-2.8358 7.490831,-5.9988 0.214022,-3.163 -1.712192,-4.2537 -2.247252,-5.4534 -0.535058,-1.1998 0.160519,-3.9265 1.123627,-5.4534 -1.498168,1.0361 -1.658685,1.0361 -2.621792,3.3266 -0.963108,2.2904 0.435433,5.2056 -0.856096,5.8896 -1.640226,0.8688 -2.970771,-1.078 -2.461272,-2.9993 0.535058,-2.0178 2.176457,-4.1041 2.35426,-6.6532 0.148049,-2.1225 -2.942827,-5.7806 -3.370873,-8.0165 -0.856096,1.8542 1.084086,5.6648 0.428048,7.7984 -1.411651,4.591 -2.985447,5.0856 -2.942826,2.1268 0.02443,-1.6958 -1.87271,-3.8719 -1.87271,-3.8719 z"
       style="fill:#dc0000;fill-opacity:1;stroke:none" />
  </g>
</svg>
