<?xml version="1.0" encoding="UTF-8" standalone="no"?>
<!-- Created with Inkscape (http://www.inkscape.org/) -->

<svg
   xmlns:dc="http://purl.org/dc/elements/1.1/"
   xmlns:cc="http://creativecommons.org/ns#"
   xmlns:rdf="http://www.w3.org/1999/02/22-rdf-syntax-ns#"
   xmlns:svg="http://www.w3.org/2000/svg"
   xmlns="http://www.w3.org/2000/svg"
   xmlns:xlink="http://www.w3.org/1999/xlink"
   xmlns:sodipodi="http://sodipodi.sourceforge.net/DTD/sodipodi-0.dtd"
   xmlns:inkscape="http://www.inkscape.org/namespaces/inkscape"
   inkscape:version="0.48.3.1 r9886"
   version="1.1"
   id="svg2"
   height="1000"
   width="1000"
   sodipodi:docname="qutim-online.svg">
  <sodipodi:namedview
     id="base"
     pagecolor="#ffffff"
     bordercolor="#666666"
     borderopacity="1.0"
     inkscape:pageopacity="0.0"
     inkscape:pageshadow="2"
     inkscape:zoom="0.35"
     inkscape:cx="430.04347"
     inkscape:cy="444.76257"
     inkscape:document-units="px"
     inkscape:current-layer="layer1"
     showgrid="false"
     inkscape:window-width="1440"
     inkscape:window-height="848"
     inkscape:window-x="-8"
     inkscape:window-y="-8"
     inkscape:window-maximized="1"
     inkscape:snap-bbox="false"
     inkscape:snap-global="true"
     showguides="false"
     inkscape:guide-bbox="true">
    <sodipodi:guide
       id="guide3219"
       position="0,810.14234"
       orientation="1,0" />
    <sodipodi:guide
       id="guide3221"
       position="1000.051,496.99505"
       orientation="1,0" />
    <sodipodi:guide
       id="guide3223"
       position="125.25891,1000.051"
       orientation="0,1" />
    <sodipodi:guide
       id="guide3224"
       position="-389.91888,499.01535"
       orientation="0,1" />
    <sodipodi:guide
       id="guide3226"
       position="499.01535,349.51278"
       orientation="1,0" />
    <sodipodi:guide
       id="guide3228"
       position="-499.01535,256.57874"
       orientation="1,0" />
    <sodipodi:guide
       id="guide3230"
       position="-909.13728,0"
       orientation="0,1" />
  </sodipodi:namedview>
  <defs
     id="defs4">
    <linearGradient
       y2="98.363487"
       x2="623.2478"
       y1="993.46124"
       x1="623.2478"
       gradientTransform="translate(4.3e-4,-1e-4)"
       gradientUnits="userSpaceOnUse"
       id="linearGradient4369-546"
       xlink:href="#linearGradient4094-939"
       inkscape:collect="always" />
    <linearGradient
       id="linearGradient4094-939">
      <stop
         id="stop3483"
         offset="0"
         style="stop-color:#555555;stop-opacity:1;" />
      <stop
         id="stop3485"
         offset="1"
         style="stop-color:#0f0f0f;stop-opacity:1;" />
    </linearGradient>
    <linearGradient
       id="linearGradient4094-514">
      <stop
         id="stop3513"
         offset="0"
         style="stop-color:#555555;stop-opacity:1;" />
      <stop
         id="stop3515"
         offset="1"
         style="stop-color:#0f0f0f;stop-opacity:1;" />
    </linearGradient>
    <linearGradient
       inkscape:collect="always"
       xlink:href="#linearGradient4094-514"
       id="linearGradient3276"
       gradientUnits="userSpaceOnUse"
       gradientTransform="translate(6.0247457,22.925006)"
       x1="499.01535"
       y1="852.69623"
       x2="499.01535"
       y2="439.80637" />
  </defs>
  <metadata
     id="metadata7">
    <rdf:RDF>
      <cc:Work
         rdf:about="">
        <dc:format>image/svg+xml</dc:format>
        <dc:type
           rdf:resource="http://purl.org/dc/dcmitype/StillImage" />
        <dc:title />
      </cc:Work>
    </rdf:RDF>
  </metadata>
  <g
     transform="translate(0,-52.362183)"
     id="layer1"
     inkscape:groupmode="layer"
     inkscape:label="Layer 1">
    <path
       inkscape:connector-curvature="0"
       id="path4054-4"
       d="m 655.75039,74.06239 c -36.1124,4.20846 -65.81068,27.6089 -99.44423,39.58084 -169.45078,77.44107 -339.7399,153.05478 -508.55574,231.88791 -27.28889,19.08813 -32.22658,60.9129 -13.25,87.375 87.15279,189.75595 171.65723,380.7246 260,569.93756 19.13682,27.4814 61.37715,32.0723 88.09375,12.8124 189.46174,-86.93819 380.05812,-171.47785 569.01622,-259.46607 27.2009,-18.97758 32.3387,-60.71825 13.4839,-87.22139 C 878.10939,479.54816 793.48709,289.01058 705.65669,99.99989 694.60899,83.8983 675.27179,73.52467 655.75039,74.06239 z m -29.2187,144.21875 c 6.421,9.47027 8.2186,21.22429 14.2621,30.95463 63.9694,142.61709 130.7772,283.98481 192.7067,427.48287 -9.7376,7.30223 -22.292,8.90497 -32.582,15.28802 -142.4325,64.02879 -283.8091,130.59864 -427.01182,192.61823 -7.77928,-9.97104 -9.10582,-23.10535 -15.86062,-33.63997 -63.84594,-142.0561 -130.30343,-282.97283 -192.07688,-425.92253 8.98542,-7.38717 21.16574,-8.42543 30.8294,-14.70011 143.02005,-64.27631 284.93347,-131.05804 428.79562,-193.39364 l 0.5812,0.81373 0.3563,0.49877 z"
       style="opacity:0.07999998;fill:#ffffff;fill-opacity:1;fill-rule:nonzero;stroke:none" />
    <path
       inkscape:connector-curvature="0"
       id="path4024-2"
       d="m 654.15669,82.12489 c -30.1844,4.26572 -55.2025,23.62277 -83.44824,33.68248 -172.64295,78.87965 -346.01797,156.15758 -518.17678,236.09877 -23.75913,16.37521 -27.96895,52.8777 -11.59375,75.8125 87.02334,189.9302 171.88943,380.8494 259.9375,570.31257 16.38068,23.79159 52.74104,27.84719 75.65625,11.59369 189.72216,-86.77849 380.21172,-171.89147 569.59382,-259.40626 24.3877,-16.08364 28.9213,-52.80037 12.4375,-76.1875 -86.6585,-189.40975 -171.6798,-379.56353 -258.9688,-568.6875 -9.7013,-14.79715 -27.6324,-24.37766 -45.4375,-23.21875 z m -27.875,126.28125 c 10.7694,3.65603 11.1371,16.82792 16.2284,25.32319 66.3905,147.57299 134.9554,294.20136 199.8966,442.39556 -1.986,10.73337 -14.6904,11.99356 -22.6306,16.12924 C 671.05539,759.11808 523.35954,828.32365 373.93792,893.56239 363.06091,890.48332 362.0226,877.47256 357.40221,868.96312 290.87189,720.96199 221.96679,574.00117 157.03167,425.31239 c 2.25578,-10.5792 14.6366,-11.81421 22.71875,-15.96875 148.68801,-66.86428 296.32309,-136.13509 445.78127,-201.21875 l 0.75,0.28125 z"
       style="opacity:0.1;fill:#ffffff;fill-opacity:1;fill-rule:nonzero;stroke:none" />
    <path
       inkscape:connector-curvature="0"
       id="path4010-8"
       d="m 653.96919,90.03114 c -22.3117,2.99504 -40.7407,17.12453 -61.58078,24.66786 -178.04311,81.21764 -356.62448,161.28769 -534.35674,243.17589 -20.1029,13.12892 -24.7772,43.19376 -11.52261,62.72237 87.13403,190.79193 172.74652,382.31838 260.78939,572.67665 13.55613,19.81839 43.64375,23.72859 63.08059,10.34239 190.24316,-86.84369 381.10365,-172.36564 571.02775,-259.89766 20.1404,-13.06077 24.7469,-43.15894 11.4924,-62.72284 -86.5974,-190.10322 -172.3663,-380.58567 -259.4613,-570.46466 -8.2728,-13.23019 -23.8423,-21.41248 -39.4687,-20.5 z m -28.375,110.09375 c 11.5097,0.3314 17.3043,12.53423 20.3813,21.97342 67.9888,150.34091 137.0509,300.21224 204.2437,450.90158 2.0315,11.02142 -8.1471,20.20577 -18.1295,22.4129 -151.6148,68.55137 -302.73714,138.24959 -454.74552,205.89962 -11.03226,1.9594 -20.02956,-8.32766 -22.28707,-18.19242 -68.46307,-151.5542 -138.11466,-302.58677 -205.83793,-454.46385 -1.97253,-11.02712 8.12757,-20.30632 18.12953,-22.44415 151.54104,-68.50104 302.5881,-138.15935 454.49549,-205.80585 1.2414,-0.19236 2.4942,-0.27006 3.75,-0.28125 z"
       style="opacity:0.15;fill:#ffffff;fill-opacity:1;fill-rule:nonzero;stroke:none" />
    <path
       inkscape:connector-curvature="0"
       inkscape:export-ydpi="23.039482"
       inkscape:export-xdpi="23.039482"
       inkscape:export-filename="C:\Users\Madnester\Desktop\Sketches\256.png"
       id="path4022-2"
       d="m 655.24589,99.99989 c -4.4305,0.1211 -8.9125,1.14571 -13.2145,3.09934 L 68.93263,363.33092 c -17.20808,7.81453 -24.77657,27.98624 -16.96192,45.19398 l 260.26122,573.06771 c 7.81468,17.2077 27.95795,24.77619 45.16604,16.9618 L 930.49689,738.29445 c 17.208,-7.81452 24.7766,-27.95806 16.9619,-45.1658 L 687.19749,120.03288 c -5.8611,-12.9058 -18.6599,-20.39629 -31.9516,-20.03299 z m -31.1062,90.16257 c 10.6333,-0.29066 20.8668,5.70724 25.5556,16.03202 l 208.2203,458.47661 c 6.2517,13.76638 0.1856,29.86968 -13.5808,36.12137 L 385.85568,909.01161 c -13.76646,6.2517 -29.86984,0.1857 -36.12156,-13.5807 L 141.51386,436.95428 c -6.25173,-13.76638 -0.18565,-29.86967 13.5808,-36.12138 L 613.57369,192.61375 c 3.4416,-1.56292 7.0215,-2.3544 10.566,-2.45129 z"
       style="opacity:0.3;fill:#ffffff;fill-opacity:1;fill-rule:nonzero;stroke:none" />
    <path
       style="fill:url(#linearGradient4369-546);fill-opacity:1;fill-rule:nonzero;stroke:none"
       d="m 655.24589,89.99989 c -4.4305,0.1211 -8.9125,1.14571 -13.2145,3.09934 L 68.93263,353.33092 c -17.20808,7.81453 -24.77657,27.98624 -16.96192,45.19398 l 260.26122,573.06771 c 7.81468,17.2077 27.95795,24.7762 45.16604,16.9618 L 930.49689,728.29445 c 17.208,-7.81452 24.7766,-27.95806 16.9619,-45.1658 L 687.19749,110.03288 c -5.8611,-12.9058 -18.6599,-20.39629 -31.9516,-20.03299 z m -31.1062,90.16257 c 10.6333,-0.29066 20.8668,5.70724 25.5556,16.03202 l 208.2203,458.47661 c 6.2517,13.76638 0.1856,29.86968 -13.5808,36.12137 L 385.85568,899.01161 c -13.76646,6.2517 -29.86984,0.1857 -36.12156,-13.58072 L 141.51386,426.95428 c -6.25173,-13.76638 -0.18565,-29.86967 13.5808,-36.12138 L 613.57369,182.61375 c 3.4416,-1.56292 7.0215,-2.3544 10.566,-2.45129 z"
       id="path4021-8"
       inkscape:export-filename="C:\Users\Madnester\Desktop\Sketches\256.png"
       inkscape:export-xdpi="23.039482"
       inkscape:export-ydpi="23.039482"
       inkscape:connector-curvature="0" />
    <path
       id="path4080"
       d="m 655.25,89.987183 c -4.43056,0.1211 -8.91673,1.17137 -13.21875,3.125 L 68.9375,353.33093 c -15.504455,7.04088 -23.159849,24.10238 -18.8125,40 2.594439,-9.40884 9.198075,-17.6339 18.8125,-22 L 642.03125,111.11218 c 4.30202,-1.95363 8.78819,-3.0039 13.21875,-3.125 13.29167,-0.36331 26.07647,7.12545 31.9375,20.03125 l 260.28125,573.125 c 0.77368,1.70359 1.36606,3.40992 1.84375,5.15625 2.04915,-7.42516 1.60479,-15.56274 -1.84375,-23.15625 L 687.1875,110.01843 C 681.32647,97.112633 668.54167,89.623874 655.25,89.987183 z M 140.59375,424.64343 c -2.24238,6.38984 -2.12859,13.62975 0.90625,20.3125 l 208.21875,458.46875 c 6.25172,13.76638 22.35854,19.84545 36.125,13.59375 l 458.5,-208.21875 c 13.00661,-5.90663 19.13527,-20.62855 14.5,-33.84375 -2.37477,6.77937 -7.41126,12.62457 -14.5,15.84375 l -458.5,208.21875 c -13.76646,6.2517 -29.87328,0.17263 -36.125,-13.59375 L 141.5,426.95593 c -0.3483,-0.76696 -0.63362,-1.53315 -0.90625,-2.3125 z"
       style="fill:#000000;fill-opacity:1;fill-rule:nonzero;stroke:none;opacity:0.6"
       inkscape:connector-curvature="0" />
    <g
       id="g3266"
       transform="translate(-6.0246156,-22.925557)">
      <path
         style="opacity:0.07999998;fill:#ffffff;fill-opacity:1;stroke:none"
         d="m 457.68019,147.83823 c -7.3281,37.92708 0.3208,63.03387 7.5933,100.16035 6.5809,31.70692 13.6356,64.5825 7.54,96.92781 -7.4275,30.79747 -19.9985,60.22022 -35.9762,87.49861 -1.5296,-21.88381 -0.8083,-45.08614 -11.7068,-64.8149 -13.9326,-33.4621 -33.43763,-65.61919 -61.10575,-89.34135 -17.44447,-9.07662 -41.6165,10.21148 -34.74999,29.25 6.04553,16.16343 18.25726,30.09094 19.625,47.78125 9.45029,47.56615 -4.00135,96.32242 -22.57962,139.81982 -21.7729,48.79697 -56.54653,92.92387 -64.51413,146.80517 -12.92124,82.6579 24.84422,171.6041 94.69561,217.6965 79.06878,54.1808 189.17238,56.951 272.11688,9.3348 53.5534,-29.5441 99.7156,-77.4411 117,-137.0625 14.6093,-51.6337 3.9276,-108.5863 -24.8438,-153.3125 -9.196,-15.0953 -21.1969,-28.1837 -32.3091,-41.79786 -10.5065,-15.69277 -11.2429,-35.29802 -8.0346,-53.42093 4.3769,-38.0305 21.3896,-73.36689 38.4687,-107.3125 4.3066,-14.10984 -7.8324,-29.39777 -22.3437,-29.59375 -15.4221,-1.26578 -26.5759,11.34228 -38.6166,18.83378 -24.3327,17.54476 -44.9139,40.8432 -55.856,69.06357 -20.8275,40.88276 -29.8793,87.94011 -24.0586,133.69639 1.1372,18.8045 4.5592,38.8541 -2.2188,56.8125 -9.7805,8.1466 -25.5004,1.4032 -29.6875,-9.7187 -12.9688,-21.5033 -8.5963,-49.0894 1.4833,-70.87117 22.5366,-56.75487 56.519,-110.50028 63.0167,-172.31637 4.5497,-42.11773 -14.5981,-81.61807 -33.4592,-117.9297 -46.8028,-79.33818 -56.4122,-95.2567 -89.3712,-177.614224 -21.3604,37.629304 -22.0984,38.430734 -30.1079,71.425904 z"
         id="path4142"
         inkscape:connector-curvature="0"
         sodipodi:nodetypes="cccccccccccccccccccccccccccc" />
      <path
         style="opacity:0.1;fill:#ffffff;fill-opacity:1;stroke:none"
         d="m 462.67509,175.62964 c 1.2074,59.9317 25.6025,103.04319 19.716,163.36969 -7.0066,35.07822 -22.1731,68.12966 -39.2413,99.42567 -3.1419,4.91533 -6.5362,9.71242 -11.1875,13.25 -7.3311,-24.26273 0,-51.61914 -11.7855,-74.84377 -12.7504,-33.93008 -32.56125,-65.56083 -58.4958,-90.81248 -11.60124,-6.58571 -29.09375,5.24083 -24.87499,18.65625 4.12983,13.51459 15.07731,24.10911 17.31999,38.39491 12.54279,43.18791 3.58016,89.35279 -10.75439,130.92028 -16.28156,46.23008 -45.21912,86.5437 -64.03481,131.6565 -25.73211,70.4144 -8.82178,153.4421 39.75046,209.8408 54.95464,64.6646 147.01574,90.7583 229.27364,74.4515 55.85,-10.6783 107.4404,-40.7231 145.5536,-82.6039 32.4286,-35.6788 53.237,-83.3918 49.8972,-132.2522 -2.3275,-46.6085 -22.9992,-91.3664 -55.2557,-124.8141 -11.9422,-14.41359 -19.9458,-33.01572 -17.3125,-52.06254 1.6616,-41.97911 17.5423,-82.05396 37.5625,-118.625 3.2944,-6.30448 4.6693,-14.95426 -1.5,-19.96875 -7.4461,-7.12236 -20.4922,-6.85212 -27.5559,0.7032 -27.1332,17.32758 -54.0814,38.73824 -66.2797,69.49693 -20.0705,37.52104 -32.4623,80.35583 -28.2144,123.26726 0.8479,24.7848 5.9069,50.5281 -1.2,74.6889 -10.217,14.0199 -33.4029,9.9673 -41.8125,-3.9688 -16.7926,-22.2246 -14.3325,-53.3233 -3.9164,-77.8998 21.5893,-56.63702 56.0988,-109.36548 63.7914,-170.50644 3.2412,-23.57177 -0.875,-47.48572 -9.7271,-69.40628 -18.1928,-46.88237 -46.4509,-88.96692 -69.1986,-133.69507 -20.1521,-39.77945 -18.4554,-42.15875 -36.1817,-80.834714 -20.8436,32.973434 -25.0911,52.433754 -24.336,84.171954 z"
         id="path4132"
         inkscape:connector-curvature="0"
         sodipodi:nodetypes="ccccccccccccccccccccccccccccc" />
      <path
         style="opacity:0.15;fill:#ffffff;fill-opacity:1;stroke:none"
         d="m 469.39229,174.49398 c 1.1381,58.86356 25.6837,101.99133 21.6637,161.14977 -4.3571,30.82348 -18.1496,59.22988 -30.3431,87.58701 -7.2742,14.75192 -15.7841,30.30828 -29.7819,39.53799 -5.0927,0.50503 -5.1648,-6.09709 -6.9375,-9.3125 -7.0929,-22.40646 -0.1229,-47.63396 -9.75,-69.59375 -11.31563,-33.45462 -31.27082,-63.42299 -54.625,-89.625 -5.97569,-4.6613 -17.13209,-0.11688 -15.09374,8.21875 1.93035,9.42203 10.21369,15.93538 12.65625,25.21875 17.96614,43.31356 11.29051,92.50825 -1.95608,135.95399 -13.82633,44.7038 -38.66199,84.8853 -60.45017,125.9835 -18.60482,39.0269 -24.56695,84.2112 -15.05177,126.5739 11.84313,60.031 51.08298,114.2585 105.70801,142.1136 70.9169,38.3764 161.6772,37.723 231.9448,-1.7206 49.404,-26.2029 92.5497,-68.4773 110.8677,-122.1231 18.3757,-56.7682 3.3054,-121.7967 -35.3662,-166.5738 -13.5667,-16.2939 -29.1591,-33.85861 -29.4521,-56.26503 -2.3633,-33.65551 7.9288,-66.45905 19.4433,-97.62996 6.0117,-14.90006 14.4637,-28.94621 21.2812,-43.21875 -0.3055,-8.58548 -12.4748,-10.95419 -17.6875,-5.25 -25.3215,16.64659 -52.0759,35.13371 -63.8613,64.21133 -17.4513,33.07566 -31.5184,69.4984 -29.6074,107.56992 -0.1874,29.91009 5.8685,60.24469 0.2813,89.87499 -5.8037,16.8592 -28.0182,21.1717 -42.625,13.9063 -15.6869,-7.3098 -23.7298,-24.7916 -27.1563,-40.9063 -4.7018,-23.624 2.3426,-47.301 11.9768,-68.73623 22.0376,-53.59182 53.8265,-104.81018 59.492,-163.54501 3.3254,-35.68829 -13.4136,-68.88035 -28.5938,-99.9375 -32.8342,-65.57662 -59.1178,-101.76854 -80.5094,-165.03014 -14.1252,24.62245 -17.6253,49.16506 -16.4668,71.56787 z"
         id="path4120"
         inkscape:connector-curvature="0"
         sodipodi:nodetypes="cccccccccccccccccccccccccccccc" />
      <path
         style="opacity:0.3;fill:#ffffff;fill-opacity:1;stroke:none"
         d="m 354.53662,302.71758 c 0,0 59.77867,68.24093 -11.13836,217.31784 -25.45921,53.51857 -63.64805,94.06297 -57.28319,168.66457 10.50891,123.1736 111.38392,188.1259 216.40312,188.1259 105.0191,0 216.4032,-84.3323 222.7679,-178.3952 6.3648,-94.063 -50.9184,-126.4985 -66.8304,-162.17751 -15.912,-35.67905 4.7736,-116.76781 33.4153,-162.17748 -44.5537,30.8137 -49.3273,30.8137 -77.9689,98.92826 -28.6415,68.11453 12.9493,154.80793 -25.4592,175.15163 -48.7782,25.8364 -88.347,-32.0585 -73.1951,-89.1976 15.9119,-60.00565 64.7251,-122.04902 70.0128,-197.85649 4.4027,-63.11999 -87.516,-171.90816 -100.2456,-238.40093 -25.4592,55.14035 32.2394,168.46393 12.7296,231.91382 -41.9807,136.53048 -88.7834,151.23986 -87.5159,63.24922 0.7264,-50.43208 -55.69207,-115.14603 -55.69207,-115.14603 z"
         id="path4118"
         inkscape:connector-curvature="0"
         sodipodi:nodetypes="cssssscsssscssc"
         inkscape:export-filename="C:\Users\Madnester\Desktop\Sketches\256.png"
         inkscape:export-xdpi="23.039482"
         inkscape:export-ydpi="23.039482" />
      <path
         inkscape:export-ydpi="23.039482"
         inkscape:export-xdpi="23.039482"
         inkscape:export-filename="C:\Users\Madnester\Desktop\Sketches\256.png"
         sodipodi:nodetypes="cssssscsssscssc"
         inkscape:connector-curvature="0"
         id="path4019-2"
         d="m 354.53662,294.71758 c 0,0 59.77867,68.24093 -11.13836,217.31784 -25.45921,53.51857 -63.64805,94.06297 -57.28319,168.66457 10.50891,123.1736 111.38392,188.1259 216.40312,188.1259 105.0191,0 216.4032,-84.3323 222.7679,-178.3952 6.3648,-94.063 -50.9184,-126.4985 -66.8304,-162.17751 -15.912,-35.67905 4.7736,-116.76781 33.4153,-162.17748 -44.5537,30.8137 -49.3273,30.8137 -77.9689,98.92826 -28.6415,68.11453 12.9493,154.80793 -25.4592,175.15163 -48.7782,25.8364 -88.347,-32.0585 -73.1951,-89.1976 15.9119,-60.00565 64.7251,-122.04902 70.0128,-197.85649 4.4027,-63.11999 -87.516,-171.90816 -100.2456,-238.40093 -25.4592,55.14035 32.2394,168.46393 12.7296,231.91382 -41.9807,136.53048 -88.7834,151.23986 -87.5159,63.24922 0.7264,-50.43208 -55.69207,-115.14603 -55.69207,-115.14603 z"
         style="fill:url(#linearGradient3276);fill-opacity:1;stroke:none" />
      <path
         inkscape:connector-curvature="0"
         style="opacity:0.6;fill:#000000;fill-opacity:1;stroke:none"
         d="m 485.02429,114.69354 c -5.8378,12.64387 -7.3172,28.3529 -6.3437,45.8125 0.6546,-10.29824 2.5947,-19.69261 6.3437,-27.8125 11.8746,62.0268 92.6196,160.8608 99.8438,225.09375 0.1465,-1.56099 0.2965,-3.11476 0.4062,-4.6875 4.4028,-63.11999 -87.5204,-171.91348 -100.25,-238.40625 z m -129.84371,180.8125 c 2.61835,3.33869 12.51312,17.13652 18.40624,42.125 16.30282,23.46267 37.09907,59.47438 36.65627,90.21875 -1.2675,87.99064 45.5192,73.28048 87.5,-63.25 3.6943,-12.0146 4.5974,-25.7988 3.8437,-40.65625 -0.4891,8.06098 -1.6932,15.66245 -3.8437,22.65625 -41.9808,136.53048 -88.7675,151.24064 -87.5,63.25 0.7018,-48.72565 -51.49934,-110.19996 -55.06251,-114.34375 z m 336.68751,70.5625 c -44.5537,30.8137 -49.3272,30.82294 -77.9688,98.9375 -9.9173,23.58519 -11.4055,49.39181 -10.7187,73.90625 0.5597,-18.88999 3.2062,-38.04008 10.7187,-55.90625 25.0922,-59.67337 31.8741,-67.08345 63.125,-88.71875 4.5555,-10.2743 9.57,-19.85753 14.8438,-28.21875 z m -313.96877,21.25 c -1.35222,32.52288 -10.3376,73.9262 -34.49999,124.71875 -24.64523,51.8075 -61.21021,91.4701 -57.75,161.625 2.94941,-59.3006 35.29207,-96.4155 57.75,-143.625 28.87092,-60.69049 36.09949,-107.97352 34.49999,-142.71875 z m 275.34377,117.40625 c -0.9591,16.41097 0.5098,30.97249 5.2187,41.5312 14.5268,32.5731 63.5141,62.4414 67.0938,138.9688 3.9454,-90.0637 -51.4794,-121.9571 -67.0938,-156.96875 -2.8994,-6.50132 -4.5763,-14.50505 -5.2187,-23.53125 z m -140.8438,80.4375 c -4.6898,51.1615 31.8794,96.3859 76.0313,73 16.1478,-8.553 18.1563,-28.8655 17.1875,-54.5625 -0.8952,17.0242 -5.0385,30.1275 -17.1875,36.5625 -38.8702,20.5884 -71.887,-12.0004 -76.0313,-55 z"
         id="path4082" />
    </g>
  </g>
</svg>
