<?xml version="1.0" encoding="UTF-8" standalone="no"?>
<!-- Created with Inkscape (http://www.inkscape.org/) -->

<svg
   xmlns:dc="http://purl.org/dc/elements/1.1/"
   xmlns:cc="http://creativecommons.org/ns#"
   xmlns:rdf="http://www.w3.org/1999/02/22-rdf-syntax-ns#"
   xmlns:svg="http://www.w3.org/2000/svg"
   xmlns="http://www.w3.org/2000/svg"
   xmlns:xlink="http://www.w3.org/1999/xlink"
   xmlns:sodipodi="http://sodipodi.sourceforge.net/DTD/sodipodi-0.dtd"
   xmlns:inkscape="http://www.inkscape.org/namespaces/inkscape"
   sodipodi:docname="im-msn.svg"
   inkscape:version="0.48.0 r9654"
   version="1.1"
   id="svg2"
   height="256"
   width="256">
  <defs
     id="defs4">
    <linearGradient
       id="linearGradient4129">
      <stop
         style="stop-color:#33261c;stop-opacity:1;"
         offset="0"
         id="stop4131" />
      <stop
         id="stop4139"
         offset="0.38704002"
         style="stop-color:#5f4f43;stop-opacity:1;" />
      <stop
         style="stop-color:#33261c;stop-opacity:1;"
         offset="1"
         id="stop4133" />
    </linearGradient>
    <linearGradient
       id="linearGradient3891-1">
      <stop
         style="stop-color:#000000;stop-opacity:1;"
         offset="0"
         id="stop3893-2" />
      <stop
         style="stop-color:#ffffff;stop-opacity:0.45045045;"
         offset="1"
         id="stop3895-2" />
    </linearGradient>
    <linearGradient
       id="linearGradient3289">
      <stop
         style="stop-color:#000000;stop-opacity:1;"
         offset="0"
         id="stop3291" />
      <stop
         style="stop-color:#ffffff;stop-opacity:0.45045045;"
         offset="1"
         id="stop3293" />
    </linearGradient>
    <linearGradient
       id="linearGradient3296">
      <stop
         style="stop-color:#000000;stop-opacity:1;"
         offset="0"
         id="stop3298" />
      <stop
         style="stop-color:#ffffff;stop-opacity:0.45045045;"
         offset="1"
         id="stop3300" />
    </linearGradient>
    <linearGradient
       id="linearGradient3303">
      <stop
         style="stop-color:#000000;stop-opacity:1;"
         offset="0"
         id="stop3305" />
      <stop
         style="stop-color:#ffffff;stop-opacity:0.45045045;"
         offset="1"
         id="stop3307" />
    </linearGradient>
    <linearGradient
       id="linearGradient3310">
      <stop
         style="stop-color:#000000;stop-opacity:1;"
         offset="0"
         id="stop3312" />
      <stop
         style="stop-color:#ffffff;stop-opacity:0.45045045;"
         offset="1"
         id="stop3314" />
    </linearGradient>
    <linearGradient
       id="linearGradient3916-0">
      <stop
         style="stop-color:#636363;stop-opacity:1;"
         offset="0"
         id="stop3918-6" />
      <stop
         id="stop3924-0"
         offset="0.5"
         style="stop-color:#ffffff;stop-opacity:0;" />
      <stop
         style="stop-color:#474747;stop-opacity:1;"
         offset="1"
         id="stop3920-3" />
    </linearGradient>
    <linearGradient
       id="linearGradient3985-7">
      <stop
         style="stop-color:#ffffff;stop-opacity:1;"
         offset="0"
         id="stop3987-6" />
      <stop
         style="stop-color:#363411;stop-opacity:0;"
         offset="1"
         id="stop3989-0" />
    </linearGradient>
    <radialGradient
       inkscape:collect="always"
       xlink:href="#linearGradient3997-9"
       id="radialGradient4402"
       gradientUnits="userSpaceOnUse"
       gradientTransform="matrix(1.0307314,0.70140738,-0.56919901,0.81590912,-294.18744,510.67726)"
       cx="-260.30264"
       cy="289.108"
       fx="-260.30264"
       fy="289.108"
       r="398" />
    <linearGradient
       id="linearGradient3997-9">
      <stop
         style="stop-color:#ffffff;stop-opacity:1;"
         offset="0"
         id="stop3999-5" />
      <stop
         id="stop4005-4"
         offset="0.44365835"
         style="stop-color:#ffffff;stop-opacity:0;" />
      <stop
         style="stop-color:#d3ca32;stop-opacity:0.81981981;"
         offset="1"
         id="stop4001-9" />
    </linearGradient>
    <linearGradient
       id="linearGradient4726">
      <stop
         style="stop-color:#ffffff;stop-opacity:0;"
         offset="0"
         id="stop4728" />
      <stop
         id="stop4734"
         offset="0.5"
         style="stop-color:#ffffff;stop-opacity:0.73873872;" />
      <stop
         style="stop-color:#000000;stop-opacity:1;"
         offset="1"
         id="stop4730" />
    </linearGradient>
    <linearGradient
       id="linearGradient4003">
      <stop
         style="stop-color:#0d300c;stop-opacity:1;"
         offset="0"
         id="stop4006" />
      <stop
         style="stop-color:#3ba246;stop-opacity:0;"
         offset="1"
         id="stop4008" />
    </linearGradient>
    <linearGradient
       id="linearGradient4754">
      <stop
         style="stop-color:#9ef58c;stop-opacity:0;"
         offset="0"
         id="stop4756" />
      <stop
         id="stop4762"
         offset="0.7684527"
         style="stop-color:#c5ffba;stop-opacity:1;" />
      <stop
         style="stop-color:#9ef58c;stop-opacity:0;"
         offset="1"
         id="stop4758" />
    </linearGradient>
    <radialGradient
       inkscape:collect="always"
       xlink:href="#linearGradient4813"
       id="radialGradient4012"
       gradientUnits="userSpaceOnUse"
       gradientTransform="matrix(2.0895106,-0.46453523,0.36061815,1.6220847,-545.78583,-73.906141)"
       cx="377.25143"
       cy="399.78336"
       fx="377.25143"
       fy="399.78336"
       r="154.28572" />
    <linearGradient
       id="linearGradient4813">
      <stop
         style="stop-color:#ffffff;stop-opacity:0.60747664"
         offset="0"
         id="stop4815" />
      <stop
         style="stop-color:#a5c20f;stop-opacity:0;"
         offset="1"
         id="stop4817" />
    </linearGradient>
    <linearGradient
       id="linearGradient3970">
      <stop
         style="stop-color:#fffacf;stop-opacity:1;"
         offset="0"
         id="stop3972" />
      <stop
         style="stop-color:#ff7000;stop-opacity:1;"
         offset="1"
         id="stop3974" />
    </linearGradient>
    <linearGradient
       id="linearGradient3411">
      <stop
         style="stop-color:#fffacf;stop-opacity:1;"
         offset="0"
         id="stop3413" />
      <stop
         style="stop-color:#ff7000;stop-opacity:1;"
         offset="1"
         id="stop3415" />
    </linearGradient>
    <radialGradient
       inkscape:collect="always"
       xlink:href="#linearGradient3970"
       id="radialGradient4365"
       gradientUnits="userSpaceOnUse"
       gradientTransform="matrix(1.6048911,2.0062253,-1.4966285,1.2502573,3100.0374,-4583.111)"
       cx="1045.1827"
       cy="2398.6892"
       fx="1045.1827"
       fy="2398.6892"
       r="191.22911" />
    <linearGradient
       id="linearGradient3418">
      <stop
         style="stop-color:#fffacf;stop-opacity:1;"
         offset="0"
         id="stop3420" />
      <stop
         style="stop-color:#ff7000;stop-opacity:1;"
         offset="1"
         id="stop3422" />
    </linearGradient>
    <linearGradient
       id="linearGradient7171-6">
      <stop
         style="stop-color:#ffffff;stop-opacity:1;"
         offset="0"
         id="stop7173-1" />
      <stop
         id="stop7179-3"
         offset="0.44148755"
         style="stop-color:#ffdf95;stop-opacity:0.11711711;" />
      <stop
         style="stop-color:#aa7500;stop-opacity:1;"
         offset="1"
         id="stop7175-4" />
    </linearGradient>
    <linearGradient
       id="linearGradient7190-7">
      <stop
         style="stop-color:#000000;stop-opacity:1;"
         offset="0"
         id="stop7192-6" />
      <stop
         id="stop7198-8"
         offset="0.5"
         style="stop-color:#ffffff;stop-opacity:0;" />
      <stop
         style="stop-color:#000000;stop-opacity:1;"
         offset="1"
         id="stop7194-5" />
    </linearGradient>
    <linearGradient
       id="linearGradient3451">
      <stop
         style="stop-color:#000000;stop-opacity:1;"
         offset="0"
         id="stop3453" />
      <stop
         id="stop3455"
         offset="0.5"
         style="stop-color:#ffffff;stop-opacity:0;" />
      <stop
         style="stop-color:#000000;stop-opacity:1;"
         offset="1"
         id="stop3457" />
    </linearGradient>
    <linearGradient
       id="linearGradient7374">
      <stop
         style="stop-color:#d8d8d8;stop-opacity:1;"
         offset="0"
         id="stop7376" />
      <stop
         id="stop7382"
         offset="0.5"
         style="stop-color:#cfcfcf;stop-opacity:1;" />
      <stop
         style="stop-color:#dfdfdf;stop-opacity:1;"
         offset="1"
         id="stop7378" />
    </linearGradient>
    <linearGradient
       id="linearGradient7455">
      <stop
         style="stop-color:#b2b2b2;stop-opacity:0;"
         offset="0"
         id="stop7457" />
      <stop
         id="stop7463"
         offset="0.5"
         style="stop-color:#5e5e5e;stop-opacity:1;" />
      <stop
         style="stop-color:#b2b2b2;stop-opacity:0;"
         offset="1"
         id="stop7459" />
    </linearGradient>
    <linearGradient
       id="linearGradient6976">
      <stop
         style="stop-color:#8cb8f1;stop-opacity:1;"
         offset="0"
         id="stop6978" />
      <stop
         style="stop-color:#3851a0;stop-opacity:1;"
         offset="1"
         id="stop6980" />
    </linearGradient>
    <radialGradient
       inkscape:collect="always"
       xlink:href="#linearGradient4101-9"
       id="radialGradient4297"
       gradientUnits="userSpaceOnUse"
       gradientTransform="matrix(0.05169176,-0.27438973,0.56089593,0.08074168,-1198.243,3810.2984)"
       cx="2458.448"
       cy="4019.1724"
       fx="2458.448"
       fy="4019.1724"
       r="441.49512" />
    <linearGradient
       id="linearGradient4101-9">
      <stop
         style="stop-color:#00b2ff;stop-opacity:1;"
         offset="0"
         id="stop4103-3" />
      <stop
         style="stop-color:#0057bf;stop-opacity:1;"
         offset="1"
         id="stop4105-8" />
    </linearGradient>
    <radialGradient
       inkscape:collect="always"
       xlink:href="#linearGradient4123-5"
       id="radialGradient4295"
       gradientUnits="userSpaceOnUse"
       gradientTransform="matrix(-0.31424354,0.01236544,-0.02480232,-0.4816276,2153.4928,5571.4903)"
       cx="2585.0479"
       cy="4363.1562"
       fx="2585.0479"
       fy="4363.1562"
       r="284.96078" />
    <linearGradient
       id="linearGradient4123-5">
      <stop
         id="stop4125-6"
         offset="0"
         style="stop-color:#5ddd00;stop-opacity:1;" />
      <stop
         id="stop4127-8"
         offset="1"
         style="stop-color:#005700;stop-opacity:1;" />
    </linearGradient>
    <radialGradient
       inkscape:collect="always"
       xlink:href="#linearGradient4137-7"
       id="radialGradient4293"
       gradientUnits="userSpaceOnUse"
       gradientTransform="matrix(0.51425368,0.00971485,-0.02393249,0.96803471,-127.18838,-581.71077)"
       cx="2953.866"
       cy="4024.6326"
       fx="2953.866"
       fy="4024.6326"
       r="441.49512" />
    <linearGradient
       id="linearGradient4137-7">
      <stop
         style="stop-color:#ff8d00;stop-opacity:1;"
         offset="0"
         id="stop4139-8" />
      <stop
         style="stop-color:#ff0022;stop-opacity:1;"
         offset="1"
         id="stop4141-4" />
    </linearGradient>
    <radialGradient
       inkscape:collect="always"
       xlink:href="#linearGradient4151-3"
       id="radialGradient4291"
       gradientUnits="userSpaceOnUse"
       gradientTransform="matrix(-0.10801785,0.40484014,-0.84141158,-0.17154672,5406.122,3008.4874)"
       cx="2965.6528"
       cy="4402.6196"
       fx="2965.6528"
       fy="4402.6196"
       r="284.96078" />
    <linearGradient
       id="linearGradient4151-3">
      <stop
         id="stop4153-3"
         offset="0"
         style="stop-color:#ffffad;stop-opacity:1;" />
      <stop
         id="stop4155-4"
         offset="1"
         style="stop-color:#ffcd00;stop-opacity:1;" />
    </linearGradient>
    <radialGradient
       inkscape:collect="always"
       xlink:href="#linearGradient4101-9"
       id="radialGradient4289"
       gradientUnits="userSpaceOnUse"
       gradientTransform="matrix(0.05169176,-0.27438973,0.56089593,0.08074168,-1198.243,3810.2984)"
       cx="2458.448"
       cy="4019.1724"
       fx="2458.448"
       fy="4019.1724"
       r="441.49512" />
    <linearGradient
       id="linearGradient3528">
      <stop
         style="stop-color:#00b2ff;stop-opacity:1;"
         offset="0"
         id="stop3530" />
      <stop
         style="stop-color:#0057bf;stop-opacity:1;"
         offset="1"
         id="stop3532" />
    </linearGradient>
    <radialGradient
       inkscape:collect="always"
       xlink:href="#linearGradient4123-5"
       id="radialGradient4287"
       gradientUnits="userSpaceOnUse"
       gradientTransform="matrix(-0.31424354,0.01236544,-0.02480232,-0.4816276,2153.4928,5571.4903)"
       cx="2585.0479"
       cy="4363.1562"
       fx="2585.0479"
       fy="4363.1562"
       r="284.96078" />
    <linearGradient
       id="linearGradient3535">
      <stop
         id="stop3537"
         offset="0"
         style="stop-color:#5ddd00;stop-opacity:1;" />
      <stop
         id="stop3539"
         offset="1"
         style="stop-color:#005700;stop-opacity:1;" />
    </linearGradient>
    <radialGradient
       inkscape:collect="always"
       xlink:href="#linearGradient4137-7"
       id="radialGradient4285"
       gradientUnits="userSpaceOnUse"
       gradientTransform="matrix(0.51425368,0.00971485,-0.02393249,0.96803471,-127.18838,-581.71077)"
       cx="2953.866"
       cy="4024.6326"
       fx="2953.866"
       fy="4024.6326"
       r="441.49512" />
    <linearGradient
       id="linearGradient3542">
      <stop
         style="stop-color:#ff8d00;stop-opacity:1;"
         offset="0"
         id="stop3544" />
      <stop
         style="stop-color:#ff0022;stop-opacity:1;"
         offset="1"
         id="stop3546" />
    </linearGradient>
    <radialGradient
       inkscape:collect="always"
       xlink:href="#linearGradient4151-3"
       id="radialGradient4283"
       gradientUnits="userSpaceOnUse"
       gradientTransform="matrix(-0.10801785,0.40484014,-0.84141158,-0.17154672,5406.122,3008.4874)"
       cx="2965.6528"
       cy="4402.6196"
       fx="2965.6528"
       fy="4402.6196"
       r="284.96078" />
    <linearGradient
       id="linearGradient3549">
      <stop
         id="stop3551"
         offset="0"
         style="stop-color:#ffffad;stop-opacity:1;" />
      <stop
         id="stop3553"
         offset="1"
         style="stop-color:#ffcd00;stop-opacity:1;" />
    </linearGradient>
    <radialGradient
       r="284.96078"
       fy="4402.6196"
       fx="2965.6528"
       cy="4402.6196"
       cx="2965.6528"
       gradientTransform="matrix(-0.10801785,0.40484014,-0.84141158,-0.17154672,5406.122,3008.4874)"
       gradientUnits="userSpaceOnUse"
       id="radialGradient3568"
       xlink:href="#linearGradient4151-3"
       inkscape:collect="always" />
    <linearGradient
       inkscape:collect="always"
       xlink:href="#linearGradient4129"
       id="linearGradient4137"
       x1="116.58603"
       y1="983.2641"
       x2="134.67393"
       y2="965.58643"
       gradientUnits="userSpaceOnUse" />
  </defs>
  <sodipodi:namedview
     id="base"
     pagecolor="#ffffff"
     bordercolor="#666666"
     borderopacity="1.0"
     inkscape:pageopacity="0.0"
     inkscape:pageshadow="2"
     inkscape:zoom="0.49497475"
     inkscape:cx="136.16394"
     inkscape:cy="71.777816"
     inkscape:document-units="px"
     inkscape:current-layer="layer1"
     showgrid="false"
     inkscape:window-width="1249"
     inkscape:window-height="742"
     inkscape:window-x="0"
     inkscape:window-y="23"
     inkscape:window-maximized="1" />
  <metadata
     id="metadata7">
    <rdf:RDF>
      <cc:Work
         rdf:about="">
        <dc:format>image/svg+xml</dc:format>
        <dc:type
           rdf:resource="http://purl.org/dc/dcmitype/StillImage" />
        <dc:title />
      </cc:Work>
    </rdf:RDF>
  </metadata>
  <g
     inkscape:label="Layer 1"
     inkscape:groupmode="layer"
     id="layer1"
     transform="translate(0,-796.36215)">
    <path
       sodipodi:nodetypes="csczcsccc"
       inkscape:connector-curvature="0"
       id="path4141"
       d="m 107.86889,962.03845 c -1.31313,4.72411 1.52035,7.85252 9.68204,16.94615 6.21807,6.92807 3.61753,1.33598 12.82107,10.90041 -2.65835,19.80839 32.64867,41.38899 40.6044,34.08359 7.95419,-7.3072 -15.86724,-40.33244 -33.25848,-42.48254 -8.91913,-9.82562 -3.46697,-7.19398 -9.96177,-13.86784 -8.52493,-8.75993 -8.29382,-12.42478 -13.14492,-11.48608 -5.20929,-8.06789 -10.85954,-16.76029 -16.093016,-11.95252 -6.560881,9.51926 5.517186,12.49206 9.350676,17.85883 z"
       style="fill:url(#linearGradient4137);fill-opacity:1;fill-rule:nonzero;stroke:#a7a7a7;stroke-opacity:1;stroke-width:8;stroke-miterlimit:4;stroke-dasharray:none" />
    <g
       id="g4304"
       transform="matrix(0.32,0,0,0.32,-279.07557,-132.61699)"
       inkscape:export-filename="C:\Users\Madnester\Desktop\j32.png"
       inkscape:export-xdpi="10.591404"
       inkscape:export-ydpi="10.591404">
      <path
         inkscape:connector-curvature="0"
         id="path4260"
         d="m 1304.2125,2915.5602 c -70.2958,0.081 -96.4816,75.0819 -101.4441,193.0337 -0.3084,7.3276 -0.4918,15.0581 -0.5466,23.1 -9e-4,0.1307 8e-4,0.2627 0,0.3935 -0.01,1.1177 -0.013,2.2425 -0.016,3.3723 0,1.292 0,2.5705 0,3.8781 0,0.2871 0,0.5694 0,0.8571 0,0.3012 0,0.5973 0,0.8993 0.01,1.2954 0.02,2.5966 0.032,3.9061 0.012,1.3227 0.03,2.6541 0.048,3.9905 0.01,0.5913 0.01,1.1764 0.016,1.7704 0.013,0.869 0.032,1.739 0.048,2.6135 0.051,2.8368 0.114,5.6943 0.193,8.5853 0.032,1.1425 0.06,2.278 0.096,3.4284 0,0.099 0.013,0.1962 0.016,0.2951 0.036,1.1691 0.072,2.3499 0.1126,3.5268 0.022,0.6409 0.04,1.2819 0.065,1.9251 0.012,0.334 0.02,0.6629 0.032,0.9976 0.047,1.252 0.1086,2.5057 0.1607,3.7657 0.1362,3.2977 0.2801,6.6016 0.4501,9.9482 0.1123,2.2149 0.2424,4.4546 0.3696,6.6883 0.01,0.1265 0.01,0.2527 0.016,0.3793 0.1165,2.0324 0.2413,4.0663 0.3698,6.1123 0.1643,2.6141 0.3303,5.2354 0.5142,7.8684 0.114,1.629 0.2485,3.269 0.3699,4.9041 0.096,1.2949 0.1885,2.5936 0.2893,3.892 0.095,1.2227 0.1902,2.442 0.2894,3.6673 0.2412,2.9832 0.4893,5.9692 0.7554,8.9646 0.1789,2.0152 0.3566,4.0371 0.5465,6.0561 0.035,0.3796 0.076,0.7584 0.1126,1.1382 0.1795,1.8875 0.3734,3.7733 0.5626,5.6625 0.083,0.8199 0.157,1.639 0.241,2.459 0.1903,1.8576 0.3793,3.7203 0.5788,5.5782 0.032,0.3043 0.063,0.609 0.096,0.9133 0.4107,3.7972 0.8524,7.5922 1.3019,11.3814 0.1105,0.9314 0.2247,1.8655 0.3375,2.7961 0.2516,2.0744 0.5086,4.1416 0.7716,6.2105 0.04,0.3182 0.072,0.6374 0.1126,0.9556 0.035,0.2811 0.077,0.562 0.1125,0.8431 0.021,0.1594 0.043,0.3183 0.065,0.4777 0.212,1.6381 0.4238,3.2846 0.643,4.9178 0.04,0.3038 0.088,0.6097 0.1285,0.9133 0.2448,1.8117 0.502,3.6193 0.7555,5.4238 0.1491,1.0597 0.2819,2.1187 0.4339,3.1756 0.1566,1.0885 0.3226,2.1745 0.4825,3.2598 0.1483,1.0078 0.2987,2.0162 0.4501,3.021 0.5878,3.9076 1.2026,7.7783 1.8322,11.6343 0.1343,0.8211 0.2659,1.6404 0.402,2.459 0.3197,1.9229 0.6344,3.8395 0.9645,5.7469 0.033,0.1924 0.08,0.3838 0.1124,0.5761 0.3443,1.9811 0.6894,3.9671 1.0449,5.9295 0.04,0.2237 0.089,0.4509 0.1286,0.6745 2.0267,11.1331 4.2357,21.942 6.6224,32.2893 0.064,0.2807 0.128,0.5629 0.193,0.8432 0.4279,1.8426 0.8468,3.6678 1.286,5.4798 0.034,0.1447 0.078,0.2911 0.1124,0.4355 1.4756,6.0659 3.0111,11.959 4.6133,17.6342 0.03,0.107 0.067,0.2162 0.096,0.3231 0.5436,1.9199 1.0816,3.8067 1.6396,5.6766 0.01,0.025 0.025,0.046 0.032,0.07 0.5453,1.8262 1.0963,3.6335 1.6554,5.4098 0.015,0.047 0.034,0.093 0.048,0.1404 0.5443,1.7268 1.0985,3.4375 1.6557,5.1145 0.025,0.075 0.055,0.1507 0.081,0.2249 0.8617,2.5875 1.7276,5.1252 2.6201,7.5876 0.3251,0.8971 0.6675,1.7761 0.9965,2.6558 0.1878,0.5018 0.3735,1.0071 0.5627,1.5033 0.7706,2.0219 1.5544,3.9919 2.3469,5.9155 0.2331,0.5659 0.4561,1.1291 0.6911,1.6862 0.1575,0.3734 0.324,0.7407 0.4822,1.11 0.4613,1.0759 0.9302,2.1343 1.3985,3.1757 0.1456,0.3234 0.2879,0.6492 0.4341,0.9694 0.097,0.2124 0.1919,0.4354 0.2893,0.6463 0.045,0.1664 0.093,0.3379 0.1445,0.5058 0.013,0.043 0.034,0.083 0.048,0.1265 0.1833,0.5801 0.3901,1.172 0.6429,1.7704 0.024,0.055 0.04,0.1131 0.065,0.1686 0.084,0.1926 0.1833,0.3819 0.2734,0.5762 0.092,0.2005 0.1893,0.4018 0.2893,0.6043 0.018,0.036 0.03,0.076 0.048,0.1123 0.1399,0.2801 0.2965,0.5594 0.4501,0.8431 0.063,0.1166 0.1274,0.2341 0.193,0.3513 0.089,0.1584 0.1645,0.3181 0.2572,0.4778 0.083,0.1417 0.1714,0.2788 0.2572,0.4214 0.3742,0.6235 0.7851,1.2572 1.2216,1.8969 0.2417,0.4555 0.4798,0.9168 0.7233,1.363 0.6905,1.2648 1.3855,2.4922 2.0897,3.6813 0,0.01 0.013,0.01 0.016,0.014 0.2501,0.4222 0.5035,0.8381 0.7555,1.2506 0.2694,0.4412 0.5322,0.8766 0.8037,1.3067 0.081,0.1268 0.1609,0.2535 0.2411,0.3793 0.2514,0.3944 0.5024,0.7817 0.7555,1.1664 0.056,0.087 0.12,0.1673 0.1769,0.2529 0.199,0.3004 0.3946,0.605 0.5947,0.8993 0.3076,0.4521 0.6221,0.8973 0.9323,1.3348 0.038,0.055 0.074,0.1139 0.1125,0.1686 0.014,0.02 0.034,0.036 0.048,0.056 9.1859,16.6107 19.5861,26.6454 31.1355,27.2309 52.98,37.606 151.6027,83.6252 215.0887,105.6641 92.6189,32.1522 143.4358,35.2423 154.5854,-8.3462 4.5263,-17.6955 -4.6282,-46.6126 -23.7254,-75.356 0,0 0,-0.01 0,-0.014 -0.6453,-1.102 -1.3015,-2.1973 -1.9773,-3.302 -2.0293,-3.3176 -4.1967,-6.6436 -6.4938,-9.9621 -0.7649,-1.1054 -1.5373,-2.1995 -2.3308,-3.3022 -3.1768,-4.4136 -6.5694,-8.8017 -10.191,-13.1237 -0.9048,-1.0799 -1.8335,-2.1469 -2.7647,-3.2176 -1.473,-1.6934 -2.9786,-3.3777 -4.517,-5.0445 4.0903,4.152 7.9835,8.4238 11.6537,12.7584 -28.9294,-36.7403 -73.4952,-69.9867 -125.6035,-75.0045 -34.01,-3.2751 -66.3539,-5.486 -95.7861,-6.3793 43.8852,-56.5744 87.0005,-134.4423 110.2369,-211.258 13.5243,-44.7094 0.3169,-89.6237 -25.3491,-128.5112 -4.6158,-7.8342 -9.7559,-15.457 -15.3188,-22.8189 -0.5943,-0.7864 -1.1967,-1.5662 -1.8004,-2.3467 -1.2113,-1.566 -2.4333,-3.1095 -3.6809,-4.6508 -0.6174,-0.7627 -1.2387,-1.5198 -1.8644,-2.2763 0,-0.01 -0.012,-0.01 -0.016,-0.014 -0.1666,-0.2015 -0.331,-0.4032 -0.4982,-0.6043 -0.4639,-0.5573 -0.9301,-1.1182 -1.3985,-1.672 -0.6387,-0.7553 -1.2822,-1.4994 -1.929,-2.2482 -2.3109,-2.6753 -4.6657,-5.3086 -7.0726,-7.8967 4.8969,5.0085 9.6323,10.1986 14.1614,15.5545 -44.7395,-56.2059 -113.206,-96.0572 -154.6015,-97.388 -1.138,-0.036 -2.2757,-0.058 -3.3916,-0.056 z m -354.74128,424.2585 c -0.7601,0 -1.5181,0.01 -2.2664,0.014 -32.8126,0.311 -54.3318,9.6977 -61.0337,31.7132 -1.0685,3.5101 -1.579,7.5722 -1.5591,12.0557 4e-4,0.1177 0,0.2333 0,0.3513 -0.01,1.768 0.051,3.5854 0.2089,5.48 0.01,0.074 0.01,0.1508 0.016,0.2249 0.1332,1.5467 0.3208,3.1284 0.5626,4.7491 0.1272,0.8537 0.277,1.7133 0.434,2.5855 0.3123,1.7353 0.6805,3.4958 1.1091,5.2974 0.047,0.1992 0.096,0.4042 0.1448,0.6041 1.0546,4.3206 2.4317,8.8089 4.1311,13.4048 1.0678,2.889 2.2541,5.8141 3.5683,8.7679 0.8751,1.9663 1.8153,3.947 2.7969,5.9294 0.9817,1.9824 2.0159,3.9695 3.1024,5.9579 2.4913,4.559 5.2525,9.1119 8.2782,13.6153 21.7251,37.5025 61.7338,74.054 113.56398,75.7917 54.9032,1.8405 113.9056,-5.9499 159.6971,-17.9294 -4.6786,15.6112 -8.9999,32.8012 -12.9397,50.9914 -1.0224,4.721 -1.491,9.4709 -1.4789,14.2197 0,0.6356 0,1.2756 0.016,1.911 0.065,3.8134 0.4257,7.6245 1.0769,11.4095 0.152,0.8835 0.3166,1.761 0.4982,2.6418 2.8154,13.6602 9.1446,26.947 17.3924,38.9636 19.0855,33.9132 55.0713,60.3909 76.9952,61.8668 33.698,2.2685 41.304,-26.4256 35.9581,-83.8569 -3.8755,-41.6345 -19.5618,-110.1914 -37.8066,-145.4147 -0.6309,-1.9203 -1.7592,-3.9101 -3.3273,-5.9717 -1.0827,-1.8125 -2.1852,-3.496 -3.2791,-5.0444 -0.01,-0.024 -0.022,-0.046 -0.032,-0.07 -0.037,-0.089 -0.073,-0.1781 -0.1124,-0.2668 -0.1923,-0.429 -0.4049,-0.857 -0.643,-1.2928 -0.032,-0.059 -0.063,-0.1231 -0.097,-0.1827 -0.1152,-0.2057 -0.2286,-0.411 -0.3537,-0.6182 -0.025,-0.042 -0.054,-0.085 -0.081,-0.1264 -0.1372,-0.2238 -0.2856,-0.449 -0.434,-0.6745 -0.018,-0.027 -0.03,-0.058 -0.048,-0.085 -0.1608,-0.2422 -0.3246,-0.4863 -0.4983,-0.7307 -0.01,-0.011 -0.025,-0.017 -0.032,-0.029 -0.182,-0.2554 -0.3665,-0.515 -0.5625,-0.7727 0,0 0,-0.01 0,-0.014 -0.011,-0.014 -0.022,-0.029 -0.032,-0.042 -1.6667,-2.7864 -3.3387,-5.2614 -5.0311,-7.4049 0.6848,0.5676 1.3738,1.2078 2.0574,1.897 -4.9623,-7.1282 -10.0251,-11.4417 -15.0294,-11.7748 -0.4652,-0.031 -0.935,-0.035 -1.3983,-0.029 -43.43,-28.4513 -137.6473,-61.8008 -197.3107,-75.6792 -33.5051,-7.7937 -62.66288,-12.3639 -86.22178,-12.4351 z"
         style="fill:#5b5b5b;fill-opacity:1;fill-rule:nonzero;stroke:#a7a7a7;stroke-width:25;stroke-miterlimit:4;stroke-opacity:1;stroke-dasharray:none;display:inline" />
      <path
         inkscape:connector-curvature="0"
         style="fill:#5b5b5b;fill-opacity:1;fill-rule:nonzero;stroke:none;display:inline"
         d="m 1310.3777,2926.3478 c -70.2957,0.082 -96.4817,75.082 -101.444,193.0339 -3.7997,90.3111 11.7761,240.6052 43.7536,309.9247 0.6725,2.4448 1.9919,5.0618 3.874,7.8265 9.4516,17.8147 20.2188,28.6314 32.2288,29.2402 52.9799,37.606 151.6026,83.6253 215.0887,105.6641 92.619,32.1523 143.4356,35.2423 154.5852,-8.3462 11.1497,-43.5886 -60.6796,-155.2342 -159.7773,-164.7771 -39.6787,-3.821 -77.1079,-6.1955 -110.269,-6.7164 46.6779,-57.1927 93.8445,-140.0484 118.5473,-221.712 36.3472,-120.1583 -120.3559,-241.7396 -193.1958,-244.0814 -1.1379,-0.036 -2.2757,-0.058 -3.3915,-0.056 z m -357.00748,424.2725 c -32.8128,0.3109 -54.3317,9.6978 -61.0336,31.7132 -11.5925,38.0808 42.3134,141.0778 130.18448,144.0239 59.1989,1.9845 123.1814,-7.2212 170.2097,-20.8098 -6.3487,18.9893 -12.1536,40.9958 -17.2798,64.6631 -12.2676,56.6392 54.6298,117.9525 88.3277,120.221 33.6979,2.2685 41.3039,-26.4255 35.9579,-83.8569 -3.8755,-41.6345 -19.5618,-110.1913 -37.8065,-145.4147 -0.631,-1.9203 -1.7594,-3.91 -3.3273,-5.9716 -5.9132,-9.8979 -12.0157,-16.0391 -18.0353,-16.4398 -0.4653,-0.03 -0.9351,-0.035 -1.3984,-0.028 -43.4301,-28.4512 -137.6474,-61.8007 -197.3107,-75.6792 -34.5861,-8.0453 -64.54378,-12.648 -88.48818,-12.4212 z"
         id="path4173" />
      <path
         id="path4157"
         d="m 1304.2052,2916.456 c -70.2957,0.082 -96.4816,75.0818 -101.4441,193.0337 -3.7996,90.3112 11.7761,240.6052 43.7538,309.9247 0.6724,2.4448 1.9918,5.0619 3.8739,7.8265 9.4516,17.8147 20.2188,28.6314 32.229,29.2401 52.9796,37.6061 151.6024,83.6256 215.0884,105.6643 92.6189,32.1523 143.4357,35.2423 154.5853,-8.3464 11.1499,-43.5886 -60.6796,-155.234 -159.7772,-164.777 -39.6789,-3.821 -77.1081,-6.1955 -110.2689,-6.7165 46.6779,-57.1925 93.8443,-140.0482 118.5471,-221.7119 36.3471,-120.1582 -120.3557,-241.7397 -193.1956,-244.0813 -1.138,-0.036 -2.2759,-0.057 -3.3917,-0.056 z m -357.00748,424.2724 c -32.8127,0.3109 -54.3318,9.6978 -61.0337,31.7132 -11.5925,38.0809 42.3136,141.078 130.18468,144.0237 59.1989,1.9846 123.1814,-7.2211 170.2096,-20.8097 -6.3488,18.9893 -12.1536,40.9959 -17.2798,64.663 -12.2676,56.6393 54.6297,117.9527 88.3278,120.2212 33.6978,2.2683 41.3037,-26.4254 35.9578,-83.8569 -3.8755,-41.6347 -19.5619,-110.1915 -37.8065,-145.4148 -0.631,-1.9201 -1.7592,-3.9099 -3.3274,-5.9716 -5.9131,-9.8978 -12.0157,-16.039 -18.0352,-16.4397 -0.4653,-0.03 -0.9351,-0.035 -1.3984,-0.028 -43.43,-28.4512 -137.6473,-61.8008 -197.3108,-75.6792 -34.5859,-8.0453 -64.54368,-12.648 -88.48808,-12.4211 z"
         style="fill:#ffffff;fill-opacity:1;fill-rule:nonzero;stroke:none;display:inline"
         inkscape:connector-curvature="0" />
      <path
         sodipodi:nodetypes="szsss"
         inkscape:connector-curvature="0"
         id="path4092"
         d="m 1035.6863,3353.1515 c 81.9823,19.07 229.2469,74.8894 220.272,104.2723 -8.9751,29.3832 -132.1884,62.6494 -239.6091,59.0481 -87.87108,-2.9458 -141.78228,-105.9544 -130.18968,-144.0352 11.5925,-38.0806 67.545,-38.3555 149.52678,-19.2852 z"
         style="opacity:0.5;fill:url(#radialGradient4297);fill-opacity:1;fill-rule:nonzero;stroke:none;display:inline" />
      <path
         style="opacity:0.5;fill:url(#radialGradient4295);fill-opacity:1;fill-rule:nonzero;stroke:none;display:inline"
         d="m 1293.5613,3596.6771 c -5.3459,-57.4312 -33.1683,-166.0898 -59.1736,-167.8207 -26.0051,-1.7311 -48.8926,56.6118 -65.1038,131.4586 -12.2676,56.6392 54.6258,117.9532 88.3239,120.2217 33.6977,2.2683 41.2993,-26.4281 35.9535,-83.8596 z"
         id="path4095"
         inkscape:connector-curvature="0"
         sodipodi:nodetypes="szsss" />
      <path
         style="opacity:0.5;fill:url(#radialGradient4293);fill-opacity:1;fill-rule:nonzero;stroke:none;display:inline"
         d="m 1202.7601,3109.484 c -5.0414,119.8241 24.0444,345.2632 80.262,347.029 56.2175,1.7661 173.3313,-149.0336 217.7648,-295.9241 36.3472,-120.1581 -120.3578,-241.7401 -193.1978,-244.0817 -72.8398,-2.3417 -99.7878,73.1526 -104.829,192.9768 z"
         id="path4097"
         inkscape:connector-curvature="0"
         sodipodi:nodetypes="szsss" />
      <path
         sodipodi:nodetypes="szsss"
         inkscape:connector-curvature="0"
         id="path4099"
         d="m 1497.6995,3562.1496 c -92.6191,-32.1521 -260.021,-115.3617 -251.3841,-148.991 8.637,-33.6296 115.2485,-36.7537 246.2025,-24.143 99.0978,9.543 170.9211,121.1923 159.7714,164.781 -11.1496,43.5886 -61.9709,40.5053 -154.5898,8.353 z"
         style="opacity:0.5;fill:url(#radialGradient4291);fill-opacity:1;fill-rule:nonzero;stroke:none;display:inline" />
      <path
         inkscape:connector-curvature="0"
         id="path4168"
         d="m 1304.2052,2915.5567 c -70.2957,0.081 -96.4816,75.0818 -101.4441,193.0338 -3.7997,90.311 11.7762,240.6052 43.7538,309.9246 0.6724,2.4449 1.9918,5.062 3.8739,7.8266 4.0036,7.5458 8.2447,13.8268 12.7147,18.6176 -2.6108,-3.6079 -5.1338,-7.7292 -7.5709,-12.3228 -1.8823,-2.7645 -3.2016,-5.3816 -3.8739,-7.8266 -31.9776,-69.3193 -47.5535,-219.6135 -43.7538,-309.9245 4.9624,-117.952 31.1483,-192.9526 101.4441,-193.0338 1.1157,0 2.2536,0.02 3.3917,0.056 39.8341,1.2806 104.7518,38.2249 149.4576,91.093 -44.7395,-56.2059 -113.2059,-96.057 -154.6014,-97.388 -1.138,-0.036 -2.2759,-0.058 -3.3917,-0.056 z m -354.74128,424.2584 c -0.7598,0 -1.518,0.01 -2.2662,0.014 -32.8127,0.3108 -54.3319,9.6977 -61.0337,31.7131 -6.3799,20.9571 7.083,61.5704 35.122,94.3529 -24.5191,-31.5349 -35.9547,-68.4259 -29.9782,-88.0579 6.7017,-22.0155 28.2209,-31.4025 61.0335,-31.7134 23.9446,-0.227 53.90228,4.3759 88.48828,12.4211 59.6634,13.8786 153.8808,47.228 197.3107,75.6792 0.4632,-0.01 0.9332,0 1.3985,0.028 3.2857,0.2187 6.5949,2.1633 9.8856,5.48 -4.9623,-7.1281 -10.0251,-11.4418 -15.0294,-11.7748 -0.4653,-0.031 -0.9351,-0.035 -1.3984,-0.028 -43.43,-28.4513 -137.6473,-61.8007 -197.3108,-75.6792 -33.505,-7.7938 -62.66278,-12.3638 -86.22188,-12.4351 z m 442.79558,41.8018 c -1.627,2.0546 -3.2436,4.0911 -4.8705,6.0842 33.161,0.521 70.5903,2.8954 110.269,6.7164 49.1123,4.7294 91.524,34.5375 120.4598,68.7098 -28.9295,-36.7403 -73.4953,-69.9868 -125.6035,-75.0046 -35.7397,-3.4417 -69.6404,-5.7086 -100.2548,-6.5058 z m -200.5574,119.4345 c -2.5767,0.7444 -5.2178,1.4747 -7.8924,2.1919 -5.287,16.9514 -10.1511,35.9537 -14.5312,56.176 -6.1833,28.548 7.7384,58.283 27.3905,81.0469 -16.8439,-21.7985 -27.8742,-48.7696 -22.2468,-74.7519 5.1262,-23.667 10.9311,-45.6737 17.2799,-64.6629 z"
         style="fill:#ffffff;fill-opacity:1;fill-rule:nonzero;stroke:none;display:inline" />
      <path
         style="opacity:0.5;fill:url(#radialGradient4289);fill-opacity:1;fill-rule:nonzero;stroke:none;display:inline"
         d="m 1035.6863,3353.1515 c 81.9823,19.07 229.2469,74.8894 220.272,104.2723 -8.9751,29.3832 -132.1884,62.6494 -239.6091,59.0481 -87.87108,-2.9458 -141.78228,-105.9544 -130.18968,-144.0352 11.5925,-38.0806 67.545,-38.3555 149.52678,-19.2852 z"
         id="path4275"
         inkscape:connector-curvature="0"
         sodipodi:nodetypes="szsss" />
      <path
         sodipodi:nodetypes="szsss"
         inkscape:connector-curvature="0"
         id="path4277"
         d="m 1293.5613,3596.6771 c -5.3459,-57.4312 -33.1683,-166.0898 -59.1736,-167.8207 -26.0051,-1.7311 -48.8926,56.6118 -65.1038,131.4586 -12.2676,56.6392 54.6258,117.9532 88.3239,120.2217 33.6977,2.2683 41.2993,-26.4281 35.9535,-83.8596 z"
         style="opacity:0.5;fill:url(#radialGradient4287);fill-opacity:1;fill-rule:nonzero;stroke:none;display:inline" />
      <path
         sodipodi:nodetypes="szsss"
         inkscape:connector-curvature="0"
         id="path4279"
         d="m 1202.7601,3109.484 c -5.0414,119.8241 24.0444,345.2632 80.262,347.029 56.2175,1.7661 173.3313,-149.0336 217.7648,-295.9241 36.3472,-120.1581 -120.3578,-241.7401 -193.1978,-244.0817 -72.8398,-2.3417 -99.7878,73.1526 -104.829,192.9768 z"
         style="opacity:0.5;fill:url(#radialGradient4285);fill-opacity:1;fill-rule:nonzero;stroke:none;display:inline" />
      <path
         style="opacity:0.5;fill:url(#radialGradient3568);fill-opacity:1;fill-rule:nonzero;stroke:none;display:inline"
         d="m 1497.6995,3562.1496 c -92.6191,-32.1521 -260.021,-115.3617 -251.3841,-148.991 8.637,-33.6296 115.2485,-36.7537 246.2025,-24.143 99.0978,9.543 170.9211,121.1923 159.7714,164.781 -11.1496,43.5886 -61.9709,40.5053 -154.5898,8.353 z"
         id="path4281"
         inkscape:connector-curvature="0"
         sodipodi:nodetypes="szsss" />
    </g>
    <path
       style="fill:url(#linearGradient4137);fill-opacity:1;fill-rule:nonzero;stroke:none"
       d="m 105.36889,957.75274 c -1.31313,4.72411 3.07334,13.8579 13.43204,20.339 9.07521,5.67807 10.22467,7.40741 11.57107,11.79327 -2.65835,19.80839 32.64867,41.38899 40.6044,34.08359 7.95419,-7.3072 -15.86724,-40.33244 -33.25848,-42.48254 -4.45484,-0.71848 -6.32411,-6.83684 -9.96177,-13.86784 -5.61683,-10.85643 -10.79382,-15.10335 -15.64492,-14.16465 -5.20929,-8.06789 -9.26784,-13.80158 -13.593016,-9.27395 -4.325179,4.52763 3.017186,8.20635 6.850676,13.57312 z"
       id="path3103"
       inkscape:connector-curvature="0"
       sodipodi:nodetypes="csczcsczc" />
  </g>
</svg>
