<svg xmlns="http://www.w3.org/2000/svg" viewBox="0 0 16 16">
<defs>
<linearGradient gradientTransform="matrix(.72957 0 0 .72957 5.41378 1037.6216)" xlink:href="#linearGradient4794" id="linearGradient3935" y1="7.264" y2="16.098" gradientUnits="userSpaceOnUse" x2="0"/>
<linearGradient gradientTransform="matrix(1.0139 .46133 -.46237 1.01163 482.76263 -16.84992)" xlink:href="#linearGradient3827" id="linearGradient3788" y1="1038.707" x1="5.275" y2="1050.072" gradientUnits="userSpaceOnUse" x2="10.458"/>
<linearGradient gradientTransform="matrix(.72957 0 0 .72957 3.71325 1039.5315)" xlink:href="#linearGradient4800" id="linearGradient3920" y1="4.536" y2="13.215" x2="0" gradientUnits="userSpaceOnUse"/>
<linearGradient id="linearGradient4794">
<stop offset="0" stop-color="#646464"/>
<stop offset="1" stop-color="#969696"/>
</linearGradient>
<linearGradient id="linearGradient3827">
<stop offset="0" stop-color="#dbdbdb"/>
<stop offset="1" stop-color="#f5f5f5"/>
</linearGradient>
<linearGradient id="linearGradient4800">
<stop offset="0"/>
<stop offset="1" stop-color="#fff6d5" stop-opacity="0"/>
</linearGradient>
</defs>
<g transform="translate(0 -1036.3622)">
<path opacity=".08" direction="ltr" block-progression="tb" color="#000000" d="m1.7692,1036.3668c-.9683-.021-1.7681,.777-1.7692,1.7317v12.4695c-.0011,.9542 .7763,1.7302 1.7308,1.7319c11.1779,.1157 11.0059,.034 12.5,.038c.968,.021 1.768-.7767 1.7692-1.732v-12.5079c.0023-.5477-.1824-1.0101-.5385-1.3084c-.3561-.2982-.8091-.4065-1.1923-.4233c-4.1689-.014-8.3329,.013-12.5,0z"/>
<path opacity=".1" direction="ltr" block-progression="tb" color="#000000" d="m1.7692,1036.6744c-.7931-.017-1.4606,.6385-1.4615,1.424v12.4697c-.0009,.7853 .6368,1.4228 1.4231,1.4242c11.1761,.1156 10.9929,.034 12.5,.038c.7928,.017 1.4605-.6382 1.4615-1.4243v-12.5081c.0021-.4859-.1429-.843-.4231-1.0777c-.2802-.2345-.6538-.331-1-.3463c-4.1684-.014-8.3326,.013-12.5,0z"/>
<path opacity=".15" d="m14.7,1037.0912c-.1415-.049-.2886-.086-.4398-.087c-4.1678-.014-8.3362-.016-12.5039-.026c-.618-.014-1.1266,.5034-1.1273,1.1192l-.0135,12.468c-.0007,.616 .5055,1.1238 1.1234,1.1249c11.1744,.1157 10.9848,.018 12.505,.022c.6176,.014 1.1266-.5032 1.1273-1.1194l.0135-12.4678c.0005-.4466-.2613-.8387-.6471-1.0187c-.0126-.0004-.0248-.014-.0376-.016z"/>
<path opacity=".3" d="m14.351,1037.2185c-.1341-.046-.2735-.081-.4169-.082c-3.9508-.014-7.902-.015-11.8527-.024c-.5858-.014-1.068,.4772-1.0686,1.0611l-.0128,11.8185c-.0007,.584 .4791,1.0654 1.0649,1.0663c10.5924,.1097 10.4127,.017 11.8537,.021c.5854,.014 1.0679-.4769 1.0686-1.0611l.0128-11.8185c.0005-.4234-.2477-.7951-.6134-.9656c-.012-.0004-.0235-.014-.0357-.015z"/>
<path fill="url(#linearGradient3788)" d="m14.351,1036.4685c-.1341-.046-.2735-.081-.4169-.082c-3.9508-.014-7.902-.015-11.8527-.024c-.5858-.014-1.068,.4772-1.0686,1.0611l-.0128,11.8185c-.0007,.584 .4791,1.0654 1.0649,1.0663c10.5924,.1097 10.4127,.017 11.8537,.021c.5854,.014 1.0679-.4769 1.0686-1.0611l.0128-11.8185c.0005-.4234-.2477-.7951-.6134-.9656c-.012-.0004-.0235-.014-.0357-.015z"/>
<path opacity=".5" fill="#fff" d="m2.0862,1036.3621c-.5858-.014-1.0855,.4722-1.0862,1.056v.6337c.0007-.5839 .5004-1.0696 1.0862-1.0561c3.9507,.01 7.907-.014 11.8578,0c.1434,0 .2582,.044 .3922,.091c.0121,0 .0484,.03 .0603,.03c.3658,.1705 .6039,.5421 .6034,.9655v-.6336c.0005-.4235-.2377-.795-.6034-.9655c-.012-.0004-.0482,0-.0603,0c-.1341-.046-.2489-.09-.3922-.091c-3.9508-.014-7.907-.022-11.8578-.03z"/>
<path fill="url(#linearGradient3935)" stroke="#505050" word-spacing="0" stroke-width=".1" d="m9.8258,1045.4819c0,.248 .0304,.4717 .0912,.6711c.0608,.1994 .1483,.3709 .2626,.5144c.1143,.1434 .2541,.2541 .4196,.3319c.1654,.078 .3551,.1168 .569,.1168c.2091,0 .3976-.039 .5654-.1168c.1678-.078 .3088-.1885 .4231-.3319c.1143-.1435 .2019-.315 .2627-.5144c.0609-.1994 .0913-.4231 .0913-.6711c0-.2482-.0304-.4732-.0913-.675c-.0609-.2018-.1484-.3744-.2627-.518c-.1143-.1435-.2553-.2542-.4231-.3319c-.1678-.078-.3563-.1167-.5654-.1167c-.2139,0-.4035,.04-.569,.1203c-.1654,.08-.3053,.1921-.4196,.3355c-.1143,.1436-.2018,.3162-.2626,.518c-.0608,.2019-.0912,.4245-.0912,.6678zm3.8593,0c0,.355-.0437,.6748-.1312,.9592c-.0875,.2845-.2103,.5338-.3684,.7478c-.1581,.214-.3466,.3916-.5654,.5327c-.2189,.141-.4597,.2432-.7224,.3064c.0243,.097 .0778,.1763 .1605,.2371c.0827,.06 .1872,.1106 .3137,.1495c.1265,.039 .2736,.068 .4414,.088c.1678,.02 .349,.037 .5436,.051l-.2336,.8316c-.3794-.015-.704-.053-.974-.113c-.2699-.061-.4985-.1447-.6858-.2517c-.1872-.107-.3356-.2384-.4451-.394c-.1095-.1556-.1934-.3356-.2517-.5398c-.3015-.039-.5811-.1228-.8389-.2517c-.2578-.1289-.4816-.3028-.6713-.5216c-.1897-.2189-.3381-.4815-.4451-.788c-.107-.3064-.1605-.6542-.1605-1.0432c0-.433 .0681-.8136 .2043-1.142c.1362-.3283 .3198-.6043 .5508-.8279c.231-.2237 .4985-.3915 .8025-.5034c.304-.112 .6238-.1679 .9594-.1679c.3454,0 .6713,.056 .9778,.1679c.3064,.1119 .5739,.2797 .8025,.5034c.2286,.2236 .4085,.4996 .5398,.8279c.1313,.3284 .1969,.709 .1969,1.142z" letter-spacing="0"/>
<path opacity=".5" fill="url(#linearGradient3920)" word-spacing="0" d="m11.1685,1042.8373c-.3356,0-.6536,.071-.9576,.1824c-.304,.1119-.5669,.2779-.798,.5016c-.231,.2237-.411,.4925-.5472,.8208c-.1362,.3283-.2052,.7069-.2052,1.1399c0,.04-.0009,.075 0,.114c.0093-.3939 .079-.7446 .2052-1.0487c.1362-.3283 .3161-.5971 .5472-.8208c.231-.2237 .494-.4125 .798-.5244c.304-.1119 .622-.1596 .9576-.1596c.3454,0 .6739,.048 .9804,.1596c.3064,.1119 .5694,.3007 .798,.5244c.2286,.2237 .4159,.4925 .5472,.8208c.1216,.3041 .1734,.6548 .1824,1.0487c.0012-.039 0-.074 0-.114c0-.433-.0511-.8116-.1824-1.1399c-.1313-.3283-.3186-.5971-.5472-.8208c-.2286-.2237-.4915-.3897-.798-.5016c-.3064-.1117-.635-.1824-.9804-.1824zm-1.3223,3.0095c.0019,.031-.003,.061 0,.091c.0141,.1456 .0299,.2842 .0684,.4104c.0608,.1994 .1593,.3809 .2736,.5244c.1143,.1434 .245,.2413 .4104,.3191c.1654,.078 .3561,.1368 .57,.1368c.2091,0 .4022-.059 .57-.1368c.1678-.078 .2961-.1757 .4104-.3191c.1143-.1435 .2127-.325 .2736-.5244c.0385-.1262 .0542-.2648 .0684-.4104c-.0031-.03 .0031-.063 0-.091c-.0152,.1119-.038,.1967-.0684,.2964c-.0609,.1994-.1593,.3809-.2736,.5244c-.1143,.1434-.2426,.2641-.4104,.342c-.1678,.078-.3608,.1139-.57,.1139c-.2139,0-.4046-.036-.57-.1139c-.1654-.078-.2961-.1986-.4104-.342c-.1143-.1435-.2128-.325-.2736-.5244c-.0304-.1-.0532-.1845-.0684-.2964zm2.6675,2.5991c-.0792,.045-.1647,.081-.2508,.114c.0409,.017 .067,.054 .114,.068c.1265,.039 .2654,.049 .4332,.068c.1471,.017 .311,.055 .4788,.068l.0684-.2052c-.1946-.015-.3794-.049-.5472-.068c-.1147-.014-.201-.023-.2964-.046z" letter-spacing="0"/>
</g>
</svg>
