<svg xmlns="http://www.w3.org/2000/svg" viewBox="0 0 16 16">
<defs>
<linearGradient id="linearGradient3981">
<stop offset="0" stop-color="#d5ebff"/>
<stop offset="1" stop-color="#fff6d5" stop-opacity="0"/>
</linearGradient>
<linearGradient id="linearGradient4414">
<stop offset="0" stop-color="#0069c8"/>
<stop offset="1" stop-color="#55c4ff"/>
</linearGradient>
<linearGradient xlink:href="#linearGradient3981" id="linearGradient3828" y1="3" y2="11" x2="0" gradientUnits="userSpaceOnUse"/>
<linearGradient gradientTransform="matrix(.875 0 0 .875 1 129.54524)" xlink:href="#linearGradient3827" id="linearGradient3815" y1="1052.362" y2="1036.362" x2="0" gradientUnits="userSpaceOnUse"/>
<linearGradient id="linearGradient3827">
<stop offset="0" stop-color="#dbdbdb"/>
<stop offset="1" stop-color="#f5f5f5"/>
</linearGradient>
<linearGradient xlink:href="#linearGradient4414" id="linearGradient3846" y1="11" y2="3" x2="0" gradientUnits="userSpaceOnUse"/>
</defs>
<g transform="translate(0 -1036.3622)">
<path opacity=".1" direction="ltr" block-progression="tb" color="#000000" d="m9.5629,1036.4822c-2.6451,1.1897-5.3654,2.4711-8.047,3.6898c-.8659,.3939-1.2548,1.453-.8611,2.321l3.6523,8.0639c.3984,.8782 1.4747,1.2591 2.3458,.8629l4.4343-2.1223l3.3257,1.9938c.3843,.2335 .8051,.08 1.069-.1488c.2638-.23 .316-.4692 .1386-.883v-.029h-.0297l-1.158-2.3804l.2375-.089h.0297c.8663-.3936 1.2548-1.4532 .8611-2.3212l-3.6523-8.0639c-.1231-.2713-.3602-.6338-.6522-.8083c-.2919-.1745-1.3944-.2192-1.6936-.084z"/>
<path opacity=".15" direction="ltr" block-progression="tb" color="#000000" d="m9.7842,1036.4564c-2.7931,1.2679-5.5797,2.566-8.3728,3.8337c-.6601,.2998-.9491,1.0704-.6488,1.7314l3.8002,8.3784c.3,.6603 1.1002,.9494 1.7611,.6493l4.6962-2.1333l3.6766,2.1951c.3553,.2157 .8747-.2362 .7106-.6183l-1.4212-2.9373l.7106-.3091c.6603-.2997 .9491-1.0704 .6488-1.7315l-3.8002-8.3786c-.145-.319-.2988-.4643-.5892-.6232c-.4215-.2306-.7992-.097-1.1719-.056z"/>
<path opacity=".3" d="m10.2915,1036.8622c-.1112,.01-.2219,.031-.3247,.077c-2.8251,1.2816-5.6505,2.5634-8.4757,3.8448c-.4189,.1901-.6072,.6896-.4169,1.108l3.8499,8.4665c.1902,.4183 .6902,.6067 1.109,.4166l5.0239-2.2793l3.932,2.3664l-1.6627-3.3975l1.1825-.5362c.4187-.1898 .6072-.6895 .4169-1.108l-3.8499-8.4665c-.1379-.3032-.4366-.4886-.7536-.4916c-.0102,0-.0205-.0004-.0308,0z"/>
<path fill="url(#linearGradient3815)" d="m10.2915,1036.3622c-.1112,.01-.2219,.031-.3247,.077c-2.8251,1.2816-5.6505,2.5634-8.4757,3.8448c-.4189,.1901-.6072,.6896-.4169,1.108l3.8499,8.4665c.1902,.4183 .6902,.6067 1.109,.4166l5.0239-2.2793l3.932,2.3664l-1.6627-3.3975l1.1825-.5362c.4187-.1898 .6072-.6895 .4169-1.108l-3.8499-8.4665c-.1379-.3032-.4366-.4886-.7536-.4916c-.0102,0-.0205-.0004-.0308,0z"/>
<path opacity=".5" fill="#fff" d="m10.2812,0c-.1112,.01-.2098,.0165-.3125,.0625c-2.8251,1.2816-5.6436,2.5623-8.4688,3.8438c-.3867,.1755-.5914,.6357-.4688,1.0312c.0531-.253 .217-.4795 .4688-.5938c2.8252-1.2814 5.6437-2.5621 8.4688-3.8438c.1027-.046 .2013-.0525 .3125-.0625c.0103-.0004 .021,0 .0312,0c.317,.003 .6121,.1655 .75,.4688l3.875,8.4688c.0175,.0385 .02,.0854 .0312,.125c.0438-.1765 .0492-.3542-.0312-.5312l-3.875-8.4688c-.1379-.3032-.433-.497-.75-.5c-.0102,0-.021-.0004-.0312,0zm3.2188,10.9375l-.1875,.0938l1.375,2.7812l.3125,.1875l-1.5-3.0625z" transform="translate(0 1036.3622)"/>
<path opacity=".3" fill-rule="evenodd" d="m6.875,1040.0274-1.75,1 .5938,1.0313c-.2314,.2721-.4083,.5946-.5312,.9375h-1.1875v2h1.1875c.123,.3428 .2999,.6653 .5312,.9375l-.5938,1.0312l1.75,1l.5938-1.0312c.1762,.032 .3457,.062 .5312,.062c.1855,0 .355-.03 .5312-.062l.5938,1.0312l1.75-1l-.5938-1.0312c.2314-.2722 .4083-.5947 .5312-.9375h1.1875v-2h-1.1875c-.123-.3429-.2999-.6654-.5312-.9375l.5938-1.0313l-1.75-1l-.5938,1.0313c-.1762-.032-.3457-.062-.5312-.062c-.1855,0-.355,.03-.5312,.062l-.5938-1.0313zm1.125,2.9688c.5523,0 1,.4477 1,1c0,.5523-.4477,1-1,1c-.5523,0-1-.4477-1-1c0-.5523 .4477-1 1-1z"/>
<path fill="url(#linearGradient3846)" fill-rule="evenodd" stroke="#003da0" stroke-width=".2" d="m6.875,3.0312l-1.75,1l.5938,1.0312c-.2314,.2721-.4083,.5946-.5312,.9375h-1.1875v2h1.1875c.123,.3429 .2999,.6654 .5312,.9375l-.5938,1.0312l1.75,1l.5938-1.0312c.1762,.0322 .3457,.0625 .5312,.0625c.1855,0 .355-.0303 .5312-.0625l.5938,1.0312l1.75-1l-.5938-1.0312c.2314-.2721 .4083-.5946 .5312-.9375h1.1875v-2h-1.1875c-.123-.3429-.2999-.6654-.5312-.9375l.5938-1.0312l-1.75-1l-.5938,1.0312c-.1762-.0322-.3457-.0625-.5312-.0625c-.1855,0-.355,.0303-.5312,.0625l-.5938-1.0312zm1.125,2.9688c.5523,0 1,.4477 1,1c0,.5523-.4477,1-1,1c-.5523,0-1-.4477-1-1c0-.5523 .4477-1 1-1z" transform="translate(0 1036.3622)"/>
<path opacity=".5" fill="url(#linearGradient3828)" fill-rule="evenodd" d="m6.875,3.0312l-1.75,1l.25,.4375l1.5-.8438l.5938,1.0312c.1762-.032 .3457-.0625 .5312-.0625c.1855,0 .355,.0305 .5312,.0625l.5938-1.0312l1.5,.8438l.25-.4375l-1.75-1l-.5938,1.0312c-.1762-.0322-.3457-.0625-.5312-.0625c-.1855,0-.355,.0303-.5312,.0625l-.5938-1.0312zm-1.3438,2.2812c-.1417,.212-.2565,.4443-.3438,.6875h-1.1875v.5938h1.1875c.123-.3429 .2999-.6654 .5312-.9375l-.1875-.3438zm4.9375,0l-.1875,.3438c.2314,.2721 .4083,.5946 .5312,.9375h1.1875v-.5938h-1.1875c-.0873-.2432-.202-.4755-.3438-.6875zm-3.4062,2c-.0289,.0934-.0625,.1784-.0625,.2812c0,.5523 .4477,1 1,1c.5523,0 1-.4477 1-1c0-.1029-.0336-.1878-.0625-.2812c-.1348,.3928-.4989,.6875-.9375,.6875c-.4386,0-.8027-.2947-.9375-.6875zm-1.5312,1.9688l-.4062,.6875l.25,.1562l.3438-.5938c-.0672-.0791-.1295-.1632-.1875-.25zm4.9375,0c-.058,.0868-.1203,.1709-.1875,.25l.3438,.5938l.25-.1562l-.4062-.6875z" transform="translate(0 1036.3622)"/>
</g>
</svg>
