<?xml version="1.0" encoding="UTF-8" standalone="no"?>
<!-- Created with Inkscape (http://www.inkscape.org/) -->

<svg
   xmlns:dc="http://purl.org/dc/elements/1.1/"
   xmlns:cc="http://creativecommons.org/ns#"
   xmlns:rdf="http://www.w3.org/1999/02/22-rdf-syntax-ns#"
   xmlns:svg="http://www.w3.org/2000/svg"
   xmlns="http://www.w3.org/2000/svg"
   xmlns:sodipodi="http://sodipodi.sourceforge.net/DTD/sodipodi-0.dtd"
   xmlns:inkscape="http://www.inkscape.org/namespaces/inkscape"
   width="16"
   height="16"
   id="svg3301"
   version="1.1"
   inkscape:version="0.48.4 r9939"
   sodipodi:docname="user-away-extended.svg">
  <defs
     id="defs3303" />
  <sodipodi:namedview
     id="base"
     pagecolor="#ffffff"
     bordercolor="#666666"
     borderopacity="1.0"
     inkscape:pageopacity="0.0"
     inkscape:pageshadow="2"
     inkscape:zoom="19.968752"
     inkscape:cx="6.6228483"
     inkscape:cy="6.3974686"
     inkscape:document-units="px"
     inkscape:current-layer="layer1"
     showgrid="true"
     inkscape:window-width="1440"
     inkscape:window-height="848"
     inkscape:window-x="-8"
     inkscape:window-y="-8"
     inkscape:window-maximized="1">
    <inkscape:grid
       type="xygrid"
       id="grid2987"
       empspacing="5"
       visible="true"
       enabled="true"
       snapvisiblegridlinesonly="true" />
  </sodipodi:namedview>
  <metadata
     id="metadata3306">
    <rdf:RDF>
      <cc:Work
         rdf:about="">
        <dc:format>image/svg+xml</dc:format>
        <dc:type
           rdf:resource="http://purl.org/dc/dcmitype/StillImage" />
        <dc:title />
      </cc:Work>
    </rdf:RDF>
  </metadata>
  <g
     inkscape:label="Layer 1"
     inkscape:groupmode="layer"
     id="layer1"
     transform="translate(0,-1036.3622)">
    <path
       inkscape:connector-curvature="0"
       style="font-size:medium;font-style:normal;font-variant:normal;font-weight:normal;font-stretch:normal;text-indent:0;text-align:start;text-decoration:none;line-height:normal;letter-spacing:normal;word-spacing:normal;text-transform:none;direction:ltr;block-progression:tb;writing-mode:lr-tb;text-anchor:start;baseline-shift:baseline;color:#000000;fill:#e6e6e6;fill-opacity:1;fill-rule:nonzero;stroke:none;stroke-width:30;marker:none;visibility:visible;display:inline;overflow:visible;enable-background:accumulate;font-family:Sans;-inkscape-font-specification:Sans"
       d="m 13.729289,1038.1802 c -0.01062,-10e-5 -0.02149,-0.01 -0.03228,-0.014 -0.119783,-0.044 -0.244026,-0.073 -0.372868,-0.074 -3.5462601,-0 -7.09256,-0.01 -10.6388587,-0.01 -0.5258329,-0 -0.9582341,0.4308 -0.9586387,0.9565 l -0.00809,10.6381 c -3.988e-4,0.5255 0.4304903,0.9579 0.9562669,0.9583 l 10.6390653,0.01 c 0.525596,0 0.958218,-0.4308 0.958598,-0.9565 l 0.0083,-10.6386 c 2.92e-4,-0.381 -0.223342,-0.7156 -0.551654,-0.8689 z"
       id="path4044-2"
       sodipodi:nodetypes="ccccssccccc"
       inkscape:export-filename="/home/madnester/Рабочий стол/витва.png"
       inkscape:export-xdpi="2.8124993"
       inkscape:export-ydpi="2.8124993" />
    <path
       style="fill:#656565;fill-opacity:1;fill-rule:nonzero;stroke:none"
       d="m 13.097516,1038.9921 c -0.06262,-0.028 -0.132995,-0.042 -0.206637,-0.041 l -9.7729521,-0.01 c -0.2935135,-0 -0.5301816,0.2362 -0.5304711,0.5297 l -0.00791,9.7727 c -2.065e-4,0.2934 0.2357475,0.5299 0.5292271,0.5301 l 9.7731568,0.01 c 0.293473,0 0.530019,-0.2359 0.530223,-0.5292 l 0.0082,-9.7732 c 1.49e-4,-0.2201 -0.132555,-0.4082 -0.322675,-0.4887 z m -1.01955,1.0742 c 0.154418,0.059 0.258441,0.2143 0.258094,0.3908 l -0.0063,7.8185 c -1.66e-4,0.2347 -0.189356,0.4233 -0.424236,0.4231 l -7.818651,-0.01 c -0.2347328,-2e-4 -0.4262705,-0.183 -0.4230733,-0.4243 l 0.00629,-7.8184 c 1.74e-4,-0.2348 0.1894478,-0.4233 0.4242381,-0.4231 l 7.8186079,0.01 c 0.05858,3e-4 0.114972,0.011 0.165476,0.033 z"
       id="path3222-0"
       inkscape:export-filename="C:\Users\Madnester\Desktop\Sketches\256.png"
       inkscape:export-xdpi="23.039482"
       inkscape:export-ydpi="23.039482"
       inkscape:connector-curvature="0" />
    <path
       style="font-size:medium;font-style:normal;font-variant:normal;font-weight:normal;font-stretch:normal;text-indent:0;text-align:start;text-decoration:none;line-height:normal;letter-spacing:normal;word-spacing:normal;text-transform:none;direction:ltr;block-progression:tb;writing-mode:lr-tb;text-anchor:start;baseline-shift:baseline;color:#000000;fill:#e6e6e6;fill-opacity:1;fill-rule:nonzero;stroke:none;stroke-width:20;marker:none;visibility:visible;display:inline;overflow:visible;enable-background:accumulate;font-family:Sans;-inkscape-font-specification:Sans"
       d="m 11.768554,1038.2601 c -0.004,10e-5 -0.0077,8e-4 -0.01172,10e-4 -0.843131,0.028 -1.485193,0.8361 -1.326172,1.663 2.5e-4,0 7.22e-4,0 9.75e-4,0 8.28e-4,0 0.0011,0.01 0.002,0.013 l 9.75e-4,0 c 0.03668,0.2239 0.127507,0.4259 0.256836,0.5967 -0.8985061,-0.02 -1.7980851,-0.024 -2.6923829,-0.026 l -0.052734,0 -0.048828,0.017 c -0.2098357,0.072 -0.3224029,0.2383 -0.3876954,0.3516 -0.065292,0.1133 -0.1090737,0.1939 -0.125,0.2109 l -0.019531,0.02 -0.015625,0.024 c -0.3501728,0.5475 -0.7307513,1.0955 -1.078125,1.666 l -0.023437,0.037 -0.011719,0.043 c -0.033601,0.1238 -0.015823,0.2683 0.036133,0.3711 0.051956,0.1029 0.1210753,0.1668 0.180664,0.2149 0.1191775,0.096 0.2186641,0.1594 0.2158203,0.1562 0.088759,0.1064 0.1985428,0.1924 0.3564453,0.2422 0.082664,0.026 0.183785,0.04 0.2949219,0.013 0.1111369,-0.028 0.2216266,-0.1061 0.288086,-0.2041 l 0.00195,0 0.00195,0 c 0.3178078,-0.4926 0.6315734,-0.9861 0.9472656,-1.4776 0.1724447,0.015 0.3456966,0.031 0.5185547,0.047 -0.6281472,0.8584 -1.2561037,1.7172 -1.8847656,2.5752 -0.8821378,0.1682 -1.7760131,0.3183 -2.6660156,0.5029 l -0.048828,0.01 -0.042969,0.024 c -0.1131634,0.065 -0.2051506,0.1823 -0.2402344,0.2949 -0.035084,0.1127 -0.027307,0.21 -0.016602,0.2881 0.021411,0.1563 0.054699,0.2771 0.054687,0.2764 l 0,0.034 0.00879,0.034 c 0.00453,0.019 0.0071,0.1464 0.045898,0.2998 0.019397,0.077 0.051687,0.1686 0.1279296,0.2568 0.076243,0.088 0.2032354,0.157 0.328125,0.1719 l 0.044922,0 0.044922,-0.01 c 1.0659522,-0.1827 2.1323178,-0.3809 3.1923828,-0.5849 l 0.075195,-0.014 0.05957,-0.048 c 0.2921841,-0.2304 0.4045875,-0.5197 0.5283203,-0.6602 l 0.00879,-0.01 0.00879,-0.012 c 0.2010012,-0.2743 0.4011812,-0.5478 0.6015625,-0.8213 0.21673,0.1582 0.4333815,0.3167 0.6503906,0.4756 -0.4197713,0.6406 -0.8531181,1.2805 -1.2626953,1.9395 l -0.024414,0.04 -0.012695,0.046 c -0.032732,0.1256 -0.013052,0.2725 0.041992,0.376 0.055044,0.1035 0.1282181,0.1667 0.1904297,0.2139 0.1244228,0.094 0.2300315,0.1558 0.2265625,0.1523 l 0.027344,0.027 0.033203,0.021 c 0.011206,0.01 0.1041481,0.097 0.2412109,0.1807 0.068532,0.042 0.1578266,0.087 0.2783203,0.094 0.1204938,0.01 0.2614938,-0.042 0.3583982,-0.1241 l 0.03125,-0.026 0.02441,-0.035 c 0.667416,-0.9695 1.3228,-1.9514 1.972657,-2.9297 l 0.0166,-0.026 0.01172,-0.028 c 0.04732,-0.1164 0.04916,-0.2631 0.0068,-0.373 -0.04233,-0.1099 -0.109671,-0.1809 -0.168946,-0.2334 -0.118548,-0.1051 -0.23203,-0.1662 -0.24707,-0.1787 l -0.0078,-0.01 -0.0078,-0.01 c -0.452922,-0.3318 -0.906283,-0.6627 -1.358398,-0.9942 0.203054,-0.2782 0.406348,-0.5563 0.610351,-0.8349 0.449838,0.3328 0.900893,0.6784 1.375,1.0019 l 0.04199,0.029 0.04981,0.014 c 0.124831,0.035 0.272245,0.02 0.37793,-0.034 0.105684,-0.054 0.170764,-0.1279 0.21875,-0.1904 0.09597,-0.1251 0.156583,-0.2308 0.155273,-0.2295 l 0.01953,-0.019 0.01465,-0.022 c 0.395998,-0.5556 0.829873,-1.1056 1.223633,-1.6914 l 0.0293,-0.045 0.01367,-0.052 c 0.03202,-0.1249 0.0118,-0.2699 -0.04199,-0.3721 -0.05379,-0.1022 -0.124941,-0.1656 -0.185547,-0.2129 -0.12121,-0.095 -0.221554,-0.1573 -0.217773,-0.1533 l -0.01758,-0.019 -0.02051,-0.015 c -0.02434,-0.019 -0.06885,-0.061 -0.144531,-0.1055 -0.07568,-0.045 -0.199985,-0.091 -0.334961,-0.072 l -0.01465,0 -0.01465,0 c -0.222841,0.053 -0.348197,0.2182 -0.420898,0.3301 -0.0727,0.1119 -0.122053,0.1941 -0.138672,0.2099 l -0.02051,0.019 -0.01563,0.023 c -0.137853,0.1879 -0.275035,0.3753 -0.412109,0.5625 -0.21682,-0.1582 -0.435244,-0.3164 -0.655274,-0.4786 0.158169,0 0.318554,-0.021 0.475586,-0.076 0.0026,0 0.0052,0 0.0078,0 0.0033,0 0.0065,0 0.0098,0 l 0,0 c 0.800293,-0.256 1.196539,-1.2087 0.817383,-1.9599 -0.0015,0 -0.0024,-0.01 -0.0039,-0.01 l -9.75e-4,0 c -0.243152,-0.5023 -0.772626,-0.8249 -1.341797,-0.7949 l 0,-10e-4 z m 0.02734,0.624 c 0.30845,-0.019 0.625035,0.1749 0.754883,0.4482 l 0.002,0 0.002,0 c 0.200911,0.3911 -0.03952,0.966 -0.456054,1.0928 l -0.0088,0 -0.0088,0 c -0.422756,0.1563 -0.967134,-0.167 -1.033203,-0.6075 l -9.76e-4,-0.01 -0.002,-0.01 c -0.08952,-0.4345 0.295573,-0.9189 0.739257,-0.9297 l 0.0059,0 0.0059,-10e-4 z m 1.785156,2.2139 c 0.0014,0 0.0015,8e-4 0.0029,0 0.09207,0.091 0.165889,0.1341 0.21875,0.166 -0.352212,0.5113 -0.73947,1.015 -1.113282,1.5391 -0.0015,0 -0.0034,0 -0.0049,0.01 -0.07831,0.087 -0.118228,0.155 -0.14746,0.205 -0.492135,-0.3436 -0.976043,-0.7198 -1.479493,-1.0839 l -0.252928,-0.1827 -0.182617,0.251 c -0.325977,0.4464 -0.6551606,0.8927 -0.9814453,1.3418 l -0.1826171,0.251 0.2509765,0.1846 c 0.5313989,0.3903 1.0637139,0.778 1.5947269,1.167 0.006,0 0.0098,0.01 0.01563,0.012 0.07057,0.057 0.124929,0.092 0.166015,0.1191 -0.593918,0.8937 -1.191789,1.788 -1.7978513,2.6709 -0.034731,-0.029 -0.082638,-0.065 -0.1474609,-0.1084 -0.098396,-0.093 -0.1769931,-0.1355 -0.2304687,-0.167 0.4294659,-0.6829 0.8902829,-1.358 1.3369139,-2.0478 l 0.160156,-0.2481 -0.238281,-0.1738 c -0.380609,-0.2782 -0.7612539,-0.5587 -1.1445311,-0.8369 l -0.2509766,-0.1826 -0.1845703,0.25 c -0.2624244,0.3566 -0.5225841,0.7146 -0.7832031,1.0703 -9.594e-4,0 -0.00197,0 -0.00293,0 -0.1829128,0.2135 -0.2872325,0.4102 -0.3867187,0.5166 -0.9740075,0.187 -1.9523441,0.3683 -2.9287109,0.5371 -0.00566,-0.055 -0.012914,-0.1264 -0.037109,-0.2275 -9.38e-5,-4e-4 9.37e-5,-7e-4 0,-10e-4 -0.00996,-0.1054 -0.02548,-0.1822 -0.039063,-0.2344 0.8636556,-0.1752 1.7424297,-0.3237 2.6210937,-0.4932 l 0.1201172,-0.023 0.072266,-0.099 c 0.7621404,-1.0402 1.5237729,-2.0804 2.2851563,-3.1211 l 0.3271485,-0.4473 -0.5517579,-0.049 c -0.4181444,-0.037 -0.837029,-0.076 -1.2578125,-0.1133 l -0.1884765,-0.017 -0.1015625,0.1592 c -0.3291432,0.5112 -0.6555247,1.0231 -0.9834,1.5322 -0.00285,0 -0.00831,0 -0.00977,-0.01 l -0.00586,-0.01 -0.00684,-0.01 c -0.1051169,-0.1154 -0.1930465,-0.1623 -0.2490234,-0.1982 0.3121237,-0.5028 0.6547219,-1.0028 0.984375,-1.5176 0.100834,-0.1179 0.1460637,-0.2291 0.1845703,-0.2959 0.032003,-0.056 0.033577,-0.052 0.036133,-0.055 0.9086,0 1.8188181,0.01 2.7226565,0.028 0.51094,0.347 1.010298,0.7394 1.537109,1.1123 l 0.25,0.1767 0.182618,-0.2461 c 0.198564,-0.2692 0.394378,-0.5387 0.59082,-0.8066 0.107238,-0.1134 0.158759,-0.2228 0.201172,-0.2881 0.01135,-0.017 0.0027,-0.01 0.0098,-0.016 z"
       id="path4269"
       inkscape:connector-curvature="0" />
    <path
       style="fill:#d63434;fill-opacity:1;stroke:none"
       d="m 11.776367,1038.5726 c -0.649329,0.016 -1.168083,0.6699 -1.037109,1.3056 0.09725,0.6483 0.831212,1.0835 1.450195,0.8545 0.616042,-0.1875 0.938767,-0.9595 0.643555,-1.5341 -0.186316,-0.3922 -0.613872,-0.6531 -1.056641,-0.626 z m 1.763672,2.1738 c -0.208239,0.049 -0.268902,0.3214 -0.41643,0.4623 -0.198905,0.2712 -0.396632,0.5434 -0.596266,0.8141 -0.542107,-0.3837 -1.065567,-0.7998 -1.61621,-1.168 -0.9691533,-0.025 -1.9433239,-0.028 -2.9130864,-0.03 -0.2044937,0.07 -0.24798,0.3337 -0.3853725,0.4803 -0.3545572,0.5544 -0.733879,1.0999 -1.0745884,1.6594 -0.062412,0.2298 0.2396828,0.3156 0.3619237,0.4499 0.1015057,0.1266 0.333631,0.2563 0.4495997,0.085 0.3513038,-0.5445 0.6989616,-1.0917 1.0498047,-1.6367 0.4193647,0.037 0.8384856,0.076 1.2578125,0.1133 -0.7613384,1.0406 -1.5230606,2.081 -2.2851562,3.1211 -0.9259113,0.1786 -1.8596129,0.3332 -2.78125,0.5244 -0.2115385,0.1209 -0.048019,0.4015 -0.04522,0.5829 0.039268,0.1636 0.00382,0.4637 0.2356496,0.4913 1.06304,-0.1822 2.127741,-0.3802 3.1865235,-0.584 0.2046309,-0.1613 0.3145315,-0.4255 0.4869322,-0.6213 0.2619903,-0.3575 0.5228015,-0.716 0.7855287,-1.073 0.3821216,0.2774 0.7623509,0.5573 1.1435549,0.8359 -0.4713646,0.728 -0.9650424,1.4457 -1.4218752,2.1807 -0.061335,0.2353 0.2508225,0.3149 0.3781775,0.4436 0.1446231,0.088 0.3303197,0.3356 0.5144006,0.1795 0.6656901,-0.967 1.3201021,-1.9479 1.9697261,-2.9258 0.08721,-0.2146 -0.194572,-0.3216 -0.320559,-0.4267 -0.536596,-0.3931 -1.074042,-0.785 -1.6101046,-1.1788 0.3254556,-0.4479 0.6539506,-0.8937 0.9804686,-1.3408 0.540624,0.391 1.067668,0.8076 1.617188,1.1826 0.238281,0.067 0.317712,-0.2454 0.447911,-0.375 0.401789,-0.5637 0.833139,-1.1119 1.218104,-1.6846 0.05941,-0.2315 -0.246795,-0.314 -0.37067,-0.4458 -0.07303,-0.056 -0.146667,-0.1297 -0.246517,-0.1157 z"
       id="path4113"
       inkscape:connector-curvature="0" />
  </g>
</svg>
