<!-- Created with Inkscape (http://www.inkscape.org/) -->
<svg xmlns:rdf="http://www.w3.org/1999/02/22-rdf-syntax-ns#" xmlns="http://www.w3.org/2000/svg" height="100" width="100" version="1.1" xmlns:cc="http://creativecommons.org/ns#" xmlns:xlink="http://www.w3.org/1999/xlink" xmlns:dc="http://purl.org/dc/elements/1.1/">	<defs></defs>	<metadata>		<rdf:RDF>			<cc:Work rdf:about="">				<dc:format>image/svg+xml</dc:format>				<dc:type rdf:resource="http://purl.org/dc/dcmitype/StillImage"/>				<dc:title/>			</cc:Work>
		</rdf:RDF>
	</metadata>
	<g transform="translate(0,-952.3622)">		<path fill-rule="nonzero" style="baseline-shift:baseline;block-progression:tb;color:#000000;direction:ltr;text-indent:0;text-align:start;enable-background:accumulate;text-transform:none;" fill="#d63434" d="m44.49,967.99-42.956,73.659,5.4235,9.3006,85.9,0,5.4111-9.3006-42.944-73.659-10.835,0zm5.4111,15.476,32.109,55.083-64.219,0,32.109-55.083z"/>		<path fill-rule="evenodd" style="baseline-shift:baseline;block-progression:tb;color:#000000;direction:ltr;text-indent:0;text-align:start;enable-background:accumulate;text-transform:none;" fill="#575757" d="m64.952,952.36c-10.246,0.35991-20.997,0.5443-29.835,0.8789-1.0347,11.34-2.3122,22.659-3.4985,33.984l-31.292,53.68-0.38873,0.7c2.1469,3.708,4.4127,7.53,6.2196,10.742h87.464c2.27-3.8611,4.2723-7.354,6.3168-10.742-12.653-21.373-25.096-42.893-37.609-64.355,0.84995-8.3033,1.8718-16.589,2.6239-24.902zm-3.1098,2.9297-4.1788,39.648,3.0126,14.062-19.048,0.4883-8.0661-13.672,4.1788-39.844,24.101-0.68359zm0,26.66,34.791,59.668-4.5675,7.9101-84.257,0-4.6647-7.9101,27.697-47.461c-0.03646,0.68632-0.12958,1.3672-0.19436,2.0508,1.5864,2.9673,3.415,5.8083,5.1506,8.6914-6.8488,11.678-13.643,23.388-20.505,35.058h69.193c-7.5054-12.845-14.969-25.714-22.449-38.574l-1.5549-6.8359,1.3605-12.598zm-24.49,25.684c0.9645,1.4467,1.7816,2.975,2.6239,4.4921,8.9069-0.3596,16.039-0.4493,24.198-0.6835l-0.19436-1.0742,15.549,26.758h-18.95c0.72032-6.7377,1.3265-13.488,2.138-20.215-9.0754,0.3017-16.715,0.4658-24.879,0.7813-0.75102,6.4698-1.3914,12.953-2.0408,19.434h-15.549l17.104-29.492zm22.157,12.5-1.5549,15.234-19.145,0.4883,1.6521-15.137,19.048-0.586z"/>		<path d="m37.726,955.99-4.1948,39.803,8.0679,13.745,19.091-0.5516-3.0582-14.079,4.1748-39.612zm2.6941,64.734-1.5979,15.162,19.091-0.5515,1.5979-15.162z" fill-rule="evenodd" fill="#d63434"/>	</g></svg>
