<svg xmlns="http://www.w3.org/2000/svg" viewBox="0 0 256 256">
<defs>
<linearGradient gradientTransform="matrix(.2931 0 0 .27121 56.39631 -4.00889)" xlink:href="#linearGradient7374" id="linearGradient3906" x1="42.322" gradientUnits="userSpaceOnUse" x2="455.802"/>
<linearGradient gradientTransform="matrix(.18857 0 0 .17448 16.51369 590.29507)" xlink:href="#linearGradient7190-7" id="linearGradient3904" x1="193.812" gradientUnits="userSpaceOnUse" x2="986.375"/>
<linearGradient gradientTransform="matrix(.2931 0 0 .27121 56.39631 -4.00889)" xlink:href="#linearGradient7455" id="linearGradient3908" x1="31.875" gradientUnits="userSpaceOnUse" x2="455.312"/>
<linearGradient gradientTransform="matrix(.18857 0 0 .17448 16.51369 590.29507)" xlink:href="#linearGradient7190-7" id="linearGradient3902" x1="258.531" gradientUnits="userSpaceOnUse" x2="921.688"/>
<linearGradient id="linearGradient7374">
<stop offset="0" stop-color="#d8d8d8"/>
<stop offset=".5" stop-color="#cfcfcf"/>
<stop offset="1" stop-color="#dfdfdf"/>
</linearGradient>
<linearGradient id="linearGradient7190-7">
<stop offset="0"/>
<stop offset=".5" stop-color="#fff" stop-opacity="0"/>
<stop offset="1"/>
</linearGradient>
<linearGradient id="linearGradient7455">
<stop offset="0" stop-color="#b2b2b2" stop-opacity="0"/>
<stop offset=".5" stop-color="#5e5e5e"/>
<stop offset="1" stop-color="#b2b2b2" stop-opacity="0"/>
</linearGradient>
</defs>
<g transform="translate(0 -796.36215)">
<path direction="ltr" block-progression="tb" color="#000000" d="m102.5625,796.375a10.004,10.004 0 0,0 -10,10v14.7812c-4.2646,1.4671-8.2802,3.3846-12.2812,5.3438l-10.6562-10.6562a10.004,10.004 0 0,0 -14.1562,0l-35.9688,36a10.004,10.004 0 0,0 0,14.125l10.625,10.6875c-1.9531,3.9874-3.8786,7.9986-5.3438,12.25h-14.7812a10.004,10.004 0 0,0 -10,10v50.9062a10.004,10.004 0 0,0 10,10h14.7812c1.4621,4.2385 3.3974,8.2445 5.3438,12.2188l-10.6562,10.6875a10.004,10.004 0 0,0 0,14.125l36,36.0312a10.004,10.004 0 0,0 14.1562,0l10.6562-10.625c3.9973,1.9566 8.0211,3.8469 12.2812,5.3125v14.7813a10.004,10.004 0 0,0 10,10.0312h50.875a10.004,10.004 0 0,0 10-10.0312v-14.7813c4.2602-1.4656 8.2839-3.3559 12.2812-5.3125l10.6562,10.625a10.004,10.004 0 0,0 14.1562,0l35.9688-36a10.004,10.004 0 0,0 0-14.125l-10.625-10.6562c1.9552-3.9931 3.8785-8.0258 5.3438-12.2812h14.7812a10.004,10.004 0 0,0 10-10v-50.9062a10.004,10.004 0 0,0 -10-10h-14.7812c-1.4651-4.2514-3.3907-8.2626-5.3438-12.25l10.625-10.6875a10.004,10.004 0 0,0 0-14.125l-36-36.0312a10.004,10.004 0 0,0 -14.1562,0l-10.6562,10.6562c-3.9899-1.9553-7.9935-3.8454-12.25-5.3125v-14.7812a10.004,10.004 0 0,0 -10-10h-50.875zm10,20 30.875,0 0,12.1562a10.004,10.004 0 0,0 7.4375,9.6875c7.71,2.0409 14.9972,5.1215 21.7812,9.0625a10.004,10.004 0 0,0 12.125-1.5938l8.6562-8.6562l21.875,21.875l-8.6562,8.6562a10.004,10.004 0 0,0 -1.5625,12.0938c3.9389,6.7766 7.0184,14.1001 9.0625,21.8125a10.004,10.004 0 0,0 9.6562,7.4375h12.1875v30.875h-12.1875a10.004,10.004 0 0,0 -9.6562,7.4688c-2.0456,7.7267-5.1223,15.0336-9.0625,21.8125a10.004,10.004 0 0,0 1.5625,12.0938l8.6562,8.6562l-21.875,21.8437l-8.6562-8.6562a10.004,10.004 0 0,0 -12.0938-1.5625c-6.7789,3.9403-14.0859,7.0172-21.8125,9.0625a10.004,10.004 0 0,0 -7.4375,9.6875v12.1563h-30.875v-12.1563a10.004,10.004 0 0,0 -7.4375-9.6875c-7.7265-2.0453-15.0336-5.1222-21.8125-9.0625a10.004,10.004 0 0,0 -12.0938,1.5625l-8.6562,8.6562l-21.875-21.875l8.6562-8.6562a10.004,10.004 0 0,0 1.5625-12.0938c-3.9404-6.7831-7.0215-14.072-9.0625-21.7812a10.004,10.004 0 0,0 -9.6562-7.4688h-12.1875v-30.875h12.1875a10.004,10.004 0 0,0 9.6562-7.4375c2.0441-7.7124 5.1236-15.036 9.0625-21.8125a10.004,10.004 0 0,0 -1.5625-12.0938l-8.625-8.6562l21.8438-21.8438l8.6562,8.6562a10.004,10.004 0 0,0 12.0938,1.5625c6.7798-3.9408 14.0851-7.0169 21.8125-9.0625a10.004,10.004 0 0,0 7.4375-9.6875v-12.1562z"/>
<path fill="#ff432a" d="m102.5628,806.3648 0,22.1821c-8.6164,2.2809-16.7578,5.7075-24.2851,10.0828l-15.7291-15.7003l-35.9811,35.9811l15.7003,15.7291c-4.3704,7.5188-7.8019,15.6506-10.0828,24.2563h-22.1821v50.9036h22.1821c2.2787,8.6074 5.7138,16.7355 10.0828,24.2563l-15.7291,15.7291l36.0099,36.0099l15.7291-15.7003c7.5267,4.375 15.6695,7.802 24.2851,10.0827v22.1821h50.8748v-22.1821c8.6156-2.2807 16.7584-5.7077 24.2851-10.0827l15.7291,15.7003l35.9811-35.9811l-15.7003-15.7291c4.3749-7.5267 7.8019-15.6695 10.0828-24.2851h22.1821v-50.9036h-22.1821c-2.2809-8.6057-5.7124-16.7374-10.0828-24.2563l15.7003-15.7291l-36.0099-36.0099l-15.7291,15.7291c-7.5214-4.3693-15.6481-7.804-24.2563-10.0828v-22.1821h-50.8748z"/>
<path fill="#ffd05d" d="m1034.3962,1933.2152c0,245.4724-198.9947,444.4671-444.4671,444.4671c-245.4724,0-444.4671-198.9947-444.4671-444.4671c0-245.4724 198.9947-444.4671 444.4671-444.4671c245.4724,0 444.4671,198.9947 444.4671,444.4671z" transform="matrix(.20054 0 0 .20054 9.69373 536.66815)"/>
</g>
<g transform="matrix(.92185 0 0 .92185 10.19926 -726.42554)">
<path stroke-opacity=".468" fill="#fff" stroke="#cb7722" stroke-width="1.41" d="m123.9466,858.3196c-24.3431,1.149-45.5914,13.1444-58.2098,30.8674h58.2098v-30.8674zm8.3856,18.01 0,12.8573 57.5144,0c-12.4973-17.553-33.4634-11.5138-57.5144-12.8573z"/>
<path fill="#fff" stroke="#b0b0b0" stroke-width=".907" d="m58.194,902.9331c-3.0116,7.4728-4.6613,15.5585-4.6613,24.0025c0,37.947 33.2453,68.7087 74.2561,68.7087c41.0108,0 74.2561-30.7617 74.2561-68.7087c0-8.444-1.6438-16.5298-4.6554-24.0025z"/>
<path opacity=".184" fill="url(#linearGradient3902)" stroke="#b0b0b0" stroke-width=".907" d="m123.9466,858.3196c-24.3431,1.149-45.5914,13.1444-58.2098,30.8674h58.2098v-30.8674zm8.3856,18.01 0,12.8573 57.5144,0c-12.4973-17.553-33.4634-11.5138-57.5144-12.8573z"/>
<path opacity=".158" fill="url(#linearGradient3904)" stroke="#b0b0b0" stroke-width=".907" d="m58.194,902.9331c-3.0116,7.4728-4.6613,15.5585-4.6613,24.0025c0,37.947 33.2453,68.7087 74.2561,68.7087c41.0108,0 74.2561-30.7617 74.2561-68.7087c0-8.444-1.6438-16.5298-4.6554-24.0025z"/>
<path fill="url(#linearGradient3906)" d="m68.8011,902.9331c3.3275,3.1636 4.5695,27.3326 5.0325,44.1664c-.1254,7.2156-.397,17.028-.9782,26.0691c.7903,.8035 1.6036,1.5876 2.4338,2.3555c-.5542-7.4911-.8802-15.7419-1.0725-22.732c.2844-16.4206 1.3156-46.3168 5.0679-49.859h-10.4834zm27.4549,0c2.9318,5.091 4.0646,27.5538 4.5022,43.463c-.2172,12.5407-.8721,32.9435-2.8404,43.463c2.1279,.866 4.3084,1.6413 6.5352,2.3227c-2.0589-8.2927-2.9396-26.5667-3.3118-40.0987c.2713-15.6131 1.2246-43.4087 4.5434-49.1501h-9.4286zm26.6122,0c2.9318,5.091 4.0646,27.5538 4.5021,43.463c-.2705,15.5645-1.2142,43.2357-4.508,49.0956c1.6287,.0987 3.2707,.1526 4.9264,.1526c1.4965,0 2.9804-.0445 4.455-.1254c-2.92-5.1441-4.0535-27.5551-4.4904-43.4357c.2705-15.6131 1.2195-43.4087 4.5375-49.1501h-9.4227zm31.0967,0c2.9318,5.091 4.0646,27.5538 4.5021,43.463c-.2233,12.892-.9055,34.0884-3.0054,44.319c2.0148-.7492 3.9877-1.5826 5.9106-2.4863c-1.5054-9.2801-2.2011-24.4727-2.5222-36.1456c.2713-15.6131 1.2246-43.4088 4.5434-49.1501h-9.4286zm26.6063,0c2.9318,5.091 4.0646,27.5538 4.5022,43.463c-.1217,7.0053-.3784,16.4597-.9252,25.2785c.6942-.7481 1.3677-1.5092 2.0272-2.2847c-.3445-5.9058-.5722-11.9733-.7189-17.3067c.2705-15.6131 1.2195-43.4088 4.5375-49.1501h-9.4227z"/>
<path opacity=".5" fill="#4e4e4e" stroke="#b0b0b0" stroke-width=".907" d="m58.1916,902.9353c-3.0116,7.4727-4.6622,15.5578-4.6622,24.0019c0,.9007 .027,1.7943 .0641,2.6866c.3162-7.4556 1.9133-14.6027 4.5981-21.2644c0,0 15.5943-3.0995 68.9685-3.0995c53.3742,0 70.2286,3.0995 70.2286,3.0995c2.6888,6.6717 4.2863,13.8305 4.5981,21.2983c.038-.9035 .0549-1.8084 .0549-2.7205c0-8.444-1.6414-16.5292-4.653-24.0019z"/>
<path fill="url(#linearGradient3908)" d="m123.9477,858.3216c-24.3431,1.149-45.5903,13.1439-58.2087,30.8668h1.1999c12.7403-16.8259 33.4192-28.1261 57.0088-29.2396v-1.6273zm8.3809,18.0099 0,1.6273c23.2727,1.3001 43.6582-4.3092 56.276,11.2297h1.2457c-12.4973-17.553-33.4707-11.5134-57.5217-12.8569z"/>
<path fill="#3d3d3d" d="m104.3099,874.0664c-6.6614,0-12.0626,5.2436-12.0626,11.7104c0,1.1855 .1825,2.3288 .5199,3.4073h21.7089v-9.7012c-2.1425-3.2545-5.8927-5.4166-10.1663-5.4166z"/>
</g>
</svg>
