<svg xmlns="http://www.w3.org/2000/svg" viewBox="0 0 256 256">
<defs>
<linearGradient gradientTransform="matrix(.98504 0 0 .98504 -.82534 3.1101)" xlink:href="#linearGradient4301" id="linearGradient4360" y1="204.087" x1="-42.552" y2="151.436" gradientUnits="userSpaceOnUse" x2="-1.399"/>
<linearGradient id="linearGradient4301">
<stop offset="0" stop-color="#9592e0"/>
<stop offset="1" stop-color="#d4d3f0"/>
</linearGradient>
</defs>
<g transform="matrix(3.55556 0 0 4.29568 196.11111 -636.83108)">
<path fill="url(#linearGradient4360)" d="m-28.2807,150.727-2.2056,5.643-12.8328-1.4609-3.3801,15.3249 10.3121,1.1744-3.6379,9.3095-8.7653-1.0026-3.3801,15.3249 6.2446,.7161-3.7811,9.6246 15.8692,0 3.0936-7.9059 9.3668,1.0885-2.664,6.8175 15.8692,0 2.0051-5.0988 11.1714,1.289 3.3801-15.3249-8.6794-1.0026 3.6379-9.2523 7.1039,.8021 3.3801-15.3249-4.6118-.5156 4.0103-10.2262-15.8692,0-3.3228,8.4788-9.3382-1.0885 2.8931-7.3903-15.8692,0zm7.0752,22.4288 9.3668,1.0885-3.6379,9.2809-9.3668-1.0885 3.6379-9.2809z"/>
<path direction="ltr" fill="#303030" block-progression="tb" color="#000000" d="m-29.9763,148.2491-.5849,1.5699-1.5083,3.8786-10.9585-1.2313-2.2163-.2463-.4925,2.1548-3.3553,15.3296-.6156,2.6781 2.7396,.3078 7.1107,.8003-1.7546,4.5558-6.8953-.7696-2.2163-.2463-.4617,2.1548-3.3861,15.3296-.5849,2.6473 2.7088,.3386 3.0475,.3386-2.5857,6.649-1.3236,3.3553 3.6015,0 15.8837,0 1.6622,0 .6156-1.5699 2.401-6.1257 4.3095,.4925-1.5083,3.8478-1.2929,3.3553 3.6015,0 15.8529,0 1.693,0 .6156-1.5699 1.2929-3.3245 9.2963,1.0774 2.2163,.2463 .4925-2.1856 3.3553-15.2988 .5849-2.6781-2.7088-.3078-5.4793-.6464 1.7854-4.4942 5.2022,.5849 2.2163,.2463 .4617-2.1548 3.3861-15.3296 .5849-2.6781-2.7088-.3078-1.416-.1539 2.832-7.2339 1.3236-3.3861-3.6323,0-15.8529,0-1.693,0-.6156,1.5699-2.6165,6.7106-4.2788-.4925 1.7238-4.4019 1.3236-3.3861-3.6015,0-15.8837,0-1.693,0zm3.3861,4.9252 10.5584,0-1.5699,4.0325-1.1697,2.9859 3.1706,.3694 9.3578,1.0774 1.8777,.2463 .6772-1.7854 2.7088-6.926 10.5891,0-2.6781,6.8953-1.1697,2.9859 3.1706,.3386 1.9085,.2155-2.3395,10.4968-4.8944-.5541-1.8777-.2155-.6772,1.7546-3.6323,9.2655-1.1697,2.9551 3.1706,.3694 5.9718,.708-2.3087,10.4968-8.9577-1.0466-1.8777-.2155-.708,1.7546-1.3852,3.54-10.5891,0 1.3544-3.4476 1.1697-2.9859-3.1706-.3694-9.3886-1.0774-1.8777-.2155-.6772,1.7546-2.4934,6.3412-10.5891,0 2.4626-6.2488 1.1697-2.9859-3.1706-.3694-3.54-.4002 2.3087-10.4968 6.5566,.7388 1.9085,.2155 .6772-1.7546 3.6323-9.3271 1.1697-2.9551-3.1706-.3694-7.6033-.8619 2.3087-10.4968 10.6199,1.2005 1.9085,.2155 .6772-1.7546 1.6007-4.0941zm3.7862,17.3305-.708,1.7546-3.6323,9.2655-1.1697,2.9859 3.2014,.3694 9.3578,1.0774 1.8777,.2463 .708-1.7854 3.6323-9.2655 1.1697-2.9859-3.2014-.3694-9.3578-1.0774-1.8777-.2155zm3.1706,5.3253 4.3403,.4925-1.7854,4.5558-4.3095-.5233 1.7546-4.525z"/>
</g>
</svg>
