<svg xmlns="http://www.w3.org/2000/svg" viewBox="0 0 256 256">
<defs>
<linearGradient id="linearGradient3861">
<stop offset="0" stop-color="#f1eb54"/>
<stop offset="1" stop-color="#e6d301"/>
</linearGradient>
<linearGradient xlink:href="#linearGradient4187" id="linearGradient4254" y1="-14.19" x1="197.027" y2="-30.783" gradientUnits="userSpaceOnUse" x2="207.664"/>
<linearGradient xlink:href="#linearGradient3861" id="linearGradient4258" y1="31.578" x1="243.048" y2="62.498" gradientUnits="userSpaceOnUse" x2="235.175"/>
<linearGradient xlink:href="#linearGradient4187" id="linearGradient4256" y1="-28.948" x1="184.902" y2="-46.02" gradientUnits="userSpaceOnUse" x2="194.399"/>
<linearGradient xlink:href="#linearGradient4187" id="linearGradient4252" y1="-19.172" x1="220.522" y2="-39.594" gradientUnits="userSpaceOnUse" x2="229.504"/>
<linearGradient xlink:href="#linearGradient4187" id="linearGradient4246" y1="-52.124" x1="191.035" y2="-72.865" gradientUnits="userSpaceOnUse" x2="202.524"/>
<linearGradient id="linearGradient4201">
<stop offset="0" stop-color="#c91117"/>
<stop offset="1" stop-color="#e4131a"/>
</linearGradient>
<linearGradient id="linearGradient4187">
<stop offset="0" stop-color="#00a651"/>
<stop offset="1" stop-color="#00d467"/>
</linearGradient>
<linearGradient xlink:href="#linearGradient4201" id="linearGradient4250" y1="-42.097" x1="222.916" y2="-58.69" gradientUnits="userSpaceOnUse" x2="240.584"/>
<linearGradient xlink:href="#linearGradient4187" id="linearGradient4248" y1="-52.699" x1="209.514" y2="-75.674" gradientUnits="userSpaceOnUse" x2="222.077"/>
</defs>
<g transform="matrix(3.55742 0 0 3.55636 -616.59449 289.20245)">
<path fill="url(#linearGradient4246)" d="m191.5625-72.6875c-2.4699,.14-4.6134,1.3634-6.4375,3.1875c-4.1694,4.1694-5.0923,10.0015 2.4688,17.5625c1.9618,1.9618 4.3196,3.8266 6.7812,5.4688c.6135-7.0119 6.7449-13.2435 13.8125-13.7812c-1.6465-2.4677-3.5331-4.8143-5.5-6.7812c-4.2531-4.2531-7.9494-5.8363-11.125-5.6562z"/>
<path fill="url(#linearGradient4248)" d="m215-78.8125c-4.5008,.0054-8.5639,2.9831-10.8125,11.375c-.1404,.5238-.255,1.0815-.375,1.625c1.5518,1.6902 3.0477,3.5857 4.375,5.5625c1.384-.1053 2.798-.0263 4.2188,.3438c4.0014,.7611 7.154,3.1542 9.1875,6.25c1.3443-2.6876 2.4891-5.527 3.2188-8.25c2.7675-10.3285-.9607-14.9426-6.6562-16.4688c-1.0679-.2861-2.1176-.4387-3.1562-.4375z"/>
<path fill="url(#linearGradient4250)" d="m232.625-61.75c-1.9085-.0479-4.1366,.2456-6.7188,.9375c-.5157,.1382-1.04,.335-1.5625,.5c-.7061,2.2288-1.6638,4.485-2.75,6.6562c2.8432,4.3284 3.5058,10.0729 1.1875,14.8438c2.9753-.19 5.9611-.6528 8.6562-1.375c10.3285-2.7675 12.4636-8.3045 10.9375-14c-1.1446-4.2717-4.0243-7.4187-9.75-7.5625z"/>
<path fill="url(#linearGradient4252)" d="m229.875-39.7812c-2.2649,.505-4.6845,.8214-7.0938,.9688c-.0733,.1508-.1395,.2887-.2188,.4375c-.0349,.0654-.0889,.1226-.125,.1875c-.1292,.2322-.2617,.4617-.4062,.6875c-.1349,.2108-.258,.4198-.4062,.625c-.0219,.0308-.0403,.063-.0625,.0938c-.205,.2789-.4266,.5444-.6562,.8125c-.2577,.3051-.5224,.586-.8125,.875c-.3188,.3695-.6517,.7083-1,1.0312c-.3478,.3225-.72,.6293-1.0938,.9062c-.7374,.5464-1.4947,1.001-2.3125,1.375c-.0209,.0096-.0415,.0218-.0625,.0312c-.0213,.0096-.0411,.0218-.0625,.0312c-.7998,.3556-1.6508,.6139-2.5,.8125c-.4487,.1049-.8866,.1876-1.3438,.25c-.4547,.062-.9156,.1042-1.375,.125c1.6668,2.5271 3.5842,4.928 5.5938,6.9375c7.561,7.561 13.3931,6.6382 17.5625,2.4688c4.1694-4.1694 5.0923-10.0015-2.4688-17.5625c-.3689-.3689-.7628-.7311-1.1562-1.0938z"/>
<path fill="url(#linearGradient4254)" d="m196.9375-36.875c-1.3149,2.6616-2.4049,5.4686-3.125,8.1562c-2.7675,10.3285 .9607,14.9426 6.6562,16.4688c5.6955,1.5261 11.2012-.609 13.9688-10.9375c.1364-.5089 .2884-1.0343 .4062-1.5625c-1.602-1.7433-3.1116-3.7314-4.4688-5.7812c-5.1529,.2437-10.4933-2.0671-13.4375-6.3438z"/>
<path fill="url(#linearGradient4256)" d="m195.9375-51.8125c-3.0037,.1843-6.0235,.6444-8.75,1.375c-10.3285,2.7675-12.4636,8.2732-10.9375,13.9688c1.5261,5.6955 6.1402,9.4238 16.4688,6.6562c.5245-.1405 1.0622-.3319 1.5938-.5c.689-2.1912 1.5782-4.425 2.625-6.5625c-.8699-1.2636-1.5207-2.6929-1.9062-4.2812c-1.2555-3.6499-.7541-7.4305 .9062-10.6562z"/>
<path fill="url(#linearGradient4258)" d="m254.3202,49.4628c0,7.8423-6.3575,14.1998-14.1998,14.1998c-7.8423,0-14.1998-6.3575-14.1998-14.1998c0-7.8423 6.3575-14.1998 14.1998-14.1998c7.8423,0 14.1998,6.3575 14.1998,14.1998z" transform="matrix(.88803 .23795 -.23795 .88803 7.84387 -146.388)"/>
<path direction="ltr" fill="#303030" block-progression="tb" color="#000000" d="m214.4688-81.3125c-1.9938,.095-3.9921,.6757-5.7812,1.875c-2.619,1.7556-4.683,4.6776-6.1562,8.8438c-3.347-2.8584-6.5786-4.352-9.7188-4.5625c-.4678-.0314-.9221-.027-1.375,0c-3.1706,.189-5.9638,1.745-8.0938,3.875c-2.4342,2.4342-4.1259,5.6949-3.875,9.4375c.2105,3.1401 1.7041,6.3959 4.5625,9.75c-4.1583,1.4726-7.092,3.5431-8.8438,6.1562c-2.0886,3.1157-2.2347,6.7998-1.3438,10.125c.891,3.3252 2.8833,6.4398 6.25,8.0938c2.8353,1.3929 6.3966,1.6934 10.75,.875c-.8184,4.3534-.518,7.9147 .875,10.75c1.654,3.3667 4.7685,5.359 8.0938,6.25c3.3252,.891 7.0093,.7136 10.125-1.375c2.6184-1.7552 4.6589-4.6791 6.125-8.8438c3.3537,2.876 6.604,4.3828 9.75,4.5938c3.7426,.2509 7.0345-1.4408 9.4688-3.875c2.4342-2.4342 4.1259-5.7261 3.875-9.4688c-.2109-3.146-1.6935-6.3963-4.5625-9.75c4.1496-1.4655 7.0612-3.5125 8.8125-6.125c2.0886-3.1157 2.266-6.7998 1.375-10.125c-.891-3.3252-2.8833-6.4398-6.25-8.0938c-1.6833-.827-3.6025-1.2859-5.8125-1.3438c-1.5124-.0396-3.1634,.1323-4.9375,.4688c.8184-4.3534 .5179-7.9147-.875-10.75c-1.654-3.3667-4.7685-5.359-8.0938-6.25c-.8313-.2227-1.6689-.3916-2.5312-.4688c-.3234-.0289-.6436-.0565-.9688-.0625c-.2845-.0053-.5589-.0136-.8438,0zm.5625,5c.7763,.0077 1.6111,.1368 2.5,.375c2.3703,.6351 3.9404,1.6914 4.875,3.5938c.9346,1.9024 1.2559,4.9773-.0312,9.7812c-.5297,1.9767-1.3039,4.0609-2.2188,6.0938c-1.8423-1.8073-4.1518-3.1621-6.8125-3.875c-.8578-.2299-1.7054-.3576-2.5625-.4375c-1.2836-2.0242-2.701-3.9883-4.25-5.7812c.0187-.072 .0434-.1473 .0625-.2188c1.2872-4.8039 3.1144-7.3198 4.875-8.5c.8803-.5901 1.8168-.8968 2.8125-1c.2489-.0258 .4912-.0338 .75-.0312zm-23.3438,6.125c.2535-.0129 .5169-.0177 .7812,0c2.1148,.1418 4.952,1.4208 8.4688,4.9375c1.4544,1.4544 2.8598,3.1823 4.1562,5c-3.3472,.9603-6.3425,2.9906-8.4062,5.8438c-.4697,.0246-.9386,.0603-1.4062,.0938c-1.9342,.1382-3.854,.4209-5.7188,.7812c-.0625-.061-.1262-.1262-.1875-.1875c-3.5167-3.5167-4.7957-6.3227-4.9375-8.4375c-.1418-2.1148 .7023-3.8586 2.4375-5.5938c1.5183-1.5183 3.0383-2.3472 4.8125-2.4375zm40.8438,10.9375c1.6071,.038 2.8613,.3765 3.8125,.8438c1.9024,.9346 2.9586,2.5047 3.5938,4.875c.6351,2.3703 .4927,4.3019-.6875,6.0625c-1.1802,1.7606-3.6648,3.5878-8.4688,4.875c-1.9855,.532-4.1816,.9069-6.4062,1.125c.9111-3.5732 .4989-7.1806-.9375-10.3125c1.1066-2.1172 2.1014-4.3283 2.875-6.5625c.0809-.0226 .1693-.0409 .25-.0625c2.402-.6436 4.3616-.8818 5.9688-.8438zm-23.6562,3.4062c1.0382-.039 2.1267,.0595 3.1875,.3438c5.6573,1.5159 8.9534,7.2489 7.4375,12.9062c-1.5159,5.6573-7.2489,8.9846-12.9062,7.4688c-5.6573-1.5159-8.9846-7.2489-7.4688-12.9062c1.2316-4.5966 5.2512-7.6435 9.75-7.8125zm-14.625,6.6875c-.9049,3.5489-.5139,7.1369 .9062,10.25c.004,.0088-.004,.0224 0,.0312c-1.0922,2.111-2.0746,4.3098-2.8438,6.5312c-.0838,.0235-.1664,.0714-.25,.0938c-4.8039,1.2872-7.8789,.9658-9.7812,.0312c-1.9024-.9346-2.9586-2.5047-3.5938-4.875c-.6351-2.3703-.4927-4.3019 .6875-6.0625c1.1802-1.7606 3.6648-3.5878 8.4688-4.875c1.9864-.5322 4.178-.9021 6.4062-1.125zm34.8125,12.0312c.0616,.0608 .1267,.1267 .1875,.1875c3.5167,3.5167 4.7645,6.3539 4.9062,8.4688c.1418,2.1148-.6711,3.8586-2.4062,5.5938c-1.7352,1.7352-3.4789,2.548-5.5938,2.4062c-2.1148-.1418-4.952-1.3895-8.4688-4.9062c-1.4554-1.4554-2.8567-3.1809-4.1562-5c3.3616-.9546 6.3407-3.0363 8.4062-5.9062c2.3915-.1069 4.8025-.3935 7.125-.8438zm-30.5938,2.9375c1.8472,1.8045 4.1831,3.1621 6.8438,3.875c.8373,.2244 1.6638,.3558 2.5,.4375c1.2906,2.0349 2.72,4.0159 4.2812,5.8125c-.0187,.072-.0434,.1473-.0625,.2188c-1.2872,4.8039-3.1144,7.2886-4.875,8.4688c-1.7606,1.1802-3.6922,1.3226-6.0625,.6875c-2.3703-.6351-3.9404-1.7226-4.875-3.625c-.9346-1.9024-1.2872-4.9773 0-9.7812c.5317-1.9844 1.3252-4.0627 2.25-6.0938z"/>
</g>
</svg>
