<?xml version="1.0" encoding="UTF-8" standalone="no"?>
<!-- Created with Inkscape (http://www.inkscape.org/) -->

<svg
   xmlns:dc="http://purl.org/dc/elements/1.1/"
   xmlns:cc="http://creativecommons.org/ns#"
   xmlns:rdf="http://www.w3.org/1999/02/22-rdf-syntax-ns#"
   xmlns:svg="http://www.w3.org/2000/svg"
   xmlns="http://www.w3.org/2000/svg"
   xmlns:xlink="http://www.w3.org/1999/xlink"
   xmlns:sodipodi="http://sodipodi.sourceforge.net/DTD/sodipodi-0.dtd"
   xmlns:inkscape="http://www.inkscape.org/namespaces/inkscape"
   width="256"
   height="256"
   id="svg2"
   version="1.1"
   inkscape:version="0.48.3.1 r9886"
   sodipodi:docname="im-jabber.svg">
  <defs
     id="defs4">
    <linearGradient
       id="linearGradient3861">
      <stop
         id="stop3863"
         offset="0"
         style="stop-color:#f1eb54;stop-opacity:1;" />
      <stop
         id="stop3865"
         offset="1"
         style="stop-color:#e6d301;stop-opacity:1;" />
    </linearGradient>
    <linearGradient
       inkscape:collect="always"
       xlink:href="#linearGradient3861"
       id="linearGradient3065"
       gradientUnits="userSpaceOnUse"
       x1="81.417679"
       y1="-66.239395"
       x2="42.071548"
       y2="-24.118601"
       gradientTransform="matrix(2.5914109,-2.5907909,2.5914109,2.5907909,105.08698,1187.4325)" />
  </defs>
  <sodipodi:namedview
     id="base"
     pagecolor="#ffffff"
     bordercolor="#666666"
     borderopacity="1.0"
     inkscape:pageopacity="0.0"
     inkscape:pageshadow="2"
     inkscape:zoom="0.98994949"
     inkscape:cx="106.03376"
     inkscape:cy="121.07143"
     inkscape:document-units="px"
     inkscape:current-layer="layer1"
     showgrid="false"
     inkscape:window-width="1440"
     inkscape:window-height="848"
     inkscape:window-x="-8"
     inkscape:window-y="-8"
     inkscape:window-maximized="1" />
  <metadata
     id="metadata7">
    <rdf:RDF>
      <cc:Work
         rdf:about="">
        <dc:format>image/svg+xml</dc:format>
        <dc:type
           rdf:resource="http://purl.org/dc/dcmitype/StillImage" />
        <dc:title />
      </cc:Work>
    </rdf:RDF>
  </metadata>
  <g
     inkscape:label="Layer 1"
     inkscape:groupmode="layer"
     id="layer1"
     transform="translate(0,-796.36215)">
    <path
       inkscape:connector-curvature="0"
       style="fill:#a7a7a7;fill-opacity:1;stroke:none"
       d="m 157.15814,1013.7685 20.32638,20.3216 c 16.72098,16.7169 36.24099,9.2684 52.96196,-7.4486 16.72097,-16.7169 24.0903,-36.15131 7.36933,-52.86829 L 217.48943,953.4517 c -2.1352,10.14901 -8.59105,20.24755 -17.73497,29.38928 l -13.2,13.19684 c -9.14392,9.14178 -19.24487,15.59608 -29.39632,17.73068 z"
       id="rect3849" />
    <path
       style="fill:url(#linearGradient3065);fill-opacity:1;stroke:none"
       d="m 35.928702,832.1703 c -36.15411362,36.14546 -36.15411362,94.8514 0,130.99686 20.630623,20.62569 48.637934,29.41088 75.555828,26.47465 l 13.84785,13.84449 c 19.01151,19.007 42.21867,11.5666 61.23019,-7.44037 l 13.2,-13.19684 c 19.01151,-19.00697 26.45371,-42.20858 7.4422,-61.21554 L 193.4379,907.86997 c 2.96739,-26.93851 -5.89001,-54.9517 -26.56197,-75.61871 -36.15411,-36.14546 -94.793115,-36.22643 -130.947228,-0.081 z"
       id="path3845"
       inkscape:connector-curvature="0"
       sodipodi:nodetypes="sscsssscss" />
    <text
       transform="matrix(0.77400355,-0.54090708,0.63131073,0.85079656,0,0)"
       sodipodi:linespacing="125%"
       id="text3871"
       y="818.11798"
       x="-517.81073"
       style="font-size:178.25109863px;font-style:normal;font-variant:normal;font-weight:normal;font-stretch:normal;line-height:125%;letter-spacing:0px;word-spacing:0px;fill:#fff9cc;fill-opacity:1;stroke:none;font-family:Ubuntu;-inkscape-font-specification:Ubuntu"
       xml:space="preserve"><tspan
         y="818.11798"
         x="-517.81073"
         id="tspan3873"
         sodipodi:role="line">J</tspan></text>
    <path
       inkscape:connector-curvature="0"
       id="text3867"
       d="m 101.43673,796.36227 c -25.96911,-0.0213 -52.003434,9.80335 -71.776752,29.57194 -39.5466363,39.53717 -39.5466363,103.89228 0,143.42945 21.381844,21.37673 50.076884,30.77204 78.090442,29.01816 l 11.2982,11.29718 c 10.19333,10.1909 22.82694,14.4634 34.89147,13.4015 l 17.27959,17.278 c 10.04506,10.0426 22.93718,13.6858 34.55918,11.2971 11.62199,-2.3886 21.78951,-9.7164 30.90388,-18.8286 9.11436,-9.1121 16.24266,-19.2936 18.60878,-30.901 2.36613,-11.60738 -1.15248,-24.3019 -11.18742,-34.33444 l -17.27959,-17.27799 c 1.07254,-12.07133 -3.20042,-24.68835 -13.40276,-34.88824 l -11.18742,-11.29715 c 1.78123,-28.05203 -7.71544,-56.67217 -29.13162,-78.08322 -19.76864,-19.76391 -45.69687,-29.66128 -71.66598,-29.68269 z m 0,17.4995 c 21.42745,0.0191 42.76388,8.20635 59.14936,24.5879 18.73569,18.73121 26.83129,44.08004 24.14711,68.44742 l -0.55383,4.20874 2.9907,2.99042 13.84582,13.73379 c 7.82205,7.82016 9.49858,14.80412 8.08596,22.8158 -1.41261,8.01168 -6.97837,17.27934 -15.61808,25.91698 l -13.18123,13.29076 c -8.63971,8.63765 -17.90579,14.09362 -25.91938,15.50592 -8.0136,1.4122 -14.99588,-0.2651 -22.81792,-8.08524 l -13.84582,-13.84455 -2.9907,-2.99042 -4.20913,0.44303 C 86.155306,983.54 60.861257,975.63914 42.176603,956.95895 9.4150103,924.2052 9.4150103,871.20343 42.176603,838.44967 58.557397,822.0728 80.009281,813.8427 101.43673,813.86177 z m 4.43066,16.83496 -13.402755,9.30353 51.949535,69.88725 c 6.67605,8.99719 9.822,16.45138 9.52592,22.26202 -0.29614,5.81073 -3.78769,10.98727 -10.41206,15.61665 -4.59779,3.21314 -8.97251,5.05166 -13.29199,5.53781 -4.31948,0.4862 -8.01906,0.72225 -11.07666,0.55378 l 3.43377,15.28438 c 1.59378,0.26372 3.48322,0.35304 5.75986,0.22151 2.27663,-0.13149 4.77947,-0.48877 7.53213,-1.10756 2.75263,-0.61878 5.71561,-1.60443 8.75056,-2.87967 3.03491,-1.27521 6.06667,-3.02029 9.19363,-5.20555 6.16401,-4.30768 10.58798,-8.78089 13.29199,-13.51227 2.70392,-4.73132 4.09876,-9.63014 4.09836,-14.61983 -4.9e-4,-4.98961 -1.17354,-9.92988 -3.43376,-14.95211 -2.26031,-5.02211 -5.22199,-10.1196 -8.9721,-15.17362 l -52.94643,-71.21632 z m 114.97572,138.55617 10.74436,10.74337 c 6.68604,6.68443 7.743,11.91727 6.42446,18.38555 -1.31853,6.46828 -6.23921,14.43568 -13.84582,22.04048 -7.60661,7.6048 -15.43328,12.3982 -21.93178,13.7338 -6.49851,1.3356 -11.82211,0.3612 -18.49802,-6.3131 l -10.74436,-10.6326 c 5.29662,-2.7767 10.30713,-6.4344 15.06425,-10.6326 1.58981,-1.403 3.23613,-2.793 4.76297,-4.3195 l 13.18122,-13.18001 c 1.52684,-1.52647 2.91654,-3.17309 4.3199,-4.76252 4.19922,-4.75599 7.74548,-9.7675 10.52282,-15.06287 z"
       style="font-size:48.64440536000000000px;font-style:normal;font-variant:normal;font-weight:normal;font-stretch:normal;line-height:125%;letter-spacing:0px;word-spacing:0px;fill:#303030;fill-opacity:1;stroke:none;font-family:Ubuntu;-inkscape-font-specification:Ubuntu;stroke-opacity:1" />
  </g>
</svg>
