<?xml version="1.0" encoding="utf8" standalone="no"?>
<svg height="256" id="svg2" inkscape:version="0.48.3.1 r9886" sodipodi:docname="im-jabber.svg" width="256" xmlns="http://www.w3.org/2000/svg" xmlns:cc="http://creativecommons.org/ns#" xmlns:dc="http://purl.org/dc/elements/1.1/" xmlns:inkscape="http://www.inkscape.org/namespaces/inkscape" xmlns:rdf="http://www.w3.org/1999/02/22-rdf-syntax-ns#" xmlns:sodipodi="http://sodipodi.sourceforge.net/DTD/sodipodi-0.dtd" xmlns:svg="http://www.w3.org/2000/svg">
<defs id="defs4">
<linearGradient gradientUnits="userSpaceOnUse" id="linearGradient3091" inkscape:collect="always" x1="81.417679" x2="42.071548" y1="-66.239395" y2="-24.118601">
<stop id="stop3863" offset="0" style="stop-color:#f1eb54"/>
<stop id="stop3865" offset="1" style="stop-color:#e6d301"/>
</linearGradient>
</defs>
<sodipodi:namedview id="base" inkscape:current-layer="layer1" inkscape:cx="106.03376" inkscape:cy="121.07143" inkscape:document-units="px" inkscape:pageopacity="0" inkscape:pageshadow="2" inkscape:window-height="582" inkscape:window-maximized="0" inkscape:window-width="808" inkscape:window-x="17" inkscape:window-y="221" inkscape:zoom="0.98994949"/>
<g id="layer1" inkscape:groupmode="layer" inkscape:label="Layer 1" transform="translate(0,-796.3622)">
<g id="g4389" transform="matrix(3.55556,0,0,3.55556,-16.98691,1493.291)">
<g id="g3905" transform="matrix(.72883,-.72866,.72883,.72866,34.33328,-86.02271)">
<path d="m 43.5625,-23.46875 0,7.84375 c 0,6.4524592 5.203791,8.78125 11.65625,8.78125 6.452459,0 11.625,-2.3287908 11.625,-8.78125 l 0,-7.84375 c -2.370647,1.546695 -5.565201,2.25 -9.09375,2.25 l -5.09375,0 c -3.528549,0 -6.723103,-0.703305 -9.09375,-2.25 z" id="rect3849" inkscape:connector-curvature="0" style="fill:#a7a7a7"/>
<path d="m 55.21875,-81.90625 c -13.951517,0 -25.28125,11.329733 -25.28125,25.28125 0,7.961155 3.708409,15.060492 9.46875,19.6875 l 0,5.34375 c 0,7.336357 5.913643,10.378128 13.25,10.378128 l 5.09375,0 c 7.336357,0 13.25,-3.041771 13.25,-10.378128 l 0,-5.3125 c 5.771441,-4.626354 9.46875,-11.741644 9.46875,-19.71875 0,-13.951517 -11.298483,-25.28125 -25.25,-25.28125 z" id="path3845" inkscape:connector-curvature="0" sodipodi:nodetypes="sscsssscss" style="fill:url(#linearGradient3091)"/><text id="text3871" sodipodi:linespacing="125%" style="font-family:Ubuntu;fill:#fff9cc;letter-spacing:0;font-size:48.64440536;word-spacing:0" transform="matrix(.92976,.16471,-.15533,1.04803,0,0)" x="38.866299" xml:space="preserve" y="-43.063683"><tspan id="tspan3873" sodipodi:role="line" x="38.866299" y="-43.063683">J</tspan></text>
<path d="m 44.15625,-84.28125 c -7.326529,-0.006 -14.671457,2.766025 -20.25,8.34375 -11.157086,11.155449 -11.157086,29.313301 0,40.46875 6.032348,6.031464 14.12793,8.68237 22.03125,8.1875 l 3.1875,3.1875 c 2.875793,2.875371 6.440046,4.080864 9.84375,3.78125 l 4.875,4.875 c 2.833959,2.833543 6.471148,3.861457 9.75,3.1875 3.278852,-0.673957 6.147362,-2.74149 8.71875,-5.3125 2.571388,-2.57101 4.582457,-5.443712 5.25,-8.71875 0.667543,-3.275038 -0.325145,-6.85681 -3.15625,-9.6875 l -4.875,-4.875 c 0.302591,-3.405937 -0.902918,-6.965841 -3.78125,-9.84375 l -3.15625,-3.1875 c 0.502531,-7.914905 -2.176717,-15.990104 -8.21875,-22.03125 -5.577223,-5.576405 -12.892221,-8.368959 -20.21875,-8.375 z m 0,4.9375 c 6.045214,0.0054 12.064752,2.31543 16.6875,6.9375 5.285803,5.285028 7.569771,12.437221 6.8125,19.3125 l -0.15625,1.1875 0.84375,0.84375 3.90625,3.875 c 2.206792,2.206468 2.679784,4.176998 2.28125,6.4375 -0.398534,2.260502 -1.968773,4.875381 -4.40625,7.3125 l -3.71875,3.75 c -2.437477,2.437119 -5.051666,3.976525 -7.3125,4.375 -2.260834,0.398475 -4.230708,-0.07478 -6.4375,-2.28125 L 48.75,-31.5 l -0.84375,-0.84375 -1.1875,0.125 c -6.873768,0.749867 -14.009846,-1.479369 -19.28125,-6.75 -9.242857,-9.241501 -9.242857,-24.195999 0,-33.4375 4.621428,-4.620751 10.673536,-6.942881 16.71875,-6.9375 z m 1.25,4.75 -3.78125,2.625 14.65625,19.71875 c 1.883481,2.538566 2.771031,4.641773 2.6875,6.28125 -0.08355,1.639502 -1.068602,3.100067 -2.9375,4.40625 -1.29715,0.906593 -2.531369,1.425332 -3.75,1.5625 -1.218633,0.137181 -2.262375,0.203783 -3.125,0.15625 l 0.96875,4.3125 c 0.449646,0.07441 0.982704,0.09961 1.625,0.0625 0.642295,-0.0371 1.348407,-0.137908 2.125,-0.3125 0.776587,-0.174588 1.612515,-0.452691 2.46875,-0.8125 0.856224,-0.359803 1.711557,-0.852179 2.59375,-1.46875 1.739022,-1.215417 2.987134,-2.477538 3.75,-3.8125 0.762843,-1.334946 1.156364,-2.717154 1.15625,-4.125 -1.39e-4,-1.407821 -0.331085,-2.801723 -0.96875,-4.21875 -0.637689,-1.416994 -1.473251,-2.855255 -2.53125,-4.28125 L 45.40625,-74.59375 z M 77.84375,-35.5 80.875,-32.46875 c 1.886296,1.886019 2.184492,3.36247 1.8125,5.1875 -0.371991,1.825031 -1.760237,4.073052 -3.90625,6.21875 -2.146013,2.145698 -4.354111,3.498153 -6.1875,3.875 -1.833389,0.376847 -3.335308,0.101916 -5.21875,-1.78125 l -3.03125,-3 c 1.49431,-0.783443 2.907897,-1.81547 4.25,-3 0.448524,-0.395865 0.912992,-0.788055 1.34375,-1.21875 l 3.71875,-3.71875 c 0.430758,-0.430695 0.822827,-0.895291 1.21875,-1.34375 1.184704,-1.341906 2.185192,-2.755909 2.96875,-4.25 z" id="text3867" inkscape:connector-curvature="0" style="font-family:Ubuntu;fill:#303030;letter-spacing:0;font-size:48.64440536;word-spacing:0" transform="matrix(.6839,.6839,-.684,.684,-13.07799,-48.72751)"/>
</g>
</g>
</g>
</svg>
