<svg xmlns="http://www.w3.org/2000/svg" viewBox="0 0 256 256">
<defs>
<linearGradient id="linearGradient3861">
<stop offset="0" stop-color="#f1eb54"/>
<stop offset="1" stop-color="#e6d301"/>
</linearGradient>
<linearGradient gradientTransform="matrix(2.59141 -2.59079 2.59141 2.59079 105.08698 1187.4325)" xlink:href="#linearGradient3861" id="linearGradient3065" y1="-66.239" x1="81.418" y2="-24.119" gradientUnits="userSpaceOnUse" x2="42.072"/>
</defs>
<g transform="translate(0 -796.36215)">
<path fill="#a7a7a7" d="m157.1581,1013.7685 20.3264,20.3216c16.721,16.7169 36.241,9.2684 52.962-7.4486c16.721-16.7169 24.0903-36.1513 7.3693-52.8683l-20.3264-20.3215c-2.1352,10.149-8.591,20.2476-17.735,29.3893l-13.2,13.1968c-9.1439,9.1418-19.2449,15.5961-29.3963,17.7307z"/>
<path fill="url(#linearGradient3065)" d="m35.9287,832.1703c-36.1541,36.1455-36.1541,94.8514 0,130.9969c20.6306,20.6257 48.6379,29.4109 75.5558,26.4746l13.8478,13.8445c19.0115,19.007 42.2187,11.5666 61.2302-7.4404l13.2-13.1968c19.0115-19.007 26.4537-42.2086 7.4422-61.2155l-13.7669-13.7636c2.9674-26.9385-5.89-54.9517-26.562-75.6187c-36.1541-36.1455-94.7931-36.2264-130.9472-.081z"/>
<text x="-517.811" y="818.118" fill="#fff9cc" font-family="Ubuntu" word-spacing="0" line-height="125%" xml:space="preserve" letter-spacing="0" transform="matrix(.774 -.54091 .63131 .8508 0 0)" font-size="178.25109863px"><tspan x="-517.811" y="818.118">J</tspan>
</text>
<path fill="#303030" word-spacing="0" d="m101.4367,796.3623c-25.9691-.0213-52.0034,9.8034-71.7768,29.5719c-39.5466,39.5372-39.5466,103.8923 0,143.4294c21.3818,21.3767 50.0769,30.772 78.0904,29.0182l11.2982,11.2972c10.1933,10.1909 22.8269,14.4634 34.8915,13.4015l17.2796,17.278c10.0451,10.0426 22.9372,13.6858 34.5592,11.2971c11.622-2.3886 21.7895-9.7164 30.9039-18.8286c9.1144-9.1121 16.2427-19.2936 18.6088-30.901c2.3661-11.6074-1.1525-24.3019-11.1874-34.3344l-17.2796-17.278c1.0725-12.0713-3.2004-24.6884-13.4028-34.8882l-11.1874-11.2971c1.7812-28.052-7.7154-56.6722-29.1316-78.0832c-19.7686-19.7639-45.6969-29.6613-71.666-29.6827zm0,17.4995c21.4275,.0191 42.7639,8.2064 59.1494,24.5879c18.7357,18.7312 26.8313,44.08 24.1471,68.4474l-.5538,4.2087l2.9907,2.9904l13.8458,13.7338c7.822,7.8202 9.4986,14.8041 8.086,22.8158c-1.4126,8.0117-6.9784,17.2793-15.6181,25.917l-13.1812,13.2908c-8.6397,8.6377-17.9058,14.0936-25.9194,15.5059c-8.0136,1.4122-14.9959-.2651-22.8179-8.0852l-13.8458-13.8446l-2.9907-2.9904l-4.2091,.443c-24.3643,2.6577-49.6583-5.2432-68.343-23.9234c-32.7616-32.7537-32.7616-85.7555 0-118.5093c16.3808-16.3769 37.8327-24.607 59.2601-24.5879zm4.4307,16.835-13.4028,9.3035 51.9495,69.8872c6.6761,8.9972 9.822,16.4514 9.5259,22.262c-.2961,5.8107-3.7877,10.9873-10.4121,15.6167c-4.5978,3.2131-8.9725,5.0517-13.292,5.5378c-4.3195,.4862-8.0191,.7223-11.0767,.5538l3.4338,15.2844c1.5938,.2637 3.4832,.353 5.7599,.2215c2.2766-.1315 4.7795-.4888 7.5321-1.1076c2.7526-.6188 5.7156-1.6044 8.7506-2.8797c3.0349-1.2752 6.0667-3.0203 9.1936-5.2056c6.164-4.3077 10.588-8.7809 13.292-13.5123c2.7039-4.7313 4.0988-9.6301 4.0984-14.6198c-.0005-4.9896-1.1735-9.9299-3.4338-14.9521c-2.2603-5.0221-5.222-10.1196-8.9721-15.1736l-52.9464-71.2163zm114.9757,138.5562 10.7444,10.7434c6.686,6.6844 7.743,11.9173 6.4245,18.3855c-1.3185,6.4683-6.2392,14.4357-13.8458,22.0405c-7.6066,7.6048-15.4333,12.3982-21.9318,13.7338c-6.4985,1.3356-11.8221,.3612-18.498-6.3131l-10.7444-10.6326c5.2966-2.7767 10.3071-6.4344 15.0642-10.6326c1.5898-1.403 3.2361-2.793 4.763-4.3195l13.1812-13.18c1.5268-1.5265 2.9165-3.1731 4.3199-4.7625c4.1992-4.756 7.7455-9.7675 10.5228-15.0629z" letter-spacing="0"/>
</g>
</svg>
