<?xml version="1.0" encoding="UTF-8" standalone="no"?>
<!-- Created with Inkscape (http://www.inkscape.org/) -->

<svg
   xmlns:dc="http://purl.org/dc/elements/1.1/"
   xmlns:cc="http://creativecommons.org/ns#"
   xmlns:rdf="http://www.w3.org/1999/02/22-rdf-syntax-ns#"
   xmlns:svg="http://www.w3.org/2000/svg"
   xmlns="http://www.w3.org/2000/svg"
   xmlns:xlink="http://www.w3.org/1999/xlink"
   xmlns:sodipodi="http://sodipodi.sourceforge.net/DTD/sodipodi-0.dtd"
   xmlns:inkscape="http://www.inkscape.org/namespaces/inkscape"
   width="256"
   height="256"
   id="svg2"
   version="1.1"
   inkscape:version="0.48.4 r9939"
   sodipodi:docname="im-mrim.svg">
  <defs
     id="defs4">
    <linearGradient
       id="linearGradient4264">
      <stop
         style="stop-color:#fc7800;stop-opacity:1;"
         offset="0"
         id="stop4266" />
      <stop
         style="stop-color:#ffee8c;stop-opacity:1;"
         offset="1"
         id="stop4268" />
    </linearGradient>
    <linearGradient
       y2="-8.9565659"
       x2="7.39891"
       y1="48.161785"
       x1="-27.941746"
       gradientTransform="matrix(3.4692136,0,0,3.4692135,177.85929,888.82547)"
       gradientUnits="userSpaceOnUse"
       id="linearGradient4550"
       xlink:href="#linearGradient4264"
       inkscape:collect="always" />
  </defs>
  <sodipodi:namedview
     id="base"
     pagecolor="#ffffff"
     bordercolor="#666666"
     borderopacity="1.0"
     inkscape:pageopacity="0.0"
     inkscape:pageshadow="2"
     inkscape:zoom="0.98994949"
     inkscape:cx="-166.63461"
     inkscape:cy="140"
     inkscape:document-units="px"
     inkscape:current-layer="layer1"
     showgrid="false"
     inkscape:window-width="1440"
     inkscape:window-height="848"
     inkscape:window-x="-8"
     inkscape:window-y="-8"
     inkscape:window-maximized="1" />
  <metadata
     id="metadata7">
    <rdf:RDF>
      <cc:Work
         rdf:about="">
        <dc:format>image/svg+xml</dc:format>
        <dc:type
           rdf:resource="http://purl.org/dc/dcmitype/StillImage" />
        <dc:title />
      </cc:Work>
    </rdf:RDF>
  </metadata>
  <g
     inkscape:label="Layer 1"
     inkscape:groupmode="layer"
     id="layer1"
     transform="translate(0,-796.36215)">
    <path
       style="font-size:77.48305511px;font-style:normal;font-variant:normal;font-weight:bold;font-stretch:normal;text-indent:0;text-align:start;text-decoration:none;line-height:125%;letter-spacing:0px;word-spacing:0px;text-transform:none;direction:ltr;block-progression:tb;writing-mode:lr-tb;text-anchor:start;baseline-shift:baseline;color:#000000;fill:#303030;fill-opacity:1;stroke:none;stroke-width:4.99919367;marker:none;visibility:visible;display:inline;overflow:visible;enable-background:accumulate;font-family:Ubuntu;-inkscape-font-specification:Ubuntu Bold"
       d="m 130.20492,796.36211 c -17.17231,2.2e-4 -33.594592,2.65544 -49.203991,8 -15.716497,5.38159 -29.715645,13.58841 -41.776972,24.33334 -12.181682,10.85241 -21.81846,24.34393 -28.779692,40.22222 C 3.3586682,885.07973 -1.465789e-5,903.60521 2.2477196e-5,924.36212 -1.465789e-5,945.78434 3.4412195,964.77669 10.67636,981.13989 c 7.107432,16.07464 16.965906,29.67431 29.475974,40.33331 12.380764,10.5489 26.800206,18.3837 43.169538,23.4445 16.204897,5.0099 33.402418,7.4444 51.408888,7.4444 10.30483,0 19.97711,-0.6398 29.01178,-2 8.83589,-1.3303 15.8966,-2.8914 21.58477,-4.8889 l 6.96283,-2.4444 -0.92838,-7 -3.36536,-24.4445 -1.27652,-9.3333 -9.63192,1.7778 c -4.44031,0.8203 -10.16086,1.7986 -17.05893,3 -6.06531,1.0563 -14.62264,1.6667 -25.29827,1.6667 -13.04385,0 -24.63141,-1.7984 -35.046241,-5.3334 -10.383193,-3.52418 -19.202887,-8.69652 -26.690843,-15.55554 -7.397569,-6.77607 -13.201338,-15.30915 -17.523119,-25.88889 -4.234625,-10.36608 -6.498677,-22.8261 -6.49864,-37.55555 -3.7e-5,-14.02916 2.134859,-26.09088 6.150499,-36.44445 4.08122,-10.52277 9.541637,-19.12611 16.594741,-26.11111 7.105948,-7.03723 15.480429,-12.40348 25.414325,-16.22222 9.875338,-3.79602 20.825578,-5.77764 33.073438,-5.77778 12.18892,1.4e-4 22.85995,1.97284 32.2611,5.66667 7.48399,2.94087 13.71652,6.83164 19.26383,11.33333 -5.57041,-1.66432 -11.37295,-3.2597 -18.56754,-4.55556 -8.95026,-1.61169 -18.52636,-2.33319 -28.66365,-2.33333 -11.59272,1.4e-4 -22.41889,1.83613 -32.14506,5.77778 -9.525295,3.86044 -17.845968,9.31545 -24.601991,16.22222 -6.70656,6.85629 -11.76822,14.88153 -15.086129,23.88889 -3.280922,8.90674 -4.874054,18.44839 -4.87398,28.33333 -7.4e-5,11.42098 1.629562,21.75577 5.222122,31 3.531323,9.08722 8.718984,17.1258 15.43427,23.66667 6.672135,6.49913 14.658332,11.38948 23.673618,14.66667 8.99111,3.26855 18.81635,4.88889 29.24388,4.88889 6.97564,0 14.00635,-0.97209 20.88849,-2.77778 3.56723,-0.93597 6.65601,-1.91982 9.51586,-3.11111 2.11678,1.39559 4.45064,2.52498 6.96283,3.55555 5.8842,2.41412 12.56183,3.44445 19.96011,3.44445 9.45121,0 18.60003,-2.07286 27.03898,-6.11111 8.56729,-4.09988 15.89824,-10.26397 21.81687,-18 5.88442,-7.69195 10.34204,-16.81899 13.57751,-27.22223 3.30153,-10.61731 4.87372,-22.51594 4.87398,-35.66666 -2.6e-4,-17.58447 -3.32582,-33.73757 -10.0961,-48.22223 -6.65929,-14.24572 -15.81294,-26.60195 -27.38713,-36.77777 C 206.97577,817.32734 193.45529,809.5368 178.24844,804.251 163.07274,798.97659 146.98741,796.36233 130.20492,796.36211 z m 0,17.77778 c 14.77003,1.8e-4 28.68355,2.33817 41.77697,6.88889 13.06152,4.54009 24.28668,11.01483 34.00181,19.55556 9.68108,8.51143 17.27257,18.68508 22.97734,30.88889 5.59276,11.96544 8.47122,25.53777 8.47144,41 -2.6e-4,11.79153 -1.38681,22.06471 -4.06165,30.66666 -2.74191,8.81629 -6.38601,16.01789 -10.79239,21.77778 -4.3731,5.71591 -9.37501,9.76697 -15.20217,12.55556 -5.95636,2.85027 -11.98999,4.22222 -18.68359,4.22222 -5.63302,0 -9.85814,-0.85493 -12.64914,-2 -3.38631,-1.38916 -4.97462,-2.7403 -5.33817,-3.22222 l -5.57026,-7.33334 -7.54307,5.33334 c -1.19214,0.85013 -4.81048,2.55225 -10.32819,4 -5.35882,1.40601 -10.61622,2.11111 -15.89846,2.11111 -8.48102,0 -15.95535,-1.24053 -22.62919,-3.66667 -6.65012,-2.41742 -12.239914,-5.86151 -17.058934,-10.55555 -4.776203,-4.65216 -8.530152,-10.42852 -11.256573,-17.44445 -2.665482,-6.85874 -4.061724,-15.03424 -4.06165,-24.77778 -7.4e-5,-8.03953 1.279787,-15.41145 3.829556,-22.33333 2.512485,-6.82084 6.179984,-12.70649 11.140526,-17.77778 4.910743,-5.0203 10.960125,-8.8998 18.335445,-11.88889 7.17398,-2.90734 15.34058,-4.4443 24.83409,-4.44444 9.13367,1.4e-4 17.51276,0.61895 25.18223,2 5.44661,0.98101 9.33899,2.10578 13.46147,3.22222 l 0,77.66667 c -2.2e-4,6.03008 0.026,11.02962 4.52584,16.11111 3.08147,3.48224 8.27251,5.77785 12.99728,5.77778 6.30929,7e-5 12.42027,-2.57181 17.05893,-6.66667 4.4027,-3.88693 7.84731,-8.89511 10.44424,-14.66667 2.57008,-5.71288 4.35131,-12.1264 5.57027,-19.22222 1.20165,-6.99783 1.85649,-13.94702 1.85675,-21 -2.6e-4,-12.02315 -2.27066,-23.55566 -6.73073,-34.33333 -4.44671,-10.74393 -10.87902,-20.33629 -19.14778,-28.44445 -8.34158,-8.17881 -18.47779,-14.5157 -30.17226,-19.11111 -11.89589,-4.67403 -25.10443,-6.99982 -39.33998,-7 -14.31769,1.8e-4 -27.66193,2.288 -39.92022,7 -12.200138,4.68992 -22.990926,11.4976 -31.912964,20.33334 -8.975179,8.88853 -15.798751,19.80874 -20.656392,32.33333 -4.923481,12.69429 -7.311007,26.93362 -7.31097,42.66667 -3.7e-5,16.45671 2.514565,31.23353 7.775159,44.11111 5.173214,12.6641 12.435835,23.52302 21.93291,32.22227 9.406391,8.6163 20.635633,15.1441 33.30553,19.4444 12.637847,4.2895 26.456377,6.3333 41.312787,6.3333 11.38179,0 20.88986,-0.6462 28.66364,-2 3.0039,-0.5231 4.87469,-0.8798 7.42702,-1.3333 l 1.04442,7.2222 c -3.39511,0.8254 -6.06642,1.698 -11.02448,2.4445 -7.94215,1.1956 -16.64108,1.7777 -26.1106,1.7777 -16.22774,0 -31.33593,-2.1436 -45.606531,-6.5555 -14.106542,-4.3612 -26.244739,-11.0054 -36.670898,-19.8889 -10.297076,-8.77345 -18.537055,-19.90966 -24.718041,-33.88889 -6.053391,-13.69056 -9.167762,-30.30507 -9.167725,-49.88889 -3.7e-5,-18.89245 2.990266,-34.99428 8.935631,-48.55556 6.069618,-13.84455 14.247878,-25.09362 24.3699,-34.11111 10.242154,-9.1243 21.940411,-15.9487 35.394379,-20.55556 C 100.82817,816.4968 115.02799,814.14007 130.20492,814.13989 z m 61.50498,52.66667 c 3.95768,4.9419 7.46152,10.24814 9.98006,16.33333 3.577,8.64377 5.33798,17.82969 5.33817,27.77778 -2.3e-4,6.08526 -0.58473,12.16622 -1.62466,18.22222 -1.02356,5.9583 -2.45623,10.91552 -4.29375,15 -1.81152,4.02607 -3.86461,6.85348 -5.9184,8.66667 -1.20678,1.06528 -2.07129,1.00789 -3.01723,1.22222 -0.19459,-0.88835 -0.46426,-1.79413 -0.46419,-3.44444 L 191.7099,866.80656 z m -50.4805,6.55556 0,2.88888 c -1.59952,-0.0683 -3.06621,-0.22222 -4.75794,-0.22222 -14.22181,1.4e-4 -26.83637,4.73099 -34.81414,14.33334 -7.552311,9.09013 -11.140637,20.79175 -11.140525,33.77777 -1.12e-4,13.59122 3.247611,25.40552 10.792385,34.33334 7.47377,8.84426 18.70231,13.6667 30.86854,13.66666 4.42097,4e-5 8.8624,-0.3456 13.22937,-1.22222 4.10558,-0.82418 7.3187,-1.70247 10.3282,-3 l 8.58749,-3.66666 -3.9456,-8.11112 c 0.30859,0.64751 -0.0758,-0.4252 -0.2321,-2.33333 -0.18122,-2.21052 -0.34833,-4.38002 -0.34795,-6.44444 l 0,-60.55556 c 0.0297,-0.12302 0.11586,-0.44434 0.11586,-0.44444 3e-5,-6.1e-4 -0.23173,-2.77714 -0.2321,-2.77778 -1.8e-4,-6.4e-4 -0.928,-2.11044 -0.92837,-2.11111 -7.8e-4,-0.001 -1.73908,-2.10962 -1.74071,-2.11111 -0.002,-0.001 -0.8384,-0.79357 -1.16047,-1 -0.32196,-0.20658 -0.59758,-0.33423 -0.81233,-0.44445 -0.85898,-0.44035 -1.22516,-0.46375 -1.50862,-0.55555 L 141.2294,873.36212 z m -4.75794,20.44444 c 1.78494,7e-5 3.17866,0.13653 4.75794,0.22222 l 0,53.33334 c -1.5e-4,2.00629 0.0977,4.0464 0.23209,6.11111 -3.1049,0.61568 -6.19168,0.88892 -9.28377,0.88889 -7.63215,3e-5 -12.09947,-2.06617 -16.36265,-7.11111 -4.19262,-4.96118 -6.73084,-12.24214 -6.73073,-23.11112 -1.1e-4,-9.98293 2.47227,-17.12202 7.07887,-22.66666 C 120.34388,896.44123 126.09466,893.80667 136.47146,893.80656 Z"
       id="text4272"
       inkscape:connector-curvature="0" />
    <g
       transform="scale(1.0267859,0.97391286)"
       style="font-size:278.82046509px;font-style:normal;font-variant:normal;font-weight:normal;font-stretch:normal;line-height:125%;letter-spacing:0px;word-spacing:0px;fill:url(#linearGradient4550);fill-opacity:1;stroke:none;font-family:Ubuntu;-inkscape-font-specification:Ubuntu"
       id="text4260">
      <path
         d="m 184.60795,1014.1528 c -5.95076,0 -10.87743,-0.8367 -14.78001,-2.5102 -3.90293,-1.6734 -7.15617,-3.9027 -9.75973,-6.688 -4.09012,2.2294 -9.01537,4.134 -14.77575,5.7138 -5.76069,1.5798 -11.52265,2.3697 -17.28588,2.3697 -8.92316,0 -17.05626,-1.394 -24.39935,-4.1821 -7.343303,-2.7881 -13.709391,-6.9234 -19.098279,-12.40605 -5.389073,-5.48255 -9.571206,-12.22019 -12.546411,-20.21295 -2.975364,-7.99266 -4.463006,-17.28723 -4.462931,-27.88375 -7.5e-5,-8.92294 1.393969,-17.334 4.182137,-25.23322 2.788009,-7.89901 6.92476,-14.77705 12.410267,-20.63414 5.485324,-5.85685 12.177587,-10.45734 20.076807,-13.80148 7.899,-3.34387 16.86598,-5.01587 26.90097,-5.01601 9.48447,1.4e-4 18.17633,0.74325 26.0756,2.22934 7.89895,1.48636 13.98708,2.97259 18.26441,4.45868 l 0,85.31899 c -1.8e-4,5.95062 1.02089,10.13417 3.06321,12.55066 2.04196,2.41657 4.73645,3.62484 8.08348,3.62481 4.83287,3e-5 9.0618,-1.67339 12.68681,-5.02027 3.62459,-3.3468 6.59846,-7.71613 8.92161,-13.108 2.32272,-5.39176 4.04294,-11.47989 5.16066,-18.26441 1.11728,-6.78437 1.67604,-13.70779 1.67626,-20.77028 -2.2e-4,-11.70818 -2.0452,-22.72156 -6.13494,-33.04016 -4.09017,-10.31836 -9.94572,-19.38035 -17.56667,-27.18602 -7.62135,-7.80536 -16.86913,-13.93887 -27.74335,-18.40055 -10.87457,-4.46134 -23.09621,-6.69209 -36.66496,-6.69227 -13.56902,1.8e-4 -26.02324,2.27773 -37.362693,6.83267 -11.339648,4.55528 -21.097957,11.06176 -29.274958,19.51947 -8.177137,8.45802 -14.543225,18.82046 -19.098283,31.08736 -4.555156,12.26714 -6.832709,26.20617 -6.832667,41.81712 -4.2e-5,16.35988 2.41649,30.7201 7.249604,43.08068 4.833016,12.36068 11.57066,22.67768 20.212953,30.95118 8.642153,8.2735 18.865617,14.5007 30.670421,18.6814 11.804603,4.1807 24.769353,6.271 38.894293,6.2711 10.9707,-10e-5 20.03411,-0.651 27.19028,-1.9528 7.15583,-1.3019 11.7549,-2.3244 13.79722,-3.0675 l 2.79093,20.6341 c -3.15983,1.1175 -8.87641,2.3272 -17.14974,3.6291 -8.27367,1.3018 -17.14989,1.9528 -26.62869,1.9528 -16.54147,0 -32.153913,-2.3712 -46.837375,-7.1135 -14.683646,-4.7423 -27.50942,-11.9919 -38.47736,-21.7488 -10.968048,-9.7569 -19.658488,-22.2097 -26.071347,-37.3584 -6.412915,-15.1487 -9.619359,-33.13513 -9.61934,-53.95936 -1.9e-5,-20.06962 3.159626,-37.63345 9.478942,-52.69152 6.319262,-15.05782 14.822506,-27.55884 25.509758,-37.50309 10.687147,-9.94392 23.047767,-17.4261 37.081897,-22.44655 14.03395,-5.02007 28.859315,-7.5302 44.476155,-7.5304 15.24217,2e-4 29.64777,2.46353 43.21683,7.39001 13.56871,4.92685 25.46559,12.08427 35.69069,21.47227 10.22466,9.38834 18.31097,20.72789 24.25894,34.01868 5.9475,13.29106 8.92136,28.30079 8.92161,45.02923 -2.5e-4,12.63867 -1.44109,23.79103 -4.32253,33.4571 -2.88193,9.66618 -6.73931,17.79787 -11.57214,24.39509 -4.8333,6.59724 -10.59525,11.56934 -17.28588,14.91614 -6.69106,3.3469 -13.75488,5.0203 -21.19148,5.0203 z m -55.7675,-22.58272 c 3.90262,4e-5 7.85218,-0.41832 11.84868,-1.25506 3.99621,-0.83668 7.57704,-2.09174 10.74252,-3.7652 -0.56175,-2.4165 -0.93472,-4.83303 -1.11893,-7.24961 -0.18451,-2.41648 -0.27669,-4.73942 -0.27654,-6.96881 l 0,-65.52723 c -1.11766,-0.3686 -3.25623,-0.73874 -6.41573,-1.11042 -3.15979,-0.37143 -6.69099,-0.55721 -10.59361,-0.55733 -13.2003,1.2e-4 -23.05221,4.08865 -29.55575,12.26561 -6.503759,8.17718 -9.755584,18.49424 -9.755482,30.95122 -1.02e-4,13.19457 3.159543,23.69599 9.478942,31.5043 6.31918,7.80839 14.8678,11.71257 25.6459,11.71253 z"
         style="-inkscape-font-specification:Ubuntu"
         id="path2990" />
    </g>
  </g>
</svg>
