<svg xmlns="http://www.w3.org/2000/svg" viewBox="0 0 256 256">
<defs>
<linearGradient xlink:href="#linearGradient4129" id="linearGradient4137" y1="983.264" x1="116.586" y2="965.586" x2="134.674" gradientUnits="userSpaceOnUse"/>
<linearGradient id="linearGradient4129">
<stop offset="0" stop-color="#33261c"/>
<stop offset=".387" stop-color="#5f4f43"/>
<stop offset="1" stop-color="#33261c"/>
</linearGradient>
<radialGradient cx="2965.653" cy="4402.62" gradientTransform="matrix(-.10802 .40484 -.84141 -.17155 5406.122 3008.4874)" id="radialGradient4291" r="284.961" gradientUnits="userSpaceOnUse">
<stop offset="0" stop-color="#ffffad"/>
<stop offset="1" stop-color="#ffcd00"/>
</radialGradient>
<radialGradient cx="2953.866" cy="4024.633" gradientTransform="matrix(.51425 .00971 -.02393 .96803 -127.18838 -581.71077)" id="radialGradient4293" r="441.495" gradientUnits="userSpaceOnUse">
<stop offset="0" stop-color="#ff8d00"/>
<stop offset="1" stop-color="#f02"/>
</radialGradient>
<radialGradient cx="2585.048" cy="4363.156" gradientTransform="matrix(-.31424 .01237 -.0248 -.48163 2153.4928 5571.4903)" id="radialGradient4295" r="284.961" gradientUnits="userSpaceOnUse">
<stop offset="0" stop-color="#5ddd00"/>
<stop offset="1" stop-color="#005700"/>
</radialGradient>
<radialGradient cx="2458.448" cy="4019.172" gradientTransform="matrix(.05169 -.27439 .5609 .08074 -1198.243 3810.2984)" id="radialGradient4297" r="441.495" gradientUnits="userSpaceOnUse">
<stop offset="0" stop-color="#00b2ff"/>
<stop offset="1" stop-color="#0057bf"/>
</radialGradient>
</defs>
<g transform="translate(0 -796.36215)">
<path fill="url(#linearGradient4137)" stroke="#a7a7a7" stroke-width="8" d="m107.8689,962.0385c-1.3131,4.7241 1.5203,7.8525 9.682,16.9461c6.2181,6.9281 3.6175,1.336 12.8211,10.9004c-2.6583,19.8084 32.6487,41.389 40.6044,34.0836c7.9542-7.3072-15.8672-40.3324-33.2585-42.4825c-8.9191-9.8256-3.467-7.194-9.9618-13.8678c-8.5249-8.7599-8.2938-12.4248-13.1449-11.4861c-5.2093-8.0679-10.8595-16.7603-16.093-11.9525c-6.5609,9.5193 5.5172,12.4921 9.3507,17.8588z"/>
</g>
<g transform="matrix(.32 0 0 .32 -279.07557 -928.97914)">
<path fill="#5b5b5b" stroke="#a7a7a7" stroke-width="25" d="m1304.2125,2915.5602c-70.2958,.081-96.4816,75.0819-101.4441,193.0337c-.3084,7.3276-.4918,15.0581-.5466,23.1c-.0009,.1307 .0008,.2627 0,.3935c-.01,1.1177-.013,2.2425-.016,3.3723c0,1.292 0,2.5705 0,3.8781c0,.2871 0,.5694 0,.8571c0,.3012 0,.5973 0,.8993c.01,1.2954 .02,2.5966 .032,3.9061c.012,1.3227 .03,2.6541 .048,3.9905c.01,.5913 .01,1.1764 .016,1.7704c.013,.869 .032,1.739 .048,2.6135c.051,2.8368 .114,5.6943 .193,8.5853c.032,1.1425 .06,2.278 .096,3.4284c0,.099 .013,.1962 .016,.2951c.036,1.1691 .072,2.3499 .1126,3.5268c.022,.6409 .04,1.2819 .065,1.9251c.012,.334 .02,.6629 .032,.9976c.047,1.252 .1086,2.5057 .1607,3.7657c.1362,3.2977 .2801,6.6016 .4501,9.9482c.1123,2.2149 .2424,4.4546 .3696,6.6883c.01,.1265 .01,.2527 .016,.3793c.1165,2.0324 .2413,4.0663 .3698,6.1123c.1643,2.6141 .3303,5.2354 .5142,7.8684c.114,1.629 .2485,3.269 .3699,4.9041c.096,1.2949 .1885,2.5936 .2893,3.892c.095,1.2227 .1902,2.442 .2894,3.6673c.2412,2.9832 .4893,5.9692 .7554,8.9646c.1789,2.0152 .3566,4.0371 .5465,6.0561c.035,.3796 .076,.7584 .1126,1.1382c.1795,1.8875 .3734,3.7733 .5626,5.6625c.083,.8199 .157,1.639 .241,2.459c.1903,1.8576 .3793,3.7203 .5788,5.5782c.032,.3043 .063,.609 .096,.9133c.4107,3.7972 .8524,7.5922 1.3019,11.3814c.1105,.9314 .2247,1.8655 .3375,2.7961c.2516,2.0744 .5086,4.1416 .7716,6.2105c.04,.3182 .072,.6374 .1126,.9556c.035,.2811 .077,.562 .1125,.8431c.021,.1594 .043,.3183 .065,.4777c.212,1.6381 .4238,3.2846 .643,4.9178c.04,.3038 .088,.6097 .1285,.9133c.2448,1.8117 .502,3.6193 .7555,5.4238c.1491,1.0597 .2819,2.1187 .4339,3.1756c.1566,1.0885 .3226,2.1745 .4825,3.2598c.1483,1.0078 .2987,2.0162 .4501,3.021c.5878,3.9076 1.2026,7.7783 1.8322,11.6343c.1343,.8211 .2659,1.6404 .402,2.459c.3197,1.9229 .6344,3.8395 .9645,5.7469c.033,.1924 .08,.3838 .1124,.5761c.3443,1.9811 .6894,3.9671 1.0449,5.9295c.04,.2237 .089,.4509 .1286,.6745c2.0267,11.1331 4.2357,21.942 6.6224,32.2893c.064,.2807 .128,.5629 .193,.8432c.4279,1.8426 .8468,3.6678 1.286,5.4798c.034,.1447 .078,.2911 .1124,.4355c1.4756,6.0659 3.0111,11.959 4.6133,17.6342c.03,.107 .067,.2162 .096,.3231c.5436,1.9199 1.0816,3.8067 1.6396,5.6766c.01,.025 .025,.046 .032,.07c.5453,1.8262 1.0963,3.6335 1.6554,5.4098c.015,.047 .034,.093 .048,.1404c.5443,1.7268 1.0985,3.4375 1.6557,5.1145c.025,.075 .055,.1507 .081,.2249c.8617,2.5875 1.7276,5.1252 2.6201,7.5876c.3251,.8971 .6675,1.7761 .9965,2.6558c.1878,.5018 .3735,1.0071 .5627,1.5033c.7706,2.0219 1.5544,3.9919 2.3469,5.9155c.2331,.5659 .4561,1.1291 .6911,1.6862c.1575,.3734 .324,.7407 .4822,1.11c.4613,1.0759 .9302,2.1343 1.3985,3.1757c.1456,.3234 .2879,.6492 .4341,.9694c.097,.2124 .1919,.4354 .2893,.6463c.045,.1664 .093,.3379 .1445,.5058c.013,.043 .034,.083 .048,.1265c.1833,.5801 .3901,1.172 .6429,1.7704c.024,.055 .04,.1131 .065,.1686c.084,.1926 .1833,.3819 .2734,.5762c.092,.2005 .1893,.4018 .2893,.6043c.018,.036 .03,.076 .048,.1123c.1399,.2801 .2965,.5594 .4501,.8431c.063,.1166 .1274,.2341 .193,.3513c.089,.1584 .1645,.3181 .2572,.4778c.083,.1417 .1714,.2788 .2572,.4214c.3742,.6235 .7851,1.2572 1.2216,1.8969c.2417,.4555 .4798,.9168 .7233,1.363c.6905,1.2648 1.3855,2.4922 2.0897,3.6813c0,.01 .013,.01 .016,.014c.2501,.4222 .5035,.8381 .7555,1.2506c.2694,.4412 .5322,.8766 .8037,1.3067c.081,.1268 .1609,.2535 .2411,.3793c.2514,.3944 .5024,.7817 .7555,1.1664c.056,.087 .12,.1673 .1769,.2529c.199,.3004 .3946,.605 .5947,.8993c.3076,.4521 .6221,.8973 .9323,1.3348c.038,.055 .074,.1139 .1125,.1686c.014,.02 .034,.036 .048,.056c9.1859,16.6107 19.5861,26.6454 31.1355,27.2309c52.98,37.606 151.6027,83.6252 215.0887,105.6641c92.6189,32.1522 143.4358,35.2423 154.5854-8.3462c4.5263-17.6955-4.6282-46.6126-23.7254-75.356c0,0 0-.01 0-.014c-.6453-1.102-1.3015-2.1973-1.9773-3.302c-2.0293-3.3176-4.1967-6.6436-6.4938-9.9621c-.7649-1.1054-1.5373-2.1995-2.3308-3.3022c-3.1768-4.4136-6.5694-8.8017-10.191-13.1237c-.9048-1.0799-1.8335-2.1469-2.7647-3.2176c-1.473-1.6934-2.9786-3.3777-4.517-5.0445c4.0903,4.152 7.9835,8.4238 11.6537,12.7584c-28.9294-36.7403-73.4952-69.9867-125.6035-75.0045c-34.01-3.2751-66.3539-5.486-95.7861-6.3793c43.8852-56.5744 87.0005-134.4423 110.2369-211.258c13.5243-44.7094 .3169-89.6237-25.3491-128.5112c-4.6158-7.8342-9.7559-15.457-15.3188-22.8189c-.5943-.7864-1.1967-1.5662-1.8004-2.3467c-1.2113-1.566-2.4333-3.1095-3.6809-4.6508c-.6174-.7627-1.2387-1.5198-1.8644-2.2763c0-.01-.012-.01-.016-.014c-.1666-.2015-.331-.4032-.4982-.6043c-.4639-.5573-.9301-1.1182-1.3985-1.672c-.6387-.7553-1.2822-1.4994-1.929-2.2482c-2.3109-2.6753-4.6657-5.3086-7.0726-7.8967c4.8969,5.0085 9.6323,10.1986 14.1614,15.5545c-44.7395-56.2059-113.206-96.0572-154.6015-97.388c-1.138-.036-2.2757-.058-3.3916-.056zm-354.7413,424.2585c-.7601,0-1.5181,.01-2.2664,.014c-32.8126,.311-54.3318,9.6977-61.0337,31.7132c-1.0685,3.5101-1.579,7.5722-1.5591,12.0557c.0004,.1177 0,.2333 0,.3513c-.01,1.768 .051,3.5854 .2089,5.48c.01,.074 .01,.1508 .016,.2249c.1332,1.5467 .3208,3.1284 .5626,4.7491c.1272,.8537 .277,1.7133 .434,2.5855c.3123,1.7353 .6805,3.4958 1.1091,5.2974c.047,.1992 .096,.4042 .1448,.6041c1.0546,4.3206 2.4317,8.8089 4.1311,13.4048c1.0678,2.889 2.2541,5.8141 3.5683,8.7679c.8751,1.9663 1.8153,3.947 2.7969,5.9294c.9817,1.9824 2.0159,3.9695 3.1024,5.9579c2.4913,4.559 5.2525,9.1119 8.2782,13.6153c21.7251,37.5025 61.7338,74.054 113.564,75.7917c54.9032,1.8405 113.9056-5.9499 159.6971-17.9294c-4.6786,15.6112-8.9999,32.8012-12.9397,50.9914c-1.0224,4.721-1.491,9.4709-1.4789,14.2197c0,.6356 0,1.2756 .016,1.911c.065,3.8134 .4257,7.6245 1.0769,11.4095c.152,.8835 .3166,1.761 .4982,2.6418c2.8154,13.6602 9.1446,26.947 17.3924,38.9636c19.0855,33.9132 55.0713,60.3909 76.9952,61.8668c33.698,2.2685 41.304-26.4256 35.9581-83.8569c-3.8755-41.6345-19.5618-110.1914-37.8066-145.4147c-.6309-1.9203-1.7592-3.9101-3.3273-5.9717c-1.0827-1.8125-2.1852-3.496-3.2791-5.0444c-.01-.024-.022-.046-.032-.07c-.037-.089-.073-.1781-.1124-.2668c-.1923-.429-.4049-.857-.643-1.2928c-.032-.059-.063-.1231-.097-.1827c-.1152-.2057-.2286-.411-.3537-.6182c-.025-.042-.054-.085-.081-.1264c-.1372-.2238-.2856-.449-.434-.6745c-.018-.027-.03-.058-.048-.085c-.1608-.2422-.3246-.4863-.4983-.7307c-.01-.011-.025-.017-.032-.029c-.182-.2554-.3665-.515-.5625-.7727c0,0 0-.01 0-.014c-.011-.014-.022-.029-.032-.042c-1.6667-2.7864-3.3387-5.2614-5.0311-7.4049c.6848,.5676 1.3738,1.2078 2.0574,1.897c-4.9623-7.1282-10.0251-11.4417-15.0294-11.7748c-.4652-.031-.935-.035-1.3983-.029c-43.43-28.4513-137.6473-61.8008-197.3107-75.6792c-33.5051-7.7937-62.6629-12.3639-86.2218-12.4351z"/>
<path fill="#5b5b5b" d="m1310.3777,2926.3478c-70.2957,.082-96.4817,75.082-101.444,193.0339c-3.7997,90.3111 11.7761,240.6052 43.7536,309.9247c.6725,2.4448 1.9919,5.0618 3.874,7.8265c9.4516,17.8147 20.2188,28.6314 32.2288,29.2402c52.9799,37.606 151.6026,83.6253 215.0887,105.6641c92.619,32.1523 143.4356,35.2423 154.5852-8.3462c11.1497-43.5886-60.6796-155.2342-159.7773-164.7771c-39.6787-3.821-77.1079-6.1955-110.269-6.7164c46.6779-57.1927 93.8445-140.0484 118.5473-221.712c36.3472-120.1583-120.3559-241.7396-193.1958-244.0814c-1.1379-.036-2.2757-.058-3.3915-.056zm-357.0075,424.2725c-32.8128,.3109-54.3317,9.6978-61.0336,31.7132c-11.5925,38.0808 42.3134,141.0778 130.1845,144.0239c59.1989,1.9845 123.1814-7.2212 170.2097-20.8098c-6.3487,18.9893-12.1536,40.9958-17.2798,64.6631c-12.2676,56.6392 54.6298,117.9525 88.3277,120.221c33.6979,2.2685 41.3039-26.4255 35.9579-83.8569c-3.8755-41.6345-19.5618-110.1913-37.8065-145.4147c-.631-1.9203-1.7594-3.91-3.3273-5.9716c-5.9132-9.8979-12.0157-16.0391-18.0353-16.4398c-.4653-.03-.9351-.035-1.3984-.028c-43.4301-28.4512-137.6474-61.8007-197.3107-75.6792c-34.5861-8.0453-64.5438-12.648-88.4882-12.4212z"/>
<path fill="#fff" d="m1304.2052,2916.456c-70.2957,.082-96.4816,75.0818-101.4441,193.0337c-3.7996,90.3112 11.7761,240.6052 43.7538,309.9247c.6724,2.4448 1.9918,5.0619 3.8739,7.8265c9.4516,17.8147 20.2188,28.6314 32.229,29.2401c52.9796,37.6061 151.6024,83.6256 215.0884,105.6643c92.6189,32.1523 143.4357,35.2423 154.5853-8.3464c11.1499-43.5886-60.6796-155.234-159.7772-164.777c-39.6789-3.821-77.1081-6.1955-110.2689-6.7165c46.6779-57.1925 93.8443-140.0482 118.5471-221.7119c36.3471-120.1582-120.3557-241.7397-193.1956-244.0813c-1.138-.036-2.2759-.057-3.3917-.056zm-357.0075,424.2724c-32.8127,.3109-54.3318,9.6978-61.0337,31.7132c-11.5925,38.0809 42.3136,141.078 130.1847,144.0237c59.1989,1.9846 123.1814-7.2211 170.2096-20.8097c-6.3488,18.9893-12.1536,40.9959-17.2798,64.663c-12.2676,56.6393 54.6297,117.9527 88.3278,120.2212c33.6978,2.2683 41.3037-26.4254 35.9578-83.8569c-3.8755-41.6347-19.5619-110.1915-37.8065-145.4148c-.631-1.9201-1.7592-3.9099-3.3274-5.9716c-5.9131-9.8978-12.0157-16.039-18.0352-16.4397c-.4653-.03-.9351-.035-1.3984-.028c-43.43-28.4512-137.6473-61.8008-197.3108-75.6792c-34.5859-8.0453-64.5437-12.648-88.4881-12.4211z"/>
<path opacity=".5" fill="url(#radialGradient4297)" d="m1035.6863,3353.1515c81.9823,19.07 229.2469,74.8894 220.272,104.2723c-8.9751,29.3832-132.1884,62.6494-239.6091,59.0481c-87.8711-2.9458-141.7823-105.9544-130.1897-144.0352c11.5925-38.0806 67.545-38.3555 149.5268-19.2852z"/>
<path opacity=".5" fill="url(#radialGradient4295)" d="m1293.5613,3596.6771c-5.3459-57.4312-33.1683-166.0898-59.1736-167.8207c-26.0051-1.7311-48.8926,56.6118-65.1038,131.4586c-12.2676,56.6392 54.6258,117.9532 88.3239,120.2217c33.6977,2.2683 41.2993-26.4281 35.9535-83.8596z"/>
<path opacity=".5" fill="url(#radialGradient4293)" d="m1202.7601,3109.484c-5.0414,119.8241 24.0444,345.2632 80.262,347.029c56.2175,1.7661 173.3313-149.0336 217.7648-295.9241c36.3472-120.1581-120.3578-241.7401-193.1978-244.0817c-72.8398-2.3417-99.7878,73.1526-104.829,192.9768z"/>
<path opacity=".5" fill="url(#radialGradient4291)" d="m1497.6995,3562.1496c-92.6191-32.1521-260.021-115.3617-251.3841-148.991c8.637-33.6296 115.2485-36.7537 246.2025-24.143c99.0978,9.543 170.9211,121.1923 159.7714,164.781c-11.1496,43.5886-61.9709,40.5053-154.5898,8.353z"/>
<path fill="#fff" d="m1304.2052,2915.5567c-70.2957,.081-96.4816,75.0818-101.4441,193.0338c-3.7997,90.311 11.7762,240.6052 43.7538,309.9246c.6724,2.4449 1.9918,5.062 3.8739,7.8266c4.0036,7.5458 8.2447,13.8268 12.7147,18.6176c-2.6108-3.6079-5.1338-7.7292-7.5709-12.3228c-1.8823-2.7645-3.2016-5.3816-3.8739-7.8266c-31.9776-69.3193-47.5535-219.6135-43.7538-309.9245c4.9624-117.952 31.1483-192.9526 101.4441-193.0338c1.1157,0 2.2536,.02 3.3917,.056c39.8341,1.2806 104.7518,38.2249 149.4576,91.093c-44.7395-56.2059-113.2059-96.057-154.6014-97.388c-1.138-.036-2.2759-.058-3.3917-.056zm-354.7413,424.2584c-.7598,0-1.518,.01-2.2662,.014c-32.8127,.3108-54.3319,9.6977-61.0337,31.7131c-6.3799,20.9571 7.083,61.5704 35.122,94.3529c-24.5191-31.5349-35.9547-68.4259-29.9782-88.0579c6.7017-22.0155 28.2209-31.4025 61.0335-31.7134c23.9446-.227 53.9023,4.3759 88.4883,12.4211c59.6634,13.8786 153.8808,47.228 197.3107,75.6792c.4632-.01 .9332,0 1.3985,.028c3.2857,.2187 6.5949,2.1633 9.8856,5.48c-4.9623-7.1281-10.0251-11.4418-15.0294-11.7748c-.4653-.031-.9351-.035-1.3984-.028c-43.43-28.4513-137.6473-61.8007-197.3108-75.6792c-33.505-7.7938-62.6628-12.3638-86.2219-12.4351zm442.7956,41.8018c-1.627,2.0546-3.2436,4.0911-4.8705,6.0842c33.161,.521 70.5903,2.8954 110.269,6.7164c49.1123,4.7294 91.524,34.5375 120.4598,68.7098c-28.9295-36.7403-73.4953-69.9868-125.6035-75.0046c-35.7397-3.4417-69.6404-5.7086-100.2548-6.5058zm-200.5574,119.4345c-2.5767,.7444-5.2178,1.4747-7.8924,2.1919c-5.287,16.9514-10.1511,35.9537-14.5312,56.176c-6.1833,28.548 7.7384,58.283 27.3905,81.0469c-16.8439-21.7985-27.8742-48.7696-22.2468-74.7519c5.1262-23.667 10.9311-45.6737 17.2799-64.6629z"/>
<path opacity=".5" fill="url(#radialGradient4297)" d="m1035.6863,3353.1515c81.9823,19.07 229.2469,74.8894 220.272,104.2723c-8.9751,29.3832-132.1884,62.6494-239.6091,59.0481c-87.8711-2.9458-141.7823-105.9544-130.1897-144.0352c11.5925-38.0806 67.545-38.3555 149.5268-19.2852z"/>
<path opacity=".5" fill="url(#radialGradient4295)" d="m1293.5613,3596.6771c-5.3459-57.4312-33.1683-166.0898-59.1736-167.8207c-26.0051-1.7311-48.8926,56.6118-65.1038,131.4586c-12.2676,56.6392 54.6258,117.9532 88.3239,120.2217c33.6977,2.2683 41.2993-26.4281 35.9535-83.8596z"/>
<path opacity=".5" fill="url(#radialGradient4293)" d="m1202.7601,3109.484c-5.0414,119.8241 24.0444,345.2632 80.262,347.029c56.2175,1.7661 173.3313-149.0336 217.7648-295.9241c36.3472-120.1581-120.3578-241.7401-193.1978-244.0817c-72.8398-2.3417-99.7878,73.1526-104.829,192.9768z"/>
<path opacity=".5" fill="url(#radialGradient4291)" d="m1497.6995,3562.1496c-92.6191-32.1521-260.021-115.3617-251.3841-148.991c8.637-33.6296 115.2485-36.7537 246.2025-24.143c99.0978,9.543 170.9211,121.1923 159.7714,164.781c-11.1496,43.5886-61.9709,40.5053-154.5898,8.353z"/>
</g>
<g transform="translate(0 -796.36215)">
<path fill="url(#linearGradient4137)" d="m105.3689,957.7527c-1.3131,4.7241 3.0733,13.8579 13.432,20.339c9.0752,5.6781 10.2247,7.4074 11.5711,11.7933c-2.6583,19.8084 32.6487,41.389 40.6044,34.0836c7.9542-7.3072-15.8672-40.3324-33.2585-42.4825c-4.4548-.7185-6.3241-6.8368-9.9618-13.8678c-5.6168-10.8564-10.7938-15.1033-15.6449-14.1647c-5.2093-8.0679-9.2678-13.8016-13.593-9.274c-4.3252,4.5276 3.0172,8.2064 6.8507,13.5731z"/>
</g>
</svg>
