<svg xmlns="http://www.w3.org/2000/svg" viewBox="0 0 256 256">
<defs>
<linearGradient id="linearGradient4264">
<stop offset="0" stop-color="#fc7800"/>
<stop offset="1" stop-color="#ffee8c"/>
</linearGradient>
<linearGradient gradientTransform="matrix(.95474 0 0 .95474 -289.72004 -256.18667)" id="linearGradient4550" xlink:href="#linearGradient4264" y1="48.162" y2="-8.957" x1="-27.942" x2="7.399" gradientUnits="userSpaceOnUse"/>
</defs>
<g transform="matrix(3.71351 0 0 3.55556 1263.7298 975.89075)">
<path direction="ltr" fill="#303030" block-progression="tb" word-spacing="0" color="#000000" d="m-305.2436-274.4693c-4.6243,.0001-9.0466,.7468-13.25,2.25c-4.2323,1.5136-8.002,3.8217-11.25,6.8438c-3.2804,3.0522-5.8754,6.8467-7.75,11.3125c-1.9081,4.5456-2.8125,9.7559-2.8125,15.5938c0,6.025 .9267,11.3666 2.875,15.9688c1.9139,4.521 4.5687,8.3459 7.9375,11.3438c3.334,2.9669 7.2169,5.1704 11.625,6.5938c4.3638,1.4091 8.9948,2.0937 13.8438,2.0938c2.775,0 5.3796-.18 7.8125-.5625c2.3794-.3742 4.2808-.8132 5.8125-1.375l1.875-.6875l-.25-1.9688l-.9062-6.875l-.3438-2.625l-2.5938,.5c-1.1957,.2307-2.7362,.5059-4.5938,.8438c-1.6333,.2971-3.9377,.4688-6.8125,.4688c-3.5125,0-6.6329-.5058-9.4375-1.5c-2.7961-.9912-5.1711-2.4459-7.1875-4.375c-1.9921-1.9058-3.555-4.3057-4.7188-7.2812c-1.1403-2.9155-1.75-6.4198-1.75-10.5625c0-3.9457 .5749-7.3381 1.6562-10.25c1.099-2.9595 2.5694-5.3792 4.4688-7.3438c1.9135-1.9792 4.1687-3.4885 6.8438-4.5625c2.6593-1.0676 5.6081-1.625 8.9062-1.625c3.2823,0 6.1559,.5549 8.6875,1.5938c2.0153,.8271 3.6937,1.9214 5.1875,3.1875c-1.5-.4681-3.0626-.9168-5-1.2812c-2.4102-.4533-4.9889-.6562-7.7188-.6562c-3.1218,0-6.0371,.5164-8.6562,1.625c-2.565,1.0858-4.8057,2.62-6.625,4.5625c-1.806,1.9283-3.169,4.1854-4.0625,6.7188c-.8835,2.505-1.3125,5.1886-1.3125,7.9688c0,3.2122 .4388,6.1188 1.4062,8.7188c.9509,2.5558 2.3479,4.8166 4.1562,6.6562c1.7967,1.8279 3.9473,3.2033 6.375,4.125c2.4212,.9193 5.067,1.375 7.875,1.375c1.8784,0 3.7717-.2734 5.625-.7812c.9606-.2632 1.7924-.54 2.5625-.875c.57,.3925 1.1985,.7101 1.875,1c1.5845,.679 3.3827,.9688 5.375,.9688c2.5451,0 5.0088-.583 7.2812-1.7188c2.3071-1.1531 4.2812-2.8867 5.875-5.0625c1.5846-2.1634 2.785-4.7303 3.6562-7.6562c.8891-2.9861 1.3124-6.3326 1.3125-10.0312c-.0001-4.9456-.8956-9.4887-2.7188-13.5625c-1.7933-4.0066-4.2582-7.4818-7.375-10.3438c-3.1078-2.8535-6.7487-5.0446-10.8438-6.5312c-4.0866-1.4834-8.4182-2.2187-12.9375-2.2188zm0,5c3.9774,0 7.7241,.6576 11.25,1.9375c3.5173,1.2769 6.5401,3.0979 9.1562,5.5c2.607,2.3938 4.6513,5.2552 6.1875,8.6875c1.5061,3.3653 2.2812,7.1825 2.2812,11.5312c-.0001,3.3164-.3734,6.2057-1.0938,8.625c-.7384,2.4796-1.7197,4.505-2.9062,6.125c-1.1776,1.6076-2.5246,2.747-4.0938,3.5312c-1.604,.8016-3.2287,1.1875-5.0312,1.1875c-1.5169,0-2.6547-.2405-3.4062-.5625c-.9119-.3907-1.3396-.7707-1.4375-.9062l-1.5-2.0625l-2.0312,1.5c-.321,.2391-1.2954,.7178-2.7812,1.125c-1.4431,.3954-2.8588,.5938-4.2812,.5938c-2.2838,0-4.2966-.3489-6.0938-1.0312c-1.7908-.6799-3.296-1.6486-4.5938-2.9688c-1.2862-1.3084-2.2971-2.933-3.0312-4.9062c-.7178-1.929-1.0938-4.2284-1.0938-6.9688c0-2.2611 .3446-4.3345 1.0312-6.2812c.6766-1.9184 1.6642-3.5737 3-5c1.3224-1.412 2.9514-2.5031 4.9375-3.3438c1.9319-.8177 4.131-1.25 6.6875-1.25c2.4596,0 4.716,.1741 6.7812,.5625c1.4667,.2759 2.5149,.5923 3.625,.9062v21.8438c-.0001,1.696 .007,3.1021 1.2188,4.5312c.8298,.9794 2.2277,1.625 3.5,1.625c1.699,0 3.3446-.7233 4.5938-1.875c1.1856-1.0932 2.1132-2.5017 2.8125-4.125c.6921-1.6068 1.1717-3.4106 1.5-5.4062c.3236-1.9681 .4999-3.9226 .5-5.9062c-.0001-3.3815-.6115-6.625-1.8125-9.6562c-1.1974-3.0217-2.9296-5.7196-5.1562-8c-2.2463-2.3003-4.9758-4.0825-8.125-5.375c-3.2034-1.3146-6.7603-1.9687-10.5938-1.9688c-3.8556,0-7.449,.6435-10.75,1.9688c-3.2853,1.319-6.1912,3.2337-8.5938,5.7188c-2.4169,2.4999-4.2544,5.5712-5.5625,9.0938c-1.3258,3.5703-1.9688,7.5751-1.9688,12c0,4.6284 .6771,8.7844 2.0938,12.4062c1.3931,3.5618 3.3488,6.6158 5.9062,9.0625c2.533,2.4233 5.5569,4.2593 8.9688,5.4688c3.4032,1.2064 7.1244,1.7812 11.125,1.7812c3.065,0 5.6254-.1817 7.7188-.5625c.8089-.1471 1.3127-.2475 2-.375l.2812,2.0312c-.9143,.2321-1.6336,.4776-2.9688,.6875c-2.1387,.3363-4.4812,.5-7.0312,.5c-4.3699,0-8.4384-.6029-12.2812-1.8438c-3.7987-1.2266-7.0674-3.0953-9.875-5.5938c-2.7729-2.4675-4.9918-5.5996-6.6562-9.5312c-1.6301-3.8505-2.4688-8.5233-2.4688-14.0312c0-5.3135 .8052-9.8421 2.4062-13.6562c1.6345-3.8938 3.8368-7.0576 6.5625-9.5938c2.7581-2.5662 5.9083-4.4856 9.5312-5.7812c3.6517-1.3059 7.4755-1.9687 11.5625-1.9688zm16.5625,14.8125c1.0657,1.3899 2.0093,2.8823 2.6875,4.5938c.9632,2.4311 1.4375,5.0146 1.4375,7.8125c-.0001,1.7115-.1575,3.4218-.4375,5.125c-.2756,1.6758-.6614,3.07-1.1562,4.2188c-.4878,1.1323-1.0407,1.9275-1.5938,2.4375c-.325,.2996-.5578,.2835-.8125,.3438c-.0524-.2499-.125-.5046-.125-.9688v-23.5625zm-13.5938,1.8438 0,.8125c-.4307-.0192-.8257-.0625-1.2812-.0625c-3.8297,0-7.2267,1.3306-9.375,4.0312c-2.0337,2.5566-3,5.8477-3,9.5c0,3.8225 .8745,7.1453 2.9062,9.6562c2.0126,2.4874 5.0363,3.8438 8.3125,3.8438c1.1905,0 2.3865-.0972 3.5625-.3438c1.1056-.2318 1.9708-.4788 2.7812-.8438l2.3125-1.0312l-1.0625-2.2812c.0831,.1821-.0204-.1196-.0625-.6562c-.0488-.6217-.0938-1.2319-.0937-1.8125v-17.0312c.008-.0346 .0312-.125 .0312-.125c0-.0002-.0624-.7811-.0625-.7812c0-.0002-.2499-.5936-.25-.5938c-.0002-.0004-.4683-.5933-.4688-.5938c-.0004-.0004-.2258-.2232-.3125-.2812c-.0867-.0581-.1609-.094-.2188-.125c-.2313-.1239-.3299-.1304-.4062-.1562l-3.3125-1.125zm-1.2812,5.75c.4807,0 .856,.0384 1.2812,.0625v15c0,.5643 .0263,1.138 .0625,1.7188c-.8361,.1732-1.6673,.25-2.5,.25c-2.0552,0-3.2582-.5811-4.4062-2c-1.129-1.3953-1.8125-3.4431-1.8125-6.5c0-2.8077 .6658-4.8156 1.9062-6.375c1.1258-1.4152 2.6744-2.1562 5.4688-2.1562z" letter-spacing="0"/>
<text x="-340.808" y="-218.397" fill="url(#linearGradient4550)" font-family="Ubuntu" word-spacing="0" line-height="125%" xml:space="preserve" letter-spacing="0" transform="scale(1.00471 .99531)" font-size="76.73238373px"><tspan x="-340.808" y="-218.397" fill="url(#linearGradient4550)">@</tspan>
</text>
</g>
</svg>
