<svg xmlns="http://www.w3.org/2000/svg" viewBox="0 0 256 256">
<defs>
<linearGradient gradientTransform="matrix(3.25097 0 0 3.25096 -547.26616 813.18734)" xlink:href="#linearGradient3805" id="linearGradient4006" y1="78.716" x1="204.262" y2="38.873" gradientUnits="userSpaceOnUse" x2="204.403"/>
<linearGradient id="linearGradient3805">
<stop offset="0" stop-color="#fff"/>
<stop offset="1" stop-color="#dbdbdb"/>
</linearGradient>
<linearGradient id="linearGradient3785">
<stop offset="0" stop-color="#084acc"/>
<stop offset="1" stop-color="#9cddff"/>
</linearGradient>
<linearGradient gradientTransform="matrix(3.25116 0 0 3.25077 -590.96315 748.89127)" xlink:href="#linearGradient3785" id="linearGradient4004" y1="85.75" x1="222.132" y2="15.708" gradientUnits="userSpaceOnUse" x2="260.663"/>
</defs>
<g transform="translate(0 -796.36215)">
<path fill="url(#linearGradient4004)" d="m81.1958,805.2453c-11.0053,0-21.9452,4.2665-30.3781,12.6983l-29.3621,29.3585c-16.8657,16.8637-16.8657,43.9867 0,60.8503l4.7752,4.7746c-.4278,3.8008-.7112,7.6658-.7112,11.5809c0,56.5609 45.8439,102.3992 102.4116,102.3992c3.9218,0 7.8768-.1805 11.6839-.6095l4.6735,4.6729c16.8657,16.8637 43.992,16.8637 60.8577,0l29.3621-29.2569c16.8657-16.8636 16.8657-44.0882 0-60.9519l-4.7751-4.7746c.4219-3.7751 .7112-7.5915 .7112-11.4793c0-56.5609-45.9455-102.5008-102.5132-102.5008c-3.8882,0-7.7051,.2893-11.4807,.7111l-4.7751-4.7746c-8.4328-8.4318-19.4743-12.6983-30.4797-12.6983Z"/>
<text x="65.217" y="1067.534" font-family="Ubuntu" fill="#6d6d6d" word-spacing="0" line-height="125%" font-weight="bold" xml:space="preserve" letter-spacing="0" transform="scale(1.09493 .9133)" font-size="178.4755249px"><tspan x="65.217" y="1067.534" fill="#6d6d6d">S</tspan>
</text>
<text x="66.629" y="1065.707" font-family="Ubuntu" fill="url(#linearGradient4006)" word-spacing="0" line-height="125%" font-weight="bold" xml:space="preserve" letter-spacing="0" transform="scale(1.08582 .92097)" font-size="176.98994446px"><tspan x="66.629" y="1065.707" fill="url(#linearGradient4006)">S</tspan>
</text>
<path opacity=".35" fill="none" d="m250.6506,52.4943a28.3996,28.3996 0 1,1 -56.7993,0a28.3996,28.3996 0 1,1 56.7993,0Z" transform="matrix(3.60751 0 0 3.60707 -673.79058 735.08119)"/>
</g>
<g fill="none" transform="matrix(3.25242 0 0 3.25202 -591.21329 -47.56084)">
<path direction="ltr" fill="#303030" block-progression="tb" color="#000000" d="m206.75,14.625c-4.0903,0-8.1786,1.6161-11.2812,4.7188l-9.0312,9c-6.2219,6.2219-6.2219,16.3719 0,22.5938l.5938,.5938c-.0659,.8228-.1562,1.6383-.1562,2.5c0,18.8695 15.3493,34.2188 34.2188,34.2188c.8257,0 1.6658-.1006 2.5-.1562l.5938,.5938c6.2161,6.2161 16.3391,6.2045 22.5625,0h.0312l9.0312-8.9688c6.2258-6.2258 6.2258-16.3992 0-22.625l-.5937-.5938c.0653-.8107 .125-1.6141 .125-2.4688c0-18.8727-15.3773-34.25-34.25-34.25c-.8622,0-1.6513,.0899-2.4688,.1562l-.5938-.5938c-3.1104-3.1104-7.1909-4.7188-11.2812-4.7188zm0,5.4688c2.6771,0 5.3623,1.0186 7.4375,3.0938l1.4688,1.4688l.9062,.9375l1.3125-.1562c1.0958-.1225 2.1589-.1875 3.2188-.1875c15.9123,0 28.8125,12.8689 28.8125,28.7812c0,1.0599-.0963,2.1229-.2188,3.2188l-.1562,1.3125l.9375,.9375l1.4688,1.4688c4.1454,4.1454 4.1454,10.7296 0,14.875l-9.0312,9c-4.1493,4.1493-10.6945,4.1493-14.8438,0l-1.4375-1.4375l-.9375-.9375l-1.2812,.1562c-1.0459,.1179-2.1906,.1562-3.3125,.1562c-15.9156,0-28.75-12.8344-28.75-28.75c0-1.072 .0952-2.1526 .2188-3.25l.125-1.3125l-.9062-.9375l-1.4688-1.4688c-4.1493-4.1493-4.1493-10.6945 0-14.8438l9.0312-9.0312c2.0829-2.0829 4.7291-3.0938 7.4062-3.0938Z"/>
<text x="187.662" y="76.148" font-family="Ubuntu" word-spacing="0" line-height="125%" font-weight="bold" xml:space="preserve" letter-spacing="0" transform="scale(1.09486 .91336)" font-size="54.87806702px"><tspan x="187.662" y="76.148">S</tspan>
</text>
<text x="188.826" y="77.685" font-family="Ubuntu" word-spacing="0" line-height="125%" font-weight="bold" xml:space="preserve" letter-spacing="0" transform="scale(1.08575 .92102)" font-size="54.42127991px"><tspan x="188.826" y="77.685">S</tspan>
</text>
<path opacity=".35" direction="ltr" fill="#303030" block-progression="tb" color="#000000" d="m221.1198,19.767c-18.8745,0-34.2459,15.3714-34.2459,34.2459c0,18.8745 15.3714,34.2112 34.2459,34.2112c18.8745,0 34.2459-15.3367 34.2459-34.2112c0-18.8745-15.3714-34.2459-34.2459-34.2459zm0,5.4766c15.9197,0 28.7693,12.8496 28.7693,28.7693c0,15.9197-12.8496,28.7693-28.7693,28.7693c-15.9197,0-28.7693-12.8496-28.7693-28.7693c0-15.9197 12.8496-28.7693 28.7693-28.7693Z"/>
</g>
</svg>
