<?xml version="1.0" encoding="utf8" standalone="no"?>
<svg height="256" id="svg2" inkscape:version="0.48.3.1 r9886" sodipodi:docname="im-vkontakte - копия.svg" width="256" xmlns="http://www.w3.org/2000/svg" xmlns:cc="http://creativecommons.org/ns#" xmlns:dc="http://purl.org/dc/elements/1.1/" xmlns:inkscape="http://www.inkscape.org/namespaces/inkscape" xmlns:rdf="http://www.w3.org/1999/02/22-rdf-syntax-ns#" xmlns:sodipodi="http://sodipodi.sourceforge.net/DTD/sodipodi-0.dtd" xmlns:svg="http://www.w3.org/2000/svg">
<defs id="defs4">
<linearGradient gradientTransform="matrix(.91392,0,0,.91375,-76.12006,-99.41887)" gradientUnits="userSpaceOnUse" id="linearGradient4004" inkscape:collect="always" x1="222.13194" x2="260.66302" y1="85.749825" y2="15.708054">
<stop id="stop3787" offset="0" style="stop-color:#084acc"/>
<stop id="stop3789" offset="1" style="stop-color:#9cddff"/>
</linearGradient>
<linearGradient gradientTransform="matrix(.91383,0,0,.91383,-70.10265,-107.94606)" gradientUnits="userSpaceOnUse" id="linearGradient4006" inkscape:collect="always" x1="204.2619" x2="204.40332" y1="78.715706" y2="38.872875">
<stop id="stop3807" offset="0" style="stop-color:#fff"/>
<stop id="stop3809" offset="1" style="stop-color:#dbdbdb"/>
</linearGradient>
</defs>
<sodipodi:namedview id="base" inkscape:current-layer="layer1" inkscape:cx="179.02108" inkscape:cy="119.63496" inkscape:document-units="px" inkscape:pageopacity="0" inkscape:pageshadow="2" inkscape:window-height="848" inkscape:window-maximized="1" inkscape:window-width="1440" inkscape:window-x="-8" inkscape:window-y="-8" inkscape:zoom="1.4"/>
<g id="layer1" inkscape:groupmode="layer" inkscape:label="Layer 1" transform="translate(0,-796.3622)">
<g id="g3989" transform="matrix(3.55738,0,0,3.55763,-320.17524,1102.5868)">
<path d="m 112.82773,-83.578554 c -3.09366,0 -6.16893,1.199251 -8.53945,3.569318 l -8.253846,8.252263 c -4.741038,4.740135 -4.741038,12.364036 0,17.104171 l 1.342327,1.342064 c -0.120255,1.06836 -0.199924,2.154737 -0.199924,3.255217 0,15.898475 12.886973,28.78298 28.788503,28.78298 1.10244,0 2.21421,-0.05072 3.2844,-0.171327 l 1.31376,1.313509 c 4.74105,4.740135 12.36641,4.740135 17.10745,0 l 8.25385,-8.223708 c 4.74104,-4.740135 4.74104,-12.392591 0,-17.132726 l -1.34232,-1.342064 c 0.1186,-1.061133 0.19992,-2.133879 0.19992,-3.226664 0,-15.898473 -12.91554,-28.811533 -28.81706,-28.811533 -1.093,0 -2.16595,0.08131 -3.22729,0.199882 l -1.34231,-1.342064 c -2.37052,-2.370067 -5.47435,-3.569318 -8.56801,-3.569318 z" id="path3957" inkscape:connector-curvature="0" style="fill:url(#linearGradient4004)"/><text id="text3959" sodipodi:linespacing="125%" style="font-family:Ubuntu;fill:#6d6d6d;font-weight:bold;letter-spacing:0;font-size:50.16873932;word-spacing:0" transform="scale(1.095,.913)" x="101.9804" xml:space="preserve" y="-39.275047"><tspan id="tspan3961" sodipodi:role="line" style="fill:#6d6d6d" x="101.9804" y="-39.275047">S</tspan></text><text id="text3963" sodipodi:linespacing="125%" style="font-family:Ubuntu;fill:url(#linearGradient4006);font-weight:bold;letter-spacing:0;font-size:49.75115204;word-spacing:0" transform="scale(1.086,.921)" x="102.46066" xml:space="preserve" y="-36.963753"><tspan id="tspan3965" sodipodi:role="line" style="fill:url(#linearGradient4006)" x="102.46066" y="-36.963753">S</tspan></text>
<path d="m 250.65063,52.494251 c 0,15.68468 -12.71494,28.399626 -28.39962,28.399626 -15.68468,0 -28.39963,-12.714946 -28.39963,-28.399626 0,-15.68468 12.71495,-28.399626 28.39963,-28.399626 15.68468,0 28.39962,12.714946 28.39962,28.399626 z" id="path3967" sodipodi:cx="222.25101" sodipodi:cy="52.494251" sodipodi:rx="28.399626" sodipodi:ry="28.399626" sodipodi:type="arc" style="opacity:0.35;fill:none" transform="matrix(1.01409,0,0,1.0139,-99.40333,-103.30069)"/>
<g id="g3833" style="fill:none" transform="matrix(.91427,0,0,.9141,-76.18533,-99.44416)">
<path d="m 206.75,14.625 c -4.09033,0 -8.17861,1.616107 -11.28125,4.71875 l -9.03125,9 c -6.22189,6.221895 -6.22189,16.371855 0,22.59375 l 0.59375,0.59375 c -0.0659,0.822752 -0.15625,1.638301 -0.15625,2.5 0,18.869454 15.34929,34.21875 34.21875,34.21875 0.82569,0 1.66578,-0.100643 2.5,-0.15625 l 0.59375,0.59375 c 6.21611,6.216108 16.33913,6.204549 22.5625,0 l 0.0312,0 9.03125,-8.96875 c 6.22577,-6.225776 6.22577,-16.399224 0,-22.625 L 255.21875,56.5 c 0.0653,-0.81067 0.125,-1.614136 0.125,-2.46875 0,-18.872726 -15.37727,-34.25 -34.25,-34.25 -0.86222,0 -1.65125,0.08987 -2.46875,0.15625 l -0.59375,-0.59375 C 214.92085,16.233344 210.84032,14.625 206.75,14.625 z m 0,5.46875 c 2.67714,0 5.36232,1.01857 7.4375,3.09375 l 1.46875,1.46875 0.90625,0.9375 1.3125,-0.15625 c 1.09584,-0.122452 2.15887,-0.1875 3.21875,-0.1875 15.91233,0 28.8125,12.868924 28.8125,28.78125 0,1.059882 -0.0963,2.122908 -0.21875,3.21875 l -0.15625,1.3125 0.9375,0.9375 1.46875,1.46875 c 4.14539,4.145398 4.14539,10.729602 0,14.875 l -9.03125,9 c -4.14928,4.149282 -10.69447,4.149282 -14.84375,0 l -1.4375,-1.4375 -0.9375,-0.9375 -1.28125,0.15625 c -1.04591,0.117891 -2.19056,0.15625 -3.3125,0.15625 -15.9156,0 -28.75,-12.8344 -28.75,-28.75 0,-1.071989 0.0952,-2.152558 0.21875,-3.25 l 0.125,-1.3125 -0.90625,-0.9375 -1.46875,-1.46875 c -4.14927,-4.149279 -4.14927,-10.694471 0,-14.84375 l 9.03125,-9.03125 c 2.08294,-2.082943 4.7291,-3.09375 7.40625,-3.09375 z" id="path3773" inkscape:connector-curvature="0" style="font-family:Sans;fill:#303030;stroke-width:5.46723843"/><text id="text3813" sodipodi:linespacing="125%" style="font-family:Ubuntu;fill:none;font-weight:bold;letter-spacing:0;font-size:54.87806702;word-spacing:0" transform="scale(1.095,.913)" x="187.66219" xml:space="preserve" y="76.147682"><tspan id="tspan3815" sodipodi:role="line" style="fill:none" x="187.66219" y="76.147682">S</tspan></text><text id="text3801" sodipodi:linespacing="125%" style="font-family:Ubuntu;fill:none;font-weight:bold;letter-spacing:0;font-size:54.42127991;word-spacing:0" transform="scale(1.086,.921)" x="188.82635" xml:space="preserve" y="77.684509"><tspan id="tspan3803" sodipodi:role="line" style="fill:none" x="188.82635" y="77.684509">S</tspan></text>
<path d="m 221.1198,19.767023 c -18.87446,0 -34.24587,15.371412 -34.24587,34.245873 0,18.874462 15.37141,34.211212 34.24587,34.211212 18.87446,0 34.24588,-15.33675 34.24588,-34.211212 0,-18.874461 -15.37142,-34.245873 -34.24588,-34.245873 z m 0,5.476566 c 15.91975,0 28.76931,12.849561 28.76931,28.769307 0,15.919746 -12.84956,28.769307 -28.76931,28.769307 -15.91974,0 -28.76931,-12.849561 -28.76931,-28.769307 0,-15.919746 12.84957,-28.769307 28.76931,-28.769307 z" id="path3819" inkscape:connector-curvature="0" style="font-family:Sans;opacity:0.35;fill:#303030;stroke-width:4.92909002"/>
</g>
</g>
</g>
</svg>
