<?xml version="1.0" encoding="UTF-8" standalone="no"?>
<!-- Created with Inkscape (http://www.inkscape.org/) -->

<svg
   xmlns:dc="http://purl.org/dc/elements/1.1/"
   xmlns:cc="http://creativecommons.org/ns#"
   xmlns:rdf="http://www.w3.org/1999/02/22-rdf-syntax-ns#"
   xmlns:svg="http://www.w3.org/2000/svg"
   xmlns="http://www.w3.org/2000/svg"
   xmlns:xlink="http://www.w3.org/1999/xlink"
   xmlns:sodipodi="http://sodipodi.sourceforge.net/DTD/sodipodi-0.dtd"
   xmlns:inkscape="http://www.inkscape.org/namespaces/inkscape"
   sodipodi:docname="im-vkontakte.svg"
   inkscape:version="0.48.3.1 r9886"
   version="1.1"
   id="svg2"
   height="256"
   width="256">
  <defs
     id="defs4">
    <linearGradient
       id="linearGradient4129">
      <stop
         style="stop-color:#33261c;stop-opacity:1;"
         offset="0"
         id="stop4131" />
      <stop
         id="stop4139"
         offset="0.38704002"
         style="stop-color:#5f4f43;stop-opacity:1;" />
      <stop
         style="stop-color:#33261c;stop-opacity:1;"
         offset="1"
         id="stop4133" />
    </linearGradient>
    <linearGradient
       id="linearGradient3891-1">
      <stop
         style="stop-color:#000000;stop-opacity:1;"
         offset="0"
         id="stop3893-2" />
      <stop
         style="stop-color:#ffffff;stop-opacity:0.45045045;"
         offset="1"
         id="stop3895-2" />
    </linearGradient>
    <linearGradient
       id="linearGradient3289">
      <stop
         style="stop-color:#000000;stop-opacity:1;"
         offset="0"
         id="stop3291" />
      <stop
         style="stop-color:#ffffff;stop-opacity:0.45045045;"
         offset="1"
         id="stop3293" />
    </linearGradient>
    <linearGradient
       id="linearGradient3296">
      <stop
         style="stop-color:#000000;stop-opacity:1;"
         offset="0"
         id="stop3298" />
      <stop
         style="stop-color:#ffffff;stop-opacity:0.45045045;"
         offset="1"
         id="stop3300" />
    </linearGradient>
    <linearGradient
       id="linearGradient3303">
      <stop
         style="stop-color:#000000;stop-opacity:1;"
         offset="0"
         id="stop3305" />
      <stop
         style="stop-color:#ffffff;stop-opacity:0.45045045;"
         offset="1"
         id="stop3307" />
    </linearGradient>
    <linearGradient
       id="linearGradient3310">
      <stop
         style="stop-color:#000000;stop-opacity:1;"
         offset="0"
         id="stop3312" />
      <stop
         style="stop-color:#ffffff;stop-opacity:0.45045045;"
         offset="1"
         id="stop3314" />
    </linearGradient>
    <linearGradient
       id="linearGradient3916-0">
      <stop
         style="stop-color:#636363;stop-opacity:1;"
         offset="0"
         id="stop3918-6" />
      <stop
         id="stop3924-0"
         offset="0.5"
         style="stop-color:#ffffff;stop-opacity:0;" />
      <stop
         style="stop-color:#474747;stop-opacity:1;"
         offset="1"
         id="stop3920-3" />
    </linearGradient>
    <linearGradient
       id="linearGradient3985-7">
      <stop
         style="stop-color:#ffffff;stop-opacity:1;"
         offset="0"
         id="stop3987-6" />
      <stop
         style="stop-color:#363411;stop-opacity:0;"
         offset="1"
         id="stop3989-0" />
    </linearGradient>
    <radialGradient
       inkscape:collect="always"
       xlink:href="#linearGradient3997-9"
       id="radialGradient4402"
       gradientUnits="userSpaceOnUse"
       gradientTransform="matrix(1.0307314,0.70140738,-0.56919901,0.81590912,-294.18744,510.67726)"
       cx="-260.30264"
       cy="289.108"
       fx="-260.30264"
       fy="289.108"
       r="398" />
    <linearGradient
       id="linearGradient3997-9">
      <stop
         style="stop-color:#ffffff;stop-opacity:1;"
         offset="0"
         id="stop3999-5" />
      <stop
         id="stop4005-4"
         offset="0.44365835"
         style="stop-color:#ffffff;stop-opacity:0;" />
      <stop
         style="stop-color:#d3ca32;stop-opacity:0.81981981;"
         offset="1"
         id="stop4001-9" />
    </linearGradient>
    <linearGradient
       id="linearGradient4726">
      <stop
         style="stop-color:#ffffff;stop-opacity:0;"
         offset="0"
         id="stop4728" />
      <stop
         id="stop4734"
         offset="0.5"
         style="stop-color:#ffffff;stop-opacity:0.73873872;" />
      <stop
         style="stop-color:#000000;stop-opacity:1;"
         offset="1"
         id="stop4730" />
    </linearGradient>
    <linearGradient
       id="linearGradient4003">
      <stop
         style="stop-color:#0d300c;stop-opacity:1;"
         offset="0"
         id="stop4006" />
      <stop
         style="stop-color:#3ba246;stop-opacity:0;"
         offset="1"
         id="stop4008" />
    </linearGradient>
    <linearGradient
       id="linearGradient4754">
      <stop
         style="stop-color:#9ef58c;stop-opacity:0;"
         offset="0"
         id="stop4756" />
      <stop
         id="stop4762"
         offset="0.7684527"
         style="stop-color:#c5ffba;stop-opacity:1;" />
      <stop
         style="stop-color:#9ef58c;stop-opacity:0;"
         offset="1"
         id="stop4758" />
    </linearGradient>
    <radialGradient
       inkscape:collect="always"
       xlink:href="#linearGradient4813"
       id="radialGradient4012"
       gradientUnits="userSpaceOnUse"
       gradientTransform="matrix(2.0895106,-0.46453523,0.36061815,1.6220847,-545.78583,-73.906141)"
       cx="377.25143"
       cy="399.78336"
       fx="377.25143"
       fy="399.78336"
       r="154.28572" />
    <linearGradient
       id="linearGradient4813">
      <stop
         style="stop-color:#ffffff;stop-opacity:0.60747664"
         offset="0"
         id="stop4815" />
      <stop
         style="stop-color:#a5c20f;stop-opacity:0;"
         offset="1"
         id="stop4817" />
    </linearGradient>
    <linearGradient
       id="linearGradient3970">
      <stop
         style="stop-color:#fffacf;stop-opacity:1;"
         offset="0"
         id="stop3972" />
      <stop
         style="stop-color:#ff7000;stop-opacity:1;"
         offset="1"
         id="stop3974" />
    </linearGradient>
    <linearGradient
       id="linearGradient3411">
      <stop
         style="stop-color:#fffacf;stop-opacity:1;"
         offset="0"
         id="stop3413" />
      <stop
         style="stop-color:#ff7000;stop-opacity:1;"
         offset="1"
         id="stop3415" />
    </linearGradient>
    <radialGradient
       inkscape:collect="always"
       xlink:href="#linearGradient3970"
       id="radialGradient4365"
       gradientUnits="userSpaceOnUse"
       gradientTransform="matrix(1.6048911,2.0062253,-1.4966285,1.2502573,3100.0374,-4583.111)"
       cx="1045.1827"
       cy="2398.6892"
       fx="1045.1827"
       fy="2398.6892"
       r="191.22911" />
    <linearGradient
       id="linearGradient3418">
      <stop
         style="stop-color:#fffacf;stop-opacity:1;"
         offset="0"
         id="stop3420" />
      <stop
         style="stop-color:#ff7000;stop-opacity:1;"
         offset="1"
         id="stop3422" />
    </linearGradient>
    <linearGradient
       id="linearGradient7171-6">
      <stop
         style="stop-color:#ffffff;stop-opacity:1;"
         offset="0"
         id="stop7173-1" />
      <stop
         id="stop7179-3"
         offset="0.44148755"
         style="stop-color:#ffdf95;stop-opacity:0.11711711;" />
      <stop
         style="stop-color:#aa7500;stop-opacity:1;"
         offset="1"
         id="stop7175-4" />
    </linearGradient>
    <linearGradient
       id="linearGradient7190-7">
      <stop
         style="stop-color:#000000;stop-opacity:1;"
         offset="0"
         id="stop7192-6" />
      <stop
         id="stop7198-8"
         offset="0.5"
         style="stop-color:#ffffff;stop-opacity:0;" />
      <stop
         style="stop-color:#000000;stop-opacity:1;"
         offset="1"
         id="stop7194-5" />
    </linearGradient>
    <linearGradient
       id="linearGradient3451">
      <stop
         style="stop-color:#000000;stop-opacity:1;"
         offset="0"
         id="stop3453" />
      <stop
         id="stop3455"
         offset="0.5"
         style="stop-color:#ffffff;stop-opacity:0;" />
      <stop
         style="stop-color:#000000;stop-opacity:1;"
         offset="1"
         id="stop3457" />
    </linearGradient>
    <linearGradient
       id="linearGradient7374">
      <stop
         style="stop-color:#d8d8d8;stop-opacity:1;"
         offset="0"
         id="stop7376" />
      <stop
         id="stop7382"
         offset="0.5"
         style="stop-color:#cfcfcf;stop-opacity:1;" />
      <stop
         style="stop-color:#dfdfdf;stop-opacity:1;"
         offset="1"
         id="stop7378" />
    </linearGradient>
    <linearGradient
       id="linearGradient7455">
      <stop
         style="stop-color:#b2b2b2;stop-opacity:0;"
         offset="0"
         id="stop7457" />
      <stop
         id="stop7463"
         offset="0.5"
         style="stop-color:#5e5e5e;stop-opacity:1;" />
      <stop
         style="stop-color:#b2b2b2;stop-opacity:0;"
         offset="1"
         id="stop7459" />
    </linearGradient>
    <linearGradient
       id="linearGradient6976">
      <stop
         style="stop-color:#8cb8f1;stop-opacity:1;"
         offset="0"
         id="stop6978" />
      <stop
         style="stop-color:#3851a0;stop-opacity:1;"
         offset="1"
         id="stop6980" />
    </linearGradient>
    <radialGradient
       inkscape:collect="always"
       xlink:href="#linearGradient4101-9"
       id="radialGradient4297"
       gradientUnits="userSpaceOnUse"
       gradientTransform="matrix(0.05169176,-0.27438973,0.56089593,0.08074168,-1198.243,3810.2984)"
       cx="2458.448"
       cy="4019.1724"
       fx="2458.448"
       fy="4019.1724"
       r="441.49512" />
    <linearGradient
       id="linearGradient4101-9">
      <stop
         style="stop-color:#00b2ff;stop-opacity:1;"
         offset="0"
         id="stop4103-3" />
      <stop
         style="stop-color:#0057bf;stop-opacity:1;"
         offset="1"
         id="stop4105-8" />
    </linearGradient>
    <radialGradient
       inkscape:collect="always"
       xlink:href="#linearGradient4123-5"
       id="radialGradient4295"
       gradientUnits="userSpaceOnUse"
       gradientTransform="matrix(-0.31424354,0.01236544,-0.02480232,-0.4816276,2153.4928,5571.4903)"
       cx="2585.0479"
       cy="4363.1562"
       fx="2585.0479"
       fy="4363.1562"
       r="284.96078" />
    <linearGradient
       id="linearGradient4123-5">
      <stop
         id="stop4125-6"
         offset="0"
         style="stop-color:#5ddd00;stop-opacity:1;" />
      <stop
         id="stop4127-8"
         offset="1"
         style="stop-color:#005700;stop-opacity:1;" />
    </linearGradient>
    <radialGradient
       inkscape:collect="always"
       xlink:href="#linearGradient4137-7"
       id="radialGradient4293"
       gradientUnits="userSpaceOnUse"
       gradientTransform="matrix(0.51425368,0.00971485,-0.02393249,0.96803471,-127.18838,-581.71077)"
       cx="2953.866"
       cy="4024.6326"
       fx="2953.866"
       fy="4024.6326"
       r="441.49512" />
    <linearGradient
       id="linearGradient4137-7">
      <stop
         style="stop-color:#ff8d00;stop-opacity:1;"
         offset="0"
         id="stop4139-8" />
      <stop
         style="stop-color:#ff0022;stop-opacity:1;"
         offset="1"
         id="stop4141-4" />
    </linearGradient>
    <radialGradient
       inkscape:collect="always"
       xlink:href="#linearGradient4151-3"
       id="radialGradient4291"
       gradientUnits="userSpaceOnUse"
       gradientTransform="matrix(-0.10801785,0.40484014,-0.84141158,-0.17154672,5406.122,3008.4874)"
       cx="2965.6528"
       cy="4402.6196"
       fx="2965.6528"
       fy="4402.6196"
       r="284.96078" />
    <linearGradient
       id="linearGradient4151-3">
      <stop
         id="stop4153-3"
         offset="0"
         style="stop-color:#ffffad;stop-opacity:1;" />
      <stop
         id="stop4155-4"
         offset="1"
         style="stop-color:#ffcd00;stop-opacity:1;" />
    </linearGradient>
    <radialGradient
       inkscape:collect="always"
       xlink:href="#linearGradient4101-9"
       id="radialGradient4289"
       gradientUnits="userSpaceOnUse"
       gradientTransform="matrix(0.05169176,-0.27438973,0.56089593,0.08074168,-1198.243,3810.2984)"
       cx="2458.448"
       cy="4019.1724"
       fx="2458.448"
       fy="4019.1724"
       r="441.49512" />
    <linearGradient
       id="linearGradient3528">
      <stop
         style="stop-color:#00b2ff;stop-opacity:1;"
         offset="0"
         id="stop3530" />
      <stop
         style="stop-color:#0057bf;stop-opacity:1;"
         offset="1"
         id="stop3532" />
    </linearGradient>
    <radialGradient
       inkscape:collect="always"
       xlink:href="#linearGradient4123-5"
       id="radialGradient4287"
       gradientUnits="userSpaceOnUse"
       gradientTransform="matrix(-0.31424354,0.01236544,-0.02480232,-0.4816276,2153.4928,5571.4903)"
       cx="2585.0479"
       cy="4363.1562"
       fx="2585.0479"
       fy="4363.1562"
       r="284.96078" />
    <linearGradient
       id="linearGradient3535">
      <stop
         id="stop3537"
         offset="0"
         style="stop-color:#5ddd00;stop-opacity:1;" />
      <stop
         id="stop3539"
         offset="1"
         style="stop-color:#005700;stop-opacity:1;" />
    </linearGradient>
    <radialGradient
       inkscape:collect="always"
       xlink:href="#linearGradient4137-7"
       id="radialGradient4285"
       gradientUnits="userSpaceOnUse"
       gradientTransform="matrix(0.51425368,0.00971485,-0.02393249,0.96803471,-127.18838,-581.71077)"
       cx="2953.866"
       cy="4024.6326"
       fx="2953.866"
       fy="4024.6326"
       r="441.49512" />
    <linearGradient
       id="linearGradient3542">
      <stop
         style="stop-color:#ff8d00;stop-opacity:1;"
         offset="0"
         id="stop3544" />
      <stop
         style="stop-color:#ff0022;stop-opacity:1;"
         offset="1"
         id="stop3546" />
    </linearGradient>
    <radialGradient
       inkscape:collect="always"
       xlink:href="#linearGradient4151-3"
       id="radialGradient4283"
       gradientUnits="userSpaceOnUse"
       gradientTransform="matrix(-0.10801785,0.40484014,-0.84141158,-0.17154672,5406.122,3008.4874)"
       cx="2965.6528"
       cy="4402.6196"
       fx="2965.6528"
       fy="4402.6196"
       r="284.96078" />
    <linearGradient
       id="linearGradient3549">
      <stop
         id="stop3551"
         offset="0"
         style="stop-color:#ffffad;stop-opacity:1;" />
      <stop
         id="stop3553"
         offset="1"
         style="stop-color:#ffcd00;stop-opacity:1;" />
    </linearGradient>
    <radialGradient
       r="284.96078"
       fy="4402.6196"
       fx="2965.6528"
       cy="4402.6196"
       cx="2965.6528"
       gradientTransform="matrix(-0.10801785,0.40484014,-0.84141158,-0.17154672,5406.122,3008.4874)"
       gradientUnits="userSpaceOnUse"
       id="radialGradient3568"
       xlink:href="#linearGradient4151-3"
       inkscape:collect="always" />
    <linearGradient
       inkscape:collect="always"
       xlink:href="#linearGradient4129"
       id="linearGradient4137"
       x1="116.58603"
       y1="983.2641"
       x2="134.67393"
       y2="965.58643"
       gradientUnits="userSpaceOnUse" />
    <linearGradient
       inkscape:collect="always"
       xlink:href="#linearGradient4339"
       id="linearGradient4372"
       gradientUnits="userSpaceOnUse"
       gradientTransform="translate(-290.61864,-197.65678)"
       x1="297.16122"
       y1="-12.831954"
       x2="333.12265"
       y2="-71.497208" />
    <linearGradient
       id="linearGradient4339">
      <stop
         style="stop-color:#cbcbcb;stop-opacity:1;"
         offset="0"
         id="stop4341" />
      <stop
         style="stop-color:#ffffff;stop-opacity:1;"
         offset="1"
         id="stop4343" />
    </linearGradient>
  </defs>
  <sodipodi:namedview
     id="base"
     pagecolor="#ffffff"
     bordercolor="#666666"
     borderopacity="1.0"
     inkscape:pageopacity="0.0"
     inkscape:pageshadow="2"
     inkscape:zoom="1.4"
     inkscape:cx="179.02108"
     inkscape:cy="119.63496"
     inkscape:document-units="px"
     inkscape:current-layer="layer1"
     showgrid="false"
     inkscape:window-width="1440"
     inkscape:window-height="848"
     inkscape:window-x="-8"
     inkscape:window-y="-8"
     inkscape:window-maximized="1" />
  <metadata
     id="metadata7">
    <rdf:RDF>
      <cc:Work
         rdf:about="">
        <dc:format>image/svg+xml</dc:format>
        <dc:type
           rdf:resource="http://purl.org/dc/dcmitype/StillImage" />
        <dc:title />
      </cc:Work>
    </rdf:RDF>
  </metadata>
  <g
     inkscape:label="Layer 1"
     inkscape:groupmode="layer"
     id="layer1"
     transform="translate(0,-796.36215)">
    <g
       id="g4368"
       transform="matrix(3.5548342,0,0,3.5705433,53.707499,1782.2277)">
      <path
         style="fill:url(#linearGradient4372);fill-opacity:1;stroke:none"
         d="m -12.39769,-251.82585 c 3.58838,12.57826 7.59629,33.17953 18.90033,40.82738 3.82377,2.58701 11.8787,2.44383 13.13265,1.49771 1.25394,-0.94611 0.19494,-11.16108 2.75898,-12.24881 2.56406,-1.08772 8.72581,13.31094 12.40905,13.34573 12.30953,0.11628 19.45257,2.64849 19.4337,-5.60843 -0.009,-4.01516 -14.89564,-19.07839 -15.29688,-21.99712 -0.47362,-3.44522 17.78956,-32.37871 13.70143,-36.16665 -2.18832,-2.0276 -18.8469,3.89123 -19.28549,4.72192 -1.58227,2.99688 -7.93048,27.47627 -11.6,28.756 -3.66949,1.27973 -0.89447,-25.2419 -1.76298,-25.70164 -3.43359,-1.81752 -15.57562,1.51819 -15.97379,7.28136 -0.12884,1.86494 2.14017,0.28992 3.25699,1.56965 1.1168,1.27972 0.51062,21.19583 -0.63017,20.27063 -6.80569,-5.51956 -7.48588,-19.60115 -9.18748,-21.02409 -1.52489,-1.27517 -10.25316,3.08542 -9.85634,4.47636 z"
         inkscape:connector-curvature="0"
         sodipodi:nodetypes="sszzssssssssssss"
         id="path4315" />
      <path
         id="path4317"
         d="m 49.875,-275.25 c -0.48522,0.0327 -0.9783,0.1089 -1.5,0.1875 -2.08682,0.31446 -4.49213,0.93809 -6.8125,1.625 -2.32037,0.68691 -4.54332,1.45396 -6.28125,2.125 -0.86897,0.33552 -1.61851,0.62228 -2.21875,0.90625 -0.30012,0.14199 -0.56715,0.27059 -0.84375,0.4375 -0.2766,0.16691 -0.55932,-0.0269 -1.25,1.28125 -0.188227,0.35651 -0.365443,0.74176 -0.53125,1.15625 -0.497422,1.24346 -0.934193,2.7811 -1.59375,4.84375 -0.87941,2.7502 -1.9223,6.11705 -3.03125,9.40625 -1.03846,3.08013 -2.14551,5.99675 -3.15625,8.3125 -0.0874,-1.82894 -0.19966,-3.63518 -0.15625,-5.875 0.0623,-3.21671 0.19955,-6.49977 0.28125,-9.0625 0.0409,-1.28136 0.0788,-2.38352 0.0625,-3.25 -0.008,-0.43324 -0.04175,-0.81529 -0.09375,-1.21875 -0.026,-0.20173 -0.0518,-0.39198 -0.15625,-0.71875 -0.10442,-0.32677 -0.0762,-0.98527 -1.34375,-1.65625 -1.73391,-0.91782 -3.4982,-0.92257 -5.40625,-0.75 -1.90805,0.17257 -3.95356,0.65708 -5.9375,1.40625 -1.98394,0.74917 -3.882,1.76428 -5.46875,3.15625 -1.58675,1.39197 -2.93097,3.26893 -3.09375,5.625 -0.0676,0.97918 0.42523,2.61048 1.53125,3.3125 0.99174,0.62948 1.67203,0.57813 2.125,0.5625 0.0528,0.51099 0.0937,1.07229 0.125,1.84375 0.0784,1.93517 0.0757,4.47737 0,6.9375 -0.0307,0.99811 -0.10404,1.69353 -0.15625,2.625 -0.91004,-1.85986 -1.67,-3.9678 -2.25,-6.03125 -0.59154,-2.1045 -1.04151,-4.10474 -1.46875,-5.78125 -0.21362,-0.83826 -0.43255,-1.58476 -0.6875,-2.28125 -0.25495,-0.69649 -0.39408,-1.37234 -1.40625,-2.21875 -0.96037,-0.8031 -1.87866,-0.87484 -2.59375,-0.875 -0.71509,-1.6e-4 -1.35133,0.1225 -2,0.28125 -1.29734,0.3175 -2.61815,0.85626 -3.90625,1.46875 -1.2881,0.61249 -2.4989,1.2871 -3.5,2.03125 -0.50055,0.37208 -0.93671,0.74354 -1.375,1.28125 -0.43829,0.53771 -1.20522,1.46686 -0.75,3.0625 1.76056,6.17124 3.67635,14.56192 6.625,22.46875 2.94865,7.90683 6.88963,15.47716 13.34375,19.84375 2.65319,1.79504 5.91337,2.34391 8.84375,2.53125 1.46519,0.0937 2.85011,0.0639 4.03125,-0.0625 1.18114,-0.12637 1.98781,-0.0159 3.375,-1.0625 1.15314,-0.87005 1.18849,-1.61749 1.34375,-2.21875 0.15526,-0.60126 0.21577,-1.16193 0.28125,-1.78125 0.13096,-1.23864 0.21012,-2.64717 0.3125,-4 0.0627,-0.82845 0.17984,-1.42937 0.28125,-2.125 0.74767,0.99356 1.54178,2.11513 2.46875,3.5 0.58261,0.87041 1.197436,1.759 1.8125,2.625 0.615064,0.866 1.230365,1.70941 1.875,2.46875 1.28927,1.51869 2.49915,3.1624 5.15625,3.1875 5.97618,0.0565 10.68929,0.77167 14.65625,0.3125 0.49587,-0.0574 1.008497,-0.13613 1.5,-0.25 0.245751,-0.0569 0.477624,-0.11305 0.71875,-0.1875 1.205632,-0.37223 2.336656,-0.9889 3.25,-1.96875 0.913344,-0.97985 1.46348,-2.19089 1.75,-3.5625 0.0573,-0.27432 0.119715,-0.55754 0.15625,-0.84375 0.07307,-0.57243 0.09515,-1.16881 0.09375,-1.78125 -7.5e-4,-0.33171 -0.0133,-0.62142 -0.0625,-0.90625 -0.147588,-0.85449 -0.502183,-1.5498 -0.875,-2.28125 -0.49709,-0.97527 -1.13211,-1.99175 -1.875,-3.0625 -1.48578,-2.14151 -3.38304,-4.51306 -5.28125,-6.84375 -1.89821,-2.33069 -3.78642,-4.61849 -5.1875,-6.4375 -0.70054,-0.9095 -1.28581,-1.69994 -1.65625,-2.28125 -0.23271,-0.36518 -0.212,-0.27724 -0.25,-0.34375 -0.005,0.0274 0.005,-0.0529 0,-0.0312 0.0484,-0.26017 0.11782,-0.72635 0.3125,-1.21875 0.39873,-1.00853 1.03517,-2.39973 1.8125,-4 1.55467,-3.20054 3.6713,-7.26875 5.6875,-11.375 2.0162,-4.10625 3.94989,-8.22768 5.15625,-11.75 0.60318,-1.76116 1.04637,-3.37877 1.1875,-4.90625 0.14113,-1.52748 0.092,-3.29925 -1.40625,-4.6875 -1.13243,-1.04926 -2.20642,-1.08137 -3.15625,-1.125 -0.47492,-0.0218 -0.95228,-0.0327 -1.4375,0 z m 1.28125,3.65625 c 0.55965,0.0257 0.85991,0.20018 0.8125,0.15625 0.1421,0.13166 0.34454,0.63303 0.25,1.65625 -0.0945,1.02322 -0.44935,2.42346 -1,4.03125 -1.1013,3.21558 -2.97784,7.289 -4.96875,11.34375 -1.99091,4.05475 -4.09571,8.09802 -5.6875,11.375 -0.7959,1.63849 -1.47374,3.10824 -1.9375,4.28125 -0.46376,1.17301 -0.81861,1.92128 -0.6875,2.875 0.0991,0.72062 0.46399,1.28819 0.9375,2.03125 0.47351,0.74306 1.07686,1.60742 1.8125,2.5625 1.47129,1.91016 3.39917,4.18912 5.28125,6.5 1.88208,2.31088 3.72147,4.64709 5.09375,6.625 0.68614,0.98896 1.24933,1.88796 1.625,2.625 0.37567,0.73705 0.53082,1.33762 0.53125,1.53125 0.004,1.92016 -0.39687,3.00693 -1.03125,3.6875 -0.63438,0.68058 -1.61569,1.07168 -3.15625,1.25 -3.08112,0.35663 -7.99725,-0.28498 -14.21875,-0.34375 -0.27199,-0.003 -1.29671,-0.63608 -2.375,-1.90625 -1.07829,-1.27016 -2.27852,-3.01851 -3.4375,-4.75 -1.15898,-1.73149 -2.28754,-3.44863 -3.34375,-4.71875 -0.5281,-0.63506 -1.03708,-1.14827 -1.59375,-1.53125 -0.55667,-0.38297 -1.31061,-0.66271 -2.0625,-0.34375 -1.18182,0.50136 -1.59778,1.6703 -1.90625,2.90625 -0.30847,1.23595 -0.4548,2.67065 -0.5625,4.09375 -0.1077,1.4231 -0.20056,2.84749 -0.3125,3.90625 -0.056,0.52938 -0.11357,0.96369 -0.1875,1.25 -0.0329,0.12747 -0.07155,0.17983 -0.09375,0.21875 -0.083,0.012 -0.65543,0.22549 -1.46875,0.3125 -0.92027,0.0985 -2.10345,0.11259 -3.375,0.0312 -2.54309,-0.16258 -5.39638,-0.76891 -7.03125,-1.875 -5.35229,-3.62114 -9.13703,-10.50046 -11.96875,-18.09375 -2.79858,-7.50442 -4.68101,-15.63419 -6.46875,-21.9375 0.11599,-0.1423 0.36574,-0.39384 0.71875,-0.65625 0.70603,-0.52481 1.76076,-1.12643 2.875,-1.65625 1.11424,-0.52982 2.29344,-0.9923 3.21875,-1.21875 0.46266,-0.11322 0.86496,-0.15631 1.125,-0.15625 0.13002,3e-5 0.20788,0.0212 0.25,0.0312 -0.0245,-0.006 0.15748,0.20152 0.3125,0.625 0.17224,0.47054 0.36114,1.14734 0.5625,1.9375 0.40273,1.58033 0.84261,3.64741 1.46875,5.875 1.25228,4.45518 3.13043,9.55092 6.84375,12.5625 0.21026,0.17052 0.67101,0.3291 1.03125,0.21875 0.36024,-0.11034 0.52071,-0.31994 0.625,-0.46875 0.20858,-0.29761 0.26827,-0.53242 0.34375,-0.8125 0.15096,-0.56017 0.27235,-1.2848 0.375,-2.1875 0.2053,-1.8054 0.35964,-4.28157 0.4375,-6.8125 0.0779,-2.53093 0.0839,-5.11844 0,-7.1875 -0.0419,-1.03453 -0.12383,-1.93931 -0.21875,-2.65625 -0.0475,-0.35847 -0.0828,-0.65728 -0.15625,-0.9375 -0.0735,-0.28022 -0.11786,-0.54454 -0.40625,-0.875 -0.45632,-0.52288 -1.08191,-0.75823 -1.59375,-0.84375 -0.51184,-0.0855 -0.93985,-0.0628 -1.25,-0.0625 -0.14098,1.4e-4 -0.0945,0.009 -0.15625,0 0.0973,-1.07454 0.71423,-2.09904 1.8125,-3.0625 1.12136,-0.98371 2.70247,-1.83717 4.375,-2.46875 1.67253,-0.63158 3.44624,-1.0498 4.96875,-1.1875 1.33802,-0.12101 2.31829,0.089 2.9375,0.3125 0.009,0.14199 0.02765,0.24087 0.03125,0.4375 0.0137,0.72942 0.0089,1.80289 -0.03125,3.0625 -0.0803,2.51922 -0.24891,5.84339 -0.3125,9.125 -0.0636,3.28161 -0.0309,6.49393 0.25,8.90625 0.14046,1.20616 0.3222,2.20396 0.6875,3 0.18265,0.39802 0.40168,0.78162 0.8125,1.0625 0.41082,0.28088 1.05764,0.35267 1.53125,0.1875 0.88436,-0.30842 1.39123,-1.00227 1.96875,-1.875 0.57752,-0.87272 1.16908,-1.99157 1.75,-3.28125 1.16185,-2.57935 2.3422,-5.87733 3.46875,-9.21875 1.12655,-3.34142 2.18916,-6.70629 3.0625,-9.4375 0.84781,-2.65139 1.53016,-4.70443 1.8125,-5.28125 0.10183,-0.0597 0.28399,-0.11655 0.5,-0.21875 0.46496,-0.21997 1.1237,-0.52953 1.9375,-0.84375 1.6276,-0.62844 3.81235,-1.37437 6.03125,-2.03125 2.2189,-0.65687 4.48358,-1.19787 6.28125,-1.46875 0.89883,-0.13544 1.69035,-0.21321 2.25,-0.1875 z"
         style="font-size:medium;font-style:normal;font-variant:normal;font-weight:normal;font-stretch:normal;text-indent:0;text-align:start;text-decoration:none;line-height:normal;letter-spacing:normal;word-spacing:normal;text-transform:none;direction:ltr;block-progression:tb;writing-mode:lr-tb;text-anchor:start;baseline-shift:baseline;color:#000000;fill:#303030;fill-opacity:1;fill-rule:nonzero;stroke:none;stroke-width:5.3521409;marker:none;visibility:visible;display:inline;overflow:visible;enable-background:accumulate;font-family:Sans;-inkscape-font-specification:Sans"
         inkscape:connector-curvature="0" />
    </g>
  </g>
</svg>
