<?xml version="1.0" encoding="UTF-8" standalone="no"?>
<!-- Created with Inkscape (http://www.inkscape.org/) -->

<svg
   xmlns:dc="http://purl.org/dc/elements/1.1/"
   xmlns:cc="http://creativecommons.org/ns#"
   xmlns:rdf="http://www.w3.org/1999/02/22-rdf-syntax-ns#"
   xmlns:svg="http://www.w3.org/2000/svg"
   xmlns="http://www.w3.org/2000/svg"
   xmlns:xlink="http://www.w3.org/1999/xlink"
   xmlns:sodipodi="http://sodipodi.sourceforge.net/DTD/sodipodi-0.dtd"
   xmlns:inkscape="http://www.inkscape.org/namespaces/inkscape"
   id="svg2"
   version="1.1"
   inkscape:version="0.48.3.1 r9886"
   width="16"
   height="16"
   sodipodi:docname="im-vk.svg"
   inkscape:export-filename="C:\Users\Madnester\Desktop\vk_ico.png"
   inkscape:export-xdpi="90"
   inkscape:export-ydpi="90">
  <metadata
     id="metadata8">
    <rdf:RDF>
      <cc:Work
         rdf:about="">
        <dc:format>image/svg+xml</dc:format>
        <dc:type
           rdf:resource="http://purl.org/dc/dcmitype/StillImage" />
        <dc:title />
      </cc:Work>
    </rdf:RDF>
  </metadata>
  <defs
     id="defs6">
    <linearGradient
       id="linearGradient4101">
      <stop
         style="stop-color:#fbfbfb;stop-opacity:1;"
         offset="0"
         id="stop4103" />
      <stop
         style="stop-color:#c0c0c0;stop-opacity:1;"
         offset="1"
         id="stop4105" />
    </linearGradient>
    <linearGradient
       id="linearGradient4005">
      <stop
         style="stop-color:#bfcad3;stop-opacity:1;"
         offset="0"
         id="stop4007" />
      <stop
         style="stop-color:#eceff2;stop-opacity:0;"
         offset="1"
         id="stop4009" />
    </linearGradient>
    <linearGradient
       inkscape:collect="always"
       xlink:href="#linearGradient4101"
       id="linearGradient3134"
       gradientUnits="userSpaceOnUse"
       x1="432.46594"
       y1="176.12274"
       x2="432.46594"
       y2="46.576946" />
    <linearGradient
       inkscape:collect="always"
       xlink:href="#linearGradient4005"
       id="linearGradient3136"
       gradientUnits="userSpaceOnUse"
       gradientTransform="matrix(1.3090875,0,0,1.3090875,70.233799,-139.68278)"
       x1="268.91214"
       y1="177.47284"
       x2="271.80911"
       y2="207.31767" />
  </defs>
  <sodipodi:namedview
     pagecolor="#ffffff"
     bordercolor="#666666"
     borderopacity="1"
     objecttolerance="10"
     gridtolerance="10"
     guidetolerance="10"
     inkscape:pageopacity="0"
     inkscape:pageshadow="2"
     inkscape:window-width="1440"
     inkscape:window-height="848"
     id="namedview4"
     showgrid="false"
     inkscape:zoom="25.196993"
     inkscape:cx="16.130497"
     inkscape:cy="7.7703762"
     inkscape:window-x="-8"
     inkscape:window-y="-8"
     inkscape:window-maximized="1"
     inkscape:current-layer="svg2" />
  <path
     style="font-size:medium;font-style:normal;font-variant:normal;font-weight:normal;font-stretch:normal;text-indent:0;text-align:start;text-decoration:none;line-height:normal;letter-spacing:normal;word-spacing:normal;text-transform:none;direction:ltr;block-progression:tb;writing-mode:lr-tb;text-anchor:start;baseline-shift:baseline;opacity:0.07999998;color:#000000;fill:#000000;fill-opacity:1;fill-rule:nonzero;stroke:none;stroke-width:8;marker:none;visibility:visible;display:inline;overflow:visible;enable-background:accumulate;font-family:Sans;-inkscape-font-specification:Sans"
     d="m 6.4005225,3.6603096 c -0.3680904,0 -0.6922404,0.1406 -0.9290404,0.31609 -0.1184,0.0877 -0.21613,0.18433 -0.28833,0.29473 -0.0722,0.1104 -0.1388,0.24863 -0.0854,0.42501 0.0282,0.0933 0.12361,0.18245 0.19649,0.21144 0.0729,0.029 0.12446,0.0286 0.16872,0.0299 0.0885,0.003 0.16326,-0.003 0.25629,0 0.0391,0.001 0.0833,0.009 0.15378,0.14309 0.0705,0.13395 0.13455,0.38664 0.13455,0.75819 0,0.66022 0,1.00853 0,1.71927 0,0.20706 -0.0705,0.26226 -0.11533,0.28192 -0.0448,0.0197 -0.10764,0.0228 -0.19222,-0.0684 -0.14157,-0.1525 -0.89044,-1.00818 -1.85809,-3.22496 l -0.004,-0.009 -0.004,-0.006 c -0.13768,-0.27131 -0.3705,-0.4255 -0.57665,-0.49549 -0.20616,-0.07 -0.39406,-0.0705 -0.48909,-0.0705 l -0.0598,0 c -0.90101,7e-5 -0.71732,0.002 -1.90935005,0.002 -0.20869,0 -0.42789,0.023 -0.61082,0.18153 -0.0915,0.0793 -0.162,0.20081 -0.18154,0.33104 -0.0195,0.13023 0.005,0.26225 0.0555,0.39511 0.27832,0.73818 0.99133005,2.23848 1.88800005,3.71619 0.89666,1.4777104 1.94531,2.9217404 3.00925,3.5261004 1.8293904,1.03917 3.0799604,0.85002 3.7653104,0.85002 0.18129,0 0.36369,-0.0291 0.52325,-0.13241 0.15956,-0.10329 0.26984,-0.2804 0.31609,-0.48054 0.0503,-0.21758 0.0608,-0.50606 0.0961,-0.78595 0.0353,-0.2799 0.13539,-0.54102 0.13882,-0.54462 0.0498,-0.0521 0.2036005,-0.0497 0.2434805,-0.0278 0.10899,0.06 0.47631,0.43421 0.80944,0.80944 0.33313,0.37524 0.64385,0.75188 0.9504,0.944 0.115,0.0721 0.24339,0.12432 0.37162,0.16659 0.12824,0.0423 0.22953,0.0747 0.36521,0.0747 0.85124,0 1.77706,0.009 2.55007,0.009 0.16405,0 0.36906,-0.036 0.56384,-0.16659 0.19478,-0.13057 0.36101,-0.38998 0.34599,-0.70693 -0.0143,-0.30255 -0.17948,-0.56122 -0.38871,-0.84788 -0.20923,-0.28667 -0.48035,-0.5885 -0.75818,-0.8842 -0.55568,-0.5914 -1.16276,-1.1955204 -1.30494,-1.4202704 0.009,0.0142 -0.0261,-0.18266 0.0363,-0.32463 0.0636,-0.14475 0.24868,-0.42311 0.48268,-0.73896 0.23399,-0.31586 0.518,-0.67931 0.79235,-1.04865 0.27435,-0.36934 0.54017,-0.74284 0.73897,-1.09136 0.1988,-0.34853 0.347,-0.66079 0.3289,-0.98885 -0.009,-0.16214 -0.0438,-0.35437 -0.1794,-0.51898 -0.13557,-0.16461 -0.3684,-0.26483 -0.63645,-0.26483 l -2.38135,0 c -0.32516,0 -0.5579,0.0543 -0.72615,0.18794 -0.16824,0.13362 -0.22547,0.29747 -0.28191,0.41006 -0.17798,0.35503 -0.53807,1.11347 -0.93973,1.81324 -0.20083,0.34989 -0.41255,0.68361 -0.60868,0.93759 -0.1961301,0.25398 -0.3939605,0.41864 -0.4677305,0.44637 -0.0372,0.014 -0.0549,0.007 -0.0491,0.0107 0.006,0.004 -0.0384,-0.014 -0.0384,-0.20076 0,-0.68418 0.0427,-2.16268 0.0427,-2.91955 0,-0.43962 -0.2889,-0.74349 -0.57451,-0.87352 -0.28562,-0.13003 -0.57435,-0.14523 -0.73683,-0.14523 -0.56231,0 -1.20642,-0.004 -1.9478,-0.004 z"
     id="path4184"
     inkscape:export-filename="C:\Users\Madnester\Desktop\g4157.png"
     inkscape:export-xdpi="90"
     inkscape:export-ydpi="90"
     inkscape:connector-curvature="0" />
  <path
     style="font-size:medium;font-style:normal;font-variant:normal;font-weight:normal;font-stretch:normal;text-indent:0;text-align:start;text-decoration:none;line-height:normal;letter-spacing:normal;word-spacing:normal;text-transform:none;direction:ltr;block-progression:tb;writing-mode:lr-tb;text-anchor:start;baseline-shift:baseline;opacity:0.12000002;color:#000000;fill:#000000;fill-opacity:1;fill-rule:nonzero;stroke:none;stroke-width:6;marker:none;visibility:visible;display:inline;overflow:visible;enable-background:accumulate;font-family:Sans;-inkscape-font-specification:Sans"
     d="m 6.4005225,3.5919696 c -0.35,0 -0.6622804,0.13351 -0.8884604,0.30113 -0.11309,0.0838 -0.20501,0.17637 -0.27124,0.27765 -0.0662,0.10129 -0.12094,0.22391 -0.0769,0.36948 0.0226,0.0746 0.0966,0.14301 0.15591,0.16659 0.0593,0.0236 0.10431,0.0244 0.14523,0.0256 0.0818,0.002 0.15945,-0.003 0.25629,0 0.0665,0.002 0.1332,0.0308 0.21144,0.1794 0.0782,0.1486 0.1430904,0.41138 0.1430904,0.79022 0,0.66024 0,1.00855 0,1.71927 0,0.2264 -0.0828,0.31394 -0.1559104,0.34599 -0.0731,0.032 -0.17048,0.0231 -0.27124,-0.0854 -0.1468,-0.15813 -0.90065,-1.02144 -1.8709,-3.24418 l -0.002,-0.006 -0.002,-0.006 c -0.12886,-0.25394 -0.34413,-0.3933 -0.5382,-0.45918 -0.19408,-0.0659 -0.37431,-0.0684 -0.46773,-0.0684 l -0.0448,0 c -0.92572,7e-5 -0.72288,0.002 -1.92430005,0.002 -0.20046,0 -0.40482,0.0247 -0.56597,0.16445 -0.0806,0.0698 -0.14078,0.17538 -0.15804,0.29046 -0.0173,0.11508 0.004,0.2335 0.0512,0.3588 0.27539,0.73041 0.98940005,2.23166 1.88372005,3.70551 0.89433,1.4738504 1.9452,2.9127304 2.98363,3.5026104 1.8153304,1.03118 3.0337504,0.84148 3.7311304,0.84148 0.17373,0 0.34096,-0.0286 0.48482,-0.12174 0.14385,-0.0931 0.24496,-0.25018 0.28832,-0.43783 0.0471,-0.20386 0.0582,-0.49642 0.094,-0.77954 0.0358,-0.28312 0.12609,-0.5496 0.15805,-0.58306 0.0763,-0.0799 0.2580705,-0.0784 0.3267605,-0.0406 0.13569,0.0747 0.49326,0.44687 0.82653,0.82226 0.33328,0.37539 0.65036,0.75465 0.93546,0.93332 0.10657,0.0668 0.23427,0.11913 0.3588,0.16018 0.12453,0.041 0.22562,0.0705 0.34172,0.0705 0.85169,0 1.77756,0.009 2.55007,0.009 0.15116,0 0.34594,-0.0356 0.52539,-0.15591 0.17946,-0.1203 0.33009,-0.35176 0.31609,-0.64712 -0.013,-0.27363 -0.16972,-0.52912 -0.37589,-0.81159 -0.20616,-0.28246 -0.47479,-0.58299 -0.75178,-0.87778 -0.55398,-0.5896004 -1.15809,-1.1831904 -1.31348,-1.4288104 -0.013,-0.0206 -0.0379,-0.22951 0.032,-0.38871 0.0691,-0.15713 0.25641,-0.43483 0.49122,-0.75178 0.23481,-0.31694 0.51868,-0.68022 0.79236,-1.04864 0.27367,-0.36843 0.5363,-0.74089 0.73256,-1.08496 0.19625,-0.34406 0.33689,-0.6527 0.32036,-0.95254 -0.009,-0.15403 -0.0425,-0.33027 -0.16446,-0.4784 -0.122,-0.14814 -0.32934,-0.2392 -0.58305,-0.2392 l -2.38135,0 c -0.31758,0 -0.5319,0.0548 -0.68344,0.17513 -0.15153,0.12034 -0.20674,0.27069 -0.26483,0.38656 -0.17703,0.35316 -0.53839,1.11245 -0.94186,1.81538 -0.20173,0.35147 -0.41366,0.68806 -0.61295,0.94613 -0.1993,0.25808 -0.3980805,0.43031 -0.4976305,0.46773 -0.0514,0.0193 -0.0927,0.0166 -0.11106,0.004 -0.0184,-0.0124 -0.0683,-0.0588 -0.0683,-0.25842 0,-0.68693 0.0427,-2.16524 0.0427,-2.91956 0,-0.41401 -0.26365,-0.68853 -0.53393,-0.81158 -0.27028,-0.12305 -0.55241,-0.13882 -0.70907,-0.13882 -0.56265,0 -1.20668,-0.004 -1.94779,-0.004 z"
     id="path4188"
     inkscape:export-filename="C:\Users\Madnester\Desktop\g4157.png"
     inkscape:export-xdpi="90"
     inkscape:export-ydpi="90"
     inkscape:connector-curvature="0" />
  <path
     style="font-size:medium;font-style:normal;font-variant:normal;font-weight:normal;font-stretch:normal;text-indent:0;text-align:start;text-decoration:none;line-height:normal;letter-spacing:normal;word-spacing:normal;text-transform:none;direction:ltr;block-progression:tb;writing-mode:lr-tb;text-anchor:start;baseline-shift:baseline;opacity:0.2;color:#000000;fill:#000000;fill-opacity:1;fill-rule:nonzero;stroke:none;stroke-width:4;marker:none;visibility:visible;display:inline;overflow:visible;enable-background:accumulate;font-family:Sans;-inkscape-font-specification:Sans"
     d="m 6.4005225,3.5236196 c -0.33191,0 -0.6323204,0.12857 -0.8478804,0.28833 -0.10779,0.0799 -0.19388,0.16839 -0.25416,0.26056 -0.0603,0.0922 -0.10307,0.19491 -0.0683,0.30968 0.0169,0.0558 0.0697,0.10784 0.11533,0.12601 0.0457,0.0182 0.0842,0.0181 0.12174,0.0192 0.0751,0.002 0.15564,-0.003 0.25628,0 0.0939,0.003 0.18529,0.0525 0.27124,0.21571 0.086,0.16324 0.1495004,0.43611 0.1495004,0.82226 0,0.66025 0,1.00856 0,1.71927 0,0.24572 -0.0951,0.36348 -0.1964804,0.40792 -0.10142,0.0444 -0.23119,0.0256 -0.34813,-0.10038 -0.15203,-0.16376 -0.91087,-1.03684 -1.88372,-3.26554 l -0.002,-0.002 -0.002,-0.004 c -0.12006,-0.23658 -0.31563,-0.36537 -0.49763,-0.42715 -0.182,-0.0618 -0.35455,-0.0641 -0.44637,-0.0641 l -0.0299,0 c -0.95101,4e-5 -0.72845,0.002 -1.93925005,0.002 -0.19223,0 -0.38174,0.0265 -0.52112,0.14736 -0.0697,0.0604 -0.11956,0.14996 -0.13455,0.24989 -0.015,0.0999 0.003,0.20689 0.047,0.32463 0.27246,0.72265 0.98533005,2.22483 1.87731005,3.69482 0.89198,1.46999 1.94721,2.9037404 2.96013,3.4791204 1.8012804,1.0232 2.9875404,0.8308 3.6969604,0.8308 0.16616,0 0.32035,-0.026 0.44851,-0.10892 0.12815,-0.083 0.21795,-0.2221 0.25842,-0.39725 0.0439,-0.19014 0.0578,-0.48679 0.094,-0.77313 0.0362,-0.28635 0.11465,-0.55819 0.17513,-0.6215 0.1028,-0.10761 0.3104305,-0.10706 0.4079305,-0.0534 0.16238,0.0894 0.51234,0.46166 0.84575,0.83721 0.33342,0.37555 0.65686,0.75528 0.92051,0.9205 0.0981,0.0615 0.22302,0.11182 0.34385,0.15164 0.12082,0.0398 0.22385,0.0683 0.32036,0.0683 0.85214,0 1.77806,0.009 2.55007,0.009 0.13827,0 0.32282,-0.0331 0.48695,-0.1431 0.16413,-0.11002 0.29917,-0.31354 0.28619,-0.58732 -0.0116,-0.2447 -0.15998,-0.49701 -0.36308,-0.77528 -0.2031,-0.27827 -0.46923,-0.57748 -0.74537,-0.87138 -0.55229,-0.5877904 -1.15343,-1.1729904 -1.32202,-1.4394804 -0.035,-0.0554 -0.0498,-0.27422 0.0278,-0.45065 0.0745,-0.1695 0.26201,-0.44868 0.49763,-0.76673 0.23562,-0.31804 0.51936,-0.68112 0.79236,-1.04864 0.273,-0.36752 0.53458,-0.73895 0.72828,-1.07855 0.19371,-0.3396 0.3268,-0.64249 0.31182,-0.9141 -0.008,-0.14593 -0.0411,-0.30616 -0.1495,-0.43782 -0.10844,-0.13166 -0.29028,-0.21571 -0.52967,-0.21571 l -2.38135,0 c -0.30999,0 -0.5059,0.0531 -0.64072,0.16018 -0.13482,0.10707 -0.18587,0.24392 -0.24561,0.36307 -0.1761,0.35128 -0.53871,1.11357 -0.94399,1.81965 -0.20264,0.35305 -0.41477,0.69037 -0.61723,0.95254 -0.20246,0.26217 -0.4022001,0.4441 -0.5275305,0.49122 -0.0656,0.0247 -0.13259,0.0243 -0.17513,-0.004 -0.0425,-0.0286 -0.0982,-0.10144 -0.0982,-0.31395 0,-0.68968 0.0427,-2.1678 0.0427,-2.91956 0,-0.38841 -0.24055,-0.63357 -0.49549,-0.74964 -0.25494,-0.11607 -0.52833,-0.13242 -0.67916,-0.13242 -0.563,0 -1.20695,-0.004 -1.9478,-0.004 z"
     id="path4192"
     inkscape:export-filename="C:\Users\Madnester\Desktop\g4157.png"
     inkscape:export-xdpi="90"
     inkscape:export-ydpi="90"
     inkscape:connector-curvature="0" />
  <path
     style="font-size:medium;font-style:normal;font-variant:normal;font-weight:normal;font-stretch:normal;text-indent:0;text-align:start;text-decoration:none;line-height:normal;letter-spacing:normal;word-spacing:normal;text-transform:none;direction:ltr;block-progression:tb;writing-mode:lr-tb;text-anchor:start;baseline-shift:baseline;opacity:0.3;color:#000000;fill:#000000;fill-opacity:1;fill-rule:nonzero;stroke:none;stroke-width:0;marker:none;visibility:visible;display:inline;overflow:visible;enable-background:accumulate;font-family:Sans;-inkscape-font-specification:Sans"
     d="m 6.4005225,3.4552796 c -0.31382,0 -0.6023604,0.12363 -0.8073104,0.27551 -0.10247,0.0759 -0.18275,0.15828 -0.23706,0.24134 -0.0543,0.0831 -0.0873,0.17018 -0.0619,0.25415 0.0112,0.0371 0.0448,0.0684 0.0769,0.0812 0.0321,0.0128 0.064,0.014 0.0982,0.0149 0.0684,0.002 0.1497,-0.003 0.25415,0 0.12124,0.003 0.23738,0.0741 0.3310404,0.25202 0.0937,0.17788 0.15805,0.46084 0.15805,0.85429 0,0.66027 0,1.00857 0,1.71927 0,0.26506 -0.1095,0.41302 -0.2392004,0.46986 -0.12971,0.0568 -0.2919,0.0259 -0.42502,-0.11746 -0.15725,-0.1694 -0.91894,-1.04797 -1.8944,-3.28263 l -0.002,-0.002 0,-0.002 c -0.11124,-0.21921 -0.2914,-0.33529 -0.46132,-0.39297 -0.16991,-0.0577 -0.33266,-0.0598 -0.42287,-0.0598 l -0.0149,0 c -0.9769,2e-5 -0.73401,0.002 -1.95420005,0.002 -0.18399,0 -0.35867,0.0283 -0.47627,0.13028 -0.0588,0.051 -0.10048,0.12239 -0.1132,0.20716 -0.0127,0.0848 0.003,0.18243 0.0448,0.2926 0.26954,0.71489 0.98127005,2.21588 1.87091005,3.68201 0.88964,1.46613 1.94923,2.8947404 2.93664,3.4556304 1.7872204,1.01521 2.9413304,0.82225 3.6627904,0.82225 0.15858,0 0.29974,-0.0254 0.4122,-0.0982 0.11245,-0.0728 0.19093,-0.19401 0.22852,-0.35667 0.0408,-0.17643 0.0553,-0.47501 0.0918,-0.76459 0.0366,-0.28958 0.10321,-0.56677 0.19221,-0.65994 0.12929,-0.13534 0.3670505,-0.13573 0.4933605,-0.0662 0.18907,0.10406 0.52928,0.47645 0.86284,0.85216 0.33355,0.3757 0.66123,0.75591 0.90341,0.90769 0.0897,0.0562 0.21392,0.10662 0.33104,0.14523 0.11712,0.0386 0.22208,0.0641 0.29901,0.0641 0.85259,0 1.77856,0.009 2.55007,0.009 0.12537,0 0.2997,-0.0327 0.4485,-0.13241 0.14881,-0.0998 0.26825,-0.27532 0.25629,-0.52753 -0.0102,-0.21577 -0.15022,-0.46276 -0.35026,-0.73683 -0.20004,-0.27407 -0.46367,-0.57198 -0.73897,-0.86498 -0.55059,-0.5859804 -1.14876,-1.1627904 -1.33056,-1.4501604 -0.057,-0.0901 -0.0637,-0.32105 0.0214,-0.51471 0.0799,-0.18189 0.26974,-0.46041 0.50617,-0.77955 0.23642,-0.31913 0.52003,-0.68204 0.79236,-1.04865 0.27232,-0.36661 0.53285,-0.737 0.72401,-1.07214 0.19116,-0.33513 0.3167,-0.63227 0.30328,-0.87565 -0.008,-0.13783 -0.0376,-0.28419 -0.13242,-0.39938 -0.0949,-0.11519 -0.25335,-0.19008 -0.47841,-0.19008 l -2.38135,0 c -0.30241,0 -0.4799,0.0514 -0.598,0.14523 -0.11811,0.0938 -0.16501,0.21714 -0.22639,0.33958 -0.17516,0.3494 -0.53904,1.11467 -0.94613,1.82392 -0.20355,0.35462 -0.41802,0.69481 -0.62364,0.96108 -0.20562,0.26627 -0.4063201,0.45577 -0.5574305,0.51258 -0.0798,0.03 -0.17039,0.0342 -0.23706,-0.0107 -0.0667,-0.0448 -0.12815,-0.14623 -0.12815,-0.37162 0,-0.69243 0.0427,-2.17035 0.0427,-2.91955 0,-0.36282 -0.21531,-0.57863 -0.45491,-0.68771 -0.23961,-0.10909 -0.5064,-0.12601 -0.6514,-0.12601 -0.56334,0 -1.20721,-0.004 -1.9478,-0.004 z"
     id="path4196"
     inkscape:export-filename="C:\Users\Madnester\Desktop\g4157.png"
     inkscape:export-xdpi="90"
     inkscape:export-ydpi="90"
     inkscape:connector-curvature="0" />
  <g
     id="g4157"
     inkscape:export-xdpi="90"
     inkscape:export-ydpi="90"
     transform="matrix(0.0683436,0,0,0.0683436,-21.188936,0.2388596)">
    <path
       style="fill:#9a9a9a;fill-opacity:1;stroke:none"
       d="m 350.53917,52.577615 c -14.68142,0 -10.82965,0.02116 -28.82074,0.02116 -5.14335,0 -9.31203,1.877491 -7.048,7.941666 7.80209,20.897682 41.75839,88.803469 69.90711,104.950939 25.94493,14.88325 42.38359,12.01956 53.1161,12.01956 4.41925,0 7.36446,-1.48309 8.37989,-5.92077 1.10034,-4.80865 0.99491,-17.8926 4.43432,-21.52863 2.2793,-2.40958 6.13327,-2.42303 8.40301,-1.16144 6.31411,3.5096 19.45767,21.9264 25.91703,26.01439 2.37897,1.50561 6.98853,2.96245 8.66659,2.96245 12.48172,0 26.04353,0.12545 37.32481,0.12545 3.29179,0 9.61807,-1.88092 9.29814,-8.69667 -0.51838,-11.0435 -29.5318,-35.49575 -35.23842,-44.60514 -1.15613,-1.8455 -1.10654,-5.45444 0.24961,-8.57066 4.99678,-11.48176 34.64396,-42.612402 33.94936,-55.329255 -0.2094,-3.833799 -1.77978,-7.751388 -7.94635,-7.751388 -8.68983,0 -24.89404,0 -34.86248,0 -8.62765,0 -9.32584,2.901532 -11.17023,6.617038 -5.09836,10.270556 -21.30518,45.276855 -31.65816,49.207405 -2.74914,1.04372 -6.68973,0.43333 -6.68973,-6.60808 0,-10.272108 0.61332,-32.083471 0.61332,-43.116138 0,-9.965648 -11.08933,-11.017597 -15.16221,-11.017597 -8.2478,0 -17.67664,-0.06307 -28.50899,-0.06307 -8.65422,0 -16.1712,6.940706 -15.22962,10.083121 0.32436,1.082474 2.19236,0.601408 5.36043,0.693222 4.34916,0.125988 8.10804,5.521265 8.10804,17.364654 0,9.756545 -0.003,14.891029 -0.003,25.392368 0,8.40463 -7.06264,10.67105 -11.43162,5.91826 -2.37747,-2.58632 -13.61423,-15.685038 -27.92516,-48.793456 -2.99746,-5.965064 -9.43997,-6.14947 -12.03291,-6.149457 z"
       id="path4053"
       inkscape:connector-curvature="0"
       sodipodi:nodetypes="csssssssssssssssssssssssssssccc" />
    <path
       sodipodi:nodetypes="csssssssssssssssssssssssssssccc"
       inkscape:connector-curvature="0"
       id="path3233"
       d="m 350.53917,50.533546 c -14.68142,0 -10.82965,0.02095 -28.82074,0.02095 -5.14335,0 -9.31203,1.85914 -7.048,7.864042 7.80209,20.693426 41.75839,87.935502 69.90711,103.925132 25.94493,14.73778 42.38359,11.90208 53.1161,11.90208 4.41925,0 7.36446,-1.46859 8.37989,-5.8629 1.10034,-4.76165 0.99491,-17.71771 4.43432,-21.31819 2.2793,-2.38604 6.13327,-2.39936 8.40301,-1.1501 6.31411,3.47529 19.45767,21.71209 25.91703,25.76013 2.37897,1.49088 6.98853,2.93348 8.66659,2.93348 12.48172,0 26.04353,0.12423 37.32481,0.12423 3.29179,0 9.61807,-1.86254 9.29814,-8.61167 -0.51838,-10.93556 -29.5318,-35.14881 -35.23842,-44.16916 -1.15613,-1.82746 -1.10654,-5.40113 0.24961,-8.48689 4.99678,-11.36954 34.64396,-42.195904 33.94936,-54.788461 -0.2094,-3.796327 -1.77978,-7.675624 -7.94635,-7.675624 -8.68983,0 -24.89404,0 -34.86248,0 -8.62765,0 -9.32584,2.873172 -11.17023,6.552362 -5.09836,10.170169 -21.30518,44.834313 -31.65816,48.726443 -2.74914,1.03352 -6.68973,0.4291 -6.68973,-6.543483 0,-10.171715 0.61332,-31.76989 0.61332,-42.694722 0,-9.868242 -11.08933,-10.909908 -15.16221,-10.909908 -8.2478,0 -17.67664,-0.06245 -28.50899,-0.06245 -8.65422,0 -16.1712,6.872866 -15.22962,9.984567 0.32436,1.071894 2.19236,0.59553 5.36043,0.686446 4.34916,0.124757 8.10804,5.467299 8.10804,17.194929 0,9.661183 -0.003,14.745482 -0.003,25.144179 0,8.322482 -7.06264,10.566752 -11.43162,5.860412 -2.37747,-2.56104 -13.61423,-15.531727 -27.92516,-48.316539 -2.99746,-5.906759 -9.43997,-6.089364 -12.03291,-6.089351 z"
       style="fill:#e5eaed;fill-opacity:1;stroke:url(#linearGradient3134)" />
    <path
       inkscape:connector-curvature="0"
       id="path3896"
       d="m 442.01463,91.657506 c -12.34597,0.157117 -24.42037,0.842777 -36.16355,2.00454 l 0,8.018164 c 0,5.27216 -2.48547,9.6882 -6.42271,11.4136 -3.93723,1.72541 -8.70855,0.49099 -11.82269,-2.86363 -1.30437,-1.40509 -4.71449,-5.3373 -9.5318,-12.804507 -12.87907,2.211493 -25.21458,4.963277 -36.85899,8.304527 1.34975,2.33321 2.7175,4.66464 4.13181,6.99543 12.84837,21.17415 28.54614,41.64239 41.15444,48.80442 25.13736,14.27904 39.75286,11.4136 51.17713,11.4136 1.77459,0 2.8412,-0.32221 3.35454,-0.65454 0.51334,-0.33233 0.88547,-0.68903 1.22727,-2.16818 0.36805,-1.5927 0.70364,-6.24844 1.26818,-10.71815 0.56453,-4.4697 0.77302,-8.92025 4.13181,-12.43633 3.80161,-3.97962 9.2065,-4.04229 13.13177,-1.88181 4.69085,2.58183 9.05937,7.99131 13.94997,13.49996 4.89061,5.50865 10.19421,11.14412 12.19088,12.39542 0.70531,0.44202 2.27605,1.1186 3.72271,1.59545 1.44667,0.47685 3.1091,0.73637 2.82273,0.73637 12.50778,0 26.09744,0.12265 37.3499,0.12265 0.90519,0 2.73211,-0.38561 3.80453,-1.10454 1.07242,-0.71892 1.65574,-1.26088 1.55455,-3.39544 -0.0508,-1.07161 -1.46676,-4.43344 -4.17272,-8.14089 -2.70597,-3.70745 -6.46471,-7.92785 -10.43179,-12.14997 -7.93419,-8.44424 -16.39231,-16.2584 -20.0045,-21.96812 -2.41991,-3.82522 -1.83224,-8.11492 -0.0409,-12.19088 1.56174,-3.55354 4.41853,-7.56519 7.93634,-12.3136 1.25546,-1.69467 2.62868,-3.54336 4.00907,-5.359078 -13.13225,-2.126874 -26.80733,-3.636919 -40.90897,-4.459079 -2.42576,4.031401 -4.93335,7.874197 -7.44544,11.127247 -3.23676,4.19145 -6.23938,7.55182 -10.30907,9.08179 -2.18915,0.823 -5.22051,1.17159 -7.93634,-0.65454 -2.71581,-1.82614 -4.04998,-5.34658 -4.04998,-9.57271 0,-2.845232 0.0553,-6.587834 0.12266,-10.677239 -0.31401,0.0039 -0.62724,-0.0039 -0.94091,0 z"
       style="fill:url(#linearGradient3136);fill-opacity:1;stroke:none" />
  </g>
</svg>
