<svg xmlns="http://www.w3.org/2000/svg" viewBox="0 0 256 256">
<defs>
<linearGradient id="linearGradient7374">
<stop offset="0" stop-color="#e2e7eb"/>
<stop offset=".5" stop-color="#bcccd7"/>
<stop offset="1" stop-color="#dcecfc"/>
</linearGradient>
<linearGradient xlink:href="#linearGradient7374" id="linearGradient3971" y1="55.855" x1="118.274" y2="207.171" x2="151.77" gradientUnits="userSpaceOnUse"/>
</defs>
<path fill="url(#linearGradient3971)" d="m47.7134,59.1245c-15.3249,0-11.3043,.0172-30.084,.0172c-5.3688,0-9.7202,2.1811-7.3569,9.2431c8.1441,24.3367 43.5888,103.4152 72.9713,122.2193c27.0822,17.3319 44.2414,13.9977 55.4443,13.9977c4.6129,0 7.6873-1.7289 8.7472-6.8891c1.1486-5.5991 1.0385-20.8376 4.6287-25.0708c2.3792-2.8062 6.4021-2.8195 8.7713-1.3565c6.5909,4.0829 20.3105,25.5336 27.053,30.2935c2.4832,1.7555 7.2948,3.4446 9.0465,3.4446c13.0288,0 27.1851,.1329 38.9608,.1329c3.4361,0 10.0397-2.1944 9.7057-10.1342c-.5411-12.8606-30.8262-41.336-36.783-51.945c-1.2067-2.1545-1.1551-6.3571 .2605-9.9746c5.2158-13.3713 36.1625-49.6243 35.4375-64.4332c-.2186-4.4686-1.8578-9.0303-8.2946-9.0303c-9.0707,0-25.9852,0-36.3906,0c-9.0058,0-9.7346,3.3781-11.6599,7.7004c-5.3218,11.9562-22.239,52.7257-33.0458,57.3034c-2.8697,1.1969-6.9829,.532-6.9829-7.7004c0-11.9695 .6402-37.3622 .6402-50.2108c0-11.6104-11.5754-12.834-15.8268-12.834c-8.6093,0-18.4514-.0692-29.7586-.0692c-9.0336,0-16.88,8.0861-15.8972,11.7434c.3386,1.197 2.2885,.665 5.5954,.798c4.5398,.133 8.4634,6.4236 8.4634,20.2218c0,11.3577-.003,17.3412-.003,29.57c0,9.7884-7.3722,12.4217-11.9327,6.8891c-2.4815-3.0057-14.2108-18.2655-29.149-56.8219c-3.1288-6.9423-9.8537-7.1551-12.5603-7.1551z"/>
<path direction="ltr" fill="#303030" block-progression="tb" color="#000000" d="m103.1875,43.8438c-7.5005,0-13.5995,3.0591-18.0938,6.8125c-2.2471,1.8767-4.1597,3.953-5.6562,6.5312c-1.4965,2.5782-3.1321,5.942-1.7812,10.9688a10.001,10.001 0 0,0 .0312,.125c.8217,2.9049 3.9099,6.0939 6.25,7.0938c2.3401,.9999 3.7006,.9652 4.6875,1c.7004,.0247 .8993,.0063 1.375,0c.5933,1.6047 1.3438,4.8895 1.3438,10.2188c0,8.2589 .0009,14.4547 0,21.5c-4.9751-7.9421-12.5092-21.6177-21.75-45.4688a10.001,10.001 0 0,0 -.1875-.5c-2.6514-5.883-7.6785-9.7552-12-11.4062c-4.3215-1.651-8.0721-1.6562-9.6875-1.6562a10.001,10.001 0 0,0 -1,.0625c-13.6244,.0011-10.944,.0312-29.0938,.0312c-4.0386,0-9.0495,.409-13.5625,4.8125c-4.513,4.4035-5.1474,12.0174-3.2812,17.5938c4.4231,13.2175 15.3719,39.0404 29.2188,64.75c13.8468,25.7096 29.3295,50.8701 47.8438,62.7188c29.1879,18.6795 51.6249,15.5625 60.8438,15.5625c3.5558,0 7.8099-.6477 11.5938-3.4062c3.7839-2.7585 6.0684-7.2377 6.9375-11.4688c.9458-4.6105 1.0449-9.32 1.5625-13.9375c.1019-.9091 .2541-1.4891 .375-2.3125c.1014,.1133 .0857,.0708 .1875,.1875c2.0777,2.3834 4.5548,5.4967 7.0938,8.7188c5.0778,6.4442 9.145,12.7563 15.6875,17.375c2.4932,1.7626 4.7726,2.7339 7.0938,3.5938c2.3211,.8598 3.6287,1.6875 7.7188,1.6875c12.9608,0 27.1178,.125 38.9688,.125c3.8468,0 8.0036-.8915 12.2812-4.125c4.2776-3.2335 7.6912-9.6639 7.4062-16.4375c-.2935-6.9747-3.3453-11.8069-6.75-17.0625c-3.4047-5.2556-7.6316-10.5555-11.9375-15.7188c-8.1256-9.7432-16.5189-19.537-18.5938-22.625c.1296-.1793-.228-1.6153 .0938-2.4375c1.2865-3.2981 10.4957-16.9613 18.9688-29.8125c4.2365-6.4256 8.3638-12.9944 11.5625-19.3125c3.1987-6.3181 5.9234-12.0658 5.5625-19.4375c-.1608-3.2868-.6879-7.478-3.7188-11.625c-3.0309-4.147-8.9818-6.9375-14.5625-6.9375h-36.375c-5.7532,0-11.233,1.2729-15.1562,4.7812c-3.9233,3.5084-4.8968,7.1699-5.6562,8.875c-2.7773,6.2395-8.2311,19.1229-14.25,30.9375c-2.175,4.2694-4.37,8.1429-6.5,11.625c.1717-12.8091 .5-28.8559 .5-39.125c0-9.1285-5.9613-16.6866-11.75-19.6562c-5.7887-2.9696-10.9775-3.1562-14.0625-3.1562c-8.5557,0-18.4333-.0625-29.7812-.0625zm0,16c11.2846,0 21.1424,.0625 29.7812,.0625c1.5345,0 4.7791,.3639 6.75,1.375c2.1314,1.0934 3.0625,1.5435 3.0625,5.4375c0,12.6528-.625,38.04-.625,50.2188c0,5.1162 1.332,9.5636 4.8125,12.1875c3.4934,2.6337 7.6981,2.2182 10.4688,1.0625v-.0312c4.9663-2.1037 8.2101-6.3613 11.625-11.3438c3.4377-5.0158 6.8117-11.0542 10-17.3125c6.3802-12.5237 12.0012-25.8943 14.5938-31.7188c1.0677-2.3972 1.6383-3.3935 1.6875-3.4375c.1535-.1372 .7522-.7188 4.5-.7188h36.375c1.8831,0 1.4079,.0352 1.6562,.375c.1309,.1791 .5793,1.396 .6562,2.9688c.0675,1.3794-1.196,6.1459-3.875,11.4375c-2.6887,5.3107-6.5594,11.505-10.6562,17.7188c-8.1882,12.4192-17.1289,24.1703-20.5,32.8125c-1.9164,4.8968-2.6416,10.2345 .0625,15.0625c3.9439,7.0241 12.8242,16.1528 21.0625,26.0312c4.1201,4.9404 8.041,9.9406 10.8125,14.2188c2.751,4.2466 4.1209,8.1916 4.1562,9.0312c.0998,2.3718-.2613,2.418-1.0312,3c-.6372,.4817-2.2654,.875-2.6562,.875c-11.632,0-25.6512-.1229-38.625-.125c-.1303-.0155-.4322-.062-.6875-.125c-.5106-.1262-1.1743-.3261-1.8125-.5625c-1.3196-.4888-2.9405-1.3362-3.4375-1.6875c-.6719-.4743-2.77-2.5171-5-5.125c-2.23-2.6079-4.7684-5.8339-7.3125-9.0625l-.0312-.0312c-2.5392-3.2225-5.1025-6.4905-7.5625-9.3125c-2.4479-2.8081-4.6565-5.2147-7.4375-6.9375c-4.8951-3.0226-12.0267-2.6824-16.5,2.5938c-1.9717,2.3249-2.7104,4.863-3.3125,7.3438c-.6114,2.5188-1.0148,5.219-1.3125,7.875c-.5926,5.2861-.9733,10.8464-1.3125,12.5c-.3325,1.6187-.5566,1.6546-.6875,1.75c-.0718,.0523-.6223,.3438-2.1875,.3438c-12.3817,0-26.3848,3.4706-52.2188-13.0625c-12.3624-7.9116-29.005-31.9882-42.375-56.8125c-13.3752-24.834-24.2659-50.718-28.125-62.25c-.2414-.7213-.1904-.7654-.2188-1.0312c.4367-.1222 1.0477-.2812 1.875-.2812c18.6883,0 14.8982-.0309 29.9375-.0312c.0534,.0017 .103-.0315 .1562-.0312c.0833,.0004 .167,.003 .25,0c.0104-.0004 .0209,.0004 .0312,0c1.2076,.0086 2.5162,.0837 3.6875,.5312c1.3061,.499 2.1704,1.0007 3.0938,3.0312v.0312c.0281,.0614 .0648,.0668 .0938,.125c15.0461,38.7196 27.0199,54.5286 29.9375,58.0625c3.6448,4.4217 9.8284,6.3639 14.9375,3.8438c5.0223-2.4773 7.5938-8.1464 7.5938-14.5625v-29.5625c0-7.4466-.9402-13.2389-3.0625-17.7812c-1.4604-3.1258-3.8278-5.7262-6.75-7.1875c1.7828-.9923 3.7519-1.7812 5.6562-1.7812z"/>
</svg>
