<?xml version="1.0" encoding="UTF-8" standalone="no"?>
<!-- Created with Inkscape (http://www.inkscape.org/) -->

<svg
   xmlns:dc="http://purl.org/dc/elements/1.1/"
   xmlns:cc="http://creativecommons.org/ns#"
   xmlns:rdf="http://www.w3.org/1999/02/22-rdf-syntax-ns#"
   xmlns:svg="http://www.w3.org/2000/svg"
   xmlns="http://www.w3.org/2000/svg"
   xmlns:xlink="http://www.w3.org/1999/xlink"
   xmlns:sodipodi="http://sodipodi.sourceforge.net/DTD/sodipodi-0.dtd"
   xmlns:inkscape="http://www.inkscape.org/namespaces/inkscape"
   id="svg2"
   version="1.1"
   inkscape:version="0.48.3.1 r9886"
   width="256"
   height="256"
   sodipodi:docname="im-vkontakte.svg"
   inkscape:export-filename="C:\Users\Madnester\Desktop\vk_ico.png"
   inkscape:export-xdpi="90"
   inkscape:export-ydpi="90">
  <metadata
     id="metadata8">
    <rdf:RDF>
      <cc:Work
         rdf:about="">
        <dc:format>image/svg+xml</dc:format>
        <dc:type
           rdf:resource="http://purl.org/dc/dcmitype/StillImage" />
        <dc:title />
      </cc:Work>
    </rdf:RDF>
  </metadata>
  <defs
     id="defs6">
    <linearGradient
       id="linearGradient7374">
      <stop
         id="stop7376"
         offset="0"
         style="stop-color:#e2e7eb;stop-opacity:1;" />
      <stop
         style="stop-color:#bcccd7;stop-opacity:1;"
         offset="0.5"
         id="stop7382" />
      <stop
         id="stop7378"
         offset="1"
         style="stop-color:#dcecfc;stop-opacity:1;" />
    </linearGradient>
    <linearGradient
       inkscape:collect="always"
       xlink:href="#linearGradient7374"
       id="linearGradient3971"
       x1="118.27396"
       y1="55.854763"
       x2="151.77039"
       y2="207.17122"
       gradientUnits="userSpaceOnUse" />
  </defs>
  <sodipodi:namedview
     pagecolor="#ffffff"
     bordercolor="#666666"
     borderopacity="1"
     objecttolerance="10"
     gridtolerance="10"
     guidetolerance="10"
     inkscape:pageopacity="0"
     inkscape:pageshadow="2"
     inkscape:window-width="1440"
     inkscape:window-height="848"
     id="namedview4"
     showgrid="false"
     inkscape:zoom="1.5748121"
     inkscape:cx="108.58198"
     inkscape:cy="171.63149"
     inkscape:window-x="-8"
     inkscape:window-y="-8"
     inkscape:window-maximized="1"
     inkscape:current-layer="svg2" />
  <path
     style="fill:url(#linearGradient3971);fill-opacity:1.0;stroke:none;stroke-width:19.99995803999999922;stroke-linejoin:round;stroke-miterlimit:4;stroke-opacity:1;stroke-dasharray:none;opacity:1"
     d="m 47.713407,59.124466 c -15.324935,0 -11.304337,0.01724 -30.084014,0.01724 -5.368797,0 -9.7201996,2.181111 -7.35693,9.243124 8.144074,24.336679 43.588756,103.41524 72.971297,122.21934 27.08216,17.33185 44.24136,13.99769 55.44431,13.99769 4.61294,0 7.68726,-1.72894 8.74718,-6.88912 1.14858,-5.59907 1.03855,-20.8376 4.62869,-25.07081 2.37921,-2.80619 6.40212,-2.81948 8.77134,-1.35654 6.59087,4.08293 20.31053,25.53361 27.05303,30.29349 2.48324,1.75552 7.29485,3.44456 9.04647,3.44456 13.02884,0 27.18509,0.13295 38.96082,0.13295 3.4361,0 10.03969,-2.19441 9.70572,-10.13419 -0.54111,-12.86057 -30.82623,-41.33604 -36.78299,-51.94501 -1.20673,-2.15453 -1.15513,-6.35715 0.26055,-9.97458 5.21581,-13.37128 36.16248,-49.624267 35.43746,-64.433216 -0.21863,-4.46862 -1.85781,-9.030335 -8.29465,-9.030335 -9.07073,0 -25.98522,0 -36.3906,0 -9.00582,0 -9.73461,3.378066 -11.65985,7.700384 -5.32182,11.956218 -22.23904,52.725687 -33.04582,57.303387 -2.86965,1.19694 -6.98295,0.53196 -6.98295,-7.70041 0,-11.96951 0.6402,-37.362154 0.6402,-50.210759 0,-11.610423 -11.5754,-12.833977 -15.82681,-12.833977 -8.60931,0 -18.45144,-0.06918 -29.75859,-0.06918 -9.033568,0 -16.880025,8.086075 -15.897187,11.743422 0.338579,1.196954 2.288474,0.664971 5.595396,0.797969 4.539784,0.132988 8.463441,6.423631 8.463441,20.221823 0,11.35774 -0.003,17.341172 -0.003,29.570022 0,9.78839 -7.372206,12.42168 -11.932678,6.8891 C 86.941759,120.04516 75.212473,104.78538 60.274261,66.22892 57.145415,59.286611 50.420513,59.073814 47.713922,59.073814 z"
     id="path3233"
     inkscape:connector-curvature="0"
     sodipodi:nodetypes="csssssssssssssssssssssssssssccc" />
  <path
     style="font-size:medium;font-style:normal;font-variant:normal;font-weight:normal;font-stretch:normal;text-indent:0;text-align:start;text-decoration:none;line-height:normal;letter-spacing:normal;word-spacing:normal;text-transform:none;direction:ltr;block-progression:tb;writing-mode:lr-tb;text-anchor:start;baseline-shift:baseline;opacity:1;color:#000000;fill:#303030;fill-opacity:1;fill-rule:nonzero;stroke:none;stroke-width:19.99995803999999922;marker:none;visibility:visible;display:inline;overflow:visible;enable-background:accumulate;font-family:Sans;-inkscape-font-specification:Sans"
     d="M 103.1875 43.84375 C 95.687008 43.84375 89.588047 46.902839 85.09375 50.65625 C 82.846601 52.532956 80.934005 54.609277 79.4375 57.1875 C 77.940995 59.765723 76.305401 63.129457 77.65625 68.15625 A 10.000979 10.000979 0 0 0 77.6875 68.28125 C 78.50921 71.186182 81.597381 74.375142 83.9375 75.375 C 86.277619 76.374858 87.638123 76.340211 88.625 76.375 C 89.325364 76.39969 89.52429 76.3813 90 76.375 C 90.593333 77.97966 91.34375 81.264497 91.34375 86.59375 C 91.34375 94.852644 91.344616 101.04843 91.34375 108.09375 C 86.368698 100.15167 78.834527 86.476024 69.59375 62.625 A 10.000979 10.000979 0 0 0 69.40625 62.125 C 66.75481 56.241962 61.727729 52.369766 57.40625 50.71875 C 53.084771 49.067734 49.334118 49.0625 47.71875 49.0625 A 10.000979 10.000979 0 0 0 46.71875 49.125 C 33.094339 49.1261 35.774722 49.15625 17.625 49.15625 C 13.586415 49.15625 8.5754687 49.565287 4.0625 53.96875 C -0.4504687 58.372213 -1.0848623 65.986112 0.78125 71.5625 C 5.2043668 84.77996 16.153192 110.60288 30 136.3125 C 43.846808 162.02212 59.329529 187.18261 77.84375 199.03125 C 107.03165 217.71072 129.46864 214.59375 138.6875 214.59375 C 142.24331 214.59375 146.49735 213.94602 150.28125 211.1875 C 154.06515 208.42898 156.34968 203.94978 157.21875 199.71875 C 158.16455 195.1082 158.26363 190.39876 158.78125 185.78125 C 158.88316 184.87212 159.03533 184.29214 159.15625 183.46875 C 159.2577 183.58204 159.24195 183.53955 159.34375 183.65625 C 161.42143 186.03964 163.8986 189.15291 166.4375 192.375 C 171.5153 198.81919 175.5825 205.13131 182.125 209.75 C 184.61819 211.51255 186.89763 212.48391 189.21875 213.34375 C 191.53987 214.20359 192.84745 215.03125 196.9375 215.03125 C 209.89831 215.03125 224.05525 215.15625 235.90625 215.15625 C 239.75308 215.15625 243.9099 214.26479 248.1875 211.03125 C 252.4651 207.79771 255.87867 201.36731 255.59375 194.59375 C 255.30029 187.61907 252.24844 182.78684 248.84375 177.53125 C 245.43906 172.27566 241.2122 166.97571 236.90625 161.8125 C 228.7807 152.06926 220.38733 142.27546 218.3125 139.1875 C 218.44212 139.00819 218.08453 137.57221 218.40625 136.75 C 219.69277 133.45188 228.90199 119.7887 237.375 106.9375 C 241.61151 100.5119 245.73882 93.943055 248.9375 87.625 C 252.13618 81.306945 254.8609 75.559161 254.5 68.1875 C 254.33919 64.900722 253.81214 60.709545 250.78125 56.5625 C 247.75036 52.415455 241.79946 49.625 236.21875 49.625 L 199.84375 49.625 C 194.09052 49.625 188.61079 50.897876 184.6875 54.40625 C 180.76421 57.914624 179.79072 61.576175 179.03125 63.28125 C 176.25399 69.520761 170.80017 82.404171 164.78125 94.21875 C 162.60623 98.488113 160.41129 102.36163 158.28125 105.84375 C 158.45293 93.034662 158.78125 76.987826 158.78125 66.71875 C 158.78125 57.590267 152.81992 50.032128 147.03125 47.0625 C 141.24258 44.092872 136.05378 43.90625 132.96875 43.90625 C 124.41301 43.90625 114.53544 43.84375 103.1875 43.84375 z M 103.1875 59.84375 C 114.47214 59.84375 124.3299 59.90625 132.96875 59.90625 C 134.5033 59.90625 137.74782 60.270152 139.71875 61.28125 C 141.85019 62.374692 142.78125 62.824747 142.78125 66.71875 C 142.78125 79.371572 142.15625 104.75879 142.15625 116.9375 C 142.15625 122.0537 143.48828 126.5011 146.96875 129.125 C 150.46216 131.75866 154.66685 131.34315 157.4375 130.1875 L 157.4375 130.15625 C 162.4038 128.05256 165.64762 123.79499 169.0625 118.8125 C 172.50018 113.79674 175.87421 107.75832 179.0625 101.5 C 185.4427 88.97627 191.06374 75.6057 193.65625 69.78125 C 194.724 67.384054 195.29454 66.387758 195.34375 66.34375 C 195.49721 66.206519 196.09597 65.625 199.84375 65.625 L 236.21875 65.625 C 238.10186 65.625 237.62668 65.66024 237.875 66 C 238.00591 66.179113 238.4543 67.395984 238.53125 68.96875 C 238.59875 70.348136 237.33528 75.114615 234.65625 80.40625 C 231.96756 85.716918 228.09684 91.911244 224 98.125 C 215.81181 110.54418 206.87109 122.29534 203.5 130.9375 C 201.58362 135.83432 200.85842 141.17204 203.5625 146 C 207.50642 153.0241 216.38667 162.15277 224.625 172.03125 C 228.74515 176.97167 232.66604 181.97188 235.4375 186.25 C 238.18853 190.49659 239.55842 194.44156 239.59375 195.28125 C 239.69355 197.65303 239.33246 197.69922 238.5625 198.28125 C 237.9253 198.76292 236.29711 199.15625 235.90625 199.15625 C 224.27429 199.15625 210.25505 199.03336 197.28125 199.03125 C 197.15095 199.01575 196.84904 198.96925 196.59375 198.90625 C 196.08316 198.78007 195.41945 198.58017 194.78125 198.34375 C 193.46169 197.85493 191.84071 197.00757 191.34375 196.65625 C 190.67188 196.18194 188.57379 194.13914 186.34375 191.53125 C 184.11371 188.92336 181.57531 185.69739 179.03125 182.46875 L 179 182.4375 C 176.46081 179.21498 173.89755 175.94702 171.4375 173.125 C 168.98959 170.31691 166.78103 167.91031 164 166.1875 C 159.10491 163.16489 151.97334 163.50511 147.5 168.78125 C 145.52828 171.10615 144.78964 173.64429 144.1875 176.125 C 143.57611 178.64379 143.17274 181.34399 142.875 184 C 142.28243 189.28612 141.90171 194.84643 141.5625 196.5 C 141.23002 198.11867 141.00586 198.1546 140.875 198.25 C 140.8032 198.3023 140.2527 198.59375 138.6875 198.59375 C 126.30575 198.59375 112.30274 202.0643 86.46875 185.53125 C 74.106344 177.61962 57.463749 153.54307 44.09375 128.71875 C 30.718541 103.88476 19.827829 78.000712 15.96875 66.46875 C 15.727362 65.747425 15.778339 65.703325 15.75 65.4375 C 16.186748 65.315332 16.797656 65.15625 17.625 65.15625 C 36.313298 65.15625 32.523164 65.12532 47.5625 65.125 C 47.61586 65.1267 47.665516 65.09349 47.71875 65.09375 C 47.80207 65.094162 47.885751 65.09675 47.96875 65.09375 C 47.97913 65.093371 47.98963 65.094183 48 65.09375 C 49.207638 65.10235 50.516178 65.1775 51.6875 65.625 C 52.993602 66.123995 53.857878 66.625689 54.78125 68.65625 L 54.78125 68.6875 C 54.80932 68.74891 54.84601 68.75433 54.875 68.8125 C 69.921124 107.53213 81.894943 123.34112 84.8125 126.875 C 88.457263 131.29667 94.640865 133.2389 99.75 130.71875 C 104.77232 128.24142 107.34375 122.57239 107.34375 116.15625 L 107.34375 86.59375 C 107.34375 79.147129 106.40353 73.354879 104.28125 68.8125 C 102.82083 65.686723 100.45346 63.086319 97.53125 61.625 C 99.31402 60.632681 101.28318 59.84375 103.1875 59.84375 z "
     id="path3921" />
</svg>
