<svg xmlns="http://www.w3.org/2000/svg" viewBox="0 0 256 256">
<defs>
<linearGradient gradientTransform="translate(1.65379 -3.64196)" xlink:href="#linearGradient4683" id="linearGradient4689" y1="-955.983" x1="194.077" y2="-828.699" x2="328.984" gradientUnits="userSpaceOnUse"/>
<linearGradient gradientTransform="matrix(.26853 0 0 .26853 -6.2048 776.47961)" xlink:href="#linearGradient4094-5" id="linearGradient4422" y1="993.461" y2="98.363" gradientUnits="userSpaceOnUse" x2="0"/>
<linearGradient id="linearGradient4094-5">
<stop offset="0" stop-color="#aaa"/>
<stop offset="1" stop-color="#f0f0f0"/>
</linearGradient>
<linearGradient id="linearGradient6701-4-0">
<stop offset="0" stop-color="#fff"/>
<stop offset=".351" stop-color="#27baf2"/>
<stop offset="1" stop-color="#0053cc"/>
</linearGradient>
<linearGradient id="linearGradient4683">
<stop offset="0" stop-color="#89bfe9"/>
<stop offset="1" stop-color="#e1f2ff"/>
</linearGradient>
<linearGradient gradientTransform="matrix(.25576 0 0 .25579 -.24234 783.19838)" xlink:href="#linearGradient6701-4-0" id="linearGradient3788" y1="186.907" x1="349.312" y2="835.425" gradientUnits="userSpaceOnUse" x2="892.975"/>
</defs>
<g transform="translate(0 -796.36218)">
<path opacity=".08" d="m169.8831,796.3675c-9.6972,1.1301-17.6721,7.4138-26.7037,10.6286c-45.5024,20.7952-91.23,41.0996-136.5619,62.2686c-7.3279,5.1257-8.6538,16.3569-3.558,23.4627c23.403,50.955 46.0949,102.2356 69.8175,153.0447c5.1388,7.3796 16.4815,8.6124 23.6557,3.4405c50.876-23.3454 102.0566-46.0467 152.7973-69.6741c7.3042-5.096 8.6839-16.3046 3.6208-23.4215c-23.358-50.8649-46.0815-102.0298-69.6665-152.7846c-2.9666-4.3238-8.1592-7.1094-13.4013-6.965zm-7.8461,38.7269c1.7242,2.543 2.2069,5.6993 3.8298,8.3122c17.1776,38.2968 35.1175,76.2582 51.7473,114.7915c-2.6148,1.9609-5.9861,2.3912-8.7492,4.1053c-38.2473,17.1936-76.211,35.0695-114.665,51.7236c-2.089-2.6776-2.4452-6.2045-4.259-9.0333c-17.1445-38.1462-34.9902-75.9864-51.5782-114.3726c2.4128-1.9837 5.6836-2.2625 8.2786-3.9474c38.405-17.26 76.5129-35.1929 115.1441-51.9318l.1561,.2185l.0957,.1339z"/>
<path opacity=".1" d="m169.4551,798.5326c-8.1054,1.1455-14.8235,6.3434-22.4083,9.0447c-46.3596,21.1815-92.9159,41.9328-139.1455,63.3994c-6.38,4.3972-7.5105,14.1992-3.1133,20.3578c23.3683,51.0018 46.1573,102.2691 69.8008,153.1454c4.3987,6.3888 14.1625,7.4778 20.3159,3.1133c50.9459-23.3026 102.0979-46.1579 152.9524-69.6581c6.5488-4.3189 7.7662-14.1784 3.3398-20.4586c-23.2703-50.862-46.101-101.9238-69.5406-152.7091c-2.6051-3.9735-7.4201-6.5461-12.2013-6.2349zm-7.4853,33.9102c2.8919,.9818 2.9906,4.5188 4.3578,6.8c17.8278,39.6276 36.2394,79.0016 53.678,118.796c-.5333,2.8822-3.9448,3.2206-6.077,4.3312c-39.9358,17.9549-79.5964,36.5386-119.7205,54.0571c-2.9208-.8268-3.1996-4.3205-4.4403-6.6056c-17.8653-39.7426-36.3683-79.2058-53.8053-119.1331c.6057-2.8408 3.9304-3.1725 6.1006-4.2881c39.927-17.955 79.5713-36.5562 119.7052-54.0331l.2014,.0755z"/>
<path fill="url(#linearGradient4689)" d="m191.549-982.358h151.767a8.2257,8.2264 0 0,1 8.225,8.227v151.778a8.2257,8.2264 0 0,1 -8.225,8.226h-151.767a8.2257,8.2264 0 0,1 -8.225-8.226v-151.778a8.2257,8.2264 0 0,1 8.225-8.227" transform="matrix(-.91049 .41353 -.41345 -.91053 0 0)"/>
<path opacity=".15" d="m169.4048,800.6556c-5.9913,.8043-10.9401,4.5984-16.5362,6.624c-47.8097,21.8093-95.764,43.3104-143.4903,65.2998c-5.3982,3.5255-6.6534,11.5988-3.0942,16.8428c23.398,51.2332 46.3874,102.6636 70.0295,153.7803c3.6402,5.3218 11.7196,6.3718 16.939,2.7772c51.0858-23.32 102.3374-46.2852 153.3375-69.79c5.4083-3.5072 6.6453-11.5894 3.0861-16.8429c-23.2539-51.0482-46.2853-102.1983-69.6729-153.1863c-2.2215-3.5527-6.4024-5.7499-10.5985-5.5048zm-7.6195,29.5634c3.0907,.089 4.6467,3.3658 5.473,5.9005c18.257,40.3709 36.8021,80.6157 54.8453,121.0801c.5455,2.9596-2.1877,5.4258-4.8683,6.0185c-40.713,18.408-81.2937,37.124-122.1123,55.29c-2.9625,.5262-5.3785-2.2362-5.9847-4.8851c-18.3843-40.6967-37.0878-81.2534-55.2734-122.0368c-.5297-2.9611 2.1825-5.4528 4.8683-6.0269c40.6932-18.3945 81.2537-37.0998 122.0452-55.2648c.3334-.0517 .6698-.0725 1.007-.0755z"/>
<path opacity=".3" d="m169.7476,803.3325c-1.1897,.0325-2.3933,.3076-3.5485,.8323l-153.8936,69.8798c-4.6209,2.0984-6.6532,7.5151-4.5548,12.1359l69.8877,153.8853c2.0985,4.6208 7.5075,6.6531 12.1284,4.5547l153.8937-69.8873c4.6208-2.0984 6.6532-7.5076 4.5548-12.1283l-69.8877-153.8928c-1.5739-3.4656-5.0107-5.477-8.5799-5.3794zm-8.3529,24.2113c2.8553-.078 5.6033,1.5326 6.8624,4.3051l55.9132,123.1143c1.6788,3.6967 .0498,8.0209-3.6468,9.6996l-123.1149,55.9129c-3.6967,1.6788-8.0209,.05-9.6997-3.6468l-55.9132-123.1143c-1.6788-3.6967-.0498-8.0209 3.6468-9.6996l123.1149-55.9129c.9242-.4197 1.8855-.6322 2.8373-.6582z"/>
<path fill="url(#linearGradient4422)" d="m169.7476,800.6472c-1.1897,.0325-2.3933,.3076-3.5485,.8323l-153.8936,69.8798c-4.6209,2.0984-6.6532,7.5151-4.5548,12.1359l69.8877,153.8853c2.0985,4.6208 7.5075,6.6531 12.1284,4.5547l153.8937-69.8873c4.6208-2.0984 6.6532-7.5076 4.5548-12.1283l-69.8877-153.8928c-1.5739-3.4656-5.0107-5.477-8.5799-5.3794zm-8.3529,24.2113c2.8553-.078 5.6033,1.5326 6.8624,4.3051l55.9132,123.1143c1.6788,3.6967 .0498,8.0209-3.6468,9.6996l-123.1149,55.9129c-3.6967,1.6788-8.0209,.05-9.6997-3.6468l-55.9132-123.1143c-1.6788-3.6967-.0498-8.0209 3.6468-9.6996l123.1149-55.9129c.9242-.4197 1.8855-.6322 2.8373-.6582z"/>
<path opacity=".6" fill="#fff" d="m169.7487,800.6438c-1.1897,.0325-2.3944,.3145-3.5496,.8392l-153.8923,69.8763c-4.1634,1.8907-6.2191,6.4722-5.0517,10.7412c.6967-2.5265 2.4699-4.7352 5.0517-5.9076l153.8923-69.8763c1.1552-.5246 2.3599-.8066 3.5496-.8392c3.5692-.0976 7.0023,1.9134 8.5762,5.379l69.8931,153.9007c.2078,.4575 .3668,.9157 .4951,1.3846c.5503-1.9939 .4309-4.179-.4951-6.2181l-69.8931-153.9007c-1.5739-3.4656-5.0069-5.4765-8.5762-5.379zm-138.2001,89.8649c-.6021,1.7159-.5716,3.66 .2434,5.4545l55.9128,123.1121c1.6788,3.6967 6.0039,5.3291 9.7006,3.6504l123.1205-55.9128c3.4927-1.5861 5.1384-5.5394 3.8937-9.088c-.6377,1.8205-1.9901,3.3901-3.8937,4.2545l-123.1205,55.9127c-3.6967,1.6788-8.0218,.046-9.7006-3.6503l-55.9128-123.1121c-.0935-.206-.1701-.4117-.2434-.621z"/>
</g>
<g transform="translate(0 -796.36218)">
<path opacity=".4" d="m485.8166,330.1362c1.6004,44.5445-43.8874,46.5456-34.5598-5.0146c10.6874-59.0766-27.4808-85.6607-63.9426-107.007c74.0585,100.4251-14.6101,100.6076-48.9597,229.5712c-11.6549,43.7575-21.1685,88.8904-4.48,127.5481c4.7533,11.0107 17.5204,24.336 16.3852,37.5937c-1.1871,13.8652-8.4305,24.5333-14.215,36.7108c-8.8065,18.5392-25.4233,35.3612-32.9793,51.9867c-4.1732,9.1822 6.1008,16.1012 13.5353,20.5369c11.207,6.6865 26.7193,8.8341 33.3052,21.1268c4.5887,8.5649 3.332,17.6869-.5404,25.982c-3.6031,7.7186-6.2728,19.532 1.2106,24.6722c5.501,3.7785 12.804,5.877 16.5859,12.455c3.6507,6.3499 1.9293,13.9452 7.7137,18.895c9.6395,8.2486 25.4596,7.4693 32.7499,24.6309c3.3915,7.9836 5.6585,16.8668 10.1688,24.7886c6.8331,12.0013 25.9508,15.6866 39.1352,14.3141c14.1865-1.4767 24.6053-5.9388 38.2324-10.2857c35.3218-11.2673 68.4522-26.1978 99.9516-46.7954c26.7284-17.4778 42.5462-27.3863 66.586-41.8001c17.1827-10.3025 42.2443-6.8279 61.3705-11.9417c23.6252-6.3168 52.491-16.2102 69.2677-33.4142c17.727-18.1784 24.9793-32.5426 30.5396-66.0538c-7.6537,10.931-27.5726,36.0549-47.2464,42.6821c-21.6315,7.2867-29.3512,3.5424-35.8476-5.6442c-5.5553-7.8559-6.9791-18.3154-6.7233-27.9504c12.8828-43.7773 68.2492-25.5508 105.4657-40.6437c67.743-27.4728 83.3493-89.882 87.5097-138.8782c2.272-26.7557 5.4451-44.6292 49.0613-98.4731c-54.6298,24.188-77.1702,46.4114-89.7143,74.8519c-11.7617,26.6667-49.0599,58.0633-71.4,31.8707c-28.4721-33.3819 35.0605-78.0474 81.495-90.0093c37.1048-9.5585 71.4668-47.7724 78.8858-84.6811c18.6311-128.0022-39.6372-184.9875 4.7404-279.3586c-131.9268,106.5487-19.7255,164.5666-104.1401,252.2921c-47.9534,49.8342-98.7684,23.3581-79.722-19.2196c12.3015-27.4998 41.8283-10.8002 51.559-74.2279c-27.3739,41.108-115.7133,13.3109-141.0312,80.1342c-44.0536,116.2734-105.2675,4.3633-4.9403-51.3631c42.3271-23.5104 144.2024-15.8578 168.9209-183.5489c-49.5523,99.3145-171.1224,83.5169-269.0144,126.3444c-50.4336,22.0646-117.2068,73.6421-114.919,137.3235z" transform="matrix(.24213 0 0 .25095 4.13234 787.48076)"/>
<path fill="url(#linearGradient3788)" stroke="#d4d4d4" d="m129.3691,865.0639c.4093,11.3942-11.2248,11.906-8.8391-1.2827c2.7334-15.1114-7.0286-21.9114-16.3541-27.3717c18.9414,25.688-3.7367,25.7347-12.5221,58.7227c-2.9809,11.1929-5.4141,22.7376-1.1458,32.6259c1.2157,2.8165 4.4811,6.225 4.1907,9.6162c-.3036,3.5466-2.1562,6.2754-3.6357,9.3904c-2.2524,4.7422-6.5023,9.0452-8.4349,13.2978c-1.0674,2.3487 1.5604,4.1186 3.4618,5.2532c2.8663,1.7104 6.8338,2.2597 8.5182,5.4041c1.1736,2.1908 .8522,4.5242-.1382,6.646c-.9215,1.9744-1.6043,4.9961 .3096,6.311c1.407,.9665 3.2748,1.5033 4.2421,3.1859c.9337,1.6243 .4934,3.5671 1.9729,4.8332c2.4654,2.11 6.5116,1.9106 8.3762,6.3004c.8674,2.0422 1.4472,4.3144 2.6008,6.3408c1.7476,3.0698 6.6372,4.0125 10.0093,3.6614c3.6284-.3777 6.2931-1.5191 9.7784-2.631c9.034-2.8821 17.5075-6.7012 25.5639-11.9699c6.8361-4.4707 10.8817-7.0052 17.0302-10.6922c4.3947-2.6353 10.8045-1.7465 15.6963-3.0546c6.0425-1.6158 13.4253-4.1464 17.7161-8.5471c4.5339-4.6499 6.3888-8.3242 7.8109-16.8961c-1.9575,2.7961-7.0521,9.2226-12.0839,10.9178c-5.5325,1.8639-7.5069,.9061-9.1685-1.4437c-1.4208-2.0095-1.785-4.6849-1.7196-7.1495c3.2949-11.1979 17.4556-6.5357 26.9742-10.3964c17.3261-7.0274 21.3176-22.9912 22.3817-35.5241c.5811-6.8439 1.3927-11.4158 12.5481-25.1887c-13.9723,6.1871-19.7373,11.8717-22.9456,19.1466c-3.0082,6.8211-12.5477,14.8522-18.2615,8.1523c-7.2821-8.5389 8.9672-19.964 20.8434-23.0237c9.49-2.445 18.2786-12.2198 20.1761-21.6608c4.7651-32.7421-10.1377-47.3185 1.2124-71.458c-33.742,27.2544-5.0451,42.095-26.6352,64.5345c-12.2647,12.7472-25.2613,5.9748-20.3899-4.9162c3.1463-7.0343 10.6981-2.7626 13.1869-18.987c-7.0012,10.5151-29.5952,3.4048-36.0705,20.4978c-11.2673,29.7419-26.9235,1.1161-1.2636-13.1383c10.8257-6.0138 36.8816-4.0563 43.2037-46.9505c-12.6736,25.404-43.7668,21.363-68.8039,32.318c-12.899,5.644-29.9772,18.8371-29.392,35.1264z"/>
<path opacity=".6" fill="#aedbff" d="m242.1875,14.7812c-9.2649,15.5625-.3242,27.2747-7.0312,41.1875c9.51-14.4193 .649-26.1279 7.0312-41.1875zm-20.5312,7.25c-10.5028,18.0023-27.162,18.0079-35.2812,22.5625c-6.415,3.5986-10.2541,8.1101-12.2188,12.375c2.2086-3.1122 5.5423-6.1522 10.2188-8.75c8.6579-4.8095 27.0257-4.5547 37.2812-26.1875zm-117.4688,18.0312c8.5828,11.6399 8.5933,18.0018 5.25,24.5625c3.9359-6.2046 5.8572-11.5155 1.8438-19.9688c-2.2435-1.7085-4.6859-3.1839-7.0938-4.5938zm115.75,7.6562c-3.2201,4.2093-7.3229,3.851-9.4375,8.625c-.1671,.3773-.3117,.7581-.4375,1.125c2.8631-3.0704 7.1522-2.9522 9.875-9.75zm-85.8125,5.4688c-3.086,4.6869-4.9511,9.9006-4.75,15.5c.0583,1.624-.1445,3.0451-.5,4.2188c1.5049-1.3263 2.6324-3.8733 2.5-7.5938c-.1521-4.2758 .8987-8.3507 2.75-12.125zm53.9062,3.75c-.9367,1.266-1.7595,2.6991-2.4062,4.4062c-.6808,1.7972-1.391,3.363-2.0938,4.75c1.372-2.0211 2.7688-4.6871 4.0938-8.2188c.122-.3252 .273-.6294 .4062-.9375zm-87.1875,21.0312c-3.3422,5.2896-6.7872,11.7998-9.1875,20.8125c-2.9809,11.1929-5.4245,22.7366-1.1562,32.625c1.2157,2.8165 4.4778,6.2025 4.1875,9.5938c-.3036,3.5466-2.1455,6.2913-3.625,9.4062c-2.2524,4.7422-6.505,9.0286-8.4375,13.2812c-1.0674,2.3487 1.5673,4.1466 3.4688,5.2812c2.8663,1.7104 6.8156,2.2306 8.5,5.375c1.1736,2.1909 .8654,4.5344-.125,6.6562c-.9215,1.9744-1.6015,4.9977 .3125,6.3125c1.407,.9665 3.2827,1.5049 4.25,3.1875c.9337,1.6243 .4893,3.5776 1.9688,4.8438c2.4654,2.1099 6.5104,1.8914 8.375,6.2812c.8674,2.0422 1.4402,4.3174 2.5938,6.3438c1.7476,3.0698 6.6279,4.0074 10,3.6562c3.6284-.3777 6.296-1.5131 9.7812-2.625c9.034-2.8821 17.5061-6.7 25.5625-11.9688c6.8361-4.4707 10.8828-7.0005 17.0312-10.6875c4.3947-2.6353 10.827-1.7544 15.7188-3.0625c6.0425-1.6158 13.4279-4.1306 17.7188-8.5312c1.0399-1.0665 1.9024-2.0903 2.6875-3.125c-.2325,.2522-.4393,.4929-.6875,.75c-4.2909,4.4439-11.6763,6.9934-17.7188,8.625c-4.8918,1.3209-11.324,.4326-15.7188,3.0938c-6.1485,3.7231-10.1951,6.2979-17.0312,10.8125c-8.0564,5.3204-16.5285,9.1521-25.5625,12.0625c-3.4853,1.1228-6.1529,2.2748-9.7812,2.6562c-3.3721,.3545-8.2524-.5876-10-3.6875c-1.1536-2.0463-1.7263-4.344-2.5938-6.4062c-1.8646-4.4329-5.9096-4.2131-8.375-6.3438c-1.4794-1.2785-1.035-3.2661-1.9688-4.9062c-.9673-1.6991-2.843-2.2427-4.25-3.2188c-1.914-1.3277-1.234-4.3813-.3125-6.375c.9904-2.1427 1.2986-4.4752 .125-6.6875c-1.6844-3.1752-5.6337-3.7416-8.5-5.4688c-1.9015-1.1457-4.5361-2.9407-3.4688-5.3125c1.9325-4.2944 6.1851-8.6175 8.4375-13.4062c1.4795-3.1455 3.3214-5.9186 3.625-9.5c.2903-3.4245-2.9718-6.8747-4.1875-9.7188c-4.2683-9.9854-1.8246-21.6348 1.1562-32.9375c1.9218-7.2869 4.5172-12.9649 7.1875-17.6875zm151,.4062c-3.8763,5.6039-9.6227,10.2347-15.6875,11.8125c-8.2186,2.1382-18.5282,8.3176-21.6875,14.7812c4.3718-5.2326 12.7725-9.8434 19.6875-11.625c7.225-1.8614 14.007-7.9922 17.6875-14.9688zm2.6562,10.6875c-.2589,.1146-.4967,.2294-.75,.3438c-2.2981,3.0234-4.0318,5.5481-5.3438,7.75c1.5871-2.318 3.5528-4.9566 6.0938-8.0938zm-19.6875,13.5938c-1.3396,1.7647-2.3885,3.609-3.25,5.5625c-.1825,.4138-.3655,.8308-.5938,1.25c1.082-1.3807 1.9747-2.8637 2.5938-4.2812c.3771-.8635 .7931-1.7087 1.25-2.5312zm-.0312,34.9688c-3.1896,3.8694-7.4571,7.1842-13.1875,9.5312c-8.7815,3.5967-21.5247-.1238-26.0312,8.1562c5.5644-4.8833 16.3284-2.407 24.0312-5.5312c7.0387-2.8549 11.8525-7.1808 15.1875-12.1562zm-19.2188,20.2188c-.2121,.303-.4683,.6849-.75,1.0625c.2471-.2924 .4921-.5941 .7188-.875c.0111-.0663 .0202-.1207 .0312-.1875z" transform="translate(0 796.36218)"/>
</g>
</svg>
