<?xml version="1.0" encoding="UTF-8" standalone="no"?>
<!-- Created with Inkscape (http://www.inkscape.org/) -->

<svg
   xmlns:osb="http://www.openswatchbook.org/uri/2009/osb"
   xmlns:dc="http://purl.org/dc/elements/1.1/"
   xmlns:cc="http://creativecommons.org/ns#"
   xmlns:rdf="http://www.w3.org/1999/02/22-rdf-syntax-ns#"
   xmlns:svg="http://www.w3.org/2000/svg"
   xmlns="http://www.w3.org/2000/svg"
   xmlns:xlink="http://www.w3.org/1999/xlink"
   xmlns:sodipodi="http://sodipodi.sourceforge.net/DTD/sodipodi-0.dtd"
   xmlns:inkscape="http://www.inkscape.org/namespaces/inkscape"
   width="256"
   height="256"
   id="svg2"
   version="1.1"
   inkscape:version="0.48.3.1 r9886"
   sodipodi:docname="qutim-0.2.svg">
  <defs
     id="defs4">
    <linearGradient
       id="linearGradient4683">
      <stop
         style="stop-color:#89bfe9;stop-opacity:1;"
         offset="0"
         id="stop4685" />
      <stop
         style="stop-color:#f8f8f8;stop-opacity:1;"
         offset="1"
         id="stop4687" />
    </linearGradient>
    <linearGradient
       id="linearGradient6701-4-0">
      <stop
         id="stop6703-0-7"
         offset="0"
         style="stop-color:#ffffff;stop-opacity:1;" />
      <stop
         style="stop-color:#27baf2;stop-opacity:1;"
         offset="0.35140693"
         id="stop6705-9-8" />
      <stop
         id="stop6707-4-6"
         offset="1"
         style="stop-color:#0053cc;stop-opacity:1;" />
    </linearGradient>
    <linearGradient
       osb:paint="gradient"
       id="linearGradient4156">
      <stop
         id="stop4158"
         offset="0"
         style="stop-color:#a7a7a7;stop-opacity:1" />
      <stop
         style="stop-color:#e1e1e1;stop-opacity:1;"
         offset="1"
         id="stop4160" />
    </linearGradient>
    <linearGradient
       inkscape:collect="always"
       xlink:href="#linearGradient6701-4-0"
       id="linearGradient3788"
       gradientUnits="userSpaceOnUse"
       gradientTransform="matrix(0.25576293,0,0,0.25579303,-0.24233539,783.19838)"
       x1="349.31244"
       y1="186.90736"
       x2="892.97491"
       y2="835.42529" />
    <linearGradient
       id="linearGradient4094-5">
      <stop
         id="stop4096-8"
         offset="0"
         style="stop-color:#aaaaaa;stop-opacity:1;" />
      <stop
         id="stop4098-6"
         offset="1"
         style="stop-color:#f0f0f0;stop-opacity:1;" />
    </linearGradient>
    <linearGradient
       inkscape:collect="always"
       xlink:href="#linearGradient4683"
       id="linearGradient4689"
       x1="181.66983"
       y1="-894.60045"
       x2="349.88765"
       y2="-894.60045"
       gradientUnits="userSpaceOnUse"
       gradientTransform="translate(1.6537915,-3.6419646)" />
    <linearGradient
       inkscape:collect="always"
       xlink:href="#linearGradient4094-5"
       id="linearGradient4422"
       gradientUnits="userSpaceOnUse"
       gradientTransform="matrix(0.26852898,0,0,0.26852898,-6.2047957,776.47961)"
       x1="623.2478"
       y1="993.46124"
       x2="623.2478"
       y2="98.363487" />
  </defs>
  <sodipodi:namedview
     id="base"
     pagecolor="#ffffff"
     bordercolor="#666666"
     borderopacity="1.0"
     inkscape:pageopacity="0.0"
     inkscape:pageshadow="2"
     inkscape:zoom="1.7043185"
     inkscape:cx="127.62891"
     inkscape:cy="145.36893"
     inkscape:document-units="px"
     inkscape:current-layer="g3881"
     showgrid="false"
     inkscape:window-width="1440"
     inkscape:window-height="848"
     inkscape:window-x="-8"
     inkscape:window-y="-8"
     inkscape:window-maximized="1" />
  <metadata
     id="metadata7">
    <rdf:RDF>
      <cc:Work
         rdf:about="">
        <dc:format>image/svg+xml</dc:format>
        <dc:type
           rdf:resource="http://purl.org/dc/dcmitype/StillImage" />
        <dc:title />
      </cc:Work>
    </rdf:RDF>
  </metadata>
  <g
     inkscape:label="Layer 1"
     inkscape:groupmode="layer"
     id="layer1"
     transform="translate(0,-796.36218)">
    <path
       style="opacity:0.07999998;fill:#000000;fill-opacity:1;fill-rule:nonzero;stroke:none"
       d="m 169.88307,796.36754 c -9.69722,1.13009 -17.67207,7.41379 -26.70366,10.6286 -45.502441,20.79517 -91.230004,41.09964 -136.5619496,62.26862 -7.32785782,5.12572 -8.6537707,16.35688 -3.558009,23.46272 23.4030496,50.95498 46.0949406,102.23559 69.8175346,153.04472 5.138791,7.3796 16.481544,8.6124 23.655725,3.4405 50.875969,-23.3454 102.056619,-46.0467 152.797349,-69.67412 7.30423,-5.09603 8.68387,-16.30461 3.62081,-23.42147 -23.35796,-50.86489 -46.0815,-102.02975 -69.66651,-152.7846 -2.96663,-4.32375 -8.15923,-7.10937 -13.40129,-6.96497 z m -7.84607,38.72691 c 1.72423,2.54304 2.20694,5.69934 3.82979,8.31222 17.17764,38.29682 35.11747,76.25815 51.74734,114.79154 -2.61483,1.96086 -5.98605,2.39124 -8.74922,4.10527 -38.24725,17.19359 -76.21096,35.06952 -114.665044,51.72362 -2.088963,-2.6776 -2.445177,-6.2045 -4.259037,-9.0333 -17.144485,-38.14623 -34.990247,-75.98645 -51.578208,-114.37259 2.412845,-1.98367 5.683614,-2.26247 8.278587,-3.94741 38.405028,-17.26005 76.512892,-35.19288 115.144052,-51.93179 l 0.15607,0.21851 0.0957,0.13393 z"
       id="path4054-4"
       inkscape:connector-curvature="0" />
    <path
       style="opacity:0.1;fill:#000000;fill-opacity:1;fill-rule:nonzero;stroke:none"
       d="m 169.45512,798.53255 c -8.10539,1.14547 -14.82347,6.3434 -22.40827,9.04472 -46.35964,21.18148 -92.915856,41.93284 -139.1454854,63.39937 -6.380015,4.39722 -7.51047365,14.19919 -3.1132579,20.35785 23.3682883,51.00176 46.1572933,102.2691 69.8007513,153.14541 4.398688,6.3888 14.162498,7.4778 20.315896,3.1133 50.945896,-23.3026 102.097866,-46.1579 152.952446,-69.65811 6.54881,-4.31893 7.76621,-14.17843 3.33983,-20.45856 -23.27032,-50.862 -46.101,-101.9238 -69.54063,-152.70907 -2.60508,-3.97346 -7.4201,-6.54611 -12.20128,-6.23491 z m -7.48525,33.91018 c 2.8919,0.98175 2.99064,4.51878 4.3578,6.80001 17.82777,39.62762 36.23943,79.00159 53.67803,118.79603 -0.5333,2.88222 -3.9448,3.22062 -6.07697,4.33117 -39.93582,17.9549 -79.59644,36.5386 -119.720473,54.05706 -2.920792,-0.8268 -3.199609,-4.3205 -4.440317,-6.6056 -17.865319,-39.74257 -36.368335,-79.20581 -53.805297,-119.13306 0.605742,-2.84082 3.930351,-3.17246 6.100643,-4.28807 39.927039,-17.955 79.571334,-36.55622 119.705194,-54.03307 l 0.20139,0.0755 z"
       id="path4024-2"
       inkscape:connector-curvature="0" />
    <rect
       ry="8.2263708"
       rx="8.2257328"
       transform="matrix(-0.91049114,0.41352858,-0.41344788,-0.91052779,0,0)"
       y="-982.35785"
       x="183.32361"
       height="168.23087"
       width="168.21782"
       id="rect4679"
       style="fill:url(#linearGradient4689);fill-opacity:1;fill-rule:nonzero;stroke:none" />
    <path
       style="opacity:0.15;fill:#000000;fill-opacity:1;fill-rule:nonzero;stroke:none"
       d="m 169.40477,800.65561 c -5.99134,0.80426 -10.94006,4.59843 -16.53623,6.62404 -47.80973,21.80929 -95.764004,43.31041 -143.490266,65.29977 -5.3982113,3.52549 -6.6533963,11.59878 -3.0941548,16.84277 23.3980118,51.23317 46.3874468,102.66357 70.0295088,153.78031 3.640214,5.3218 11.719612,6.3718 16.938967,2.7772 51.085805,-23.32 102.337375,-46.28517 153.337495,-69.79005 5.40828,-3.5072 6.64526,-11.58943 3.08605,-16.8429 -23.25392,-51.04823 -46.28535,-102.19828 -69.67288,-153.1863 -2.22149,-3.55269 -6.40235,-5.74987 -10.59849,-5.50484 z m -7.61951,29.56336 c 3.09069,0.089 4.6467,3.36581 5.47297,5.9005 18.25696,40.37089 36.80214,80.61569 54.84535,121.08014 0.54552,2.95957 -2.18773,5.42584 -4.8683,6.01852 -40.71296,18.40803 -81.29369,37.12397 -122.112346,55.28997 -2.962482,0.5262 -5.378517,-2.2362 -5.984724,-4.8851 -18.384319,-40.69674 -37.087789,-81.25337 -55.27345,-122.03676 -0.529681,-2.96111 2.182488,-5.45284 4.868305,-6.02691 40.69316,-18.39451 81.253675,-37.09979 122.045205,-55.26483 0.33336,-0.0517 0.66977,-0.0725 1.00699,-0.0755 z"
       id="path4010-8"
       inkscape:connector-curvature="0" />
    <path
       style="opacity:0.3;fill:#000000;fill-opacity:1;fill-rule:nonzero;stroke:none"
       d="m 169.7476,803.33251 c -1.18972,0.0325 -2.39327,0.30765 -3.54848,0.83226 L 12.305498,874.04452 c -4.6208685,2.09843 -6.6532274,7.51512 -4.5547675,12.13589 L 77.63841,1040.0657 c 2.098469,4.6208 7.50752,6.6531 12.128391,4.5547 L 243.66047,974.7331 c 4.62085,-2.09843 6.65323,-7.50755 4.55476,-12.12833 l -69.8877,-153.89282 c -1.57388,-3.46558 -5.01072,-5.477 -8.57993,-5.37944 z m -8.35292,24.21126 c 2.85535,-0.078 5.60334,1.53256 6.86242,4.30506 l 55.91319,123.11426 c 1.67876,3.69667 0.0498,8.02087 -3.64684,9.69963 L 97.408521,1020.5756 c -3.696693,1.6788 -8.020918,0.05 -9.699686,-3.6468 L 31.795661,893.81453 c -1.67877,-3.69667 -0.04985,-8.02087 3.646839,-9.69964 l 123.11491,-55.91288 c 0.92417,-0.41969 1.88547,-0.63222 2.83727,-0.65824 z"
       id="path4022-2"
       inkscape:export-filename="C:\Users\Madnester\Desktop\Sketches\256.png"
       inkscape:export-xdpi="23.039482"
       inkscape:export-ydpi="23.039482"
       inkscape:connector-curvature="0" />
    <path
       inkscape:connector-curvature="0"
       inkscape:export-ydpi="23.039482"
       inkscape:export-xdpi="23.039482"
       inkscape:export-filename="C:\Users\Madnester\Desktop\Sketches\256.png"
       id="path4021-8"
       d="m 169.7476,800.64722 c -1.18972,0.0325 -2.39327,0.30765 -3.54848,0.83226 L 12.305498,871.35923 c -4.6208685,2.09843 -6.6532274,7.51512 -4.5547675,12.13589 L 77.63841,1037.3804 c 2.098469,4.6208 7.50752,6.6531 12.128391,4.5547 L 243.66047,972.04781 c 4.62085,-2.09843 6.65323,-7.50755 4.55476,-12.12833 l -69.8877,-153.89282 c -1.57388,-3.46558 -5.01072,-5.477 -8.57993,-5.37944 z m -8.35292,24.21126 c 2.85535,-0.078 5.60334,1.53256 6.86242,4.30506 l 55.91319,123.11426 c 1.67876,3.69667 0.0498,8.02087 -3.64684,9.69963 L 97.408521,1017.8903 c -3.696693,1.6788 -8.020918,0.05 -9.699686,-3.6468 L 31.795661,891.12924 c -1.67877,-3.69667 -0.04985,-8.02087 3.646839,-9.69964 l 123.11491,-55.91288 c 0.92417,-0.41969 1.88547,-0.63222 2.83727,-0.65824 z"
       style="fill:url(#linearGradient4422);fill-opacity:1;fill-rule:nonzero;stroke:none" />
    <path
       inkscape:connector-curvature="0"
       style="opacity:0.6;fill:#ffffff;fill-opacity:1;fill-rule:nonzero;stroke:none"
       d="m 169.7487,800.64381 c -1.18973,0.0325 -2.3944,0.31454 -3.54961,0.83915 L 12.306805,871.35923 c -4.1633951,1.89068 -6.2190903,6.47219 -5.0517011,10.74116 0.6966821,-2.52654 2.4699497,-4.73521 5.0517011,-5.90763 L 166.19909,806.31648 c 1.15521,-0.52461 2.35988,-0.80663 3.54961,-0.83915 3.5692,-0.0976 7.00229,1.91339 8.57615,5.37897 l 69.89306,153.90067 c 0.20775,0.45746 0.36682,0.91566 0.4951,1.3846 0.55025,-1.99387 0.43093,-4.17904 -0.4951,-6.21812 L 178.32485,806.02278 c -1.57386,-3.46558 -5.00695,-5.47653 -8.57615,-5.37897 z m -138.200115,89.8649 c -0.602144,1.71585 -0.571588,3.65998 0.243354,5.45449 l 55.912769,123.1121 c 1.678768,3.6967 6.003916,5.3291 9.700609,3.6504 L 220.52585,966.8129 c 3.49266,-1.58611 5.13838,-5.53937 3.89367,-9.08803 -0.63769,1.82045 -1.99013,3.39006 -3.89367,4.2545 L 97.405317,1017.8921 c -3.696693,1.6788 -8.021841,0.046 -9.700609,-3.6503 L 31.791939,891.12968 c -0.09353,-0.20595 -0.170145,-0.41169 -0.243354,-0.62097 z"
       id="path4080" />
    <g
       id="g3881">
      <path
         transform="matrix(0.24212777,0,0,0.25094956,4.1323447,787.48076)"
         style="opacity:0.4;fill:#000000;fill-opacity:1;fill-rule:nonzero;stroke:none;stroke-width:2.29999995000000010;marker-start:none"
         d="m 485.81657,330.13621 c 1.6004,44.54449 -43.8874,46.54561 -34.5598,-5.01458 10.6874,-59.07658 -27.4808,-85.66065 -63.9426,-107.00705 74.0585,100.42512 -14.6101,100.60756 -48.9597,229.57116 -11.6549,43.75755 -21.1685,88.89044 -4.48,127.54807 4.7533,11.01065 17.5204,24.33599 16.3852,37.5937 -1.1871,13.86519 -8.4305,24.53332 -14.215,36.71082 -8.8065,18.53924 -25.4233,35.36124 -32.9793,51.98667 -4.1732,9.18217 6.1008,16.10124 13.5353,20.53691 11.207,6.68649 26.7193,8.83414 33.3052,21.12675 4.5887,8.56492 3.332,17.68687 -0.5404,25.98199 -3.6031,7.7186 -6.2728,19.53196 1.2106,24.67219 5.501,3.77855 12.804,5.877 16.5859,12.45497 3.6507,6.34989 1.9293,13.94522 7.7137,18.89502 9.6395,8.24864 25.4596,7.46933 32.7499,24.63087 3.3915,7.98358 5.6585,16.86685 10.1688,24.78856 6.8331,12.00133 25.9508,15.68658 39.1352,14.31414 14.1865,-1.47669 24.6053,-5.93879 38.2324,-10.28569 35.3218,-11.2673 68.4522,-26.1978 99.9516,-46.79539 26.7284,-17.47778 42.5462,-27.38625 66.586,-41.80009 17.1827,-10.30245 42.2443,-6.82785 61.3705,-11.94169 23.6252,-6.31678 52.491,-16.21019 69.2677,-33.41424 17.727,-18.17844 24.9793,-32.54261 30.5396,-66.05382 -7.6537,10.93104 -27.5726,36.05487 -47.2464,42.6821 -21.6315,7.28671 -29.3512,3.54244 -35.8476,-5.64418 -5.5553,-7.85586 -6.9791,-18.31537 -6.7233,-27.95044 12.8828,-43.77735 68.2492,-25.55076 105.4657,-40.64373 67.74297,-27.47282 83.34927,-89.88201 87.50967,-138.87823 2.272,-26.75572 5.4451,-44.6292 49.0613,-98.47308 -54.6298,24.188 -77.1702,46.41144 -89.71427,74.85189 -11.7617,26.66665 -49.0599,58.06328 -71.4,31.87072 -28.4721,-33.38187 35.0605,-78.04736 81.495,-90.00927 37.10477,-9.55846 71.46677,-47.77238 78.88577,-84.68109 18.6311,-128.0022 -39.6372,-184.98754 4.7404,-279.35863 -131.92677,106.5487 -19.7255,164.56664 -104.14007,252.29205 -47.9534,49.83422 -98.7684,23.35814 -79.722,-19.21964 12.3015,-27.49976 41.8283,-10.8002 51.559,-74.2279 -27.3739,41.10797 -115.7133,13.3109 -141.0312,80.13422 -44.0536,116.27336 -105.2675,4.36329 -4.9403,-51.3631 42.3271,-23.51042 144.2024,-15.85782 168.9209,-183.54891 -49.5523,99.3145 -171.1224,83.51686 -269.0144,126.34443 -50.4336,22.06457 -117.2068,73.64213 -114.919,137.32352 z"
         id="path4076-8"
         inkscape:connector-curvature="0"
         sodipodi:nodetypes="sscssssssssssssssssssscsscsscsssccsscsscss" />
      <path
         sodipodi:nodetypes="sscssssssssssssssssssscsscsscsssccsscsscss"
         inkscape:connector-curvature="0"
         id="path3039-0-9"
         d="m 129.36913,865.06388 c 0.40932,11.39417 -11.22477,11.90604 -8.83912,-1.28269 2.73344,-15.11138 -7.02857,-21.9114 -16.35414,-27.37166 18.94141,25.68804 -3.73673,25.73471 -12.522081,58.7227 -2.980891,11.19288 -5.414117,22.73756 -1.145818,32.62591 1.215718,2.81645 4.481069,6.22498 4.190727,9.61621 -0.303616,3.54661 -2.156209,6.27545 -3.63567,9.39037 -2.252376,4.74221 -6.502338,9.04516 -8.434882,13.29783 -1.06735,2.34873 1.560358,4.11858 3.461828,5.25319 2.866335,1.71036 6.833806,2.25971 8.518235,5.40408 1.173619,2.19085 0.852202,4.52418 -0.138214,6.64601 -0.92154,1.97436 -1.60435,4.99614 0.309626,6.31098 1.406952,0.96652 3.274789,1.50329 4.242059,3.18589 0.933714,1.62426 0.493443,3.56709 1.97288,4.83321 2.46543,2.10995 6.51162,1.91061 8.37621,6.30041 0.86742,2.04218 1.44723,4.31438 2.6008,6.34078 1.74765,3.0698 6.63725,4.0125 10.00933,3.6614 3.62839,-0.3777 6.29313,-1.5191 9.77843,-2.631 9.03401,-2.8821 17.50754,-6.70121 25.56392,-11.96993 6.83613,-4.47069 10.88174,-7.00521 17.03023,-10.69217 4.3947,-2.63529 10.80453,-1.74651 15.6963,-3.0546 6.04245,-1.61579 13.42525,-4.14645 17.71611,-8.54713 4.53391,-4.64992 6.38878,-8.32417 7.8109,-16.8961 -1.95754,2.79608 -7.05205,9.22258 -12.08388,10.91778 -5.53254,1.86389 -7.50695,0.90613 -9.16849,-1.44374 -1.42084,-2.00948 -1.78499,-4.68495 -1.71957,-7.14953 3.29494,-11.19794 17.45562,-6.53571 26.97422,-10.39638 17.32614,-7.02736 21.31765,-22.9912 22.38173,-35.52409 0.58109,-6.84392 1.39265,-11.41583 12.54806,-25.18872 -13.97228,6.18712 -19.73728,11.87172 -22.94559,19.14659 -3.0082,6.82114 -12.5477,14.85218 -18.26147,8.15231 -7.28211,-8.53885 8.96718,-19.96398 20.84339,-23.02375 9.49003,-2.44499 18.27856,-12.21984 20.17607,-21.66083 4.76513,-32.74207 -10.13773,-47.31852 1.21241,-71.45799 -33.74197,27.25441 -5.04505,42.095 -26.63517,64.53455 -12.2647,12.74724 -25.26129,5.97485 -20.38993,-4.91625 3.14627,-7.03425 10.69813,-2.76262 13.18688,-18.98698 -7.00123,10.51513 -29.59517,3.40483 -36.07055,20.49777 -11.26728,29.74192 -26.92352,1.1161 -1.26355,-13.13832 10.82571,-6.0138 36.88163,-4.05632 43.20371,-46.95053 -12.67364,25.40395 -43.76677,21.36303 -68.80391,32.31802 -12.89905,5.64397 -29.97716,18.83715 -29.39202,35.1264 z"
         style="fill:url(#linearGradient3788);fill-opacity:1;fill-rule:nonzero;stroke:#d4d4d4;stroke-width:1;marker-start:none;stroke-opacity:1;stroke-miterlimit:4;stroke-dasharray:none" />
      <path
         style="fill:#aedbff;fill-opacity:1;fill-rule:nonzero;stroke:none;stroke-width:2.29999995000000010;marker-start:none;opacity:0.6"
         d="M 242.1875 14.78125 C 232.92257 30.343703 241.86326 42.055922 235.15625 55.96875 C 244.66624 41.549444 235.80527 29.840831 242.1875 14.78125 z M 221.65625 22.03125 C 211.15344 40.033522 194.49428 40.039142 186.375 44.59375 C 179.96001 48.192323 176.12086 52.703828 174.15625 56.96875 C 176.36481 53.856577 179.69857 50.816564 184.375 48.21875 C 193.03288 43.409203 211.40073 43.664082 221.65625 22.03125 z M 104.1875 40.0625 C 112.77033 51.702393 112.78083 58.064258 109.4375 64.625 C 113.37336 58.420376 115.29465 53.109527 111.28125 44.65625 C 109.03778 42.947745 106.59539 41.472355 104.1875 40.0625 z M 219.9375 47.71875 C 216.71744 51.928011 212.61457 51.569734 210.5 56.34375 C 210.33287 56.72108 210.18832 57.10184 210.0625 57.46875 C 212.92559 54.398301 217.21469 54.516535 219.9375 47.71875 z M 134.125 53.1875 C 131.03903 57.87436 129.17386 63.08807 129.375 68.6875 C 129.43334 70.311465 129.23049 71.732563 128.875 72.90625 C 130.37988 71.579926 131.50735 69.032905 131.375 65.3125 C 131.2229 61.036674 132.27372 56.96183 134.125 53.1875 z M 188.03125 56.9375 C 187.09458 58.203454 186.27171 59.636631 185.625 61.34375 C 184.94416 63.140932 184.23405 64.706754 183.53125 66.09375 C 184.90322 64.072641 186.30009 61.406648 187.625 57.875 C 187.74699 57.549822 187.89803 57.245612 188.03125 56.9375 z M 100.84375 77.96875 C 97.501562 83.258383 94.056503 89.768575 91.65625 98.78125 C 88.675359 109.97413 86.231701 121.5179 90.5 131.40625 C 91.715718 134.2227 94.977842 137.60877 94.6875 141 C 94.383884 144.54661 92.541961 147.29133 91.0625 150.40625 C 88.810124 155.14846 84.557544 159.43483 82.625 163.6875 C 81.55765 166.03623 84.19228 167.83414 86.09375 168.96875 C 88.960085 170.67911 92.909321 171.19938 94.59375 174.34375 C 95.767369 176.5346 95.459166 178.87817 94.46875 181 C 93.54721 182.97436 92.867274 185.99766 94.78125 187.3125 C 96.188202 188.27902 98.06398 188.8174 99.03125 190.5 C 99.964964 192.12426 99.520563 194.07763 101 195.34375 C 103.46543 197.4537 107.51041 197.2352 109.375 201.625 C 110.24242 203.66718 110.81518 205.94235 111.96875 207.96875 C 113.7164 211.03855 118.59667 211.9761 121.96875 211.625 C 125.59714 211.2473 128.2647 210.1119 131.75 209 C 140.78401 206.1179 149.25612 202.29997 157.3125 197.03125 C 164.14863 192.56056 168.19526 190.03071 174.34375 186.34375 C 178.73845 183.70846 185.17073 184.58934 190.0625 183.28125 C 196.10495 181.66546 203.49039 179.15068 207.78125 174.75 C 208.82112 173.68352 209.68363 172.65969 210.46875 171.625 C 210.23621 171.87715 210.02949 172.11791 209.78125 172.375 C 205.49039 176.81886 198.10495 179.36836 192.0625 181 C 187.17073 182.32093 180.73845 181.43261 176.34375 184.09375 C 170.19526 187.81689 166.14863 190.3917 159.3125 194.90625 C 151.25612 200.22667 142.78401 204.05835 133.75 206.96875 C 130.2647 208.09155 127.59714 209.2436 123.96875 209.625 C 120.59667 209.9795 115.7164 209.0374 113.96875 205.9375 C 112.81518 203.8912 112.24242 201.59347 111.375 199.53125 C 109.51041 195.09838 105.46543 195.31815 103 193.1875 C 101.52056 191.90895 101.96496 189.92145 101.03125 188.28125 C 100.06398 186.58214 98.188202 186.03851 96.78125 185.0625 C 94.867274 183.73476 95.54721 180.68123 96.46875 178.6875 C 97.459166 176.54485 97.767369 174.21235 96.59375 172 C 94.909321 168.82478 90.960085 168.2584 88.09375 166.53125 C 86.19228 165.38551 83.55765 163.59053 84.625 161.21875 C 86.557544 156.92435 90.810124 152.60124 93.0625 147.8125 C 94.541961 144.66702 96.383884 141.89391 96.6875 138.3125 C 96.977842 134.888 93.715718 131.43783 92.5 128.59375 C 88.231701 118.60837 90.675359 106.95896 93.65625 95.65625 C 95.578046 88.369322 98.173448 82.69139 100.84375 77.96875 z M 251.84375 78.375 C 247.96744 83.978881 242.22103 88.609653 236.15625 90.1875 C 227.93761 92.325712 217.62809 98.50509 214.46875 104.96875 C 218.84058 99.736101 227.24121 95.125331 234.15625 93.34375 C 241.38122 91.482326 248.16323 85.351585 251.84375 78.375 z M 254.5 89.0625 C 254.2411 89.177143 254.0033 89.291939 253.75 89.40625 C 251.45194 92.42965 249.71815 94.954375 248.40625 97.15625 C 249.99339 94.838254 251.95905 92.199651 254.5 89.0625 z M 234.8125 102.65625 C 233.47289 104.42091 232.42401 106.26528 231.5625 108.21875 C 231.38 108.63257 231.19702 109.04958 230.96875 109.46875 C 232.05076 108.08804 232.94343 106.60501 233.5625 105.1875 C 233.93959 104.32405 234.35559 103.47876 234.8125 102.65625 z M 234.78125 137.625 C 231.59161 141.49442 227.32412 144.80925 221.59375 147.15625 C 212.81224 150.75291 200.06901 147.03247 195.5625 155.3125 C 201.12689 150.42918 211.89086 152.90548 219.59375 149.78125 C 226.63249 146.92638 231.4462 142.6004 234.78125 137.625 z M 215.5625 157.84375 C 215.3504 158.14671 215.09419 158.52868 214.8125 158.90625 C 215.05962 158.61389 215.3046 158.31212 215.53125 158.03125 C 215.54239 157.96499 215.55141 157.9106 215.5625 157.84375 z "
         transform="translate(0,796.36218)"
         id="path4411" />
    </g>
  </g>
</svg>
