<?xml version="1.0" standalone="no"?>
<!DOCTYPE svg PUBLIC "-//W3C//DTD SVG 20010904//EN" "http://www.w3.org/TR/2001/REC-SVG-20010904/DTD/svg10.dtd">
<!-- Created using Karbon, part of Calligra: http://www.calligra.org/karbon -->
<svg xmlns="http://www.w3.org/2000/svg" xmlns:xlink="http://www.w3.org/1999/xlink" width="800pt" height="800pt">
<defs>
  <radialGradient id="gradient0" gradientTransform="matrix(0.747483 0 0 1.19167 -7.61633 -0.853635)" gradientUnits="objectBoundingBox" cx="1.57960837761" cy="0.45752317155" fx="1.57960837761" fy="0.45752317155" r="0.40364665460" spreadMethod="pad">
   <stop stop-color="#ffffff" offset="0.00000000000" stop-opacity="0.63309681849"/>
   <stop stop-color="#ffffff" offset="0.50000000000" stop-opacity="0.16546883345"/>
   <stop stop-color="#ffffff" offset="0.75000000000" stop-opacity="0.12950331884"/>
   <stop stop-color="#ffffff" offset="1.00000000000" stop-opacity="0.33812466621"/>
  </radialGradient>
 </defs>
<g id="g4183">
  <g id="g10105" transform="" fill="none">
   <g id="g10130" transform="" fill="none">
    <g id="g31" transform="" fill="none"/>
   </g>
  </g>
 </g><g id="layer1">
  <g id="g4984" transform="translate(31, -252.072)" fill="none">
   <path id="path7589" transform="matrix(42.4559 0 0 63.8595 0 252.072)" fill="#4d5454" d="M10.6724 0.00238934C10.64 0.00800975 10.6083 0.0150412 10.5773 0.0234378C10.355 0.0593419 10.1688 0.159848 10.0703 0.297086C9.99932 0.399251 10.0473 0.508826 10.0069 0.612835C9.80404 1.1365 9.86349 1.68281 10.0069 2.21263L7.21851 3.07567L7.15513 3.07567C7.11101 3.08706 7.06857 3.10115 7.02838 3.11777L1.0079 4.92806C0.148241 5.1874 -0.237974 5.89374 0.152351 6.4647L5.98272 14.9899C6.37275 15.5605 7.43674 15.8174 8.29586 15.5583L21.129 11.664C21.9879 11.4049 22.3747 10.7402 21.9846 10.1695L16.1542 1.62323C15.8617 1.19533 15.2165 0.937313 14.5382 0.949631C14.3075 0.953819 14.052 1.0123 13.841 1.07593L12.2567 1.53903C11.8952 1.08337 11.5692 0.676568 11.4962 0.423383C11.4313 0.160836 11.071 -0.0232764 10.6724 0.00238536ZM10.7358 0.507586C10.8802 1.00883 11.4534 1.66413 12.0032 2.31788L12.732 2.10738C12.7254 2.09889 12.7075 2.09495 12.7003 2.08633L14.253 1.62323C14.3494 1.59417 14.4389 1.60399 14.5382 1.60218C14.6126 1.60085 14.6892 1.61055 14.76 1.62323C14.832 1.6356 14.8858 1.64016 14.9501 1.66533C15.0865 1.7164 15.197 1.79452 15.267 1.89688L21.0973 10.4221C21.1849 10.5501 21.1977 10.6795 21.129 10.801C21.0946 10.8619 21.038 10.9208 20.9706 10.9694C20.9032 11.0178 20.8135 11.0666 20.7171 11.0957L15.6155 12.6323L12.0032 13.7269L7.88395 14.9689C7.78759 14.9979 7.698 15.0092 7.59876 15.011C7.48479 15.013 7.38468 14.9989 7.2819 14.9689C7.09905 14.9232 6.95748 14.8443 6.86997 14.7163L1.03959 6.19106C1.03539 6.18488 1.04339 6.17621 1.03959 6.17001C0.995831 6.106 0.978881 6.04465 0.976221 5.98056C0.973521 5.9146 0.973521 5.8519 1.00791 5.79111C1.04229 5.73281 1.09896 5.66934 1.16635 5.62271C1.23371 5.57423 1.32348 5.54653 1.41984 5.51746L6.83828 3.87557L7.53539 3.66507C7.53969 3.66853 7.56242 3.66128 7.56707 3.66507L8.2325 3.45457L10.1971 2.86518L10.9259 2.65468C10.6799 1.84559 10.377 1.02369 10.7358 0.507586ZM13.8411 2.94937C13.7617 2.95084 13.6963 2.94718 13.6193 2.97042L13.4291 3.03358L12.732 3.24407C13.0851 3.72689 13.3405 4.18641 13.3024 4.54917C13.1679 5.83 11.9326 6.88226 11.5279 7.8961C11.1426 8.86152 12.1252 9.82717 13.3658 9.39065C14.3426 9.04692 13.3027 7.59451 14.0312 6.44366C14.6637 5.44444 14.8704 5.28617 15.6472 4.92807L15.3303 4.48602L14.4114 3.18093C14.3852 3.14252 14.3563 3.10558 14.3164 3.07568C14.3064 3.0682 14.2954 3.06153 14.2847 3.05463C14.2553 3.0388 14.2229 3.02464 14.1896 3.01253C14.082 2.9733 13.9601 2.94722 13.8411 2.94938ZM11.1477 3.70717L10.3872 3.93872C10.3872 3.94477 10.3872 3.95379 10.3872 3.95977L9.11973 4.33867L8.42262 4.54917C8.65734 4.85577 8.84119 5.19019 8.83455 5.49641C8.80231 6.98309 10.0166 6.75071 11.0843 4.44392C11.1826 4.23165 11.1718 3.97134 11.1477 3.70717ZM14.0312 4.19132L14.5382 4.90702C14.1213 5.18706 13.7893 5.51269 13.3658 6.17001C13.67 5.68142 13.9995 5.17414 14.0629 4.57022C14.0764 4.44174 14.0535 4.31682 14.0312 4.19132ZM7.979 4.67547L7.2819 4.88597C7.28237 4.89338 7.28157 4.89962 7.2819 4.90701L3.35273 6.08581C3.27565 6.10906 3.21771 6.13429 3.16261 6.17001C3.1087 6.20875 3.06337 6.24774 3.03586 6.29631C2.98762 6.38148 2.98918 6.47857 3.03586 6.56996C3.03986 6.57672 3.03126 6.58424 3.03586 6.591C3.03966 6.59739 3.03156 6.60575 3.03586 6.61205L4.96876 9.41169L4.96876 9.43274L5.85599 10.7378C5.77359 10.5325 5.72702 10.3147 5.69755 10.0853C5.53567 8.82483 6.50763 8.12674 7.15515 7.2225C7.95812 6.10116 8.0662 5.27419 7.979 4.67546ZM10.102 4.75967C9.93433 5.05781 9.74399 5.32826 9.59503 5.51746C9.59943 5.3141 9.54433 5.11072 9.46828 4.92807ZM15.7423 5.07541C15.1591 5.85988 14.8178 6.96868 15.1719 7.49615C15.5766 8.09898 17.0132 8.64337 16.8513 10.2326C16.8154 10.5849 16.6434 10.9417 16.376 11.2641L18.7842 10.5273C18.8613 10.5041 18.9204 10.4819 18.9743 10.4431C19.0282 10.4044 19.0736 10.3654 19.1011 10.3168C19.1561 10.2197 19.1711 10.1035 19.1011 10.0011ZM7.18684 5.64376C7.07661 6.02945 6.84256 6.47503 6.45804 7.01201C6.14526 7.44879 5.68877 7.90028 5.349 8.4434L4.08153 6.56996ZM13.239 6.52786C12.9732 7.15154 12.9738 7.78625 13.0172 8.25395C13.0424 8.52609 13.0464 8.74433 13.0172 8.8644C12.988 8.98447 13.0138 8.94978 13.0172 8.9486C12.8484 9.00798 12.7742 9.00345 12.7003 8.9907C12.6265 8.97794 12.5419 8.92569 12.4468 8.84335C12.2568 8.67867 12.1224 8.33789 12.2567 8.00136C12.4263 7.57645 12.8497 7.09633 13.239 6.52786ZM15.8056 6.75941L16.6295 7.9803C16.2695 7.64106 15.9179 7.40574 15.8373 7.28565C15.7954 7.22323 15.7835 7.01673 15.8056 6.75941ZM17.5167 9.2854L18.0237 10.0432L17.6118 10.1695C17.6312 9.84216 17.6034 9.55256 17.5167 9.2854ZM6.5531 11.7482L7.34527 12.927C7.3572 12.9327 7.36497 12.9425 7.37695 12.9481L7.69382 13.4322C7.76383 13.5346 7.89616 13.6062 8.04237 13.6427C8.18859 13.6793 8.36351 13.6892 8.51768 13.6427L8.96129 13.5164L10.0703 13.1796C8.65291 13.0111 7.36607 12.5424 6.55309 11.7482Z"/>
   <path id="path3222" transform="matrix(42.4559 0 0 63.8595 41.2116 354.374)" fill="#ffffff" d="M13.5675 0.000193525C13.4682 0.00198856 13.3786 0.0132242 13.2823 0.0422905L11.0325 0.715887C11.2959 1.02901 11.5395 1.33876 11.7613 1.64208L12.6486 1.36843C12.7256 1.34518 12.791 1.32777 12.8704 1.32634C13.1085 1.32202 13.3357 1.42531 13.4407 1.57894L14.6448 3.32608C14.768 3.26913 14.8668 3.23038 15.0251 3.15768C14.9294 3.25841 14.8586 3.37607 14.7716 3.49448L18.1304 8.3991C18.2704 8.60393 18.1218 8.83233 17.8135 8.92535L15.437 9.64105C14.5093 10.7855 12.3031 11.6618 10.2087 11.6618C9.81956 11.6618 9.44581 11.6239 9.06795 11.5776L7.54698 12.0407C7.23865 12.1338 6.86315 12.0351 6.72313 11.8302L5.5824 10.1462C5.5645 10.1288 5.56815 10.1009 5.55072 10.0831C5.27984 9.80676 5.02754 9.50349 4.8853 9.1569L2.06517 5.01007C1.92515 4.80524 2.07367 4.55579 2.38204 4.46277L7.00831 3.07348C6.92413 2.49543 6.69553 2.1884 6.5647 2.06308L0.449143 3.91547C0.0637223 4.03175 -0.106129 4.33304 0.0689023 4.58907L5.89927 13.1143C6.0743 13.3703 6.52783 13.4832 6.91325 13.3669L19.7464 9.4937C20.1318 9.37743 20.3017 9.07614 20.1266 8.8201L14.2963 0.294892C14.165 0.102866 13.8652 -0.0052122 13.5675 0.000193525ZM9.95518 1.05269L6.59638 2.06308C6.76944 2.2035 7.1252 2.5204 7.45192 2.94718L10.177 2.10518C10.1468 1.77428 10.0653 1.41493 9.95518 1.05269Z"/>
   <path id="path3265" transform="matrix(42.4559 0 0 63.8595 240.72 284.978)" fill="#e70000" d="M1.75812 3.04154C1.75812 3.04154 3.27851 4.19453 1.47483 6.71331C0.827316 7.61755 -0.143965 8.30258 0.0179158 9.56304C0.285196 11.6442 2.85081 12.7416 5.52183 12.7416C8.19285 12.7416 11.0257 11.3167 11.1876 9.72744C11.3495 8.13817 9.89258 7.59015 9.48788 6.98732C9.08319 6.38449 9.60929 5.01443 10.3378 4.24719C9.20459 4.76782 9.08319 4.76782 8.35473 5.91867C7.62627 7.06952 8.68407 8.53428 7.70721 8.878C6.4666 9.31453 5.46022 8.33635 5.84559 7.37094C6.25029 6.35709 7.49178 5.30882 7.62627 4.02798C7.73825 2.96152 5.40042 1.12345 5.07666 0C4.42914 0.931642 5.89662 2.84634 5.40042 3.91838C4.3327 6.22518 3.14234 6.4737 3.17457 4.98703C3.19305 4.13493 1.75812 3.04154 1.75812 3.04154Z"/>
   <path id="path7286" transform="matrix(42.4559 0 0 63.8595 240.092 284.249)" fill="url(#gradient0)" d="M5.10684 0C4.45932 0.931642 5.91253 2.85707 5.41632 3.92911C4.3486 6.2359 3.14894 6.48943 3.18117 5.00276C3.19965 4.15066 1.77131 3.06105 1.77131 3.06105C1.77131 3.06105 3.29989 4.19725 1.49621 6.71603C0.848694 7.62027 -0.144307 8.31103 0.0175737 9.57148C0.284855 11.6526 2.84847 12.7468 5.51949 12.7468C8.1905 12.7468 11.0315 11.3207 11.1933 9.73139C11.3552 8.14212 9.91307 7.59298 9.50837 6.99015C9.10367 6.38733 9.63958 5.01615 10.368 4.24892C9.23488 4.76954 9.10206 4.78849 8.3736 5.93935C7.64514 7.0902 8.69711 8.54245 7.72025 8.88618C6.47964 9.3227 5.47799 8.34391 5.86335 7.37849C6.26805 6.36465 7.51699 5.32415 7.65148 4.04332C7.76345 2.97686 5.4306 1.12345 5.10684 0ZM6.48232 3.92911C6.48299 3.93706 6.55174 3.96865 6.55109 3.97479C6.54629 4.02079 6.49139 4.06599 6.48232 4.11185C6.51265 4.04317 6.46135 3.9972 6.48232 3.92911ZM6.41354 4.24892C6.16583 5.1561 5.25375 6.05238 4.79735 7.19575C4.52024 7.88996 4.71091 8.56989 5.31316 9.09177C5.61428 9.3527 6.0493 9.59307 6.58547 9.6857C7.12165 9.77834 7.7213 9.70692 8.23605 9.5258C8.83852 9.31381 9.15424 8.89092 9.23327 8.56636C9.28042 8.37273 9.24117 8.21458 9.23327 8.04096C9.74 8.46641 10.2147 8.82815 10.1273 9.6857C10.0741 10.2085 9.52798 10.8255 8.64869 11.2848C7.7694 11.744 6.56045 12.0158 5.51948 12.0158C3.30217 12.0158 1.33731 11.211 1.11795 9.50295C0.990634 8.51162 1.72076 8.06683 2.45904 7.03584C2.63758 6.78651 2.67795 6.60364 2.80291 6.37338C2.95137 6.46799 3.05352 6.57825 3.28433 6.62466C3.71942 6.71213 4.17057 6.64237 4.45348 6.53328C5.01931 6.31512 5.27955 6.00294 5.58825 5.61954C5.8779 5.25979 6.14746 4.80671 6.41354 4.24892Z"/>
  </g>
 </g>
</svg>
