<?xml version="1.0" encoding="utf8" standalone="no"?>
<svg height="16" id="svg2" width="16" xmlns="http://www.w3.org/2000/svg" xmlns:svg="http://www.w3.org/2000/svg" xmlns:xlink="http://www.w3.org/1999/xlink">
<defs id="defs4">
<linearGradient id="linearGradient3495-841-851-719">
<stop id="stop4120" offset="0" style="stop-color:#1e1e1e"/>
<stop id="stop4122" offset="1" style="stop-opacity:0;stop-color:#1e1e1e"/>
</linearGradient>
<linearGradient gradientTransform="matrix(.44186,0,0,.46429,1.39535,3.30382)" gradientUnits="userSpaceOnUse" id="linearGradient2472" x1="25.57654" x2="25.57654" y1="15.000002" y2="44.00053">
<stop id="stop4102" offset="0" style="stop-color:#fff"/>
<stop id="stop4104" offset="1" style="stop-opacity:0;stop-color:#fff"/>
</linearGradient>
<linearGradient gradientTransform="matrix(.46667,0,0,.45455,.8,4.27298)" gradientUnits="userSpaceOnUse" id="linearGradient2908" x1="20.052792" x2="19.875452" y1="8.163353" y2="45.60001">
<stop id="stop4498" offset="0" style="stop-color:#fff"/>
<stop id="stop4502" offset="0.87426931" style="stop-color:#cfcfcf"/>
<stop id="stop4504" offset="1" style="stop-color:#999"/>
</linearGradient>
<linearGradient gradientTransform="matrix(.46667,0,0,.50064,.8,2.2217)" gradientUnits="userSpaceOnUse" id="linearGradient2910" x1="28.103424" x2="28.103424" y1="45.000065" y2="14.038458">
<stop id="stop4108" offset="0" style="stop-color:#727272"/>
<stop id="stop4110" offset="1" style="stop-color:#bebebe"/>
</linearGradient>
<linearGradient gradientTransform="matrix(.51157,0,0,.56818,-.17762,2.84727)" gradientUnits="userSpaceOnUse" id="linearGradient3706" x1="24.097157" x2="24.322321" y1="9.5958176" y2="17.43243">
<stop id="stop3232" offset="0" style="stop-color:#ffefa7"/>
<stop id="stop3234" offset="1" style="stop-color:#ffc64c"/>
</linearGradient>
<linearGradient gradientTransform="matrix(.99998,0,0,1,-6.9015,4.40752)" gradientUnits="userSpaceOnUse" id="linearGradient2863-0" x1="18.779181" x2="18.893387" y1="7.4552402" y2="10.693204">
<stop id="stop2252" offset="0" style="stop-color:#ffc349"/>
<stop id="stop2256" offset="1" style="stop-color:#ff921a"/>
</linearGradient>
<linearGradient gradientTransform="matrix(.46574,0,0,.48509,.82234,4.53181)" gradientUnits="userSpaceOnUse" id="linearGradient2466" x1="23.782822" x2="23.903786" xlink:href="#linearGradient3495-841-851-719" y1="28.665567" y2="16.00676"/>
<linearGradient gradientTransform="matrix(.46574,0,0,.48509,.82234,-1.10198)" gradientUnits="userSpaceOnUse" id="linearGradient2469" x1="23.928667" x2="23.928667" xlink:href="#linearGradient3495-841-851-719" y1="30.773148" y2="45.530704"/>
<linearGradient gradientTransform="matrix(-.46574,0,0,.48509,17.07451,-1.06357)" gradientUnits="userSpaceOnUse" id="linearGradient2883" x1="23.928667" x2="23.928667" xlink:href="#linearGradient3495-841-851-719" y1="30.773148" y2="45.530704"/>
</defs>
<g id="layer1" transform="translate(-1,-7)">
<rect height="9.9507055" id="rect2396" rx="0.46666664" ry="0.45454553" style="stroke-linejoin:round;fill:url(#linearGradient2908);stroke-linecap:square;stroke:url(#linearGradient2910);fill-rule:evenodd" width="14.964789" x="1.5070417" y="11.507295"/>
<rect height="7.9859161" id="rect3331" rx="0.036476243" ry="0.035004593" style="opacity:0.4;fill:none;stroke-width:0.99999994;stroke-linecap:square;stroke:url(#linearGradient2472)" width="12.915493" x="2.4999998" y="12.472082"/>
<path d="m 6.6224065,17.013283 -4.500204,3.455598" id="path3341" style="opacity:0.5;fill:none;stroke:url(#linearGradient2469)"/>
<path d="m 1.8491555,12.146199 7.1508442,6.136053 6.9372063,-6.136053" id="path3493" style="stroke:url(#linearGradient2466);opacity:0.5;fill:none;stroke-width:1.00000012"/>
<path d="m 11.274444,17.051696 4.500204,3.455598" id="path2881" style="opacity:0.5;fill:none;stroke:url(#linearGradient2883)"/>
<path d="m 11.922148,7.3934383 c 0.325772,-0.00534 1.028958,2.8023337 1.295651,2.9894997 0.266693,0.187166 3.146134,-0.106214 3.251882,0.201967 0.105748,0.308182 -2.34717,1.844582 -2.442759,2.156064 -0.09559,0.311482 1.073223,2.959379 0.812808,3.155186 -0.260415,0.195807 -2.479587,-1.66232 -2.805358,-1.656979 -0.325772,0.0053 -2.4828468,1.93521 -2.7495409,1.748044 C 9.0181383,15.800054 10.099532,13.115269 9.9937833,12.807087 9.888036,12.498906 7.3860768,11.043735 7.4816663,10.732253 7.5772568,10.42077 10.464768,10.619608 10.725183,10.423801 10.985598,10.227994 11.596377,7.3987789 11.922148,7.3934383 z" id="path2876" style="stroke:#c08607;stroke-linejoin:round;fill:url(#linearGradient2863-0);stroke-width:0.99999261"/>
<path d="m 12.015621,8.4629055 -1.216895,2.5784235 -1.8490915,0.08302 1.6875855,1.499756 c 1.080266,-0.784794 1.507138,-1.400136 2.541863,0.03717 l 2.195662,-1.702976 -2.213561,0.08302 -1.145563,-2.5784235 z" id="path1322" style="fill:url(#linearGradient3706)"/>
</g>
</svg>
