<?xml version="1.0" encoding="utf8" standalone="no"?>
<svg height="16" id="svg2816" width="16" xmlns="http://www.w3.org/2000/svg" xmlns:svg="http://www.w3.org/2000/svg">
<defs id="defs2818">
<linearGradient gradientUnits="userSpaceOnUse" id="linearGradient3600" x1="4" x2="8.5904055" y1="-1" y2="13.34375">
<stop id="stop3595" offset="0" style="stop-color:#fff"/>
<stop id="stop3598" offset="1" style="stop-opacity:0;stop-color:#fff"/>
</linearGradient>
<radialGradient cx="5" cy="3" fx="5" fy="3" gradientTransform="matrix(1.375,0,0,1,-1.875,0)" gradientUnits="userSpaceOnUse" id="radialGradient3618" r="8">
<stop id="stop3597" offset="0" style="stop-color:#ddeb7d"/>
<stop id="stop3599" offset="0.45222297" style="stop-color:#b1c948"/>
<stop id="stop3601" offset="1" style="stop-color:#769123"/>
</radialGradient>
</defs>
<path d="m 4.5,11.5 c -1.5277778,-0.03125 -4,-1 -4,-4 l 0,-3 c 0,-3 2.5,-3.9166667 4,-4 l 7,0 c 1.5,0.1145829 4,1 4,4 l 0,3 c 0,3 -1.513889,4 -3,4 -2.396168,-0.01417 -0.516156,2.724315 0,4 l -0.666667,0 -4.333333,-4 -3,0 z" id="path2819" style="fill:url(#radialGradient3618);stroke:#699536"/>
<path d="M 4.5625,1.46875 C 3.9779722,1.5012238 3.1410127,1.7262692 2.53125,2.1875 1.9214873,2.6487308 1.46875,3.2671695 1.46875,4.5 l 0,3 c 0,1.235799 0.4269982,1.8798635 1.03125,2.34375 0.5959111,0.457483 1.4295699,0.670499 2,0.6875 l 0.03125,0 2.96875,0 a 0.96190641,0.96190641 0 0 1 0.65625,0.25 l 2.25,2.0625 c -0.07837,-0.430007 -0.112978,-0.890546 0.15625,-1.375 0.35897,-0.645939 1.156009,-0.942121 1.9375,-0.9375 0.527322,0 0.978108,-0.157481 1.34375,-0.5625 0.365642,-0.4050192 0.6875,-1.130536 0.6875,-2.46875 l 0,-3 C 14.53125,3.2671695 14.11029,2.6461958 13.5,2.1875 12.88971,1.7288042 12.040362,1.5148018 11.4375,1.46875 l -6.875,0 z" id="path3616" style="opacity:0.41999996;fill:none;stroke:url(#linearGradient3600)"/>
</svg>
