<?xml version="1.0" encoding="UTF-8" standalone="no"?>
<!-- Created with Inkscape (http://www.inkscape.org/) -->

<svg
   xmlns:dc="http://purl.org/dc/elements/1.1/"
   xmlns:cc="http://creativecommons.org/ns#"
   xmlns:rdf="http://www.w3.org/1999/02/22-rdf-syntax-ns#"
   xmlns:svg="http://www.w3.org/2000/svg"
   xmlns="http://www.w3.org/2000/svg"
   xmlns:xlink="http://www.w3.org/1999/xlink"
   xmlns:sodipodi="http://sodipodi.sourceforge.net/DTD/sodipodi-0.dtd"
   xmlns:inkscape="http://www.inkscape.org/namespaces/inkscape"
   inkscape:version="0.48.3.1 r9886"
   version="1.1"
   id="svg2"
   height="1000"
   width="1000"
   sodipodi:docname="qutim-message-new.svg">
  <defs
     id="defs4">
    <linearGradient
       id="linearGradient4414">
      <stop
         style="stop-color:#0069c8;stop-opacity:1;"
         offset="0"
         id="stop4416" />
      <stop
         style="stop-color:#55c4ff;stop-opacity:1;"
         offset="1"
         id="stop4418" />
    </linearGradient>
    <linearGradient
       inkscape:collect="always"
       xlink:href="#linearGradient4414"
       id="linearGradient4074"
       gradientUnits="userSpaceOnUse"
       gradientTransform="matrix(1.0490757,0,0,1.0489412,-24.240589,-25.304066)"
       x1="623.2478"
       y1="993.46124"
       x2="623.2478"
       y2="98.363487" />
  </defs>
  <sodipodi:namedview
     id="base"
     pagecolor="#ffffff"
     bordercolor="#666666"
     borderopacity="1.0"
     inkscape:pageopacity="0.0"
     inkscape:pageshadow="2"
     inkscape:zoom="0.175"
     inkscape:cx="-702.09939"
     inkscape:cy="524.76257"
     inkscape:document-units="px"
     inkscape:current-layer="layer1"
     showgrid="false"
     inkscape:window-width="1440"
     inkscape:window-height="848"
     inkscape:window-x="-8"
     inkscape:window-y="-8"
     inkscape:window-maximized="1"
     inkscape:snap-bbox="false"
     inkscape:snap-global="true"
     showguides="false"
     inkscape:guide-bbox="true">
    <sodipodi:guide
       orientation="1,0"
       position="0,810.14234"
       id="guide3219" />
    <sodipodi:guide
       orientation="1,0"
       position="1000.051,496.99505"
       id="guide3221" />
    <sodipodi:guide
       orientation="0,1"
       position="125.25891,1000.051"
       id="guide3223" />
    <sodipodi:guide
       orientation="0,1"
       position="-389.91888,499.01535"
       id="guide3224" />
    <sodipodi:guide
       orientation="1,0"
       position="499.01535,349.51278"
       id="guide3226" />
    <sodipodi:guide
       orientation="1,0"
       position="-499.01535,256.57874"
       id="guide3228" />
    <sodipodi:guide
       orientation="0,1"
       position="-909.13728,0"
       id="guide3230" />
  </sodipodi:namedview>
  <metadata
     id="metadata7">
    <rdf:RDF>
      <cc:Work
         rdf:about="">
        <dc:format>image/svg+xml</dc:format>
        <dc:type
           rdf:resource="http://purl.org/dc/dcmitype/StillImage" />
        <dc:title />
      </cc:Work>
    </rdf:RDF>
  </metadata>
  <g
     inkscape:label="Layer 1"
     inkscape:groupmode="layer"
     id="layer1"
     transform="translate(0,-52.362183)">
    <path
       style="opacity:0.07999998;fill:#000000;fill-opacity:1;fill-rule:nonzero;stroke:none"
       d="M 663.69075,52.383136 C 625.80611,56.797563 594.65038,81.343251 559.36623,93.901108 381.59953,175.13224 202.95335,254.44659 25.852766,337.13791 -2.7753454,357.16024 -7.9553564,401.03197 11.952514,428.78916 103.38238,627.832 192.03394,828.1469 284.71219,1026.6202 c 20.07597,28.8264 64.38927,33.642 92.41701,13.4395 198.75972,-91.19312 398.70974,-179.87025 596.9411,-272.16473 28.5359,-19.90636 33.9258,-63.68987 14.14555,-91.49012 C 896.96218,477.71389 808.18699,277.85117 716.04624,79.590048 704.45637,62.700428 684.17018,51.8191 663.69075,52.383136 z M 633.03814,203.66013 c 6.73612,9.93376 8.62192,22.26304 14.96201,32.46959 67.10875,149.59695 137.19519,297.88339 202.16391,448.40443 -10.21548,7.65961 -23.38599,9.34079 -34.18097,16.03623 C 666.5606,767.73283 518.24585,837.56069 368.01535,902.6156 359.85431,892.15656 358.46267,878.37945 351.37637,867.32924 284.39714,718.32073 214.67821,570.50736 149.87317,420.56152 c 9.42639,-7.7487 22.20447,-8.83778 32.34239,-15.41955 C 332.25442,337.7199 481.13233,267.66979 632.05463,202.2834 l 0.60972,0.85355 0.37379,0.52318 z"
       id="path4054-4-5"
       inkscape:connector-curvature="0" />
    <path
       style="opacity:0.1;fill:#000000;fill-opacity:1;fill-rule:nonzero;stroke:none"
       d="M 662.01884,60.840225 C 630.35312,65.314715 604.10724,85.619128 574.47533,96.17117 393.35981,178.91129 211.47629,259.9713 30.868659,343.82491 5.9435336,361.00154 1.5271126,399.29051 18.705937,423.34777 110,622.5734 199.03096,822.83643 291.40005,1021.5721 c 17.18457,24.9561 55.32934,29.2102 79.36914,12.1612 C 569.8021,942.70772 769.64005,853.42921 968.31622,761.63133 993.90085,744.76054 998.65685,706.24685 981.36415,681.71512 890.45277,483.03541 801.259,283.57527 709.68623,85.195333 699.50883,69.673989 680.69775,59.624597 662.01884,60.840225 z M 632.77587,193.30184 c 11.2979,3.83496 11.68365,17.65149 17.02481,26.56254 69.64866,154.7954 141.57843,308.59995 209.70667,464.04697 -2.08347,11.25866 -15.41135,12.58053 -23.74121,16.91862 -156.01928,70.13635 -310.96341,142.72893 -467.71801,211.16054 -11.41079,-3.22976 -12.50006,-16.87729 -17.3472,-25.80319 -69.79534,-155.24449 -142.082,-309.39777 -210.20387,-465.36356 2.36649,-11.09697 15.3549,-12.39242 23.83369,-16.75029 155.98498,-70.1367 310.86536,-142.79771 467.65831,-211.06665 l 0.78681,0.29502 z"
       id="path4024-2-0"
       inkscape:connector-curvature="0" />
    <path
       style="opacity:0.15;fill:#000000;fill-opacity:1;fill-rule:nonzero;stroke:none"
       d="M 661.82214,69.133417 C 638.41548,72.275038 619.08206,87.09604 597.21924,95.008552 410.43854,180.20108 223.09316,264.18987 36.638575,350.08577 15.549112,363.85725 10.645417,395.39349 24.550484,415.87786 115.96067,616.00739 205.77465,816.90739 298.13829,1016.582 c 14.22142,20.7884 45.7856,24.8899 66.17631,10.8487 199.57949,-91.09403 399.80659,-180.80154 599.05135,-272.61748 21.1288,-13.69999 25.9614,-45.2712 12.05641,-65.79258 C 884.57511,489.61353 794.59705,289.80862 703.22779,90.636709 694.54901,76.759021 678.21542,68.17628 661.82214,69.133417 z M 632.05463,184.61529 c 12.07454,0.34762 18.15351,13.14768 21.38153,23.04883 71.32539,157.69879 143.77677,314.90501 214.26709,472.96928 2.1312,11.56082 -8.54692,21.19467 -19.01922,23.50981 -159.0554,71.90636 -317.59418,145.0157 -477.06247,215.97661 -11.57368,2.0553 -21.01253,-8.73523 -23.38083,-19.08277 C 276.41779,742.06559 203.34799,583.6413 132.30117,424.33115 c -2.06935,-11.5668 8.52642,-21.30013 19.01924,-23.54259 158.97802,-71.85357 317.43783,-144.92104 476.80017,-215.87825 1.30232,-0.20177 2.6166,-0.28328 3.93405,-0.29502 z"
       id="path4010-8-8"
       inkscape:connector-curvature="0" />
    <path
       style="opacity:0.3;fill:#000000;fill-opacity:1;fill-rule:nonzero;stroke:none"
       d="m 663.1615,79.590048 c -4.64792,0.127031 -9.34988,1.201785 -13.86302,3.251026 L 48.074508,355.80884 C 30.021929,364.00582 22.08201,385.16475 30.28017,403.21467 L 303.31388,1004.329 c 8.1982,18.05 29.33002,25.9888 47.38259,17.792 L 951.92063,749.12356 c 18.0525,-8.19698 25.99252,-29.32636 17.79432,-47.37628 L 696.68115,100.60348 C 690.5324,87.066057 677.1055,79.208971 663.1615,79.590048 z m -32.63276,94.575242 c 11.15513,-0.30488 21.89086,5.98656 26.80976,16.81665 l 218.43886,480.91504 c 6.5585,14.44012 0.19471,31.33154 -14.24728,37.88919 L 380.55077,928.19583 c -14.44206,6.55767 -31.33572,0.1948 -37.89426,-14.24535 L 124.2177,433.03542 c -6.55852,-14.44013 -0.19476,-31.33153 14.24729,-37.88921 L 619.4442,176.73655 c 3.61051,-1.63941 7.36609,-2.46963 11.08454,-2.57126 z"
       id="path4022-2-3"
       inkscape:export-filename="C:\Users\Madnester\Desktop\Sketches\256.png"
       inkscape:export-xdpi="23.039482"
       inkscape:export-ydpi="23.039482"
       inkscape:connector-curvature="0" />
    <path
       style="fill:url(#linearGradient4074);fill-opacity:1.0;fill-rule:nonzero;stroke:none"
       d="m 663.1615,69.100638 c -4.64792,0.127026 -9.34988,1.201782 -13.86302,3.251026 L 48.074508,345.31943 C 30.021929,353.5164 22.08201,374.67534 30.28017,392.72526 l 273.03371,601.11437 c 8.1982,18.04987 29.33002,25.98877 47.38259,17.79187 L 951.92063,738.63415 c 18.0525,-8.19698 25.99252,-29.32637 17.79432,-47.37628 L 696.68115,90.114068 C 690.5324,76.576641 677.1055,68.719557 663.1615,69.100638 z"
       id="path3260"
       inkscape:connector-curvature="0" />
    <path
       style="opacity:0.6;fill:#ffffff;fill-opacity:1;fill-rule:nonzero;stroke:none"
       d="m 663.16581,69.087309 c -4.64799,0.127027 -9.35432,1.228698 -13.86747,3.277941 L 48.079618,345.31944 c -16.265347,7.38546 -24.296435,25.28197 -19.735737,41.95765 2.721762,-9.86932 9.649476,-18.49693 19.735737,-23.07671 L 649.29834,91.246193 c 4.51315,-2.049241 9.21948,-3.150913 13.86747,-3.277944 13.94397,-0.381094 27.35618,7.47418 33.50486,21.011601 L 969.7254,710.15432 c 0.81164,1.78697 1.4331,3.5768 1.93423,5.40861 2.14973,-7.78856 1.68356,-16.32441 -1.93423,-24.28955 L 696.67067,90.098908 C 690.52199,76.561488 677.10978,68.70622 663.16581,69.087309 z"
       id="path3264"
       inkscape:connector-curvature="0" />
  </g>
</svg>
