<?xml version="1.0" encoding="UTF-8" standalone="no"?>
<!-- Created with Inkscape (http://www.inkscape.org/) -->

<svg
   xmlns:dc="http://purl.org/dc/elements/1.1/"
   xmlns:cc="http://creativecommons.org/ns#"
   xmlns:rdf="http://www.w3.org/1999/02/22-rdf-syntax-ns#"
   xmlns:svg="http://www.w3.org/2000/svg"
   xmlns="http://www.w3.org/2000/svg"
   xmlns:xlink="http://www.w3.org/1999/xlink"
   xmlns:sodipodi="http://sodipodi.sourceforge.net/DTD/sodipodi-0.dtd"
   xmlns:inkscape="http://www.inkscape.org/namespaces/inkscape"
   inkscape:version="0.48.3.1 r9886"
   version="1.1"
   id="svg2"
   height="1000"
   width="1000"
   sodipodi:docname="qutim-offline.svg">
  <defs
     id="defs4">
    <linearGradient
       id="linearGradient4094">
      <stop
         style="stop-color:#aaaaaa;stop-opacity:1;"
         offset="0"
         id="stop4096" />
      <stop
         style="stop-color:#f0f0f0;stop-opacity:1;"
         offset="1"
         id="stop4098" />
    </linearGradient>
    <linearGradient
       inkscape:collect="always"
       xlink:href="#linearGradient4094"
       id="linearGradient4369"
       gradientUnits="userSpaceOnUse"
       gradientTransform="matrix(1.0490757,0,0,1.0489413,-24.240588,-25.304092)"
       x1="623.2478"
       y1="993.46124"
       x2="623.2478"
       y2="98.363487" />
  </defs>
  <sodipodi:namedview
     id="base"
     pagecolor="#ffffff"
     bordercolor="#666666"
     borderopacity="1.0"
     inkscape:pageopacity="0.0"
     inkscape:pageshadow="2"
     inkscape:zoom="0.175"
     inkscape:cx="511.47204"
     inkscape:cy="527.61971"
     inkscape:document-units="px"
     inkscape:current-layer="layer1"
     showgrid="false"
     inkscape:window-width="1440"
     inkscape:window-height="848"
     inkscape:window-x="-8"
     inkscape:window-y="-8"
     inkscape:window-maximized="1"
     inkscape:snap-bbox="false"
     inkscape:snap-global="true"
     showguides="false"
     inkscape:guide-bbox="true">
    <sodipodi:guide
       orientation="1,0"
       position="0,810.14234"
       id="guide3219" />
    <sodipodi:guide
       orientation="1,0"
       position="1000.051,496.99505"
       id="guide3221" />
    <sodipodi:guide
       orientation="0,1"
       position="125.25891,1000.051"
       id="guide3223" />
    <sodipodi:guide
       orientation="0,1"
       position="-389.91888,499.01535"
       id="guide3224" />
    <sodipodi:guide
       orientation="1,0"
       position="499.01535,349.51278"
       id="guide3226" />
    <sodipodi:guide
       orientation="1,0"
       position="-499.01535,256.57874"
       id="guide3228" />
    <sodipodi:guide
       orientation="0,1"
       position="-909.13728,0"
       id="guide3230" />
  </sodipodi:namedview>
  <metadata
     id="metadata7">
    <rdf:RDF>
      <cc:Work
         rdf:about="">
        <dc:format>image/svg+xml</dc:format>
        <dc:type
           rdf:resource="http://purl.org/dc/dcmitype/StillImage" />
        <dc:title />
      </cc:Work>
    </rdf:RDF>
  </metadata>
  <g
     inkscape:label="Layer 1"
     inkscape:groupmode="layer"
     id="layer1"
     transform="translate(0,-52.362183)">
    <path
       style="opacity:0.07999998;fill:#000000;fill-opacity:1;fill-rule:nonzero;stroke:none"
       d="M 663.69074,52.383115 C 625.8061,56.797542 594.65036,81.343231 559.36622,93.901094 381.59953,175.13224 202.95335,254.44658 25.852765,337.13791 -2.7753451,357.16024 -7.9553561,401.03197 11.952513,428.78916 103.38238,627.83202 192.03393,828.14693 284.71218,1026.6202 c 20.07598,28.8264 64.38928,33.642 92.41702,13.4395 C 575.8889,948.86662 775.83893,860.18948 974.07027,767.895 1002.6061,747.98863 1007.9961,704.20511 988.21595,676.40487 896.96216,477.7139 808.18697,277.85116 716.04623,79.590031 704.45636,62.700407 684.17017,51.819078 663.69074,52.383115 z M 633.03812,203.66013 c 6.73611,9.93375 8.62193,22.26303 14.96202,32.46959 67.10874,149.59696 137.19518,297.8834 202.16391,448.40445 -10.21548,7.65961 -23.38599,9.34079 -34.18098,16.03624 C 666.56059,767.73285 518.24584,837.56072 368.01535,902.61563 359.8543,892.15659 358.46266,878.37947 351.37636,867.32927 284.39714,718.32076 214.6782,570.50738 149.87318,420.56153 c 9.42638,-7.74871 22.20446,-8.83779 32.34237,-15.41956 150.03886,-67.42208 298.91677,-137.47219 449.83906,-202.85858 l 0.60972,0.85355 0.37379,0.52319 z"
       id="path4054-4"
       inkscape:connector-curvature="0" />
    <path
       style="opacity:0.1;fill:#000000;fill-opacity:1;fill-rule:nonzero;stroke:none"
       d="m 662.01883,60.840204 c -31.66572,4.47449 -57.9116,24.7789 -87.54352,35.330946 C 393.35979,178.91128 211.47627,259.97129 30.868659,343.82491 5.9435329,361.00155 1.5271129,399.29052 18.705937,423.34778 110,622.57341 199.03095,822.83646 291.40004,1021.5722 c 17.18458,24.956 55.32934,29.2101 79.36913,12.1611 199.03291,-91.02554 398.87087,-180.30406 597.54703,-272.10194 25.58455,-16.8708 30.34065,-55.38449 13.04785,-79.91622 C 890.45275,483.03542 801.25897,283.57526 709.68621,85.195311 699.50881,69.673969 680.69773,59.624576 662.01883,60.840204 z M 632.77585,193.30183 c 11.29791,3.83496 11.68366,17.6515 17.02482,26.56254 69.64866,154.79541 141.57842,308.59997 209.70666,464.04699 -2.08347,11.25868 -15.41134,12.58054 -23.74121,16.91863 -156.01927,70.13636 -310.9634,142.72894 -467.71799,211.16055 -11.4108,-3.22976 -12.50007,-16.87729 -17.34721,-25.80319 -69.79534,-155.2445 -142.082,-309.39778 -210.20386,-465.36359 2.36649,-11.09696 15.3549,-12.39241 23.83369,-16.75028 C 320.31573,333.93677 475.1961,261.27576 631.98904,193.00681 l 0.78681,0.29502 z"
       id="path4024-2"
       inkscape:connector-curvature="0" />
    <path
       style="opacity:0.15;fill:#000000;fill-opacity:1;fill-rule:nonzero;stroke:none"
       d="M 661.82213,69.133397 C 638.41547,72.275018 619.08205,87.096024 597.21923,95.008535 410.43853,180.20108 223.09316,264.18986 36.638575,350.08578 15.549111,363.85725 10.645417,395.3935 24.550485,415.87787 115.96067,616.00741 205.77465,816.90742 298.13829,1016.5821 c 14.2214,20.7883 45.78559,24.8899 66.17631,10.8485 199.57947,-91.0939 399.80657,-180.80141 599.05133,-272.61736 21.12882,-13.69998 25.96132,-45.2712 12.05639,-65.79258 C 884.5751,489.61353 794.59703,289.80862 703.22778,90.636694 694.54899,76.759001 678.21541,68.176259 661.82213,69.133397 z M 632.05461,184.61528 c 12.07454,0.34762 18.15352,13.14768 21.38152,23.04883 71.3254,157.6988 143.77677,314.90503 214.2671,472.96931 2.1312,11.56082 -8.54692,21.19467 -19.01922,23.50982 -159.0554,71.90636 -317.59417,145.01571 -477.06246,215.97662 -11.57368,2.05529 -21.01253,-8.73523 -23.38082,-19.08278 C 276.41778,742.06561 203.34799,583.64131 132.30116,424.33116 c -2.06933,-11.5668 8.52643,-21.30014 19.01925,-23.5426 158.97802,-71.85357 317.43781,-144.92105 476.80016,-215.87826 1.30233,-0.20178 2.61661,-0.28328 3.93404,-0.29502 z"
       id="path4010-8"
       inkscape:connector-curvature="0" />
    <path
       style="opacity:0.3;fill:#000000;fill-opacity:1;fill-rule:nonzero;stroke:none"
       d="m 663.16148,79.590031 c -4.64793,0.127027 -9.34988,1.201782 -13.86301,3.251026 L 48.074507,355.80884 C 30.021929,364.00582 22.08201,385.16476 30.280169,403.21467 L 303.31388,1004.3291 c 8.19819,18.0498 29.33001,25.9888 47.38259,17.7919 L 951.92061,749.12358 c 18.0525,-8.19697 25.99254,-29.32636 17.79432,-47.37627 L 696.68113,100.60346 C 690.53239,87.066035 677.10548,79.20895 663.16148,79.590031 z m -32.63275,94.575249 c 11.15513,-0.30489 21.89085,5.98656 26.80976,16.81665 L 875.77734,671.897 c 6.5585,14.44012 0.19471,31.33154 -14.24729,37.88919 L 380.55077,928.19587 c -14.44206,6.55766 -31.33573,0.19479 -37.89425,-14.24536 L 124.21771,433.03542 c -6.55854,-14.44012 -0.19477,-31.33153 14.24728,-37.88921 l 480.9792,-218.40967 c 3.6105,-1.63941 7.36609,-2.46963 11.08454,-2.57126 z"
       id="path4022-2"
       inkscape:export-filename="C:\Users\Madnester\Desktop\Sketches\256.png"
       inkscape:export-xdpi="23.039482"
       inkscape:export-ydpi="23.039482"
       inkscape:connector-curvature="0" />
    <path
       style="fill:url(#linearGradient4369);fill-opacity:1;fill-rule:nonzero;stroke:none"
       d="m 663.16148,69.100617 c -4.64793,0.127027 -9.34988,1.201783 -13.86301,3.251026 L 48.074507,345.31942 C 30.021929,353.51641 22.08201,374.67535 30.280169,392.72526 L 303.31388,993.83967 c 8.19819,18.04983 29.33001,25.98873 47.38259,17.79193 L 951.92061,738.63417 c 18.0525,-8.19697 25.99254,-29.32637 17.79432,-47.37628 L 696.68113,90.114049 C 690.53239,76.576622 677.10548,68.719537 663.16148,69.100617 z"
       id="path3239"
       inkscape:connector-curvature="0" />
    <path
       style="opacity:0.6;fill:#ffffff;fill-opacity:1;fill-rule:nonzero;stroke:none"
       d="m 663.1658,69.087288 c -4.648,0.127027 -9.35433,1.228699 -13.86747,3.277942 L 48.079616,345.31943 c -16.265347,7.38547 -24.296435,25.28199 -19.735736,41.95766 2.721762,-9.86933 9.649476,-18.49693 19.735736,-23.07671 L 649.29833,91.246171 c 4.51314,-2.049243 9.21947,-3.150915 13.86747,-3.277942 13.94396,-0.38109 27.35619,7.474179 33.50485,21.011611 l 273.05473,601.1745 c 0.81165,1.78697 1.4331,3.57681 1.93423,5.4086 2.14972,-7.78855 1.68355,-16.3244 -1.93423,-24.28954 L 696.67065,90.098891 C 690.52199,76.561468 677.10976,68.706199 663.1658,69.087288 z"
       id="path3243"
       inkscape:connector-curvature="0" />
  </g>
</svg>
