<?xml version="1.0" encoding="UTF-8" standalone="no"?>
<!-- Created with Inkscape (http://www.inkscape.org/) -->

<svg
   xmlns:dc="http://purl.org/dc/elements/1.1/"
   xmlns:cc="http://creativecommons.org/ns#"
   xmlns:rdf="http://www.w3.org/1999/02/22-rdf-syntax-ns#"
   xmlns:svg="http://www.w3.org/2000/svg"
   xmlns="http://www.w3.org/2000/svg"
   xmlns:sodipodi="http://sodipodi.sourceforge.net/DTD/sodipodi-0.dtd"
   xmlns:inkscape="http://www.inkscape.org/namespaces/inkscape"
   inkscape:version="0.48.3.1 r9886"
   version="1.1"
   id="svg2"
   height="32"
   width="32"
   sodipodi:docname="qutim-message-new.svg"
   inkscape:export-filename="/home/madnester/Рабочий стол/q22.png"
   inkscape:export-xdpi="1.98"
   inkscape:export-ydpi="1.98">
  <defs
     id="defs4" />
  <sodipodi:namedview
     id="base"
     pagecolor="#ffffff"
     bordercolor="#666666"
     borderopacity="1.0"
     inkscape:pageopacity="0.0"
     inkscape:pageshadow="2"
     inkscape:zoom="22.4"
     inkscape:cx="21.811515"
     inkscape:cy="16.352551"
     inkscape:document-units="px"
     inkscape:current-layer="layer1"
     showgrid="true"
     inkscape:window-width="1440"
     inkscape:window-height="848"
     inkscape:window-x="-8"
     inkscape:window-y="-8"
     inkscape:window-maximized="1"
     inkscape:snap-bbox="false"
     inkscape:snap-global="true"
     showguides="false"
     inkscape:guide-bbox="true">
    <sodipodi:guide
       orientation="1,0"
       position="0,810.14234"
       id="guide3219" />
    <sodipodi:guide
       orientation="1,0"
       position="1000.051,496.99505"
       id="guide3221" />
    <sodipodi:guide
       orientation="0,1"
       position="125.25891,1000.051"
       id="guide3223" />
    <sodipodi:guide
       orientation="0,1"
       position="-389.91888,499.01535"
       id="guide3224" />
    <sodipodi:guide
       orientation="1,0"
       position="499.01535,349.51278"
       id="guide3226" />
    <sodipodi:guide
       orientation="1,0"
       position="-499.01535,256.57874"
       id="guide3228" />
    <sodipodi:guide
       orientation="0,1"
       position="-909.13728,0"
       id="guide3230" />
    <inkscape:grid
       type="xygrid"
       id="grid3230" />
  </sodipodi:namedview>
  <metadata
     id="metadata7">
    <rdf:RDF>
      <cc:Work
         rdf:about="">
        <dc:format>image/svg+xml</dc:format>
        <dc:type
           rdf:resource="http://purl.org/dc/dcmitype/StillImage" />
        <dc:title />
      </cc:Work>
    </rdf:RDF>
  </metadata>
  <g
     inkscape:label="Layer 1"
     inkscape:groupmode="layer"
     id="layer1"
     transform="translate(0,-1020.3622)">
    <path
       inkscape:connector-curvature="0"
       style="font-size:medium;font-style:normal;font-variant:normal;font-weight:normal;font-stretch:normal;text-indent:0;text-align:start;text-decoration:none;line-height:normal;letter-spacing:normal;word-spacing:normal;text-transform:none;direction:ltr;block-progression:tb;writing-mode:lr-tb;text-anchor:start;baseline-shift:baseline;color:#000000;fill:#e6e6e6;fill-opacity:1;fill-rule:nonzero;stroke:none;stroke-width:30;marker:none;visibility:visible;display:inline;overflow:visible;enable-background:accumulate;font-family:Sans;-inkscape-font-specification:Sans"
       d="m 21.307268,1020.3623 c -0.02338,-2e-4 -0.04704,3e-4 -0.07049,9e-4 -0.25411,0.01 -0.505269,0.067 -0.740144,0.1734 l -3.976013,1.8048 c -0.234549,-0.5054 -0.40891,-0.9631 -0.473425,-1.3 -0.194779,-0.6138 -1.012874,-0.91 -1.440281,-0.1762 -0.349666,0.7572 -0.331278,1.6008 -0.225758,2.4487 l -13.258775,6.0193 c -0.957599,0.4348 -1.387425,1.578 -0.952567,2.5354 l 8.798859,19.3715 c 0.434678,0.957 1.577328,1.3872 2.534779,0.9524 l 19.374251,-8.7976 c 0.95717,-0.4346 1.387391,-1.578 0.952567,-2.5353 l -8.798857,-19.3725 c -0.315149,-0.6938 -0.999435,-1.1177 -1.724146,-1.1248 z"
       id="path4044-2" />
    <path
       style="fill:#656565;fill-opacity:1;fill-rule:nonzero;stroke:none"
       d="m 20.829915,1022.3626 c -0.137585,0 -0.276769,0.037 -0.410367,0.096 l -17.797193,8.0813 c -0.5343852,0.2427 -0.7694203,0.8691 -0.5267412,1.4036 l 8.0822342,17.7961 c 0.24268,0.5343 0.868216,0.7694 1.402601,0.5267 l 17.797196,-8.0822 c 0.534385,-0.2427 0.769422,-0.8683 0.526739,-1.4025 l -8.082235,-17.7972 c -0.182011,-0.4007 -0.57947,-0.6333 -0.992234,-0.6221 z m -0.965983,2.7999 c 0.330211,-0.011 0.648003,0.1772 0.793613,0.4978 l 6.466138,14.2378 c 0.194145,0.4274 0.0058,0.9274 -0.421742,1.1216 l -14.237757,6.4661 c -0.427507,0.1942 -0.927586,0.011 -1.121731,-0.4219 l -6.4661372,-14.2375 c -0.1941439,-0.4276 -0.0058,-0.9275 0.4217422,-1.1217 l 14.237755,-6.4661 c 0.106882,-0.048 0.218049,-0.074 0.328119,-0.076 z"
       id="path3222-0"
       inkscape:export-filename="C:\Users\Madnester\Desktop\Sketches\256.png"
       inkscape:export-xdpi="23.039482"
       inkscape:export-ydpi="23.039482"
       inkscape:connector-curvature="0" />
    <path
       style="fill:#3473e3;fill-opacity:1;stroke:none"
       d="m 10.888352,1027.2704 c 0,0 2.02095,2.3067 -0.376557,7.3459 -0.860704,1.8091 -2.151762,3.1796 -1.936584,5.7013 0.355277,4.1635 3.76558,6.3591 7.315987,6.3591 3.550404,0 7.315986,-2.8507 7.531162,-6.0302 0.215175,-3.1796 -1.721411,-4.276 -2.259352,-5.482 -0.537938,-1.206 0.161384,-3.947 1.129678,-5.482 -1.506235,1.0416 -1.667616,1.0416 -2.635909,3.344 -0.968293,2.3025 0.437778,5.2329 -0.860705,5.9206 -1.649057,0.8733 -2.986765,-1.0837 -2.474524,-3.0151 0.537939,-2.0284 2.188175,-4.1256 2.366936,-6.6881 0.148846,-2.1336 -2.958671,-5.8109 -3.389022,-8.0585 -0.860705,1.8639 1.089923,5.6945 0.430353,7.8393 -1.419252,4.615 -3.001521,5.1122 -2.958671,2.1379 0.02456,-1.7047 -1.882792,-3.8922 -1.882792,-3.8922 z"
       id="path3265-6"
       inkscape:connector-curvature="0"
       sodipodi:nodetypes="cssssscsssscssc"
       inkscape:export-filename="C:\Users\Madnester\Desktop\Sketches\256.png"
       inkscape:export-xdpi="23.039482"
       inkscape:export-ydpi="23.039482" />
  </g>
</svg>
