<?xml version="1.0" encoding="UTF-8" standalone="no"?>
<!-- Created with Inkscape (http://www.inkscape.org/) -->

<svg
   xmlns:dc="http://purl.org/dc/elements/1.1/"
   xmlns:cc="http://creativecommons.org/ns#"
   xmlns:rdf="http://www.w3.org/1999/02/22-rdf-syntax-ns#"
   xmlns:svg="http://www.w3.org/2000/svg"
   xmlns="http://www.w3.org/2000/svg"
   xmlns:xlink="http://www.w3.org/1999/xlink"
   xmlns:sodipodi="http://sodipodi.sourceforge.net/DTD/sodipodi-0.dtd"
   xmlns:inkscape="http://www.inkscape.org/namespaces/inkscape"
   inkscape:version="0.48+devel r11882"
   version="1.1"
   id="svg2"
   height="24"
   width="24"
   sodipodi:docname="qutim-connecting.svg">
  <defs
     id="defs4">
    <linearGradient
       y2="98.363487"
       x2="623.2478"
       y1="993.46124"
       x1="623.2478"
       gradientTransform="matrix(0.02517782,0,0,0.02517459,-0.58177392,1026.4982)"
       gradientUnits="userSpaceOnUse"
       id="linearGradient4369"
       xlink:href="#linearGradient4414-9"
       inkscape:collect="always" />
    <linearGradient
       id="linearGradient4094">
      <stop
         id="stop4096"
         offset="0"
         style="stop-color:#aaaaaa;stop-opacity:1;" />
      <stop
         id="stop4098"
         offset="1"
         style="stop-color:#f0f0f0;stop-opacity:1;" />
    </linearGradient>
    <linearGradient
       id="linearGradient4414-9">
      <stop
         id="stop4416-1"
         offset="0"
         style="stop-color:#0069c8;stop-opacity:1;" />
      <stop
         id="stop4418-5"
         offset="1"
         style="stop-color:#55c4ff;stop-opacity:1;" />
    </linearGradient>
    <linearGradient
       inkscape:collect="always"
       xlink:href="#linearGradient4414-9"
       id="linearGradient3905"
       gradientUnits="userSpaceOnUse"
       gradientTransform="matrix(0.72727273,0,0,0.74999949,4.3636364,-12.7497)"
       x1="13.25"
       y1="43.666695"
       x2="13.25"
       y2="26.333351" />
    <linearGradient
       inkscape:collect="always"
       xlink:href="#linearGradient4094"
       id="linearGradient3796"
       x1="16.02927"
       y1="1042.3123"
       x2="15.976583"
       y2="1035.426"
       gradientUnits="userSpaceOnUse"
       gradientTransform="matrix(1.3333324,0,0,1.730187,-4.6666475,-761.00711)" />
    <linearGradient
       inkscape:collect="always"
       xlink:href="#linearGradient4094"
       id="linearGradient3806"
       x1="8.8205662"
       y1="1048.4419"
       x2="9.0011044"
       y2="1041.5299"
       gradientUnits="userSpaceOnUse"
       gradientTransform="matrix(1.4444444,0,0,1.7297313,-5.2222222,-763.07682)" />
  </defs>
  <sodipodi:namedview
     id="base"
     pagecolor="#ffffff"
     bordercolor="#666666"
     borderopacity="1.0"
     inkscape:pageopacity="0.0"
     inkscape:pageshadow="2"
     inkscape:zoom="16"
     inkscape:cx="18.212238"
     inkscape:cy="13.004851"
     inkscape:document-units="px"
     inkscape:current-layer="layer1"
     showgrid="false"
     inkscape:window-width="1440"
     inkscape:window-height="848"
     inkscape:window-x="-8"
     inkscape:window-y="-8"
     inkscape:window-maximized="1"
     inkscape:snap-bbox="false"
     inkscape:snap-global="true"
     showguides="false"
     inkscape:guide-bbox="true"
     width="0px"
     height="0px"
     fit-margin-top="0"
     fit-margin-left="0"
     fit-margin-right="0"
     fit-margin-bottom="0">
    <sodipodi:guide
       orientation="1,0"
       position="0,810.14234"
       id="guide3219" />
    <sodipodi:guide
       orientation="1,0"
       position="1000.051,496.99505"
       id="guide3221" />
    <sodipodi:guide
       orientation="0,1"
       position="125.25891,1000.051"
       id="guide3223" />
    <sodipodi:guide
       orientation="0,1"
       position="-389.91888,499.01535"
       id="guide3224" />
    <sodipodi:guide
       orientation="1,0"
       position="499.01535,349.51278"
       id="guide3226" />
    <sodipodi:guide
       orientation="1,0"
       position="-499.01535,256.57874"
       id="guide3228" />
    <sodipodi:guide
       orientation="0,1"
       position="-909.13728,0"
       id="guide3230" />
    <inkscape:grid
       type="xygrid"
       id="grid3087" />
  </sodipodi:namedview>
  <metadata
     id="metadata7">
    <rdf:RDF>
      <cc:Work
         rdf:about="">
        <dc:format>image/svg+xml</dc:format>
        <dc:type
           rdf:resource="http://purl.org/dc/dcmitype/StillImage" />
        <dc:title />
      </cc:Work>
    </rdf:RDF>
  </metadata>
  <g
     inkscape:label="Layer 1"
     inkscape:groupmode="layer"
     id="layer1"
     transform="translate(0,-1028.3622)">
    <path
       style="opacity:0.07999998;fill:#000000;fill-opacity:1;fill-rule:nonzero;stroke:none"
       d="m 15.928577,1028.3627 c -0.909231,0.1059 -1.656969,0.695 -2.503788,0.9964 -4.2664005,1.9496 -8.5539086,3.8531 -12.8043225,5.8377 -0.68707461,0.4805 -0.81139487,1.5335 -0.33360604,2.1996 2.19431674,4.7771 4.32195384,9.5846 6.54623174,14.348 0.4818235,0.6918 1.5453426,0.8074 2.2180084,0.3225 4.7702324,-2.1886 9.5690324,-4.3169 14.3265844,-6.5319 0.68486,-0.4778 0.81422,-1.5286 0.339497,-2.1958 -2.190091,-4.7686 -4.320696,-9.5653 -6.532073,-14.3235 C 16.906952,1028.6103 16.420083,1028.3492 15.928577,1028.3627 z m -0.735663,3.6306 c 0.161667,0.2385 0.206926,0.5344 0.359089,0.7793 1.610609,3.5903 3.292684,7.1492 4.851933,10.7617 -0.245171,0.1839 -0.561263,0.2242 -0.820343,0.3849 -3.58614,1.6119 -7.145693,3.2878 -10.7512248,4.8491 -0.1958652,-0.251 -0.2292646,-0.5817 -0.3993358,-0.8469 -1.6075012,-3.5762 -3.2807557,-7.1237 -4.8360761,-10.7224 0.2262331,-0.186 0.5329071,-0.2121 0.7762169,-0.3701 3.6009325,-1.6181 7.1740018,-3.2993 10.7961368,-4.8686 l 0.01463,0.021 L 15.19294,1031.9933 Z"
       id="path4054-4"
       inkscape:connector-curvature="0" />
    <path
       style="opacity:0.1;fill:#000000;fill-opacity:1;fill-rule:nonzero;stroke:none"
       d="m 15.888451,1028.5657 c -0.759977,0.1074 -1.389878,0.5947 -2.101044,0.8479 -4.3467723,1.9858 -8.7119766,3.9312 -13.04655905,5.9437 -0.598203,0.4122 -0.70419708,1.3312 -0.29190532,1.9085 2.19105747,4.7815 4.32780017,9.5878 6.54465817,14.3574 0.4124299,0.599 1.3279041,0.7011 1.9048591,0.2919 4.7767891,-2.1846 9.5729001,-4.3273 14.3411281,-6.5304 0.614029,-0.4049 0.728175,-1.3293 0.313148,-1.918 -2.181871,-4.7683 -4.322522,-9.5554 -6.520268,-14.3165 C 16.788211,1028.7777 16.336745,1028.5365 15.888451,1028.5657 z m -0.701831,3.179 c 0.27115,0.092 0.280408,0.4237 0.408595,0.6375 1.671568,3.7151 3.397882,7.4064 5.03296,11.1372 -0.05,0.2702 -0.369872,0.3019 -0.569789,0.406 -3.744462,1.6833 -7.463121,3.4255 -11.2252311,5.0679 -0.2738592,-0.078 -0.3000017,-0.4051 -0.416333,-0.6193 -1.6750881,-3.7259 -3.4099679,-7.4255 -5.0448924,-11.1687 0.056796,-0.2664 0.3685176,-0.2974 0.5720085,-0.402 3.7436394,-1.6833 7.460768,-3.4272 11.223798,-5.0656 L 15.186616,1031.7477 Z"
       id="path4024-2"
       inkscape:connector-curvature="0" />
    <path
       style="opacity:0.15;fill:#000000;fill-opacity:1;fill-rule:nonzero;stroke:none"
       d="m 15.88373,1028.7647 c -0.561759,0.075 -1.025762,0.4311 -1.550469,0.621 -4.4827365,2.0446 -8.9790252,4.0604 -13.45393508,6.1219 -0.50614711,0.3305 -0.62383576,1.0873 -0.29011414,1.579 2.19384432,4.8031 4.34937982,9.6247 6.56610702,14.4169 0.3413136,0.4989 1.0988541,0.5973 1.5882314,0.2603 4.7899068,-2.1862 9.5953568,-4.3392 14.3772308,-6.5428 0.507092,-0.3288 0.623072,-1.0865 0.289354,-1.579 -2.180334,-4.7858 -4.339807,-9.5811 -6.532669,-14.3612 C 16.669175,1028.9477 16.277169,1028.7417 15.88373,1028.7647 z m -0.71442,2.7716 c 0.289789,0.01 0.435684,0.3155 0.513156,0.5531 1.71181,3.7848 3.450643,7.5578 5.142411,11.3513 0.05115,0.2775 -0.205127,0.5087 -0.456462,0.5642 -3.817329,1.7258 -7.622259,3.4804 -11.449498,5.1835 -0.2777683,0.049 -0.5043007,-0.2097 -0.5611397,-0.458 -1.7237507,-3.8153 -3.4774256,-7.6175 -5.1825494,-11.4409 -0.049664,-0.2777 0.2046343,-0.5113 0.456462,-0.5651 3.8154723,-1.7245 7.6185071,-3.4781 11.4432031,-5.181 C 15.106153,1031.5434 15.137693,1031.5334 15.169313,1031.5334 Z"
       id="path4010-8"
       inkscape:connector-curvature="0" />
    <path
       style="opacity:0.3;fill:#000000;fill-opacity:1;fill-rule:nonzero;stroke:none"
       d="m 15.915875,1029.0157 c -0.111551,0 -0.224397,0.029 -0.332712,0.078 l -14.4293747,6.5512 c -0.43326187,0.1967 -0.62381992,0.7046 -0.42706411,1.1378 l 6.55280881,14.4267 c 0.1967565,0.4332 0.7039202,0.6237 1.1371821,0.427 l 14.4293789,-6.5519 c 0.43326,-0.1968 0.623821,-0.7039 0.427063,-1.1371 L 16.720346,1029.52 C 16.572777,1029.1951 16.250531,1029.0065 15.915875,1029.0157 z m -0.783186,2.2698 c 0.267723,-0.01 0.52538,0.1436 0.643434,0.4036 l 5.242532,11.5419 c 0.157404,0.3466 0.0047,0.752 -0.341935,0.9094 l -11.5435018,5.2418 c -0.3466094,0.1574 -0.7520574,0 -0.9094619,-0.3419 l -5.2425312,-11.5419 c -0.157405,-0.3466 -0.00467,-0.752 0.3419347,-0.9094 L 14.86666,1031.3472 C 14.95331,1031.3082 15.043446,1031.2882 15.132689,1031.2852 Z"
       id="path4022-2"
       inkscape:export-filename="C:\Users\Madnester\Desktop\Sketches\256.png"
       inkscape:export-xdpi="23.039482"
       inkscape:export-ydpi="23.039482"
       inkscape:connector-curvature="0" />
    <path
       style="fill:url(#linearGradient4369);fill-opacity:1.0;fill-rule:nonzero;stroke:none"
       d="m 15.915875,1028.7639 c -0.111551,0 -0.224397,0.029 -0.332712,0.078 l -14.4293747,6.5513 c -0.43326187,0.1967 -0.62381992,0.7045 -0.42706411,1.1377 l 6.55280881,14.4268 c 0.1967565,0.4332 0.7039202,0.6237 1.1371821,0.427 l 14.4293789,-6.552 c 0.43326,-0.1967 0.623821,-0.7038 0.427063,-1.137 l -6.552811,-14.4275 C 16.572777,1028.9433 16.250531,1028.7548 15.915875,1028.7639 Z"
       id="path3239"
       inkscape:connector-curvature="0" />
    <path
       id="path856"
       transform="translate(0,1028.3622)"
       d="M 16.03125 2 L 15.9375 2.0625 A 0.10001 0.10001 0 0 0 15.9375 2.09375 A 0.10001 0.10001 0 0 0 15.90625 2.125 A 0.10001 0.10001 0 0 0 15.90625 2.15625 L 15.90625 5.03125 L 10 5.03125 A 0.10001 0.10001 0 0 0 9.96875 5.03125 A 0.10001 0.10001 0 0 0 9.9375 5.03125 A 0.10001 0.10001 0 0 0 9.9375 5.0625 A 0.10001 0.10001 0 0 0 9.90625 5.0625 A 0.10001 0.10001 0 0 0 9.90625 5.09375 A 0.10001 0.10001 0 0 0 9.90625 5.125 L 9.90625 11.09375 A 0.10001 0.10001 0 0 0 9.90625 11.125 A 0.10001 0.10001 0 0 0 9.90625 11.15625 A 0.10001 0.10001 0 0 0 9.9375 11.15625 A 0.10001 0.10001 0 0 0 9.9375 11.1875 A 0.10001 0.10001 0 0 0 9.96875 11.1875 A 0.10001 0.10001 0 0 0 10 11.1875 L 15.90625 11.1875 L 15.90625 14.03125 A 0.10001 0.10001 0 0 0 15.90625 14.0625 A 0.10001 0.10001 0 0 0 15.90625 14.09375 A 0.10001 0.10001 0 0 0 15.9375 14.09375 A 0.10001 0.10001 0 0 0 15.9375 14.125 L 16.03125 14.1875 A 0.10001 0.10001 0 0 0 16.0625 14.1875 A 0.10001 0.10001 0 0 0 16.09375 14.1875 A 0.10001 0.10001 0 0 0 16.125 14.1875 A 0.10001 0.10001 0 0 0 16.15625 14.1875 A 0.10001 0.10001 0 0 0 16.15625 14.15625 L 22.0625 8.15625 A 0.10001 0.10001 0 0 0 22.09375 8.15625 A 0.10001 0.10001 0 0 0 22.09375 8.125 A 0.10001 0.10001 0 0 0 22.09375 8.09375 A 0.10001 0.10001 0 0 0 22.09375 8.0625 A 0.10001 0.10001 0 0 0 22.09375 8.03125 A 0.10001 0.10001 0 0 0 22.0625 8.03125 L 16.15625 2.03125 A 0.10001 0.10001 0 0 0 16.15625 2 A 0.10001 0.10001 0 0 0 16.125 2 A 0.10001 0.10001 0 0 0 16.09375 2 A 0.10001 0.10001 0 0 0 16.0625 2 A 0.10001 0.10001 0 0 0 16.03125 2 z M 7.84375 10 A 0.10001 0.10001 0 0 0 7.84375 10.03125 L 1.9375 16.03125 A 0.10001 0.10001 0 0 0 1.90625 16.0625 A 0.10001 0.10001 0 0 0 1.90625 16.09375 A 0.10001 0.10001 0 0 0 1.90625 16.125 A 0.10001 0.10001 0 0 0 1.90625 16.15625 A 0.10001 0.10001 0 0 0 1.9375 16.15625 L 7.84375 22.15625 A 0.10001 0.10001 0 0 0 7.84375 22.1875 A 0.10001 0.10001 0 0 0 7.875 22.1875 A 0.10001 0.10001 0 0 0 7.90625 22.1875 A 0.10001 0.10001 0 0 0 7.9375 22.1875 A 0.10001 0.10001 0 0 0 7.96875 22.1875 L 8.0625 22.125 A 0.10001 0.10001 0 0 0 8.0625 22.09375 A 0.10001 0.10001 0 0 0 8.09375 22.09375 A 0.10001 0.10001 0 0 0 8.09375 22.0625 A 0.10001 0.10001 0 0 0 8.09375 22.03125 L 8.09375 19.1875 L 14.03125 19.1875 A 0.10001 0.10001 0 0 0 14.0625 19.1875 A 0.10001 0.10001 0 0 0 14.09375 19.1875 A 0.10001 0.10001 0 0 0 14.125 19.1875 A 0.10001 0.10001 0 0 0 14.125 19.15625 A 0.10001 0.10001 0 0 0 14.125 19.125 A 0.10001 0.10001 0 0 0 14.125 19.09375 L 14.125 13.125 A 0.10001 0.10001 0 0 0 14.125 13.09375 A 0.10001 0.10001 0 0 0 14.09375 13.09375 A 0.10001 0.10001 0 0 0 14.09375 13.0625 A 0.10001 0.10001 0 0 0 14.0625 13.0625 A 0.10001 0.10001 0 0 0 14.0625 13.03125 A 0.10001 0.10001 0 0 0 14.03125 13.03125 L 8.09375 13.03125 L 8.09375 10.1875 A 0.10001 0.10001 0 0 0 8.09375 10.15625 A 0.10001 0.10001 0 0 0 8.0625 10.15625 A 0.10001 0.10001 0 0 0 8.0625 10.125 L 7.96875 10.03125 A 0.10001 0.10001 0 0 0 7.9375 10.03125 A 0.10001 0.10001 0 0 0 7.9375 10 A 0.10001 0.10001 0 0 0 7.90625 10 A 0.10001 0.10001 0 0 0 7.875 10 A 0.10001 0.10001 0 0 0 7.84375 10 z "
       style="opacity:0.08;fill:#000000;fill-opacity:1;stroke:#000000;stroke-width:0.8;stroke-linejoin:round;stroke-miterlimit:4;stroke-opacity:1;stroke-dasharray:none" />
    <path
       style="opacity:0.1;fill:#000000;fill-opacity:1;stroke:#000000;stroke-width:0.5;stroke-linejoin:round;stroke-miterlimit:4;stroke-opacity:1;stroke-dasharray:none"
       d="M 16.03125 2 L 15.9375 2.0625 A 0.10001 0.10001 0 0 0 15.9375 2.09375 A 0.10001 0.10001 0 0 0 15.90625 2.125 A 0.10001 0.10001 0 0 0 15.90625 2.15625 L 15.90625 5.03125 L 10 5.03125 A 0.10001 0.10001 0 0 0 9.96875 5.03125 A 0.10001 0.10001 0 0 0 9.9375 5.03125 A 0.10001 0.10001 0 0 0 9.9375 5.0625 A 0.10001 0.10001 0 0 0 9.90625 5.0625 A 0.10001 0.10001 0 0 0 9.90625 5.09375 A 0.10001 0.10001 0 0 0 9.90625 5.125 L 9.90625 11.09375 A 0.10001 0.10001 0 0 0 9.90625 11.125 A 0.10001 0.10001 0 0 0 9.90625 11.15625 A 0.10001 0.10001 0 0 0 9.9375 11.15625 A 0.10001 0.10001 0 0 0 9.9375 11.1875 A 0.10001 0.10001 0 0 0 9.96875 11.1875 A 0.10001 0.10001 0 0 0 10 11.1875 L 15.90625 11.1875 L 15.90625 14.03125 A 0.10001 0.10001 0 0 0 15.90625 14.0625 A 0.10001 0.10001 0 0 0 15.90625 14.09375 A 0.10001 0.10001 0 0 0 15.9375 14.09375 A 0.10001 0.10001 0 0 0 15.9375 14.125 L 16.03125 14.1875 A 0.10001 0.10001 0 0 0 16.0625 14.1875 A 0.10001 0.10001 0 0 0 16.09375 14.1875 A 0.10001 0.10001 0 0 0 16.125 14.1875 A 0.10001 0.10001 0 0 0 16.15625 14.1875 A 0.10001 0.10001 0 0 0 16.15625 14.15625 L 22.0625 8.15625 A 0.10001 0.10001 0 0 0 22.09375 8.15625 A 0.10001 0.10001 0 0 0 22.09375 8.125 A 0.10001 0.10001 0 0 0 22.09375 8.09375 A 0.10001 0.10001 0 0 0 22.09375 8.0625 A 0.10001 0.10001 0 0 0 22.09375 8.03125 A 0.10001 0.10001 0 0 0 22.0625 8.03125 L 16.15625 2.03125 A 0.10001 0.10001 0 0 0 16.15625 2 A 0.10001 0.10001 0 0 0 16.125 2 A 0.10001 0.10001 0 0 0 16.09375 2 A 0.10001 0.10001 0 0 0 16.0625 2 A 0.10001 0.10001 0 0 0 16.03125 2 z M 7.84375 10 A 0.10001 0.10001 0 0 0 7.84375 10.03125 L 1.9375 16.03125 A 0.10001 0.10001 0 0 0 1.90625 16.0625 A 0.10001 0.10001 0 0 0 1.90625 16.09375 A 0.10001 0.10001 0 0 0 1.90625 16.125 A 0.10001 0.10001 0 0 0 1.90625 16.15625 A 0.10001 0.10001 0 0 0 1.9375 16.15625 L 7.84375 22.15625 A 0.10001 0.10001 0 0 0 7.84375 22.1875 A 0.10001 0.10001 0 0 0 7.875 22.1875 A 0.10001 0.10001 0 0 0 7.90625 22.1875 A 0.10001 0.10001 0 0 0 7.9375 22.1875 A 0.10001 0.10001 0 0 0 7.96875 22.1875 L 8.0625 22.125 A 0.10001 0.10001 0 0 0 8.0625 22.09375 A 0.10001 0.10001 0 0 0 8.09375 22.09375 A 0.10001 0.10001 0 0 0 8.09375 22.0625 A 0.10001 0.10001 0 0 0 8.09375 22.03125 L 8.09375 19.1875 L 14.03125 19.1875 A 0.10001 0.10001 0 0 0 14.0625 19.1875 A 0.10001 0.10001 0 0 0 14.09375 19.1875 A 0.10001 0.10001 0 0 0 14.125 19.1875 A 0.10001 0.10001 0 0 0 14.125 19.15625 A 0.10001 0.10001 0 0 0 14.125 19.125 A 0.10001 0.10001 0 0 0 14.125 19.09375 L 14.125 13.125 A 0.10001 0.10001 0 0 0 14.125 13.09375 A 0.10001 0.10001 0 0 0 14.09375 13.09375 A 0.10001 0.10001 0 0 0 14.09375 13.0625 A 0.10001 0.10001 0 0 0 14.0625 13.0625 A 0.10001 0.10001 0 0 0 14.0625 13.03125 A 0.10001 0.10001 0 0 0 14.03125 13.03125 L 8.09375 13.03125 L 8.09375 10.1875 A 0.10001 0.10001 0 0 0 8.09375 10.15625 A 0.10001 0.10001 0 0 0 8.0625 10.15625 A 0.10001 0.10001 0 0 0 8.0625 10.125 L 7.96875 10.03125 A 0.10001 0.10001 0 0 0 7.9375 10.03125 A 0.10001 0.10001 0 0 0 7.9375 10 A 0.10001 0.10001 0 0 0 7.90625 10 A 0.10001 0.10001 0 0 0 7.875 10 A 0.10001 0.10001 0 0 0 7.84375 10 z "
       transform="translate(0,1028.3622)"
       id="path854" />
    <path
       style="opacity:0.6;fill:#ffffff;fill-opacity:1;fill-rule:nonzero;stroke:none"
       d="m 15.915978,1028.7636 c -0.111552,0 -0.224503,0.03 -0.332819,0.079 l -14.4292481,6.5509 c -0.39036831,0.1772 -0.58311442,0.6067 -0.47365765,1.007 0.0653223,-0.2369 0.23158742,-0.444 0.47365765,-0.5539 l 14.4292481,-6.5509 c 0.108316,-0.049 0.221267,-0.076 0.332819,-0.079 0.334655,-0.01 0.656549,0.1794 0.804117,0.5043 l 6.553313,14.4282 c 0.01948,0.043 0.03439,0.086 0.04642,0.1298 0.05159,-0.1869 0.0404,-0.3918 -0.04642,-0.5829 l -6.553313,-14.4282 C 16.572527,1028.943 16.250633,1028.7545 15.915978,1028.7636 Z"
       id="path3243"
       inkscape:connector-curvature="0" />
    <path
       id="path852"
       transform="translate(0,1028.3622)"
       d="M 16.03125,2 15.9375,2.0625 c -0.0016,0.010331 -0.0016,0.020919 0,0.03125 -0.01256,0.00792 -0.02333,0.018686 -0.03125,0.03125 -0.0016,0.010331 -0.0016,0.020919 0,0.03125 l 0,2.875 -5.90625,0 c -0.010331,-0.00163 -0.020919,-0.00163 -0.03125,0 -0.010331,-0.00163 -0.020919,-0.00163 -0.03125,0 -0.00163,0.010331 -0.00163,0.020919 0,0.03125 -0.010331,-0.00163 -0.020919,-0.00163 -0.03125,0 -0.00163,0.010331 -0.00163,0.020919 0,0.03125 -0.00163,0.010331 -0.00163,0.020919 0,0.03125 l 0,5.96875 c -0.00163,0.01033 -0.00163,0.02092 0,0.03125 -0.00163,0.01033 -0.00163,0.02092 0,0.03125 0.010331,0.0016 0.020919,0.0016 0.03125,0 -0.00163,0.01033 -0.00163,0.02092 0,0.03125 0.010331,0.0016 0.020919,0.0016 0.03125,0 0.010331,0.0016 0.020919,0.0016 0.03125,0 l 5.90625,0 0,2.84375 c -0.0016,0.01033 -0.0016,0.02092 0,0.03125 -0.0016,0.01033 -0.0016,0.02092 0,0.03125 0.01033,0.0016 0.02092,0.0016 0.03125,0 -0.0016,0.01033 -0.0016,0.02092 0,0.03125 l 0.09375,0.0625 c 0.01033,0.0016 0.02092,0.0016 0.03125,0 0.01033,0.0016 0.02092,0.0016 0.03125,0 0.01033,0.0016 0.02092,0.0016 0.03125,0 0.01033,0.0016 0.02092,0.0016 0.03125,0 0.0016,-0.01033 0.0016,-0.02092 0,-0.03125 l 5.90625,-6 c 0.01033,0.00163 0.02092,0.00163 0.03125,0 0.0016,-0.010331 0.0016,-0.020919 0,-0.03125 0.0016,-0.010331 0.0016,-0.020919 0,-0.03125 0.0016,-0.010331 0.0016,-0.020919 0,-0.03125 0.0016,-0.010331 0.0016,-0.020919 0,-0.03125 -0.01033,-0.00163 -0.02092,-0.00163 -0.03125,0 l -5.90625,-6 c 0.0016,-0.010331 0.0016,-0.020919 0,-0.03125 -0.01033,-0.00163 -0.02092,-0.00163 -0.03125,0 -0.01033,-0.00163 -0.02092,-0.00163 -0.03125,0 -0.01033,-0.00163 -0.02092,-0.00163 -0.03125,0 C 16.052169,1.9983659 16.041581,1.9983659 16.03125,2 z m -8.1875,8 c -0.00163,0.01033 -0.00163,0.02092 0,0.03125 -1.978453,2.009287 -5.9375,6.03125 -5.9375,6.03125 l 0,0.03125 0,0.03125 0,0.03125 c 0,0 3.9675228,3.998753 5.9375,6 -0.00163,0.01033 -0.00163,0.02092 0,0.03125 0.010331,0.0016 0.020919,0.0016 0.03125,0 0.010331,0.0016 0.020919,0.0016 0.03125,0 0.010331,0.0016 0.020919,0.0016 0.03125,0 0.010331,0.0016 0.020919,0.0016 0.03125,0 L 8.0625,22.125 c 0.00163,-0.01033 0.00163,-0.02092 0,-0.03125 0.010331,0.0016 0.020919,0.0016 0.03125,0 0.00163,-0.01033 0.00163,-0.02092 0,-0.03125 0.00163,-0.01033 0.00163,-0.02092 0,-0.03125 l 0,-2.84375 5.9375,0 c 0.01033,0.0016 0.02092,0.0016 0.03125,0 0.01033,0.0016 0.02092,0.0016 0.03125,0 0.01033,0.0016 0.02092,0.0016 0.03125,0 0.0016,-0.01033 0.0016,-0.02092 0,-0.03125 0.0016,-0.01033 0.0016,-0.02092 0,-0.03125 0.0016,-0.01033 0.0016,-0.02092 0,-0.03125 l 0,-5.96875 c 0.0016,-0.01033 0.0016,-0.02092 0,-0.03125 -0.01033,-0.0016 -0.02092,-0.0016 -0.03125,0 0.0016,-0.01033 0.0016,-0.02092 0,-0.03125 -0.01033,-0.0016 -0.02092,-0.0016 -0.03125,0 0.0016,-0.01033 0.0016,-0.02092 0,-0.03125 -0.01033,-0.0016 -0.02092,-0.0016 -0.03125,0 l -5.9375,0 0,-2.84375 c 0.00163,-0.01033 0.00163,-0.02092 0,-0.03125 -0.010331,-0.0016 -0.020919,-0.0016 -0.03125,0 0.00163,-0.01033 0.00163,-0.02092 0,-0.03125 L 7.96875,10.03125 c -0.010331,-0.0016 -0.020919,-0.0016 -0.03125,0 0.00163,-0.01033 0.00163,-0.02092 0,-0.03125 -0.010331,-0.00163 -0.020919,-0.00163 -0.03125,0 C 7.8959189,9.9983659 7.8853311,9.9983659 7.875,10 7.8646689,9.9983659 7.8540811,9.9983659 7.84375,10 Z"
       style="opacity:0.15;fill:#000000;fill-opacity:1;stroke:#000000;stroke-width:0.2;stroke-linejoin:round;stroke-miterlimit:4;stroke-opacity:1;stroke-dasharray:none"
       inkscape:connector-curvature="0"
       sodipodi:nodetypes="cccccccccccccccccccccccccccccccccccccccccccccccccccccccccccccccccccccccccccccccccccccccc" />
    <path
       style="opacity:0.3;fill:#000000;fill-opacity:1;stroke:none"
       d="M 16.03125,2 15.9375,2.0625 c -0.0016,0.010331 -0.0016,0.020919 0,0.03125 -0.01256,0.00792 -0.02333,0.018686 -0.03125,0.03125 -0.0016,0.010331 -0.0016,0.020919 0,0.03125 l 0,2.875 -5.90625,0 c -0.010331,-0.00163 -0.020919,-0.00163 -0.03125,0 -0.010331,-0.00163 -0.020919,-0.00163 -0.03125,0 -0.00163,0.010331 -0.00163,0.020919 0,0.03125 -0.010331,-0.00163 -0.020919,-0.00163 -0.03125,0 -0.00163,0.010331 -0.00163,0.020919 0,0.03125 -0.00163,0.010331 -0.00163,0.020919 0,0.03125 l 0,5.96875 c -0.00163,0.01033 -0.00163,0.02092 0,0.03125 -0.00163,0.01033 -0.00163,0.02092 0,0.03125 0.010331,0.0016 0.020919,0.0016 0.03125,0 -0.00163,0.01033 -0.00163,0.02092 0,0.03125 0.010331,0.0016 0.020919,0.0016 0.03125,0 0.010331,0.0016 0.020919,0.0016 0.03125,0 l 5.90625,0 0,2.84375 c -0.0016,0.01033 -0.0016,0.02092 0,0.03125 -0.0016,0.01033 -0.0016,0.02092 0,0.03125 0.01033,0.0016 0.02092,0.0016 0.03125,0 -0.0016,0.01033 -0.0016,0.02092 0,0.03125 l 0.09375,0.0625 c 0.01033,0.0016 0.02092,0.0016 0.03125,0 0.01033,0.0016 0.02092,0.0016 0.03125,0 0.01033,0.0016 0.02092,0.0016 0.03125,0 0.01033,0.0016 0.02092,0.0016 0.03125,0 0.0016,-0.01033 0.0016,-0.02092 0,-0.03125 l 5.90625,-6 c 0.01033,0.00163 0.02092,0.00163 0.03125,0 0.0016,-0.010331 0.0016,-0.020919 0,-0.03125 0.0016,-0.010331 0.0016,-0.020919 0,-0.03125 0.0016,-0.010331 0.0016,-0.020919 0,-0.03125 0.0016,-0.010331 0.0016,-0.020919 0,-0.03125 -0.01033,-0.00163 -0.02092,-0.00163 -0.03125,0 l -5.90625,-6 C 16.15785,2.020919 16.15785,2.010331 16.15625,2 16.14592,1.99837 16.13533,1.99837 16.125,2 16.11467,1.99837 16.10408,1.99837 16.09375,2 16.08342,1.99837 16.07283,1.99837 16.0625,2 16.052169,1.9983659 16.041581,1.9983659 16.03125,2 z m -8.1875,8 c -0.00163,0.01033 -0.00163,0.02092 0,0.03125 -1.978455,2.009289 -5.9375,6.03125 -5.9375,6.03125 l 0,0.09375 c 0,0 4.0125167,4.01309 6,6.03125 l 0.1875,-0.09375 0,-2.90625 5.9375,0 c 0.01033,0.0016 0.02092,0.0016 0.03125,0 0.01033,0.0016 0.02092,0.0016 0.03125,0 0.01033,0.0016 0.02092,0.0016 0.03125,0 0.0016,-0.01033 0.0016,-0.02092 0,-0.03125 0.0016,-0.01033 0.0016,-0.02092 0,-0.03125 0.0016,-0.01033 0.0016,-0.02092 0,-0.03125 l 0,-5.96875 c 0.0016,-0.01033 0.0016,-0.02092 0,-0.03125 -0.01033,-0.0016 -0.02092,-0.0016 -0.03125,0 0.0016,-0.01033 0.0016,-0.02092 0,-0.03125 -0.01033,-0.0016 -0.02092,-0.0016 -0.03125,0 0.0016,-0.01033 0.0016,-0.02092 0,-0.03125 -0.01033,-0.0016 -0.02092,-0.0016 -0.03125,0 l -5.9375,0 0,-2.84375 c 0.00163,-0.01033 0.00163,-0.02092 0,-0.03125 -0.010331,-0.0016 -0.020919,-0.0016 -0.03125,0 0.00163,-0.01033 0.00163,-0.02092 0,-0.03125 L 7.96875,10.03125 c -0.010331,-0.0016 -0.020919,-0.0016 -0.03125,0 C 7.93913,10.02092 7.93913,10.01033 7.9375,10 7.927169,9.99837 7.916581,9.99837 7.90625,10 7.8959189,9.9983659 7.8853311,9.9983659 7.875,10 7.8646689,9.9983659 7.8540811,9.9983659 7.84375,10 Z"
       transform="translate(0,1028.3622)"
       id="path838"
       inkscape:connector-curvature="0"
       sodipodi:nodetypes="ccccccccccccccccccccccccccccccccccccccccccccccccccccccccccccccccccccccccccccc" />
    <path
       style="fill:url(#linearGradient3796);fill-opacity:1;stroke:none"
       d="m 16.09233,1030.3631 -0.08334,0.052 0,2.9805 -6.008987,0 0,5.9775 6.008987,0 0,2.9369 0.08334,0.052 L 22,1036.3623 16.09233,1030.3622 Z"
       id="path3020"
       inkscape:connector-curvature="0"
       sodipodi:nodetypes="ccccccccccc" />
    <path
       style="fill:url(#linearGradient3806);fill-opacity:1;stroke:none"
       d="m 7.9067245,1038.3622 -5.9067245,6 5.9067245,6 0.090278,-0.054 0,-2.9438 6.0229345,0 0,-5.9601 -6.0229345,0 0,-2.934 L 7.9067245,1038.3637 Z"
       id="path3899"
       inkscape:connector-curvature="0"
       sodipodi:nodetypes="ccccccccccc" />
  </g>
</svg>
