<?xml version="1.0" encoding="UTF-8" standalone="no"?>
<!-- Created with Inkscape (http://www.inkscape.org/) -->

<svg
   xmlns:dc="http://purl.org/dc/elements/1.1/"
   xmlns:cc="http://creativecommons.org/ns#"
   xmlns:rdf="http://www.w3.org/1999/02/22-rdf-syntax-ns#"
   xmlns:svg="http://www.w3.org/2000/svg"
   xmlns="http://www.w3.org/2000/svg"
   xmlns:xlink="http://www.w3.org/1999/xlink"
   xmlns:sodipodi="http://sodipodi.sourceforge.net/DTD/sodipodi-0.dtd"
   xmlns:inkscape="http://www.inkscape.org/namespaces/inkscape"
   width="256"
   height="256"
   id="svg2"
   version="1.1"
   inkscape:version="0.48.3.1 r9886"
   sodipodi:docname="im-gadu-gadu.svg">
  <defs
     id="defs4">
    <radialGradient
       inkscape:collect="always"
       xlink:href="#linearGradient7171-6"
       id="radialGradient4653"
       gradientUnits="userSpaceOnUse"
       gradientTransform="matrix(-0.82350633,2.2079907,-2.2349664,-0.83356791,4792.3493,2210.3458)"
       cx="427.06052"
       cy="1784.7537"
       fx="427.06052"
       fy="1784.7537"
       r="444.46713" />
    <linearGradient
       id="linearGradient7171-6">
      <stop
         style="stop-color:#ffffff;stop-opacity:1;"
         offset="0"
         id="stop7173-1" />
      <stop
         id="stop7179-3"
         offset="0.44148755"
         style="stop-color:#ffdf95;stop-opacity:0.11711711;" />
      <stop
         style="stop-color:#aa7500;stop-opacity:1;"
         offset="1"
         id="stop7175-4" />
    </linearGradient>
    <linearGradient
       inkscape:collect="always"
       xlink:href="#linearGradient7190-7"
       id="linearGradient4675"
       gradientUnits="userSpaceOnUse"
       gradientTransform="matrix(0.63692397,0,0,0.63692397,-879.66129,345.8033)"
       x1="258.53125"
       y1="1624.5469"
       x2="921.6875"
       y2="1624.5469" />
    <linearGradient
       id="linearGradient7190-7">
      <stop
         style="stop-color:#000000;stop-opacity:1;"
         offset="0"
         id="stop7192-6" />
      <stop
         id="stop7198-8"
         offset="0.5"
         style="stop-color:#ffffff;stop-opacity:0;" />
      <stop
         style="stop-color:#000000;stop-opacity:1;"
         offset="1"
         id="stop7194-5" />
    </linearGradient>
    <linearGradient
       inkscape:collect="always"
       xlink:href="#linearGradient7190-7"
       id="linearGradient4672"
       gradientUnits="userSpaceOnUse"
       gradientTransform="matrix(0.63692397,0,0,0.63692397,-879.66129,345.8033)"
       x1="193.8125"
       y1="2057.4531"
       x2="986.375"
       y2="2057.4531" />
    <linearGradient
       inkscape:collect="always"
       xlink:href="#linearGradient7374"
       id="linearGradient4669"
       gradientUnits="userSpaceOnUse"
       gradientTransform="matrix(0.9899948,0,0,0.9899948,-744.95296,-1823.5957)"
       x1="42.322189"
       y1="3515.0085"
       x2="455.80222"
       y2="3515.0085" />
    <linearGradient
       id="linearGradient7374">
      <stop
         style="stop-color:#d8d8d8;stop-opacity:1;"
         offset="0"
         id="stop7376" />
      <stop
         id="stop7382"
         offset="0.5"
         style="stop-color:#cfcfcf;stop-opacity:1;" />
      <stop
         style="stop-color:#dfdfdf;stop-opacity:1;"
         offset="1"
         id="stop7378" />
    </linearGradient>
    <linearGradient
       inkscape:collect="always"
       xlink:href="#linearGradient7455"
       id="linearGradient4665"
       gradientUnits="userSpaceOnUse"
       gradientTransform="matrix(0.9899948,0,0,0.9899948,-744.95296,-1823.5957)"
       x1="31.875"
       y1="3236.5"
       x2="455.3125"
       y2="3236.5" />
    <linearGradient
       id="linearGradient7455">
      <stop
         style="stop-color:#b2b2b2;stop-opacity:0;"
         offset="0"
         id="stop7457" />
      <stop
         id="stop7463"
         offset="0.5"
         style="stop-color:#5e5e5e;stop-opacity:1;" />
      <stop
         style="stop-color:#b2b2b2;stop-opacity:0;"
         offset="1"
         id="stop7459" />
    </linearGradient>
  </defs>
  <sodipodi:namedview
     id="base"
     pagecolor="#ffffff"
     bordercolor="#666666"
     borderopacity="1.0"
     inkscape:pageopacity="0.0"
     inkscape:pageshadow="2"
     inkscape:zoom="0.98994949"
     inkscape:cx="195"
     inkscape:cy="140"
     inkscape:document-units="px"
     inkscape:current-layer="layer1"
     showgrid="false"
     inkscape:window-width="1440"
     inkscape:window-height="848"
     inkscape:window-x="-8"
     inkscape:window-y="-8"
     inkscape:window-maximized="1" />
  <metadata
     id="metadata7">
    <rdf:RDF>
      <cc:Work
         rdf:about="">
        <dc:format>image/svg+xml</dc:format>
        <dc:type
           rdf:resource="http://purl.org/dc/dcmitype/StillImage" />
        <dc:title />
      </cc:Work>
    </rdf:RDF>
  </metadata>
  <g
     inkscape:label="Layer 1"
     inkscape:groupmode="layer"
     id="layer1"
     transform="translate(0,-796.36215)">
    <g
       transform="matrix(0.32,0,0,0.32,288,427.60626)"
       style="display:inline"
       id="g4683">
      <path
         inkscape:export-ydpi="13.289422"
         inkscape:export-xdpi="13.289422"
         inkscape:export-filename="C:\Users\Madnester\Desktop\j32.png"
         inkscape:connector-curvature="0"
         style="fill:#ea6f00;fill-opacity:1;fill-rule:nonzero;stroke:#b0b0b0;stroke-width:24.99976349;stroke-miterlimit:4;stroke-opacity:1;stroke-dasharray:none"
         d="m -533.37515,1164.8621 0,70.9141 c -62.01411,7.8831 -118.53346,33.5961 -164.19892,71.8491 l -52.85639,-52.8563 -47.16283,47.1841 53.59993,53.5998 c -36.13177,46.0137 -59.89703,102.1798 -66.28292,163.4554 l -77.22384,0 0,66.7077 77.22384,0 c 6.38589,61.2756 30.15115,117.4417 66.28292,163.4555 l -53.59993,53.5998 47.16283,47.1842 52.85639,-52.8564 c 45.66546,38.253 102.18481,63.966 164.19892,71.849 l 0,70.9142 66.75029,0 0,-69.427 c 64.04786,-5.2284 122.77947,-29.4128 170.57228,-66.9416 l 46.46178,46.4618 47.18409,-47.1842 -45.71822,-45.7181 c 39.71441,-47.4151 65.9224,-106.5188 72.67755,-171.3372 l 62.9475,0 0,-66.7077 -62.9475,0 c -6.75515,-64.8184 -32.96314,-123.922 -72.67755,-171.3372 l 45.71822,-45.718 -47.18409,-47.1841 -46.46178,46.4618 c -47.79281,-37.529 -106.52442,-61.7132 -170.57228,-66.9415 l 0,-69.4272 -66.75029,0 z m 66.75029,103.5245 c 54.80808,4.9825 105.09594,25.4258 146.481,56.9353 l -146.481,146.4811 0,-203.4164 z m -66.75029,1.6571 0,201.7806 -140.19262,-140.1927 c 39.3119,-32.2063 87.40601,-54.1045 140.19262,-61.5879 z M -272.11,1371.6563 c 33.65272,41.0814 56.04734,91.7587 62.50142,147.352 l -209.87468,0 147.37326,-147.352 z m -447.79208,7.9878 139.36408,139.3642 -195.57707,0 c 6.0421,-52.045 26.07169,-99.7759 56.21299,-139.3642 z m -56.21299,206.0719 195.57707,0 -139.36408,139.3642 c -30.1413,-39.5881 -50.17089,-87.3192 -56.21299,-139.3642 z m 356.63181,0 209.87468,0 c -6.45408,55.5933 -28.8487,106.2708 -62.50142,147.352 l -147.37326,-147.352 z m -113.89189,47.1841 0,201.7806 c -52.78661,-7.4834 -100.88072,-29.3816 -140.19262,-61.588 l 140.19262,-140.1926 z m 66.75029,0.021 146.481,146.4812 c -41.38506,31.5095 -91.67292,51.9528 -146.481,56.9354 l 0,-203.4164 z"
         id="path7200" />
      <path
         inkscape:export-ydpi="13.289422"
         inkscape:export-xdpi="13.289422"
         inkscape:export-filename="C:\Users\Madnester\Desktop\j32.png"
         id="rect7136"
         d="m -533.37515,1164.8621 0,70.9141 c -62.01411,7.8831 -118.53346,33.5961 -164.19892,71.8491 l -52.85639,-52.8563 -47.16283,47.1841 53.59993,53.5998 c -36.13177,46.0137 -59.89703,102.1798 -66.28292,163.4554 l -77.22384,0 0,66.7077 77.22384,0 c 6.38589,61.2756 30.15115,117.4417 66.28292,163.4555 l -53.59993,53.5998 47.16283,47.1842 52.85639,-52.8564 c 45.66546,38.253 102.18481,63.966 164.19892,71.849 l 0,70.9142 66.75029,0 0,-69.427 c 64.04786,-5.2284 122.77947,-29.4128 170.57228,-66.9416 l 46.46178,46.4618 47.18409,-47.1842 -45.71822,-45.7181 c 39.71441,-47.4151 65.9224,-106.5188 72.67755,-171.3372 l 62.9475,0 0,-66.7077 -62.9475,0 c -6.75515,-64.8184 -32.96314,-123.922 -72.67755,-171.3372 l 45.71822,-45.718 -47.18409,-47.1841 -46.46178,46.4618 c -47.79281,-37.529 -106.52442,-61.7132 -170.57228,-66.9415 l 0,-69.4272 -66.75029,0 z m 66.75029,103.5245 c 54.80808,4.9825 105.09594,25.4258 146.481,56.9353 l -146.481,146.4811 0,-203.4164 z m -66.75029,1.6571 0,201.7806 -140.19262,-140.1927 c 39.3119,-32.2063 87.40601,-54.1045 140.19262,-61.5879 z M -272.11,1371.6563 c 33.65272,41.0814 56.04734,91.7587 62.50142,147.352 l -209.87468,0 147.37326,-147.352 z m -447.79208,7.9878 139.36408,139.3642 -195.57707,0 c 6.0421,-52.045 26.07169,-99.7759 56.21299,-139.3642 z m -56.21299,206.0719 195.57707,0 -139.36408,139.3642 c -30.1413,-39.5881 -50.17089,-87.3192 -56.21299,-139.3642 z m 356.63181,0 209.87468,0 c -6.45408,55.5933 -28.8487,106.2708 -62.50142,147.352 l -147.37326,-147.352 z m -113.89189,47.1841 0,201.7806 c -52.78661,-7.4834 -100.88072,-29.3816 -140.19262,-61.588 l 140.19262,-140.1926 z m 66.75029,0.021 146.481,146.4812 c -41.38506,31.5095 -91.67292,51.9528 -146.481,56.9354 l 0,-203.4164 z"
         style="fill:#f74e00;fill-opacity:1;fill-rule:nonzero;stroke:none"
         inkscape:connector-curvature="0" />
      <path
         inkscape:export-ydpi="13.289422"
         inkscape:export-xdpi="13.289422"
         inkscape:export-filename="C:\Users\Madnester\Desktop\j32.png"
         transform="matrix(0.67982476,0,0,0.67982476,-893.91596,238.1122)"
         d="m 1034.3962,1933.2152 c 0,245.4724 -198.9947,444.4671 -444.46712,444.4671 -245.47242,0 -444.46714,-198.9947 -444.46714,-444.4671 0,-245.4724 198.99472,-444.4671 444.46714,-444.4671 245.47242,0 444.46712,198.9947 444.46712,444.4671 z"
         sodipodi:ry="444.46713"
         sodipodi:rx="444.46713"
         sodipodi:cy="1933.2152"
         sodipodi:cx="589.92908"
         id="path7018"
         style="fill:#ffb808;fill-opacity:1;fill-rule:nonzero;stroke:none"
         sodipodi:type="arc" />
      <path
         inkscape:export-ydpi="13.289422"
         inkscape:export-xdpi="13.289422"
         inkscape:export-filename="C:\Users\Madnester\Desktop\j32.png"
         transform="matrix(0.67982476,0,0,0.67982476,-893.91596,238.1122)"
         sodipodi:type="arc"
         style="fill:url(#radialGradient4653);fill-opacity:1;fill-rule:nonzero;stroke:none"
         id="path7161"
         sodipodi:cx="589.92908"
         sodipodi:cy="1933.2152"
         sodipodi:rx="444.46713"
         sodipodi:ry="444.46713"
         d="m 1034.3962,1933.2152 c 0,245.4724 -198.9947,444.4671 -444.46712,444.4671 -245.47242,0 -444.46714,-198.9947 -444.46714,-444.4671 0,-245.4724 198.99472,-444.4671 444.46714,-444.4671 245.47242,0 444.46712,198.9947 444.46712,444.4671 z" />
      <path
         inkscape:export-ydpi="13.289422"
         inkscape:export-xdpi="13.289422"
         inkscape:export-filename="C:\Users\Madnester\Desktop\j32.png"
         id="path7186"
         d="m -516.79375,1324.1783 c -82.22181,4.1942 -153.99052,47.9814 -196.61047,112.6758 l 196.61047,0 0,-112.6758 z m 28.32321,65.7424 0,46.9334 194.2618,0 c -42.21123,-64.0741 -113.02675,-42.0289 -194.2618,-46.9334 z"
         style="fill:#ffffff;fill-opacity:1;fill-rule:nonzero;stroke:#cb7722;stroke-width:4.94997454;stroke-miterlimit:4;stroke-opacity:0.46842107;stroke-dasharray:none"
         inkscape:connector-curvature="0" />
      <path
         inkscape:export-ydpi="13.289422"
         inkscape:export-xdpi="13.289422"
         inkscape:export-filename="C:\Users\Madnester\Desktop\j32.png"
         id="path7027"
         d="m -738.88119,1487.0317 c -10.17203,27.2779 -15.74396,56.7936 -15.74396,87.6169 0,138.5188 112.28998,250.8088 250.80873,250.8088 138.51873,0 250.80871,-112.29 250.80871,-250.8088 0,-30.8233 -5.55204,-60.339 -15.72405,-87.6169 z"
         style="fill:#ffffff;fill-opacity:1;fill-rule:nonzero;stroke:#b0b0b0;stroke-width:3.1846199;stroke-miterlimit:4;stroke-opacity:1;stroke-dasharray:none"
         inkscape:connector-curvature="0" />
      <path
         inkscape:export-ydpi="13.289422"
         inkscape:export-xdpi="13.289422"
         inkscape:export-filename="C:\Users\Madnester\Desktop\j32.png"
         style="opacity:0.1842105;fill:url(#linearGradient4675);fill-opacity:1;fill-rule:nonzero;stroke:#b0b0b0;stroke-width:3.1846199;stroke-miterlimit:4;stroke-opacity:1;stroke-dasharray:none"
         d="m -516.79375,1324.1783 c -82.22181,4.1942 -153.99052,47.9814 -196.61047,112.6758 l 196.61047,0 0,-112.6758 z m 28.32321,65.7424 0,46.9334 194.2618,0 c -42.21123,-64.0741 -113.02675,-42.0289 -194.2618,-46.9334 z"
         id="path7211"
         inkscape:connector-curvature="0" />
      <path
         inkscape:export-ydpi="13.289422"
         inkscape:export-xdpi="13.289422"
         inkscape:export-filename="C:\Users\Madnester\Desktop\j32.png"
         style="opacity:0.15789472;fill:url(#linearGradient4672);fill-opacity:1;fill-rule:nonzero;stroke:#b0b0b0;stroke-width:3.1846199;stroke-miterlimit:4;stroke-opacity:1;stroke-dasharray:none"
         d="m -738.88119,1487.0317 c -10.17203,27.2779 -15.74396,56.7936 -15.74396,87.6169 0,138.5188 112.28998,250.8088 250.80873,250.8088 138.51873,0 250.80871,-112.29 250.80871,-250.8088 0,-30.8233 -5.55204,-60.339 -15.72405,-87.6169 z"
         id="path7188"
         inkscape:connector-curvature="0" />
      <path
         inkscape:export-ydpi="13.289422"
         inkscape:export-xdpi="13.289422"
         inkscape:export-filename="C:\Users\Madnester\Desktop\j32.png"
         id="rect7043"
         d="m -703.05421,1487.0317 c 11.239,11.5483 15.43416,99.7728 16.99791,161.2214 -0.42357,26.3391 -1.34098,62.1577 -3.30405,95.1604 2.66929,2.933 5.41637,5.7953 8.22032,8.5985 -1.87197,-27.345 -2.9731,-57.463 -3.62253,-82.9792 0.96071,-59.9404 4.44354,-169.0711 17.11735,-182.0011 l -35.409,0 z m 92.73216,0 c 9.90258,18.5836 13.72868,100.58 15.20656,158.6538 -0.73367,45.7775 -2.94564,120.2543 -9.59368,158.6539 7.18711,3.1613 14.55203,5.9913 22.07339,8.4789 -6.95422,-30.271 -9.92882,-96.9769 -11.18597,-146.3731 0.91643,-56.9927 4.13623,-158.4558 15.34589,-179.4135 l -31.84619,0 z m 89.88588,0 c 9.90266,18.5836 13.72873,100.58 15.20656,158.6538 -0.91357,56.8155 -4.10108,157.824 -15.22646,179.2145 5.50127,0.3603 11.0472,0.5574 16.63965,0.5574 5.05475,0 10.0666,-0.163 15.04732,-0.4579 -9.86269,-18.7775 -13.6913,-100.5848 -15.16675,-158.5543 0.91352,-56.9927 4.11915,-158.4558 15.32598,-179.4135 l -31.8263,0 z m 105.03276,0 c 9.90261,18.5836 13.72873,100.58 15.20654,158.6538 -0.75415,47.06 -3.05851,124.4337 -10.15096,161.7787 6.80513,-2.7348 13.46894,-5.7771 19.96358,-9.0761 -5.08483,-33.8753 -7.43443,-89.3329 -8.51886,-131.9429 0.91643,-56.9927 4.13622,-158.4558 15.3459,-179.4135 l -31.8462,0 z m 89.86598,0 c 9.90265,18.5836 13.72873,100.58 15.20655,158.6538 -0.41119,25.5717 -1.27812,60.083 -3.1249,92.2744 2.34487,-2.7307 4.61945,-5.5089 6.84694,-8.3397 -1.16357,-21.5582 -1.93275,-43.7063 -2.42828,-63.175 0.9135,-56.9927 4.11915,-158.4558 15.32599,-179.4135 l -31.8263,0 z"
         style="fill:url(#linearGradient4669);fill-opacity:1;fill-rule:nonzero;stroke:none"
         inkscape:connector-curvature="0" />
      <path
         inkscape:export-ydpi="13.289422"
         inkscape:export-xdpi="13.289422"
         inkscape:export-filename="C:\Users\Madnester\Desktop\j32.png"
         sodipodi:nodetypes="cscczccscc"
         inkscape:connector-curvature="0"
         id="path7369"
         d="m -738.88925,1487.0398 c -10.17202,27.2777 -15.74709,56.7911 -15.74709,87.6145 0,3.288 0.0912,6.5497 0.21656,9.8071 1.06801,-27.2153 6.4625,-53.3045 15.53053,-77.6217 0,0 52.67145,-11.3143 232.94932,-11.3143 180.27787,0 237.20541,11.3143 237.20541,11.3143 9.0817,24.3539 14.47746,50.4857 15.53054,77.7454 0.12857,-3.2982 0.18562,-6.6012 0.18562,-9.9308 0,-30.8234 -5.54414,-60.3368 -15.71616,-87.6145 z"
         style="opacity:0.5;fill:#4e4e4e;fill-opacity:1;fill-rule:nonzero;stroke:#b0b0b0;stroke-width:3.1846199;stroke-miterlimit:4;stroke-opacity:1;stroke-dasharray:none" />
      <path
         inkscape:export-ydpi="13.289422"
         inkscape:export-xdpi="13.289422"
         inkscape:export-filename="C:\Users\Madnester\Desktop\j32.png"
         inkscape:connector-curvature="0"
         id="path7446"
         d="m -516.79009,1324.1856 c -82.2218,4.1943 -153.98683,47.9794 -196.60679,112.6737 l 4.05279,0 c 43.03203,-61.42 112.87734,-102.6693 192.554,-106.7337 l 0,-5.94 z m 28.30766,65.7418 0,5.94 c 78.60624,4.7457 147.46078,-15.7299 190.07901,40.9919 l 4.20747,0 c -42.21123,-64.0739 -113.05142,-42.0275 -194.28648,-46.9319 z"
         style="fill:url(#linearGradient4665);fill-opacity:1;fill-rule:nonzero;stroke:none" />
      <path
         id="path4472"
         d="m -583.11919,1381.6593 c -22.49951,0 -40.74272,19.1408 -40.74272,42.7468 0,4.3275 0.61635,8.5009 1.75614,12.4377 l 73.32452,0 0,-35.4123 c -7.23644,-11.8801 -19.90315,-19.7722 -34.33794,-19.7722 z"
         style="fill:#3d3d3d;fill-opacity:1;fill-rule:nonzero;stroke:none"
         inkscape:connector-curvature="0" />
    </g>
  </g>
</svg>
