<?xml version="1.0" encoding="UTF-8" standalone="no"?>
<!-- Created with Inkscape (http://www.inkscape.org/) -->

<svg
   xmlns:dc="http://purl.org/dc/elements/1.1/"
   xmlns:cc="http://creativecommons.org/ns#"
   xmlns:rdf="http://www.w3.org/1999/02/22-rdf-syntax-ns#"
   xmlns:svg="http://www.w3.org/2000/svg"
   xmlns="http://www.w3.org/2000/svg"
   xmlns:xlink="http://www.w3.org/1999/xlink"
   xmlns:sodipodi="http://sodipodi.sourceforge.net/DTD/sodipodi-0.dtd"
   xmlns:inkscape="http://www.inkscape.org/namespaces/inkscape"
   width="256"
   height="256"
   id="svg2"
   version="1.1"
   inkscape:version="0.48.3.1 r9886"
   sodipodi:docname="im-irc.svg">
  <defs
     id="defs4">
    <radialGradient
       inkscape:collect="always"
       xlink:href="#linearGradient6976"
       id="radialGradient4031"
       gradientUnits="userSpaceOnUse"
       gradientTransform="matrix(1.6059265,0.835507,-0.60155236,1.1412362,-7.6434888,2452.7576)"
       cx="251.04422"
       cy="469.28076"
       fx="251.04422"
       fy="469.28076"
       r="315.21875" />
    <linearGradient
       id="linearGradient6976">
      <stop
         style="stop-color:#8cb8f1;stop-opacity:1;"
         offset="0"
         id="stop6978" />
      <stop
         style="stop-color:#3851a0;stop-opacity:1;"
         offset="1"
         id="stop6980" />
    </linearGradient>
  </defs>
  <sodipodi:namedview
     id="base"
     pagecolor="#ffffff"
     bordercolor="#666666"
     borderopacity="1.0"
     inkscape:pageopacity="0.0"
     inkscape:pageshadow="2"
     inkscape:zoom="0.98994949"
     inkscape:cx="195"
     inkscape:cy="140"
     inkscape:document-units="px"
     inkscape:current-layer="layer1"
     showgrid="false"
     inkscape:window-width="1440"
     inkscape:window-height="848"
     inkscape:window-x="-8"
     inkscape:window-y="-8"
     inkscape:window-maximized="1" />
  <metadata
     id="metadata7">
    <rdf:RDF>
      <cc:Work
         rdf:about="">
        <dc:format>image/svg+xml</dc:format>
        <dc:type
           rdf:resource="http://purl.org/dc/dcmitype/StillImage" />
        <dc:title />
      </cc:Work>
    </rdf:RDF>
  </metadata>
  <g
     inkscape:label="Layer 1"
     inkscape:groupmode="layer"
     id="layer1"
     transform="translate(0,-796.36215)">
    <g
       id="g4035"
       inkscape:export-filename="C:\Users\Madnester\Desktop\j32.png"
       inkscape:export-xdpi="10.591404"
       inkscape:export-ydpi="10.591404"
       transform="matrix(0.32,0,0,0.32,24.852101,-130.5435)">
      <path
         id="path7519"
         d="m 334.72698,2909.0808 c -0.67391,0 -1.37679,0.036 -2.06501,0.069 -0.6356,0.031 -1.279,0.081 -1.92736,0.1367 -0.11464,0.011 -0.22918,-0.011 -0.34416,0 -0.54758,0.05 -1.09485,0.1372 -1.65201,0.2051 -0.11696,0.014 -0.22677,0.019 -0.34417,0.034 -0.41467,0.052 -0.81885,0.1084 -1.23901,0.1711 -0.87469,0.1304 -1.75047,0.2725 -2.65015,0.4444 -0.90179,0.1724 -1.82505,0.3676 -2.75335,0.5811 -0.0572,0.013 -0.11478,0.021 -0.17204,0.034 -1.79574,0.4174 -3.63893,0.9354 -5.54106,1.5044 -0.98362,0.2942 -1.98033,0.589 -2.99433,0.9232 -0.89385,0.2947 -1.80036,0.598 -2.71898,0.9232 -1.16887,0.4141 -2.3342,0.87 -3.5449,1.3338 -0.79043,0.3021 -1.63472,0.634 -2.44356,0.9573 -0.6467,0.2587 -1.30298,0.5145 -1.96179,0.7863 -0.55696,0.2296 -1.08616,0.4448 -1.65203,0.6839 -0.21167,0.09 -0.4065,0.1827 -0.6195,0.2735 -0.76619,0.3264 -1.55752,0.6827 -2.34036,1.0257 -0.4044,0.1777 -0.79559,0.3651 -1.20464,0.5472 -4.59665,2.0438 -9.4516,4.3086 -14.66149,6.907 -0.17986,0.089 -0.33569,0.1832 -0.51631,0.2735 -2.68705,1.3437 -5.49756,2.7888 -8.36336,4.2742 -1.81491,0.9406 -3.61646,1.8756 -5.50672,2.8721 -1.14891,0.6058 -2.22953,1.186 -3.40719,1.8122 -2.99104,1.5897 -6.07489,3.2386 -9.25821,4.958 -0.20266,0.1095 -0.41598,0.2319 -0.6194,0.342 -0.92469,0.4998 -1.81215,0.9597 -2.75335,1.4702 -5.69097,3.0864 -11.52764,6.2764 -17.86243,9.7449 l 9.32704,16.7888 1.8584,3.385 c -3.70821,2.0223 -7.22094,3.9157 -11.18544,6.0863 l 55.17035,99.4669 -131.19723,71.8391 c -8.29849,-14.9592 -15.84885,-28.6175 -22.88731,-41.2706 -1.23282,-2.2164 -2.34629,-4.2121 -3.54488,-6.3599 -2.26236,-4.0545 -4.42673,-7.9143 -6.57368,-11.7282 -0.40904,-0.7265 -0.76511,-1.3678 -1.17017,-2.0858 -2.83099,-5.0186 -5.54381,-9.793 -8.19124,-14.3951 -0.1804,-0.3136 -0.33667,-0.6116 -0.51631,-0.9232 -1.31775,-2.2869 -2.61291,-4.5167 -3.88905,-6.7017 -0.53899,-0.923 -1.05132,-1.7965 -1.58318,-2.7013 -0.18876,-0.3212 -0.36278,-0.6041 -0.55067,-0.9232 -1.46643,-2.489 -2.92119,-4.8966 -4.33653,-7.2489 -0.54614,-0.9077 -1.07864,-1.848 -1.61765,-2.7355 -0.10024,-0.1659 -0.20914,-0.3133 -0.30969,-0.4787 -0.95905,-1.5765 -1.88483,-3.1028 -2.822183,-4.6159 -0.395712,-0.639 -0.778097,-1.253 -1.170176,-1.8806 -0.645936,-1.0344 -1.256629,-2.0051 -1.892984,-3.009 -0.663998,-1.048 -1.307731,-2.0621 -1.961708,-3.0774 -0.348354,-0.5407 -0.686907,-1.0413 -1.032507,-1.5729 -0.92028,-1.4158 -1.817104,-2.8208 -2.71888,-4.1715 -0.06499,-0.097 -0.141743,-0.1766 -0.206612,-0.2734 -0.635034,-0.9495 -1.266323,-1.8526 -1.892876,-2.7698 -0.323241,-0.473 -0.642521,-0.9714 -0.963672,-1.4361 -0.210797,-0.3051 -0.409588,-0.5875 -0.619505,-0.8888 -0.740101,-1.0632 -1.438792,-2.0595 -2.168319,-3.0777 -0.4684,-0.6537 -0.912351,-1.279 -1.376677,-1.9147 -0.464874,-0.6364 -0.915546,-1.2283 -1.376675,-1.8463 -0.716313,-0.9609 -1.426128,-1.887 -2.133738,-2.8039 -0.200004,-0.2591 -0.38591,-0.4967 -0.585144,-0.7521 -0.954641,-1.2248 -1.881199,-2.411 -2.822186,-3.5561 -0.836247,-1.0179 -1.65091,-1.9848 -2.478017,-2.9408 -0.304192,-0.3516 -0.591752,-0.6823 -0.894839,-1.0256 -0.577323,-0.6544 -1.147158,-1.2563 -1.720846,-1.8807 -0.547254,-0.5958 -1.073146,-1.175 -1.617648,-1.7438 -0.325778,-0.3405 -0.638669,-0.6605 -0.963674,-0.9914 -0.783604,-0.7984 -1.560821,-1.5824 -2.34035,-2.3252 -0.0782,-0.074 -0.162558,-0.1311 -0.240862,-0.2052 -0.790654,-0.7485 -1.552451,-1.4621 -2.34035,-2.154 -0.06719,-0.059 -0.13976,-0.1128 -0.206501,-0.171 -0.162449,-0.1418 -0.319501,-0.2709 -0.481837,-0.4103 -0.690652,-0.5932 -1.375246,-1.1595 -2.065015,-1.7098 -0.849574,-0.6776 -1.696946,-1.3355 -2.546851,-1.9489 -0.09471,-0.068 -0.18084,-0.1377 -0.275335,-0.2052 -0.753537,-0.5377 -1.516217,-1.0506 -2.271516,-1.5386 -0.02643,-0.017 -0.04185,-0.051 -0.06829,-0.068 -0.819618,-0.5275 -1.654766,-1.0005 -2.478017,-1.4702 -0.03634,-0.021 -0.06719,-0.048 -0.103525,-0.069 -0.822372,-0.467 -1.65014,-0.8893 -2.478018,-1.2993 -0.870278,-0.4312 -1.737585,-0.8275 -2.615685,-1.1969 -0.809046,-0.3402 -1.62646,-0.6688 -2.443544,-0.9573 -0.05837,-0.021 -0.113769,-0.048 -0.172139,-0.068 -0.206502,-0.072 -0.412345,-0.1365 -0.619396,-0.2051 -0.677654,-0.2247 -1.34628,-0.4257 -2.030653,-0.6156 -0.05617,-0.015 -0.11564,-0.018 -0.172028,-0.034 -0.832394,-0.2272 -1.668862,-0.4389 -2.512489,-0.6154 -0.895204,-0.1873 -1.809319,-0.3476 -2.718938,-0.4787 -0.924564,-0.1331 -1.846507,-0.2317 -2.787767,-0.3078 -0.928101,-0.074 -1.87609,-0.1168 -2.822186,-0.1366 -0.954598,-0.02 -1.916301,-0.035 -2.89102,0 -1.939572,0.069 -3.924078,0.2649 -5.954124,0.5471 -0.162405,0.023 -0.318807,0.045 -0.481838,0.068 -1.884526,0.2764 -3.807501,0.6419 -5.782039,1.0942 -2.130435,0.4879 -4.324834,1.0919 -6.57363,1.7781 -1.1336978,0.3458 -2.2752156,0.6993 -3.44169,1.0941 -1.1548989,0.3909 -2.3561536,0.827 -3.5449411,1.2653 -1.185153,0.4366 -2.3931917,0.8846 -3.61377493,1.3676 -1.23186077,0.4875 -2.48172847,1.0051 -3.75144257,1.5386 -0.743284,0.3124 -1.5147735,0.6638 -2.2715156,0.9915 -0.8128998,0.3522 -1.6491589,0.6901 -2.4780171,1.0601 -0.3853483,0.172 -0.7468854,0.337 -1.1357584,0.5129 -0.6670493,0.3014 -1.3185923,0.6107 -1.9961813,0.9232 -1.278733,0.5898 -2.537279,1.1493 -3.854691,1.7781 -0.08502,0.04 -0.15573,0.096 -0.240919,0.1367 -2.776647,1.328 -5.68,2.779 -8.638643,4.2741 -2.355063,1.1901 -4.783576,2.4005 -7.261969,3.6927 -0.667886,0.3481 -1.284579,0.6705 -1.961763,1.0257 -0.409565,0.2151 -0.791577,0.4321 -1.20459,0.6497 -3.690406,1.9439 -7.552445,4.0063 -11.529662,6.1548 -1.980839,1.0701 -4.001283,2.1635 -6.057376,3.2825 -4.089918,2.2259 -8.296203,4.5301 -12.699839,6.9413 l 9.326981,16.7886 1.858515,3.3509 c -3.607609,1.9659 -7.337289,4.0135 -11.185496,6.1206 l 214.107562,385.9687 -128.92572,70.5741 c 3.303617,5.9553 6.336323,11.4239 9.326983,16.7885 0.596685,1.0704 1.272962,2.3039 1.858512,3.3509 l -11.185495,6.1206 c 64.584727,116.4252 64.068528,119.0972 205.7099,41.5442 70.35706,126.8311 70.32633,127.8908 189.80918,62.4702 l -11.18555,-20.1736 c 0.61851,-0.3373 1.23316,-0.6844 1.85862,-1.0259 3.12592,-1.7065 6.0219,-3.2508 9.32693,-5.0605 l -59.61007,-107.5022 131.19722,-71.8392 c 103.29521,186.208 97.62053,190.2864 222.71173,121.7949 l -11.18544,-20.1738 c 0.59682,-0.3253 1.25531,-0.6625 1.85852,-0.9914 3.04368,-1.6613 6.11497,-3.3364 9.32692,-5.095 l -214.07314,-385.9686 106.62368,-58.4013 c -3.98103,-7.1765 -7.66963,-13.8272 -11.22004,-20.1395 l 1.85864,-1.0257 c 0.011,0.014 0.0264,0.02 0.0341,0.034 l 9.32703,-5.129 c -6.39625,-11.5303 -12.17632,-21.9299 -17.51827,-31.2523 -1.78065,-3.1074 -3.51083,-6.0876 -5.19688,-8.9585 -3.37219,-5.7417 -6.57545,-11.0096 -9.63674,-15.8311 -1.98946,-3.1335 -3.89247,-6.0649 -5.78204,-8.8219 -0.29669,-0.4328 -0.60034,-0.8755 -0.89495,-1.2992 -0.29604,-0.4262 -0.60066,-0.8141 -0.89474,-1.231 -1.1348,-1.6082 -2.26488,-3.1777 -3.37295,-4.6502 -2.09971,-2.7906 -4.1623,-5.3443 -6.19505,-7.6592 -0.68878,-0.7845 -1.34649,-1.5259 -2.03053,-2.257 -0.67282,-0.7196 -1.32657,-1.3829 -1.99619,-2.0514 -1.34639,-1.3442 -2.68485,-2.5866 -4.02673,-3.727 -0.29624,-0.2521 -0.59856,-0.4757 -0.89494,-0.7181 -1.03878,-0.8492 -2.05368,-1.6633 -3.09742,-2.3934 -2.69343,-1.8837 -5.40218,-3.3639 -8.19133,-4.4793 -0.6944,-0.2787 -1.36103,-0.5201 -2.06501,-0.7523 -1.40785,-0.4645 -2.84795,-0.8458 -4.30207,-1.1282 -15.27163,-2.9671 -33.40135,3.9753 -60.9179,18.2931 -5.24095,2.7271 -10.8284,5.7135 -16.79547,8.9586 -8.95082,4.8673 -18.76068,10.3074 -29.59854,16.2416 -4.771,-8.6007 -9.1636,-16.5182 -13.31927,-23.901 -1.25719,-2.2331 -2.43916,-4.304 -3.6483,-6.4282 -0.82083,-1.4427 -1.57448,-2.7787 -2.37472,-4.1715 -0.91334,-1.5901 -1.76193,-3.0561 -2.65004,-4.5819 -0.42832,-0.7358 -0.85079,-1.3991 -1.27348,-2.12 -1.0008,-1.7068 -1.98825,-3.402 -2.95986,-5.0262 -0.20164,-0.3372 -0.38458,-0.6581 -0.58504,-0.9916 -0.37323,-0.6212 -0.73227,-1.1691 -1.10133,-1.7782 -1.16897,-1.9278 -2.34421,-3.8699 -3.47616,-5.6759 -1.39616,-2.2275 -2.78177,-4.3838 -4.13004,-6.4284 -0.0924,-0.1405 -0.18281,-0.2706 -0.27533,-0.4102 -0.73888,-1.1161 -1.47602,-2.221 -2.20268,-3.2825 -0.69032,-1.0082 -1.34992,-1.9809 -2.03054,-2.9405 -0.13062,-0.1841 -0.24834,-0.3648 -0.37863,-0.5471 -0.57226,-0.8008 -1.15443,-1.5587 -1.72086,-2.3251 -0.23866,-0.3231 -0.45054,-0.6404 -0.68833,-0.9575 -0.45519,-0.607 -0.89012,-1.1932 -1.34222,-1.778 -0.34394,-0.4449 -0.69021,-0.867 -1.03261,-1.2993 -0.34604,-0.4371 -0.68779,-0.8409 -1.0324,-1.2651 -0.44593,-0.5489 -0.86411,-1.0798 -1.30794,-1.6071 -0.23316,-0.2771 -0.45551,-0.5493 -0.68834,-0.8206 -0.54925,-0.64 -1.10487,-1.2736 -1.65202,-1.8806 -0.12798,-0.142 -0.25055,-0.27 -0.37853,-0.4105 -0.64637,-0.7088 -1.28262,-1.3884 -1.92735,-2.0515 -0.0231,-0.024 -0.0462,-0.045 -0.0682,-0.068 -0.75078,-0.7707 -1.48659,-1.5137 -2.23705,-2.2227 -0.58426,-0.5518 -1.17028,-1.058 -1.7553,-1.5729 -0.44452,-0.3911 -0.89671,-0.7585 -1.34232,-1.1283 -0.47336,-0.3931 -0.93604,-0.7933 -1.41103,-1.1626 -0.11587,-0.089 -0.22821,-0.1849 -0.34419,-0.2737 -0.30925,-0.2363 -0.61905,-0.4572 -0.92919,-0.6837 -0.40343,-0.2946 -0.79946,-0.5771 -1.20466,-0.8548 -0.27863,-0.1912 -0.54637,-0.3639 -0.82599,-0.547 -0.5086,-0.3334 -1.00212,-0.6503 -1.51434,-0.9575 -0.17258,-0.104 -0.34329,-0.2074 -0.51631,-0.3077 -0.6194,-0.36 -1.26688,-0.7036 -1.89288,-1.0259 -0.0693,-0.035 -0.13733,-0.068 -0.2065,-0.1029 -0.74011,-0.3756 -1.45179,-0.7365 -2.20269,-1.0598 -0.65727,-0.2834 -1.32943,-0.5429 -1.99617,-0.7866 -0.1598,-0.058 -0.32148,-0.1148 -0.48184,-0.171 -0.55805,-0.1953 -1.12083,-0.3789 -1.68637,-0.547 -0.27424,-0.082 -0.55,-0.1643 -0.82602,-0.2392 -0.19449,-0.052 -0.38965,-0.086 -0.58513,-0.1368 -0.56818,-0.1447 -1.14408,-0.2582 -1.72085,-0.3763 -0.0815,-0.016 -0.15904,-0.052 -0.24097,-0.068 -0.0793,-0.015 -0.16147,-0.019 -0.24088,-0.034 -0.49031,-0.094 -0.98293,-0.199 -1.47985,-0.2737 -0.53339,-0.08 -1.07613,-0.1468 -1.61766,-0.2052 -0.011,0 -0.0231,0 -0.0341,0 -0.0341,0 -0.0693,0 -0.10352,0 -0.73339,-0.076 -1.48759,-0.1337 -2.23706,-0.1709 -0.78942,-0.039 -1.56621,-0.072 -2.37481,-0.069 z m 30.83754,307.3937 44.77645,80.7633 -131.19723,71.8392 -44.77645,-80.7635 131.19723,-71.839 z"
         style="fill:#000000;fill-opacity:0;fill-rule:nonzero;stroke:#a7a7a7;stroke-width:25.00020981;stroke-miterlimit:4;stroke-opacity:1;stroke-dasharray:none"
         inkscape:connector-curvature="0" />
      <path
         sodipodi:nodetypes="cccccccccccccccccccc"
         inkscape:connector-curvature="0"
         id="rect6966"
         d="m 225.71781,3578.7348 c 70.35704,126.8311 70.33216,127.8916 189.815,62.471 l -70.80247,-127.634 142.38665,-77.9611 c 103.2952,186.208 97.6311,190.2842 222.72241,121.7927 l -225.27554,-406.0994 117.83842,-64.52 c -68.22609,-122.9896 -67.8241,-117.0144 -183.42845,-53.7176 -65.85832,-118.7215 -66.45115,-119.5242 -185.3505,-54.4233 l 66.33806,119.5865 -142.38664,77.961 C 54.299804,2990.019 57.994801,2986.9737 -65.14766,3054.398 l 225.27553,406.0991 -140.11508,76.7173 c 64.584683,116.4253 64.063638,119.0734 205.70502,41.5204 z m 53.42251,-183.4008 -55.97554,-100.9058 142.38664,-77.961 55.97554,100.9059 z"
         style="fill:#180655;fill-opacity:1;fill-rule:nonzero;stroke:#ffffff;stroke-width:2.3052752;stroke-miterlimit:4;stroke-opacity:1;stroke-dasharray:none" />
      <path
         style="fill:url(#radialGradient4031);fill-opacity:1;fill-rule:nonzero;stroke:#ffffff;stroke-width:2.30479765;stroke-miterlimit:4;stroke-opacity:1;stroke-dasharray:none"
         d="m 225.71781,3552.4747 c 70.35704,126.8311 70.33216,127.8916 189.815,62.471 l -70.80247,-127.634 142.38665,-77.9612 c 103.2952,186.2081 97.6311,190.2841 222.72241,121.7928 l -225.27554,-406.0993 117.83842,-64.52 c -68.22609,-122.9896 -67.8241,-117.0146 -183.42845,-53.7175 -65.85832,-118.7217 -66.45115,-119.5243 -185.3505,-54.4235 l 66.33806,119.5864 -142.38664,77.961 C 54.299804,2963.7589 57.994801,2960.7136 -65.14766,3028.1378 l 225.27553,406.0993 -140.11508,76.7173 c 64.584683,116.4253 64.063638,119.0734 205.70502,41.5203 z m 53.42251,-183.4006 -55.97554,-100.9061 142.38664,-77.9609 55.97554,100.9059 z"
         id="path7509"
         inkscape:connector-curvature="0"
         sodipodi:nodetypes="cccccccccccccccccccc" />
      <path
         sodipodi:nodetypes="sccccssccccsccccccccccccccccc"
         inkscape:connector-curvature="0"
         id="path7513"
         d="m 334.72698,2909.0808 c -21.83211,0.099 -50.95618,15.8236 -101.11687,43.2881 122.90227,-58.8261 128.63376,-26.7048 183.79607,72.4108 76.88242,-54.3469 118.88195,-77.4236 184.98112,35.7412 -68.22619,-122.9896 -67.80339,-117.0139 -183.40775,-53.7168 -38.07434,-68.6359 -54.33453,-97.8603 -84.25257,-97.7233 z m -305.415611,78.8829 c -22.3439069,0.7996 -50.22008,15.946 -94.474404,40.1767 131.269873,-67.6488 148.364116,9.6039 222.746265,143.6781 37.4479,-29.8076 133.05564,-94.7482 133.05564,-94.7482 L 157.58323,3149.935 C 91.422702,3030.669 69.141804,2986.5385 29.311369,2987.9637 z M 493.9052,3141.8315 c 0,0 144.67811,282.7623 206.60464,394.4145 3.04368,-1.6613 6.11498,-3.3364 9.32693,-5.095 z m -261.43079,143.1312 c 0,0 33.73043,82.6681 46.66933,105.9978 28.01182,-29.0298 133.09011,-94.7483 133.09011,-94.7483 l -133.09011,72.8648 z m -81.67136,154.3805 -130.784247,71.6001 c 3.303616,5.9553 6.336322,11.4239 9.326983,16.7885 27.271128,-27.9004 121.457264,-88.3886 121.457264,-88.3886 z m 203.26622,64.7614 c 0,0 38.06412,90.5338 52.14169,115.9136 3.12602,-1.7066 6.02189,-3.2509 9.32692,-5.0605 z"
         style="fill:#d1dbff;fill-opacity:1;fill-rule:nonzero;stroke:none" />
    </g>
  </g>
</svg>
