<?xml version="1.0" encoding="UTF-8" standalone="no"?>
<!-- Created with Inkscape (http://www.inkscape.org/) -->

<svg
   xmlns:dc="http://purl.org/dc/elements/1.1/"
   xmlns:cc="http://creativecommons.org/ns#"
   xmlns:rdf="http://www.w3.org/1999/02/22-rdf-syntax-ns#"
   xmlns:svg="http://www.w3.org/2000/svg"
   xmlns="http://www.w3.org/2000/svg"
   xmlns:xlink="http://www.w3.org/1999/xlink"
   xmlns:sodipodi="http://sodipodi.sourceforge.net/DTD/sodipodi-0.dtd"
   xmlns:inkscape="http://www.inkscape.org/namespaces/inkscape"
   inkscape:version="0.48.3.1 r9886"
   version="1.1"
   id="svg2"
   height="1000"
   width="1000"
   sodipodi:docname="im-kick-user.svg">
  <defs
     id="defs4">
    <linearGradient
       id="linearGradient4094">
      <stop
         style="stop-color:#aaaaaa;stop-opacity:1;"
         offset="0"
         id="stop4096" />
      <stop
         style="stop-color:#f0f0f0;stop-opacity:1;"
         offset="1"
         id="stop4098" />
    </linearGradient>
    <linearGradient
       inkscape:collect="always"
       xlink:href="#linearGradient4094"
       id="linearGradient4362"
       gradientUnits="userSpaceOnUse"
       gradientTransform="matrix(1.1886704,0,0,1.1886704,-84.92715,4.1941383)"
       x1="499.01535"
       y1="852.69623"
       x2="499.01535"
       y2="439.80637" />
    <linearGradient
       inkscape:collect="always"
       xlink:href="#linearGradient3806"
       id="linearGradient3812"
       x1="52"
       y1="28"
       x2="52"
       y2="91.007935"
       gradientUnits="userSpaceOnUse"
       gradientTransform="matrix(10.421774,0,0,10.421774,251.38331,290.7523)" />
    <linearGradient
       inkscape:collect="always"
       id="linearGradient3806">
      <stop
         style="stop-color:#fff6d5;stop-opacity:1;"
         offset="0"
         id="stop3808" />
      <stop
         style="stop-color:#fff6d5;stop-opacity:0;"
         offset="1"
         id="stop3810" />
    </linearGradient>
    <linearGradient
       inkscape:collect="always"
       xlink:href="#linearGradient3290-7"
       id="linearGradient3330"
       gradientUnits="userSpaceOnUse"
       gradientTransform="matrix(3.8151136,0,0,3.8151132,507.46118,546.83024)"
       x1="47.609753"
       y1="121.36586"
       x2="47.609753"
       y2="6.6341324" />
    <linearGradient
       id="linearGradient3290-7">
      <stop
         id="stop3292-2"
         offset="0"
         style="stop-color:#ba0000;stop-opacity:1;" />
      <stop
         id="stop3294-3"
         offset="1"
         style="stop-color:#ff331e;stop-opacity:1;" />
    </linearGradient>
  </defs>
  <sodipodi:namedview
     id="base"
     pagecolor="#ffffff"
     bordercolor="#666666"
     borderopacity="1.0"
     inkscape:pageopacity="0.0"
     inkscape:pageshadow="2"
     inkscape:zoom="0.639"
     inkscape:cx="500"
     inkscape:cy="500"
     inkscape:document-units="px"
     inkscape:current-layer="layer1"
     showgrid="false"
     inkscape:window-width="1440"
     inkscape:window-height="848"
     inkscape:window-x="-8"
     inkscape:window-y="-8"
     inkscape:window-maximized="1"
     inkscape:snap-bbox="false"
     inkscape:snap-global="false"
     showguides="true"
     inkscape:guide-bbox="true">
    <sodipodi:guide
       orientation="1,0"
       position="1000.051,496.99505"
       id="guide3221" />
    <sodipodi:guide
       orientation="0,1"
       position="125.25891,1000.051"
       id="guide3223" />
    <sodipodi:guide
       orientation="0,1"
       position="-909.13728,0"
       id="guide3230" />
    <inkscape:grid
       type="xygrid"
       id="grid3281" />
  </sodipodi:namedview>
  <metadata
     id="metadata7">
    <rdf:RDF>
      <cc:Work
         rdf:about="">
        <dc:format>image/svg+xml</dc:format>
        <dc:type
           rdf:resource="http://purl.org/dc/dcmitype/StillImage" />
        <dc:title />
      </cc:Work>
    </rdf:RDF>
  </metadata>
  <g
     inkscape:label="Layer 1"
     inkscape:groupmode="layer"
     id="layer1"
     transform="translate(0,-52.362183)">
    <path
       style="opacity:0.07999998;fill:#000000;fill-opacity:1;stroke:none"
       d="m 451.94234,152.67479 c -8.71069,45.0828 0.38127,74.9265 9.0259,119.05764 7.82258,37.68908 16.20829,76.76731 8.96255,115.21523 -8.82883,36.60804 -23.77156,71.582 -42.76386,104.00701 -1.81813,-26.01264 -0.96071,-53.59257 -13.91544,-77.04355 -16.56131,-39.77541 -39.74635,-77.9996 -72.63462,-106.19743 -20.73575,-10.78911 -49.46833,12.13808 -41.3063,34.76862 7.18614,19.21299 21.70185,35.7682 23.32765,56.79615 11.23328,56.54047 -4.75629,114.49561 -26.83973,166.19969 -25.8808,58.00351 -67.21518,110.45589 -76.68604,174.50298 -15.35909,98.25299 29.5316,203.98072 112.56188,258.76942 93.98671,64.40315 224.86362,67.69595 323.45732,11.09595 63.65735,-35.11818 118.52899,-92.05192 139.07445,-162.92218 17.36564,-61.37536 4.66862,-129.07323 -29.53109,-182.23804 -10.93102,-17.94327 -25.19614,-33.50102 -38.40488,-49.68383 -12.48877,-18.65354 -13.3641,-41.95771 -9.55049,-63.49988 5.20269,-45.20574 25.42518,-87.20905 45.72661,-127.5592 5.11912,-16.77194 -9.31015,-34.94426 -26.5593,-35.17721 -18.3318,-1.5046 -31.58999,13.48224 -45.90241,22.38715 -28.92356,20.85495 -53.38783,48.54911 -66.39436,82.09383 -24.75714,48.59613 -35.51664,104.53181 -28.59785,158.92096 1.35182,22.35238 5.41944,46.18468 -2.63736,67.53133 -11.62575,9.68365 -30.31157,1.6679 -35.28865,-11.55238 -15.41566,-25.56027 -10.21821,-58.35113 1.76309,-84.24242 C 585.618,556.4418 626.01196,492.55621 633.73558,419.07726 639.14368,369.01315 616.38322,322.06027 593.96365,278.89771 538.33047,184.59076 526.90809,165.66888 487.73066,67.772934 462.3402,112.50178 461.46292,113.45441 451.94234,152.67479 z"
       id="path4142"
       inkscape:connector-curvature="0"
       sodipodi:nodetypes="cccccccccccccccccccccccccccc" />
    <path
       style="opacity:0.1;fill:#000000;fill-opacity:1;stroke:none"
       d="m 457.87965,185.70962 c 1.4352,71.23904 30.43287,122.48439 23.43582,194.19271 -8.32857,41.69645 -26.35653,80.98372 -46.64506,118.18436 -3.73463,5.84271 -7.76939,11.54486 -13.29825,15.74988 -8.71419,-28.84039 0.005,-61.35814 -14.009,-88.96457 -15.15604,-40.33168 -38.70461,-77.93022 -69.53225,-107.94612 -13.79005,-7.82823 -34.58289,6.22963 -29.56817,22.17614 4.90901,16.06439 17.92195,28.65779 20.58776,45.63889 14.90926,51.3362 4.25563,106.21102 -12.78343,155.62107 -19.35341,54.95233 -53.75063,102.87192 -76.11629,156.4962 -30.58699,83.6995 -10.48618,182.3921 47.25021,249.43156 65.32296,76.86486 174.75325,107.88176 272.53082,88.49836 66.38725,-12.6931 127.71123,-48.40641 173.01526,-98.18888 C 771.294,894.1889 796.02832,837.47389 792.0584,779.39489 789.29177,723.99273 764.71994,670.7904 726.37759,631.03205 712.18225,613.89909 702.6686,591.78728 705.79873,569.1469 c 1.9751,-49.89933 20.85201,-97.53512 44.64944,-141.00604 3.91595,-7.49395 5.55025,-17.77568 -1.78301,-23.73625 -8.85097,-8.46615 -24.35847,-8.14491 -32.75489,0.83586 -32.25242,20.59679 -64.28496,46.04701 -78.78472,82.60895 -23.8572,44.60016 -38.58695,95.5166 -33.5377,146.5241 1.00788,29.46104 7.02145,60.06136 -1.42635,88.78049 -12.14459,16.66503 -39.705,11.8479 -49.70128,-4.71754 -19.96085,-26.41776 -17.03662,-63.38384 -4.65529,-92.5972 25.66252,-67.32275 66.68302,-129.99951 75.82693,-202.67596 3.85274,-28.01907 -1.04003,-56.44487 -11.56236,-82.50119 -21.62514,-55.7277 -55.21476,-105.75236 -82.25426,-158.91938 -23.95421,-47.28466 -21.93744,-50.11286 -43.00813,-96.08583 -24.77613,39.19454 -29.8251,62.32645 -28.92746,100.05271 z"
       id="path4132"
       inkscape:connector-curvature="0"
       sodipodi:nodetypes="ccccccccccccccccccccccccccccc" />
    <path
       style="opacity:0.15;fill:#000000;fill-opacity:1;stroke:none"
       d="m 465.86419,184.35969 c 1.3528,69.96938 30.52943,121.23408 25.75096,191.55397 -5.17917,36.63896 -21.57385,70.4048 -36.068,104.11208 -8.64661,17.53517 -18.76207,36.02656 -35.4008,46.99765 -6.05352,0.60032 -6.13927,-7.24743 -8.24641,-11.0695 -8.43118,-26.63389 -0.14607,-56.62108 -11.58953,-82.72403 -13.45056,-39.76651 -37.1707,-75.38904 -64.93113,-106.53459 -7.10314,-5.54075 -20.36442,-0.13893 -17.94149,9.76939 2.29455,11.19969 12.14071,18.94191 15.04411,29.97678 21.35583,51.48555 13.4207,109.96182 -2.32513,161.60449 -16.43496,53.13809 -45.95637,100.9007 -71.85534,149.75288 -22.11499,46.39009 -29.202,100.09931 -17.89159,150.45464 14.07758,71.35712 60.72083,135.81569 125.652,168.92624 84.29683,45.61701 192.18091,44.84021 275.70594,-2.04522 58.72508,-31.14663 110.0111,-81.39697 131.78517,-145.16418 21.84265,-67.47868 3.92902,-144.7761 -42.03877,-198.00132 -16.12633,-19.36811 -34.66055,-40.24672 -35.00883,-66.88056 -2.80919,-40.00531 9.42473,-78.99791 23.11167,-116.04985 7.14594,-17.71127 17.19257,-34.40751 25.29634,-51.37285 -0.36314,-10.20531 -14.82843,-13.02092 -21.02461,-6.24052 -30.09892,19.7873 -61.90109,41.7624 -75.91004,76.3261 -20.74384,39.31607 -37.46504,82.6107 -35.19346,127.8652 -0.22275,35.55326 6.97569,71.61108 0.33431,106.83175 -6.89862,20.04004 -33.30441,25.16612 -50.66708,16.52994 -18.64653,-8.68889 -28.20689,-29.46899 -32.27983,-48.62404 -5.58889,-28.08111 2.78453,-56.22532 14.23644,-81.70474 26.19546,-63.70302 63.98205,-124.58477 70.71635,-194.40112 3.9528,-42.42161 -15.94429,-81.87604 -33.98855,-118.79276 C 542.10786,217.50654 510.86533,174.48627 485.4378,99.289088 468.64754,128.55706 464.48703,157.73014 465.86419,184.35969 z"
       id="path4120"
       inkscape:connector-curvature="0"
       sodipodi:nodetypes="cccccccccccccccccccccccccccccc" />
    <path
       style="opacity:0.3;fill:#000000;fill-opacity:1;stroke:none"
       d="m 329.3386,336.77529 c 0,0 71.05712,81.11598 -13.23983,258.3193 -30.26262,63.61592 -75.65656,111.80983 -68.09084,200.4866 12.49163,146.41281 132.39879,223.61971 257.23203,223.61971 124.83309,0 257.23208,-100.24335 264.79761,-212.05316 7.56566,-111.80983 -60.52519,-150.36498 -79.43932,-192.77559 -18.91412,-42.41062 5.67424,-138.79843 39.71978,-192.77557 -52.95967,36.62734 -58.6339,36.62734 -92.67933,117.5931 -34.04538,80.96573 15.39246,184.01556 -30.26258,208.19762 -57.98127,30.71093 -105.01546,-38.107 -87.0049,-106.02657 18.91406,-71.32698 76.93681,-145.0761 83.2221,-235.1862 5.23345,-75.02887 -104.02768,-204.34215 -119.15894,-283.38014 -30.26259,65.54371 38.322,200.2481 15.13134,275.66911 C 449.66444,560.75324 394.03144,578.23785 395.53807,473.64597 396.40152,413.69886 329.3386,336.77529 329.3386,336.77529 z"
       id="path4118"
       inkscape:connector-curvature="0"
       sodipodi:nodetypes="cssssscsssscssc"
       inkscape:export-filename="C:\Users\Madnester\Desktop\Sketches\256.png"
       inkscape:export-xdpi="23.039482"
       inkscape:export-ydpi="23.039482" />
    <path
       inkscape:export-ydpi="23.039482"
       inkscape:export-xdpi="23.039482"
       inkscape:export-filename="C:\Users\Madnester\Desktop\Sketches\256.png"
       sodipodi:nodetypes="cssssscsssscssc"
       inkscape:connector-curvature="0"
       id="path4019-2"
       d="m 329.3386,327.26593 c 0,0 71.05712,81.11598 -13.23983,258.31929 -30.26262,63.61593 -75.65656,111.80984 -68.09084,200.48661 12.49163,146.41281 132.39879,223.61967 257.23203,223.61967 124.83309,0 257.23208,-100.24331 264.79761,-212.05313 7.56566,-111.80982 -60.52519,-150.36498 -79.43932,-192.77558 -18.91412,-42.41063 5.67424,-138.79844 39.71978,-192.77557 -52.95967,36.62733 -58.6339,36.62733 -92.67933,117.5931 -34.04538,80.96572 15.39246,184.01556 -30.26258,208.19762 -57.98127,30.71093 -105.01546,-38.10701 -87.0049,-106.02657 18.91406,-71.32698 76.93681,-145.0761 83.2221,-235.1862 5.23345,-75.02887 -104.02768,-204.34215 -119.15894,-283.38014 -30.26259,65.54371 38.322,200.24809 15.13134,275.66911 C 449.66444,551.24388 394.03144,568.72848 395.53807,464.13661 396.40152,404.18949 329.3386,327.26593 329.3386,327.26593 z"
       style="fill:url(#linearGradient4362);fill-opacity:1;stroke:none" />
    <path
       inkscape:connector-curvature="0"
       style="opacity:0.6;fill:#ffffff;fill-opacity:1;stroke:none"
       d="m 484.44548,113.27668 c -6.93932,15.02939 -8.69779,33.70225 -7.54063,54.45596 0.77814,-12.24121 3.08421,-23.40802 7.54063,-33.0599 14.11497,73.72942 110.09419,191.21048 118.68131,267.56229 0.17414,-1.8555 0.35251,-3.70242 0.4829,-5.57189 C 608.84315,321.63428 499.57673,192.31466 484.44548,113.27668 z M 330.10406,328.20315 c 3.11235,3.9686 14.87399,20.36968 21.87896,50.07274 19.37869,27.88938 44.09858,70.69543 43.57221,107.24036 -1.50665,104.59187 54.10738,87.10634 104.00866,-75.1834 4.39128,-14.2814 5.46476,-30.66627 4.56895,-48.32688 -0.58141,9.58185 -2.01276,18.61749 -4.56895,26.93081 -49.90128,162.28974 -105.51531,179.77528 -104.00866,75.1834 0.83423,-57.91873 -61.21574,-130.99143 -65.45117,-135.91703 z m 400.21047,83.87556 c -52.9596,36.62734 -58.63371,36.63832 -92.67915,117.60407 -11.78849,28.03502 -13.55745,58.71059 -12.74105,87.85019 0.66536,-22.45398 3.81108,-45.21713 12.74105,-66.45411 29.82632,-70.93198 37.88781,-79.74012 75.03483,-105.45736 5.41495,-12.21275 11.37559,-23.60406 17.64432,-33.54279 z m -373.20537,25.25924 c -1.60734,38.65899 -12.288,87.87389 -41.00912,148.2495 -29.29506,61.582 -72.75877,108.72777 -68.64572,192.11885 3.50587,-70.48885 41.95064,-114.60627 68.64572,-170.72278 34.31801,-72.14099 42.9104,-128.34494 41.00912,-169.64557 z m 327.29298,139.55734 c -1.14001,19.50724 0.60599,36.81608 6.20337,49.36697 17.26759,38.71857 75.49732,74.22219 79.75236,165.18804 4.68982,-107.05608 -61.19197,-144.96673 -79.75236,-186.5841 -3.44647,-7.72793 -5.43974,-17.24173 -6.20337,-27.97091 z m -167.4168,95.61368 c -5.57467,60.81422 37.89409,114.57108 90.37609,86.77294 19.1944,-10.16667 21.58185,-34.31152 20.43028,-64.85683 -1.06411,20.23611 -5.98905,35.81168 -20.43028,43.46077 -46.20381,24.47277 -85.44996,-14.26457 -90.37609,-65.37688 z"
       id="path4082" />
    <path
       sodipodi:type="inkscape:offset"
       inkscape:radius="0.81513637"
       inkscape:original="M 48 26.96875 C 35.85329 26.96875 25.96875 36.853291 25.96875 49 C 25.96875 61.146707 35.85329 71.03125 48 71.03125 C 60.146709 71.03125 70.03125 61.146707 70.03125 49 C 70.03125 36.853291 60.146709 26.96875 48 26.96875 z M 48 37.34375 C 54.443426 37.34375 59.65625 42.556575 59.65625 49 C 59.65625 49.867734 59.35582 50.656275 59.15625 51.46875 L 45.53125 37.84375 C 46.342738 37.644295 47.12962 37.34375 48 37.34375 z M 36.84375 46 L 51 60.15625 C 50.031743 60.440136 49.045015 60.65625 48 60.65625 C 41.556575 60.65625 36.34375 55.443423 36.34375 49 C 36.34375 47.957928 36.559796 46.969402 36.84375 46 z "
       style="opacity:0.1;fill:#000000;fill-opacity:1;stroke:none;display:inline"
       id="path3799"
       d="M 48,26.15625 C 35.411072,26.15625 25.15625,36.411073 25.15625,49 25.15625,61.588926 35.411071,71.84375 48,71.84375 60.588928,71.84375 70.84375,61.588926 70.84375,49 70.84375,36.411073 60.588927,26.15625 48,26.15625 z m 0,12 c 6.003788,0 10.84375,4.839963 10.84375,10.84375 0,0.252184 -0.131302,0.574979 -0.1875,0.84375 l -11.5,-11.5 c 0.268749,-0.0562 0.590398,-0.1875 0.84375,-0.1875 z m -10.625,9.5 L 49.34375,59.625 C 48.900056,59.702453 48.450173,59.84375 48,59.84375 41.996213,59.84375 37.15625,55.003785 37.15625,49 c 0,-0.448616 0.141288,-0.899778 0.21875,-1.34375 z"
       transform="matrix(10.421774,0,0,10.421774,251.38331,290.7523)" />
    <path
       sodipodi:type="inkscape:offset"
       inkscape:radius="0.96724075"
       inkscape:original="M 48 27.9375 C 36.376978 27.9375 26.9375 37.376979 26.9375 49 C 26.9375 60.623019 36.376978 70.0625 48 70.0625 C 59.623021 70.0625 69.0625 60.623019 69.0625 49 C 69.0625 37.376979 59.623021 27.9375 48 27.9375 z M 48 36.375 C 54.967085 36.375 60.625 42.032916 60.625 49 C 60.625 50.577229 60.283926 52.045362 59.75 53.4375 L 43.5625 37.25 C 44.954494 36.715161 46.419083 36.375 48 36.375 z M 36.40625 44.1875 L 52.8125 60.59375 C 51.320395 61.218498 49.718363 61.625 48 61.625 C 41.032916 61.625 35.375 55.967082 35.375 49 C 35.375 47.285314 35.782579 45.679626 36.40625 44.1875 z "
       style="opacity:0.15;fill:#000000;fill-opacity:1;stroke:none;display:inline"
       id="path3795"
       d="M 48,26.96875 C 35.85329,26.96875 25.96875,36.853291 25.96875,49 25.96875,61.146707 35.85329,71.03125 48,71.03125 60.146709,71.03125 70.03125,61.146707 70.03125,49 70.03125,36.853291 60.146709,26.96875 48,26.96875 z m 0,10.375 c 6.443426,0 11.65625,5.212825 11.65625,11.65625 0,0.867734 -0.30043,1.656275 -0.5,2.46875 l -13.625,-13.625 c 0.811488,-0.199455 1.59837,-0.5 2.46875,-0.5 z M 36.84375,46 51,60.15625 c -0.968257,0.283886 -1.954985,0.5 -3,0.5 -6.443425,0 -11.65625,-5.212827 -11.65625,-11.65625 0,-1.042072 0.216046,-2.030598 0.5,-3 z"
       transform="matrix(10.421774,0,0,10.421774,251.38331,290.7523)" />
    <path
       sodipodi:type="inkscape:offset"
       inkscape:radius="0.56744033"
       inkscape:original="M 48 28.5 C 36.683999 28.5 27.5 37.684 27.5 49 C 27.5 60.315998 36.683999 69.5 48 69.5 C 59.316 69.5 68.5 60.315998 68.5 49 C 68.5 37.684 59.316 28.5 48 28.5 z M 48 35.8125 C 55.27457 35.8125 61.1875 41.725431 61.1875 49 C 61.1875 50.965932 60.741657 52.823737 59.96875 54.5 L 42.5 37.03125 C 44.178707 36.2556 46.03036 35.8125 48 35.8125 z M 36.1875 43.15625 L 53.84375 60.8125 C 52.080905 61.687867 50.100532 62.1875 48 62.1875 C 40.725431 62.1875 34.8125 56.274567 34.8125 49 C 34.8125 46.903103 35.314968 44.916816 36.1875 43.15625 z "
       style="opacity:0.3;fill:#000000;fill-opacity:1;stroke:none;display:inline"
       id="path3791"
       d="M 48,27.9375 C 36.376978,27.9375 26.9375,37.376979 26.9375,49 26.9375,60.623019 36.376978,70.0625 48,70.0625 59.623021,70.0625 69.0625,60.623019 69.0625,49 69.0625,37.376979 59.623021,27.9375 48,27.9375 z m 0,8.4375 c 6.967085,0 12.625,5.657916 12.625,12.625 0,1.577229 -0.341074,3.045362 -0.875,4.4375 L 43.5625,37.25 C 44.954494,36.715161 46.419083,36.375 48,36.375 z M 36.40625,44.1875 52.8125,60.59375 C 51.320395,61.218498 49.718363,61.625 48,61.625 41.032916,61.625 35.375,55.967082 35.375,49 c 0,-1.714686 0.407579,-3.320374 1.03125,-4.8125 z"
       transform="matrix(10.421774,0,0,10.421774,251.38331,290.7523)" />
    <path
       style="fill:url(#linearGradient3330);fill-opacity:1;stroke:#a00000;stroke-width:10.42177391;stroke-linecap:round;stroke-linejoin:miter;stroke-miterlimit:4;stroke-opacity:1;stroke-dasharray:none;display:inline"
       d="m 751.62848,577.3511 c -117.9328,0 -213.64637,95.71357 -213.64637,213.64637 0,117.93311 95.71357,213.64673 213.64637,213.64673 117.9328,0 213.64637,-95.71362 213.64637,-213.64673 0,-117.9328 -95.71357,-213.64637 -213.64637,-213.64637 z m 0,76.30228 c 75.81392,0 137.34409,61.53017 137.34409,137.34409 0,20.48848 -4.58245,39.87611 -12.63755,57.34613 L 694.16334,666.29084 c 17.49504,-8.08366 36.938,-12.63746 57.46514,-12.63746 z m -123.03737,76.54065 183.95994,183.84113 c -18.37192,9.12219 -39.03132,14.30598 -60.92257,14.30598 -75.81392,0 -137.34408,-61.53017 -137.34408,-137.34367 0,-21.85342 5.21339,-42.45519 14.30671,-60.80344 z"
       id="path2424"
       inkscape:connector-curvature="0" />
    <path
       style="opacity:0.5;fill:url(#linearGradient3812);fill-opacity:1;stroke:none;display:inline"
       d="m 751.62848,577.3511 c -117.9328,0 -213.64637,95.71357 -213.64637,213.64637 0,1.73283 -0.0417,3.48785 0,5.21089 2.75572,-115.541 97.44641,-208.43548 213.64637,-208.43548 116.19997,0 210.89065,92.89448 213.64637,208.43548 0.0417,-1.72304 0,-3.47806 0,-5.21089 0,-117.9328 -95.71357,-213.64637 -213.64637,-213.64637 z m -49.82911,96.4014 c -2.52874,0.99216 -5.03621,1.79704 -7.49064,2.93113 l 182.05536,182.05569 c 8.0551,-17.47002 12.70155,-36.8316 12.70155,-57.32008 0,-2.09435 -0.23241,-4.11649 -0.32516,-6.18793 -0.58571,18.92511 -4.87876,36.82514 -12.37639,53.08623 L 701.79937,673.7525 z m -87.28236,123.10721 c -0.0521,1.51814 -0.32516,3.02878 -0.32516,4.55953 0,75.81351 61.62322,137.43746 137.43716,137.43746 21.89125,0 42.53032,-5.20776 60.90224,-14.32993 l -7.49065,-7.49117 c -16.48756,7.02948 -34.36331,11.39934 -53.41159,11.39934 -73.82962,0 -134.00631,-58.50576 -137.11147,-131.57523 z"
       id="path3801"
       inkscape:connector-curvature="0" />
  </g>
</svg>
