<?xml version="1.0" encoding="UTF-8" standalone="no"?>
<!-- Created with Inkscape (http://www.inkscape.org/) -->

<svg
   xmlns:dc="http://purl.org/dc/elements/1.1/"
   xmlns:cc="http://creativecommons.org/ns#"
   xmlns:rdf="http://www.w3.org/1999/02/22-rdf-syntax-ns#"
   xmlns:svg="http://www.w3.org/2000/svg"
   xmlns="http://www.w3.org/2000/svg"
   xmlns:xlink="http://www.w3.org/1999/xlink"
   xmlns:sodipodi="http://sodipodi.sourceforge.net/DTD/sodipodi-0.dtd"
   xmlns:inkscape="http://www.inkscape.org/namespaces/inkscape"
   inkscape:version="0.48+devel r11802"
   version="1.1"
   id="svg2"
   height="24"
   width="24"
   sodipodi:docname="qutim-message-new.svg">
  <defs
     id="defs4">
    <linearGradient
       id="linearGradient4414">
      <stop
         style="stop-color:#0069c8;stop-opacity:1;"
         offset="0"
         id="stop4416" />
      <stop
         style="stop-color:#55c4ff;stop-opacity:1;"
         offset="1"
         id="stop4418" />
    </linearGradient>
    <linearGradient
       inkscape:collect="always"
       xlink:href="#linearGradient4414"
       id="linearGradient4074"
       gradientUnits="userSpaceOnUse"
       gradientTransform="matrix(0.02517782,0,0,0.02517459,-0.58177406,1026.4982)"
       x1="623.2478"
       y1="993.46124"
       x2="623.2478"
       y2="98.363487" />
  </defs>
  <sodipodi:namedview
     id="base"
     pagecolor="#ffffff"
     bordercolor="#666666"
     borderopacity="1.0"
     inkscape:pageopacity="0.0"
     inkscape:pageshadow="2"
     inkscape:zoom="0.175"
     inkscape:cx="-1663.9424"
     inkscape:cy="524.76257"
     inkscape:document-units="px"
     inkscape:current-layer="layer1"
     showgrid="false"
     inkscape:window-width="1440"
     inkscape:window-height="848"
     inkscape:window-x="-8"
     inkscape:window-y="-8"
     inkscape:window-maximized="1"
     inkscape:snap-bbox="false"
     inkscape:snap-global="true"
     showguides="false"
     inkscape:guide-bbox="true"
     width="0px"
     height="0px"
     fit-margin-top="0"
     fit-margin-left="0"
     fit-margin-right="0"
     fit-margin-bottom="0">
    <sodipodi:guide
       orientation="1,0"
       position="0,810.14234"
       id="guide3219" />
    <sodipodi:guide
       orientation="1,0"
       position="1000.051,496.99505"
       id="guide3221" />
    <sodipodi:guide
       orientation="0,1"
       position="125.25891,1000.051"
       id="guide3223" />
    <sodipodi:guide
       orientation="0,1"
       position="-389.91888,499.01535"
       id="guide3224" />
    <sodipodi:guide
       orientation="1,0"
       position="499.01535,349.51278"
       id="guide3226" />
    <sodipodi:guide
       orientation="1,0"
       position="-499.01535,256.57874"
       id="guide3228" />
    <sodipodi:guide
       orientation="0,1"
       position="-909.13728,0"
       id="guide3230" />
  </sodipodi:namedview>
  <metadata
     id="metadata7">
    <rdf:RDF>
      <cc:Work
         rdf:about="">
        <dc:format>image/svg+xml</dc:format>
        <dc:type
           rdf:resource="http://purl.org/dc/dcmitype/StillImage" />
        <dc:title></dc:title>
      </cc:Work>
    </rdf:RDF>
  </metadata>
  <g
     inkscape:label="Layer 1"
     inkscape:groupmode="layer"
     id="layer1"
     transform="translate(0,-1028.3622)">
    <path
       style="opacity:0.07999998;fill:#000000;fill-opacity:1;fill-rule:nonzero;stroke:none"
       d="m 15.928577,1028.3627 c -0.909231,0.1059 -1.656969,0.695 -2.503788,0.9964 -4.2664007,1.9496 -8.5539088,3.8531 -12.8043226,5.8377 -0.68707464,0.4805 -0.8113949,1.5335 -0.33360603,2.1996 2.19431663,4.7771 4.32195403,9.5846 6.54623183,14.348 0.4818233,0.6918 1.5453424,0.8074 2.2180081,0.3225 4.7702327,-2.1886 9.5690337,-4.3169 14.3265857,-6.5319 0.684862,-0.4778 0.814219,-1.5286 0.339493,-2.1958 -2.190088,-4.7686 -4.320692,-9.5653 -6.53207,-14.3235 C 16.906952,1028.6103 16.420083,1028.3492 15.928577,1028.3627 z m -0.735662,3.6306 c 0.161666,0.2385 0.206926,0.5344 0.359088,0.7793 1.61061,3.5903 3.292684,7.1492 4.851933,10.7617 -0.245171,0.1839 -0.561263,0.2242 -0.820343,0.3849 -3.586139,1.6119 -7.145693,3.2878 -10.751225,4.8491 -0.195865,-0.251 -0.2292643,-0.5817 -0.3993355,-0.8469 -1.6075015,-3.5762 -3.2807557,-7.1237 -4.8360766,-10.7224 0.2262334,-0.186 0.5329073,-0.2121 0.7762173,-0.3701 3.6009325,-1.6181 7.1740018,-3.2993 10.7961368,-4.8686 l 0.01463,0.021 L 15.192915,1031.9933 Z"
       id="path4054-4-5"
       inkscape:connector-curvature="0" />
    <path
       style="opacity:0.1;fill:#000000;fill-opacity:1;fill-rule:nonzero;stroke:none"
       d="m 15.888451,1028.5657 c -0.759977,0.1074 -1.389878,0.5947 -2.101044,0.8479 -4.346772,1.9858 -8.7119763,3.9312 -13.04655918,5.9437 -0.59820298,0.4122 -0.70419707,1.3312 -0.29190531,1.9085 2.19105739,4.7815 4.32780029,9.5878 6.54465839,14.3574 0.4124296,0.599 1.327904,0.7011 1.9048592,0.2919 4.7767899,-2.1846 9.5728999,-4.3273 14.3411279,-6.5304 0.614031,-0.4049 0.728175,-1.3293 0.31315,-1.918 -2.181873,-4.7683 -4.322523,-9.5554 -6.520269,-14.3165 C 16.788211,1028.7777 16.336745,1028.5365 15.888451,1028.5657 z m -0.701831,3.179 c 0.27115,0.092 0.280408,0.4237 0.408596,0.6375 1.671567,3.7151 3.397882,7.4064 5.032959,11.1372 -0.05,0.2702 -0.369872,0.3019 -0.569789,0.406 -3.744462,1.6833 -7.463121,3.4255 -11.2252313,5.0679 -0.273859,-0.078 -0.3000014,-0.4051 -0.4163328,-0.6193 -1.6750881,-3.7259 -3.4099678,-7.4255 -5.0448926,-11.1687 0.056796,-0.2664 0.3685176,-0.2974 0.5720085,-0.402 3.7436393,-1.6833 7.4607682,-3.4272 11.2237992,-5.0656 L 15.18662,1031.7447 Z"
       id="path4024-2-0"
       inkscape:connector-curvature="0" />
    <path
       style="opacity:0.15;fill:#000000;fill-opacity:1;fill-rule:nonzero;stroke:none"
       d="m 15.883731,1028.7647 c -0.56176,0.075 -1.025762,0.4311 -1.55047,0.621 -4.4827365,2.0446 -8.9790254,4.0604 -13.4539352,6.1219 -0.50614709,0.3305 -0.62383576,1.0873 -0.29011417,1.579 2.19384437,4.8031 4.34937977,9.6247 6.56610697,14.4169 0.3413141,0.4989 1.0988544,0.5973 1.5882314,0.2603 4.789907,-2.1862 9.595358,-4.3392 14.377232,-6.5428 0.507091,-0.3288 0.623073,-1.0865 0.289353,-1.579 -2.180333,-4.7858 -4.339807,-9.5811 -6.532669,-14.3612 C 16.669175,1028.9477 16.277169,1028.7417 15.883731,1028.7647 z m -0.714421,2.7716 c 0.289789,0.01 0.435685,0.3155 0.513157,0.5531 1.711809,3.7848 3.450642,7.5578 5.14241,11.3513 0.05115,0.2775 -0.205126,0.5087 -0.456461,0.5642 -3.81733,1.7258 -7.62226,3.4804 -11.449499,5.1835 -0.2777683,0.049 -0.5043007,-0.2097 -0.5611399,-0.458 -1.7237505,-3.8153 -3.4774256,-7.6175 -5.1825491,-11.4409 -0.049664,-0.2777 0.204634,-0.5113 0.4564617,-0.5651 3.8154723,-1.7245 7.6185073,-3.4781 11.4432033,-5.181 C 15.106149,1031.5385 15.137692,1031.5366 15.16931,1031.5363 Z"
       id="path4010-8-8"
       inkscape:connector-curvature="0" />
    <path
       style="opacity:0.3;fill:#000000;fill-opacity:1;fill-rule:nonzero;stroke:none"
       d="m 15.915875,1029.0157 c -0.11155,0 -0.224397,0.029 -0.332712,0.078 l -14.4293748,6.5512 c -0.4332619,0.1967 -0.62381994,0.7046 -0.42706411,1.1378 l 6.55280871,14.4267 c 0.1967568,0.4332 0.7039204,0.6237 1.1371821,0.427 l 14.4293791,-6.5519 c 0.43326,-0.1968 0.62382,-0.7039 0.427064,-1.1371 L 16.720347,1029.52 C 16.572777,1029.1951 16.250531,1029.0065 15.915875,1029.0157 z m -0.783186,2.2698 c 0.267723,-0.01 0.525381,0.1436 0.643434,0.4036 l 5.242533,11.5419 c 0.157404,0.3466 0.0047,0.752 -0.341935,0.9094 l -11.543503,5.2418 c -0.3466094,0.1574 -0.7520572,0 -0.9094622,-0.3419 l -5.2425311,-11.5419 c -0.1574045,-0.3466 -0.00467,-0.752 0.3419349,-0.9094 L 14.86666,1031.3472 C 14.953312,1031.3078 15.043446,1031.2879 15.132689,1031.2855 Z"
       id="path4022-2-3"
       inkscape:export-filename="C:\Users\Madnester\Desktop\Sketches\256.png"
       inkscape:export-xdpi="23.039482"
       inkscape:export-ydpi="23.039482"
       inkscape:connector-curvature="0" />
    <path
       style="fill:url(#linearGradient4074);fill-opacity:1;fill-rule:nonzero;stroke:none"
       d="m 15.915875,1028.7639 c -0.11155,0 -0.224397,0.029 -0.332712,0.078 l -14.4293748,6.5513 c -0.4332619,0.1967 -0.62381994,0.7045 -0.42706411,1.1377 l 6.55280871,14.4268 c 0.1967568,0.4332 0.7039204,0.6237 1.1371821,0.427 l 14.4293791,-6.552 c 0.43326,-0.1967 0.62382,-0.7038 0.427064,-1.137 l -6.552811,-14.4275 C 16.572777,1028.9433 16.250531,1028.7548 15.915875,1028.7639 Z"
       id="path3260"
       inkscape:connector-curvature="0" />
    <path
       style="opacity:0.6;fill:#ffffff;fill-opacity:1;fill-rule:nonzero;stroke:none"
       d="m 15.915979,1028.7636 c -0.111552,0 -0.224504,0.03 -0.33282,0.079 l -14.4292482,6.5509 c -0.39036829,0.1772 -0.58311439,0.6067 -0.47365765,1.007 0.0653223,-0.2369 0.23158741,-0.444 0.47365765,-0.5539 l 14.4292482,-6.5509 c 0.108316,-0.049 0.221268,-0.076 0.33282,-0.079 0.334655,-0.01 0.656548,0.1794 0.804116,0.5043 l 6.553313,14.4282 c 0.01948,0.043 0.03439,0.086 0.04642,0.1298 0.05159,-0.1869 0.0404,-0.3918 -0.04642,-0.5829 l -6.553313,-14.4282 C 16.572527,1028.943 16.250634,1028.7545 15.915979,1028.7636 Z"
       id="path3264"
       inkscape:connector-curvature="0" />
  </g>
</svg>
