<?xml version="1.0" encoding="UTF-8" standalone="no"?>
<!-- Created with Inkscape (http://www.inkscape.org/) -->

<svg
   xmlns:dc="http://purl.org/dc/elements/1.1/"
   xmlns:cc="http://creativecommons.org/ns#"
   xmlns:rdf="http://www.w3.org/1999/02/22-rdf-syntax-ns#"
   xmlns:svg="http://www.w3.org/2000/svg"
   xmlns="http://www.w3.org/2000/svg"
   xmlns:xlink="http://www.w3.org/1999/xlink"
   xmlns:sodipodi="http://sodipodi.sourceforge.net/DTD/sodipodi-0.dtd"
   xmlns:inkscape="http://www.inkscape.org/namespaces/inkscape"
   inkscape:version="0.48+devel r11802"
   version="1.1"
   id="svg2"
   height="24"
   width="24"
   sodipodi:docname="qutim-online.svg">
  <defs
     id="defs4">
    <linearGradient
       id="linearGradient4414">
      <stop
         style="stop-color:#0069c8;stop-opacity:1;"
         offset="0"
         id="stop4416" />
      <stop
         style="stop-color:#55c4ff;stop-opacity:1;"
         offset="1"
         id="stop4418" />
    </linearGradient>
    <linearGradient
       y2="437.74796"
       x2="499.01535"
       y1="852.69623"
       x1="499.01535"
       gradientTransform="matrix(1.2103826,0,0,1.210382,-106.55464,-12.377908)"
       gradientUnits="userSpaceOnUse"
       id="linearGradient4362-4"
       xlink:href="#linearGradient4094-0"
       inkscape:collect="always" />
    <linearGradient
       id="linearGradient4094-0">
      <stop
         id="stop4096-0"
         offset="0"
         style="stop-color:#aaaaaa;stop-opacity:1;" />
      <stop
         id="stop4098-3"
         offset="1"
         style="stop-color:#f0f0f0;stop-opacity:1;" />
    </linearGradient>
    <linearGradient
       inkscape:collect="always"
       xlink:href="#linearGradient4414"
       id="linearGradient4074"
       gradientUnits="userSpaceOnUse"
       gradientTransform="matrix(0.02517782,0,0,0.02517459,-0.58177406,1026.4982)"
       x1="623.2478"
       y1="993.46124"
       x2="623.2478"
       y2="98.363487" />
  </defs>
  <sodipodi:namedview
     id="base"
     pagecolor="#ffffff"
     bordercolor="#666666"
     borderopacity="1.0"
     inkscape:pageopacity="0.0"
     inkscape:pageshadow="2"
     inkscape:zoom="15.839192"
     inkscape:cx="11.06488"
     inkscape:cy="10.634136"
     inkscape:document-units="px"
     inkscape:current-layer="layer1"
     showgrid="false"
     inkscape:window-width="1440"
     inkscape:window-height="848"
     inkscape:window-x="-8"
     inkscape:window-y="-8"
     inkscape:window-maximized="1"
     inkscape:snap-bbox="false"
     inkscape:snap-global="true"
     showguides="false"
     inkscape:guide-bbox="true"
     width="0px"
     height="0px"
     fit-margin-top="0"
     fit-margin-left="0"
     fit-margin-right="0"
     fit-margin-bottom="0">
    <sodipodi:guide
       orientation="1,0"
       position="0,810.14234"
       id="guide3219" />
    <sodipodi:guide
       orientation="1,0"
       position="1000.051,496.99505"
       id="guide3221" />
    <sodipodi:guide
       orientation="0,1"
       position="125.25891,1000.051"
       id="guide3223" />
    <sodipodi:guide
       orientation="0,1"
       position="-389.91888,499.01535"
       id="guide3224" />
    <sodipodi:guide
       orientation="1,0"
       position="499.01535,349.51278"
       id="guide3226" />
    <sodipodi:guide
       orientation="1,0"
       position="-499.01535,256.57874"
       id="guide3228" />
    <sodipodi:guide
       orientation="0,1"
       position="-909.13728,0"
       id="guide3230" />
  </sodipodi:namedview>
  <metadata
     id="metadata7">
    <rdf:RDF>
      <cc:Work
         rdf:about="">
        <dc:format>image/svg+xml</dc:format>
        <dc:type
           rdf:resource="http://purl.org/dc/dcmitype/StillImage" />
        <dc:title></dc:title>
      </cc:Work>
    </rdf:RDF>
  </metadata>
  <g
     inkscape:label="Layer 1"
     inkscape:groupmode="layer"
     id="layer1"
     transform="translate(0,-1028.3622)">
    <path
       style="opacity:0.07999998;fill:#000000;fill-opacity:1;fill-rule:nonzero;stroke:none"
       d="m 15.928577,1028.3627 c -0.909231,0.1059 -1.656969,0.695 -2.503788,0.9964 -4.2664007,1.9496 -8.5539088,3.8531 -12.8043226,5.8377 -0.68707464,0.4805 -0.8113949,1.5335 -0.33360603,2.1996 2.19431663,4.7771 4.32195403,9.5846 6.54623183,14.348 0.4818233,0.6918 1.5453424,0.8074 2.2180081,0.3225 4.7702327,-2.1886 9.5690337,-4.3169 14.3265857,-6.5319 0.684862,-0.4778 0.814219,-1.5286 0.339493,-2.1958 -2.190088,-4.7686 -4.320692,-9.5653 -6.53207,-14.3235 C 16.906952,1028.6103 16.420083,1028.3492 15.928577,1028.3627 z m -0.735662,3.6306 c 0.161666,0.2385 0.206926,0.5344 0.359088,0.7793 1.61061,3.5903 3.292684,7.1492 4.851933,10.7617 -0.245171,0.1839 -0.561263,0.2242 -0.820343,0.3849 -3.586139,1.6119 -7.145693,3.2878 -10.751225,4.8491 -0.195865,-0.251 -0.2292643,-0.5817 -0.3993355,-0.8469 -1.6075015,-3.5762 -3.2807557,-7.1237 -4.8360766,-10.7224 0.2262334,-0.186 0.5329073,-0.2121 0.7762173,-0.3701 3.6009325,-1.6181 7.1740018,-3.2993 10.7961368,-4.8686 l 0.01463,0.021 L 15.192915,1031.9933 Z"
       id="path4054-4-5"
       inkscape:connector-curvature="0" />
    <path
       style="opacity:0.1;fill:#000000;fill-opacity:1;fill-rule:nonzero;stroke:none"
       d="m 15.888451,1028.5657 c -0.759977,0.1074 -1.389878,0.5947 -2.101044,0.8479 -4.346772,1.9858 -8.7119763,3.9312 -13.04655918,5.9437 -0.59820298,0.4122 -0.70419707,1.3312 -0.29190531,1.9085 2.19105739,4.7815 4.32780029,9.5878 6.54465839,14.3574 0.4124296,0.599 1.327904,0.7011 1.9048592,0.2919 4.7767899,-2.1846 9.5728999,-4.3273 14.3411279,-6.5304 0.614031,-0.4049 0.728175,-1.3293 0.31315,-1.918 -2.181873,-4.7683 -4.322523,-9.5554 -6.520269,-14.3165 C 16.788211,1028.7777 16.336745,1028.5365 15.888451,1028.5657 z m -0.701831,3.179 c 0.27115,0.092 0.280408,0.4237 0.408596,0.6375 1.671567,3.7151 3.397882,7.4064 5.032959,11.1372 -0.05,0.2702 -0.369872,0.3019 -0.569789,0.406 -3.744462,1.6833 -7.463121,3.4255 -11.2252313,5.0679 -0.273859,-0.078 -0.3000014,-0.4051 -0.4163328,-0.6193 -1.6750881,-3.7259 -3.4099678,-7.4255 -5.0448926,-11.1687 0.056796,-0.2664 0.3685176,-0.2974 0.5720085,-0.402 3.7436393,-1.6833 7.4607682,-3.4272 11.2237992,-5.0656 L 15.18662,1031.7447 Z"
       id="path4024-2-0"
       inkscape:connector-curvature="0" />
    <path
       style="opacity:0.15;fill:#000000;fill-opacity:1;fill-rule:nonzero;stroke:none"
       d="m 15.883731,1028.7647 c -0.56176,0.075 -1.025762,0.4311 -1.55047,0.621 -4.4827365,2.0446 -8.9790254,4.0604 -13.4539352,6.1219 -0.50614709,0.3305 -0.62383576,1.0873 -0.29011417,1.579 2.19384437,4.8031 4.34937977,9.6247 6.56610697,14.4169 0.3413141,0.4989 1.0988544,0.5973 1.5882314,0.2603 4.789907,-2.1862 9.595358,-4.3392 14.377232,-6.5428 0.507091,-0.3288 0.623073,-1.0865 0.289353,-1.579 -2.180333,-4.7858 -4.339807,-9.5811 -6.532669,-14.3612 C 16.669175,1028.9477 16.277169,1028.7417 15.883731,1028.7647 z m -0.714421,2.7716 c 0.289789,0.01 0.435685,0.3155 0.513157,0.5531 1.711809,3.7848 3.450642,7.5578 5.14241,11.3513 0.05115,0.2775 -0.205126,0.5087 -0.456461,0.5642 -3.81733,1.7258 -7.62226,3.4804 -11.449499,5.1835 -0.2777683,0.049 -0.5043007,-0.2097 -0.5611399,-0.458 -1.7237505,-3.8153 -3.4774256,-7.6175 -5.1825491,-11.4409 -0.049664,-0.2777 0.204634,-0.5113 0.4564617,-0.5651 3.8154723,-1.7245 7.6185073,-3.4781 11.4432033,-5.181 C 15.106149,1031.5385 15.137692,1031.5366 15.16931,1031.5363 Z"
       id="path4010-8-8"
       inkscape:connector-curvature="0" />
    <path
       style="opacity:0.3;fill:#000000;fill-opacity:1;fill-rule:nonzero;stroke:none"
       d="m 15.915875,1029.0157 c -0.11155,0 -0.224397,0.029 -0.332712,0.078 l -14.4293748,6.5512 c -0.4332619,0.1967 -0.62381994,0.7046 -0.42706411,1.1378 l 6.55280871,14.4267 c 0.1967568,0.4332 0.7039204,0.6237 1.1371821,0.427 l 14.4293791,-6.5519 c 0.43326,-0.1968 0.62382,-0.7039 0.427064,-1.1371 L 16.720347,1029.52 C 16.572777,1029.1951 16.250531,1029.0065 15.915875,1029.0157 z m -0.783186,2.2698 c 0.267723,-0.01 0.525381,0.1436 0.643434,0.4036 l 5.242533,11.5419 c 0.157404,0.3466 0.0047,0.752 -0.341935,0.9094 l -11.543503,5.2418 c -0.3466094,0.1574 -0.7520572,0 -0.9094622,-0.3419 l -5.2425311,-11.5419 c -0.1574045,-0.3466 -0.00467,-0.752 0.3419349,-0.9094 L 14.86666,1031.3472 C 14.953312,1031.3078 15.043446,1031.2879 15.132689,1031.2855 Z"
       id="path4022-2-3"
       inkscape:export-filename="C:\Users\Madnester\Desktop\Sketches\256.png"
       inkscape:export-xdpi="23.039482"
       inkscape:export-ydpi="23.039482"
       inkscape:connector-curvature="0" />
    <path
       style="fill:url(#linearGradient4074);fill-opacity:1;fill-rule:nonzero;stroke:none"
       d="m 15.915875,1028.7639 c -0.11155,0 -0.224397,0.029 -0.332712,0.078 l -14.4293748,6.5513 c -0.4332619,0.1967 -0.62381994,0.7045 -0.42706411,1.1377 l 6.55280871,14.4268 c 0.1967568,0.4332 0.7039204,0.6237 1.1371821,0.427 l 14.4293791,-6.552 c 0.43326,-0.1967 0.62382,-0.7038 0.427064,-1.137 l -6.552811,-14.4275 C 16.572777,1028.9433 16.250531,1028.7548 15.915875,1028.7639 Z"
       id="path3260"
       inkscape:connector-curvature="0" />
    <path
       style="opacity:0.6;fill:#ffffff;fill-opacity:1;fill-rule:nonzero;stroke:none"
       d="m 15.915979,1028.7636 c -0.111552,0 -0.224504,0.03 -0.33282,0.079 l -14.4292482,6.5509 c -0.39036829,0.1772 -0.58311439,0.6067 -0.47365765,1.007 0.0653223,-0.2369 0.23158741,-0.444 0.47365765,-0.5539 l 14.4292482,-6.5509 c 0.108316,-0.049 0.221268,-0.076 0.33282,-0.079 0.334655,-0.01 0.656548,0.1794 0.804116,0.5043 l 6.553313,14.4282 c 0.01948,0.043 0.03439,0.086 0.04642,0.1298 0.05159,-0.1869 0.0404,-0.3918 -0.04642,-0.5829 l -6.553313,-14.4282 C 16.572527,1028.943 16.250634,1028.7545 15.915979,1028.7636 Z"
       id="path3264"
       inkscape:connector-curvature="0" />
    <g
       id="g3258"
       transform="matrix(0.024,0,0,0.024,4.3266294e-8,1027.1055)">
      <path
         sodipodi:nodetypes="cccccccccccccccccccccccccccc"
         inkscape:connector-curvature="0"
         id="path4142-9"
         d="m 440.12126,138.8148 c -8.86979,45.90626 0.38824,76.29507 9.19076,121.23229 7.96549,38.37749 16.50437,78.1695 9.12626,117.31967 -8.99008,37.2767 -24.20576,72.88947 -43.54497,105.90675 -1.85135,-26.48778 -0.97825,-54.57146 -14.16962,-78.45079 -16.86381,-40.50193 -40.47235,-79.42428 -73.96136,-108.13716 -21.1145,-10.98619 -50.37192,12.35979 -42.0608,35.40366 7.31741,19.56393 22.09827,36.42154 23.75377,57.83357 11.43846,57.57322 -4.84317,116.58692 -27.32999,169.23539 -26.35355,59.06298 -68.44293,112.47342 -78.08679,177.69035 -15.63963,100.04762 30.07101,207.70652 114.61792,263.49587 95.70347,65.5796 228.97097,68.9326 329.36557,11.2987 64.82011,-35.75961 120.69405,-93.73328 141.61479,-165.89802 17.68283,-62.49641 4.75388,-131.43079 -30.07051,-185.56668 -11.13069,-18.271 -25.65637,-34.11294 -39.10637,-50.59133 -12.7169,-18.99425 -13.60821,-42.7241 -9.72495,-64.65974 5.29772,-46.03142 25.88959,-88.80196 46.56185,-129.88912 5.21263,-17.07829 -9.48019,-35.58252 -27.04442,-35.81973 -18.66666,-1.53208 -32.167,13.72848 -46.74087,22.79606 -29.45187,21.23586 -54.363,49.43588 -67.60712,83.59331 -25.20934,49.48375 -36.16539,106.44112 -29.1202,161.8237 1.37651,22.76068 5.51842,47.02828 -2.68554,68.76483 -11.83811,9.86053 -30.86525,1.69836 -35.93323,-11.76339 -15.69724,-26.02713 -10.40485,-59.41692 1.79529,-85.78114 27.27792,-68.69508 68.4097,-133.74756 76.2744,-208.56864 5.50689,-50.97854 -17.66931,-98.78903 -40.49841,-142.73999 C 528.08735,171.31372 516.45634,152.04623 476.5633,52.362184 450.70905,97.908014 449.81576,98.87805 440.12126,138.8148 Z"
         style="opacity:0.07999998;fill:#000000;fill-opacity:1;stroke:none" />
      <path
         sodipodi:nodetypes="ccccccccccccccccccccccccccccc"
         inkscape:connector-curvature="0"
         id="path4132-3"
         d="m 446.16703,172.45302 c 1.46141,72.54024 30.98875,124.72162 23.8639,197.73973 -8.48072,42.45805 -26.83797,82.46292 -47.49708,120.34304 -3.80285,5.94944 -7.91131,11.75574 -13.54115,16.03757 -8.87336,-29.36718 0.005,-62.47889 -14.2649,-90.58956 -15.43287,-41.06836 -39.41158,-79.35364 -70.80231,-109.91778 -14.04195,-7.97124 -35.21459,6.3434 -30.10827,22.58117 4.99868,16.35783 18.24931,29.18124 20.96382,46.47252 15.18159,52.27387 4.33336,108.15101 -13.01693,158.46354 -19.70691,55.95607 -54.73243,104.75091 -77.50662,159.35468 -31.14569,85.2283 -10.67772,185.72357 48.11326,253.98752 66.51615,78.26885 177.94531,109.85215 277.50885,90.11475 67.59989,-12.9249 130.04401,-49.29049 176.17557,-99.98226 39.251,-43.18496 64.43714,-100.9359 60.3947,-160.07573 -2.81716,-56.41411 -27.83784,-110.5882 -66.88054,-151.07275 -14.45462,-17.44591 -24.14206,-39.96159 -20.95474,-63.01552 2.01116,-50.81076 21.23289,-99.31662 45.465,-143.58156 3.98748,-7.63083 5.65164,-18.10037 -1.8156,-24.16982 -9.01261,-8.62077 -24.80339,-8.29368 -33.35317,0.85114 -32.84155,20.973 -65.45919,46.88807 -80.22379,84.11784 -24.29297,45.41478 -39.29178,97.26125 -34.15031,149.20042 1.0263,29.99916 7.14971,61.15842 -1.4524,90.4021 -12.36642,16.96943 -40.43025,12.06432 -50.60912,-4.8037 -20.32546,-26.90029 -17.34781,-64.54158 -4.74031,-94.28853 26.13125,-68.55243 67.90103,-132.37401 77.21197,-206.37793 3.92312,-28.53084 -1.05904,-57.47586 -11.77356,-84.00811 C 581.15315,273.49021 546.95,222.55184 519.41659,168.4137 495.02484,120.26536 497.07844,117.3855 475.62288,70.572821 450.39419,110.48326 445.253,134.03768 446.16703,172.45302 Z"
         style="opacity:0.1;fill:#000000;fill-opacity:1;stroke:none" />
      <path
         sodipodi:nodetypes="cccccccccccccccccccccccccccccc"
         inkscape:connector-curvature="0"
         id="path4120-9"
         d="m 454.29742,171.07844 c 1.3775,71.2474 31.08707,123.44847 26.22132,195.05278 -5.27377,37.30818 -21.96793,71.69078 -36.72681,106.01374 -8.80456,17.85546 -19.10478,36.68459 -36.04744,47.85607 -6.16409,0.61128 -6.25141,-7.37981 -8.39703,-11.27169 -8.58518,-27.12037 -0.14874,-57.65528 -11.80125,-84.23501 -13.69622,-40.49288 -37.84963,-76.76605 -66.11714,-108.48049 -7.23288,-5.64196 -20.7364,-0.14148 -18.2692,9.94783 2.33646,11.40426 12.36247,19.28789 15.31889,30.52432 21.74593,52.42595 13.66586,111.97031 -2.36759,164.55626 -16.73516,54.10867 -46.7958,102.7437 -73.16783,152.48818 -22.51897,47.23742 -29.73541,101.92766 -18.21842,153.20276 14.33473,72.6605 61.82996,138.29642 127.94717,172.01174 85.83658,46.45017 195.69128,45.65927 280.74196,-2.08256 59.79774,-31.71555 112.02055,-82.88374 134.19235,-147.81568 22.24163,-68.71119 4.0008,-147.42048 -42.80665,-201.6179 -16.42089,-19.72187 -35.29366,-40.98182 -35.6483,-68.10216 -2.8605,-40.73602 9.59688,-80.44084 23.53384,-118.16955 7.27645,-18.03476 17.50659,-35.03597 25.75838,-52.31119 -0.36977,-10.39172 -15.09927,-13.25876 -21.40865,-6.35452 -30.64869,20.14874 -63.03175,42.52523 -77.29659,77.72025 -21.12275,40.03419 -38.14939,84.11961 -35.83631,130.20068 -0.22681,36.20268 7.10311,72.91912 0.34042,108.78309 -7.02463,20.40609 -33.91274,25.6258 -51.59256,16.83188 -18.98714,-8.8476 -28.72211,-30.00726 -32.86945,-49.5122 -5.69098,-28.59401 2.83539,-57.25229 14.49648,-83.19709 C 560.95096,538.2514 599.42774,476.25762 606.28506,405.16604 610.31007,361.96958 590.04954,321.7945 571.67568,284.20349 531.93372,204.83073 500.12054,161.02468 474.22855,84.453987 457.13161,114.25655 452.89509,143.96248 454.29742,171.07844 Z"
         style="opacity:0.15;fill:#000000;fill-opacity:1;stroke:none" />
      <path
         inkscape:export-ydpi="23.039482"
         inkscape:export-xdpi="23.039482"
         inkscape:export-filename="C:\Users\Madnester\Desktop\Sketches\256.png"
         sodipodi:nodetypes="cssssscsssscssc"
         inkscape:connector-curvature="0"
         id="path4118-6"
         d="m 315.27806,326.27798 c 0,0 72.35503,82.59759 -13.48169,263.03759 -30.81538,64.77791 -77.03849,113.85209 -69.33457,204.14859 12.71981,149.08709 134.81716,227.70414 261.93062,227.70414 127.11328,0 261.93066,-102.07426 269.63438,-215.92633 7.70384,-113.85208 -61.63074,-153.11147 -80.89035,-196.29671 -19.25961,-43.18527 5.77788,-141.33365 40.4453,-196.2967 -53.92703,37.29634 -59.70491,37.29634 -94.3722,119.74099 -34.66727,82.4446 15.6736,187.37667 -30.81537,212.00043 C 539.35384,775.66186 491.46053,705.58693 509.80006,636.4268 529.05961,563.797 588.1422,488.70081 594.54228,396.94482 599.87134,320.54552 488.61445,188.87029 473.20681,108.38864 442.39144,175.12952 512.2288,312.29433 488.61454,389.09293 437.80175,554.34697 381.15256,572.15094 382.68673,465.64866 383.56594,404.60658 315.27806,326.27798 315.27806,326.27798 Z"
         style="opacity:0.3;fill:#000000;fill-opacity:1;stroke:none" />
      <path
         style="fill:url(#linearGradient4362-4);fill-opacity:1;stroke:none"
         d="m 315.27806,316.59492 c 0,0 72.35503,82.59759 -13.48169,263.03761 -30.81538,64.77789 -77.03849,113.85207 -69.33457,204.14857 12.71981,149.08709 134.81716,227.7042 261.93062,227.7042 127.11328,0 261.93066,-102.07433 269.63438,-215.92639 7.70384,-113.85208 -61.63074,-153.11146 -80.89035,-196.2967 -19.25961,-43.18529 5.77788,-141.33366 40.4453,-196.29671 -53.92703,37.29636 -59.70491,37.29636 -94.3722,119.74099 -34.66727,82.4446 15.6736,187.37668 -30.81537,212.00044 C 539.35384,765.97881 491.46053,695.90389 509.80006,626.74374 529.05961,554.11393 588.1422,479.01776 594.54228,387.26176 599.87134,310.86247 488.61445,179.18723 473.20681,98.705577 442.39144,165.44646 512.2288,302.61128 488.61454,379.40988 437.80175,544.66392 381.15256,562.46789 382.68673,455.9656 383.56594,394.92351 315.27806,316.59492 315.27806,316.59492 Z"
         id="path4019-2-7"
         inkscape:connector-curvature="0"
         sodipodi:nodetypes="cssssscsssscssc"
         inkscape:export-filename="C:\Users\Madnester\Desktop\Sketches\256.png"
         inkscape:export-xdpi="23.039482"
         inkscape:export-ydpi="23.039482" />
      <path
         id="path4082-9"
         d="m 473.21812,98.697072 c -7.06607,15.303908 -8.85669,34.317838 -7.67837,55.450608 0.79235,-12.46479 3.14055,-23.83557 7.67837,-33.66374 14.37276,75.07612 112.10515,194.70302 120.84913,272.44942 0.17731,-1.8894 0.35893,-3.77005 0.49172,-5.67366 C 599.88802,310.8604 488.62576,179.17871 473.21812,98.697072 Z M 316.0575,317.54926 c 3.16919,4.04108 15.14568,20.74173 22.27861,50.98734 19.73264,28.39879 44.90406,71.98673 44.36807,109.19915 -1.53415,106.50229 55.09571,88.69736 105.90849,-76.55666 4.47149,-14.54226 5.56457,-31.22641 4.65241,-49.2096 -0.59203,9.75687 -2.04952,18.95755 -4.65241,27.42272 C 437.79989,544.64624 381.17003,562.45116 382.70418,455.94887 383.55367,396.97223 320.3703,322.56483 316.0575,317.54926 z m 407.52069,85.40758 c -53.92696,37.29634 -59.7047,37.30753 -94.37201,119.75217 -12.00384,28.54709 -13.8051,59.78296 -12.97379,89.4548 0.6775,-22.86412 3.88067,-46.04304 12.97379,-67.66794 30.3711,-72.22756 38.57985,-81.19658 76.4054,-107.38358 C 711.12543,424.67647 717.19495,413.07711 723.57819,402.95684 z m -380.02231,25.72062 c -1.6367,39.3651 -12.51245,89.47894 -41.75822,150.95733 -29.83014,62.70682 -74.08776,110.71373 -69.89959,195.62799 3.56992,-71.77636 42.71691,-116.69961 69.89959,-173.84112 C 336.74255,527.96299 345.49188,470.73246 343.55588,428.67746 z m 333.27129,142.10641 c -1.16084,19.86354 0.61706,37.48854 6.31668,50.26868 17.58299,39.42579 76.87635,75.57788 81.2091,168.20527 C 769.12844,680.24631 702.04325,641.6432 683.14385,599.26567 679.63443,591.39659 677.60474,581.70901 676.82717,570.78387 z m -170.47483,97.3601 c -5.6765,61.92501 38.58627,116.66377 92.0269,88.35788 19.54498,-10.35237 21.97606,-34.93824 20.80344,-66.04146 -1.08353,20.60573 -6.09843,36.46579 -20.80344,44.25458 C 551.33146,759.63476 511.36846,720.18985 506.35234,668.14397 Z"
         style="opacity:0.6;fill:#ffffff;fill-opacity:1;stroke:none"
         inkscape:connector-curvature="0" />
    </g>
  </g>
</svg>
