<svg xmlns="http://www.w3.org/2000/svg" viewBox="0 0 24 24">
<defs>
<linearGradient xlink:href="#linearGradient4094" id="linearGradient852" y1="1050.55" x1="9.312" y2="1039.05" x2="9.5" gradientUnits="userSpaceOnUse"/>
<linearGradient xlink:href="#linearGradient4094" id="linearGradient860" y1="1041.55" y2="1029.862" x2="0" gradientUnits="userSpaceOnUse"/>
<linearGradient id="linearGradient4414-9">
<stop offset="0" stop-color="#0069c8"/>
<stop offset="1" stop-color="#55c4ff"/>
</linearGradient>
<linearGradient gradientTransform="matrix(.02518 0 0 .02517 -.58177 1026.4982)" id="linearGradient4369" xlink:href="#linearGradient4414-9" y1="993.461" y2="98.363" x2="0" gradientUnits="userSpaceOnUse"/>
<linearGradient id="linearGradient4094">
<stop offset="0" stop-color="#aaa"/>
<stop offset="1" stop-color="#f0f0f0"/>
</linearGradient>
</defs>
<g transform="translate(0 -1028.3622)">
<path opacity=".08" d="m15.9286,1028.3627c-.9092,.1059-1.657,.695-2.5038,.9964c-4.2664,1.9496-8.5539,3.8531-12.8043,5.8377c-.6871,.4805-.8114,1.5335-.3336,2.1996c2.1943,4.7771 4.322,9.5846 6.5462,14.348c.4818,.6918 1.5453,.8074 2.218,.3225c4.7702-2.1886 9.569-4.3169 14.3266-6.5319c.6849-.4778 .8142-1.5286 .3395-2.1958c-2.1901-4.7686-4.3207-9.5653-6.5321-14.3235c-.2782-.4054-.765-.6665-1.2565-.653zm-.7357,3.6306c.1617,.2385 .2069,.5344 .3591,.7793c1.6106,3.5903 3.2927,7.1492 4.8519,10.7617c-.2452,.1839-.5613,.2242-.8203,.3849c-3.5861,1.6119-7.1457,3.2878-10.7512,4.8491c-.1959-.251-.2293-.5817-.3993-.8469c-1.6075-3.5762-3.2808-7.1237-4.8361-10.7224c.2262-.186 .5329-.2121 .7762-.3701c3.6009-1.6181 7.174-3.2993 10.7961-4.8686l.0146,.021l.009,.012Z"/>
<path opacity=".1" d="m15.8885,1028.5657c-.76,.1074-1.3899,.5947-2.101,.8479c-4.3468,1.9858-8.712,3.9312-13.0466,5.9437c-.5982,.4122-.7042,1.3312-.2919,1.9085c2.1911,4.7815 4.3278,9.5878 6.5447,14.3574c.4124,.599 1.3279,.7011 1.9049,.2919c4.7768-2.1846 9.5729-4.3273 14.3411-6.5304c.614-.4049 .7282-1.3293 .3131-1.918c-2.1819-4.7683-4.3225-9.5554-6.5203-14.3165c-.2443-.3725-.6957-.6137-1.144-.5845zm-.7018,3.179c.2712,.092 .2804,.4237 .4086,.6375c1.6716,3.7151 3.3979,7.4064 5.033,11.1372c-.05,.2702-.3699,.3019-.5698,.406c-3.7445,1.6833-7.4631,3.4255-11.2252,5.0679c-.2739-.078-.3-.4051-.4163-.6193c-1.6751-3.7259-3.41-7.4255-5.0449-11.1687c.0568-.2664 .3685-.2974 .572-.402c3.7436-1.6833 7.4608-3.4272 11.2238-5.0656l.0189,.01Z"/>
<path opacity=".15" d="m15.8837,1028.7647c-.5618,.075-1.0258,.4311-1.5505,.621c-4.4827,2.0446-8.979,4.0604-13.4539,6.1219c-.5061,.3305-.6238,1.0873-.2901,1.579c2.1938,4.8031 4.3494,9.6247 6.5661,14.4169c.3413,.4989 1.0989,.5973 1.5882,.2603c4.7899-2.1862 9.5954-4.3392 14.3772-6.5428c.5071-.3288 .6231-1.0865 .2894-1.579c-2.1803-4.7858-4.3398-9.5811-6.5327-14.3612c-.2083-.3331-.6003-.5391-.9937-.5161zm-.7144,2.7716c.2898,.01 .4357,.3155 .5132,.5531c1.7118,3.7848 3.4506,7.5578 5.1424,11.3513c.0511,.2775-.2051,.5087-.4565,.5642c-3.8173,1.7258-7.6223,3.4804-11.4495,5.1835c-.2778,.049-.5043-.2097-.5611-.458c-1.7238-3.8153-3.4774-7.6175-5.1825-11.4409c-.0497-.2777 .2046-.5113 .4565-.5651c3.8155-1.7245 7.6185-3.4781 11.4432-5.181c.0313,0 .0628-.01 .0944-.01Z"/>
<path opacity=".3" d="m15.9159,1029.0157c-.1116,0-.2244,.029-.3327,.078l-14.4294,6.5512c-.4333,.1967-.6238,.7046-.4271,1.1378l6.5528,14.4267c.1968,.4332 .7039,.6237 1.1372,.427l14.4294-6.5519c.4333-.1968 .6238-.7039 .4271-1.1371l-6.5528-14.4274c-.1476-.3249-.4698-.5135-.8045-.5043zm-.7832,2.2698c.2677-.01 .5254,.1436 .6434,.4036l5.2425,11.5419c.1574,.3466 .0047,.752-.3419,.9094l-11.5435,5.2418c-.3466,.1574-.7521,0-.9095-.3419l-5.2425-11.5419c-.1574-.3466-.0047-.752 .3419-.9094l11.5435-5.2418c.0867-.039 .1768-.059 .266-.062Z"/>
<path fill="url(#linearGradient4369)" d="m15.9159,1028.7639c-.1116,0-.2244,.029-.3327,.078l-14.4294,6.5513c-.4333,.1967-.6238,.7045-.4271,1.1377l6.5528,14.4268c.1968,.4332 .7039,.6237 1.1372,.427l14.4294-6.552c.4333-.1967 .6238-.7038 .4271-1.137l-6.5528-14.4275c-.1476-.3249-.4698-.5134-.8045-.5043Z"/>
<path opacity=".6" fill="#fff" d="m15.916,1028.7636c-.1116,0-.2245,.03-.3328,.079l-14.4292,6.5509c-.3904,.1772-.5831,.6067-.4737,1.007c.0653-.2369 .2316-.444 .4737-.5539l14.4292-6.5509c.1083-.049 .2213-.076 .3328-.079c.3347-.01 .6565,.1794 .8041,.5043l6.5533,14.4282c.0195,.043 .0344,.086 .0464,.1298c.0516-.1869 .0404-.3918-.0464-.5829l-6.5533-14.4282c-.1476-.3249-.4695-.5134-.8041-.5043Z"/>
<path opacity=".08" direction="ltr" block-progression="tb" color="#000000" d="m14.625,.6875v1.0938v2.5938h-4.125h-.4375v.4375v5.9688v.4688h.4375h4.125v2.5312v1.0938l.75-.7812l5.9375-6l.3125-.3125l-.3125-.3125l-5.9375-6l-.75-.7812zm-5.25,9l-.75,.7812l-5.9375,6l-.3125,.3125l.3125,.3125l5.9375,6l.75,.7812v-1.0938v-2.5312h4.125h.4375v-.4688v-5.9688v-.4375h-.4375h-4.125v-2.5938v-1.0938z" transform="translate(0 1028.3622)"/>
<path opacity=".1" direction="ltr" block-progression="tb" color="#000000" d="m14.75,1.0625v.7188v2.75h-4.25h-.3125v.2812v5.9688v.3125h.3125h4.25v2.6875v.75l.5312-.5312l5.9375-6l.2188-.2188l-.2188-.2188l-5.9375-6l-.5312-.5zm-5.5,9l-.5312,.5l-5.9375,6l-.2188,.2188l.2188,.2188l5.9375,6l.5312,.5312v-.75v-2.6875h4.25h.3125v-.3125v-5.9688v-.2812h-.3125h-4.25v-2.75v-.7188z" transform="translate(0 1028.3622)"/>
<path opacity=".15" direction="ltr" block-progression="tb" color="#000000" d="m14.9062,1.4375v.3438v2.875h-4.4062h-.1562v.1562v5.9688v.1562h.1562h4.4062v2.8438v.375l.25-.25l5.9375-6l.125-.125l-.125-.0938l-5.875-5.9062l-.0625-.0938l-.25-.25zm-5.8125,9l-.25,.25l-.0625,.0938l-5.875,5.9062l-.125,.0938l.125,.125l5.9375,6l.25,.25v-.375v-2.8438h4.4062h.1562v-.1562v-5.9688v-.1562h-.1562h-4.4062v-2.875v-.3438z" transform="translate(0 1028.3622)"/>
<path opacity=".3" d="m15.0625,1030.1622 0,3.0313-4.5625,0 0,5.9687 4.5625,0 0,3 5.9375-6-5.9375-6zm-6.125,9-5.9375,6 5.9375,6 0-3 4.5625,0 0-5.9687-4.5625,0 0-3.0313z"/>
<path fill="url(#linearGradient860)" d="m15.0469,1029.8622 0,3.0314-4.5469,0 0,5.9697 4.5469,0 0,2.9999l5.9531-6.002z"/>
<path fill="url(#linearGradient852)" d="m8.9377,1038.8622-5.9377,6 5.9377,6 0-2.9995 4.5623,0 0-5.9686-4.5623,0z"/>
<path opacity="0" direction="ltr" block-progression="tb" color="#000000" d="m14.9062,1029.8125 0,.3437 0,2.875-4.4062,0-.1562,0 0,.1563 0,5.9687 0,.1563 .1562,0 4.4062,0 0,2.8437 0,.375 .25-.25 5.9375-6 .125-.125-.125-.094-5.875-5.9063-.0625-.094-.25-.25zm.3125,.7187 5.5938,5.6563-5.5938,5.625 0-2.6563 0-.1562-.1562,0-4.4062,0 0-5.6562 4.4062,0 .1562,0 0-.1563 0-2.6563zm-6.125,8.2813-.25,.25-.0625,.094-5.875,5.9063-.125,.094 .125,.125 5.9375,6 .25,.25 0-.375 0-2.8437 4.4062,0 .1562,0 0-.1563 0-5.9687 0-.1563-.1562,0-4.4062,0 0-2.875 0-.3437zm-.3125,.7187 0,2.6563 0,.1563 .1562,0 4.4062,0 0,5.6562-4.4062,0-.1562,0 0,.1562 0,2.6563-5.5938-5.625 5.5938-5.6563z"/>
</g>
</svg>
