<?xml version="1.0" encoding="UTF-8" standalone="no"?>
<!-- Created with Inkscape (http://www.inkscape.org/) -->

<svg
   xmlns:dc="http://purl.org/dc/elements/1.1/"
   xmlns:cc="http://creativecommons.org/ns#"
   xmlns:rdf="http://www.w3.org/1999/02/22-rdf-syntax-ns#"
   xmlns:svg="http://www.w3.org/2000/svg"
   xmlns="http://www.w3.org/2000/svg"
   xmlns:sodipodi="http://sodipodi.sourceforge.net/DTD/sodipodi-0.dtd"
   xmlns:inkscape="http://www.inkscape.org/namespaces/inkscape"
   width="256"
   height="256"
   id="svg3301"
   version="1.1"
   inkscape:version="0.48.0 r9654"
   sodipodi:docname="user-busy.svg">
  <defs
     id="defs3303" />
  <sodipodi:namedview
     id="base"
     pagecolor="#ffffff"
     bordercolor="#666666"
     borderopacity="1.0"
     inkscape:pageopacity="0.0"
     inkscape:pageshadow="2"
     inkscape:zoom="0.35"
     inkscape:cx="192.14286"
     inkscape:cy="182.85714"
     inkscape:document-units="px"
     inkscape:current-layer="layer1"
     showgrid="false"
     inkscape:window-width="751"
     inkscape:window-height="515"
     inkscape:window-x="0"
     inkscape:window-y="24"
     inkscape:window-maximized="0" />
  <metadata
     id="metadata3306">
    <rdf:RDF>
      <cc:Work
         rdf:about="">
        <dc:format>image/svg+xml</dc:format>
        <dc:type
           rdf:resource="http://purl.org/dc/dcmitype/StillImage" />
        <dc:title></dc:title>
      </cc:Work>
    </rdf:RDF>
  </metadata>
  <g
     inkscape:label="Layer 1"
     inkscape:groupmode="layer"
     id="layer1"
     transform="translate(0,-796.36218)">
    <g
       id="g4972"
       inkscape:export-filename="/home/madnester/Рабочий стол/витва.png"
       inkscape:export-xdpi="2.8124993"
       inkscape:export-ydpi="2.8124993"
       transform="matrix(0.5,0,0,0.5,-256,270.18127)">
      <path
         sodipodi:nodetypes="ccccssccccc"
         inkscape:connector-curvature="0"
         style="font-size:medium;font-style:normal;font-variant:normal;font-weight:normal;font-stretch:normal;text-indent:0;text-align:start;text-decoration:none;line-height:normal;letter-spacing:normal;word-spacing:normal;text-transform:none;direction:ltr;block-progression:tb;writing-mode:lr-tb;text-anchor:start;baseline-shift:baseline;color:#000000;fill:#e6e6e6;fill-opacity:1;fill-rule:nonzero;stroke:none;stroke-width:30;marker:none;visibility:visible;display:inline;overflow:visible;enable-background:accumulate;font-family:Sans;-inkscape-font-specification:Sans"
         d="m 852.91624,1052.3625 c -0.37408,0 -0.75264,0 -1.12784,0.014 -4.06576,0.16 -8.0843,1.072 -11.8423,2.7744 -103.32856,46.9171 -206.65675,93.8349 -309.988,140.7461 -15.32158,6.9568 -22.19879,25.2481 -15.24107,40.5665 l 140.78173,309.9443 c 6.95485,15.312 25.23725,22.1952 40.55646,15.2384 l 309.98798,-140.7617 c 15.3147,-6.9537 22.1983,-25.2481 15.2411,-40.5649 L 880.50257,1070.3593 c -5.04238,-11.1008 -15.99096,-17.8832 -27.58633,-17.9968 z"
         id="path4319" />
      <path
         style="fill:#858585;fill-opacity:1;fill-rule:nonzero;stroke:none"
         d="m 842.51855,1092.4249 c -2.12277,0 -4.27018,0.56 -6.3314,1.488 l -274.58521,124.6642 c -8.2448,3.7456 -11.87105,13.408 -8.12686,21.6528 l 124.69731,274.5314 c 3.74419,8.2416 13.39533,11.8689 21.64014,8.1248 l 274.58525,-124.6785 c 8.24478,-3.7456 11.87108,-13.3952 8.12683,-21.6368 L 857.8273,1102.0234 c -2.80818,-6.1825 -8.9404,-9.7713 -15.30875,-9.5969 z m -14.90375,43.1937 c 5.09469,-0.176 9.99776,2.7328 12.24431,7.6784 l 99.76326,219.6386 c 2.99538,6.5936 0.0896,14.3072 -6.50688,17.3024 l -219.66821,99.7489 c -6.59582,2.9952 -14.31134,0.176 -17.3067,-6.5072 l -99.76325,-219.6354 c -2.99536,-6.5952 -0.0896,-14.3088 6.50688,-17.304 l 219.66818,-99.7489 c 1.64904,-0.736 3.36419,-1.136 5.06241,-1.168 z"
         id="path4321"
         inkscape:export-filename="C:\Users\Madnester\Desktop\Sketches\256.png"
         inkscape:export-xdpi="23.039482"
         inkscape:export-ydpi="23.039482"
         inkscape:connector-curvature="0" />
    </g>
  </g>
</svg>
