<?xml version="1.0" encoding="UTF-8" standalone="no"?>
<!-- Created with Inkscape (http://www.inkscape.org/) -->

<svg
   xmlns:dc="http://purl.org/dc/elements/1.1/"
   xmlns:cc="http://creativecommons.org/ns#"
   xmlns:rdf="http://www.w3.org/1999/02/22-rdf-syntax-ns#"
   xmlns:svg="http://www.w3.org/2000/svg"
   xmlns="http://www.w3.org/2000/svg"
   xmlns:sodipodi="http://sodipodi.sourceforge.net/DTD/sodipodi-0.dtd"
   xmlns:inkscape="http://www.inkscape.org/namespaces/inkscape"
   width="256"
   height="256"
   id="svg3301"
   version="1.1"
   inkscape:version="0.48.2 r9819"
   sodipodi:docname="user-online.svg">
  <defs
     id="defs3303" />
  <sodipodi:namedview
     id="base"
     pagecolor="#ffffff"
     bordercolor="#666666"
     borderopacity="1.0"
     inkscape:pageopacity="0.0"
     inkscape:pageshadow="2"
     inkscape:zoom="0.35"
     inkscape:cx="192.14286"
     inkscape:cy="182.85714"
     inkscape:document-units="px"
     inkscape:current-layer="layer1"
     showgrid="false"
     inkscape:window-width="751"
     inkscape:window-height="515"
     inkscape:window-x="0"
     inkscape:window-y="24"
     inkscape:window-maximized="0" />
  <metadata
     id="metadata3306">
    <rdf:RDF>
      <cc:Work
         rdf:about="">
        <dc:format>image/svg+xml</dc:format>
        <dc:type
           rdf:resource="http://purl.org/dc/dcmitype/StillImage" />
        <dc:title />
      </cc:Work>
    </rdf:RDF>
  </metadata>
  <g
     inkscape:label="Layer 1"
     inkscape:groupmode="layer"
     id="layer1"
     transform="translate(0,-796.36218)">
    <g
       id="g3238"
       transform="matrix(7.999999,0,0,8.0000075,-269.85709,-7368.1147)"
       inkscape:export-filename="/home/madnester/Рабочий стол/иконки.png"
       inkscape:export-xdpi="97.585243"
       inkscape:export-ydpi="97.585243">
      <path
         id="path4044-2-6"
         d="m 55.039408,1020.5587 c -0.02338,-2e-4 -0.04704,3e-4 -0.07049,9e-4 -0.25411,0.01 -0.505269,0.067 -0.740144,0.1734 l -3.976013,1.8048 c -0.234549,-0.5054 -0.40891,-0.9631 -0.473425,-1.3 -0.194779,-0.6138 -1.012874,-0.91 -1.440281,-0.1762 -0.349666,0.7572 -0.331278,1.6008 -0.225758,2.4487 l -13.258775,6.0193 c -0.957599,0.4348 -1.387425,1.578 -0.952567,2.5354 l 8.798859,19.3715 c 0.434678,0.957 1.577328,1.3872 2.534779,0.9524 l 19.374251,-8.7976 c 0.95717,-0.4346 1.387391,-1.578 0.952567,-2.5353 l -8.798857,-19.3725 c -0.315149,-0.6938 -0.999435,-1.1177 -1.724146,-1.1248 z"
         style="font-size:medium;font-style:normal;font-variant:normal;font-weight:normal;font-stretch:normal;text-indent:0;text-align:start;text-decoration:none;line-height:normal;letter-spacing:normal;word-spacing:normal;text-transform:none;direction:ltr;block-progression:tb;writing-mode:lr-tb;text-anchor:start;baseline-shift:baseline;color:#000000;fill:#e6e6e6;fill-opacity:1;fill-rule:nonzero;stroke:none;stroke-width:30;marker:none;visibility:visible;display:inline;overflow:visible;enable-background:accumulate;font-family:Sans;-inkscape-font-specification:Sans"
         inkscape:connector-curvature="0" />
      <path
         inkscape:connector-curvature="0"
         inkscape:export-ydpi="23.039482"
         inkscape:export-xdpi="23.039482"
         inkscape:export-filename="C:\Users\Madnester\Desktop\Sketches\256.png"
         id="path3222-0-3"
         d="m 54.389552,1023.0626 c -0.132673,0 -0.266886,0.035 -0.395712,0.093 l -17.161578,7.7915 c -0.5153,0.2341 -0.741941,0.838 -0.507929,1.3533 l 7.793583,17.1582 c 0.234012,0.5151 0.837208,0.7418 1.352509,0.5078 l 17.16158,-7.7924 c 0.515299,-0.2341 0.741943,-0.8372 0.507927,-1.3523 l -7.793583,-17.1592 c -0.175511,-0.3864 -0.558775,-0.6107 -0.956797,-0.5998 z m -0.931484,2.6996 c 0.318418,-0.011 0.62486,0.1708 0.765269,0.4799 l 6.235205,13.7274 c 0.187211,0.4121 0.0056,0.8942 -0.40668,1.0814 l -13.729265,6.2343 c -0.412239,0.1872 -0.894459,0.011 -1.081669,-0.4067 l -6.235204,-13.7272 c -0.18721,-0.4122 -0.0056,-0.8943 0.40668,-1.0815 l 13.729263,-6.2343 c 0.103065,-0.046 0.210262,-0.071 0.316401,-0.073 z"
         style="fill:#858585;fill-opacity:1;fill-rule:nonzero;stroke:none" />
      <path
         inkscape:export-ydpi="23.039482"
         inkscape:export-xdpi="23.039482"
         inkscape:export-filename="C:\Users\Madnester\Desktop\Sketches\256.png"
         sodipodi:nodetypes="cssssscsssscssc"
         inkscape:connector-curvature="0"
         id="path3265-6"
         d="m 44.620492,1027.4668 c 0,0 2.02095,2.3067 -0.376557,7.3459 -0.860704,1.8091 -2.151762,3.1796 -1.936584,5.7013 0.355277,4.1635 3.76558,6.3591 7.315987,6.3591 3.550404,0 7.315986,-2.8507 7.531162,-6.0302 0.215175,-3.1796 -1.721411,-4.276 -2.259352,-5.482 -0.537938,-1.206 0.161384,-3.947 1.129678,-5.482 -1.506235,1.0416 -1.667616,1.0416 -2.635909,3.344 -0.968293,2.3025 0.437778,5.2329 -0.860705,5.9206 -1.649057,0.8733 -2.986765,-1.0837 -2.474524,-3.0151 0.537939,-2.0284 2.188175,-4.1256 2.366936,-6.6881 0.148846,-2.1336 -2.958671,-5.8109 -3.389022,-8.0585 -0.860705,1.8639 1.089923,5.6945 0.430353,7.8393 -1.419252,4.615 -3.001521,5.1122 -2.958671,2.1379 0.02456,-1.7047 -1.882792,-3.8922 -1.882792,-3.8922 z"
         style="fill:#3473e3;fill-opacity:1;stroke:none" />
    </g>
  </g>
</svg>
