<?xml version="1.0" standalone="no"?>
<!DOCTYPE svg PUBLIC "-//W3C//DTD SVG 20010904//EN" "http://www.w3.org/TR/2001/REC-SVG-20010904/DTD/svg10.dtd">
<!-- Created using Karbon, part of Calligra: http://www.calligra-suite.org/karbon -->
<svg xmlns="http://www.w3.org/2000/svg" xmlns:xlink="http://www.w3.org/1999/xlink" width="751.867pt" height="800pt">
<defs>
  <radialGradient id="gradient0" gradientTransform="matrix(0.747483 0 0 1.19167 -7.61633 -0.853635)" gradientUnits="objectBoundingBox" cx="1.57960837761" cy="0.45752317155" fx="1.57960837761" fy="0.45752317155" r="0.40364665460" spreadMethod="pad">
   <stop stop-color="#ffffff" offset="0.00000000000" stop-opacity="0.63309681849"/>
   <stop stop-color="#ffffff" offset="0.50000000000" stop-opacity="0.16546883345"/>
   <stop stop-color="#ffffff" offset="0.75000000000" stop-opacity="0.12950331884"/>
   <stop stop-color="#ffffff" offset="1.00000000000" stop-opacity="0.33812466621"/>
  </radialGradient>
 </defs>
<g id="g4183">
  <g id="g10105" transform="" fill="none">
   <g id="g10130" transform="" fill="none">
    <g id="g31" transform="" fill="none"/>
   </g>
  </g>
 </g><g id="layer1">
  <g id="g4984" transform="translate(1.01166e-07, -252.072)" fill="none">
   <path id="path7589" transform="matrix(42.4559 0 0 63.8595 0 252.072)" fill="#4d5454" d="M10.6724 0.0023924C10.64 0.00802 10.6083 0.0150604 10.5773 0.0234678C10.355 0.0594178 10.1688 0.160052 10.0703 0.297467C9.99932 0.399762 10.0473 0.509478 10.0069 0.61362C9.80404 1.13796 9.86349 1.68496 10.0069 2.21546L7.21851 3.07961L7.15513 3.07961C7.11101 3.09101 7.06857 3.10513 7.02838 3.12176L1.0079 4.93437C0.148241 5.19404 -0.237974 5.90128 0.152351 6.47298L5.98272 15.0091C6.37275 15.5804 7.43674 15.8377 8.29586 15.5782L21.129 11.679C21.9879 11.4195 22.3747 10.754 21.9846 10.1825L16.1542 1.62531C15.8617 1.19686 15.2165 0.938513 14.5382 0.950847C14.3075 0.95504 14.052 1.01359 13.841 1.07731L12.2567 1.541C11.8952 1.08476 11.5692 0.677434 11.4962 0.423925C11.4313 0.161042 11.071 -0.0233062 10.6724 0.00238841ZM10.7358 0.508236C10.8802 1.01012 11.4534 1.66626 12.0032 2.32085L12.732 2.11008C12.7254 2.10158 12.7075 2.09763 12.7003 2.089L14.253 1.62531C14.3494 1.59621 14.4389 1.60604 14.5382 1.60424C14.6126 1.6029 14.6892 1.61261 14.76 1.62531C14.832 1.6377 14.8858 1.64226 14.9501 1.66746C15.0865 1.7186 15.197 1.79682 15.267 1.89931L21.0973 10.4354C21.1849 10.5636 21.1977 10.6932 21.129 10.8148C21.0946 10.8758 21.038 10.9348 20.9706 10.9834C20.9032 11.0319 20.8135 11.0808 20.7171 11.1099L15.6155 12.6485L12.0032 13.7445L7.88395 14.988C7.78759 15.0171 7.698 15.0284 7.59876 15.0302C7.48479 15.0322 7.38468 15.0181 7.2819 14.988C7.09905 14.9424 6.95748 14.8633 6.86997 14.7351L1.03959 6.19899C1.03539 6.1928 1.04339 6.18412 1.03959 6.17791C0.995831 6.11382 0.978881 6.05239 0.976221 5.98822C0.973521 5.92218 0.973521 5.85939 1.00791 5.79853C1.04229 5.74015 1.09896 5.6766 1.16635 5.62991C1.23371 5.58136 1.32348 5.55363 1.41984 5.52453L6.83828 3.88053L7.53539 3.66976C7.53969 3.67323 7.56242 3.66597 7.56707 3.66976L8.2325 3.459L10.1971 2.86884L10.9259 2.65808C10.6799 1.84795 10.377 1.025 10.7358 0.508236ZM13.8411 2.95315C13.7617 2.95462 13.6963 2.95095 13.6193 2.97423L13.4291 3.03746L12.732 3.24823C13.0851 3.73166 13.3405 4.19177 13.3024 4.55499C13.1679 5.83746 11.9326 6.89107 11.5279 7.90621C11.1426 8.87286 12.1252 9.83976 13.3658 9.40267C14.3426 9.0585 13.3027 7.60424 14.0312 6.45191C14.6637 5.45141 14.8704 5.29294 15.6472 4.93438L15.3303 4.49176L14.4114 3.185C14.3852 3.14654 14.3563 3.10955 14.3164 3.07961C14.3064 3.07213 14.2954 3.06545 14.2847 3.05854C14.2553 3.04269 14.2229 3.02852 14.1896 3.01639C14.082 2.97711 13.9601 2.95099 13.8411 2.95315ZM11.1477 3.71192L10.3872 3.94376C10.3872 3.94982 10.3872 3.95886 10.3872 3.96484L9.11973 4.34422L8.42262 4.55499C8.65734 4.86199 8.84119 5.19684 8.83455 5.50345C8.80231 6.99203 10.0166 6.75936 11.0843 4.44961C11.1826 4.23706 11.1718 3.97643 11.1477 3.71192ZM14.0312 4.19669L14.5382 4.9133C14.1213 5.1937 13.7893 5.51975 13.3658 6.17791C13.67 5.6887 13.9995 5.18076 14.0629 4.57607C14.0764 4.44742 14.0535 4.32235 14.0312 4.19669ZM7.979 4.68145L7.2819 4.89222C7.28237 4.89964 7.28157 4.9059 7.2819 4.9133L3.35273 6.0936C3.27565 6.11689 3.21771 6.14214 3.16261 6.17791C3.1087 6.2167 3.06337 6.25574 3.03586 6.30437C2.98762 6.38966 2.98918 6.48687 3.03586 6.57837C3.03986 6.58514 3.03126 6.59267 3.03586 6.59944C3.03966 6.60584 3.03156 6.61421 3.03586 6.62052L4.96876 9.42374L4.96876 9.44482L5.85599 10.7516C5.77359 10.5459 5.72702 10.3279 5.69755 10.0982C5.53567 8.83613 6.50763 8.13715 7.15515 7.23175C7.95812 6.10898 8.0662 5.28094 7.979 4.68145ZM10.102 4.76576C9.93433 5.06428 9.74399 5.33508 9.59503 5.52453C9.59943 5.3209 9.54433 5.11727 9.46828 4.93438ZM15.7423 5.08191C15.1591 5.86739 14.8178 6.9776 15.1719 7.50575C15.5766 8.10935 17.0132 8.65444 16.8513 10.2457C16.8154 10.5984 16.6434 10.9558 16.376 11.2785L18.7842 10.5408C18.8613 10.5175 18.9204 10.4953 18.9743 10.4565C19.0282 10.4177 19.0736 10.3787 19.1011 10.3301C19.1561 10.2328 19.1711 10.1164 19.1011 10.0139ZM7.18684 5.65099C7.07661 6.03717 6.84256 6.48332 6.45804 7.02099C6.14526 7.45833 5.68877 7.9104 5.349 8.45421L4.08153 6.57837ZM13.239 6.53622C12.9732 7.1607 12.9738 7.79622 13.0172 8.26452C13.0424 8.53701 13.0464 8.75552 13.0172 8.87575C12.988 8.99597 13.0138 8.96124 13.0172 8.96006C12.8484 9.01951 12.7742 9.01498 12.7003 9.00221C12.6265 8.98944 12.5419 8.93712 12.4468 8.85468C12.2568 8.68978 12.1224 8.34856 12.2567 8.0116C12.4263 7.58615 12.8497 7.10541 13.239 6.53622ZM15.8056 6.76806L16.6295 7.99052C16.2695 7.65084 15.9179 7.41522 15.8373 7.29498C15.7954 7.23248 15.7835 7.02571 15.8056 6.76806ZM17.5167 9.29729L18.0237 10.0561L17.6118 10.1825C17.6312 9.85476 17.6034 9.56479 17.5167 9.29729ZM6.5531 11.7633L7.34527 12.9436C7.3572 12.9493 7.36497 12.959 7.37695 12.9647L7.69382 13.4494C7.76383 13.552 7.89616 13.6236 8.04237 13.6602C8.18859 13.6968 8.36351 13.7068 8.51768 13.6602L8.96129 13.5337L10.0703 13.1965C8.65291 13.0278 7.36607 12.5585 6.55309 11.7633Z"/>
   <path id="path3222" transform="matrix(42.4559 0 0 63.8595 41.2116 354.505)" fill="#ffffff" d="M13.5675 0.000193773C13.4682 0.00199111 13.3786 0.0132411 13.2823 0.0423447L11.0325 0.716803C11.2959 1.03032 11.5395 1.34048 11.7613 1.64419L12.6486 1.37019C12.7256 1.3469 12.791 1.32947 12.8704 1.32804C13.1085 1.32371 13.3357 1.42714 13.4407 1.58096L14.6448 3.33034C14.768 3.27331 14.8668 3.23451 15.0251 3.16172C14.9294 3.26258 14.8586 3.38039 14.7716 3.49895L18.1304 8.40986C18.2704 8.61495 18.1218 8.84364 17.8135 8.93678L15.437 9.65339C14.5093 10.7993 12.3031 11.6768 10.2087 11.6768C9.81956 11.6768 9.44581 11.6388 9.06795 11.5925L7.54698 12.0562C7.23865 12.1493 6.86315 12.0505 6.72313 11.8454L5.5824 10.1592C5.5645 10.1417 5.56815 10.1138 5.55072 10.096C5.27984 9.81932 5.02754 9.51566 4.8853 9.16863L2.06517 5.01649C1.92515 4.81139 2.07367 4.56163 2.38204 4.46849L7.00831 3.07741C6.92413 2.49863 6.69553 2.19121 6.5647 2.06573L0.449143 3.92049C0.0637223 4.03691 -0.106129 4.33859 0.0689023 4.59495L5.89927 13.1311C6.0743 13.3874 6.52783 13.5004 6.91325 13.384L19.7464 9.50586C20.1318 9.38943 20.3017 9.08776 20.1266 8.8314L14.2963 0.295269C14.165 0.102997 13.8652 -0.00521888 13.5675 0.000193773ZM9.95518 1.05404L6.59638 2.06573C6.76944 2.20632 7.1252 2.52363 7.45192 2.95095L10.177 2.10788C10.1468 1.77655 10.0653 1.41674 9.95518 1.05404Z"/>
   <path id="path3265" transform="matrix(42.4559 0 0 63.8595 240.72 285.021)" fill="#e70000" d="M1.75812 3.04543C1.75812 3.04543 3.27851 4.1999 1.47483 6.7219C0.827316 7.6273 -0.143965 8.31321 0.0179158 9.57528C0.285196 11.6591 2.85081 12.7579 5.52183 12.7579C8.19285 12.7579 11.0257 11.3312 11.1876 9.7399C11.3495 8.14859 9.89258 7.59986 9.48788 6.99627C9.08319 6.39267 9.60929 5.02085 10.3378 4.25263C9.20459 4.77392 9.08319 4.77392 8.35473 5.92625C7.62627 7.07857 8.68407 8.54521 7.70721 8.88937C6.4666 9.32646 5.46022 8.34702 5.84559 7.38037C6.25029 6.36523 7.49178 5.31561 7.62627 4.03314C7.73825 2.96531 5.40042 1.12489 5.07666 0C4.42914 0.932835 5.89662 2.84998 5.40042 3.9234C4.3327 6.23315 3.14234 6.48199 3.17457 4.99341C3.19305 4.14023 1.75812 3.04543 1.75812 3.04543Z"/>
   <path id="path7286" transform="matrix(42.4559 0 0 63.8595 240.092 284.291)" fill="url(#gradient0)" d="M5.10684 0C4.45932 0.932835 5.91253 2.86073 5.41632 3.93414C4.3486 6.24389 3.14894 6.49774 3.18117 5.00916C3.19965 4.15598 1.77131 3.06497 1.77131 3.06497C1.77131 3.06497 3.29989 4.20262 1.49621 6.72463C0.848694 7.63003 -0.144307 8.32167 0.0175737 9.58374C0.284855 11.6675 2.84847 12.7631 5.51949 12.7631C8.1905 12.7631 11.0315 11.3352 11.1933 9.74385C11.3552 8.15254 9.91307 7.6027 9.50837 6.9991C9.10367 6.39551 9.63958 5.02257 10.368 4.25436C9.23488 4.77565 9.10206 4.79462 8.3736 5.94695C7.64514 7.09928 8.69711 8.55339 7.72025 8.89755C6.47964 9.33464 5.47799 8.35459 5.86335 7.38794C6.26805 6.3728 7.51699 5.33097 7.65148 4.0485C7.76345 2.98067 5.4306 1.12489 5.10684 0ZM6.48232 3.93414C6.48299 3.9421 6.55174 3.97373 6.55109 3.97988C6.54629 4.02594 6.49139 4.07119 6.48232 4.11712C6.51265 4.04834 6.46135 4.00231 6.48232 3.93414ZM6.41354 4.25436C6.16583 5.1627 5.25375 6.06013 4.79735 7.20496C4.52024 7.90007 4.71091 8.58087 5.31316 9.10341C5.61428 9.36468 6.0493 9.60535 6.58547 9.69811C7.12165 9.79086 7.7213 9.71935 8.23605 9.538C8.83852 9.32574 9.15424 8.90231 9.23327 8.57733C9.28042 8.38345 9.24117 8.2251 9.23327 8.05126C9.74 8.47726 10.2147 8.83946 10.1273 9.69811C10.0741 10.2215 9.52798 10.8394 8.64869 11.2992C7.7694 11.7591 6.56045 12.0311 5.51948 12.0311C3.30217 12.0311 1.33731 11.2253 1.11795 9.51512C0.990634 8.52251 1.72076 8.07715 2.45904 7.04485C2.63758 6.7952 2.67795 6.6121 2.80291 6.38154C2.95137 6.47627 3.05352 6.58667 3.28433 6.63314C3.71942 6.72073 4.17057 6.65087 4.45348 6.54165C5.01931 6.32321 5.27955 6.01063 5.58825 5.62673C5.8779 5.26652 6.14746 4.81287 6.41354 4.25436Z"/>
  </g>
 </g>
</svg>
