<?xml version="1.0" standalone="no"?>
<!DOCTYPE svg PUBLIC "-//W3C//DTD SVG 20010904//EN" "http://www.w3.org/TR/2001/REC-SVG-20010904/DTD/svg10.dtd">
<!-- Created using Karbon, part of Calligra: http://www.calligra-suite.org/karbon -->
<svg xmlns="http://www.w3.org/2000/svg" xmlns:xlink="http://www.w3.org/1999/xlink" width="800pt" height="800pt">
<defs>
  <radialGradient id="gradient0" gradientTransform="matrix(0.747483 0 0 1.19167 -7.61633 -0.853635)" gradientUnits="objectBoundingBox" cx="1.57960837761" cy="0.45752317155" fx="1.57960837761" fy="0.45752317155" r="0.40364665460" spreadMethod="pad">
   <stop stop-color="#ffffff" offset="0.00000000000" stop-opacity="0.63309681849"/>
   <stop stop-color="#ffffff" offset="0.50000000000" stop-opacity="0.16546883345"/>
   <stop stop-color="#ffffff" offset="0.75000000000" stop-opacity="0.12950331884"/>
   <stop stop-color="#ffffff" offset="1.00000000000" stop-opacity="0.33812466621"/>
  </radialGradient>
 </defs>
<g id="g4183">
  <g id="g10105" transform="" fill="none">
   <g id="g10130" transform="" fill="none">
    <g id="g31" transform="" fill="none"/>
   </g>
  </g>
 </g><g id="layer1">
  <g id="g4984" transform="translate(31, -252.072)" fill="none">
   <path id="path7589" transform="matrix(42.4559 0 0 63.8595 0 252.064)" fill="#4d5454" d="M10.6707 0.00238937C10.6384 0.00800983 10.6066 0.0150413 10.5757 0.0234381C10.3533 0.0593425 10.1672 0.159849 10.0688 0.297089C9.99776 0.399255 10.0457 0.508832 10.0054 0.612841C9.80251 1.13651 9.86196 1.68282 10.0054 2.21265L7.21739 3.07571L7.15401 3.07571C7.1099 3.08709 7.06747 3.10119 7.02729 3.1178L1.00774 4.92811C0.148218 5.18745 -0.237936 5.8938 0.152328 6.46477L5.98179 14.9901C6.37176 15.5606 7.43558 15.8176 8.29457 15.5584L21.1257 11.6642C21.9844 11.4051 22.3712 10.7403 21.9811 10.1696L16.1517 1.62324C15.8592 1.19534 15.2141 0.937323 14.5359 0.949641C14.3053 0.953829 14.0498 1.01231 13.8389 1.07594L12.2548 1.53904C11.8934 1.08338 11.5674 0.676575 11.4944 0.423388C11.4295 0.160838 11.0693 -0.0232766 10.6707 0.00238538ZM10.7341 0.507592C10.8785 1.00884 11.4516 1.66415 12.0014 2.3179L12.73 2.1074C12.7234 2.09891 12.7055 2.09497 12.6984 2.08635L14.2508 1.62325C14.3471 1.59418 14.4367 1.604 14.5359 1.6022C14.6103 1.60087 14.6869 1.61056 14.7577 1.62325C14.8297 1.63562 14.8835 1.64018 14.9478 1.66535C15.0842 1.71642 15.1946 1.79454 15.2646 1.8969L21.0941 10.4222C21.1816 10.5502 21.1944 10.6796 21.1257 10.8011C21.0914 10.862 21.0347 10.9209 20.9673 10.9695C20.9 11.018 20.8102 11.0667 20.7139 11.0958L15.6131 12.6325L12.0014 13.7271L7.88272 14.969C7.78637 14.9981 7.6968 15.0093 7.59758 15.0111C7.48362 15.0131 7.38353 14.9991 7.28076 14.969C7.09794 14.9234 6.9564 14.8444 6.8689 14.7164L1.03943 6.19113C1.03523 6.18494 1.04323 6.17628 1.03943 6.17008C0.995676 6.10607 0.978729 6.04472 0.976069 5.98062C0.97337 5.91467 0.97337 5.85196 1.00775 5.79117C1.04213 5.73287 1.09879 5.6694 1.16616 5.62277C1.23351 5.57429 1.32328 5.54659 1.41962 5.51752L6.83722 3.87561L7.53422 3.66511C7.53852 3.66857 7.56124 3.66132 7.56589 3.66511L8.23121 3.45461L10.1955 2.86521L10.9242 2.65471C10.6782 1.84561 10.3754 1.0237 10.7341 0.507592ZM13.8389 2.94941C13.7595 2.95087 13.6942 2.94721 13.6171 2.97046L13.427 3.03361L12.73 3.24411C13.0831 3.72693 13.3384 4.18646 13.3003 4.54922C13.1659 5.83006 11.9308 6.88233 11.5261 7.89619C11.1408 8.86161 12.1233 9.82728 13.3637 9.39075C14.3404 9.04702 13.3006 7.59459 14.029 6.44373C14.6614 5.4445 14.8681 5.28623 15.6448 4.92812L15.328 4.48607L14.4092 3.18096C14.3829 3.14255 14.3541 3.10561 14.3141 3.07571C14.3041 3.06824 14.2932 3.06157 14.2825 3.05466C14.253 3.03884 14.2206 3.02468 14.1874 3.01256C14.0798 2.97334 13.958 2.94725 13.8389 2.94941ZM11.1459 3.70721L10.3856 3.93876C10.3856 3.94481 10.3856 3.95383 10.3856 3.95981L9.11831 4.33871L8.42131 4.54922C8.65599 4.85582 8.83981 5.19025 8.83317 5.49647C8.80094 6.98316 10.015 6.75079 11.0826 4.44396C11.1808 4.23169 11.17 3.97139 11.146 3.70721ZM14.029 4.19136L14.5359 4.90707C14.1191 5.18711 13.7871 5.51275 13.3637 6.17008C13.6679 5.68148 13.9973 5.17419 14.0607 4.57027C14.0742 4.44178 14.0513 4.31687 14.029 4.19136ZM7.97776 4.67552L7.28076 4.88602C7.28123 4.89343 7.28043 4.89967 7.28076 4.90707L3.35221 6.08587C3.27514 6.10913 3.21721 6.13435 3.16212 6.17007C3.10822 6.20881 3.06289 6.24781 3.03539 6.29637C2.98716 6.38155 2.98872 6.47864 3.03539 6.57003C3.03939 6.57679 3.03079 6.58431 3.03539 6.59108C3.03919 6.59746 3.03109 6.60582 3.03539 6.61212L4.96798 9.41179L4.96798 9.43284L5.85508 10.7379C5.77269 10.5326 5.72613 10.3148 5.69667 10.0854C5.53481 8.82492 6.50661 8.12683 7.15403 7.22258C7.95688 6.10123 8.06494 5.27425 7.97776 4.67551ZM10.1004 4.75972C9.93278 5.05786 9.74247 5.32832 9.59354 5.51752C9.59793 5.31415 9.54284 5.11078 9.46681 4.92812ZM15.7398 5.07547C15.1567 5.85995 14.8155 6.96875 15.1695 7.49623C15.5742 8.09907 17.0105 8.64346 16.8487 10.2328C16.8128 10.585 16.6408 10.9419 16.3735 11.2642L18.7813 10.5275C18.8583 10.5042 18.9175 10.482 18.9714 10.4433C19.0253 10.4045 19.0706 10.3655 19.0981 10.317C19.1531 10.2198 19.1681 10.1036 19.0981 10.0012ZM7.18572 5.64382C7.07551 6.02951 6.8415 6.4751 6.45703 7.01208C6.1443 7.44887 5.68788 7.90037 5.34817 8.44349L4.08089 6.57003ZM13.2369 6.52793C12.9712 7.15162 12.9718 7.78633 13.0152 8.25404C13.0404 8.52618 13.0444 8.74442 13.0152 8.86449C12.9859 8.98456 13.0118 8.94988 13.0152 8.94869C12.8464 9.00808 12.7722 9.00355 12.6984 8.9908C12.6245 8.97804 12.5399 8.92579 12.4449 8.84345C12.2549 8.67876 12.1205 8.33797 12.2548 8.00144C12.4244 7.57653 12.8477 7.0964 13.2369 6.52793ZM15.8032 6.75948L16.6269 7.98039C16.2669 7.64114 15.9155 7.40582 15.8349 7.28573C15.793 7.22331 15.781 7.0168 15.8032 6.75948ZM17.514 9.28549L18.0209 10.0433L17.609 10.1696C17.6284 9.84227 17.6006 9.55266 17.514 9.28549ZM6.55208 11.7484L7.34412 12.9272C7.35605 12.9328 7.36382 12.9426 7.3758 12.9482L7.69262 13.4324C7.76262 13.5348 7.89493 13.6063 8.04112 13.6429C8.18731 13.6794 8.3622 13.6894 8.51635 13.6429L8.95989 13.5166L10.0688 13.1798C8.65156 13.0112 7.36492 12.5426 6.55207 11.7484Z"/>
   <path id="path3222" transform="matrix(42.4559 0 0 63.8595 41.2052 354.368)" fill="#ffffff" d="M13.5654 0.000193527C13.4661 0.00198858 13.3766 0.0132243 13.2802 0.042291L11.0308 0.715894C11.2941 1.02902 11.5377 1.33878 11.7595 1.6421L12.6466 1.36845C12.7237 1.34519 12.789 1.32779 12.8684 1.32635C13.1065 1.32203 13.3336 1.42533 13.4386 1.57895L14.6425 3.32611C14.7657 3.26916 14.8645 3.23041 15.0227 3.15771C14.9271 3.25844 14.8563 3.3761 14.7693 3.49451L18.1275 8.39919C18.2675 8.60403 18.1189 8.83243 17.8107 8.92545L15.4346 9.64115C14.507 10.7856 12.3011 11.662 10.2071 11.662C9.81803 11.662 9.44434 11.624 9.06653 11.5778L7.54581 12.0409C7.23752 12.1339 6.86208 12.0352 6.72208 11.8304L5.58153 10.1464C5.56363 10.1289 5.56728 10.101 5.54985 10.0832C5.27902 9.80687 5.02676 9.50359 4.88454 9.157L2.06485 5.01012C1.92485 4.80529 2.07335 4.55584 2.38167 4.46282L7.00722 3.07351C6.92305 2.49546 6.69449 2.18843 6.56367 2.06311L0.449073 3.91552C0.0637124 4.03179 -0.106112 4.33308 0.0688916 4.58912L5.89835 13.1144C6.07336 13.3705 6.52681 13.4833 6.91217 13.367L19.7433 9.4938C20.1287 9.37753 20.2985 9.07623 20.1235 8.8202L14.294 0.294895C14.1628 0.102867 13.863 -0.00521226 13.5654 0.000193527ZM9.95363 1.0527L6.59535 2.06311C6.76839 2.20352 7.12409 2.52042 7.45076 2.94721L10.1754 2.10521C10.1453 1.7743 10.0638 1.41495 9.95363 1.0527Z"/>
   <path id="path3265" transform="matrix(42.4559 0 0 63.8595 240.683 284.971)" fill="#e70000" d="M1.75785 3.04157C1.75785 3.04157 3.278 4.19457 1.4746 6.71338C0.827187 7.61763 -0.143943 8.30267 0.017913 9.56314C0.285151 11.6443 2.85037 12.7417 5.52097 12.7417C8.19157 12.7417 11.024 11.3168 11.1859 9.72755C11.3477 8.13826 9.89104 7.59023 9.4864 6.98739C9.08177 6.38456 9.6078 5.01448 10.3361 4.24724C9.20316 4.76787 9.08177 4.76787 8.35342 5.91873C7.62508 7.0696 8.68272 8.53437 7.706 8.8781C6.46559 9.31463 5.45937 8.33644 5.84468 7.37101C6.24931 6.35716 7.49061 5.30887 7.62508 4.02803C7.73704 2.96155 5.39958 1.12346 5.07587 0C4.42845 0.931652 5.8957 2.84637 5.39958 3.91842C4.33202 6.22524 3.14185 6.47377 3.17408 4.98708C3.19255 4.13498 1.75785 3.04157 1.75785 3.04157Z"/>
   <path id="path7286" transform="matrix(42.4559 0 0 63.8595 240.054 284.242)" fill="url(#gradient0)" d="M5.10605 0C4.45863 0.931652 5.91161 2.8571 5.41548 3.92915C4.34793 6.23597 3.14844 6.4895 3.18068 5.00281C3.19915 4.15071 1.77103 3.06108 1.77103 3.06108C1.77103 3.06108 3.29937 4.19729 1.49598 6.7161C0.848561 7.62035 -0.144285 8.31112 0.0175709 9.57159C0.28481 11.6527 2.84802 12.7469 5.51863 12.7469C8.18922 12.7469 11.0297 11.3208 11.1916 9.73149C11.3534 8.14221 9.91153 7.59306 9.50689 6.99023C9.10225 6.38739 9.63808 5.0162 10.3664 4.24896C9.23344 4.76959 9.10064 4.78854 8.3723 5.93941C7.64395 7.09027 8.69576 8.54254 7.71905 8.88627C6.47863 9.3228 5.47713 8.344 5.86244 7.37857C6.26708 6.36472 7.51582 5.32421 7.65028 4.04337C7.76224 2.97689 5.42976 1.12346 5.10605 0ZM6.48131 3.92915C6.48198 3.9371 6.55072 3.96869 6.55007 3.97484C6.54527 4.02084 6.49038 4.06603 6.48131 4.1119C6.51163 4.04321 6.46034 3.99724 6.48131 3.92915ZM6.41254 4.24896C6.16487 5.15615 5.25293 6.05245 4.79661 7.19582C4.51954 7.89005 4.71018 8.56999 5.31233 9.09186C5.6134 9.3528 6.04836 9.59317 6.58445 9.68581C7.12054 9.77844 7.7201 9.70702 8.23476 9.5259C8.83714 9.31391 9.15281 8.89102 9.23183 8.56646C9.27897 8.37282 9.23973 8.21467 9.23183 8.04105C9.73848 8.46651 10.2131 8.82825 10.1258 9.68581C10.0725 10.2086 9.5265 10.8256 8.64734 11.2849C7.76819 11.7442 6.55942 12.0159 5.51862 12.0159C3.30166 12.0159 1.3371 11.2111 1.11778 9.50306C0.990479 8.51171 1.72049 8.06691 2.45866 7.03592C2.63717 6.78659 2.67753 6.60371 2.80247 6.37344C2.95091 6.46806 3.05305 6.57832 3.28382 6.62473C3.71884 6.7122 4.16992 6.64244 4.45279 6.53335C5.01852 6.31519 5.27873 6.003 5.58738 5.6196C5.87699 5.25985 6.1465 4.80676 6.41254 4.24896Z"/>
  </g>
 </g>
</svg>
