<?xml version="1.0" standalone="no"?>
<!DOCTYPE svg PUBLIC "-//W3C//DTD SVG 20010904//EN" "http://www.w3.org/TR/2001/REC-SVG-20010904/DTD/svg10.dtd">
<!-- Created using Karbon, part of Calligra: http://www.calligra-suite.org/karbon -->
<svg xmlns="http://www.w3.org/2000/svg" xmlns:xlink="http://www.w3.org/1999/xlink" width="800pt" height="800pt">
<defs/>
<g id="g4183">
  <g id="g10105" transform="" fill="none">
   <g id="g10130" transform="" fill="none">
    <g id="g31" transform="" fill="none"/>
   </g>
  </g>
 </g><g id="layer1">
  <g id="g4992" transform="translate(31, -160.54)" fill="none">
   <g id="g4953" transform="translate(1.02585e-12, -3.73035e-12)" fill="none">
    <path id="path7595" transform="matrix(42.4559 0 0 63.8595 1.37668e-13 160.54)" fill="#4d5454" d="M14.5205 0.00043248C14.2901 0.00488714 14.0656 0.0611262 13.8548 0.128799L1.02584 4.23653C0.1669 4.51234 -0.241618 5.25528 0.148382 5.86251L5.98799 14.9338C6.3777 15.5405 7.42913 15.8084 8.28753 15.5328L21.1165 11.4037C21.9747 11.1281 22.3536 10.4061 21.9637 9.79909L16.1544 0.727844C15.8621 0.272771 15.1983 -0.0126673 14.5205 0.00043248ZM14.5507 0.685055C14.8482 0.679306 15.1458 0.801751 15.2769 1.00597L21.0863 10.0772C21.2612 10.3495 21.1083 10.6596 20.7232 10.7832L7.89419 14.9124C7.50909 15.036 7.04034 14.9066 6.86545 14.6342L1.05609 5.56299C0.88121 5.29069 1.03407 4.98063 1.41918 4.85697L14.2482 0.727844C14.3444 0.69693 14.4516 0.686971 14.5507 0.685055ZM13.8548 2.11848C13.7755 2.12002 13.6898 2.13654 13.6128 2.16127L3.35563 5.45602C3.04755 5.55494 2.91315 5.79443 3.05306 6.01227L7.71265 13.2864C7.85255 13.5042 8.22151 13.5993 8.52959 13.5003L18.7867 10.2056C19.0948 10.1067 19.2292 9.84578 19.0893 9.62794L14.4297 2.37522C14.3248 2.21184 14.0928 2.11388 13.8548 2.11848ZM13.6733 2.88868L18.0303 9.67072L8.43882 12.7729L4.0818 5.96948Z"/>
   </g>
   <path id="path7597" transform="matrix(42.4559 0 0 63.8595 41.5474 204.53)" fill="#ffffff" d="M13.5696 0.000199942C13.4705 0.00210908 13.3702 0.018329 13.2739 0.0492437L0.448495 4.16714C0.0633941 4.2908 -0.105981 4.61 0.0689031 4.88229L5.8933 13.9505C6.06818 14.2228 6.51897 14.3426 6.90407 14.2189L19.7295 10.1006C20.1146 9.9769 20.2839 9.65815 20.1091 9.38586L14.2847 0.317201C14.1535 0.11298 13.8671 -0.00554912 13.5696 0.000199942ZM12.8735 1.42693C13.1115 1.42233 13.3405 1.51724 13.4454 1.68062L18.1052 8.93554C18.2451 9.15338 18.1093 9.4082 17.8012 9.50713L7.54093 12.802C7.23285 12.9009 6.87247 12.8049 6.73256 12.5871L2.07279 5.33216C1.93289 5.11432 2.06869 4.8595 2.37672 4.76057L12.637 1.46572C12.7141 1.44099 12.7942 1.42846 12.8735 1.42693Z"/>
  </g>
 </g>
</svg>
