<?xml version="1.0" standalone="no"?>
<!DOCTYPE svg PUBLIC "-//W3C//DTD SVG 20010904//EN" "http://www.w3.org/TR/2001/REC-SVG-20010904/DTD/svg10.dtd">
<!-- Created using Karbon, part of Calligra: http://www.calligra-suite.org/karbon -->
<svg xmlns="http://www.w3.org/2000/svg" xmlns:xlink="http://www.w3.org/1999/xlink" width="800pt" height="800pt">
<defs>
  <radialGradient id="gradient0" gradientTransform="matrix(0.746901 0 0 1.19167 -7.6104 -0.853635)" gradientUnits="objectBoundingBox" cx="1.58083943308" cy="0.45752316964" fx="1.58083943308" fy="0.45752316964" r="0.40372668214" spreadMethod="pad">
   <stop stop-color="#e7e7e7" offset="0.00000000000" stop-opacity="1.00000000000"/>
   <stop stop-color="#858585" offset="1.00000000000" stop-opacity="1.00000000000"/>
  </radialGradient>
 </defs>
<g id="g4183">
  <g id="g10105" transform="" fill="none">
   <g id="g10130" transform="" fill="none">
    <g id="g31" transform="" fill="none"/>
   </g>
  </g>
 </g><g id="layer1">
  <g id="g4948" transform="translate(31, -252.072)" fill="none">
   <path id="path7702" transform="matrix(42.4559 0 0 63.8595 3.55271e-14 250.792)" fill="#4d5454" d="M10.6641 0.00239143C10.6317 0.00802655 10.6 0.0150764 10.5691 0.0234952C10.3469 0.0594913 10.1608 0.160255 10.0625 0.297845C9.99152 0.400271 10.0394 0.510127 9.99914 0.614402C9.79639 1.13941 9.8558 1.68711 9.99914 2.21829L7.21288 3.08355L7.14955 3.08355C7.10546 3.09497 7.06306 3.1091 7.0229 3.12576L1.00711 4.94068C0.148126 5.20069 -0.237788 5.90883 0.152233 6.48126L5.97806 15.0283C6.36779 15.6003 7.43095 15.8579 8.2894 15.5981L21.1126 11.6939C21.9707 11.4341 22.3573 10.7677 21.9674 10.1955L16.1416 1.62739C15.8493 1.19839 15.2047 0.939714 14.5268 0.952063C14.2964 0.956265 14.041 1.01489 13.8303 1.07869L12.2472 1.54297C11.886 1.08614 11.5602 0.678301 11.4873 0.424468C11.4224 0.161249 11.0624 -0.0233359 10.6641 0.00239143ZM10.7274 0.508883C10.8717 1.01141 11.4445 1.66839 11.9939 2.32381L12.7221 2.11277C12.7155 2.10426 12.6976 2.10031 12.6904 2.09167L14.2419 1.62739C14.3382 1.59824 14.4277 1.60809 14.5268 1.60628C14.6012 1.60493 14.6777 1.61466 14.7485 1.62739C14.8204 1.63979 14.8742 1.64436 14.9385 1.66959C15.0748 1.7208 15.1852 1.79912 15.2551 1.90173L21.0809 10.4488C21.1684 10.5771 21.1812 10.7069 21.1126 10.8286C21.0782 10.8897 21.0216 10.9488 20.9543 10.9975C20.887 11.046 20.7972 11.095 20.701 11.1241L15.6034 12.6647L11.9939 13.7621L7.87779 15.0072C7.78151 15.0363 7.69199 15.0476 7.59284 15.0494C7.47894 15.0514 7.37892 15.0373 7.27621 15.0072C7.09351 14.9615 6.95205 14.8823 6.86461 14.754L1.03877 6.20691C1.03457 6.20074 1.04256 6.19203 1.03877 6.18581C0.995047 6.12164 0.978116 6.06013 0.975446 5.99587C0.972766 5.92975 0.972826 5.86688 1.00711 5.80594C1.04146 5.74749 1.09808 5.68385 1.16542 5.63711C1.23272 5.5885 1.32243 5.56073 1.41871 5.53159L6.83293 3.88549L7.5295 3.67445C7.5338 3.67791 7.55651 3.67067 7.56116 3.67445L8.22607 3.46342L10.1891 2.87251L10.9174 2.66147C10.6715 1.85031 10.369 1.02631 10.7274 0.508883ZM13.8303 2.95693C13.7509 2.95837 13.6857 2.95471 13.6086 2.97803L13.4187 3.04134L12.7221 3.25238C13.0749 3.73643 13.3301 4.19713 13.292 4.56081C13.1576 5.84493 11.9233 6.89988 11.5189 7.91632C11.1339 8.88421 12.1157 9.85234 13.3553 9.41469C14.3314 9.07009 13.2923 7.61396 14.0202 6.46016C14.6522 5.45838 14.8588 5.29971 15.635 4.94068L15.3184 4.4975L14.4002 3.18907C14.3739 3.15056 14.3451 3.11353 14.3052 3.08355C14.2952 3.07605 14.2842 3.06937 14.2735 3.06244C14.2441 3.04658 14.2118 3.03238 14.1785 3.02024C14.071 2.98091 13.9492 2.95476 13.8303 2.95693ZM11.139 3.71666L10.3791 3.9488C10.3791 3.95488 10.3791 3.96392 10.3791 3.96991L9.11261 4.34978L8.41605 4.56082C8.65058 4.8682 8.83429 5.20348 8.82765 5.51049C8.79544 7.00097 10.0088 6.768 11.0757 4.4553C11.1738 4.24248 11.163 3.98151 11.139 3.71666ZM14.0202 4.20205L14.5268 4.91958C14.1103 5.20034 13.7785 5.52681 13.3553 6.18581C13.6593 5.69597 13.9885 5.18738 14.0519 4.58192C14.0654 4.45311 14.0425 4.32787 14.0202 4.20205ZM7.97278 4.68744L7.27621 4.89848C7.27668 4.9059 7.27588 4.91217 7.27621 4.91958L3.35011 6.10139C3.27308 6.12471 3.21519 6.15 3.16013 6.18581C3.10626 6.22465 3.06097 6.26374 3.03349 6.31243C2.98529 6.39783 2.98684 6.49516 3.03349 6.58678C3.03748 6.59356 3.02888 6.6011 3.03349 6.60788C3.03728 6.61426 3.02915 6.62267 3.03349 6.62899L4.96488 9.43579L4.96488 9.4569L5.85141 10.7653C5.76908 10.5594 5.72255 10.3411 5.6931 10.1111C5.53135 8.84743 6.50255 8.14755 7.14956 7.24099C7.95191 6.11679 8.0599 5.28769 7.97278 4.68743ZM10.0941 4.77185C9.92658 5.07076 9.73638 5.3419 9.58754 5.53159C9.59194 5.3277 9.53689 5.12381 9.4609 4.94068ZM15.73 5.08841C15.1473 5.87489 14.8062 6.98652 15.1601 7.51535C15.5645 8.11972 16.9999 8.6655 16.8382 10.2588C16.8023 10.612 16.6304 10.9698 16.3632 11.2929L18.7696 10.5543C18.8466 10.531 18.9057 10.5087 18.9595 10.4699C19.0134 10.431 19.0587 10.3919 19.0862 10.3433C19.1411 10.2459 19.1561 10.1294 19.0862 10.0267ZM7.18122 5.65821C7.07108 6.04489 6.83722 6.49161 6.45299 7.02996C6.14046 7.46787 5.68432 7.92051 5.34482 8.46502L4.07834 6.58678ZM13.2287 6.54457C12.9631 7.16986 12.9637 7.80619 13.0071 8.27509C13.0323 8.54792 13.0363 8.76672 13.0071 8.8871C12.9778 9.00747 13.0037 8.9727 13.0071 8.97151C12.8384 9.03105 12.7642 9.02651 12.6904 9.01372C12.6166 9.00093 12.5321 8.94855 12.4371 8.866C12.2472 8.70089 12.1129 8.35924 12.2472 8.02184C12.4166 7.59585 12.8397 7.1145 13.2287 6.54458ZM15.7933 6.77672L16.6165 8.00074C16.2568 7.66062 15.9055 7.4247 15.825 7.30431C15.7831 7.24173 15.7712 7.03469 15.7933 6.77672ZM17.5031 9.30917L18.0097 10.0689L17.5981 10.1955C17.6174 9.86736 17.5897 9.57702 17.5031 9.30917ZM6.54798 11.7783L7.33953 12.9601C7.35145 12.9658 7.35921 12.9756 7.37119 12.9812L7.68782 13.4666C7.75778 13.5693 7.89 13.641 8.0361 13.6777C8.1822 13.7143 8.35699 13.7243 8.51103 13.6777L8.9543 13.551L10.0625 13.2134C8.64616 13.0444 7.36032 12.5746 6.54798 11.7783Z"/>
   <path id="path7704" transform="matrix(62.5 0 0 94.0087 41.2179 283.58)" fill="#ffffff" d="M6.64198 0C6.39797 0.352251 6.56851 0.905845 6.73573 1.45804L4.48573 2.1454C4.56358 2.20877 4.68453 2.34374 4.82948 2.49949C4.65551 2.31894 4.55582 2.24334 4.48573 2.18706C4.4796 2.18213 4.4903 2.14902 4.48573 2.1454C4.4841 2.14411 4.4559 2.14652 4.45448 2.1454L0.298229 3.41598C0.0366185 3.49516 -0.0705754 3.69985 0.0482289 3.87422L4.01698 9.66471C4.13578 9.83908 4.44287 9.93136 4.70448 9.85217L13.392 7.20688C13.6536 7.12769 13.792 6.923 13.6732 6.74864L9.70448 0.93731C9.61538 0.806534 9.40655 0.746167 9.20448 0.749848C9.13712 0.751068 9.08238 0.750882 9.01698 0.770678L7.48573 1.22892C7.11344 0.784806 6.73979 0.340535 6.64198 0ZM8.73573 1.6455C8.89738 1.64255 9.03945 1.70751 9.11073 1.81213L9.95448 2.99939C9.4257 3.24391 9.29052 3.35957 8.86073 4.04085C8.36628 4.82462 9.08629 5.80636 8.42323 6.04045C7.58115 6.33773 6.8804 5.6773 7.14198 5.01982C7.41667 4.32935 8.26945 3.62173 8.36073 2.74944C8.38664 2.50187 8.22623 2.18339 7.98573 1.85379L8.57948 1.66633C8.6318 1.65049 8.68184 1.64648 8.73573 1.6455ZM6.82948 1.74965C6.86605 1.89012 6.87896 2.03531 6.89198 2.16623C6.91043 2.35165 6.9292 2.51769 6.86073 2.66613C6.136 4.23713 5.3076 4.40762 5.32948 3.39515C5.33403 3.18463 5.20973 2.95982 5.04823 2.74944L6.89198 2.16623C6.87997 2.03394 6.8624 1.89177 6.82948 1.74965ZM4.76698 2.83276C4.82617 3.24051 4.74951 3.81874 4.20448 4.58241C3.76497 5.19823 3.0946 5.6611 3.20448 6.51952C3.22424 6.67394 3.24335 6.81851 3.29823 6.95693L1.39198 4.145C1.29694 4.0055 1.40144 3.85425 1.61073 3.7909ZM10.017 3.1452L12.2982 6.45703C12.3933 6.59652 12.2888 6.74777 12.0795 6.81112L10.4857 7.31102C10.4609 7.34181 10.4195 7.36414 10.392 7.39434C10.616 7.15116 10.7708 6.89425 10.7982 6.62366C10.9081 5.54131 9.91668 5.18041 9.64198 4.76987C9.40474 4.41531 9.63024 3.67817 10.017 3.1452ZM3.79823 7.64429C4.34282 8.17809 5.1947 8.50432 6.14198 8.62326L5.11073 8.93569C4.90144 8.99904 4.64327 8.92943 4.54823 8.78989ZM9.98573 7.74843C9.83328 7.85967 9.66953 7.96532 9.48573 8.06087C9.666 7.9664 9.83583 7.85814 9.98573 7.74843Z"/>
   <path id="path7708" transform="matrix(42.4559 0 0 63.8595 239.904 283.051)" fill="url(#gradient0)" opacity="0.32300882000" d="M5.10286 0C4.45585 0.934029 5.90792 2.86438 5.41211 3.93917C4.34522 6.25187 3.14648 6.50605 3.1787 5.01557C3.19716 4.1613 1.76993 3.06889 1.76993 3.06889C1.76993 3.06889 3.29732 4.208 1.49505 6.73323C0.848032 7.63979 -0.144195 8.33231 0.01756 9.596C0.284632 11.6825 2.84625 12.7794 5.51519 12.7794C8.18412 12.7794 11.0229 11.3497 11.1846 9.75631C11.3464 8.16297 9.90535 7.61243 9.50097 7.00806C9.09658 6.40368 9.63208 5.029 10.36 4.2598C9.22769 4.78176 9.09497 4.80076 8.36708 5.95456C7.63919 7.10836 8.69034 8.56433 7.71424 8.90893C6.4746 9.34658 5.47372 8.36528 5.85879 7.39739C6.26317 6.38095 7.51114 5.33779 7.64552 4.05368C7.75741 2.98448 5.42637 1.12633 5.10286 0ZM6.47727 3.93917C6.47795 3.94714 6.54663 3.97882 6.54599 3.98497C6.54119 4.03109 6.48634 4.0764 6.47727 4.12239C6.50757 4.05352 6.45632 4.00743 6.47727 3.93917ZM6.40855 4.2598C6.16104 5.1693 5.24967 6.06788 4.79362 7.21418C4.51673 7.91017 4.70725 8.59184 5.30903 9.11505C5.60991 9.37666 6.0446 9.61764 6.58035 9.71051C7.11611 9.80338 7.7153 9.73178 8.22964 9.55019C8.83164 9.33766 9.14712 8.91369 9.22608 8.5883C9.27319 8.39417 9.23398 8.23562 9.22608 8.06155C9.73242 8.4881 10.2067 8.85076 10.1194 9.71051C10.0662 10.2346 9.52057 10.8532 8.64196 11.3137C7.76336 11.7741 6.55534 12.0465 5.51519 12.0465C3.29961 12.0465 1.33628 11.2397 1.11709 9.52729C0.989867 8.53341 1.71943 8.08748 2.45713 7.05386C2.63553 6.80389 2.67587 6.62055 2.80073 6.3897C2.94908 6.48456 3.05115 6.5951 3.28178 6.64162C3.71653 6.72932 4.16733 6.65937 4.45002 6.55001C5.0154 6.33129 5.27545 6.01831 5.58391 5.63393C5.87333 5.27326 6.14268 4.81902 6.40855 4.2598Z"/>
  </g>
 </g>
</svg>
