<?xml version="1.0" encoding="UTF-8" standalone="no"?>
<!-- Created with Inkscape (http://www.inkscape.org/) -->

<svg
   xmlns:dc="http://purl.org/dc/elements/1.1/"
   xmlns:cc="http://creativecommons.org/ns#"
   xmlns:rdf="http://www.w3.org/1999/02/22-rdf-syntax-ns#"
   xmlns:svg="http://www.w3.org/2000/svg"
   xmlns="http://www.w3.org/2000/svg"
   xmlns:sodipodi="http://sodipodi.sourceforge.net/DTD/sodipodi-0.dtd"
   xmlns:inkscape="http://www.inkscape.org/namespaces/inkscape"
   width="256"
   height="256"
   id="svg3301"
   version="1.1"
   inkscape:version="0.48.0 r9654"
   sodipodi:docname="user-invisible.svg">
  <defs
     id="defs3303" />
  <sodipodi:namedview
     id="base"
     pagecolor="#ffffff"
     bordercolor="#666666"
     borderopacity="1.0"
     inkscape:pageopacity="0.0"
     inkscape:pageshadow="2"
     inkscape:zoom="0.35"
     inkscape:cx="192.14286"
     inkscape:cy="182.85714"
     inkscape:document-units="px"
     inkscape:current-layer="layer1"
     showgrid="false"
     inkscape:window-width="751"
     inkscape:window-height="515"
     inkscape:window-x="0"
     inkscape:window-y="24"
     inkscape:window-maximized="0" />
  <metadata
     id="metadata3306">
    <rdf:RDF>
      <cc:Work
         rdf:about="">
        <dc:format>image/svg+xml</dc:format>
        <dc:type
           rdf:resource="http://purl.org/dc/dcmitype/StillImage" />
        <dc:title></dc:title>
      </cc:Work>
    </rdf:RDF>
  </metadata>
  <g
     inkscape:label="Layer 1"
     inkscape:groupmode="layer"
     id="layer1"
     transform="translate(0,-796.36218)">
    <g
       id="g4950"
       inkscape:export-filename="/home/madnester/Рабочий стол/витва.png"
       inkscape:export-xdpi="2.8124993"
       inkscape:export-ydpi="2.8124993"
       transform="matrix(0.5,0,0,0.5,-511.99999,526.18107)">
      <path
         id="path4531"
         d="m 1364.9162,540.36279 c -0.3741,0 -0.7526,0 -1.1278,0.014 -4.0658,0.16 -8.0843,1.072 -11.8423,2.7744 -103.3286,46.9171 -206.6568,93.8349 -309.988,140.7461 -15.3216,6.9568 -22.1988,25.2481 -15.2411,40.5665 l 140.7817,309.94441 c 6.9549,15.312 25.2373,22.1952 40.5565,15.2384 l 309.988,-140.76181 c 15.3147,-6.9537 22.1983,-25.2481 15.2411,-40.5649 l -140.7818,-309.9603 c -5.0423,-11.1008 -15.9909,-17.8832 -27.5863,-17.9968 z"
         style="font-size:medium;font-style:normal;font-variant:normal;font-weight:normal;font-stretch:normal;text-indent:0;text-align:start;text-decoration:none;line-height:normal;letter-spacing:normal;word-spacing:normal;text-transform:none;direction:ltr;block-progression:tb;writing-mode:lr-tb;text-anchor:start;baseline-shift:baseline;color:#000000;fill:#e6e6e6;fill-opacity:1;fill-rule:nonzero;stroke:none;stroke-width:30;marker:none;visibility:visible;display:inline;overflow:visible;enable-background:accumulate;font-family:Sans;-inkscape-font-specification:Sans"
         inkscape:connector-curvature="0"
         sodipodi:nodetypes="ccccssccccc" />
      <path
         sodipodi:nodetypes="ccscccccccccccccccccccc"
         inkscape:connector-curvature="0"
         id="path4485"
         d="m 1446.8908,797.67227 c -26.914,22.05222 -50.4441,38.53955 -70.5906,49.4623 -20.0455,10.89593 -42.1244,19.5923 -66.1788,26.03764 -11.825,3.16853 -23.5793,5.52377 -35.278,7.14178 -11.5979,1.59117 -24.077,2.58776 -37.395,3.01501 -13.3179,0.42704 -25.2412,0.26363 -35.7635,-0.59987 -10.5224,-0.86372 -25.899,-3.13445 -46.1373,-6.70282 l 7.8897,29.44484 c 31.0372,10.31539 61.1019,15.65581 90.2196,15.97836 25.9426,0.19777 49.4666,-2.56693 70.5904,-8.22653 25.0648,-6.71635 48.6893,-17.59606 70.7722,-32.61249 22.1097,-14.9152 41.9939,-32.88122 59.6347,-53.96513 z m -140.1796,-164.26218 -39.08,10.47146 44.8262,164.96945 39.08,-10.47146 z m -67.1099,17.98201 -36.1068,20.0512 41.651,155.44386 39.282,-10.52561 z"
         style="font-size:144px;font-style:normal;font-variant:normal;font-weight:bold;font-stretch:normal;line-height:125%;letter-spacing:0px;word-spacing:0px;fill:#3473e3;fill-opacity:1;stroke:none;font-family:Arial;-inkscape-font-specification:Arial Bold" />
      <path
         inkscape:connector-curvature="0"
         inkscape:export-ydpi="23.039482"
         inkscape:export-xdpi="23.039482"
         inkscape:export-filename="C:\Users\Madnester\Desktop\Sketches\256.png"
         id="path4537"
         d="m 1354.5185,580.42519 c -2.1228,0 -4.2702,0.56 -6.3314,1.488 l -274.5852,124.6642 c -8.2448,3.7456 -11.871,13.408 -8.1269,21.6528 l 124.6974,274.53141 c 3.7441,8.2416 13.3953,11.869 21.6401,8.1248 l 274.5852,-124.67851 c 8.2448,-3.7456 11.8711,-13.3952 8.1269,-21.6368 l -124.6973,-274.5474 c -2.8082,-6.1825 -8.9404,-9.7713 -15.3088,-9.5969 z m -14.9037,43.1937 c 5.0947,-0.176 9.9977,2.7328 12.2443,7.6784 l 99.7632,219.6386 c 2.9954,6.5936 0.09,14.3072 -6.5068,17.3024 l -219.6683,99.7489 c -6.5958,2.9952 -14.3113,0.176 -17.3067,-6.5072 l -99.7632,-219.6354 c -2.9954,-6.5952 -0.09,-14.3088 6.5069,-17.304 l 219.6682,-99.7489 c 1.649,-0.736 3.3641,-1.136 5.0624,-1.168 z"
         style="fill:#858585;fill-opacity:1;fill-rule:nonzero;stroke:none" />
    </g>
  </g>
</svg>
