<?xml version="1.0" encoding="UTF-8" standalone="no"?>
<!-- Created with Inkscape (http://www.inkscape.org/) -->

<svg
   xmlns:dc="http://purl.org/dc/elements/1.1/"
   xmlns:cc="http://creativecommons.org/ns#"
   xmlns:rdf="http://www.w3.org/1999/02/22-rdf-syntax-ns#"
   xmlns:svg="http://www.w3.org/2000/svg"
   xmlns="http://www.w3.org/2000/svg"
   xmlns:sodipodi="http://sodipodi.sourceforge.net/DTD/sodipodi-0.dtd"
   xmlns:inkscape="http://www.inkscape.org/namespaces/inkscape"
   width="256"
   height="256"
   id="svg3301"
   version="1.1"
   inkscape:version="0.48.0 r9654"
   sodipodi:docname="Новый документ 2">
  <defs
     id="defs3303" />
  <sodipodi:namedview
     id="base"
     pagecolor="#ffffff"
     bordercolor="#666666"
     borderopacity="1.0"
     inkscape:pageopacity="0.0"
     inkscape:pageshadow="2"
     inkscape:zoom="0.35"
     inkscape:cx="192.14286"
     inkscape:cy="182.85714"
     inkscape:document-units="px"
     inkscape:current-layer="layer1"
     showgrid="false"
     inkscape:window-width="751"
     inkscape:window-height="515"
     inkscape:window-x="0"
     inkscape:window-y="24"
     inkscape:window-maximized="0" />
  <metadata
     id="metadata3306">
    <rdf:RDF>
      <cc:Work
         rdf:about="">
        <dc:format>image/svg+xml</dc:format>
        <dc:type
           rdf:resource="http://purl.org/dc/dcmitype/StillImage" />
        <dc:title></dc:title>
      </cc:Work>
    </rdf:RDF>
  </metadata>
  <g
     inkscape:label="Layer 1"
     inkscape:groupmode="layer"
     id="layer1"
     transform="translate(0,-796.36218)">
    <g
       transform="matrix(0.5,0,0,0.5,-4.0799078e-6,526.18127)"
       id="g3295">
      <path
         inkscape:export-ydpi="2.8124993"
         inkscape:export-xdpi="2.8124993"
         inkscape:export-filename="/home/madnester/Рабочий стол/витва.png"
         sodipodi:nodetypes="ccccssccccc"
         id="path4044-2"
         d="m 340.91625,540.36251 c -0.37408,-0.003 -0.75264,0.005 -1.12784,0.0144 -4.06576,0.16 -8.0843,1.072 -11.8423,2.7744 C 224.61762,590.06841 121.28937,636.98603 17.958112,683.89704 2.6365302,690.85385 -4.2406849,709.14507 2.7170422,724.46348 L 143.49877,1034.4078 c 6.95485,15.312 25.23724,22.1952 40.55646,15.2384 L 494.0432,908.88445 c 15.31472,-6.9536 22.19826,-25.24802 15.24107,-40.56483 L 368.50258,558.35933 c -5.04238,-11.10082 -15.99096,-17.88322 -27.58633,-17.99682 z"
         style="font-size:medium;font-style:normal;font-variant:normal;font-weight:normal;font-stretch:normal;text-indent:0;text-align:start;text-decoration:none;line-height:normal;letter-spacing:normal;word-spacing:normal;text-transform:none;direction:ltr;block-progression:tb;writing-mode:lr-tb;text-anchor:start;baseline-shift:baseline;color:#000000;fill:#e6e6e6;fill-opacity:1;fill-rule:nonzero;stroke:none;stroke-width:30;marker:none;visibility:visible;display:inline;overflow:visible;enable-background:accumulate;font-family:Sans;-inkscape-font-specification:Sans"
         inkscape:connector-curvature="0" />
      <path
         inkscape:connector-curvature="0"
         inkscape:export-ydpi="23.039482"
         inkscape:export-xdpi="23.039482"
         inkscape:export-filename="C:\Users\Madnester\Desktop\Sketches\256.png"
         id="path3222-0"
         d="m 330.51855,580.42495 c -2.12276,0 -4.27017,0.56 -6.33139,1.488 L 49.601948,706.57706 c -8.244799,3.74561 -11.871054,13.40802 -8.126863,21.65282 L 166.1724,1002.7613 c 3.74419,8.2416 13.39532,11.8689 21.64014,8.1248 L 462.39778,886.20763 c 8.24479,-3.7456 11.87109,-13.39521 8.12684,-21.63682 L 345.8273,590.02335 c -2.80817,-6.1824 -8.9404,-9.7712 -15.30875,-9.5968 z m -14.90374,43.19364 c 5.09469,-0.176 9.99776,2.7328 12.2443,7.6784 l 99.76327,219.63861 c 2.99538,6.59361 0.0896,14.30721 -6.50688,17.30242 l -219.66821,99.74889 c -6.59582,2.9952 -14.31134,0.176 -17.3067,-6.50721 L 84.377336,741.8443 c -2.99536,-6.59521 -0.0896,-14.30882 6.506879,-17.30402 L 310.5524,624.79139 c 1.64904,-0.736 3.36419,-1.136 5.06241,-1.168 z"
         style="fill:#858585;fill-opacity:1;fill-rule:nonzero;stroke:none" />
      <path
         inkscape:connector-curvature="0"
         id="path4269"
         d="m 376.59375,601.09375 c -0.12741,0.003 -0.24787,0.027 -0.375,0.0312 -26.98018,0.89427 -47.52615,26.75656 -42.4375,53.21875 0.008,0.053 0.0231,0.10327 0.0312,0.15625 0.0265,0.13523 0.0346,0.271 0.0625,0.40625 l 0.0312,0 c 1.17365,7.16492 4.08024,13.62727 8.21875,19.09375 -28.75219,-0.64285 -57.53872,-0.76701 -86.15625,-0.84375 l -1.6875,0 -1.5625,0.53125 c -6.71474,2.29023 -10.31689,7.62429 -12.40625,11.25 -2.08936,3.62571 -3.49036,6.20636 -4,6.75 l -0.625,0.65625 -0.5,0.78125 c -11.20553,17.52263 -23.38404,35.05812 -34.5,53.3125 l -0.75,1.1875 -0.375,1.375 c -1.07524,3.95948 -0.50635,8.58448 1.15625,11.875 1.6626,3.29052 3.87441,5.33667 5.78125,6.875 3.81368,3.07666 6.99725,5.09993 6.90625,5 2.8403,3.40311 6.35337,6.15633 11.40625,7.75 2.64526,0.83431 5.88112,1.29538 9.4375,0.40625 3.55638,-0.88913 7.09205,-3.3943 9.21875,-6.53125 l 0.0625,-0.0937 0.0625,-0.125 c 10.16985,-15.76342 20.21035,-31.55342 30.3125,-47.28125 5.51823,0.49201 11.06229,0.99588 16.59375,1.5 -20.10071,27.46879 -40.19532,54.94961 -60.3125,82.40625 -28.22841,5.38208 -56.83242,10.18664 -85.3125,16.09375 l -1.5625,0.3125 -1.375,0.78125 c -3.62123,2.06942 -6.56482,5.83355 -7.6875,9.4375 -1.12268,3.60395 -0.87383,6.71823 -0.53125,9.21875 0.68516,5.00105 1.75036,8.86722 1.75,8.84375 l 0,1.09375 0.28125,1.09375 c 0.14507,0.60441 0.22733,4.68614 1.46875,9.59375 0.62071,2.4538 1.65399,5.39625 4.09375,8.21875 2.43976,2.8225 6.50353,5.02295 10.5,5.5 l 1.4375,0.15625 1.4375,-0.25 c 34.11047,-5.84672 68.23417,-12.19056 102.15625,-18.71875 l 2.40625,-0.4375 1.90625,-1.53125 c 9.34989,-7.37189 12.9468,-16.62975 16.90625,-21.125 l 0.28125,-0.3125 0.28125,-0.375 c 6.43204,-8.77849 12.8378,-17.53031 19.25,-26.28125 6.93536,5.06046 13.86821,10.13232 20.8125,15.21875 -13.43268,20.50002 -27.29978,40.97663 -40.40625,62.0625 l -0.78125,1.28125 -0.40625,1.46875 c -1.04743,4.0189 -0.41765,8.71832 1.34375,12.03125 1.7614,3.31293 4.10298,5.33508 6.09375,6.84375 3.98153,3.01733 7.36101,4.98722 7.25,4.875 l 0.875,0.875 1.0625,0.65625 c 0.3586,0.21715 3.33274,3.10356 7.71875,5.78125 2.19301,1.33884 5.05045,2.77486 8.90625,3 3.8558,0.22514 8.3678,-1.33843 11.46875,-3.96875 l 1,-0.84375 0.78125,-1.125 c 21.35729,-31.0243 42.3296,-62.44546 63.125,-93.75 l 0.53125,-0.84375 0.375,-0.90625 c 1.51435,-3.72533 1.57326,-8.4217 0.21875,-11.9375 -1.35451,-3.5158 -3.50947,-5.78802 -5.40625,-7.46875 -3.79355,-3.36147 -7.42499,-5.31705 -7.90625,-5.71875 l -0.25,-0.1875 -0.25,-0.1875 c -14.49351,-10.61657 -29.00105,-21.2061 -43.46875,-31.8125 6.49773,-8.90262 13.00316,-17.80237 19.53125,-26.71875 14.3948,10.65113 28.82856,21.71047 44,32.0625 l 1.34375,0.9375 1.59375,0.4375 c 3.9946,1.11735 8.71185,0.62971 12.09375,-1.09375 3.3819,-1.72346 5.46445,-4.09318 7,-6.09375 3.07111,-4.00113 5.01066,-7.38545 4.96875,-7.34375 l 0.625,-0.59375 0.46875,-0.6875 c 12.67193,-17.78076 26.55594,-35.37958 39.15625,-54.125 l 0.9375,-1.4375 0.4375,-1.65625 c 1.02469,-3.99384 0.37753,-8.63534 -1.34375,-11.90625 -1.72128,-3.27091 -3.99812,-5.29871 -5.9375,-6.8125 -3.87875,-3.02759 -7.08974,-5.03502 -6.96875,-4.90625 l -0.5625,-0.59375 -0.65625,-0.46875 c -0.77885,-0.59778 -2.20328,-1.94326 -4.625,-3.375 -2.42172,-1.43174 -6.39953,-2.91824 -10.71875,-2.3125 l -0.46875,0.0625 -0.46875,0.125 c -7.13092,1.6905 -11.1423,6.98184 -13.46875,10.5625 -2.32645,3.58066 -3.90569,6.21074 -4.4375,6.71875 l -0.65625,0.59375 -0.5,0.71875 c -4.41128,6.01567 -8.80111,12.01106 -13.1875,18 -6.93821,-5.06122 -13.9278,-10.12482 -20.96875,-15.3125 5.0614,0.0946 10.19372,-0.65693 15.21875,-2.4375 0.0843,-0.0299 0.16572,-0.0633 0.25,-0.0937 0.10458,-0.0326 0.20835,-0.0605 0.3125,-0.0937 l 0,-0.0312 c 25.60938,-8.19309 38.28924,-38.68056 26.15625,-62.71875 -0.0467,-0.0926 -0.0775,-0.18886 -0.125,-0.28125 l -0.0312,0 c -7.78086,-16.07367 -24.72401,-26.39659 -42.9375,-25.4375 l 0,-0.0312 z m 0.875,19.96875 c 9.8704,-0.60387 20.00111,5.59817 24.15625,14.34375 l 0.0625,0.15625 0.0625,0.125 c 6.42913,12.51364 -1.26471,30.9114 -14.59375,34.96875 l -0.28125,0.0937 -0.28125,0.0937 c -13.52819,5.00412 -30.94831,-5.34354 -33.0625,-19.4375 L 353.5,651.125 l -0.0625,-0.28125 c -2.86446,-13.90321 9.45834,-29.40429 23.65625,-29.75 l 0.1875,0 0.1875,-0.0312 z m 57.125,70.84375 c 0.0447,0.0346 0.0475,0.0268 0.0937,0.0625 2.94617,2.90517 5.30845,4.28938 7,5.3125 -11.27076,16.36183 -23.66302,32.47745 -35.625,49.25 -0.0475,0.0666 -0.10875,0.12085 -0.15625,0.1875 -2.50588,2.78986 -3.78332,4.96143 -4.71875,6.5625 -15.74831,-10.99782 -31.23337,-23.03447 -47.34375,-34.6875 L 345.75,712.75 l -5.84375,8.03125 c -10.43128,14.28543 -20.96514,28.56731 -31.40625,42.9375 l -5.84375,8.03125 8.03125,5.90625 c 17.00475,12.49138 34.03883,24.8978 51.03125,37.34375 0.19169,0.16 0.31236,0.22367 0.5,0.375 2.25842,1.82143 3.99774,2.95819 5.3125,3.8125 -19.00538,28.59867 -38.13727,57.21695 -57.53125,85.46875 -1.11139,-0.93917 -2.64442,-2.08566 -4.71875,-3.46875 -3.14868,-2.98317 -5.66378,-4.3361 -7.375,-5.34375 13.74291,-21.85253 28.48904,-43.45815 42.78125,-65.53125 l 5.125,-7.9375 -7.625,-5.5625 c -12.17948,-8.90183 -24.36013,-17.87929 -36.625,-26.78125 l -8.03125,-5.84375 -5.90625,8 c -8.39758,11.41154 -16.72269,22.8672 -25.0625,34.25 -0.0307,0.0419 -0.063,0.0831 -0.0937,0.125 -5.85321,6.8315 -9.19144,13.12723 -12.375,16.53125 -31.16824,5.98605 -62.47501,11.78742 -93.71875,17.1875 -0.18128,-1.74996 -0.41324,-4.04289 -1.1875,-7.28125 -0.003,-0.0119 0.003,-0.0193 0,-0.0312 -0.31876,-3.37325 -0.81535,-5.83052 -1.25,-7.5 27.63698,-5.60554 55.75775,-10.357 83.875,-15.78125 l 3.84375,-0.75 2.3125,-3.15625 c 24.38849,-33.28465 48.76073,-66.5725 73.125,-99.875 l 10.46875,-14.3125 -17.65625,-1.5625 c -13.38062,-1.18458 -26.78493,-2.44837 -40.25,-3.625 l -6.03125,-0.53125 -3.25,5.09375 c -10.53258,16.35991 -20.97679,32.73843 -31.4688,49.0312 -0.0913,-0.0819 -0.26581,-0.16051 -0.3125,-0.21875 l -0.1875,-0.25 -0.21875,-0.25 c -3.36374,-3.69367 -6.17749,-5.19475 -7.96875,-6.34375 9.98796,-16.08934 20.9511,-32.091 31.5,-48.5625 3.22669,-3.77416 4.67404,-7.33047 5.90625,-9.46875 1.0241,-1.77714 1.07447,-1.67064 1.15625,-1.75 29.0752,0.0787 58.20218,0.20199 87.125,0.90625 16.35009,11.10555 32.32953,23.66232 49.1875,35.59375 l 8,5.65625 5.84375,-7.875 c 6.35407,-8.61632 12.62012,-17.2386 18.90625,-25.8125 3.43162,-3.62911 5.08028,-7.12984 6.4375,-9.21875 0.3633,-0.55917 0.0855,-0.19684 0.3125,-0.5 z"
         style="font-size:medium;font-style:normal;font-variant:normal;font-weight:normal;font-stretch:normal;text-indent:0;text-align:start;text-decoration:none;line-height:normal;letter-spacing:normal;word-spacing:normal;text-transform:none;direction:ltr;block-progression:tb;writing-mode:lr-tb;text-anchor:start;baseline-shift:baseline;color:#000000;fill:#e6e6e6;fill-opacity:1;fill-rule:nonzero;stroke:none;stroke-width:20;marker:none;visibility:visible;display:inline;overflow:visible;enable-background:accumulate;font-family:Sans;-inkscape-font-specification:Sans" />
      <path
         inkscape:connector-curvature="0"
         id="path4113"
         d="m 376.84375,611.09375 c -20.77854,0.50594 -37.37864,21.43877 -33.1875,41.78125 3.11186,20.74479 26.59879,34.67059 46.40625,27.34375 19.71336,-6.00073 30.04055,-30.70652 20.59375,-49.09375 -5.9621,-12.54881 -19.64388,-20.89808 -33.8125,-20.03125 z m 56.4375,69.5625 c -6.66363,1.57972 -8.60487,10.28382 -13.32574,14.79344 -6.36496,8.6799 -12.69225,17.38762 -19.08051,26.05031 -17.34745,-12.27786 -34.09817,-25.59377 -51.71875,-37.375 -31.01289,-0.80099 -62.18635,-0.88553 -93.21875,-0.96875 -6.5438,2.23193 -7.93536,10.6784 -12.33192,15.36823 -11.34583,17.74202 -23.48413,35.19635 -34.38683,53.10052 -1.99717,7.35441 7.66985,10.10058 11.58156,14.39597 3.24818,4.05144 10.67619,8.20288 14.38719,2.72903 11.24172,-17.42484 22.36677,-34.93637 33.59375,-52.375 13.41967,1.17266 26.83154,2.43707 40.25,3.625 -24.36283,33.30053 -48.73794,66.5923 -73.125,99.875 -29.62916,5.71592 -59.50761,10.66418 -89,16.78125 -6.76923,3.86841 -1.5366,12.8484 -1.44704,18.65148 1.25658,5.23533 0.12225,14.83798 7.54079,15.72352 34.01728,-5.83075 68.08771,-12.16721 101.96875,-18.6875 6.54819,-5.1629 10.06501,-13.61861 15.58183,-19.88197 8.38369,-11.44211 16.72965,-22.91207 25.13692,-34.33678 12.22789,8.87512 24.39523,17.83426 36.59375,26.75 -15.08366,23.29543 -30.88135,46.26257 -45.5,69.78125 -1.96273,7.53085 8.02632,10.07593 12.10168,14.19598 4.62794,2.80238 10.57023,10.73809 16.46082,5.74152 21.30208,-30.94409 42.24326,-62.33162 63.03125,-93.625 2.79076,-6.8653 -6.22633,-10.28989 -10.2579,-13.65496 -17.17109,-12.57791 -34.36934,-25.11902 -51.52335,-37.72004 10.41458,-14.33367 20.92641,-28.59711 31.375,-42.90625 17.29995,12.51348 34.16538,25.84512 51.75,37.84375 7.625,2.13282 10.1668,-7.85336 14.33315,-11.99903 12.85727,-18.04082 26.66046,-35.58047 38.97935,-53.90722 1.90103,-7.40946 -7.89746,-10.04873 -11.86146,-14.26756 -2.33689,-1.79359 -4.69332,-4.1493 -7.88854,-3.70119 z"
         style="fill:#d63434;fill-opacity:1;stroke:none" />
    </g>
  </g>
</svg>
