<?xml version="1.0" encoding="UTF-8" standalone="no"?>
<!-- Created with Inkscape (http://www.inkscape.org/) -->

<svg
   xmlns:dc="http://purl.org/dc/elements/1.1/"
   xmlns:cc="http://creativecommons.org/ns#"
   xmlns:rdf="http://www.w3.org/1999/02/22-rdf-syntax-ns#"
   xmlns:svg="http://www.w3.org/2000/svg"
   xmlns="http://www.w3.org/2000/svg"
   xmlns:sodipodi="http://sodipodi.sourceforge.net/DTD/sodipodi-0.dtd"
   xmlns:inkscape="http://www.inkscape.org/namespaces/inkscape"
   width="256"
   height="256"
   id="svg3301"
   version="1.1"
   inkscape:version="0.48.0 r9654"
   sodipodi:docname="user-offline.svg">
  <defs
     id="defs3303" />
  <sodipodi:namedview
     id="base"
     pagecolor="#ffffff"
     bordercolor="#666666"
     borderopacity="1.0"
     inkscape:pageopacity="0.0"
     inkscape:pageshadow="2"
     inkscape:zoom="0.35"
     inkscape:cx="192.14286"
     inkscape:cy="182.85714"
     inkscape:document-units="px"
     inkscape:current-layer="layer1"
     showgrid="false"
     inkscape:window-width="751"
     inkscape:window-height="515"
     inkscape:window-x="0"
     inkscape:window-y="24"
     inkscape:window-maximized="0" />
  <metadata
     id="metadata3306">
    <rdf:RDF>
      <cc:Work
         rdf:about="">
        <dc:format>image/svg+xml</dc:format>
        <dc:type
           rdf:resource="http://purl.org/dc/dcmitype/StillImage" />
        <dc:title></dc:title>
      </cc:Work>
    </rdf:RDF>
  </metadata>
  <g
     inkscape:label="Layer 1"
     inkscape:groupmode="layer"
     id="layer1"
     transform="translate(0,-796.36218)">
    <g
       id="g4976"
       inkscape:export-filename="/home/madnester/Рабочий стол/витва.png"
       inkscape:export-xdpi="2.8124993"
       inkscape:export-ydpi="2.8124993"
       transform="matrix(0.5,0,0,0.5,-256,14.181273)">
      <path
         inkscape:connector-curvature="0"
         style="font-size:medium;font-style:normal;font-variant:normal;font-weight:normal;font-stretch:normal;text-indent:0;text-align:start;text-decoration:none;line-height:normal;letter-spacing:normal;word-spacing:normal;text-transform:none;direction:ltr;block-progression:tb;writing-mode:lr-tb;text-anchor:start;baseline-shift:baseline;color:#000000;fill:#e6e6e6;fill-opacity:1;fill-rule:nonzero;stroke:none;stroke-width:30;marker:none;visibility:visible;display:inline;overflow:visible;enable-background:accumulate;font-family:Sans;-inkscape-font-specification:Sans"
         d="m 852.91624,1564.3625 c -0.37408,0 -0.75264,0 -1.12784,0.014 -4.06576,0.16 -8.0843,1.072 -11.8423,2.7744 l -63.6162,28.8768 c -3.75279,-8.0864 -6.54256,-15.4096 -7.5748,-20.8 -3.11647,-9.8208 -16.20598,-14.56 -23.04449,-2.8192 -5.59466,12.1152 -5.30045,25.6128 -3.61213,39.1793 L 529.9581,1707.897 c -15.32158,6.9568 -22.19879,25.2481 -15.24107,40.5665 l 140.78173,309.9443 c 6.95485,15.312 25.23725,22.1952 40.55646,15.2384 l 309.98798,-140.7617 c 15.3147,-6.9537 22.1983,-25.2481 15.2411,-40.5649 L 880.50257,1582.3593 c -5.04238,-11.1008 -15.99096,-17.8832 -27.58633,-17.9968 z"
         id="path4330" />
      <path
         style="fill:#858585;fill-opacity:1;fill-rule:nonzero;stroke:none"
         d="m 842.51855,1604.4249 c -2.12277,0 -4.27018,0.56 -6.3314,1.488 l -274.58521,124.6642 c -8.2448,3.7456 -11.87105,13.408 -8.12686,21.6528 l 124.69731,274.5314 c 3.74419,8.2416 13.39533,11.8689 21.64014,8.1248 l 274.58525,-124.6785 c 8.24478,-3.7456 11.87108,-13.3952 8.12683,-21.6368 L 857.8273,1614.0234 c -2.80818,-6.1825 -8.9404,-9.7713 -15.30875,-9.5969 z m -14.90375,43.1937 c 5.09469,-0.176 9.99776,2.7328 12.24431,7.6784 l 99.76326,219.6386 c 2.99538,6.5936 0.0896,14.3072 -6.50688,17.3024 l -219.66821,99.7489 c -6.59582,2.9952 -14.31134,0.176 -17.3067,-6.5072 l -99.76325,-219.6354 c -2.99536,-6.5952 -0.0896,-14.3088 6.50688,-17.304 l 219.66818,-99.7489 c 1.64904,-0.736 3.36419,-1.136 5.06241,-1.168 z"
         id="path4332"
         inkscape:export-filename="C:\Users\Madnester\Desktop\Sketches\256.png"
         inkscape:export-xdpi="23.039482"
         inkscape:export-ydpi="23.039482"
         inkscape:connector-curvature="0" />
      <path
         id="path4334"
         transform="translate(0,540.3622)"
         d="m 756.78125,1037.1562 c -1.40063,3.0332 -2.3137,6.4086 -2.875,10.0313 l 5.65625,0 c -1.2083,-3.4944 -2.17405,-6.86 -2.78125,-10.0313 z m -3.25,27.25 c 0.34371,4.4268 0.95482,9.0455 1.71875,13.7813 l 18.78125,0 c -2.53277,-4.6896 -4.97109,-9.2953 -7.15625,-13.7813 l -13.34375,0 z m 4.9375,31 c 0.92766,4.5835 1.87149,9.1874 2.78125,13.7813 l 29.90625,0 c -2.48457,-4.5892 -5.05131,-9.1746 -7.625,-13.7813 l -25.0625,0 z m 5.8125,31 c 0.68762,4.706 1.19502,9.3188 1.4375,13.75 l 40.1875,0 c -1.67514,-4.4477 -3.69947,-9.0506 -5.9375,-13.75 l -35.6875,0 z m -77.71875,8.5626 c 0.58563,0.7466 1.84637,2.4791 3.34375,5.1874 l 0.84375,0 c -2.34026,-3.0258 -3.76807,-4.6997 -4.1875,-5.1874 z m 9.84375,22.4062 c 0.97365,4.0408 1.76096,8.6286 2.1875,13.7812 l 11.3125,0 c -2.18311,-4.829 -4.71055,-9.4778 -7.3125,-13.7812 l -6.1875,0 z m 68.53125,0 c -0.32633,1.7986 -0.73441,3.5421 -1.25,5.2188 -0.91192,2.9653 -1.83152,5.809 -2.75,8.5624 l 49.59375,0 c 0.19571,-1.6694 0.3818,-3.368 0.5,-5.0624 0.19263,-2.7612 10e-4,-5.6596 -0.4375,-8.7188 l -45.65625,0 z m -66.3125,31 c -0.31465,4.3158 -0.85709,8.9232 -1.71875,13.7812 l 19.46875,0 c -0.0527,-1.7101 -0.0584,-3.4586 -0.0312,-5.3437 0.0396,-2.748 -0.25615,-5.5764 -0.78125,-8.4375 l -16.9375,0 z m 56,0 c -2.06519,5.1082 -4.13101,9.7151 -6.15625,13.7812 l 54.375,0 c 1.64001,-4.5091 3.09851,-9.0976 4.34375,-13.7812 l -52.5625,0 z m 93.46875,0 c -3.83702,3.6437 -6.94169,7.7368 -10.28125,13.7812 l 17.53125,0 c 1.59884,-4.7403 3.36155,-9.382 5.3125,-13.7812 l -12.5625,0 z m -155.28125,31 c -1.28784,4.4122 -2.80893,9.0068 -4.59375,13.7812 l 101.1875,0 c 2.13793,-4.525 4.28878,-9.1153 6.375,-13.7812 l -58.0625,0 c -8.19009,9.7154 -15.01781,9.5259 -18.625,0 l -26.28125,0 z m 136.8125,0 c -0.97965,2.2578 -2.02814,4.6419 -3.125,7.25 -0.90008,2.1403 -1.65294,4.3321 -2.3125,6.5312 l 24.03125,0 c 0.49102,-4.4574 1.24933,-9.0803 2.28125,-13.7812 l -20.875,0 z m -148.65625,31 c -0.2624,0.5618 -0.51191,1.1214 -0.78125,1.6875 -1.97696,4.1553 -4.11216,8.1524 -6.28125,12.0937 l 102.03125,0 c 1.60279,-4.5481 3.49825,-9.1509 5.53125,-13.7812 l -100.5,0 z m 140.09375,0 c -0.3832,4.606 -0.4791,9.2357 -0.40625,13.7812 l 31.65625,0 c -0.63311,-1.106 -1.22317,-2.2014 -1.71875,-3.3124 -1.32004,-2.9594 -2.1491,-6.5122 -2.59375,-10.4688 l -26.9375,0 z m -156.75,31 c -2.43668,4.4871 -4.77129,9.0384 -6.84375,13.75 l 114.59375,0 c -0.73742,-4.3852 -0.8859,-9.0211 -0.40625,-13.75 l -107.34375,0 z m 157.15625,0 c 0.30378,4.8363 0.58355,9.4583 0.65625,13.75 l 52.46875,0 c -3.07128,-5.0997 -6.39204,-9.5967 -9.625,-13.75 l -43.5,0 z M 651.5,1312.3438 c -1.08315,4.3678 -1.84878,8.9306 -2.28125,13.7812 l 236.6875,0 c -0.76676,-4.9821 -1.90269,-9.5542 -3.3125,-13.7812 l -62.40625,0 c -1.41448,3.9704 -3.74132,7.0424 -7.4375,9 -13.92369,7.3736 -26.46865,2.1331 -34,-9 l -127.25,0 z m -2.28125,31 c 0.40827,4.7575 1.07871,9.3464 1.96875,13.7812 l 234.4375,0 c 0.54909,-2.842 0.92988,-5.6793 1.125,-8.5625 0.12038,-1.7788 0.18012,-3.52 0.21875,-5.2187 l -237.75,0 z m 6.84375,31 c 1.80653,4.8326 3.9226,9.4314 6.3125,13.7812 l 210.15625,0 c 2.95258,-4.4428 5.48617,-9.0607 7.59375,-13.7812 l -224.0625,0 z m 18.21875,31 c 4.32903,5.0598 9.10428,9.6426 14.25,13.75 l 153.71875,0 c 5.7992,-4.2032 11.20315,-8.8036 16.125,-13.75 l -184.09375,0 z m 44.40625,30.9687 c 14.91954,5.7827 31.14187,8.7187 47.5625,8.7187 14.92631,0 30.09753,-3.1526 44.40625,-8.7187 l -91.96875,0 z"
         style="fill:#3473e3;fill-opacity:1;stroke:none"
         inkscape:connector-curvature="0" />
    </g>
  </g>
</svg>
