<?xml version="1.0" encoding="UTF-8" standalone="no"?>
<!-- Created with Inkscape (http://www.inkscape.org/) -->

<svg
   xmlns:dc="http://purl.org/dc/elements/1.1/"
   xmlns:cc="http://creativecommons.org/ns#"
   xmlns:rdf="http://www.w3.org/1999/02/22-rdf-syntax-ns#"
   xmlns:svg="http://www.w3.org/2000/svg"
   xmlns="http://www.w3.org/2000/svg"
   xmlns:sodipodi="http://sodipodi.sourceforge.net/DTD/sodipodi-0.dtd"
   xmlns:inkscape="http://www.inkscape.org/namespaces/inkscape"
   width="256"
   height="256"
   id="svg3301"
   version="1.1"
   inkscape:version="0.48.0 r9654"
   sodipodi:docname="user-away-extended.svg">
  <defs
     id="defs3303" />
  <sodipodi:namedview
     id="base"
     pagecolor="#ffffff"
     bordercolor="#666666"
     borderopacity="1.0"
     inkscape:pageopacity="0.0"
     inkscape:pageshadow="2"
     inkscape:zoom="0.35"
     inkscape:cx="192.14286"
     inkscape:cy="182.85714"
     inkscape:document-units="px"
     inkscape:current-layer="layer1"
     showgrid="false"
     inkscape:window-width="751"
     inkscape:window-height="515"
     inkscape:window-x="0"
     inkscape:window-y="24"
     inkscape:window-maximized="0" />
  <metadata
     id="metadata3306">
    <rdf:RDF>
      <cc:Work
         rdf:about="">
        <dc:format>image/svg+xml</dc:format>
        <dc:type
           rdf:resource="http://purl.org/dc/dcmitype/StillImage" />
        <dc:title></dc:title>
      </cc:Work>
    </rdf:RDF>
  </metadata>
  <g
     inkscape:label="Layer 1"
     inkscape:groupmode="layer"
     id="layer1"
     transform="translate(0,-796.36218)">
    <g
       transform="matrix(0.5,0,0,0.5,0,270.18108)"
       id="g4966"
       inkscape:export-filename="/home/madnester/Рабочий стол/витва.png"
       inkscape:export-xdpi="2.8124993"
       inkscape:export-ydpi="2.8124993">
      <path
         inkscape:connector-curvature="0"
         style="font-size:medium;font-style:normal;font-variant:normal;font-weight:normal;font-stretch:normal;text-indent:0;text-align:start;text-decoration:none;line-height:normal;letter-spacing:normal;word-spacing:normal;text-transform:none;direction:ltr;block-progression:tb;writing-mode:lr-tb;text-anchor:start;baseline-shift:baseline;color:#000000;fill:#e6e6e6;fill-opacity:1;fill-rule:nonzero;stroke:none;stroke-width:30;marker:none;visibility:visible;display:inline;overflow:visible;enable-background:accumulate;font-family:Sans;-inkscape-font-specification:Sans"
         d="m 340.91624,1052.3629 c -0.37408,0 -0.75264,0.01 -1.12784,0.014 -4.06576,0.16 -8.0843,1.072 -11.8423,2.7744 -103.32849,46.9171 -206.65674,93.8347 -309.987996,140.7457 -15.321582,6.9568 -22.198797,25.248 -15.24107,40.5665 l 140.781726,309.9447 c 6.95485,15.312 25.23724,22.1952 40.55646,15.2384 l 309.98797,-140.7618 c 15.31472,-6.9536 22.19826,-25.248 15.24107,-40.5648 L 368.50257,1070.3597 c -5.04238,-11.1008 -15.99096,-17.8832 -27.58633,-17.9968 z"
         id="path4125"
         sodipodi:nodetypes="ccccssccccc" />
      <path
         style="fill:#858585;fill-opacity:1;fill-rule:nonzero;stroke:none"
         d="m 330.51854,1092.4253 c -2.12276,0 -4.27017,0.56 -6.33139,1.488 L 49.60194,1218.5774 c -8.244799,3.7456 -11.871054,13.4081 -8.126863,21.6529 l 124.697313,274.5314 c 3.74419,8.2416 13.39532,11.8689 21.64014,8.1248 L 462.39777,1398.208 c 8.24479,-3.7456 11.87109,-13.3952 8.12684,-21.6368 L 345.82729,1102.0237 c -2.80817,-6.1824 -8.9404,-9.7712 -15.30875,-9.5968 z m -14.90374,43.1937 c 5.09469,-0.176 9.99776,2.7328 12.2443,7.6784 l 99.76327,219.6386 c 2.99538,6.5936 0.0896,14.3072 -6.50688,17.3024 l -219.66821,99.7489 c -6.59582,2.9952 -14.31134,0.176 -17.3067,-6.5072 L 84.377328,1253.8447 c -2.99536,-6.5952 -0.0896,-14.3088 6.506879,-17.304 l 219.668183,-99.7489 c 1.64904,-0.736 3.36419,-1.136 5.06241,-1.168 z"
         id="path4127"
         inkscape:export-filename="C:\Users\Madnester\Desktop\Sketches\256.png"
         inkscape:export-xdpi="23.039482"
         inkscape:export-ydpi="23.039482"
         inkscape:connector-curvature="0" />
      <path
         inkscape:connector-curvature="0"
         id="path4275"
         d="m 253,1060.9375 -47.5,100.4687 -1.03125,2.2188 0.0937,2.4688 4,94.375 c 0.34688,8.1848 1.40409,20.5717 4.75,32 1.67296,5.7141 3.86024,11.2712 7.59375,16.125 1.83782,2.3892 4.31409,4.6263 7.21875,6.3124 -4.76944,1.9892 -9.06857,4.9766 -12.65625,8.5626 -6.23253,6.2295 -10.99908,14.337 -11,23.9687 -8.2e-4,9.6327 4.7677,17.7677 11,24 6.2323,6.2323 14.36722,11.0321 24,11.0313 9.63232,0 17.77019,-4.7985 24,-11.0313 3.55277,-3.5545 6.50892,-7.7848 8.5,-12.5 1.32928,2.1891 2.85876,4.2022 4.625,5.75 4.44243,3.8931 9.56514,6.1821 14.8125,7.9063 10.49473,3.4482 21.88722,4.5067 29.71875,5.0937 l 53.34375,4 2.9375,0.2187 2.5625,-1.375 89.25,-48.2187 -5.03125,-18.7813 -142.59375,4 c -8.29612,0.2327 -19.73518,1.3068 -30.28125,4.875 -5.27304,1.7842 -10.40625,4.1767 -14.8125,8.125 -1.70505,1.5279 -3.17393,3.4743 -4.46875,5.5938 -1.98929,-4.7809 -4.96872,-9.0625 -8.5625,-12.6562 -3.96663,-3.9667 -8.78429,-7.1938 -14.1875,-9.125 2.52913,-1.6088 4.77339,-3.5782 6.4375,-5.7188 3.76224,-4.8395 5.98691,-10.3678 7.6875,-16.0938 3.40119,-11.4518 4.45221,-23.8642 4.625,-32.2812 l 4,-194.8438 L 253,1060.9375 z m -1.9375,50.8437 -3.03125,148.0626 c -0.1426,6.9465 -1.2654,18.4238 -3.8125,27 -1.27355,4.288 -2.98258,7.7892 -4.3125,9.5 -1.32992,1.7107 -1.29459,1.4375 -1.625,1.4374 -0.32927,0 -0.22499,0.292 -1.53125,-1.4062 -1.30626,-1.6982 -2.99073,-5.1988 -4.25,-9.5 -2.51855,-8.6023 -3.66495,-20.0818 -3.96875,-27.25 l -3.90625,-91.9062 26.4375,-55.9376 z m -11.59375,220.6563 c 2.15502,2e-4 6.52107,1.8336 9.84375,5.1563 3.32268,3.3226 5.15607,7.6887 5.15625,9.8437 2.1e-4,2.1562 -1.83339,6.5506 -5.15625,9.875 -3.32286,3.3244 -7.68961,5.1563 -9.84375,5.1563 -2.15596,2e-4 -6.51915,-1.8317 -9.84375,-5.1563 -3.3246,-3.3246 -5.15643,-7.719 -5.15625,-9.875 2.1e-4,-2.1548 1.83185,-6.5209 5.15625,-9.8437 3.3244,-3.3229 7.68688,-5.1563 9.84375,-5.1563 z m 183.28125,2.25 -49.71875,26.8437 -50.40625,-3.7812 c -7.26622,-0.5447 -17.5727,-1.7261 -24.96875,-4.1562 -3.69803,-1.2151 -6.552,-2.7782 -7.875,-3.9376 -1.323,-1.1593 -1.25,-1.1622 -1.25,-2.0312 0,-0.8729 -0.041,-1.0059 1.3125,-2.2188 1.35349,-1.2128 4.2072,-2.7902 7.875,-4.0312 7.3356,-2.482 17.59946,-3.6832 24.4375,-3.875 L 422.75,1334.6875 z"
         style="font-size:medium;font-style:normal;font-variant:normal;font-weight:normal;font-stretch:normal;text-indent:0;text-align:start;text-decoration:none;line-height:normal;letter-spacing:normal;word-spacing:normal;text-transform:none;direction:ltr;block-progression:tb;writing-mode:lr-tb;text-anchor:start;baseline-shift:baseline;color:#000000;fill:#e6e6e6;fill-opacity:1;fill-rule:nonzero;stroke:none;stroke-width:20;marker:none;visibility:visible;display:inline;overflow:visible;enable-background:accumulate;font-family:Sans;-inkscape-font-specification:Sans" />
      <path
         sodipodi:nodetypes="csssccaaaaasssccs"
         id="path2989"
         d="m 214.55552,1165.667 4,94.381 c 0.65068,15.353 4.37088,47.7377 19.73764,47.7377 15.36675,0 19.42225,-32.3742 19.73764,-47.7377 l 4,-194.8537 z m 24.92043,156.784 c -11.78648,0 -25.00655,13.2116 -25.00768,24.9981 -10e-4,11.7887 13.21894,25.0088 25.00768,25.0077 11.78646,0 24.99914,-13.2212 24.99801,-25.0077 -10e-4,-11.7842 -13.21381,-24.997 -24.99801,-24.9981 z m 82.3913,5.0667 c -15.13416,0.4245 -43.33043,4.5293 -43.33043,20.0963 0,15.567 28.23268,18.9743 43.33043,20.106 l 53.36296,4 89.24674,-48.2023 z"
         style="fill:#d63434;fill-opacity:1;stroke:none"
         inkscape:connector-curvature="0" />
    </g>
  </g>
</svg>
