<?xml version="1.0" encoding="UTF-8" standalone="no"?>
<!-- Created with Inkscape (http://www.inkscape.org/) -->

<svg
   xmlns:dc="http://purl.org/dc/elements/1.1/"
   xmlns:cc="http://creativecommons.org/ns#"
   xmlns:rdf="http://www.w3.org/1999/02/22-rdf-syntax-ns#"
   xmlns:svg="http://www.w3.org/2000/svg"
   xmlns="http://www.w3.org/2000/svg"
   xmlns:sodipodi="http://sodipodi.sourceforge.net/DTD/sodipodi-0.dtd"
   xmlns:inkscape="http://www.inkscape.org/namespaces/inkscape"
   width="16"
   height="16"
   id="svg3301"
   version="1.1"
   inkscape:version="0.48.4 r9939"
   sodipodi:docname="user-invisible.svg">
  <defs
     id="defs3303" />
  <sodipodi:namedview
     id="base"
     pagecolor="#ffffff"
     bordercolor="#666666"
     borderopacity="1.0"
     inkscape:pageopacity="0.0"
     inkscape:pageshadow="2"
     inkscape:zoom="28.240077"
     inkscape:cx="7.5868545"
     inkscape:cy="10.917058"
     inkscape:document-units="px"
     inkscape:current-layer="layer1"
     showgrid="true"
     inkscape:window-width="1440"
     inkscape:window-height="848"
     inkscape:window-x="-8"
     inkscape:window-y="-8"
     inkscape:window-maximized="1">
    <inkscape:grid
       type="xygrid"
       id="grid2986"
       empspacing="5"
       visible="true"
       enabled="true"
       snapvisiblegridlinesonly="true" />
  </sodipodi:namedview>
  <metadata
     id="metadata3306">
    <rdf:RDF>
      <cc:Work
         rdf:about="">
        <dc:format>image/svg+xml</dc:format>
        <dc:type
           rdf:resource="http://purl.org/dc/dcmitype/StillImage" />
        <dc:title />
      </cc:Work>
    </rdf:RDF>
  </metadata>
  <g
     inkscape:label="Layer 1"
     inkscape:groupmode="layer"
     id="layer1"
     transform="translate(0,-1036.3622)">
    <path
       style="font-size:medium;font-style:normal;font-variant:normal;font-weight:normal;font-stretch:normal;text-indent:0;text-align:start;text-decoration:none;line-height:normal;letter-spacing:normal;word-spacing:normal;text-transform:none;direction:ltr;block-progression:tb;writing-mode:lr-tb;text-anchor:start;baseline-shift:baseline;color:#000000;fill:#e6e6e6;fill-opacity:1;fill-rule:nonzero;stroke:none;stroke-width:30;marker:none;visibility:visible;display:inline;overflow:visible;enable-background:accumulate;font-family:Sans;-inkscape-font-specification:Sans"
       d="M 7.71875 0.03125 C 7.5776016 0.0017375 7.4193517 0.0665 7.3125 0.25 C 7.1376668 0.6286 7.13474 1.04475 7.1875 1.46875 C 7.2006926 1.5587818 7.2350134 1.6313957 7.25 1.71875 C 5.727183 1.717352 4.2103052 1.7230441 2.6875 1.71875 C 2.1616559 1.71845 1.7189951 2.1618 1.71875 2.6875 L 1.71875 13.3125 C 1.7185057 13.838 2.1617232 14.28095 2.6875 14.28125 L 13.3125 14.28125 C 13.838106 14.28155 14.280991 13.8383 14.28125 13.3125 L 14.28125 2.6875 C 14.281419 2.3065 14.047149 1.9657 13.71875 1.8125 C 13.70811 1.8125 13.69833 1.8165 13.6875 1.8125 C 13.567703 1.7695 13.441342 1.71875 13.3125 1.71875 C 11.758383 1.71875 10.210361 1.7195916 8.65625 1.71875 L 8.25 1 C 8.1327253 0.7473 8.0635075 0.51225 8.03125 0.34375 C 7.982555 0.1903 7.8598984 0.0607625 7.71875 0.03125 z "
       transform="translate(0,1036.3622)"
       id="path4330" />
    <path
       inkscape:connector-curvature="0"
       inkscape:export-ydpi="23.039482"
       inkscape:export-xdpi="23.039482"
       inkscape:export-filename="C:\Users\Madnester\Desktop\Sketches\256.png"
       id="path4321-7"
       d="m 13.09592,1038.9888 c -0.06263,-0.029 -0.133007,-0.042 -0.206648,-0.041 l -9.7730363,-0.01 c -0.2934783,-10e-5 -0.5300684,0.2362 -0.5302272,0.5297 l -0.00502,9.7728 c -1.174e-4,0.2934 0.2359089,0.5299 0.5293882,0.53 l 9.7732033,0.01 c 0.293477,1e-4 0.529945,-0.2359 0.53002,-0.5292 l 0.0052,-9.7733 c 7.3e-5,-0.22 -0.132638,-0.4083 -0.322865,-0.4885 z m -1.019265,1.0745 c 0.154434,0.059 0.258507,0.2143 0.258213,0.3908 l -0.004,7.8186 c -9.5e-5,0.2348 -0.189228,0.4234 -0.424108,0.4232 l -7.818613,0 c -0.2347324,-2e-4 -0.4263266,-0.1829 -0.4232842,-0.4241 l 0.00396,-7.8185 c 1.455e-4,-0.2349 0.1894019,-0.4235 0.4241507,-0.4233 l 7.8186105,0 c 0.05858,3e-4 0.114562,0.012 0.165487,0.032 z"
       style="fill:#656565;fill-opacity:1;fill-rule:nonzero;stroke:none" />
    <path
       inkscape:connector-curvature="0"
       style="fill:#3473e3;fill-opacity:1;stroke:none"
       d="m 7.6494151,1036.7733 c -0.04377,0.095 -0.072303,0.2002 -0.089844,0.3135 l 0.1767578,0 c -0.037759,-0.1092 -0.067939,-0.2144 -0.086914,-0.3135 z m -0.1015625,0.8515 c 0.010741,0.1384 0.029838,0.2827 0.053711,0.4307 l 0.5869141,0 c -0.079149,-0.1465 -0.1553466,-0.2905 -0.2236329,-0.4307 l -0.4169921,0 z m 0.1542968,0.9688 c 0.028989,0.1432 0.058484,0.2871 0.086914,0.4307 l 0.9345703,0 c -0.077643,-0.1435 -0.1578534,-0.2868 -0.2382812,-0.4307 l -0.7832032,0 z m 0.1816407,0.9687 c 0.021488,0.1471 0.037344,0.2913 0.044922,0.4297 l 1.2558594,0 c -0.052348,-0.139 -0.1156084,-0.2828 -0.1855469,-0.4297 l -1.1152343,0 z m -2.428711,0.2676 c 0.018301,0.023 0.057699,0.078 0.1044922,0.1621 l 0.026367,0 c -0.073133,-0.094 -0.1177522,-0.1468 -0.1308594,-0.1621 z m 0.3076172,0.7002 c 0.030427,0.1263 0.05503,0.2697 0.068359,0.4307 l 0.3535156,0 c -0.068222,-0.1509 -0.1472047,-0.2962 -0.2285156,-0.4307 l -0.1933594,0 z m 2.1416016,0 c -0.010198,0.056 -0.02295,0.1107 -0.039063,0.1631 -0.028498,0.093 -0.057235,0.1815 -0.085937,0.2676 l 1.5498047,0 c 0.00612,-0.052 0.011931,-0.1053 0.015625,-0.1582 0.00602,-0.086 3.12e-5,-0.1769 -0.013672,-0.2725 l -1.4267578,0 z m -2.0722657,0.9688 c -0.00983,0.1348 -0.026784,0.2788 -0.053711,0.4306 l 0.6083984,0 c -0.00165,-0.053 -0.00183,-0.1081 -9.75e-4,-0.167 0.00124,-0.086 -0.008,-0.1742 -0.024414,-0.2636 l -0.5292969,0 z m 1.75,0 c -0.064537,0.1596 -0.129094,0.3036 -0.1923828,0.4306 l 1.6992188,0 c 0.05125,-0.1409 0.096828,-0.2843 0.1357422,-0.4306 l -1.6425782,0 z m 2.9208988,0 c -0.119907,0.1138 -0.216928,0.2417 -0.321289,0.4306 l 0.547851,0 c 0.04996,-0.1481 0.105049,-0.2932 0.166016,-0.4306 l -0.392578,0 z m -4.8525394,0.9687 c -0.040245,0.1379 -0.087779,0.2815 -0.1435547,0.4307 l 3.1621094,0 c 0.06681,-0.1414 0.1340244,-0.2849 0.1992188,-0.4307 l -1.8144532,0 c -0.2559403,0.3036 -0.4693065,0.2977 -0.5820312,0 l -0.8212891,0 z m 4.2753906,0 c -0.030614,0.071 -0.063379,0.1451 -0.097656,0.2266 -0.028128,0.067 -0.051654,0.1354 -0.072266,0.2041 l 0.7509766,0 c 0.01534,-0.1393 0.03904,-0.2838 0.07129,-0.4307 l -0.6523438,0 z m -4.6455078,0.9688 c -0.0082,0.017 -0.015997,0.035 -0.024414,0.053 -0.06178,0.1299 -0.128505,0.2548 -0.1962891,0.3779 l 3.1884766,0 c 0.050087,-0.1421 0.1093203,-0.2859 0.1728515,-0.4306 l -3.140625,0 z m 4.3779297,0 c -0.011975,0.1439 -0.014972,0.2886 -0.012695,0.4306 l 0.9892582,0 c -0.01979,-0.034 -0.03822,-0.069 -0.05371,-0.1035 -0.04125,-0.092 -0.06716,-0.2035 -0.08106,-0.3271 l -0.8417969,0 z m -4.8984375,0.9687 c -0.076146,0.1402 -0.1491028,0.2825 -0.2138672,0.4297 l 3.5810547,0 c -0.023044,-0.137 -0.027684,-0.2819 -0.012695,-0.4297 l -3.3544922,0 z m 4.9111328,0 c 0.00949,0.1512 0.018236,0.2956 0.020508,0.4297 l 1.6396488,0 c -0.09598,-0.1594 -0.199752,-0.2999 -0.300782,-0.4297 l -1.3593746,0 z m -5.3115234,0.9678 c -0.033848,0.1365 -0.057774,0.2791 -0.071289,0.4307 l 7.3964841,0 c -0.02396,-0.1557 -0.05946,-0.2986 -0.103515,-0.4307 l -1.9501956,0 c -0.044202,0.1241 -0.1169163,0.2201 -0.2324219,0.2812 -0.4351153,0.2305 -0.8271453,0.067 -1.0625,-0.2812 l -3.9765625,0 z m -0.071289,0.9687 c 0.012759,0.1487 0.03371,0.2921 0.061524,0.4307 l 7.3261716,0 c 0.01716,-0.089 0.02906,-0.1775 0.03516,-0.2676 0.0038,-0.056 0.0056,-0.11 0.0068,-0.1631 l -7.4296871,0 z m 0.2138672,0.9688 c 0.056454,0.151 0.1225813,0.2947 0.1972656,0.4307 l 6.5673833,0 c 0.09227,-0.1389 0.171442,-0.2832 0.237304,-0.4307 l -7.0019529,0 z m 0.569336,0.9687 c 0.1352821,0.1582 0.2845087,0.3014 0.4453125,0.4297 l 4.8037104,0 c 0.181226,-0.1313 0.350099,-0.2751 0.503907,-0.4297 l -5.7529299,0 z m 1.3876953,0.9678 c 0.4662356,0.1807 0.9731834,0.2725 1.4863281,0.2725 0.4664472,0 0.9405478,-0.098 1.3876953,-0.2725 l -2.8740234,0 z"
       id="path4334" />
  </g>
</svg>
