<?xml version="1.0" encoding="UTF-8" standalone="no"?>
<!-- Created with Inkscape (http://www.inkscape.org/) -->

<svg
   xmlns:dc="http://purl.org/dc/elements/1.1/"
   xmlns:cc="http://creativecommons.org/ns#"
   xmlns:rdf="http://www.w3.org/1999/02/22-rdf-syntax-ns#"
   xmlns:svg="http://www.w3.org/2000/svg"
   xmlns="http://www.w3.org/2000/svg"
   xmlns:sodipodi="http://sodipodi.sourceforge.net/DTD/sodipodi-0.dtd"
   xmlns:inkscape="http://www.inkscape.org/namespaces/inkscape"
   inkscape:version="0.48.4 r9939"
   version="1.1"
   id="svg2"
   height="16"
   width="16"
   sodipodi:docname="user-angry.svg"
   inkscape:export-filename="/home/madnester/Рабочий стол/q22.png"
   inkscape:export-xdpi="1.98"
   inkscape:export-ydpi="1.98">
  <defs
     id="defs4" />
  <sodipodi:namedview
     id="base"
     pagecolor="#ffffff"
     bordercolor="#666666"
     borderopacity="1.0"
     inkscape:pageopacity="0.0"
     inkscape:pageshadow="2"
     inkscape:zoom="19.968748"
     inkscape:cx="8.4696522"
     inkscape:cy="7.196642"
     inkscape:document-units="px"
     inkscape:current-layer="layer1"
     showgrid="true"
     inkscape:window-width="1440"
     inkscape:window-height="848"
     inkscape:window-x="-8"
     inkscape:window-y="-8"
     inkscape:window-maximized="1"
     inkscape:snap-bbox="false"
     inkscape:snap-global="true"
     showguides="false"
     inkscape:guide-bbox="true">
    <sodipodi:guide
       orientation="1,0"
       position="0,810.14234"
       id="guide3219" />
    <sodipodi:guide
       orientation="1,0"
       position="1000.051,496.99505"
       id="guide3221" />
    <sodipodi:guide
       orientation="0,1"
       position="125.25891,1000.051"
       id="guide3223" />
    <sodipodi:guide
       orientation="0,1"
       position="-389.91888,499.01535"
       id="guide3224" />
    <sodipodi:guide
       orientation="1,0"
       position="499.01535,349.51278"
       id="guide3226" />
    <sodipodi:guide
       orientation="1,0"
       position="-499.01535,256.57874"
       id="guide3228" />
    <sodipodi:guide
       orientation="0,1"
       position="-909.13728,0"
       id="guide3230" />
    <sodipodi:guide
       orientation="1,0"
       position="3080.4159,-2249.6915"
       id="guide4875" />
    <sodipodi:guide
       orientation="1,0"
       position="3228.5991,-2487.6828"
       id="guide4877" />
    <sodipodi:guide
       orientation="1,0"
       position="2923.2518,-2712.2029"
       id="guide4879" />
    <sodipodi:guide
       orientation="0,1"
       position="3861.7458,-947.47485"
       id="guide4881" />
    <sodipodi:guide
       orientation="0,1"
       position="4216.4876,-1441.4191"
       id="guide4883" />
    <sodipodi:guide
       orientation="0,1"
       position="4009.9291,-1939.8537"
       id="guide4885" />
    <inkscape:grid
       type="xygrid"
       id="grid3234"
       empspacing="5"
       visible="true"
       enabled="true"
       snapvisiblegridlinesonly="true" />
  </sodipodi:namedview>
  <metadata
     id="metadata7">
    <rdf:RDF>
      <cc:Work
         rdf:about="">
        <dc:format>image/svg+xml</dc:format>
        <dc:type
           rdf:resource="http://purl.org/dc/dcmitype/StillImage" />
        <dc:title />
      </cc:Work>
    </rdf:RDF>
  </metadata>
  <g
     inkscape:label="Layer 1"
     inkscape:groupmode="layer"
     id="layer1"
     transform="translate(0,-1036.3622)">
    <g
       id="g3000"
       transform="matrix(0.91068966,0.4130912,-0.4130912,0.91068966,432.13139,89.967633)">
      <path
         id="path4506"
         d="m 10.653615,1036.3622 c -0.01169,0 -0.02352,0 -0.03524,5e-4 -0.127056,0.01 -0.252634,0.034 -0.370071,0.087 -3.2290191,1.4661 -6.4580254,2.9323 -9.68712538,4.3983 -0.4788,0.2174 -0.6937125,0.789 -0.47628437,1.2677 l 4.39942815,9.6858 c 0.2173406,0.4785 0.7886656,0.6936 1.2673906,0.4762 l 9.687125,-4.3989 c 0.478584,-0.2173 0.693697,-0.789 0.476284,-1.2676 l -4.399431,-9.6863 c -0.157572,-0.3469 -0.499716,-0.5588 -0.862072,-0.5624 z"
         style="font-size:medium;font-style:normal;font-variant:normal;font-weight:normal;font-stretch:normal;text-indent:0;text-align:start;text-decoration:none;line-height:normal;letter-spacing:normal;word-spacing:normal;text-transform:none;direction:ltr;block-progression:tb;writing-mode:lr-tb;text-anchor:start;baseline-shift:baseline;color:#000000;fill:#e6e6e6;fill-opacity:1;fill-rule:nonzero;stroke:none;stroke-width:30;marker:none;visibility:visible;display:inline;overflow:visible;enable-background:accumulate;font-family:Sans;-inkscape-font-specification:Sans"
         inkscape:connector-curvature="0"
         sodipodi:nodetypes="ccccssccccc" />
      <path
         sodipodi:nodetypes="cccccccccc"
         inkscape:connector-curvature="0"
         id="path4510"
         d="m 9.8632652,1038.9638 c -0.053072,10e-4 -0.1066718,0.014 -0.1582031,0.037 l -6.8652344,3.1172 c -0.2061531,0.094 -0.2967312,0.3339 -0.203125,0.54 l 3.1171875,6.8643 c 0.093606,0.2089 0.3348969,0.2967 0.5410157,0.2031 l 6.8652341,-3.1172 c 0.20615,-0.094 0.296731,-0.3349 0.203125,-0.541 l -3.118162,-6.8633 c -0.07021,-0.1545 -0.222628,-0.2457 -0.3818378,-0.2402 z"
         style="font-size:medium;font-style:normal;font-variant:normal;font-weight:normal;font-stretch:normal;text-indent:0;text-align:start;text-decoration:none;line-height:normal;letter-spacing:normal;word-spacing:normal;text-transform:none;direction:ltr;block-progression:tb;writing-mode:lr-tb;text-anchor:start;baseline-shift:baseline;color:#000000;fill:#d63434;fill-opacity:1;fill-rule:nonzero;stroke:none;stroke-width:30;marker:none;visibility:visible;display:inline;overflow:visible;enable-background:accumulate;font-family:Sans;-inkscape-font-specification:Sans" />
      <path
         inkscape:connector-curvature="0"
         id="path4493"
         d="m 9.2519371,1040.304 c -0.5295281,0.5935 -1.0587468,1.1873 -1.5888656,1.7803 -0.7626719,-0.2472 -1.5253969,-0.4941 -2.2880875,-0.7412 -0.4925125,0.1321 -0.985025,0.2643 -1.4775375,0.3965 0.4946469,0.1359 0.9895344,0.271 1.484375,0.4062 -0.6539188,0.2704 -1.1915875,0.948 -1.1015625,1.6826 0.044478,0.6251 0.5123906,1.1967 1.1337875,1.3184 0.7120687,0.1704 1.5091187,0 2.0888688,-0.4434 0.3158718,-0.2622 0.5010593,-0.637 0.5429687,-1.041 0.3957875,0.5625 1.1836594,0.6652 1.7910125,0.419 0.6318255,-0.1983 1.1899095,-0.8205 1.0758875,-1.5145 -0.05035,-0.5804 -0.441747,-1.1712 -1.0465875,-1.2805 -0.1449281,-0.034 -0.290125,-0.047 -0.4375,-0.062 0.4295844,-0.4382 0.8596715,-0.876 1.2900375,-1.3135 -0.488931,0.1309 -0.9778656,0.2618 -1.4667969,0.3926 z m 0.1171875,1.6738 c 0.4290688,-0.013 0.8287004,0.3931 0.7451154,0.8291 -0.0876,0.4712 -0.5993998,0.7087 -1.0380841,0.7325 -0.3498594,0.028 -0.7313938,-0.1648 -0.8212907,-0.5225 -0.1233687,-0.3888 0.1548875,-0.8038 0.5277469,-0.9205 0.184775,-0.078 0.38515,-0.1193 0.5865125,-0.1186 z m -2.8125,0.6631 c 0.3820969,-0.019 0.8274,0.1644 0.9228532,0.5684 0.1362406,0.4648 -0.2449001,0.9198 -0.6682625,1.0653 -0.4584219,0.1917 -1.0478844,0.2836 -1.4723625,-0.034 -0.3177876,-0.2685 -0.3383313,-0.801 -0.034181,-1.0879 0.3125125,-0.3493 0.7976812,-0.492 1.2519531,-0.5117 z m 3.4394531,2.1641 c -1.1396375,0.033 -2.2534906,0.3522 -3.2919937,0.8115 -0.5417625,0.2653 -1.1286781,0.6164 -1.3535125,1.2051 -0.1290063,0.5047 0.1415437,0.9895 0.2347594,1.4781 0.065228,0.1555 0.066831,0.4211 0.16945,0.5119 2.1211218,-0.568 4.2422437,-1.1359 6.3633651,-1.7039 -0.1813,-0.5709 -0.249556,-1.19 -0.524412,-1.7246 -0.348225,-0.5104 -1.030972,-0.5853 -1.5976563,-0.5781 z m -0.078125,0.5488 c 0.4113003,-0.019 0.8638033,0.2093 0.9561723,0.6351 0.09504,0.2764 0.149315,0.5679 0.234259,0.8464 -1.546725,0.4149 -3.0934344,0.8299 -4.640625,1.2431 -0.075888,-0.445 -0.3492906,-0.9156 -0.1582062,-1.3662 0.2569,-0.5116 0.8489656,-0.7125 1.3544937,-0.8906 0.7299844,-0.2395 1.4822844,-0.441 2.2539063,-0.4678 z"
         style="font-size:144px;font-style:normal;font-variant:normal;font-weight:bold;font-stretch:normal;line-height:125%;letter-spacing:0px;word-spacing:0px;fill:#e6e6e6;fill-opacity:1;stroke:none;font-family:Arial;-inkscape-font-specification:Arial Bold" />
      <path
         inkscape:connector-curvature="0"
         inkscape:export-ydpi="23.039482"
         inkscape:export-xdpi="23.039482"
         inkscape:export-filename="C:\Users\Madnester\Desktop\Sketches\256.png"
         id="path4508"
         d="m 10.414957,1037.3626 c -0.06879,0 -0.138386,0.017 -0.205183,0.048 l -8.8985968,4.0406 c -0.2671926,0.1214 -0.38470836,0.4346 -0.2633718,0.7018 l 4.0411202,8.8981 c 0.1213366,0.2672 0.434107,0.3847 0.7012997,0.2633 l 8.8985957,-4.041 c 0.267192,-0.1215 0.384712,-0.4341 0.263372,-0.7013 l -4.041117,-8.8987 c -0.09102,-0.2003 -0.289734,-0.3166 -0.496119,-0.3109 z m -0.4829898,1.4 c 0.1651058,-0.01 0.3239988,0.088 0.3968068,0.2488 l 3.233067,7.1188 c 0.09708,0.2138 0.003,0.4637 -0.210869,0.5608 l -7.1188814,3.2331 c -0.2137528,0.097 -0.4637922,0.01 -0.5608654,-0.2109 l -3.2330672,-7.1189 c -0.097072,-0.2137 -0.00291,-0.4636 0.2108717,-0.5607 l 7.1188783,-3.2331 c 0.053439,-0.024 0.1090217,-0.038 0.1640592,-0.039 z"
         style="fill:#656565;fill-opacity:1;fill-rule:nonzero;stroke:none" />
    </g>
  </g>
</svg>
