<?xml version="1.0" encoding="UTF-8" standalone="no"?>
<!-- Created with Inkscape (http://www.inkscape.org/) -->

<svg
   xmlns:dc="http://purl.org/dc/elements/1.1/"
   xmlns:cc="http://creativecommons.org/ns#"
   xmlns:rdf="http://www.w3.org/1999/02/22-rdf-syntax-ns#"
   xmlns:svg="http://www.w3.org/2000/svg"
   xmlns="http://www.w3.org/2000/svg"
   xmlns:sodipodi="http://sodipodi.sourceforge.net/DTD/sodipodi-0.dtd"
   xmlns:inkscape="http://www.inkscape.org/namespaces/inkscape"
   width="16"
   height="16"
   id="svg3301"
   version="1.1"
   inkscape:version="0.48.4 r9939"
   sodipodi:docname="user-online.svg">
  <defs
     id="defs3303" />
  <sodipodi:namedview
     id="base"
     pagecolor="#ffffff"
     bordercolor="#666666"
     borderopacity="1.0"
     inkscape:pageopacity="0.0"
     inkscape:pageshadow="2"
     inkscape:zoom="39.9375"
     inkscape:cx="7.9999987"
     inkscape:cy="7.9999729"
     inkscape:document-units="px"
     inkscape:current-layer="layer1"
     showgrid="true"
     inkscape:window-width="1440"
     inkscape:window-height="848"
     inkscape:window-x="-8"
     inkscape:window-y="-8"
     inkscape:window-maximized="1">
    <inkscape:grid
       type="xygrid"
       id="grid2986"
       empspacing="5"
       visible="true"
       enabled="true"
       snapvisiblegridlinesonly="true" />
  </sodipodi:namedview>
  <metadata
     id="metadata3306">
    <rdf:RDF>
      <cc:Work
         rdf:about="">
        <dc:format>image/svg+xml</dc:format>
        <dc:type
           rdf:resource="http://purl.org/dc/dcmitype/StillImage" />
        <dc:title />
      </cc:Work>
    </rdf:RDF>
  </metadata>
  <g
     inkscape:label="Layer 1"
     inkscape:groupmode="layer"
     id="layer1"
     transform="translate(0,-1036.3622)">
    <path
       inkscape:connector-curvature="0"
       style="font-size:medium;font-style:normal;font-variant:normal;font-weight:normal;font-stretch:normal;text-indent:0;text-align:start;text-decoration:none;line-height:normal;letter-spacing:normal;word-spacing:normal;text-transform:none;direction:ltr;block-progression:tb;writing-mode:lr-tb;text-anchor:start;baseline-shift:baseline;color:#000000;fill:#e6e6e6;fill-opacity:1;fill-rule:nonzero;stroke:none;stroke-width:30;marker:none;visibility:visible;display:inline;overflow:visible;enable-background:accumulate;font-family:Sans;-inkscape-font-specification:Sans"
       d="m 7.7200001,1036.3922 c -0.1411484,-0.03 -0.2993983,0.035 -0.40625,0.2187 -0.1748332,0.3786 -0.17776,0.7948 -0.125,1.2188 0.013193,0.09 0.047513,0.1626 0.0625,0.25 -1.522817,-0 -3.0396948,0 -4.5625,0 -0.5258441,-3e-4 -0.9685049,0.443 -0.96875,0.9687 l 0,10.625 c -2.443e-4,0.5255 0.4429732,0.9685 0.96875,0.9688 l 10.6249999,0 c 0.525606,2e-4 0.968491,-0.443 0.96875,-0.9688 l 0,-10.625 c 1.69e-4,-0.381 -0.234101,-0.7218 -0.5625,-0.875 -0.01064,0 -0.02042,0 -0.03125,0 -0.119797,-0.043 -0.246158,-0.094 -0.375,-0.094 -1.554117,0 -3.102139,8e-4 -4.6562499,0 l -0.40625,-0.7188 c -0.1172747,-0.2527 -0.1864925,-0.4878 -0.21875,-0.6562 -0.048695,-0.1535 -0.1713516,-0.283 -0.3125,-0.3125 z"
       id="path4330" />
    <path
       inkscape:connector-curvature="0"
       inkscape:export-ydpi="23.039482"
       inkscape:export-xdpi="23.039482"
       inkscape:export-filename="C:\Users\Madnester\Desktop\Sketches\256.png"
       id="path4321-7"
       d="m 13.09717,1038.9875 c -0.06263,-0.029 -0.133007,-0.042 -0.206648,-0.041 l -9.7730362,-0.01 c -0.2934783,-10e-5 -0.5300684,0.2362 -0.5302272,0.5297 l -0.00502,9.7728 c -1.174e-4,0.2934 0.2359089,0.5299 0.5293882,0.53 l 9.7732032,0.01 c 0.293477,10e-5 0.529945,-0.2359 0.53002,-0.5292 l 0.0052,-9.7733 c 7.3e-5,-0.22 -0.132638,-0.4083 -0.322865,-0.4885 z m -1.019265,1.0745 c 0.154434,0.059 0.258507,0.2143 0.258213,0.3908 l -0.004,7.8186 c -9.5e-5,0.2348 -0.189228,0.4234 -0.424108,0.4232 l -7.8186129,0 c -0.2347324,-2e-4 -0.4263266,-0.1829 -0.4232842,-0.4241 l 0.00396,-7.8185 c 1.455e-4,-0.2349 0.1894019,-0.4235 0.4241507,-0.4233 l 7.8186104,0 c 0.05858,3e-4 0.114562,0.012 0.165487,0.032 z"
       style="fill:#656565;fill-opacity:1;fill-rule:nonzero;stroke:none" />
    <path
       style="fill:#3473e3;fill-opacity:1;stroke:none"
       d="m 5.4441739,1039.8163 c 0,0 1.0104748,1.1533 -0.1882785,3.6729 -0.4303519,0.9046 -1.0758808,1.5898 -0.9682919,2.8507 0.1776385,2.0817 1.8827898,3.1795 3.657993,3.1795 1.7752018,0 3.6579925,-1.4253 3.7655805,-3.0151 0.107587,-1.5898 -0.860705,-2.138 -1.129676,-2.741 -0.268969,-0.603 0.08069,-1.9735 0.564839,-2.741 -0.753117,0.5208 -0.833808,0.5208 -1.3179542,1.672 -0.4841465,1.1513 0.2188892,2.6165 -0.4303525,2.9603 -0.8245284,0.4367 -1.4933823,-0.5418 -1.2372618,-1.5075 0.2689695,-1.0142 1.0940873,-2.0628 1.1834678,-3.3441 0.074423,-1.0668 -1.4793353,-2.9054 -1.6945107,-4.0292 -0.4303525,0.9319 0.5449614,2.8472 0.2151764,3.9196 -0.7096259,2.3075 -1.5007603,2.5561 -1.4793353,1.069 0.01228,-0.8524 -0.9413958,-1.9461 -0.9413958,-1.9461 z"
       id="path3265-6"
       inkscape:connector-curvature="0"
       sodipodi:nodetypes="cssssscsssscssc"
       inkscape:export-filename="C:\Users\Madnester\Desktop\Sketches\256.png"
       inkscape:export-xdpi="23.039482"
       inkscape:export-ydpi="23.039482" />
  </g>
</svg>
