<?xml version="1.0" encoding="UTF-8" standalone="no"?>
<!-- Created with Inkscape (http://www.inkscape.org/) -->

<svg
   xmlns:dc="http://purl.org/dc/elements/1.1/"
   xmlns:cc="http://creativecommons.org/ns#"
   xmlns:rdf="http://www.w3.org/1999/02/22-rdf-syntax-ns#"
   xmlns:svg="http://www.w3.org/2000/svg"
   xmlns="http://www.w3.org/2000/svg"
   xmlns:sodipodi="http://sodipodi.sourceforge.net/DTD/sodipodi-0.dtd"
   xmlns:inkscape="http://www.inkscape.org/namespaces/inkscape"
   width="16"
   height="16"
   id="svg3301"
   version="1.1"
   inkscape:version="0.48.4 r9939"
   sodipodi:docname="user-offline.svg">
  <defs
     id="defs3303" />
  <sodipodi:namedview
     id="base"
     pagecolor="#ffffff"
     bordercolor="#666666"
     borderopacity="1.0"
     inkscape:pageopacity="0.0"
     inkscape:pageshadow="2"
     inkscape:zoom="64"
     inkscape:cx="8.673533"
     inkscape:cy="0.2820472"
     inkscape:document-units="px"
     inkscape:current-layer="layer1"
     showgrid="true"
     inkscape:window-width="1440"
     inkscape:window-height="848"
     inkscape:window-x="-8"
     inkscape:window-y="-8"
     inkscape:window-maximized="1">
    <inkscape:grid
       type="xygrid"
       id="grid2985"
       empspacing="5"
       visible="true"
       enabled="true"
       snapvisiblegridlinesonly="true" />
  </sodipodi:namedview>
  <metadata
     id="metadata3306">
    <rdf:RDF>
      <cc:Work
         rdf:about="">
        <dc:format>image/svg+xml</dc:format>
        <dc:type
           rdf:resource="http://purl.org/dc/dcmitype/StillImage" />
        <dc:title />
      </cc:Work>
    </rdf:RDF>
  </metadata>
  <g
     inkscape:label="Layer 1"
     inkscape:groupmode="layer"
     id="layer1"
     transform="translate(0,-1036.3622)">
    <path
       id="path4319-1"
       d="m 13.727401,1038.1781 c -0.01064,-0 -0.02141,-0.01 -0.03224,-0.014 -0.119797,-0.043 -0.244046,-0.074 -0.372888,-0.074 -3.5463072,-0 -7.0926036,-0 -10.6388623,-0.01 -0.5258441,-3e-4 -0.9581037,0.4311 -0.9583488,0.9568 l -0.0049,10.6382 c -2.443e-4,0.5255 0.4307815,0.9578 0.9565583,0.9581 l 10.6390685,0.01 c 0.525606,3e-4 0.958089,-0.431 0.958348,-0.9568 l 0.0051,-10.6385 c 1.69e-4,-0.381 -0.223518,-0.7156 -0.551917,-0.8688 z"
       style="font-size:medium;font-style:normal;font-variant:normal;font-weight:normal;font-stretch:normal;text-indent:0;text-align:start;text-decoration:none;line-height:normal;letter-spacing:normal;word-spacing:normal;text-transform:none;direction:ltr;block-progression:tb;writing-mode:lr-tb;text-anchor:start;baseline-shift:baseline;color:#000000;fill:#e6e6e6;fill-opacity:1;fill-rule:nonzero;stroke:none;stroke-width:30;marker:none;visibility:visible;display:inline;overflow:visible;enable-background:accumulate;font-family:Sans;-inkscape-font-specification:Sans"
       inkscape:connector-curvature="0"
       sodipodi:nodetypes="ccccssccccc" />
    <path
       inkscape:connector-curvature="0"
       inkscape:export-ydpi="23.039482"
       inkscape:export-xdpi="23.039482"
       inkscape:export-filename="C:\Users\Madnester\Desktop\Sketches\256.png"
       id="path4321-7"
       d="m 13.096082,1038.9898 c -0.06263,-0.029 -0.133007,-0.042 -0.206648,-0.041 l -9.7730363,-0.01 c -0.2934783,-10e-5 -0.5300684,0.2362 -0.5302272,0.5297 l -0.00502,9.7728 c -1.174e-4,0.2934 0.2359089,0.5299 0.5293882,0.53 l 9.7732033,0.01 c 0.293477,10e-5 0.529945,-0.2359 0.53002,-0.5292 l 0.0052,-9.7733 c 7.3e-5,-0.22 -0.132638,-0.4083 -0.322865,-0.4885 z m -1.019265,1.0745 c 0.154434,0.059 0.258507,0.2143 0.258213,0.3908 l -0.004,7.8186 c -9.5e-5,0.2348 -0.189228,0.4234 -0.424108,0.4232 l -7.818613,-0 c -0.2347324,-2e-4 -0.4263266,-0.1829 -0.4232842,-0.4241 l 0.00396,-7.8185 c 1.455e-4,-0.2349 0.1894019,-0.4235 0.4241507,-0.4233 l 7.8186109,0 c 0.05858,3e-4 0.114562,0.012 0.165487,0.032 z"
       style="fill:#656565;fill-opacity:1;fill-rule:nonzero;stroke:none" />
  </g>
</svg>
