<?xml version="1.0" encoding="UTF-8" standalone="no"?>
<!-- Created with Inkscape (http://www.inkscape.org/) -->

<svg
   xmlns:dc="http://purl.org/dc/elements/1.1/"
   xmlns:cc="http://creativecommons.org/ns#"
   xmlns:rdf="http://www.w3.org/1999/02/22-rdf-syntax-ns#"
   xmlns:svg="http://www.w3.org/2000/svg"
   xmlns="http://www.w3.org/2000/svg"
   xmlns:sodipodi="http://sodipodi.sourceforge.net/DTD/sodipodi-0.dtd"
   xmlns:inkscape="http://www.inkscape.org/namespaces/inkscape"
   width="16"
   height="16"
   id="svg3301"
   version="1.1"
   inkscape:version="0.48.4 r9939"
   sodipodi:docname="user-away.svg">
  <defs
     id="defs3303" />
  <sodipodi:namedview
     id="base"
     pagecolor="#ffffff"
     bordercolor="#666666"
     borderopacity="1.0"
     inkscape:pageopacity="0.0"
     inkscape:pageshadow="2"
     inkscape:zoom="89.600001"
     inkscape:cx="9.0727858"
     inkscape:cy="1.9932597"
     inkscape:document-units="px"
     inkscape:current-layer="layer1"
     showgrid="true"
     inkscape:window-width="1440"
     inkscape:window-height="848"
     inkscape:window-x="-8"
     inkscape:window-y="-8"
     inkscape:window-maximized="1">
    <inkscape:grid
       type="xygrid"
       id="grid3001"
       empspacing="5"
       visible="true"
       enabled="true"
       snapvisiblegridlinesonly="true" />
  </sodipodi:namedview>
  <metadata
     id="metadata3306">
    <rdf:RDF>
      <cc:Work
         rdf:about="">
        <dc:format>image/svg+xml</dc:format>
        <dc:type
           rdf:resource="http://purl.org/dc/dcmitype/StillImage" />
        <dc:title />
      </cc:Work>
    </rdf:RDF>
  </metadata>
  <g
     inkscape:label="Layer 1"
     inkscape:groupmode="layer"
     id="layer1"
     transform="translate(0,-1036.3622)">
    <path
       sodipodi:nodetypes="ccccssccccc"
       id="path4125"
       d="m 13.725787,1038.177 c -0.01062,0 -0.02154,-0.01 -0.03224,-0.014 -0.119808,-0.043 -0.244067,-0.074 -0.372909,-0.074 -3.5463058,-0 -7.0926054,-0 -10.6389062,-0 -0.5258281,0 -0.9579908,0.4313 -0.9580984,0.9571 l -0.00208,10.638 c -1.046e-4,0.5255 0.4310314,0.9578 0.9568078,0.9579 l 10.6390677,0 c 0.525592,-0 0.957975,-0.4313 0.958056,-0.957 l 0.0023,-10.6385 c 8.8e-5,-0.381 -0.223746,-0.7155 -0.552144,-0.8687 z"
       style="font-size:medium;font-style:normal;font-variant:normal;font-weight:normal;font-stretch:normal;text-indent:0;text-align:start;text-decoration:none;line-height:normal;letter-spacing:normal;word-spacing:normal;text-transform:none;direction:ltr;block-progression:tb;writing-mode:lr-tb;text-anchor:start;baseline-shift:baseline;color:#000000;fill:#e6e6e6;fill-opacity:1;fill-rule:nonzero;stroke:none;stroke-width:30;marker:none;visibility:visible;display:inline;overflow:visible;enable-background:accumulate;font-family:Sans;-inkscape-font-specification:Sans"
       inkscape:connector-curvature="0" />
    <path
       inkscape:connector-curvature="0"
       inkscape:export-ydpi="23.039482"
       inkscape:export-xdpi="23.039482"
       inkscape:export-filename="C:\Users\Madnester\Desktop\Sketches\256.png"
       id="path4127"
       d="m 13.094598,1038.9889 c -0.06263,-0.029 -0.133022,-0.042 -0.206658,-0.041 l -9.7729551,-0 c -0.2935124,0 -0.5300894,0.2366 -0.5301305,0.53 l -0.00247,9.7729 c -4.1e-5,0.2933 0.2360469,0.5298 0.5295261,0.5298 l 9.7731608,0 c 0.293512,-0 0.529842,-0.2361 0.529924,-0.5295 l 0.0027,-9.7734 c 3.8e-5,-0.22 -0.132786,-0.4081 -0.322993,-0.4884 z m -1.018984,1.0748 c 0.154448,0.059 0.258563,0.2143 0.258356,0.3907 l -0.002,7.8186 c -6e-5,0.2348 -0.189117,0.4234 -0.423997,0.4233 l -7.818655,-0 c -0.2347256,0 -0.4263737,-0.1827 -0.423354,-0.4241 l 0.00196,-7.8186 c 3.99e-5,-0.2348 0.1891669,-0.4233 0.4239574,-0.4232 l 7.8186523,0 c 0.05858,3e-4 0.114978,0.01 0.165494,0.032 z"
       style="fill:#656565;fill-opacity:1;fill-rule:nonzero;stroke:none" />
    <path
       style="font-size:medium;font-style:normal;font-variant:normal;font-weight:normal;font-stretch:normal;text-indent:0;text-align:start;text-decoration:none;line-height:normal;letter-spacing:normal;word-spacing:normal;text-transform:none;direction:ltr;block-progression:tb;writing-mode:lr-tb;text-anchor:start;baseline-shift:baseline;color:#000000;fill:#e6e6e6;fill-opacity:1;fill-rule:evenodd;stroke:none;stroke-width:10;marker:none;visibility:visible;display:inline;overflow:visible;enable-background:accumulate;font-family:Sans;-inkscape-font-specification:Sans"
       d="m 8.8066407,1036.8259 -0.359375,0.025 -2.9277344,0.2109 -0.2890625,0.021 0,0.291 0.00391,4.6817 0,0.074 0.035156,0.066 0.7363281,1.459 0.091797,0.1797 0.203125,-0.01 2.0996058,-0.098 0.3398438,-0.016 -0.044922,-0.3379 -0.2207031,-1.6543 0.3066406,-4.5371 0.025391,-0.3594 z m -0.671875,0.6738 -0.2851562,4.2109 -0.00195,0.031 0.00391,0.031 0.1796875,1.3497 -1.5585937,0.07 -0.6132813,-1.211 -0.00391,-4.3183 2.2792969,-0.1641 z m 7.8183593,4.8555 -0.326172,0.018 -5.068359,0.2812 -0.117188,0.01 -0.08398,0.082 -1.3476563,1.3242 -0.095703,0.094 0.00195,0.1348 0.027344,1.7207 0.00977,0.5566 0.4707031,-0.2968 1.2597662,-0.7989 4.992187,-0.125 0.306641,-0.01 -0.002,-0.3066 -0.02344,-2.3574 -0.0039,-0.3262 z m -0.617187,0.6601 0.01563,1.7207 -4.769532,0.1192 -0.08594,0 -0.07422,0.047 -0.8632811,0.5469 -0.015625,-1.0313 1.1679691,-1.1465 4.625,-0.2578 z m -6.5371098,0.9766 -0.3339843,0.025 -2.1640626,0.1601 -0.2851562,0.02 -0.00391,0.2871 -0.023437,1.6855 -0.00391,0.3399 0.3398437,-0.025 2.1953126,-0.1582 0.2910156,-0.022 0,-0.293 -0.00977,-1.6855 -0.00195,-0.334 z m -0.6210937,0.6738 0.00586,1.0586 -1.5664062,0.1133 0.015625,-1.0586 1.5449218,-0.1133 z"
       id="path3773"
       inkscape:connector-curvature="0" />
    <path
       style="fill:#d63434;fill-opacity:1;fill-rule:evenodd;stroke:none"
       d="m 8.4699851,1037.1635 -2.9273676,0.2106 0.00513,4.6826 0.7376964,1.4584 2.1006106,-0.097 -0.2246588,-1.6866 z m 2.1062789,5.8033 -1.347782,1.3246 0.02803,1.721 1.333158,-0.8451 5.077632,-0.1259 -0.02349,-2.3564 z m -2.0887008,1.3618 -2.163745,0.1598 -0.022486,1.685 2.1959969,-0.1592 z"
       id="path3775"
       inkscape:connector-curvature="0"
       sodipodi:nodetypes="ccccccccccccccccccc" />
  </g>
</svg>
