<svg xmlns="http://www.w3.org/2000/svg" viewBox="0 0 16 16">
<defs>
<linearGradient gradientTransform="matrix(1.30909 0 0 1.30909 70.2338 -139.68278)" xlink:href="#linearGradient4005" id="linearGradient3136" y1="177.473" x1="268.912" y2="207.318" gradientUnits="userSpaceOnUse" x2="271.809"/>
<linearGradient xlink:href="#linearGradient4101" id="linearGradient3134" y1="176.123" y2="46.577" gradientUnits="userSpaceOnUse" x2="0"/>
<linearGradient id="linearGradient4101">
<stop offset="0" stop-color="#fbfbfb"/>
<stop offset="1" stop-color="#c0c0c0"/>
</linearGradient>
<linearGradient id="linearGradient4005">
<stop offset="0" stop-color="#bfcad3"/>
<stop offset="1" stop-color="#eceff2" stop-opacity="0"/>
</linearGradient>
</defs>
<path opacity=".08" direction="ltr" block-progression="tb" color="#000000" d="m6.4005,3.6603c-.3681,0-.6922,.1406-.929,.3161c-.1184,.0877-.2161,.1843-.2883,.2947c-.0722,.1104-.1388,.2486-.0854,.425c.0282,.0933 .1236,.1825 .1965,.2114c.0729,.029 .1245,.0286 .1687,.0299c.0885,.003 .1633-.003 .2563,0c.0391,.001 .0833,.009 .1538,.1431c.0705,.1339 .1345,.3866 .1345,.7582c0,.6602 0,1.0085 0,1.7193c0,.2071-.0705,.2623-.1153,.2819c-.0448,.0197-.1076,.0228-.1922-.0684c-.1416-.1525-.8904-1.0082-1.8581-3.225l-.004-.009l-.004-.006c-.1377-.2713-.3705-.4255-.5766-.4955c-.2062-.07-.3941-.0705-.4891-.0705h-.0598c-.901,.0001-.7173,.002-1.9094,.002c-.2087,0-.4279,.023-.6108,.1815c-.0915,.0793-.162,.2008-.1815,.331c-.0195,.1302 .005,.2622 .0555,.3951c.2783,.7382 .9913,2.2385 1.888,3.7162c.8967,1.4777 1.9453,2.9217 3.0092,3.5261c1.8294,1.0392 3.08,.85 3.7653,.85c.1813,0 .3637-.0291 .5233-.1324c.1596-.1033 .2698-.2804 .3161-.4805c.0503-.2176 .0608-.5061 .0961-.7859c.0353-.2799 .1354-.541 .1388-.5446c.0498-.0521 .2036-.0497 .2435-.0278c.109,.06 .4763,.4342 .8094,.8094c.3331,.3752 .6439,.7519 .9504,.944c.115,.0721 .2434,.1243 .3716,.1666c.1282,.0423 .2295,.0747 .3652,.0747c.8512,0 1.7771,.009 2.5501,.009c.164,0 .3691-.036 .5638-.1666c.1948-.1306 .361-.39 .346-.7069c-.0143-.3026-.1795-.5612-.3887-.8479c-.2092-.2867-.4803-.5885-.7582-.8842c-.5557-.5914-1.1628-1.1955-1.3049-1.4203c.009,.0142-.0261-.1827 .0363-.3246c.0636-.1448 .2487-.4231 .4827-.739c.234-.3159 .518-.6793 .7924-1.0487c.2744-.3693 .5402-.7428 .739-1.0914c.1988-.3485 .347-.6608 .3289-.9889c-.009-.1621-.0438-.3544-.1794-.519c-.1356-.1646-.3684-.2648-.6364-.2648h-2.3813c-.3252,0-.5579,.0543-.7262,.1879c-.1682,.1336-.2255,.2975-.2819,.4101c-.178,.355-.5381,1.1135-.9397,1.8132c-.2008,.3499-.4125,.6836-.6087,.9376c-.1961,.254-.394,.4186-.4677,.4464c-.0372,.014-.0549,.007-.0491,.0107c.006,.004-.0384-.014-.0384-.2008c0-.6842 .0427-2.1627 .0427-2.9196c0-.4396-.2889-.7435-.5745-.8735c-.2856-.13-.5744-.1452-.7368-.1452c-.5623,0-1.2064-.004-1.9478-.004z"/>
<path opacity=".12" direction="ltr" block-progression="tb" color="#000000" d="m6.4005,3.592c-.35,0-.6623,.1335-.8885,.3011c-.1131,.0838-.205,.1764-.2712,.2777c-.0662,.1013-.1209,.2239-.0769,.3695c.0226,.0746 .0966,.143 .1559,.1666c.0593,.0236 .1043,.0244 .1452,.0256c.0818,.002 .1594-.003 .2563,0c.0665,.002 .1332,.0308 .2114,.1794c.0782,.1486 .1431,.4114 .1431,.7902c0,.6602 0,1.0085 0,1.7193c0,.2264-.0828,.3139-.1559,.346c-.0731,.032-.1705,.0231-.2712-.0854c-.1468-.1581-.9006-1.0214-1.8709-3.2442l-.002-.006l-.002-.006c-.1289-.2539-.3441-.3933-.5382-.4592c-.1941-.0659-.3743-.0684-.4677-.0684h-.0448c-.9257,.0001-.7229,.002-1.9243,.002c-.2005,0-.4048,.0247-.566,.1644c-.0806,.0698-.1408,.1754-.158,.2905c-.0173,.1151 .004,.2335 .0512,.3588c.2754,.7304 .9894,2.2317 1.8837,3.7055c.8943,1.4739 1.9452,2.9127 2.9836,3.5026c1.8153,1.0312 3.0338,.8415 3.7311,.8415c.1737,0 .341-.0286 .4848-.1217c.1439-.0931 .245-.2502 .2883-.4378c.0471-.2039 .0582-.4964 .094-.7795c.0358-.2831 .1261-.5496 .158-.5831c.0763-.0799 .2581-.0784 .3268-.0406c.1357,.0747 .4933,.4469 .8265,.8223c.3333,.3754 .6504,.7546 .9355,.9333c.1066,.0668 .2343,.1191 .3588,.1602c.1245,.041 .2256,.0705 .3417,.0705c.8517,0 1.7776,.009 2.5501,.009c.1512,0 .3459-.0356 .5254-.1559c.1795-.1203 .3301-.3518 .3161-.6471c-.013-.2736-.1697-.5291-.3759-.8116c-.2062-.2825-.4748-.583-.7518-.8778c-.554-.5896-1.1581-1.1832-1.3135-1.4288c-.013-.0206-.0379-.2295 .032-.3887c.0691-.1571 .2564-.4348 .4912-.7518c.2348-.3169 .5187-.6802 .7924-1.0486c.2737-.3684 .5363-.7409 .7326-1.085c.1962-.3441 .3369-.6527 .3204-.9525c-.009-.154-.0425-.3303-.1645-.4784c-.122-.1481-.3293-.2392-.5831-.2392h-2.3813c-.3176,0-.5319,.0548-.6834,.1751c-.1515,.1203-.2067,.2707-.2648,.3866c-.177,.3532-.5384,1.1124-.9419,1.8154c-.2017,.3515-.4137,.6881-.6129,.9461c-.1993,.2581-.3981,.4303-.4976,.4677c-.0514,.0193-.0927,.0166-.1111,.004c-.0184-.0124-.0683-.0588-.0683-.2584c0-.6869 .0427-2.1652 .0427-2.9196c0-.414-.2637-.6885-.5339-.8116c-.2703-.1231-.5524-.1388-.7091-.1388c-.5626,0-1.2067-.004-1.9478-.004z"/>
<path opacity=".2" direction="ltr" block-progression="tb" color="#000000" d="m6.4005,3.5236c-.3319,0-.6323,.1286-.8479,.2883c-.1078,.0799-.1939,.1684-.2542,.2606c-.0603,.0922-.1031,.1949-.0683,.3097c.0169,.0558 .0697,.1078 .1153,.126c.0457,.0182 .0842,.0181 .1217,.0192c.0751,.002 .1556-.003 .2563,0c.0939,.003 .1853,.0525 .2712,.2157c.086,.1632 .1495,.4361 .1495,.8223c0,.6603 0,1.0086 0,1.7193c0,.2457-.0951,.3635-.1965,.4079c-.1014,.0444-.2312,.0256-.3481-.1004c-.152-.1638-.9109-1.0368-1.8837-3.2655l-.002-.002l-.002-.004c-.1201-.2366-.3156-.3654-.4976-.4272c-.182-.0618-.3546-.0641-.4464-.0641h-.0299c-.951,0-.7285,.002-1.9393,.002c-.1922,0-.3817,.0265-.5211,.1474c-.0697,.0604-.1196,.15-.1346,.2499c-.015,.0999 .003,.2069 .047,.3246c.2725,.7226 .9853,2.2248 1.8773,3.6948c.892,1.47 1.9472,2.9037 2.9601,3.4791c1.8013,1.0232 2.9875,.8308 3.697,.8308c.1662,0 .3203-.026 .4485-.1089c.1281-.083 .218-.2221 .2584-.3972c.0439-.1901 .0578-.4868 .094-.7731c.0362-.2864 .1146-.5582 .1751-.6215c.1028-.1076 .3104-.1071 .4079-.0534c.1624,.0894 .5123,.4617 .8458,.8372c.3334,.3756 .6569,.7553 .9205,.9205c.0981,.0615 .223,.1118 .3438,.1516c.1208,.0398 .2239,.0683 .3204,.0683c.8521,0 1.7781,.009 2.5501,.009c.1383,0 .3228-.0331 .487-.1431c.1641-.11 .2992-.3135 .2862-.5873c-.0116-.2447-.16-.497-.3631-.7753c-.2031-.2783-.4692-.5775-.7454-.8714c-.5523-.5878-1.1534-1.173-1.322-1.4395c-.035-.0554-.0498-.2742 .0278-.4506c.0745-.1695 .262-.4487 .4976-.7667c.2356-.318 .5194-.6811 .7924-1.0486c.273-.3675 .5346-.7389 .7283-1.0785c.1937-.3396 .3268-.6425 .3118-.9141c-.008-.1459-.0411-.3062-.1495-.4378c-.1084-.1317-.2903-.2157-.5297-.2157h-2.3813c-.31,0-.5059,.0531-.6407,.1602c-.1348,.1071-.1859,.2439-.2456,.3631c-.1761,.3513-.5387,1.1136-.944,1.8197c-.2026,.353-.4148,.6904-.6172,.9525c-.2025,.2622-.4022,.4441-.5275,.4912c-.0656,.0247-.1326,.0243-.1751-.004c-.0425-.0286-.0982-.1014-.0982-.314c0-.6897 .0427-2.1678 .0427-2.9196c0-.3884-.2406-.6336-.4955-.7496c-.2549-.1161-.5283-.1324-.6792-.1324c-.563,0-1.2069-.004-1.9478-.004z"/>
<path opacity=".3" direction="ltr" block-progression="tb" color="#000000" d="m6.4005,3.4553c-.3138,0-.6024,.1236-.8073,.2755c-.1025,.0759-.1828,.1583-.2371,.2413c-.0543,.0831-.0873,.1702-.0619,.2541c.0112,.0371 .0448,.0684 .0769,.0812c.0321,.0128 .064,.014 .0982,.0149c.0684,.002 .1497-.003 .2542,0c.1212,.003 .2374,.0741 .331,.252c.0937,.1779 .1581,.4608 .1581,.8543c0,.6603 0,1.0086 0,1.7193c0,.2651-.1095,.413-.2392,.4699c-.1297,.0568-.2919,.0259-.425-.1175c-.1573-.1694-.9189-1.048-1.8944-3.2826l-.002-.002v-.002c-.1112-.2192-.2914-.3353-.4613-.393c-.1699-.0577-.3327-.0598-.4229-.0598h-.0149c-.9769,0-.734,.002-1.9542,.002c-.184,0-.3587,.0283-.4763,.1303c-.0588,.051-.1005,.1224-.1132,.2072c-.0127,.0848 .003,.1824 .0448,.2926c.2695,.7149 .9813,2.2159 1.8709,3.682c.8896,1.4661 1.9492,2.8947 2.9366,3.4556c1.7872,1.0152 2.9413,.8223 3.6628,.8223c.1586,0 .2997-.0254 .4122-.0982c.1125-.0728 .1909-.194 .2285-.3567c.0408-.1764 .0553-.475 .0918-.7646c.0366-.2896 .1032-.5668 .1922-.6599c.1293-.1353 .3671-.1357 .4934-.0662c.1891,.1041 .5293,.4764 .8628,.8522c.3336,.3757 .6612,.7559 .9034,.9077c.0897,.0562 .2139,.1066 .331,.1452c.1171,.0386 .2221,.0641 .299,.0641c.8526,0 1.7786,.009 2.5501,.009c.1254,0 .2997-.0327 .4485-.1324c.1488-.0998 .2683-.2753 .2563-.5275c-.0102-.2158-.1502-.4628-.3503-.7368c-.2-.2741-.4637-.572-.739-.865c-.5506-.586-1.1488-1.1628-1.3306-1.4502c-.057-.0901-.0637-.321 .0214-.5147c.0799-.1819 .2697-.4604 .5062-.7796c.2364-.3191 .52-.682 .7924-1.0487c.2723-.3666 .5328-.737 .724-1.0721c.1912-.3351 .3167-.6323 .3033-.8757c-.008-.1378-.0376-.2842-.1324-.3994c-.0949-.1152-.2533-.1901-.4784-.1901h-2.3813c-.3024,0-.4799,.0514-.598,.1452c-.1181,.0938-.165,.2171-.2264,.3396c-.1752,.3494-.539,1.1147-.9461,1.8239c-.2035,.3546-.418,.6948-.6236,.9611c-.2056,.2663-.4063,.4558-.5574,.5126c-.0798,.03-.1704,.0342-.2371-.0107c-.0667-.0448-.1281-.1462-.1281-.3716c0-.6924 .0427-2.1704 .0427-2.9196c0-.3628-.2153-.5786-.4549-.6877c-.2396-.1091-.5064-.126-.6514-.126c-.5633,0-1.2072-.004-1.9478-.004z"/>
<g transform="matrix(.06834 0 0 .06834 -21.18894 .23886)">
<path fill="#9a9a9a" d="m350.5392,52.5776c-14.6814,0-10.8297,.0212-28.8207,.0212c-5.1433,0-9.312,1.8775-7.048,7.9417c7.8021,20.8977 41.7584,88.8035 69.9071,104.9509c25.9449,14.8833 42.3836,12.0196 53.1161,12.0196c4.4192,0 7.3645-1.4831 8.3799-5.9208c1.1003-4.8087 .9949-17.8926 4.4343-21.5286c2.2793-2.4096 6.1333-2.423 8.403-1.1614c6.3141,3.5096 19.4577,21.9264 25.917,26.0144c2.379,1.5056 6.9885,2.9624 8.6666,2.9624c12.4817,0 26.0435,.1255 37.3248,.1255c3.2918,0 9.6181-1.8809 9.2981-8.6967c-.5184-11.0435-29.5318-35.4958-35.2384-44.6051c-1.1561-1.8455-1.1065-5.4544 .2496-8.5707c4.9968-11.4818 34.644-42.6124 33.9494-55.3293c-.2094-3.8338-1.7798-7.7514-7.9464-7.7514c-8.6898,0-24.894,0-34.8625,0c-8.6277,0-9.3258,2.9015-11.1702,6.617c-5.0984,10.2706-21.3052,45.2769-31.6582,49.2074c-2.7491,1.0437-6.6897,.4333-6.6897-6.6081c0-10.2721 .6133-32.0835 .6133-43.1161c0-9.9656-11.0893-11.0176-15.1622-11.0176c-8.2478,0-17.6766-.0631-28.509-.0631c-8.6542,0-16.1712,6.9407-15.2296,10.0831c.3244,1.0825 2.1924,.6014 5.3604,.6932c4.3492,.126 8.108,5.5213 8.108,17.3647c0,9.7565-.003,14.891-.003,25.3924c0,8.4046-7.0626,10.671-11.4316,5.9183c-2.3775-2.5863-13.6142-15.685-27.9252-48.7935c-2.9975-5.9651-9.44-6.1495-12.0329-6.1495z"/>
<path fill="#e5eaed" stroke="url(#linearGradient3134)" d="m350.5392,50.5335c-14.6814,0-10.8297,.0209-28.8207,.0209c-5.1433,0-9.312,1.8591-7.048,7.864c7.8021,20.6934 41.7584,87.9355 69.9071,103.9251c25.9449,14.7378 42.3836,11.9021 53.1161,11.9021c4.4192,0 7.3645-1.4686 8.3799-5.8629c1.1003-4.7617 .9949-17.7177 4.4343-21.3182c2.2793-2.386 6.1333-2.3994 8.403-1.1501c6.3141,3.4753 19.4577,21.7121 25.917,25.7601c2.379,1.4909 6.9885,2.9335 8.6666,2.9335c12.4817,0 26.0435,.1242 37.3248,.1242c3.2918,0 9.6181-1.8625 9.2981-8.6117c-.5184-10.9356-29.5318-35.1488-35.2384-44.1692c-1.1561-1.8275-1.1065-5.4011 .2496-8.4869c4.9968-11.3695 34.644-42.1959 33.9494-54.7885c-.2094-3.7963-1.7798-7.6756-7.9464-7.6756c-8.6898,0-24.894,0-34.8625,0c-8.6277,0-9.3258,2.8732-11.1702,6.5524c-5.0984,10.1702-21.3052,44.8343-31.6582,48.7264c-2.7491,1.0335-6.6897,.4291-6.6897-6.5435c0-10.1717 .6133-31.7699 .6133-42.6947c0-9.8682-11.0893-10.9099-15.1622-10.9099c-8.2478,0-17.6766-.0624-28.509-.0624c-8.6542,0-16.1712,6.8729-15.2296,9.9846c.3244,1.0719 2.1924,.5955 5.3604,.6864c4.3492,.1248 8.108,5.4673 8.108,17.1949c0,9.6612-.003,14.7455-.003,25.1442c0,8.3225-7.0626,10.5668-11.4316,5.8604c-2.3775-2.561-13.6142-15.5317-27.9252-48.3165c-2.9975-5.9068-9.44-6.0894-12.0329-6.0894z"/>
<path fill="url(#linearGradient3136)" d="m442.0146,91.6575c-12.346,.1571-24.4204,.8428-36.1635,2.0045v8.0182c0,5.2722-2.4855,9.6882-6.4227,11.4136c-3.9372,1.7254-8.7086,.491-11.8227-2.8636c-1.3044-1.4051-4.7145-5.3373-9.5318-12.8045c-12.8791,2.2115-25.2146,4.9633-36.859,8.3045c1.3497,2.3332 2.7175,4.6646 4.1318,6.9954c12.8484,21.1741 28.5461,41.6424 41.1544,48.8044c25.1374,14.279 39.7529,11.4136 51.1771,11.4136c1.7746,0 2.8412-.3222 3.3545-.6545c.5133-.3323 .8855-.689 1.2273-2.1682c.368-1.5927 .7036-6.2484 1.2682-10.7182c.5645-4.4697 .773-8.9203 4.1318-12.4363c3.8016-3.9796 9.2065-4.0423 13.1318-1.8818c4.6909,2.5818 9.0594,7.9913 13.95,13.5c4.8906,5.5086 10.1942,11.1441 12.1909,12.3954c.7053,.442 2.276,1.1186 3.7227,1.5954c1.4467,.4769 3.1091,.7364 2.8227,.7364c12.5078,0 26.0974,.1226 37.3499,.1226c.9052,0 2.7321-.3856 3.8045-1.1045c1.0724-.7189 1.6557-1.2609 1.5545-3.3954c-.0508-1.0716-1.4668-4.4334-4.1727-8.1409c-2.706-3.7074-6.4647-7.9279-10.4318-12.15c-7.9342-8.4442-16.3923-16.2584-20.0045-21.9681c-2.4199-3.8252-1.8322-8.1149-.0409-12.1909c1.5617-3.5535 4.4185-7.5652 7.9363-12.3136c1.2555-1.6947 2.6287-3.5434 4.0091-5.3591c-13.1322-2.1269-26.8073-3.6369-40.909-4.4591c-2.4258,4.0314-4.9334,7.8742-7.4454,11.1272c-3.2368,4.1915-6.2394,7.5518-10.3091,9.0818c-2.1891,.823-5.2205,1.1716-7.9363-.6545c-2.7158-1.8261-4.05-5.3466-4.05-9.5727c0-2.8452 .0553-6.5878 .1227-10.6772c-.314,.0039-.6272-.0039-.9409,0z"/>
</g>
</svg>
