<?xml version="1.0" encoding="UTF-8" standalone="no"?>
<!-- Created with Inkscape (http://www.inkscape.org/) -->

<svg
   xmlns:dc="http://purl.org/dc/elements/1.1/"
   xmlns:cc="http://creativecommons.org/ns#"
   xmlns:rdf="http://www.w3.org/1999/02/22-rdf-syntax-ns#"
   xmlns:svg="http://www.w3.org/2000/svg"
   xmlns="http://www.w3.org/2000/svg"
   xmlns:xlink="http://www.w3.org/1999/xlink"
   xmlns:sodipodi="http://sodipodi.sourceforge.net/DTD/sodipodi-0.dtd"
   xmlns:inkscape="http://www.inkscape.org/namespaces/inkscape"
   width="14"
   height="14"
   id="svg2"
   version="1.1"
   inkscape:version="0.48.4 r9939"
   sodipodi:docname="1.svg">
  <defs
     id="defs4">
    <linearGradient
       id="linearGradient3827">
      <stop
         style="stop-color:#dbdbdb;stop-opacity:1"
         offset="0"
         id="stop3829" />
      <stop
         style="stop-color:#f5f5f5;stop-opacity:1"
         offset="1"
         id="stop3831" />
    </linearGradient>
    <linearGradient
       id="linearGradient3290-7">
      <stop
         style="stop-color:#ba0000;stop-opacity:1;"
         offset="0"
         id="stop3292-2" />
      <stop
         style="stop-color:#ff331e;stop-opacity:1;"
         offset="1"
         id="stop3294-3" />
    </linearGradient>
    <linearGradient
       id="linearGradient3806">
      <stop
         id="stop3808"
         offset="0"
         style="stop-color:#fff6d5;stop-opacity:1;" />
      <stop
         id="stop3810"
         offset="1"
         style="stop-color:#fff6d5;stop-opacity:0;" />
    </linearGradient>
    <linearGradient
       inkscape:collect="always"
       xlink:href="#linearGradient3827"
       id="linearGradient3322"
       gradientUnits="userSpaceOnUse"
       x1="6"
       y1="10"
       x2="6"
       y2="2" />
    <linearGradient
       inkscape:collect="always"
       xlink:href="#linearGradient3290-7"
       id="linearGradient3324"
       gradientUnits="userSpaceOnUse"
       x1="7"
       y1="10"
       x2="7"
       y2="2" />
    <linearGradient
       inkscape:collect="always"
       xlink:href="#linearGradient3806"
       id="linearGradient3326"
       gradientUnits="userSpaceOnUse"
       x1="7"
       y1="2"
       x2="7"
       y2="10" />
  </defs>
  <sodipodi:namedview
     id="base"
     pagecolor="#ffffff"
     bordercolor="#666666"
     borderopacity="1.0"
     inkscape:pageopacity="0.0"
     inkscape:pageshadow="2"
     inkscape:zoom="45.071429"
     inkscape:cx="7"
     inkscape:cy="7"
     inkscape:document-units="px"
     inkscape:current-layer="layer1"
     showgrid="false"
     inkscape:window-width="1440"
     inkscape:window-height="848"
     inkscape:window-x="-8"
     inkscape:window-y="-8"
     inkscape:window-maximized="1">
    <inkscape:grid
       type="xygrid"
       id="grid2985"
       empspacing="5"
       visible="true"
       enabled="true"
       snapvisiblegridlinesonly="true" />
  </sodipodi:namedview>
  <metadata
     id="metadata7">
    <rdf:RDF>
      <cc:Work
         rdf:about="">
        <dc:format>image/svg+xml</dc:format>
        <dc:type
           rdf:resource="http://purl.org/dc/dcmitype/StillImage" />
        <dc:title />
      </cc:Work>
    </rdf:RDF>
  </metadata>
  <g
     inkscape:label="Layer 1"
     inkscape:groupmode="layer"
     id="layer1"
     transform="translate(0,-1038.3622)">
    <g
       id="g3306">
      <path
         sodipodi:type="arc"
         style="opacity:0.07999998;fill:#000000;fill-opacity:1;fill-rule:evenodd;stroke:none"
         id="path3308"
         sodipodi:cx="6"
         sodipodi:cy="6"
         sodipodi:rx="4"
         sodipodi:ry="4"
         d="M 10,6 C 10,8.209139 8.209139,10 6,10 3.790861,10 2,8.209139 2,6 2,3.790861 3.790861,2 6,2 c 2.209139,0 4,1.790861 4,4 z"
         transform="matrix(1.75,0,0,1.75,-3.5,1034.8622)" />
      <path
         transform="matrix(1.625,0,0,1.625,-2.75,1035.6122)"
         d="M 10,6 C 10,8.209139 8.209139,10 6,10 3.790861,10 2,8.209139 2,6 2,3.790861 3.790861,2 6,2 c 2.209139,0 4,1.790861 4,4 z"
         sodipodi:ry="4"
         sodipodi:rx="4"
         sodipodi:cy="6"
         sodipodi:cx="6"
         id="path3310"
         style="opacity:0.1;fill:#000000;fill-opacity:1;fill-rule:evenodd;stroke:none"
         sodipodi:type="arc" />
      <path
         transform="matrix(1.5,0,0,1.5,-2,1036.3622)"
         d="M 10,6 C 10,8.209139 8.209139,10 6,10 3.790861,10 2,8.209139 2,6 2,3.790861 3.790861,2 6,2 c 2.209139,0 4,1.790861 4,4 z"
         sodipodi:ry="4"
         sodipodi:rx="4"
         sodipodi:cy="6"
         sodipodi:cx="6"
         id="path3312"
         style="opacity:0.15;fill:#000000;fill-opacity:1;fill-rule:evenodd;stroke:none"
         sodipodi:type="arc" />
      <path
         sodipodi:type="arc"
         style="fill:url(#linearGradient3322);fill-opacity:1;fill-rule:evenodd;stroke:none"
         id="path3314"
         sodipodi:cx="6"
         sodipodi:cy="6"
         sodipodi:rx="4"
         sodipodi:ry="4"
         d="M 10,6 C 10,8.209139 8.209139,10 6,10 3.790861,10 2,8.209139 2,6 2,3.790861 3.790861,2 6,2 c 2.209139,0 4,1.790861 4,4 z"
         transform="matrix(1.5,0,0,1.5,-2,1035.3622)" />
      <path
         sodipodi:type="arc"
         style="fill:url(#linearGradient3324);fill-opacity:1;fill-rule:evenodd;stroke:#a00000;stroke-width:0.25;stroke-miterlimit:4;stroke-opacity:1;stroke-dasharray:none"
         id="path3316"
         sodipodi:cx="7"
         sodipodi:cy="6"
         sodipodi:rx="4"
         sodipodi:ry="4"
         d="M 11,6 C 11,8.209139 9.209139,10 7,10 4.790861,10 3,8.209139 3,6 3,3.790861 4.790861,2 7,2 c 2.209139,0 4,1.790861 4,4 z"
         transform="translate(0,1038.3622)" />
      <path
         style="opacity:0.5;fill:#ffffff;fill-opacity:1;fill-rule:evenodd;stroke:none"
         d="M 7,0 C 3.6862915,0 1,2.6862915 1,6 1,6.1244707 1.0237788,6.2524089 1.03125,6.375 1.33851,3.3494635 3.8933983,1 7,1 10.106602,1 12.66149,3.3494635 12.96875,6.375 12.976221,6.2524089 13,6.1244707 13,6 13,2.6862915 10.313708,0 7,0 z"
         transform="translate(0,1038.3622)"
         id="path3318"
         inkscape:connector-curvature="0" />
      <path
         style="opacity:0.5;fill:url(#linearGradient3326);fill-opacity:1;fill-rule:evenodd;stroke:none"
         d="M 7,2 C 4.790861,2 3,3.790861 3,6 3,6.1701198 3.0418868,6.3354679 3.0625,6.5 3.3095659,4.5279536 4.9609808,3 7,3 9.0390192,3 10.690434,4.5279536 10.9375,6.5 10.958113,6.3354679 11,6.1701198 11,6 11,3.790861 9.209139,2 7,2 z"
         transform="translate(0,1038.3622)"
         id="path3320"
         inkscape:connector-curvature="0" />
    </g>
  </g>
</svg>
