<?xml version="1.0" encoding="UTF-8" standalone="no"?>
<!-- Created with Inkscape (http://www.inkscape.org/) -->

<svg
   xmlns:dc="http://purl.org/dc/elements/1.1/"
   xmlns:cc="http://creativecommons.org/ns#"
   xmlns:rdf="http://www.w3.org/1999/02/22-rdf-syntax-ns#"
   xmlns:svg="http://www.w3.org/2000/svg"
   xmlns="http://www.w3.org/2000/svg"
   xmlns:xlink="http://www.w3.org/1999/xlink"
   xmlns:sodipodi="http://sodipodi.sourceforge.net/DTD/sodipodi-0.dtd"
   xmlns:inkscape="http://www.inkscape.org/namespaces/inkscape"
   width="14"
   height="14"
   id="svg2"
   version="1.1"
   inkscape:version="0.48.4 r9939"
   sodipodi:docname="2.svg">
  <defs
     id="defs4">
    <linearGradient
       id="linearGradient4148">
      <stop
         style="stop-color:#fffad5;stop-opacity:1;"
         offset="0"
         id="stop4150" />
      <stop
         style="stop-color:#fff6d5;stop-opacity:0;"
         offset="1"
         id="stop4152" />
    </linearGradient>
    <linearGradient
       id="linearGradient4108">
      <stop
         id="stop4110"
         offset="0"
         style="stop-color:#e66c00;stop-opacity:1;" />
      <stop
         id="stop4112"
         offset="1"
         style="stop-color:#ffe991;stop-opacity:1;" />
    </linearGradient>
    <linearGradient
       id="linearGradient3827">
      <stop
         style="stop-color:#dbdbdb;stop-opacity:1"
         offset="0"
         id="stop3829" />
      <stop
         style="stop-color:#f5f5f5;stop-opacity:1"
         offset="1"
         id="stop3831" />
    </linearGradient>
    <linearGradient
       inkscape:collect="always"
       xlink:href="#linearGradient3827"
       id="linearGradient3825"
       x1="6"
       y1="10"
       x2="6"
       y2="2"
       gradientUnits="userSpaceOnUse" />
    <linearGradient
       inkscape:collect="always"
       xlink:href="#linearGradient4108"
       id="linearGradient3895"
       x1="7"
       y1="10"
       x2="7"
       y2="2"
       gradientUnits="userSpaceOnUse" />
    <linearGradient
       inkscape:collect="always"
       xlink:href="#linearGradient4148"
       id="linearGradient3915"
       gradientUnits="userSpaceOnUse"
       x1="7"
       y1="2"
       x2="7"
       y2="10" />
  </defs>
  <sodipodi:namedview
     id="base"
     pagecolor="#ffffff"
     bordercolor="#666666"
     borderopacity="1.0"
     inkscape:pageopacity="0.0"
     inkscape:pageshadow="2"
     inkscape:zoom="45.071429"
     inkscape:cx="7"
     inkscape:cy="7"
     inkscape:document-units="px"
     inkscape:current-layer="layer1"
     showgrid="false"
     inkscape:window-width="1440"
     inkscape:window-height="848"
     inkscape:window-x="-8"
     inkscape:window-y="-8"
     inkscape:window-maximized="1">
    <inkscape:grid
       type="xygrid"
       id="grid2985"
       empspacing="5"
       visible="true"
       enabled="true"
       snapvisiblegridlinesonly="true" />
  </sodipodi:namedview>
  <metadata
     id="metadata7">
    <rdf:RDF>
      <cc:Work
         rdf:about="">
        <dc:format>image/svg+xml</dc:format>
        <dc:type
           rdf:resource="http://purl.org/dc/dcmitype/StillImage" />
        <dc:title />
      </cc:Work>
    </rdf:RDF>
  </metadata>
  <g
     inkscape:label="Layer 1"
     inkscape:groupmode="layer"
     id="layer1"
     transform="translate(0,-1038.3622)">
    <g
       id="g4745">
      <path
         transform="matrix(1.75,0,0,1.75,-3.5,1034.8622)"
         d="M 10,6 C 10,8.209139 8.209139,10 6,10 3.790861,10 2,8.209139 2,6 2,3.790861 3.790861,2 6,2 c 2.209139,0 4,1.790861 4,4 z"
         sodipodi:ry="4"
         sodipodi:rx="4"
         sodipodi:cy="6"
         sodipodi:cx="6"
         id="path3863"
         style="opacity:0.08;fill:#000000;fill-opacity:1;fill-rule:evenodd;stroke:none"
         sodipodi:type="arc" />
      <path
         sodipodi:type="arc"
         style="opacity:0.1;fill:#000000;fill-opacity:1;fill-rule:evenodd;stroke:none"
         id="path3865"
         sodipodi:cx="6"
         sodipodi:cy="6"
         sodipodi:rx="4"
         sodipodi:ry="4"
         d="M 10,6 C 10,8.209139 8.209139,10 6,10 3.790861,10 2,8.209139 2,6 2,3.790861 3.790861,2 6,2 c 2.209139,0 4,1.790861 4,4 z"
         transform="matrix(1.625,0,0,1.625,-2.75,1035.6122)" />
      <path
         sodipodi:type="arc"
         style="fill:#000000;fill-opacity:1;fill-rule:evenodd;stroke:none;opacity:0.15"
         id="path3846"
         sodipodi:cx="6"
         sodipodi:cy="6"
         sodipodi:rx="4"
         sodipodi:ry="4"
         d="M 10,6 C 10,8.209139 8.209139,10 6,10 3.790861,10 2,8.209139 2,6 2,3.790861 3.790861,2 6,2 c 2.209139,0 4,1.790861 4,4 z"
         transform="matrix(1.5,0,0,1.5,-2,1036.3622)" />
      <path
         transform="matrix(1.5,0,0,1.5,-2,1035.3622)"
         d="M 10,6 C 10,8.209139 8.209139,10 6,10 3.790861,10 2,8.209139 2,6 2,3.790861 3.790861,2 6,2 c 2.209139,0 4,1.790861 4,4 z"
         sodipodi:ry="4"
         sodipodi:rx="4"
         sodipodi:cy="6"
         sodipodi:cx="6"
         id="path2987"
         style="fill:url(#linearGradient3825);fill-opacity:1;fill-rule:evenodd;stroke:none"
         sodipodi:type="arc" />
      <path
         transform="translate(0,1038.3622)"
         d="M 11,6 C 11,8.209139 9.209139,10 7,10 4.790861,10 3,8.209139 3,6 3,3.790861 4.790861,2 7,2 c 2.209139,0 4,1.790861 4,4 z"
         sodipodi:ry="4"
         sodipodi:rx="4"
         sodipodi:cy="6"
         sodipodi:cx="7"
         id="path2989"
         style="fill:url(#linearGradient3895);fill-opacity:1.0;fill-rule:evenodd;stroke:#a07200;stroke-opacity:1;stroke-width:0.25000000000000000;stroke-miterlimit:4;stroke-dasharray:none"
         sodipodi:type="arc" />
      <path
         id="path3833"
         transform="translate(0,1038.3622)"
         d="M 7 0 C 3.6862915 6.6613381e-016 1 2.6862915 1 6 C 1 6.1244707 1.0237788 6.2524089 1.03125 6.375 C 1.33851 3.3494635 3.8933983 1 7 1 C 10.106602 1 12.66149 3.3494635 12.96875 6.375 C 12.976221 6.2524089 13 6.1244707 13 6 C 13 2.6862915 10.313708 -1.3238214e-015 7 0 z "
         style="fill:#ffffff;fill-opacity:1;fill-rule:evenodd;stroke:none;opacity:0.5" />
      <path
         id="path3906"
         transform="translate(0,1038.3622)"
         d="M 7 2 C 4.790861 2 3 3.790861 3 6 C 3 6.1701198 3.0418868 6.3354679 3.0625 6.5 C 3.3095659 4.5279536 4.9609808 3 7 3 C 9.0390192 3 10.690434 4.5279536 10.9375 6.5 C 10.958113 6.3354679 11 6.1701198 11 6 C 11 3.790861 9.209139 2 7 2 z "
         style="fill:url(#linearGradient3915);fill-opacity:1.0;fill-rule:evenodd;stroke:none;opacity:0.50000000000000000" />
    </g>
  </g>
</svg>
