<?xml version="1.0" encoding="UTF-8" standalone="no"?>
<!-- Created with Inkscape (http://www.inkscape.org/) -->

<svg
   xmlns:dc="http://purl.org/dc/elements/1.1/"
   xmlns:cc="http://creativecommons.org/ns#"
   xmlns:rdf="http://www.w3.org/1999/02/22-rdf-syntax-ns#"
   xmlns:svg="http://www.w3.org/2000/svg"
   xmlns="http://www.w3.org/2000/svg"
   xmlns:xlink="http://www.w3.org/1999/xlink"
   xmlns:sodipodi="http://sodipodi.sourceforge.net/DTD/sodipodi-0.dtd"
   xmlns:inkscape="http://www.inkscape.org/namespaces/inkscape"
   width="14"
   height="14"
   id="svg2"
   version="1.1"
   inkscape:version="0.48.4 r9939"
   sodipodi:docname="3.svg">
  <defs
     id="defs4">
    <linearGradient
       id="linearGradient4091">
      <stop
         style="stop-color:#d5fff6;stop-opacity:1;"
         offset="0"
         id="stop4093" />
      <stop
         style="stop-color:#fff6d5;stop-opacity:0;"
         offset="1"
         id="stop4095" />
    </linearGradient>
    <linearGradient
       id="linearGradient4085">
      <stop
         id="stop4087"
         offset="0"
         style="stop-color:#3b8c00;stop-opacity:1;" />
      <stop
         id="stop4089"
         offset="1"
         style="stop-color:#00ec16;stop-opacity:1;" />
    </linearGradient>
    <linearGradient
       id="linearGradient3827">
      <stop
         style="stop-color:#dbdbdb;stop-opacity:1"
         offset="0"
         id="stop3829" />
      <stop
         style="stop-color:#f5f5f5;stop-opacity:1"
         offset="1"
         id="stop3831" />
    </linearGradient>
    <linearGradient
       inkscape:collect="always"
       xlink:href="#linearGradient3827"
       id="linearGradient3931"
       gradientUnits="userSpaceOnUse"
       x1="6"
       y1="10"
       x2="6"
       y2="2" />
    <linearGradient
       inkscape:collect="always"
       xlink:href="#linearGradient4085"
       id="linearGradient3933"
       gradientUnits="userSpaceOnUse"
       x1="7"
       y1="10"
       x2="7"
       y2="2" />
    <linearGradient
       inkscape:collect="always"
       xlink:href="#linearGradient4091"
       id="linearGradient3935"
       gradientUnits="userSpaceOnUse"
       x1="7"
       y1="2"
       x2="7"
       y2="10"
       gradientTransform="translate(15,1038.3622)" />
  </defs>
  <sodipodi:namedview
     id="base"
     pagecolor="#ffffff"
     bordercolor="#666666"
     borderopacity="1.0"
     inkscape:pageopacity="0.0"
     inkscape:pageshadow="2"
     inkscape:zoom="5.6568543"
     inkscape:cx="2.1960732"
     inkscape:cy="50.116841"
     inkscape:document-units="px"
     inkscape:current-layer="layer1"
     showgrid="false"
     inkscape:window-width="1440"
     inkscape:window-height="848"
     inkscape:window-x="-8"
     inkscape:window-y="-8"
     inkscape:window-maximized="1">
    <inkscape:grid
       type="xygrid"
       id="grid2985"
       empspacing="5"
       visible="true"
       enabled="true"
       snapvisiblegridlinesonly="true" />
  </sodipodi:namedview>
  <metadata
     id="metadata7">
    <rdf:RDF>
      <cc:Work
         rdf:about="">
        <dc:format>image/svg+xml</dc:format>
        <dc:type
           rdf:resource="http://purl.org/dc/dcmitype/StillImage" />
        <dc:title />
      </cc:Work>
    </rdf:RDF>
  </metadata>
  <g
     inkscape:label="Layer 1"
     inkscape:groupmode="layer"
     id="layer1"
     transform="translate(0,-1038.3622)">
    <g
       id="g4754"
       transform="translate(-15,0)">
      <path
         sodipodi:type="arc"
         style="opacity:0.07999998;fill:#000000;fill-opacity:1;fill-rule:evenodd;stroke:none"
         id="path3917"
         sodipodi:cx="6"
         sodipodi:cy="6"
         sodipodi:rx="4"
         sodipodi:ry="4"
         d="M 10,6 C 10,8.209139 8.209139,10 6,10 3.790861,10 2,8.209139 2,6 2,3.790861 3.790861,2 6,2 c 2.209139,0 4,1.790861 4,4 z"
         transform="matrix(1.75,0,0,1.75,11.5,1034.8622)" />
      <path
         transform="matrix(1.625,0,0,1.625,12.25,1035.6122)"
         d="M 10,6 C 10,8.209139 8.209139,10 6,10 3.790861,10 2,8.209139 2,6 2,3.790861 3.790861,2 6,2 c 2.209139,0 4,1.790861 4,4 z"
         sodipodi:ry="4"
         sodipodi:rx="4"
         sodipodi:cy="6"
         sodipodi:cx="6"
         id="path3919"
         style="opacity:0.1;fill:#000000;fill-opacity:1;fill-rule:evenodd;stroke:none"
         sodipodi:type="arc" />
      <path
         transform="matrix(1.5,0,0,1.5,13,1036.3622)"
         d="M 10,6 C 10,8.209139 8.209139,10 6,10 3.790861,10 2,8.209139 2,6 2,3.790861 3.790861,2 6,2 c 2.209139,0 4,1.790861 4,4 z"
         sodipodi:ry="4"
         sodipodi:rx="4"
         sodipodi:cy="6"
         sodipodi:cx="6"
         id="path3921"
         style="opacity:0.15;fill:#000000;fill-opacity:1;fill-rule:evenodd;stroke:none"
         sodipodi:type="arc" />
      <path
         sodipodi:type="arc"
         style="fill:url(#linearGradient3931);fill-opacity:1;fill-rule:evenodd;stroke:none"
         id="path3923"
         sodipodi:cx="6"
         sodipodi:cy="6"
         sodipodi:rx="4"
         sodipodi:ry="4"
         d="M 10,6 C 10,8.209139 8.209139,10 6,10 3.790861,10 2,8.209139 2,6 2,3.790861 3.790861,2 6,2 c 2.209139,0 4,1.790861 4,4 z"
         transform="matrix(1.5,0,0,1.5,13,1035.3622)" />
      <path
         sodipodi:type="arc"
         style="fill:url(#linearGradient3933);fill-opacity:1;fill-rule:evenodd;stroke:#00a000;stroke-width:0.25;stroke-miterlimit:4;stroke-opacity:1;stroke-dasharray:none"
         id="path3925"
         sodipodi:cx="7"
         sodipodi:cy="6"
         sodipodi:rx="4"
         sodipodi:ry="4"
         d="M 11,6 C 11,8.209139 9.209139,10 7,10 4.790861,10 3,8.209139 3,6 3,3.790861 4.790861,2 7,2 c 2.209139,0 4,1.790861 4,4 z"
         transform="translate(15,1038.3622)" />
      <path
         inkscape:connector-curvature="0"
         style="opacity:0.5;fill:#ffffff;fill-opacity:1;fill-rule:evenodd;stroke:none"
         d="m 22,1038.3622 c -3.313708,0 -6,2.6863 -6,6 0,0.1245 0.02378,0.2524 0.03125,0.375 0.30726,-3.0255 2.862149,-5.375 5.96875,-5.375 3.106602,0 5.66149,2.3495 5.96875,5.375 0.0075,-0.1226 0.03125,-0.2505 0.03125,-0.375 0,-3.3137 -2.686292,-6 -6,-6 z"
         id="path3927" />
      <path
         inkscape:connector-curvature="0"
         style="opacity:0.5;fill:url(#linearGradient3935);fill-opacity:1;fill-rule:evenodd;stroke:none"
         d="m 22,1040.3622 c -2.209139,0 -4,1.7909 -4,4 0,0.1701 0.04189,0.3355 0.0625,0.5 0.247066,-1.972 1.898481,-3.5 3.9375,-3.5 2.039019,0 3.690434,1.528 3.9375,3.5 0.02061,-0.1645 0.0625,-0.3299 0.0625,-0.5 0,-2.2091 -1.790861,-4 -4,-4 z"
         id="path3929" />
    </g>
  </g>
</svg>
