<?xml version="1.0" encoding="UTF-8" standalone="no"?>
<!-- Created with Inkscape (http://www.inkscape.org/) -->

<svg
   xmlns:dc="http://purl.org/dc/elements/1.1/"
   xmlns:cc="http://creativecommons.org/ns#"
   xmlns:rdf="http://www.w3.org/1999/02/22-rdf-syntax-ns#"
   xmlns:svg="http://www.w3.org/2000/svg"
   xmlns="http://www.w3.org/2000/svg"
   xmlns:xlink="http://www.w3.org/1999/xlink"
   xmlns:sodipodi="http://sodipodi.sourceforge.net/DTD/sodipodi-0.dtd"
   xmlns:inkscape="http://www.inkscape.org/namespaces/inkscape"
   width="256"
   height="256"
   id="svg2"
   version="1.1"
   inkscape:version="0.48.3.1 r9886"
   sodipodi:docname="im-irc.svg">
  <defs
     id="defs4">
    <linearGradient
       inkscape:collect="always"
       xlink:href="#linearGradient4301"
       id="linearGradient4360"
       gradientUnits="userSpaceOnUse"
       gradientTransform="matrix(0.98503634,0,0,0.98503634,-0.82533935,3.1101031)"
       x1="-42.552094"
       y1="204.08661"
       x2="-1.3989427"
       y2="151.43561" />
    <linearGradient
       inkscape:collect="always"
       id="linearGradient4301">
      <stop
         style="stop-color:#9592e0;stop-opacity:1;"
         offset="0"
         id="stop4303" />
      <stop
         style="stop-color:#d4d3f0;stop-opacity:1"
         offset="1"
         id="stop4305" />
    </linearGradient>
  </defs>
  <sodipodi:namedview
     id="base"
     pagecolor="#ffffff"
     bordercolor="#666666"
     borderopacity="1.0"
     inkscape:pageopacity="0.0"
     inkscape:pageshadow="2"
     inkscape:zoom="0.98994949"
     inkscape:cx="195"
     inkscape:cy="140"
     inkscape:document-units="px"
     inkscape:current-layer="layer1"
     showgrid="false"
     inkscape:window-width="1440"
     inkscape:window-height="848"
     inkscape:window-x="-8"
     inkscape:window-y="-8"
     inkscape:window-maximized="1" />
  <metadata
     id="metadata7">
    <rdf:RDF>
      <cc:Work
         rdf:about="">
        <dc:format>image/svg+xml</dc:format>
        <dc:type
           rdf:resource="http://purl.org/dc/dcmitype/StillImage" />
        <dc:title />
      </cc:Work>
    </rdf:RDF>
  </metadata>
  <g
     inkscape:label="Layer 1"
     inkscape:groupmode="layer"
     id="layer1"
     transform="translate(0,-796.36215)">
    <g
       transform="matrix(3.5555556,0,0,4.295684,196.11111,159.53107)"
       id="g4309">
      <path
         style="fill:url(#linearGradient4360);fill-opacity:1;stroke:none"
         d="m -28.280662,150.72703 -2.205643,5.64302 -12.832835,-1.46089 -3.380078,15.32493 10.3121,1.17443 -3.637879,9.30954 -8.765284,-1.00257 -3.380078,15.32493 6.24455,0.71612 -3.781104,9.62462 15.869175,0 3.09363,-7.90594 9.366824,1.08849 -2.663959,6.81745 15.8691743,0 2.0051303,-5.09877 11.1714409,1.28902 3.3800769,-15.32493 -8.67935014,-1.00256 3.63787944,-9.25225 7.1038903,0.80206 3.380077,-15.32493 -4.6118001,-0.5156 4.0102611,-10.22617 -15.8691747,0 -3.3227876,8.47884 -9.3381787,-1.0885 2.893117,-7.39034 -15.869175,0 z m 7.075246,22.42882 9.366823,1.0885 -3.637879,9.28089 -9.366823,-1.0885 3.637879,-9.28089 z"
         id="rect4287"
         inkscape:connector-curvature="0" />
      <path
         style="font-size:medium;font-style:normal;font-variant:normal;font-weight:normal;font-stretch:normal;text-indent:0;text-align:start;text-decoration:none;line-height:normal;letter-spacing:normal;word-spacing:normal;text-transform:none;direction:ltr;block-progression:tb;writing-mode:lr-tb;text-anchor:start;baseline-shift:baseline;color:#000000;fill:#303030;fill-opacity:1;fill-rule:nonzero;stroke:none;stroke-width:5;marker:none;visibility:visible;display:inline;overflow:visible;enable-background:accumulate;font-family:Sans;-inkscape-font-specification:Sans"
         d="m -29.976259,148.24905 -0.584865,1.5699 -1.508337,3.87858 -10.958529,-1.23129 -2.216332,-0.24626 -0.492518,2.15477 -3.35528,15.32962 -0.615648,2.67807 2.739633,0.30783 7.110731,0.80034 -1.754596,4.55579 -6.895255,-0.76956 -2.216331,-0.24626 -0.461736,2.15477 -3.386063,15.32963 -0.584865,2.64728 2.70885,0.33861 3.047456,0.3386 -2.58572,6.649 -1.323643,3.35528 3.601539,0 15.883711,0 1.662249,0 0.615648,-1.5699 2.401026,-6.1257 4.309534,0.49252 -1.508337,3.8478 -1.29286,3.35528 3.601539,0 15.8529285,0 1.6930312,0 0.6156477,-1.5699 1.2928602,-3.3245 9.2962805,1.07738 2.2163317,0.24626 0.4925182,-2.18555 3.35528,-15.29884 0.584865,-2.67807 -2.7088496,-0.30782 -5.4792646,-0.64643 1.7853783,-4.49423 5.2022229,0.58486 2.216332,0.24626 0.461736,-2.15476 3.386062,-15.32963 0.584866,-2.67807 -2.70885,-0.30782 -1.41599,-0.15392 2.831979,-7.23386 1.323643,-3.38606 -3.632322,0 -15.8529281,0 -1.6930312,0 -0.6156477,1.5699 -2.6165028,6.71056 -4.2787512,-0.49252 1.723813,-4.40188 1.3236428,-3.38606 -3.6015388,0 -15.883711,0 -1.693032,0 z m 3.386063,4.92518 10.558358,0 -1.569902,4.0325 -1.16973,2.98589 3.170586,0.36939 9.3578448,1.07738 1.8777255,0.24626 0.6772125,-1.78538 2.70884992,-6.92604 10.58914068,0 -2.6780676,6.89526 -1.1697306,2.98589 3.1705857,0.33861 1.9085081,0.21547 -2.3394615,10.4968 -4.8943993,-0.55409 -1.8777255,-0.21547 -0.6772125,1.75459 -3.6323215,9.2655 -1.1697307,2.95511 3.17058573,0.36939 5.97178277,0.70799 -2.3086789,10.4968 -8.9576742,-1.04661 -1.8777255,-0.21547 -0.7079949,1.75459 -1.3852073,3.53998 -10.5891407,0 1.354425,-3.44763 1.169731,-2.98589 -3.170586,-0.36939 -9.388628,-1.07738 -1.877725,-0.21548 -0.677213,1.7546 -2.493373,6.34117 -10.589141,0 2.462591,-6.24883 1.169731,-2.98589 -3.170586,-0.36939 -3.539974,-0.40017 2.308679,-10.49679 6.556648,0.73878 1.908508,0.21547 0.677212,-1.75459 3.632322,-9.32707 1.16973,-2.9551 -3.170585,-0.36939 -7.60325,-0.86191 2.308679,-10.49679 10.619923,1.20051 1.908508,0.21548 0.677213,-1.7546 1.600684,-4.09406 z m 3.786233,17.33049 -0.707995,1.75459 -3.632321,9.2655 -1.169731,2.98589 3.201368,0.36939 9.357846,1.07738 1.877725,0.24626 0.707995,-1.78538 3.6323215,-9.26549 1.1697307,-2.98589 -3.2013682,-0.36939 -9.357845,-1.07739 -1.877726,-0.21547 z m 3.170586,5.32535 4.340316,0.49252 -1.785378,4.55579 -4.309534,-0.5233 1.754596,-4.52501 z"
         id="path4295"
         inkscape:connector-curvature="0" />
    </g>
  </g>
</svg>
