<?xml version="1.0" encoding="UTF-8" standalone="no"?>
<!-- Created with Inkscape (http://www.inkscape.org/) -->

<svg
   xmlns:dc="http://purl.org/dc/elements/1.1/"
   xmlns:cc="http://creativecommons.org/ns#"
   xmlns:rdf="http://www.w3.org/1999/02/22-rdf-syntax-ns#"
   xmlns:svg="http://www.w3.org/2000/svg"
   xmlns="http://www.w3.org/2000/svg"
   xmlns:xlink="http://www.w3.org/1999/xlink"
   xmlns:sodipodi="http://sodipodi.sourceforge.net/DTD/sodipodi-0.dtd"
   xmlns:inkscape="http://www.inkscape.org/namespaces/inkscape"
   width="256"
   height="256"
   id="svg2"
   version="1.1"
   inkscape:version="0.48.3.1 r9886"
   sodipodi:docname="im-mrim.svg">
  <defs
     id="defs4">
    <linearGradient
       id="linearGradient4264">
      <stop
         style="stop-color:#fc7800;stop-opacity:1;"
         offset="0"
         id="stop4266" />
      <stop
         style="stop-color:#ffee8c;stop-opacity:1;"
         offset="1"
         id="stop4268" />
    </linearGradient>
    <linearGradient
       y2="-8.9565659"
       x2="7.39891"
       y1="48.161785"
       x1="-27.941746"
       gradientTransform="matrix(0.95473993,0,0,0.95473991,-289.72004,-256.18667)"
       gradientUnits="userSpaceOnUse"
       id="linearGradient4550"
       xlink:href="#linearGradient4264"
       inkscape:collect="always" />
  </defs>
  <sodipodi:namedview
     id="base"
     pagecolor="#ffffff"
     bordercolor="#666666"
     borderopacity="1.0"
     inkscape:pageopacity="0.0"
     inkscape:pageshadow="2"
     inkscape:zoom="0.98994949"
     inkscape:cx="-7.0305097"
     inkscape:cy="140"
     inkscape:document-units="px"
     inkscape:current-layer="layer1"
     showgrid="false"
     inkscape:window-width="1440"
     inkscape:window-height="848"
     inkscape:window-x="-8"
     inkscape:window-y="-8"
     inkscape:window-maximized="1" />
  <metadata
     id="metadata7">
    <rdf:RDF>
      <cc:Work
         rdf:about="">
        <dc:format>image/svg+xml</dc:format>
        <dc:type
           rdf:resource="http://purl.org/dc/dcmitype/StillImage" />
        <dc:title />
      </cc:Work>
    </rdf:RDF>
  </metadata>
  <g
     inkscape:label="Layer 1"
     inkscape:groupmode="layer"
     id="layer1"
     transform="translate(0,-796.36215)">
    <g
       id="g4362"
       transform="matrix(3.7135086,0,0,3.5555556,1263.7298,1772.2529)">
      <path
         inkscape:connector-curvature="0"
         id="text4272"
         d="m -305.24364,-274.46928 c -4.62428,6e-5 -9.04659,0.74684 -13.25,2.25 -4.23225,1.51357 -8.00204,3.82174 -11.25,6.84375 -3.28037,3.05224 -5.87543,6.84673 -7.75,11.3125 -1.90806,4.54558 -2.81251,9.75587 -2.8125,15.59375 -10e-6,6.025 0.92667,11.3666 2.875,15.96875 1.91394,4.52099 4.5687,8.34591 7.9375,11.34375 3.33398,2.96687 7.21695,5.1704 11.625,6.59375 4.36377,1.40905 8.99484,2.09374 13.84375,2.09375 2.77496,-1e-5 5.37958,-0.17996 7.8125,-0.5625 2.37939,-0.37416 4.28075,-0.8132 5.8125,-1.375 l 1.875,-0.6875 -0.25,-1.96875 -0.90625,-6.875 -0.34375,-2.625 -2.59375,0.5 c -1.19572,0.23071 -2.73619,0.50586 -4.59375,0.84375 -1.63331,0.29708 -3.93769,0.46875 -6.8125,0.46875 -3.51254,0 -6.63292,-0.50579 -9.4375,-1.5 -2.79606,-0.99118 -5.17109,-2.4459 -7.1875,-4.375 -1.99207,-1.90577 -3.55495,-4.3057 -4.71875,-7.28125 -1.14033,-2.91546 -1.75001,-6.41984 -1.75,-10.5625 -10e-6,-3.9457 0.57489,-7.33806 1.65625,-10.25 1.09902,-2.95953 2.56944,-5.37922 4.46875,-7.34375 1.91354,-1.97922 4.16868,-3.48848 6.84375,-4.5625 2.6593,-1.06763 5.60806,-1.62496 8.90625,-1.625 3.28232,4e-5 6.15589,0.55486 8.6875,1.59375 2.01534,0.82712 3.69368,1.9214 5.1875,3.1875 -1.50004,-0.46809 -3.06259,-0.91679 -5,-1.28125 -2.41019,-0.45329 -4.98891,-0.65621 -7.71875,-0.65625 -3.12177,4e-5 -6.03712,0.51641 -8.65625,1.625 -2.56504,1.08575 -4.80569,2.61997 -6.625,4.5625 -1.80599,1.92833 -3.16903,4.18543 -4.0625,6.71875 -0.88351,2.50502 -1.31252,5.18861 -1.3125,7.96875 -2e-5,3.21215 0.43882,6.11881 1.40625,8.71875 0.95094,2.55578 2.34791,4.81663 4.15625,6.65625 1.79672,1.82788 3.9473,3.20329 6.375,4.125 2.42119,0.91928 5.067,1.375 7.875,1.375 1.87845,0 3.77173,-0.2734 5.625,-0.78125 0.96061,-0.26324 1.79238,-0.53995 2.5625,-0.875 0.57002,0.39251 1.1985,0.71015 1.875,1 1.58454,0.67897 3.38274,0.96875 5.375,0.96875 2.54509,0 5.00875,-0.58299 7.28125,-1.71875 2.30706,-1.15309 4.28119,-2.88674 5.875,-5.0625 1.5846,-2.16336 2.78498,-4.73034 3.65625,-7.65625 0.88906,-2.98612 1.31243,-6.33261 1.3125,-10.03125 -7e-5,-4.94563 -0.8956,-9.48869 -2.71875,-13.5625 -1.79326,-4.00661 -4.25822,-7.4818 -7.375,-10.34375 -3.10785,-2.85353 -6.74874,-5.04462 -10.84375,-6.53125 -4.08662,-1.48343 -8.41819,-2.21869 -12.9375,-2.21875 z m 0,5 c 3.97738,5e-5 7.72411,0.65761 11.25,1.9375 3.5173,1.2769 6.54009,3.09792 9.15625,5.5 2.60699,2.39384 4.65128,5.25518 6.1875,8.6875 1.50606,3.36528 2.28119,7.1825 2.28125,11.53125 -7e-5,3.31637 -0.37345,6.2057 -1.09375,8.625 -0.73836,2.47958 -1.71967,4.50503 -2.90625,6.125 -1.17762,1.6076 -2.52457,2.74696 -4.09375,3.53125 -1.60397,0.80164 -3.22875,1.1875 -5.03125,1.1875 -1.5169,0 -2.65467,-0.24045 -3.40625,-0.5625 -0.91189,-0.3907 -1.3396,-0.77071 -1.4375,-0.90625 l -1.5,-2.0625 -2.03125,1.5 c -0.32103,0.2391 -1.2954,0.71782 -2.78125,1.125 -1.44306,0.39544 -2.85881,0.59375 -4.28125,0.59375 -2.28383,0 -4.29657,-0.3489 -6.09375,-1.03125 -1.79079,-0.6799 -3.29605,-1.64855 -4.59375,-2.96875 -1.28617,-1.30842 -2.29706,-2.93302 -3.03125,-4.90625 -0.71778,-1.92902 -1.09377,-4.22838 -1.09375,-6.96875 -2e-5,-2.26112 0.34463,-4.33447 1.03125,-6.28125 0.67658,-1.91836 1.66419,-3.5737 3,-5 1.3224,-1.41196 2.95142,-2.50307 4.9375,-3.34375 1.93186,-0.81769 4.13102,-1.24996 6.6875,-1.25 2.45958,4e-5 4.71596,0.17408 6.78125,0.5625 1.4667,0.27591 2.51487,0.59225 3.625,0.90625 l 0,21.84375 c -6e-5,1.69596 0.007,3.10208 1.21875,4.53125 0.8298,0.97938 2.22768,1.62502 3.5,1.625 1.69901,2e-5 3.34462,-0.72332 4.59375,-1.875 1.18559,-1.0932 2.11318,-2.50175 2.8125,-4.125 0.69209,-1.60675 1.17175,-3.41055 1.5,-5.40625 0.32359,-1.96814 0.49993,-3.9226 0.5,-5.90625 -7e-5,-3.38151 -0.61146,-6.62503 -1.8125,-9.65625 -1.19744,-3.02173 -2.92958,-5.71958 -5.15625,-8 -2.24628,-2.30029 -4.97583,-4.08254 -8.125,-5.375 -3.20341,-1.31457 -6.7603,-1.9687 -10.59375,-1.96875 -3.85557,5e-5 -7.449,0.6435 -10.75,1.96875 -3.28534,1.31904 -6.19116,3.2337 -8.59375,5.71875 -2.4169,2.4999 -4.2544,5.57121 -5.5625,9.09375 -1.32583,3.57027 -1.96876,7.57508 -1.96875,12 -10e-6,4.62845 0.67714,8.78443 2.09375,12.40625 1.39308,3.56178 3.34881,6.61585 5.90625,9.0625 2.53302,2.42334 5.55691,4.25928 8.96875,5.46875 3.40321,1.20643 7.12436,1.78125 11.125,1.78125 3.06497,0 5.62537,-0.18174 7.71875,-0.5625 0.80891,-0.14714 1.31269,-0.24746 2,-0.375 l 0.28125,2.03125 c -0.91426,0.23215 -1.63361,0.47755 -2.96875,0.6875 -2.13872,0.33628 -4.48123,0.49999 -7.03125,0.5 -4.36992,-1e-5 -8.43836,-0.60289 -12.28125,-1.84375 -3.79871,-1.22659 -7.06737,-3.09527 -9.875,-5.59375 -2.77287,-2.46753 -4.99179,-5.59959 -6.65625,-9.53125 -1.6301,-3.85047 -2.46876,-8.5233 -2.46875,-14.03125 -10e-6,-5.3135 0.80524,-9.84214 2.40625,-13.65625 1.63447,-3.89378 3.83677,-7.05758 6.5625,-9.59375 2.75808,-2.56621 5.90827,-4.48557 9.53125,-5.78125 3.65172,-1.30587 7.47555,-1.9687 11.5625,-1.96875 z m 16.5625,14.8125 c 1.06575,1.38991 2.00929,2.88229 2.6875,4.59375 0.96324,2.43106 1.43745,5.0146 1.4375,7.8125 -6e-5,1.71148 -0.15746,3.42175 -0.4375,5.125 -0.27563,1.67577 -0.66143,3.06999 -1.15625,4.21875 -0.48782,1.13233 -1.04069,1.92754 -1.59375,2.4375 -0.32497,0.29961 -0.55777,0.28347 -0.8125,0.34375 -0.0524,-0.24985 -0.12502,-0.5046 -0.125,-0.96875 l 0,-23.5625 z m -13.59375,1.84375 0,0.8125 c -0.43073,-0.0192 -0.82569,-0.0625 -1.28125,-0.0625 -3.82975,4e-5 -7.22669,1.33059 -9.375,4.03125 -2.03374,2.5566 -3.00003,5.84768 -3,9.5 -3e-5,3.82253 0.87454,7.1453 2.90625,9.65625 2.01259,2.48745 5.03629,3.84376 8.3125,3.84375 1.19051,1e-5 2.38653,-0.0972 3.5625,-0.34375 1.10558,-0.2318 1.97083,-0.47882 2.78125,-0.84375 l 2.3125,-1.03125 -1.0625,-2.28125 c 0.0831,0.18211 -0.0204,-0.11959 -0.0625,-0.65625 -0.0488,-0.62171 -0.0938,-1.23188 -0.0937,-1.8125 l 0,-17.03125 c 0.008,-0.0346 0.0312,-0.12497 0.0312,-0.125 1e-5,-1.7e-4 -0.0624,-0.78107 -0.0625,-0.78125 -5e-5,-1.8e-4 -0.2499,-0.59356 -0.25,-0.59375 -2.1e-4,-3.8e-4 -0.46831,-0.59333 -0.46875,-0.59375 -4.4e-4,-4.1e-4 -0.22577,-0.22319 -0.3125,-0.28125 -0.0867,-0.0581 -0.16092,-0.094 -0.21875,-0.125 -0.23131,-0.12385 -0.32992,-0.13043 -0.40625,-0.15625 l -3.3125,-1.125 z m -1.28125,5.75 c 0.48066,2e-5 0.85597,0.0384 1.28125,0.0625 l 0,15 c -4e-5,0.56427 0.0263,1.13805 0.0625,1.71875 -0.83611,0.17316 -1.66734,0.25001 -2.5,0.25 -2.05524,1e-5 -3.25823,-0.58111 -4.40625,-2 -1.12902,-1.39533 -1.81253,-3.4431 -1.8125,-6.5 -3e-5,-2.8077 0.66575,-4.81557 1.90625,-6.375 1.1258,-1.41525 2.67441,-2.15622 5.46875,-2.15625 z"
         style="font-size:77.48305511px;font-style:normal;font-variant:normal;font-weight:bold;font-stretch:normal;text-indent:0;text-align:start;text-decoration:none;line-height:125%;letter-spacing:0px;word-spacing:0px;text-transform:none;direction:ltr;block-progression:tb;writing-mode:lr-tb;text-anchor:start;baseline-shift:baseline;color:#000000;fill:#303030;fill-opacity:1;stroke:none;stroke-width:4.99919367;marker:none;visibility:visible;display:inline;overflow:visible;enable-background:accumulate;font-family:Ubuntu;-inkscape-font-specification:Ubuntu Bold" />
      <text
         transform="scale(1.0047116,0.9953105)"
         sodipodi:linespacing="125%"
         id="text4260"
         y="-218.39673"
         x="-340.80832"
         style="font-size:76.73238373px;font-style:normal;font-variant:normal;font-weight:normal;font-stretch:normal;line-height:125%;letter-spacing:0px;word-spacing:0px;fill:url(#linearGradient4550);fill-opacity:1;stroke:none;font-family:Ubuntu;-inkscape-font-specification:Ubuntu"
         xml:space="preserve"><tspan
           style="font-weight:normal;fill:url(#linearGradient4550);fill-opacity:1;stroke:none;-inkscape-font-specification:Ubuntu"
           y="-218.39673"
           x="-340.80832"
           id="tspan4262"
           sodipodi:role="line">@</tspan></text>
    </g>
  </g>
</svg>
