/* XPM */
static char * D:\Hobby\QutIM\artwork\icons\qutim\pixmaps\qutim_xpm[] = {
"32 32 445 2",
"  	c None",
". 	c #C9C9C9",
"+ 	c #E9E9E9",
"@ 	c #F2F2F2",
"# 	c #F1F1F1",
"$ 	c #BDBDBD",
"% 	c #66C8EC",
"& 	c #50BAE9",
"* 	c #D1D1D1",
"= 	c #EBEBEB",
"- 	c #EFEFEF",
"; 	c #ECECEC",
"> 	c #E1E1E1",
", 	c #5DACCA",
"' 	c #4EC2EC",
") 	c #50C1ED",
"! 	c #3EB8EF",
"~ 	c #4EB6E7",
"{ 	c #D7D7D7",
"] 	c #EAEAEA",
"^ 	c #CFD2D5",
"/ 	c #C8CFD6",
"( 	c #CCE2EA",
"_ 	c #A5D5E8",
": 	c #6FC3E3",
"< 	c #4DC5F3",
"[ 	c #3CC1F3",
"} 	c #38BEF2",
"| 	c #618CA2",
"1 	c #29AFEE",
"2 	c #47B3E5",
"3 	c #DADADA",
"4 	c #EDEDED",
"5 	c #E7E7E7",
"6 	c #E6E6E6",
"7 	c #BFC6CA",
"8 	c #8EA7B9",
"9 	c #88C0DB",
"0 	c #7ACFF2",
"a 	c #65CEF6",
"b 	c #56C9F5",
"c 	c #48C4F4",
"d 	c #39C0F3",
"e 	c #46C0F2",
"f 	c #5993B0",
"g 	c #20A8EB",
"h 	c #3FABE6",
"i 	c #DFDFDF",
"j 	c #E3E3E3",
"k 	c #CEE0EB",
"l 	c #E0E1E2",
"m 	c #B4BBC2",
"n 	c #8DA5B9",
"o 	c #91B7D0",
"p 	c #84CAE6",
"q 	c #71D2F6",
"r 	c #62CDF6",
"s 	c #53C8F5",
"t 	c #45C3F4",
"u 	c #66C1E7",
"v 	c #71B1CE",
"w 	c #5A8FAF",
"x 	c #1FA4EA",
"y 	c #3AA8E5",
"z 	c #C5C5C5",
"A 	c #E2E2E2",
"B 	c #BCBDBD",
"C 	c #A9BDCA",
"D 	c #A9D3E7",
"E 	c #A4C5E0",
"F 	c #92B3C9",
"G 	c #82CFEE",
"H 	c #6ED1F6",
"I 	c #5FCCF5",
"J 	c #51C7F5",
"K 	c #42C3F4",
"L 	c #7EC0DA",
"M 	c #D3D9DB",
"N 	c #6BB6D5",
"O 	c #33B1E8",
"P 	c #39B4EE",
"Q 	c #408EB9",
"R 	c #1D9FE8",
"S 	c #34A3E5",
"T 	c #CBCBCB",
"U 	c #E4E4E4",
"V 	c #E5E5E5",
"W 	c #E0E0E0",
"X 	c #D1D2D3",
"Y 	c #A7B1B9",
"Z 	c #9CB2C2",
"` 	c #8BA4B5",
" .	c #96DEF9",
"..	c #A3C1D8",
"+.	c #80B6CE",
"@.	c #6BD0F6",
"#.	c #5CCBF5",
"$.	c #4EC6F4",
"%.	c #3FC2F3",
"&.	c #61BFE9",
"*.	c #8192A0",
"=.	c #5EAFD0",
"-.	c #24B1EF",
";.	c #23ADED",
">.	c #2A404C",
",.	c #269FE3",
"'.	c #1B9BE6",
").	c #35A0E3",
"!.	c #DEDEDE",
"~.	c #C7C9CA",
"{.	c #A7B0B7",
"].	c #ADBFCF",
"^.	c #C1D9EC",
"/.	c #B5CEE2",
"(.	c #90BCD0",
"_.	c #86D8F8",
":.	c #8EA9BC",
"<.	c #76C4E4",
"[.	c #5ACAF5",
"}.	c #4BC5F4",
"|.	c #2EBCF2",
"1.	c #6CB9E0",
"2.	c #5893B1",
"3.	c #23B0EE",
"4.	c #22ADED",
"5.	c #25AAEC",
"6.	c #3D6B82",
"7.	c #329AD4",
"8.	c #1B9AE6",
"9.	c #1996E5",
"0.	c #349DE2",
"a.	c #CDCDCD",
"b.	c #DCDCDC",
"c.	c #DBDBDB",
"d.	c #BEBFC1",
"e.	c #ABB3BA",
"f.	c #BDCDD8",
"g.	c #CDE1F0",
"h.	c #CCE1F2",
"i.	c #C7DFF1",
"j.	c #9CB8C9",
"k.	c #85D7F7",
"l.	c #74D3F7",
"m.	c #80B7CF",
"n.	c #5BC8F3",
"o.	c #48C5F4",
"p.	c #2BBBF2",
"q.	c #26B7F1",
"r.	c #30B5ED",
"s.	c #2FB0E9",
"t.	c #22ACED",
"u.	c #1DA1E9",
"v.	c #1C9DE7",
"w.	c #1B99E6",
"x.	c #1995E4",
"y.	c #1892E3",
"z.	c #469EDF",
"A.	c #D9D9D9",
"B.	c #BDBEBF",
"C.	c #B3B9BD",
"D.	c #CFD9E1",
"E.	c #DBE9F3",
"F.	c #D7E7F4",
"G.	c #D3E5F3",
"H.	c #CEE2F2",
"I.	c #B8CDDE",
"J.	c #8BC5DE",
"K.	c #63CDF6",
"L.	c #54C8F5",
"M.	c #45C4F4",
"N.	c #37BFF3",
"O.	c #28BAF2",
"P.	c #24B3EF",
"Q.	c #23AFEE",
"R.	c #21ABED",
"S.	c #20A7EB",
"T.	c #1DA0E8",
"U.	c #1C9CE7",
"V.	c #1A98E6",
"W.	c #1791E3",
"X.	c #47A3E5",
"Y.	c #BCBCBC",
"Z.	c #D5D5D5",
"`.	c #D4D8DB",
" +	c #E8F0F6",
".+	c #E3EDF5",
"++	c #DEEBF5",
"@+	c #DAE8F4",
"#+	c #D5E6F3",
"$+	c #D0E3F3",
"%+	c #9CB4C4",
"&+	c #6FD1F6",
"*+	c #60CCF5",
"=+	c #51C8F5",
"-+	c #34BEF3",
";+	c #27BAF2",
">+	c #25B6F0",
",+	c #24B2EF",
"'+	c #23AEEE",
")+	c #21ABEC",
"!+	c #1EA3E9",
"~+	c #1B9BE7",
"{+	c #1A98E5",
"]+	c #1994E4",
"^+	c #339CE6",
"/+	c #5AA8E2",
"(+	c #737373",
"_+	c #DBDDDF",
":+	c #EAF1F6",
"<+	c #E5EEF5",
"[+	c #E1ECF5",
"}+	c #DCE9F4",
"|+	c #CADDEA",
"1+	c #84B9D0",
"2+	c #5DCBF5",
"3+	c #4EC7F4",
"4+	c #40C2F4",
"5+	c #31BDF3",
"6+	c #27B9F2",
"7+	c #25B5F0",
"8+	c #22AEED",
"9+	c #21AAEC",
"0+	c #1FA6EB",
"a+	c #1EA2E9",
"b+	c #1D9EE8",
"c+	c #1A97E5",
"d+	c #1993E4",
"e+	c #63A5D3",
"f+	c #3492DD",
"g+	c #C1C1C1",
"h+	c #D2D2D2",
"i+	c #D1D1D2",
"j+	c #EBF1F5",
"k+	c #DEEBF4",
"l+	c #D9E8F4",
"m+	c #B6C6D1",
"n+	c #76C1E0",
"o+	c #4BC6F4",
"p+	c #3DC1F3",
"q+	c #2FBCF2",
"r+	c #26B8F1",
"s+	c #25B4F0",
"t+	c #23B1EF",
"u+	c #21A9EC",
"v+	c #1FA5EA",
"w+	c #1C9EE8",
"x+	c #69ACDB",
"y+	c #B6B6B6",
"z+	c #253F53",
"A+	c #218ADD",
"B+	c #4495D9",
"C+	c #808080",
"D+	c #D0D0D0",
"E+	c #D3D3D3",
"F+	c #DDE0E3",
"G+	c #E0ECF5",
"H+	c #DBE9F4",
"I+	c #A8B6BF",
"J+	c #6AC7ED",
"K+	c #3AC0F3",
"L+	c #1995E5",
"M+	c #168EE2",
"N+	c #509FD9",
"O+	c #738DA2",
"P+	c #2E89D2",
"Q+	c #117FDC",
"R+	c #C4C4C4",
"S+	c #CECECE",
"T+	c #CECFCF",
"U+	c #ECF2F6",
"V+	c #E7EFF6",
"W+	c #E2EDF5",
"X+	c #DDEAF4",
"Y+	c #A8B4BD",
"Z+	c #67BFE6",
"`+	c #1A99E6",
" @	c #168DE1",
".@	c #1589E0",
"+@	c #1386DF",
"@@	c #1282DD",
"#@	c #107EDC",
"$@	c #2181D8",
"%@	c #8D8D8D",
"&@	c #CFCFCF",
"*@	c #E1E5E8",
"=@	c #E9F0F6",
"-@	c #E4EEF5",
";@	c #B5C1CA",
">@	c #6EB9DB",
",@	c #1EA3EA",
"'@	c #1790E3",
")@	c #168CE1",
"!@	c #1489E0",
"~@	c #1385DE",
"{@	c #1181DD",
"]@	c #107DDC",
"^@	c #0F7ADA",
"/@	c #428ACE",
"(@	c #CDCECF",
"_@	c #EBF2F6",
":@	c #D1DDE6",
"<@	c #7FA7BB",
"[@	c #26B1EF",
"}@	c #1893E4",
"|@	c #1790E2",
"1@	c #158CE1",
"2@	c #1488E0",
"3@	c #1384DE",
"4@	c #1180DD",
"5@	c #107DDB",
"6@	c #0E79DA",
"7@	c #2B84D9",
"8@	c #A7B5C2",
"9@	c #959595",
"0@	c #C7C7C7",
"a@	c #CCCCCD",
"b@	c #E5EAEE",
"c@	c #DAE5EF",
"d@	c #69AAC8",
"e@	c #1A96E5",
"f@	c #178FE2",
"g@	c #158BE1",
"h@	c #1487DF",
"i@	c #1283DE",
"j@	c #1180DC",
"k@	c #2586DD",
"l@	c #4795DA",
"m@	c #5B97D0",
"n@	c #B6C0CB",
"o@	c #CCCCCC",
"p@	c #C3C3C3",
"q@	c #CECFD0",
"r@	c #EBF1F6",
"s@	c #E6EFF6",
"t@	c #ABC0CD",
"u@	c #31ACE7",
"v@	c #1EA1E9",
"w@	c #158AE0",
"x@	c #609DD2",
"y@	c #8DB5D5",
"z@	c #95C3E9",
"A@	c #83ADD0",
"B@	c #C2C2C3",
"C@	c #B1B1B1",
"D@	c #9D9D9D",
"E@	c #C2C2C2",
"F@	c #C8C8C8",
"G@	c #E7ECF1",
"H@	c #DEE6EC",
"I@	c #75B0CF",
"J@	c #22A9EB",
"K@	c #1891E3",
"L@	c #168DE2",
"M@	c #0F7ADB",
"N@	c #8BB9DF",
"O@	c #8CBBDF",
"P@	c #7CAFDF",
"Q@	c #A7BFD2",
"R@	c #C0C0C0",
"S@	c #D0D3D4",
"T@	c #9BA8B2",
"U@	c #71B2D9",
"V@	c #20A0E8",
"W@	c #1281DD",
"X@	c #0D76D9",
"Y@	c #207BD5",
"Z@	c #3686D8",
"`@	c #B7C7D6",
" #	c #CACACA",
".#	c #AEAEAE",
"+#	c #A4A4A4",
"@#	c #BEBEBE",
"##	c #C4C5C5",
"$#	c #EAEFF3",
"%#	c #E7EFF5",
"&#	c #8AA7B7",
"*#	c #219EE8",
"=#	c #157ADB",
"-#	c #3889D9",
";#	c #73A3D3",
">#	c #B8C2CC",
",#	c #AFB1B2",
"'#	c #747474",
")#	c #646464",
"!#	c #BBBBBB",
"~#	c #D3D6D8",
"{#	c #93A3AD",
"]#	c #4FA9E2",
"^#	c #1893E3",
"/#	c #1284DE",
"(#	c #107CDB",
"_#	c #207FD9",
":#	c #719DC8",
"<#	c #A9B9C8",
"[#	c #C1C2C2",
"}#	c #A3A5A7",
"|#	c #626262",
"1#	c #A9A9A9",
"2#	c #B9B9B9",
"3#	c #D1D8DE",
"4#	c #7F9FB6",
"5#	c #40A0E3",
"6#	c #167FDC",
"7#	c #5D9AD3",
"8#	c #B7C4D1",
"9#	c #B8B8B8",
"0#	c #97989B",
"a#	c #4D4D4D",
"b#	c #707070",
"c#	c #B7B7B7",
"d#	c #D9DCDE",
"e#	c #C8D0D6",
"f#	c #809FB5",
"g#	c #2992E3",
"h#	c #1F85DC",
"i#	c #619ACF",
"j#	c #ABBECD",
"k#	c #B3B4B4",
"l#	c #8A8B8B",
"m#	c #ABABAB",
"n#	c #B4B4B4",
"o#	c #C0C1C2",
"p#	c #BAC3CA",
"q#	c #8BA3B6",
"r#	c #82A9CA",
"s#	c #B1BEC8",
"t#	c #ADADAE",
"u#	c #797B7B",
"v#	c #787878",
"w#	c #B2B2B2",
"x#	c #B9B9BA",
"y#	c #D4D6D8",
"z#	c #D3D5D7",
"A#	c #CBCCCD",
"B#	c #A5A5A6",
"C#	c #69696B",
"D#	c #AFAFAF",
"E#	c #9A9B9B",
"F#	c #565656",
"G#	c #818181",
"H#	c #ADADAD",
"I#	c #8F9090",
"J#	c #434343",
"K#	c #878787",
"L#	c #7A7A7A",
"                                                                ",
"                                    . + @ # $         %       & ",
"                                * = - ; ; ; >     , ' )     ! ~ ",
"                            { ; ; ] ] ^ / ( _ : < [ }     | 1 2 ",
"                        3 4 + 5 6 7 8 9 0 a b c d e       f g h ",
"                    i ; j k l m n o p q r s t u v         w x y ",
"              z A + j j B C D E F G H I J K L M N O P     Q R S ",
"          T U V W W X Y Z `  ...+.@.#.$.%.&.*.=.-.;.    >.,.'.).",
"      * U > !.!.~.{.].^./.(._.:.<.[.}.[ |.1.2.3.4.5.  6.7.8.9.0.",
"  a.V !.b.c.d.e.f.g.h.i.j.k.l.m.n.o.d p.q.r.s.t.g x u.v.w.x.y.z.",
"  b.A.A.B.C.D.E.F.G.H.I.J.q K.L.M.N.O.q.P.Q.R.S.x T.U.V.x.W.X.  ",
"  Y.{ Z.`. +.+++@+#+$+%+&+*+=+K -+;+>+,+'+)+S.!+R ~+{+]+^+/+    ",
"  (+Z.Z._+:+<+[+}+F.|+1+2+3+4+5+6+7+-.8+9+0+a+b+'.c+d+e+    f+  ",
"    g+h+i+j+ +.+k+l+m+n+o+p+q+r+s+t+4.u+v+a+w+8.9.y.x+y+z+A+B+  ",
"    C+D+E+F+:+<+G+H+I+J+K+p.q.s+3.t.g x u.v.w.L+y.M+N+O+P+Q+    ",
"      R+S+T+U+V+W+X+Y+Z+O.q.P.Q.R.g x T.U.`+x.W. @.@+@@@#@$@    ",
"      %@T &@*@=@-@G+;@>@>+,+'+)+S.,@R ~+{+]+'@)@!@~@{@]@^@/@    ",
"        z . (@_@V+W+:@<@[@8+9+0+a+R ~+c+}@|@1@2@3@4@5@6@7@8@    ",
"        9@0@a@b@=@-@c@d@4.u+v+a+w+8.e@y.f@g@h@i@j@k@l@m@n@o@    ",
"          p@R+q@r@s@t@u@g v+v@v.w.9.y.M+w@h@i@Q+x@y@z@A@B@R+C@  ",
"          D@E@F@G@H@I@J@x T.U.`+x.K@L@.@+@@@#@M@N@O@P@Q@E@E@F@  ",
"            R@g+S@G@T@U@V@U.{+]+'@ @!@~@W@#@^@X@Y@Z@`@ #R@R@.#  ",
"            +#@###$#%#&#*#c+}@|@)@2@3@4@5@6@=#-#;#>#@#@#,#'#    ",
"            )#!#$ ~#:+{#]#^#f@g@h@/#4@(#_#:#<#[#!#!#}#|#        ",
"              1#2#[#j+3#4#5#w@h@i@Q+6#7#8#$ 2#9#0#a#            ",
"              b#c#Y.d#:+e#f#g#@@h#i#j#2#c#k#l#                  ",
"                m#n#o#U+V+p#q#r#s#n#n#t#u#                      ",
"                v#w#x#y#z#A#$ w#w#B#C#                          ",
"                  m#D#2#y+D#D#E#F#                              ",
"                  G#H#H#H#I#J#                                  ",
"                    K#L#                                        ",
"                                                                "};
