<svg xmlns="http://www.w3.org/2000/svg" viewBox="0 0 16 16">
<defs>
<linearGradient id="linearGradient3827">
<stop offset="0" stop-color="#dbdbdb"/>
<stop offset="1" stop-color="#f5f5f5"/>
</linearGradient>
<linearGradient xlink:href="#linearGradient3827" id="linearGradient3879" y1="14" y2="10" x2="0" gradientUnits="userSpaceOnUse"/>
<linearGradient xlink:href="#linearGradient3981" id="linearGradient3819" y1="1" y2="12" x2="0" gradientUnits="userSpaceOnUse"/>
<linearGradient id="linearGradient3981">
<stop offset="0" stop-color="#d5ebff"/>
<stop offset="1" stop-color="#fff6d5" stop-opacity="0"/>
</linearGradient>
<linearGradient id="linearGradient4414">
<stop offset="0" stop-color="#0069c8"/>
<stop offset="1" stop-color="#55c4ff"/>
</linearGradient>
<linearGradient gradientTransform="matrix(.98765 0 0 .98765 .09877 1036.4745)" xlink:href="#linearGradient4414" id="linearGradient3806" y1="9" y2="1" x2="0" gradientUnits="userSpaceOnUse"/>
</defs>
<g transform="translate(0 -1036.3622)">
<path opacity=".3" fill-rule="evenodd" d="m8.0062,1038.1435c-2.8597,0-5.7244,1.0993-7.9062,3.2812l1,1c3.8183-3.8183 9.9942-3.8183 13.8125,0l1-1c-2.1819-2.1819-5.0466-3.2812-7.9062-3.2812zm0,2.7812c-2.1448,0-4.3011,.8324-5.9375,2.4688l1,1c2.7273-2.7273 7.1477-2.7273 9.875,0l1-1c-1.6364-1.6364-3.7927-2.4688-5.9375-2.4688zm0,2.8125c-1.4298,0-2.8466,.5341-3.9375,1.625l.9688,1c1.6364-1.6364 4.3011-1.6364 5.9375,0l.9688-1c-1.0909-1.091-2.5077-1.625-3.9375-1.625zm0,2.625c-1.6569,0-3,1.3432-3,3c0,1.6569 1.3431,3 3,3c1.6569,0 3-1.3431 3-3c0-1.6568-1.3431-3-3-3z"/>
<path fill="url(#linearGradient3879)" fill-rule="evenodd" stroke="#979797" stroke-width=".2" d="m11,12c0,1.6569-1.3431,3-3,3c-1.6569,0-3-1.3431-3-3c0-1.6569 1.3431-3 3-3c1.6569,0 3,1.3431 3,3z" transform="translate(0 1036.3622)"/>
<path fill="url(#linearGradient3806)" fill-rule="evenodd" stroke="#0038a0" stroke-width=".198" d="m8,1037.1536c-2.8597,0-5.7194,1.0897-7.9012,3.2716l.9877,.9876c3.8183-3.8183 10.0089-3.8183 13.8272,0l.9877-.9876c-2.1819-2.1819-5.0416-3.2716-7.9012-3.2716zm0,2.7777c-2.1448,0-4.2895,.8328-5.9259,2.4692l.9877,.9876c2.7273-2.7273 7.1492-2.7273 9.8765,0l.9877-.9876c-1.6364-1.6364-3.7812-2.4692-5.9259-2.4692zm0,2.8087c-1.4298,0-2.8597,.5449-3.9506,1.6358l.9877,.9876c1.6364-1.6364 4.2895-1.6364 5.9259,0l.9877-.9876c-1.0909-1.091-2.5208-1.6358-3.9506-1.6358z"/>
<path opacity=".5" fill="url(#linearGradient3819)" fill-rule="evenodd" d="m8,.7812c-2.8597,0-5.7244,1.0994-7.9062,3.2812l.25,.25c2.1494-2.0271 4.8998-3.0625 7.6562-3.0625c2.7565,0 5.5068,1.0354 7.6562,3.0625l.25-.25c-2.1819-2.1819-5.0466-3.2812-7.9062-3.2812zm0,2.7812c-2.1448,0-4.3011,.8323-5.9375,2.4688l.25,.25c1.6032-1.4842 3.6458-2.25 5.6875-2.25c2.0417,0 4.0843,.7658 5.6875,2.25l.25-.25c-1.6364-1.6364-3.7927-2.4688-5.9375-2.4688zm0,2.8125c-1.4298,0-2.8466,.5341-3.9375,1.625l.25,.25c1.0543-.9332 2.365-1.4062 3.6875-1.4062c1.3225,0 2.6332,.473 3.6875,1.4062l.25-.25c-1.0909-1.091-2.5077-1.625-3.9375-1.625z" transform="translate(0 1036.3622)"/>
</g>
</svg>
