<?xml version="1.0" standalone="no"?>
<!DOCTYPE svg PUBLIC "-//W3C//DTD SVG 20010904//EN" "http://www.w3.org/TR/2001/REC-SVG-20010904/DTD/svg10.dtd">
<!-- Created using Karbon, part of Calligra: http://www.calligra-suite.org/karbon -->
<svg xmlns="http://www.w3.org/2000/svg" xmlns:xlink="http://www.w3.org/1999/xlink" width="800pt" height="800pt">
<defs/>
<g id="g4183">
  <g id="g10105" transform="" fill="none">
   <g id="g10130" transform="" fill="none">
    <g id="g31" transform="" fill="none"/>
   </g>
  </g>
 </g><g id="layer1">
  <g id="g4992" transform="translate(31, -160.54)" fill="none">
   <g id="g4953" transform="translate(1.02585e-12, -3.73035e-12)" fill="none">
    <path id="path7595" transform="matrix(42.4559 0 0 63.8595 1.37668e-13 160.54)" fill="#4d5454" d="M14.5205 0.000432609C14.2901 0.0048886 14.0656 0.0611444 13.8548 0.128838L1.02584 4.23779C0.1669 4.51368 -0.241618 5.25685 0.148382 5.86426L5.98799 14.9382C6.3777 15.5452 7.42913 15.8131 8.28753 15.5374L21.1165 11.4071C21.9747 11.1314 22.3536 10.4092 21.9637 9.80201L16.1544 0.72806C15.8621 0.272853 15.1983 -0.012671 14.5205 0.000432609ZM14.5507 0.685259C14.8482 0.679508 15.1458 0.801989 15.2769 1.00627L21.0863 10.0802C21.2612 10.3526 21.1083 10.6627 20.7232 10.7864L7.89419 14.9168C7.50909 15.0405 7.04034 14.911 6.86545 14.6386L1.05609 5.56464C0.88121 5.29227 1.03407 4.98211 1.41918 4.85842L14.2482 0.72806C14.3444 0.697137 14.4516 0.687176 14.5507 0.685259ZM13.8548 2.11911C13.7755 2.12065 13.6898 2.13718 13.6128 2.16191L3.35563 5.45764C3.04755 5.5566 2.91315 5.79616 3.05306 6.01406L7.71265 13.2903C7.85255 13.5082 8.22151 13.6033 8.52959 13.5043L18.7867 10.2086C19.0948 10.1097 19.2292 9.8487 19.0893 9.6308L14.4297 2.37592C14.3248 2.2125 14.0928 2.11451 13.8548 2.11911ZM13.6733 2.88954L18.0303 9.6736L8.43882 12.7767L4.0818 5.97126Z"/>
   </g>
   <path id="path7597" transform="matrix(42.4559 0 0 63.8595 41.5474 204.543)" fill="#ffffff" d="M13.5696 0.000200001C13.4705 0.00210971 13.3702 0.0183345 13.2739 0.0492583L0.448495 4.16838C0.0633941 4.29208 -0.105981 4.61137 0.0689031 4.88374L5.8933 13.9547C6.06818 14.227 6.51897 14.3468 6.90407 14.2231L19.7295 10.1036C20.1146 9.97987 20.2839 9.66102 20.1091 9.38865L14.2847 0.317296C14.1535 0.113014 13.8671 -0.00555077 13.5696 0.000200001ZM12.8735 1.42735C13.1115 1.42275 13.3405 1.51769 13.4454 1.68112L18.1052 8.9382C18.2451 9.15611 18.1093 9.411 17.8012 9.50996L7.54093 12.8058C7.23285 12.9047 6.87247 12.8087 6.73256 12.5908L2.07279 5.33374C1.93289 5.11584 2.06869 4.86095 2.37672 4.76199L12.637 1.46616C12.7141 1.44142 12.7942 1.42889 12.8735 1.42735Z"/>
  </g>
 </g>
</svg>
