<?xml version="1.0" standalone="no"?>
<!DOCTYPE svg PUBLIC "-//W3C//DTD SVG 20010904//EN" "http://www.w3.org/TR/2001/REC-SVG-20010904/DTD/svg10.dtd">
<!-- Created using Karbon, part of Calligra: http://www.calligra-suite.org/karbon -->
<svg xmlns="http://www.w3.org/2000/svg" xmlns:xlink="http://www.w3.org/1999/xlink" width="800pt" height="800pt">
<defs>
  <radialGradient id="gradient0" gradientTransform="matrix(0.746901 0 0 1.19167 -7.6104 -0.853635)" gradientUnits="objectBoundingBox" cx="1.58083943308" cy="0.45752316964" fx="1.58083943308" fy="0.45752316964" r="0.40372668214" spreadMethod="pad">
   <stop stop-color="#e7e7e7" offset="0.00000000000" stop-opacity="1.00000000000"/>
   <stop stop-color="#858585" offset="1.00000000000" stop-opacity="1.00000000000"/>
  </radialGradient>
 </defs>
<g id="g4183">
  <g id="g10105" transform="" fill="none">
   <g id="g10130" transform="" fill="none">
    <g id="g31" transform="" fill="none"/>
   </g>
  </g>
 </g><g id="layer1">
  <g id="g4948" transform="translate(31, -252.072)" fill="none">
   <path id="path7702" transform="matrix(42.4559 0 0 63.8595 3.55271e-14 252.072)" fill="#4d5454" d="M10.6641 0.00238533C10.6317 0.00800607 10.6 0.015038 10.5691 0.0234352C10.3469 0.0593395 10.1608 0.159846 10.0625 0.297085C9.99152 0.399249 10.0394 0.508825 9.99914 0.612834C9.79639 1.1365 9.8558 1.68281 9.99914 2.21263L7.21288 3.07568L7.14955 3.07568C7.10546 3.08707 7.06306 3.10116 7.0229 3.11778L1.00711 4.92808C0.148126 5.18741 -0.237788 5.89375 0.152233 6.46472L5.97806 14.99C6.36779 15.5605 7.43095 15.8175 8.2894 15.5583L21.1126 11.6641C21.9707 11.405 22.3573 10.7402 21.9674 10.1695L16.1416 1.62323C15.8493 1.19533 15.2047 0.937316 14.5268 0.949633C14.2964 0.953825 14.041 1.0123 13.8303 1.07593L12.2472 1.53903C11.886 1.08337 11.5602 0.67657 11.4873 0.423384C11.4224 0.160837 11.0624 -0.0232763 10.6641 0.00238533ZM10.7274 0.507584C10.8717 1.00882 11.4445 1.66413 11.9939 2.31788L12.7221 2.10738C12.7155 2.09889 12.6976 2.09495 12.6904 2.08633L14.2419 1.62323C14.3382 1.59416 14.4277 1.60398 14.5268 1.60218C14.6012 1.60083 14.6777 1.61054 14.7485 1.62323C14.8204 1.6356 14.8742 1.64016 14.9385 1.66533C15.0748 1.71641 15.1852 1.79453 15.2551 1.89688L21.0809 10.4221C21.1684 10.5501 21.1812 10.6795 21.1126 10.801C21.0782 10.8619 21.0216 10.9208 20.9543 10.9694C20.887 11.0179 20.7972 11.0666 20.701 11.0957L15.6034 12.6324L11.9939 13.727L7.87779 14.9689C7.78151 14.998 7.69199 15.0092 7.59284 15.011C7.47894 15.013 7.37892 14.9989 7.27621 14.9689C7.09351 14.9233 6.95205 14.8443 6.86461 14.7163L1.03877 6.19107C1.03457 6.18492 1.04256 6.17622 1.03877 6.17002C0.995047 6.10601 0.978116 6.04467 0.975446 5.98057C0.972766 5.91461 0.972826 5.85191 1.00711 5.79112C1.04146 5.73282 1.09808 5.66935 1.16542 5.62272C1.23272 5.57424 1.32243 5.54654 1.41871 5.51747L6.83293 3.87558L7.5295 3.66508C7.5338 3.66852 7.55651 3.6613 7.56116 3.66508L8.22607 3.45458L10.1891 2.86518L10.9174 2.65468C10.6715 1.84559 10.369 1.02369 10.7274 0.507584ZM13.8303 2.94938C13.7509 2.95082 13.6857 2.94717 13.6086 2.97043L13.4187 3.03358L12.7221 3.24408C13.0749 3.72689 13.3301 4.18642 13.292 4.54918C13.1576 5.83001 11.9233 6.88227 11.5189 7.89612C11.1339 8.86153 12.1157 9.82719 13.3553 9.39067C14.3314 9.04694 13.2923 7.59453 14.0202 6.44367C14.6522 5.44445 14.8588 5.28618 15.635 4.92808L15.3184 4.48603L14.4002 3.18093C14.3739 3.14252 14.3451 3.10558 14.3052 3.07568C14.2952 3.0682 14.2842 3.06154 14.2735 3.05463C14.2441 3.03881 14.2118 3.02464 14.1785 3.01253C14.071 2.9733 13.9492 2.94722 13.8303 2.94938ZM11.139 3.70718L10.3791 3.93873C10.3791 3.94479 10.3791 3.9538 10.3791 3.95978L9.11261 4.33868L8.41605 4.54918C8.65058 4.85578 8.83429 5.1902 8.82765 5.49642C8.79544 6.9831 10.0088 6.75073 11.0757 4.44393C11.1738 4.23165 11.163 3.97135 11.139 3.70718ZM14.0202 4.19133L14.5268 4.90703C14.1103 5.18707 13.7785 5.5127 13.3553 6.17002C13.6593 5.68143 13.9885 5.17415 14.0519 4.57023C14.0654 4.44174 14.0425 4.31683 14.0202 4.19133ZM7.97278 4.67548L7.27621 4.88598C7.27668 4.89339 7.27588 4.89963 7.27621 4.90703L3.35011 6.08582C3.27308 6.10908 3.21519 6.1343 3.16013 6.17002C3.10626 6.20877 3.06097 6.24776 3.03349 6.29632C2.98529 6.3815 2.98684 6.47859 3.03349 6.56997C3.03748 6.57673 3.02888 6.58426 3.03349 6.59102C3.03728 6.59738 3.02915 6.60577 3.03349 6.61207L4.96488 9.41171L4.96488 9.43276L5.85141 10.7379C5.76908 10.5325 5.72255 10.3147 5.6931 10.0853C5.53135 8.82485 6.50255 8.12676 7.14956 7.22252C7.95191 6.10118 8.0599 5.2742 7.97278 4.67547ZM10.0941 4.75968C9.92658 5.05782 9.73638 5.32827 9.58754 5.51747C9.59194 5.31411 9.53689 5.11073 9.4609 4.92808ZM15.73 5.07543C15.1473 5.85989 14.8062 6.96869 15.1601 7.49617C15.5645 8.099 16.9999 8.64339 16.8382 10.2327C16.8023 10.5849 16.6304 10.9418 16.3632 11.2641L18.7696 10.5274C18.8466 10.5041 18.9057 10.4819 18.9595 10.4432C19.0134 10.4044 19.0587 10.3654 19.0862 10.3169C19.1411 10.2197 19.1561 10.1035 19.0862 10.0011ZM7.18122 5.64377C7.07108 6.02946 6.83722 6.47504 6.45299 7.01202C6.14046 7.44881 5.68432 7.9003 5.34482 8.44342L4.07834 6.56997ZM13.2287 6.52787C12.9631 7.15156 12.9637 7.78627 13.0071 8.25397C13.0323 8.52611 13.0363 8.74435 13.0071 8.86442C12.9778 8.98449 13.0037 8.9498 13.0071 8.94862C12.8384 9.008 12.7642 9.00347 12.6904 8.99072C12.6166 8.97796 12.5321 8.92571 12.4371 8.84337C12.2472 8.67869 12.1129 8.3379 12.2472 8.00137C12.4166 7.57647 12.8397 7.09634 13.2287 6.52788ZM15.7933 6.75942L16.6165 7.98032C16.2568 7.64107 15.9055 7.40575 15.825 7.28567C15.7831 7.22325 15.7712 7.01674 15.7933 6.75942ZM17.5031 9.28542L18.0097 10.0432L17.5981 10.1695C17.6174 9.84218 17.5897 9.55258 17.5031 9.28542ZM6.54798 11.7483L7.33953 12.9271C7.35145 12.9327 7.35921 12.9425 7.37119 12.9481L7.68782 13.4323C7.75778 13.5347 7.89 13.6062 8.0361 13.6428C8.1822 13.6793 8.35699 13.6893 8.51103 13.6428L8.9543 13.5165L10.0625 13.1797C8.64616 13.0111 7.36032 12.5425 6.54798 11.7483Z"/>
   <path id="path7704" transform="matrix(62.5 0 0 94.0087 41.2179 284.777)" fill="#ffffff" d="M6.64198 0C6.39797 0.351352 6.56851 0.903533 6.73573 1.45432L4.48573 2.13992C4.56358 2.20314 4.68453 2.33776 4.82948 2.49312C4.65551 2.31302 4.55582 2.23762 4.48573 2.18148C4.4796 2.17656 4.4903 2.14353 4.48573 2.13992C4.4841 2.13863 4.4559 2.14104 4.45448 2.13992L0.298229 3.40726C0.0366185 3.48624 -0.0705754 3.69041 0.0482289 3.86433L4.01698 9.64005C4.13578 9.81397 4.44287 9.90602 4.70448 9.82703L13.392 7.18848C13.6536 7.1095 13.792 6.90534 13.6732 6.73141L9.70448 0.934919C9.61538 0.804476 9.40655 0.744263 9.20448 0.747935C9.13712 0.749151 9.08238 0.748965 9.01698 0.768711L7.48573 1.22578C7.11344 0.782803 6.73979 0.339666 6.64198 0ZM8.73573 1.6413C8.89738 1.63836 9.03945 1.70315 9.11073 1.80751L9.95448 2.99174C9.4257 3.23563 9.29052 3.351 8.86073 4.03054C8.36628 4.81231 9.08629 5.79154 8.42323 6.02503C7.58115 6.32156 6.8804 5.66281 7.14198 5.00701C7.41667 4.31831 8.26945 3.61249 8.36073 2.74243C8.38664 2.49549 8.22623 2.17781 7.98573 1.84906L8.57948 1.66208C8.6318 1.64628 8.68184 1.64228 8.73573 1.6413ZM6.82948 1.74518C6.86605 1.88529 6.87896 2.03012 6.89198 2.1607C6.91043 2.34565 6.9292 2.51127 6.86073 2.65932C6.136 4.22632 5.3076 4.39638 5.32948 3.38648C5.33403 3.17651 5.20973 2.95226 5.04823 2.74243L6.89198 2.1607C6.87997 2.02875 6.8624 1.88694 6.82948 1.74518ZM4.76698 2.82553C4.82617 3.23225 4.74951 3.80899 4.20448 4.57071C3.76497 5.18496 3.0946 5.64665 3.20448 6.50288C3.22424 6.6569 3.24335 6.80111 3.29823 6.93917L1.39198 4.13442C1.29694 3.99528 1.40144 3.84441 1.61073 3.78123ZM10.017 3.13717L12.2982 6.44055C12.3933 6.57969 12.2888 6.73055 12.0795 6.79374L10.4857 7.29236C10.4609 7.32307 10.4195 7.34535 10.392 7.37547C10.616 7.13291 10.7708 6.87665 10.7982 6.60676C10.9081 5.52717 9.91668 5.16719 9.64198 4.7577C9.40474 4.40404 9.63024 3.66879 10.017 3.13717ZM3.79823 7.62478C4.34282 8.15722 5.1947 8.48262 6.14198 8.60125L5.11073 8.91289C4.90144 8.97608 4.64327 8.90664 4.54823 8.76746ZM9.98573 7.72866C9.83328 7.83962 9.66953 7.94499 9.48573 8.0403C9.666 7.94607 9.83583 7.83809 9.98573 7.72866Z"/>
   <path id="path7708" transform="matrix(42.4559 0 0 63.8595 239.904 284.249)" fill="url(#gradient0)" opacity="0.32300882000" d="M5.10286 0C4.45585 0.931645 5.90792 2.85707 5.41211 3.92912C4.34522 6.23592 3.14648 6.48945 3.1787 5.00277C3.19716 4.15068 1.76993 3.06106 1.76993 3.06106C1.76993 3.06106 3.29732 4.19726 1.49505 6.71605C0.848032 7.62029 -0.144195 8.31105 0.01756 9.57151C0.284632 11.6526 2.84625 12.7468 5.51519 12.7468C8.18412 12.7468 11.0229 11.3207 11.1846 9.73142C11.3464 8.14214 9.90535 7.593 9.50097 6.99017C9.09658 6.38734 9.63208 5.01617 10.36 4.24893C9.22769 4.76955 9.09497 4.78851 8.36708 5.93936C7.63919 7.09022 8.69034 8.54247 7.71424 8.8862C6.4746 9.32273 5.47372 8.34393 5.85879 7.37852C6.26317 6.36467 7.51114 5.32417 7.64552 4.04334C7.75741 2.97687 5.42637 1.12345 5.10286 0ZM6.47727 3.92912C6.47795 3.93707 6.54663 3.96866 6.54599 3.9748C6.54119 4.02081 6.48634 4.066 6.47727 4.11187C6.50757 4.04318 6.45632 3.99721 6.47727 3.92912ZM6.40855 4.24893C6.16104 5.15611 5.24967 6.0524 4.79362 7.19577C4.51673 7.88998 4.70725 8.56992 5.30903 9.09179C5.60991 9.35273 6.0446 9.59309 6.58035 9.68573C7.11611 9.77837 7.7153 9.70694 8.22964 9.52582C8.83164 9.31383 9.14712 8.89095 9.22608 8.56639C9.27319 8.37275 9.23398 8.2146 9.22608 8.04098C9.73242 8.46644 10.2067 8.82817 10.1194 9.68573C10.0662 10.2085 9.52057 10.8255 8.64196 11.2848C7.76336 11.7441 6.55534 12.0158 5.51519 12.0158C3.29961 12.0158 1.33628 11.211 1.11709 9.50298C0.989867 8.51164 1.71943 8.06685 2.45713 7.03586C2.63553 6.78653 2.67587 6.60366 2.80073 6.37339C2.94908 6.46801 3.05115 6.57827 3.28178 6.62467C3.71653 6.71215 4.16733 6.64238 4.45002 6.5333C5.0154 6.31514 5.27545 6.00296 5.58391 5.61955C5.87333 5.2598 6.14268 4.80673 6.40855 4.24893Z"/>
  </g>
 </g>
</svg>
