<?xml version="1.0" encoding="utf8" standalone="no"?>
<svg height="16" id="svg2250" inkscape:output_extension="org.inkscape.output.svg.inkscape" inkscape:version="0.48.0 r9654" sodipodi:docname="kde.svgz" sodipodi:version="0.32" width="16" xmlns="http://www.w3.org/2000/svg" xmlns:cc="http://creativecommons.org/ns#" xmlns:dc="http://purl.org/dc/elements/1.1/" xmlns:inkscape="http://www.inkscape.org/namespaces/inkscape" xmlns:rdf="http://www.w3.org/1999/02/22-rdf-syntax-ns#" xmlns:sodipodi="http://sodipodi.sourceforge.net/DTD/sodipodi-0.dtd" xmlns:svg="http://www.w3.org/2000/svg" xmlns:xlink="http://www.w3.org/1999/xlink">
<defs id="defs2252">
<path d="m 69.626,12.145 -0.052,0 c -22.727,-0.292 -46.472,4.077 -46.709,4.122 -2.424,0.451 -4.946,2.974 -5.397,5.397 -0.044,0.237 -4.414,23.983 -4.122,46.71 -0.292,22.777 4.078,46.523 4.122,46.761 0.451,2.423 2.974,4.945 5.398,5.398 0.237,0.044 23.982,4.413 46.709,4.121 22.779,0.292 46.524,-4.077 46.761,-4.121 2.423,-0.452 4.946,-2.976 5.398,-5.399 0.044,-0.236 4.413,-23.981 4.121,-46.709 0.292,-22.777 -4.077,-46.523 -4.121,-46.761 -0.453,-2.423 -2.976,-4.946 -5.398,-5.397 -0.238,-0.045 -23.984,-4.414 -46.71,-4.122 z" id="XMLID_10_" inkscape:connector-curvature="0"/>
<clipPath id="clipPath4458">
<use height="1" id="use4460" width="1" xlink:href="#XMLID_10_"/>
</clipPath>
<filter id="AI_Sfocatura_4" style="color-interpolation-filters:sRGB">
<feGaussianBlur id="feGaussianBlur6" stdDeviation="4"/>
</filter>
<filter id="filter2904" inkscape:collect="always" style="color-interpolation-filters:sRGB">
<feGaussianBlur id="feGaussianBlur2906" inkscape:collect="always" stdDeviation="2.32"/>
</filter>
<filter height="1.1148686" id="filter4446" style="color-interpolation-filters:sRGB" width="1.5844299" x="-0.29221493" y="-0.057434313">
<feGaussianBlur id="feGaussianBlur4448" inkscape:collect="always" stdDeviation="2.4087233"/>
</filter>
<linearGradient gradientTransform="matrix(-1,-4.371139e-8,4.371139e-8,-1,1186.5436,-193.37143)" gradientUnits="userSpaceOnUse" id="XMLID_18_" x1="9.5995998" x2="129.6001" y1="68.399902" y2="68.399902">
<stop id="stop13" offset="0" style="stop-color:#003685"/>
<stop id="stop15" offset="0.0105" style="stop-color:#083c8f"/>
<stop id="stop17" offset="0.0533" style="stop-color:#2451b1"/>
<stop id="stop19" offset="0.099" style="stop-color:#3b63cd"/>
<stop id="stop21" offset="0.1477" style="stop-color:#4d71e3"/>
<stop id="stop23" offset="0.20100001" style="stop-color:#597bf3"/>
<stop id="stop25" offset="0.2622" style="stop-color:#6180fc"/>
<stop id="stop27" offset="0.34909999" style="stop-color:#6382ff"/>
<stop id="stop31" offset="0.58579999" style="stop-color:#6382ff"/>
<stop id="stop33" offset="1" style="stop-color:#003685"/>
</linearGradient>
<linearGradient gradientUnits="userSpaceOnUse" id="linearGradient2241" inkscape:collect="always" x1="108.00493" x2="115.9771" y1="72.341148" y2="102.0937">
<stop id="stop79" offset="0" style="stop-opacity:0;stop-color:#00316e"/>
<stop id="stop81" offset="1" style="stop-color:#00316e"/>
</linearGradient>
<linearGradient gradientTransform="matrix(-.11966,0,0,-.11966,16.32843,131.72909)" gradientUnits="userSpaceOnUse" id="linearGradient2235" inkscape:collect="always" x1="9.5995998" x2="129.6001" xlink:href="#XMLID_18_" y1="68.399902" y2="68.399902"/>
<linearGradient gradientTransform="matrix(.11966,0,0,.11966,.34175,116.12541)" gradientUnits="userSpaceOnUse" id="linearGradient2802" inkscape:collect="always" x1="67.629204" x2="67.629204" xlink:href="#XMLID_25_" y1="-2.1941743" y2="78.850853"/>
<radialGradient cx="76.764198" cy="58.0625" gradientTransform="matrix(.9397,0,0,.9397,4.2153,4.1331)" gradientUnits="userSpaceOnUse" id="XMLID_27_" r="66.164497">
<stop id="stop107" offset="0" style="stop-color:#fff"/>
<stop id="stop109" offset="0.32780001" style="stop-color:#fdfdfc"/>
<stop id="stop111" offset="0.6773591" style="stop-color:#f4f5f4"/>
<stop id="stop113" offset="1" style="stop-color:#cacfd0"/>
</radialGradient>
<radialGradient cx="66.136703" cy="0.75440001" gradientTransform="matrix(.9459,0,0,1,1051.1319,-330.17143)" gradientUnits="userSpaceOnUse" id="XMLID_25_" r="81.971497">
<stop id="stop95" offset="0.1302" style="stop-color:#fff"/>
<stop id="stop97" offset="0.5" style="stop-opacity:0.16862746;stop-color:#fff"/>
</radialGradient>
<radialGradient cx="69.600098" cy="145.3999" gradientTransform="translate(1047.3429,-330.1714)" gradientUnits="userSpaceOnUse" id="XMLID_21_" r="141">
<stop id="stop58" offset="0.3373" style="stop-opacity:0;stop-color:#2c72c7"/>
<stop id="stop60" offset="0.57990003" style="stop-color:#2c72c7"/>
<stop id="stop62" offset="1" style="stop-opacity:0;stop-color:#2c72c7"/>
</radialGradient>
<radialGradient cx="69.600098" cy="68.399902" gradientTransform="translate(1047.3429,-330.1714)" gradientUnits="userSpaceOnUse" id="XMLID_20_" r="85">
<stop id="stop47" offset="0.5" style="stop-color:#6193ff"/>
<stop id="stop49" offset="0.78109998" style="stop-color:#003685"/>
<stop id="stop51" offset="1" style="stop-color:#709dff"/>
</radialGradient>
<radialGradient cx="69.600098" cy="68.399902" gradientTransform="matrix(.11756,0,0,.11756,-.18224,115.50317)" gradientUnits="userSpaceOnUse" id="radialGradient2237" inkscape:collect="always" r="85" xlink:href="#XMLID_20_"/>
<radialGradient cx="69.600098" cy="145.3999" gradientTransform="translate(-5.6,-4.4)" gradientUnits="userSpaceOnUse" id="radialGradient2239" inkscape:collect="always" r="141" xlink:href="#XMLID_21_"/>
<radialGradient cx="110.74259" cy="123.17536" fx="110.74259" fy="123.17536" gradientTransform="matrix(.0495,-.06686,-.05971,-.04421,9.87302,135.87855)" gradientUnits="userSpaceOnUse" id="radialGradient2247" inkscape:collect="always" r="81.292717" xlink:href="#XMLID_27_"/>
</defs>
<sodipodi:namedview id="base" inkscape:current-layer="g2221" inkscape:cx="8.9042365" inkscape:cy="7.8588353" inkscape:pageopacity="0" inkscape:pageshadow="2" inkscape:window-height="692" inkscape:window-maximized="1" inkscape:window-width="1366" inkscape:window-x="0" inkscape:window-y="24" inkscape:zoom="16"/>
<g id="g8" style="opacity:0.8;filter:url(#filter2904)" transform="matrix(.12585,0,0,.12172,-.55776,-.47744)">
<path d="m 126,113.8 c 0,8.8 -7.2,16 -16,16 l -84,0 c -8.8,0 -16,-7.2 -16,-16 l 0,-83.999998 c 0,-8.8 7.2,-16 16,-16 l 84,0 c 8.8,0 16,7.2 16,16 L 126,113.8 z" id="path10" inkscape:connector-curvature="0"/>
</g>
<g id="g2221" transform="translate(0,-116)">
<path d="m 0.82039039,118.27929 c 0,-1.05301 0.86155331,-1.91456 1.91456281,-1.91456 l 10.5300948,0 c 1.05301,0 1.914563,0.86155 1.914563,1.91456 l 0,10.5301 c 0,1.053 -0.861553,1.91456 -1.914563,1.91456 l -10.5300948,0 c -1.0530095,0 -1.91456281,-0.86156 -1.91456281,-1.91456 l 0,-10.5301 z" id="path35" inkscape:connector-curvature="0" style="fill:url(#linearGradient2235)"/>
<path d="m 2.8273223,116.84337 c -0.8426764,0 -1.5282913,0.68561 -1.5282913,1.52829 l 0,10.34535 c 0,0.84268 0.6856149,1.52829 1.5282913,1.52829 l 10.3453567,0 c 0.842677,0 1.528291,-0.68561 1.528291,-1.52829 l 0,-10.34535 c 0,-0.84268 -0.685614,-1.52829 -1.528291,-1.52829 l -10.3453567,0 0,0 z" id="path53" inkscape:connector-curvature="0" style="fill:url(#radialGradient2237)"/>
<path d="m 64.026001,7.014 -0.053,0 c -23.021,-0.296 -47.076,4.131 -47.316,4.176 -2.455,0.458 -5.01,3.012 -5.467,5.467 -0.045,0.241 -4.4720008,24.295 -4.1760008,47.316 -0.296,23.074 4.1310008,47.129 4.1760008,47.369 0.457,2.454 3.013,5.01 5.468,5.469 0.24,0.044 24.294,4.47 47.316,4.174 23.075,0.296 47.128999,-4.13 47.368999,-4.174 2.454,-0.458 5.011,-3.015 5.469,-5.47 0.044,-0.239 4.47,-24.293 4.174,-47.315 0.296,-23.074 -4.13,-47.128 -4.174,-47.369 -0.459,-2.455 -3.015,-5.01 -5.469,-5.467 -0.24,-0.045 -24.294999,-4.472 -47.316999,-4.176 z" id="path64" inkscape:connector-curvature="0" style="fill:url(#radialGradient2239);filter:url(#AI_Sfocatura_4)" transform="matrix(.11966,0,0,.11966,.34175,115.88608)"/>
<g id="g66" style="opacity:0.6" transform="matrix(.11966,0,0,.11966,-.32835,115.35958)">
<g id="g4450" style="clip-path:url(#clipPath4458)">
<path d="m 119.344,21.665 c -0.377,-1.278 -1.675,-2.576 -3.367,-3.591 -1.693,1.015 -2.989,2.312 -3.365,3.591 -0.07,0.237 -6.965,23.983 -6.504,46.71 -0.461,22.777 6.434,46.523 6.504,46.761 0.376,1.278 1.674,2.576 3.365,3.591 1.694,-1.016 2.991,-2.312 3.367,-3.592 0.069,-0.236 6.963,-23.981 6.503,-46.709 0.46,-22.778 -6.433,-46.524 -6.503,-46.761 z" id="path83" inkscape:connector-curvature="0" style="opacity:0.8;fill:url(#linearGradient2241);filter:url(#filter4446)"/>
<path d="m 119.344,21.665 c -0.377,-1.278 -1.675,-2.576 -3.367,-3.591 -1.693,1.015 -2.989,2.312 -3.365,3.591 -0.07,0.237 -6.965,23.983 -6.504,46.71 -0.461,22.777 6.434,46.523 6.504,46.761 0.376,1.278 1.674,2.576 3.365,3.591 1.694,-1.016 2.991,-2.312 3.367,-3.592 0.069,-0.236 6.963,-23.981 6.503,-46.709 0.46,-22.778 -6.433,-46.524 -6.503,-46.761 z" id="path4438" inkscape:connector-curvature="0" style="opacity:0.8;fill:url(#linearGradient2241);filter:url(#filter4446)" transform="matrix(-1,0,0,1,139.2,0)"/>
</g>
</g>
<path id="path159" inkscape:connector-curvature="0" style="fill:none;stroke:#2c72c7;stroke-width:0.23932034;stroke-linejoin:round"/>
<path d="m 8.8264039,118.46 -1.7500302,0.16827 0,7.20952 1.7313332,-0.26175 0,-3.07377 2.3296341,3.41032 1.824817,-0.57961 -2.385724,-3.27943 2.404421,-3.09247 -1.862211,-0.4263 -2.3109371,3.09247 0.018697,-3.16725 z m -3.9674827,1.7575 c -0.019789,0.002 -0.041193,0.007 -0.056091,0.0224 l -0.688046,0.68809 c -0.028898,0.029 -0.032428,0.0734 -0.011218,0.10845 l 0.8039667,1.32747 c -0.1427538,0.23998 -0.2586759,0.4974 -0.3402836,0.77032 l -1.4770552,0.30662 c -0.041103,0.009 -0.071049,0.0477 -0.071049,0.0897 l 0,0.97223 c 0,0.0411 0.031261,0.0763 0.071049,0.086 l 1.4321826,0.34776 c 0.076582,0.31596 0.1948976,0.61832 0.3515018,0.89371 l -0.8301424,1.26391 c -0.023154,0.0353 -0.018637,0.0824 0.011218,0.11219 l 0.688046,0.68804 c 0.028988,0.0289 0.073441,0.0325 0.108442,0.0112 l 1.3013044,-0.789 c 0.2552339,0.14736 0.5315623,0.2654 0.8226636,0.34402 l 0.3028899,1.45835 c 0.00849,0.0412 0.043916,0.071 0.086005,0.071 l 0.9722388,0 c 0.040804,0 0.076314,-0.0274 0.086005,-0.0673 l 0.3589805,-1.46585 c 0.3002256,-0.081 0.5832848,-0.20112 0.8450999,-0.35524 l 1.2826067,0.84137 c 0.03536,0.023 0.08221,0.0186 0.112182,-0.0112 l 0.684307,-0.68805 c 0.02908,-0.029 0.03626,-0.0735 0.01496,-0.10845 l -0.467423,-0.77031 -0.153314,0.0486 c -0.02213,0.006 -0.04667,-0.003 -0.05983,-0.0224 0,0 -0.295263,-0.43434 -0.680567,-0.99841 -0.4608088,0.9017 -1.4005691,1.51819 -2.4829488,1.51819 -1.5380431,0 -2.7858383,-1.2478 -2.7858383,-2.78584 0,-1.13135 0.676534,-2.10306 1.6453273,-2.53904 l 0,-0.71796 c -0.1763182,0.0618 -0.3466563,0.13617 -0.5085557,0.22436 -2.992e-4,-1.8e-4 2.991e-4,-0.003 0,-0.004 l -1.3125226,-0.86005 c -0.01765,-0.0115 -0.036302,-0.0132 -0.056091,-0.0112 z" id="path5692_1_" inkscape:connector-curvature="0" style="fill:url(#radialGradient2247)"/>
<path d="m 14.46165,121.32031 c -0.143141,-1.61331 -0.36776,-2.72811 -0.37133,-2.74678 -0.05342,-0.2883 -0.4741,-0.70579 -0.759766,-0.75945 -0.02806,-0.005 -2.705401,-0.52516 -5.3858158,-0.4904 l -0.00615,0 c -2.6802921,-0.0348 -5.3577535,0.48512 -5.3858156,0.4904 -0.2857894,0.0538 -0.7063505,0.47115 -0.7595206,0.75945 -0.00258,0.014 -0.1307099,0.59891 -0.2548967,1.63256 0,0.69228 0,1.38444 0,2.0767 0,0.4317 0.2867741,0.93102 0.6375494,1.11164 -2.461e-4,-0.0122 0.5545942,1.58583 5.2661828,1.58583 4.7117111,0 6.4182021,-2.47399 6.4177101,-2.44651 0.331082,-0.22229 0.601856,-0.75451 0.601856,-1.18632 0,-0.009 0,-0.018 0,-0.0271 z" id="path99" inkscape:connector-curvature="0" style="opacity:0.7;fill:url(#linearGradient2802)"/>
</g>
</svg>
