<?xml version="1.0" encoding="utf8" standalone="no"?>
<svg height="16.131674" id="svg2" inkscape:export-filename="/home/sauron/develop/qutim/icons/qutim.png" inkscape:export-xdpi="2856.1414" inkscape:export-ydpi="2856.1414" inkscape:version="0.48.1 r9760" sodipodi:docname="qutim-modified.svg" viewBox="0 0 16.131674 16.131674" width="16.131674" xmlns="http://www.w3.org/2000/svg" xmlns:cc="http://creativecommons.org/ns#" xmlns:dc="http://purl.org/dc/elements/1.1/" xmlns:inkscape="http://www.inkscape.org/namespaces/inkscape" xmlns:rdf="http://www.w3.org/1999/02/22-rdf-syntax-ns#" xmlns:sodipodi="http://sodipodi.sourceforge.net/DTD/sodipodi-0.dtd" xmlns:svg="http://www.w3.org/2000/svg">
<defs id="defs4">
<linearGradient gradientUnits="userSpaceOnUse" id="id3" x1="136.69" x2="127.38" y1="117.03" y2="149.03999">
<stop id="stop12" offset="0" style="stop-color:#fff"/>
<stop id="stop14" offset="1" style="stop-opacity:0;stop-color:#fff"/>
</linearGradient>
<linearGradient gradientUnits="userSpaceOnUse" id="id1" x1="115.41" x2="85.261002" y1="206.62" y2="145.32001">
<stop id="stop24" offset="0" style="stop-color:#fff"/>
<stop id="stop26" offset="0.63922" style="stop-opacity:0.50196099;stop-color:#fff"/>
<stop id="stop28" offset="1" style="stop-opacity:0;stop-color:#fff"/>
</linearGradient>
<linearGradient gradientUnits="userSpaceOnUse" id="linearGradient3808" inkscape:collect="always" x1="111.07" x2="111.07" y1="203.09" y2="115.78">
<stop id="stop17" offset="0" style="stop-color:#db214c"/>
<stop id="stop19" offset="0.45098" style="stop-color:#e77817"/>
<stop id="stop21" offset="1" style="stop-color:#f8c300"/>
</linearGradient>
<mask id="id0">
<rect height="55.585999" id="rect16" style="fill:url(#id1)" width="55.459" x="72.607002" y="148.17999"/>
</mask>
<mask id="id2">
<rect height="34.240002" id="rect24" style="fill:url(#id3)" width="39.657001" x="112.21" y="115.92"/>
</mask>
<radialGradient cx="114.32" cy="159.21001" gradientUnits="userSpaceOnUse" id="id5" r="44.439999">
<stop id="stop7" offset="0" style="stop-color:#fff"/>
<stop id="stop9" offset="1" style="stop-color:#1c94e6"/>
</radialGradient>
</defs>
<sodipodi:namedview id="namedview42" inkscape:current-layer="Layer_x0020_1" inkscape:cx="9.1478641" inkscape:cy="8.1800289" inkscape:pageopacity="0" inkscape:pageshadow="2" inkscape:window-height="970" inkscape:window-maximized="1" inkscape:window-width="1280" inkscape:window-x="-7" inkscape:window-y="-8" inkscape:zoom="34.521717"/>
<g id="Layer_x0020_1" transform="matrix(.15481,0,0,.15481,-9.63155,-16.58078)">
<circle cx="114.32" cy="159.21001" d="m 165.777,159.21001 c 0,28.41891 -23.03808,51.457 -51.457,51.457 -28.418917,0 -51.457001,-23.03809 -51.457001,-51.457 0,-28.41892 23.038084,-51.457 51.457001,-51.457 28.41892,0 51.457,23.03808 51.457,51.457 z" id="circle40" r="51.457001" sodipodi:cx="114.32" sodipodi:cy="159.21001" sodipodi:rx="51.457001" sodipodi:ry="51.457001" style="fill:url(#id5);stroke-width:1.29194224;stroke-miterlimit:7;stroke:#0073d2"/>
<path d="m 105.3,200.4 c -35.13,-12.89 -9.208,-38.9 -20.28,-55.41 8.157,1.282 11.48,6.351 12.59,12.76 14.68,-10.43 -3.668,-29.25 21.67,-41.95 -4.659,23.07 26,31.67 17.49,60.86 4.661,-5.418 3.99,-10.97 11.8,-14.99 -1.715,13.22 3.481,29.7 -22.33,39.49 -10.57,1.486 -12.7,1.943 -20.95,-0.7664 z" id="path42" inkscape:connector-curvature="0" style="fill:url(#linearGradient3808)"/>
<path d="m 109.6,199.4 c -22.08,-8.101 -5.786,-24.45 -12.74,-34.82 5.126,0.8057 7.213,3.991 7.909,8.018 9.226,-6.554 -2.305,-18.38 13.62,-26.36 -2.928,14.5 16.34,19.9 10.99,38.25 2.929,-3.405 1.908,-6.562 6.814,-9.088 -1.078,8.308 2.786,18.34 -13.43,24.49 -6.645,0.9338 -7.983,1.221 -13.16,-0.4816 z" id="path44" inkscape:connector-curvature="0" style="fill:#fff"/>
<path d="m 112.2,198.8 c -13.86,-5.087 -3.633,-15.35 -8.001,-21.86 3.219,0.506 4.529,2.506 4.966,5.035 5.793,-4.116 -1.447,-11.54 8.553,-16.55 -1.839,9.104 10.26,12.5 6.903,24.02 1.839,-2.138 1.152,-4.82 4.232,-6.406 -0.6769,5.216 1.796,12.21 -8.387,16.08 -4.173,0.5863 -5.012,0.7668 -8.265,-0.3024 z" id="path46" inkscape:connector-curvature="0" style="fill:url(#linearGradient3808)"/>
<path d="m 72.94,148.2 c -2.393,27.12 9.171,57.88 43.41,55.37 19.36,-1.847 15.24,-23.29 -16.75,-29.74 -11.51,-4.557 -20.28,-8.431 -26.66,-25.64 z" id="path48" inkscape:connector-curvature="0" style="opacity:0.54761903;fill:#fff;mask:url(#id0)"/>
<path d="m 119.7,116.3 c 18.54,3.744 25.96,18.19 32.13,33.84 -9.798,-11.17 -19.76,-16.92 -28.96,-19.38 -14.58,-4.899 -12.68,-16.91 -3.169,-14.46 z" id="path50" inkscape:connector-curvature="0" style="opacity:0.55952382;fill:#fff;mask:url(#id2)"/>
</g>
</svg>
