<?xml version="1.0" encoding="UTF-8" standalone="no"?>
<!-- Created with Inkscape (http://www.inkscape.org/) -->

<svg
   xmlns:dc="http://purl.org/dc/elements/1.1/"
   xmlns:cc="http://creativecommons.org/ns#"
   xmlns:rdf="http://www.w3.org/1999/02/22-rdf-syntax-ns#"
   xmlns:svg="http://www.w3.org/2000/svg"
   xmlns="http://www.w3.org/2000/svg"
   xmlns:xlink="http://www.w3.org/1999/xlink"
   xmlns:sodipodi="http://sodipodi.sourceforge.net/DTD/sodipodi-0.dtd"
   xmlns:inkscape="http://www.inkscape.org/namespaces/inkscape"
   width="16"
   height="16"
   id="svg2"
   version="1.1"
   inkscape:version="0.48.4 r9939"
   sodipodi:docname="im-invisible-contact.svg">
  <defs
     id="defs4">
    <linearGradient
       id="linearGradient4414-4">
      <stop
         style="stop-color:#c80000;stop-opacity:1;"
         offset="0"
         id="stop4416-5" />
      <stop
         style="stop-color:#ff5555;stop-opacity:1;"
         offset="1"
         id="stop4418-5" />
    </linearGradient>
    <linearGradient
       inkscape:collect="always"
       xlink:href="#linearGradient4414-4"
       id="linearGradient837"
       x1="8"
       y1="1049.3622"
       x2="8"
       y2="1039.3622"
       gradientUnits="userSpaceOnUse" />
  </defs>
  <sodipodi:namedview
     id="base"
     pagecolor="#ffffff"
     bordercolor="#666666"
     borderopacity="1.0"
     inkscape:pageopacity="0.0"
     inkscape:pageshadow="2"
     inkscape:zoom="39.4375"
     inkscape:cx="8"
     inkscape:cy="8"
     inkscape:document-units="px"
     inkscape:current-layer="layer1"
     showgrid="false"
     width="0px"
     height="0px"
     fit-margin-top="0"
     fit-margin-left="0"
     fit-margin-right="0"
     fit-margin-bottom="0"
     inkscape:window-width="1440"
     inkscape:window-height="848"
     inkscape:window-x="-8"
     inkscape:window-y="-8"
     inkscape:window-maximized="1">
    <inkscape:grid
       type="xygrid"
       id="grid3979"
       empspacing="5"
       visible="true"
       enabled="true"
       snapvisiblegridlinesonly="true" />
  </sodipodi:namedview>
  <metadata
     id="metadata7">
    <rdf:RDF>
      <cc:Work
         rdf:about="">
        <dc:format>image/svg+xml</dc:format>
        <dc:type
           rdf:resource="http://purl.org/dc/dcmitype/StillImage" />
        <dc:title />
      </cc:Work>
    </rdf:RDF>
  </metadata>
  <g
     inkscape:label="Layer 1"
     inkscape:groupmode="layer"
     id="layer1"
     transform="translate(0,-1036.3622)">
    <path
       style="fill:#000000;fill-opacity:1;fill-rule:evenodd;stroke:none;opacity:0.3"
       d="m 8,1040.3622 c -2.7614237,0 -5,2.2386 -5,5 0,2.7614 2.2385763,5 5,5 2.761424,0 5,-2.2386 5,-5 C 13,1042.6008 10.761424,1040.3622 8,1040.3622 Z"
       id="path821" />
    <path
       style="opacity:1;fill:url(#linearGradient837);fill-opacity:1;fill-rule:evenodd;stroke:none"
       d="m 8,1039.3622 c -2.7614237,0 -5,2.2386 -5,5 0,2.7614 2.2385763,5 5,5 2.761424,0 5,-2.2386 5,-5 C 13,1041.6008 10.761424,1039.3622 8,1039.3622 Z"
       id="path825" />
    <path
       style="opacity:0.6;fill:#ffffff;fill-opacity:1;fill-rule:evenodd;stroke:none"
       d="m 8,1039.3622 c -2.7614237,0 -5,2.2386 -5,5 0,0.1726 0.01418,0.3319 0.03125,0.5 0.25605,-2.5213 2.3799153,-4.5 4.96875,-4.5 2.588835,0 4.7127,1.9787 4.96875,4.5 C 12.98582,1044.6941 13,1044.5348 13,1044.3622 13,1041.6008 10.761424,1039.3622 8,1039.3622 Z"
       id="path829" />
  </g>
</svg>
