<?xml version="1.0" encoding="UTF-8" standalone="no"?>
<!-- Created with Inkscape (http://www.inkscape.org/) -->

<svg
   xmlns:dc="http://purl.org/dc/elements/1.1/"
   xmlns:cc="http://creativecommons.org/ns#"
   xmlns:rdf="http://www.w3.org/1999/02/22-rdf-syntax-ns#"
   xmlns:svg="http://www.w3.org/2000/svg"
   xmlns="http://www.w3.org/2000/svg"
   xmlns:sodipodi="http://sodipodi.sourceforge.net/DTD/sodipodi-0.dtd"
   xmlns:inkscape="http://www.inkscape.org/namespaces/inkscape"
   width="16"
   height="16"
   id="svg3301"
   version="1.1"
   inkscape:version="0.48.3.1 r9886"
   sodipodi:docname="user-away.svg">
  <defs
     id="defs3303" />
  <sodipodi:namedview
     id="base"
     pagecolor="#ffffff"
     bordercolor="#666666"
     borderopacity="1.0"
     inkscape:pageopacity="0.0"
     inkscape:pageshadow="2"
     inkscape:zoom="31.678384"
     inkscape:cx="8.5370715"
     inkscape:cy="7.4285275"
     inkscape:document-units="px"
     inkscape:current-layer="layer1"
     showgrid="true"
     inkscape:window-width="1440"
     inkscape:window-height="848"
     inkscape:window-x="-8"
     inkscape:window-y="-8"
     inkscape:window-maximized="1">
    <inkscape:grid
       type="xygrid"
       id="grid3001"
       empspacing="5"
       visible="true"
       enabled="true"
       snapvisiblegridlinesonly="true" />
  </sodipodi:namedview>
  <metadata
     id="metadata3306">
    <rdf:RDF>
      <cc:Work
         rdf:about="">
        <dc:format>image/svg+xml</dc:format>
        <dc:type
           rdf:resource="http://purl.org/dc/dcmitype/StillImage" />
        <dc:title />
      </cc:Work>
    </rdf:RDF>
  </metadata>
  <g
     inkscape:label="Layer 1"
     inkscape:groupmode="layer"
     id="layer1"
     transform="translate(0,-1036.3622)">
    <path
       sodipodi:nodetypes="ccccssccccc"
       id="path4125"
       d="m 10.653633,1036.3622 c -0.01169,0 -0.02352,3e-4 -0.03524,4e-4 -0.127055,0.01 -0.252635,0.034 -0.370072,0.087 -3.2290153,1.4662 -6.4580235,2.9324 -9.68712524,4.3984 -0.47879944,0.2174 -0.69371241,0.789 -0.47628344,1.2677 l 4.39942398,9.6857 c 0.2173391,0.4785 0.7886638,0.6936 1.2673894,0.4762 l 9.6871243,-4.3988 c 0.478585,-0.2173 0.693695,-0.789 0.476283,-1.2676 l -4.399428,-9.6863 c -0.157574,-0.3469 -0.499717,-0.5588 -0.862072,-0.5624 z"
       style="font-size:medium;font-style:normal;font-variant:normal;font-weight:normal;font-stretch:normal;text-indent:0;text-align:start;text-decoration:none;line-height:normal;letter-spacing:normal;word-spacing:normal;text-transform:none;direction:ltr;block-progression:tb;writing-mode:lr-tb;text-anchor:start;baseline-shift:baseline;color:#000000;fill:#e6e6e6;fill-opacity:1;fill-rule:nonzero;stroke:none;stroke-width:30;marker:none;visibility:visible;display:inline;overflow:visible;enable-background:accumulate;font-family:Sans;-inkscape-font-specification:Sans"
       inkscape:connector-curvature="0" />
    <path
       inkscape:connector-curvature="0"
       inkscape:export-ydpi="23.039482"
       inkscape:export-xdpi="23.039482"
       inkscape:export-filename="C:\Users\Madnester\Desktop\Sketches\256.png"
       id="path4127"
       d="m 10.414958,1037.3626 c -0.0688,0 -0.138385,0.017 -0.205185,0.048 l -8.8985955,4.0405 c -0.2671926,0.1215 -0.38471008,0.4347 -0.2633706,0.7018 l 4.0411174,8.8982 c 0.1213395,0.2671 0.4341076,0.3847 0.7013009,0.2633 l 8.8985968,-4.041 c 0.267192,-0.1215 0.384712,-0.4341 0.263371,-0.7013 l -4.041117,-8.8987 c -0.091,-0.2003 -0.289736,-0.3166 -0.496118,-0.311 z m -0.4829913,1.4001 c 0.1651043,-0.01 0.3240023,0.088 0.3968063,0.2487 l 3.233069,7.1189 c 0.09708,0.2138 0.003,0.4637 -0.21087,0.5608 l -7.1188797,3.2331 c -0.2137535,0.097 -0.4637936,0.01 -0.5608654,-0.2109 l -3.2330691,-7.1189 c -0.097072,-0.2137 -0.0029,-0.4636 0.2108712,-0.5607 l 7.1188773,-3.2331 c 0.053441,-0.024 0.109025,-0.038 0.1640604,-0.039 z"
       style="fill:#656565;fill-opacity:1;fill-rule:nonzero;stroke:none" />
    <path
       style="font-size:medium;font-style:normal;font-variant:normal;font-weight:normal;font-stretch:normal;text-indent:0;text-align:start;text-decoration:none;line-height:normal;letter-spacing:normal;word-spacing:normal;text-transform:none;direction:ltr;block-progression:tb;writing-mode:lr-tb;text-anchor:start;baseline-shift:baseline;color:#000000;fill:#e6e6e6;fill-opacity:1;fill-rule:evenodd;stroke:none;stroke-width:10;marker:none;visibility:visible;display:inline;overflow:visible;enable-background:accumulate;font-family:Sans;-inkscape-font-specification:Sans"
       d="m 8.8066407,1036.8259 -0.359375,0.025 -2.9277344,0.2109 -0.2890625,0.021 0,0.291 0.00391,4.6817 0,0.074 0.035156,0.066 0.7363281,1.459 0.091797,0.1797 0.203125,-0.01 2.0996058,-0.098 0.3398438,-0.016 -0.044922,-0.3379 -0.2207031,-1.6543 0.3066406,-4.5371 0.025391,-0.3594 z m -0.671875,0.6738 -0.2851562,4.2109 -0.00195,0.031 0.00391,0.031 0.1796875,1.3497 -1.5585937,0.07 -0.6132813,-1.211 -0.00391,-4.3183 2.2792969,-0.1641 z m 7.8183593,4.8555 -0.326172,0.018 -5.068359,0.2812 -0.117188,0.01 -0.08398,0.082 -1.3476563,1.3242 -0.095703,0.094 0.00195,0.1348 0.027344,1.7207 0.00977,0.5566 0.4707031,-0.2968 1.2597662,-0.7989 4.992187,-0.125 0.306641,-0.01 -0.002,-0.3066 -0.02344,-2.3574 -0.0039,-0.3262 z m -0.617187,0.6601 0.01563,1.7207 -4.769532,0.1192 -0.08594,0 -0.07422,0.047 -0.8632811,0.5469 -0.015625,-1.0313 1.1679691,-1.1465 4.625,-0.2578 z m -6.5371098,0.9766 -0.3339843,0.025 -2.1640626,0.1601 -0.2851562,0.02 -0.00391,0.2871 -0.023437,1.6855 -0.00391,0.3399 0.3398437,-0.025 2.1953126,-0.1582 0.2910156,-0.022 0,-0.293 -0.00977,-1.6855 -0.00195,-0.334 z m -0.6210937,0.6738 0.00586,1.0586 -1.5664062,0.1133 0.015625,-1.0586 1.5449218,-0.1133 z"
       id="path3773"
       inkscape:connector-curvature="0" />
    <path
       style="fill:#d63434;fill-opacity:1;fill-rule:evenodd;stroke:none"
       d="m 8.4699851,1037.1635 -2.9273676,0.2106 0.00513,4.6826 0.7376964,1.4584 2.1006106,-0.097 -0.2246588,-1.6866 z m 2.1062789,5.8033 -1.347782,1.3246 0.02803,1.721 1.333158,-0.8451 5.077632,-0.1259 -0.02349,-2.3564 z m -2.0887008,1.3618 -2.163745,0.1598 -0.022486,1.685 2.1959969,-0.1592 z"
       id="path3775"
       inkscape:connector-curvature="0"
       sodipodi:nodetypes="ccccccccccccccccccc" />
  </g>
</svg>
