<?xml version="1.0" encoding="UTF-8" standalone="no"?>
<!-- Created with Inkscape (http://www.inkscape.org/) -->

<svg
   xmlns:dc="http://purl.org/dc/elements/1.1/"
   xmlns:cc="http://creativecommons.org/ns#"
   xmlns:rdf="http://www.w3.org/1999/02/22-rdf-syntax-ns#"
   xmlns:svg="http://www.w3.org/2000/svg"
   xmlns="http://www.w3.org/2000/svg"
   xmlns:xlink="http://www.w3.org/1999/xlink"
   xmlns:sodipodi="http://sodipodi.sourceforge.net/DTD/sodipodi-0.dtd"
   xmlns:inkscape="http://www.inkscape.org/namespaces/inkscape"
   width="14"
   height="14"
   id="svg2"
   version="1.1"
   inkscape:version="0.48.4 r9939"
   sodipodi:docname="user-role-moderator.svg">
  <defs
     id="defs4">
    <linearGradient
       id="linearGradient3981">
      <stop
         style="stop-color:#d5ebff;stop-opacity:1;"
         offset="0"
         id="stop3983" />
      <stop
         style="stop-color:#fff6d5;stop-opacity:0;"
         offset="1"
         id="stop3985" />
    </linearGradient>
    <linearGradient
       id="linearGradient3827">
      <stop
         style="stop-color:#dbdbdb;stop-opacity:1"
         offset="0"
         id="stop3829" />
      <stop
         style="stop-color:#f5f5f5;stop-opacity:1"
         offset="1"
         id="stop3831" />
    </linearGradient>
    <linearGradient
       inkscape:collect="always"
       xlink:href="#linearGradient3827"
       id="linearGradient3951"
       gradientUnits="userSpaceOnUse"
       x1="6"
       y1="10"
       x2="6"
       y2="2" />
    <linearGradient
       inkscape:collect="always"
       xlink:href="#linearGradient4414"
       id="linearGradient3953"
       gradientUnits="userSpaceOnUse"
       x1="7"
       y1="10"
       x2="7"
       y2="2" />
    <linearGradient
       inkscape:collect="always"
       xlink:href="#linearGradient3981"
       id="linearGradient3955"
       gradientUnits="userSpaceOnUse"
       gradientTransform="translate(30,1038.3622)"
       x1="7"
       y1="2"
       x2="7"
       y2="10" />
    <linearGradient
       id="linearGradient4414">
      <stop
         style="stop-color:#0069c8;stop-opacity:1;"
         offset="0"
         id="stop4416" />
      <stop
         style="stop-color:#55c4ff;stop-opacity:1;"
         offset="1"
         id="stop4418" />
    </linearGradient>
    <linearGradient
       y2="10"
       x2="7"
       y1="2"
       x1="7"
       gradientTransform="translate(30,1038.3622)"
       gradientUnits="userSpaceOnUse"
       id="linearGradient4792"
       xlink:href="#linearGradient4800"
       inkscape:collect="always" />
    <linearGradient
       y2="10"
       x2="7"
       y1="2"
       x1="7"
       gradientUnits="userSpaceOnUse"
       id="linearGradient4790"
       xlink:href="#linearGradient4794"
       inkscape:collect="always" />
    <linearGradient
       y2="2"
       x2="6"
       y1="10"
       x1="6"
       gradientUnits="userSpaceOnUse"
       id="linearGradient4788"
       xlink:href="#linearGradient3827-4"
       inkscape:collect="always" />
    <linearGradient
       id="linearGradient3827-4">
      <stop
         id="stop3829-0"
         offset="0"
         style="stop-color:#dbdbdb;stop-opacity:1" />
      <stop
         id="stop3831-9"
         offset="1"
         style="stop-color:#f5f5f5;stop-opacity:1" />
    </linearGradient>
    <linearGradient
       id="linearGradient4794">
      <stop
         style="stop-color:#646464;stop-opacity:1;"
         offset="0"
         id="stop4796" />
      <stop
         style="stop-color:#969696;stop-opacity:1;"
         offset="1"
         id="stop4798" />
    </linearGradient>
    <linearGradient
       id="linearGradient4800">
      <stop
         style="stop-color:#000000;stop-opacity:1;"
         offset="0"
         id="stop4802" />
      <stop
         style="stop-color:#fff6d5;stop-opacity:0;"
         offset="1"
         id="stop4804" />
    </linearGradient>
    <linearGradient
       inkscape:collect="always"
       xlink:href="#linearGradient3981"
       id="linearGradient3043"
       gradientUnits="userSpaceOnUse"
       gradientTransform="translate(0,1038.3622)"
       x1="7"
       y1="2"
       x2="7"
       y2="10" />
  </defs>
  <sodipodi:namedview
     id="base"
     pagecolor="#ffffff"
     bordercolor="#666666"
     borderopacity="1.0"
     inkscape:pageopacity="0.0"
     inkscape:pageshadow="2"
     inkscape:zoom="45.071429"
     inkscape:cx="7"
     inkscape:cy="7"
     inkscape:document-units="px"
     inkscape:current-layer="layer1"
     showgrid="false"
     inkscape:window-width="1440"
     inkscape:window-height="848"
     inkscape:window-x="-8"
     inkscape:window-y="-8"
     inkscape:window-maximized="1">
    <inkscape:grid
       type="xygrid"
       id="grid2985"
       empspacing="5"
       visible="true"
       enabled="true"
       snapvisiblegridlinesonly="true" />
  </sodipodi:namedview>
  <metadata
     id="metadata7">
    <rdf:RDF>
      <cc:Work
         rdf:about="">
        <dc:format>image/svg+xml</dc:format>
        <dc:type
           rdf:resource="http://purl.org/dc/dcmitype/StillImage" />
        <dc:title />
      </cc:Work>
    </rdf:RDF>
  </metadata>
  <g
     inkscape:label="Layer 1"
     inkscape:groupmode="layer"
     id="layer1"
     transform="translate(0,-1038.3622)">
    <g
       id="g3058">
      <path
         sodipodi:type="arc"
         style="opacity:0.07999998;fill:#000000;fill-opacity:1;fill-rule:evenodd;stroke:none"
         id="path4774"
         sodipodi:cx="6"
         sodipodi:cy="6"
         sodipodi:rx="4"
         sodipodi:ry="4"
         d="M 10,6 A 4,4 0 1 1 2,6 4,4 0 1 1 10,6 z"
         transform="matrix(1.6875,0,0,1.6875,-3.125,1034.9872)" />
      <path
         transform="matrix(1.625,0,0,1.625,-2.75,1035.1122)"
         d="M 10,6 A 4,4 0 1 1 2,6 4,4 0 1 1 10,6 z"
         sodipodi:ry="4"
         sodipodi:rx="4"
         sodipodi:cy="6"
         sodipodi:cx="6"
         id="path4776"
         style="opacity:0.1;fill:#000000;fill-opacity:1;fill-rule:evenodd;stroke:none"
         sodipodi:type="arc" />
      <path
         transform="matrix(1.5,0,0,1.5,-2,1035.8622)"
         d="M 10,6 A 4,4 0 1 1 2,6 4,4 0 1 1 10,6 z"
         sodipodi:ry="4"
         sodipodi:rx="4"
         sodipodi:cy="6"
         sodipodi:cx="6"
         id="path4778"
         style="opacity:0.15;fill:#000000;fill-opacity:1;fill-rule:evenodd;stroke:none"
         sodipodi:type="arc" />
      <path
         transform="matrix(1.5,0,0,1.5,-2,1035.3622)"
         d="M 10,6 A 4,4 0 1 1 2,6 4,4 0 1 1 10,6 z"
         sodipodi:ry="4"
         sodipodi:rx="4"
         sodipodi:cy="6"
         sodipodi:cx="6"
         id="path3943"
         style="fill:url(#linearGradient3951);fill-opacity:1;fill-rule:evenodd;stroke:none"
         sodipodi:type="arc" />
      <path
         transform="translate(0,1038.3622)"
         d="M 11,6 A 4,4 0 1 1 3,6 4,4 0 1 1 11,6 z"
         sodipodi:ry="4"
         sodipodi:rx="4"
         sodipodi:cy="6"
         sodipodi:cx="7"
         id="path3945"
         style="fill:url(#linearGradient3953);fill-opacity:1;fill-rule:evenodd;stroke:#0038a0;stroke-width:0.25;stroke-miterlimit:4;stroke-opacity:1;stroke-dasharray:none"
         sodipodi:type="arc" />
      <path
         id="path3947"
         d="m 7,1038.3622 c -3.313708,0 -6,2.6863 -6,6 0,0.1245 0.02378,0.2524 0.03125,0.375 0.30726,-3.0255 2.862149,-5.375 5.96875,-5.375 3.106602,0 5.66149,2.3495 5.96875,5.375 0.0075,-0.1226 0.03125,-0.2505 0.03125,-0.375 0,-3.3137 -2.686292,-6 -6,-6 z"
         style="opacity:0.5;fill:#ffffff;fill-opacity:1;fill-rule:evenodd;stroke:none"
         inkscape:connector-curvature="0" />
      <path
         id="path3949"
         d="m 7,1040.3622 c -2.209139,0 -4,1.7909 -4,4 0,0.1701 0.04189,0.3355 0.0625,0.5 0.247066,-1.972 1.898481,-3.5 3.9375,-3.5 2.039019,0 3.690434,1.528 3.9375,3.5 0.02061,-0.1645 0.0625,-0.3299 0.0625,-0.5 0,-2.2091 -1.790861,-4 -4,-4 z"
         style="opacity:0.5;fill:url(#linearGradient3043);fill-opacity:1;fill-rule:evenodd;stroke:none"
         inkscape:connector-curvature="0" />
    </g>
  </g>
</svg>
