<?xml version="1.0" encoding="UTF-8" standalone="no"?>
<!-- Created with Inkscape (http://www.inkscape.org/) -->

<svg
   xmlns:dc="http://purl.org/dc/elements/1.1/"
   xmlns:cc="http://creativecommons.org/ns#"
   xmlns:rdf="http://www.w3.org/1999/02/22-rdf-syntax-ns#"
   xmlns:svg="http://www.w3.org/2000/svg"
   xmlns="http://www.w3.org/2000/svg"
   xmlns:sodipodi="http://sodipodi.sourceforge.net/DTD/sodipodi-0.dtd"
   xmlns:inkscape="http://www.inkscape.org/namespaces/inkscape"
   width="16"
   height="16"
   id="svg3301"
   version="1.1"
   inkscape:version="0.48.3.1 r9886"
   sodipodi:docname="user-online.svg">
  <defs
     id="defs3303" />
  <sodipodi:namedview
     id="base"
     pagecolor="#ffffff"
     bordercolor="#666666"
     borderopacity="1.0"
     inkscape:pageopacity="0.0"
     inkscape:pageshadow="2"
     inkscape:zoom="39.9375"
     inkscape:cx="7.9999987"
     inkscape:cy="7.9999729"
     inkscape:document-units="px"
     inkscape:current-layer="layer1"
     showgrid="true"
     inkscape:window-width="1440"
     inkscape:window-height="848"
     inkscape:window-x="-8"
     inkscape:window-y="-8"
     inkscape:window-maximized="1">
    <inkscape:grid
       type="xygrid"
       id="grid2986"
       empspacing="5"
       visible="true"
       enabled="true"
       snapvisiblegridlinesonly="true" />
  </sodipodi:namedview>
  <metadata
     id="metadata3306">
    <rdf:RDF>
      <cc:Work
         rdf:about="">
        <dc:format>image/svg+xml</dc:format>
        <dc:type
           rdf:resource="http://purl.org/dc/dcmitype/StillImage" />
        <dc:title />
      </cc:Work>
    </rdf:RDF>
  </metadata>
  <g
     inkscape:label="Layer 1"
     inkscape:groupmode="layer"
     id="layer1"
     transform="translate(0,-1036.3622)">
    <path
       inkscape:connector-curvature="0"
       style="font-size:medium;font-style:normal;font-variant:normal;font-weight:normal;font-stretch:normal;text-indent:0;text-align:start;text-decoration:none;line-height:normal;letter-spacing:normal;word-spacing:normal;text-transform:none;direction:ltr;block-progression:tb;writing-mode:lr-tb;text-anchor:start;baseline-shift:baseline;color:#000000;fill:#e6e6e6;fill-opacity:1;fill-rule:nonzero;stroke:none;stroke-width:30;marker:none;visibility:visible;display:inline;overflow:visible;enable-background:accumulate;font-family:Sans;-inkscape-font-specification:Sans"
       d="m 10.653631,1036.3622 c -0.01169,-10e-5 -0.02352,2e-4 -0.03525,5e-4 -0.127055,0.01 -0.252634,0.034 -0.370072,0.087 l -1.988006,0.9024 c -0.1172745,-0.2527 -0.204455,-0.4816 -0.2367125,-0.65 -0.09739,-0.3069 -0.5064369,-0.455 -0.7201404,-0.088 -0.174833,0.3786 -0.165639,0.8004 -0.112879,1.2243 l -6.62938654,3.0097 c -0.47879943,0.2174 -0.6937124,0.789 -0.47628343,1.2677 l 4.39942887,9.6857 c 0.217339,0.4785 0.7886639,0.6936 1.2673893,0.4762 l 9.6871237,-4.3988 c 0.478585,-0.2173 0.693696,-0.789 0.476284,-1.2676 l -4.399428,-9.6863 c -0.157574,-0.3469 -0.499717,-0.5588 -0.862073,-0.5624 z"
       id="path4044-2-6" />
    <path
       style="fill:#656565;fill-opacity:1;fill-rule:nonzero;stroke:none"
       d="m 10.414957,1037.3626 c -0.06879,0 -0.138385,0.017 -0.205183,0.048 l -8.8985965,4.0405 c -0.2671926,0.1215 -0.38471013,0.4346 -0.2633706,0.7018 l 4.0411172,8.8981 c 0.1213395,0.2671 0.4341079,0.3847 0.701301,0.2633 l 8.8985979,-4.041 c 0.267191,-0.1214 0.384711,-0.4341 0.26337,-0.7014 l -4.041117,-8.8985 c -0.09101,-0.2003 -0.289737,-0.3166 -0.496119,-0.3111 z m -0.4829908,1.4 c 0.1651058,-0.01 0.3240018,0.088 0.3968068,0.2488 l 3.233068,7.1188 c 0.09708,0.2138 0.003,0.4637 -0.21087,0.5608 l -7.1188789,3.2331 c -0.2137535,0.097 -0.4637937,0.01 -0.5608655,-0.2109 l -3.2330688,-7.1188 c -0.097071,-0.2138 -0.0029,-0.4636 0.210871,-0.5608 l 7.1188774,-3.233 c 0.053441,-0.024 0.1090247,-0.038 0.16406,-0.039 z"
       id="path3222-0-3"
       inkscape:export-filename="C:\Users\Madnester\Desktop\Sketches\256.png"
       inkscape:export-xdpi="23.039482"
       inkscape:export-ydpi="23.039482"
       inkscape:connector-curvature="0" />
    <path
       style="fill:#3473e3;fill-opacity:1;stroke:none"
       d="m 5.4441739,1039.8163 c 0,0 1.0104748,1.1533 -0.1882785,3.6729 -0.4303519,0.9046 -1.0758808,1.5898 -0.9682919,2.8507 0.1776385,2.0817 1.8827898,3.1795 3.657993,3.1795 1.7752018,0 3.6579925,-1.4253 3.7655805,-3.0151 0.107587,-1.5898 -0.860705,-2.138 -1.129676,-2.741 -0.268969,-0.603 0.08069,-1.9735 0.564839,-2.741 -0.753117,0.5208 -0.833808,0.5208 -1.3179542,1.672 -0.4841465,1.1513 0.2188892,2.6165 -0.4303525,2.9603 -0.8245284,0.4367 -1.4933823,-0.5418 -1.2372618,-1.5075 0.2689695,-1.0142 1.0940873,-2.0628 1.1834678,-3.3441 0.074423,-1.0668 -1.4793353,-2.9054 -1.6945107,-4.0292 -0.4303525,0.9319 0.5449614,2.8472 0.2151764,3.9196 -0.7096259,2.3075 -1.5007603,2.5561 -1.4793353,1.069 0.01228,-0.8524 -0.9413958,-1.9461 -0.9413958,-1.9461 z"
       id="path3265-6"
       inkscape:connector-curvature="0"
       sodipodi:nodetypes="cssssscsssscssc"
       inkscape:export-filename="C:\Users\Madnester\Desktop\Sketches\256.png"
       inkscape:export-xdpi="23.039482"
       inkscape:export-ydpi="23.039482" />
  </g>
</svg>
