<?xml version="1.0" encoding="UTF-8" standalone="no"?>
<!-- Created with Inkscape (http://www.inkscape.org/) -->

<svg
   xmlns:dc="http://purl.org/dc/elements/1.1/"
   xmlns:cc="http://creativecommons.org/ns#"
   xmlns:rdf="http://www.w3.org/1999/02/22-rdf-syntax-ns#"
   xmlns:svg="http://www.w3.org/2000/svg"
   xmlns="http://www.w3.org/2000/svg"
   xmlns:sodipodi="http://sodipodi.sourceforge.net/DTD/sodipodi-0.dtd"
   xmlns:inkscape="http://www.inkscape.org/namespaces/inkscape"
   width="16"
   height="16"
   id="svg3301"
   version="1.1"
   inkscape:version="0.48.4 r9939"
   sodipodi:docname="user-offline-vkontakte - копия.svg">
  <defs
     id="defs3303" />
  <sodipodi:namedview
     id="base"
     pagecolor="#ffffff"
     bordercolor="#666666"
     borderopacity="1.0"
     inkscape:pageopacity="0.0"
     inkscape:pageshadow="2"
     inkscape:zoom="39.4375"
     inkscape:cx="3.6513471"
     inkscape:cy="8"
     inkscape:document-units="px"
     inkscape:current-layer="layer1"
     showgrid="true"
     inkscape:window-width="1440"
     inkscape:window-height="848"
     inkscape:window-x="-8"
     inkscape:window-y="-8"
     inkscape:window-maximized="1">
    <inkscape:grid
       type="xygrid"
       id="grid2985"
       empspacing="5"
       visible="true"
       enabled="true"
       snapvisiblegridlinesonly="true" />
  </sodipodi:namedview>
  <metadata
     id="metadata3306">
    <rdf:RDF>
      <cc:Work
         rdf:about="">
        <dc:format>image/svg+xml</dc:format>
        <dc:type
           rdf:resource="http://purl.org/dc/dcmitype/StillImage" />
        <dc:title />
      </cc:Work>
    </rdf:RDF>
  </metadata>
  <g
     inkscape:label="Layer 1"
     inkscape:groupmode="layer"
     id="layer1"
     transform="translate(0,-1036.3622)">
    <path
       id="path4319-1"
       d="m 10.653628,1036.3619 c -0.01169,0 -0.02352,0 -0.03524,4e-4 -0.127055,0.01 -0.252635,0.034 -0.370072,0.087 -3.2290177,1.4662 -6.4580237,2.9324 -9.68712468,4.3983 -0.4788,0.2174 -0.693713,0.789 -0.476284,1.2677 l 4.39942898,9.6858 c 0.217339,0.4785 0.788664,0.6936 1.26739,0.4762 l 9.6871237,-4.3988 c 0.478584,-0.2173 0.693697,-0.789 0.476284,-1.2677 l -4.399429,-9.6862 c -0.157574,-0.3469 -0.499717,-0.5589 -0.862072,-0.5624 z"
       style="font-size:medium;font-style:normal;font-variant:normal;font-weight:normal;font-stretch:normal;text-indent:0;text-align:start;text-decoration:none;line-height:normal;letter-spacing:normal;word-spacing:normal;text-transform:none;direction:ltr;block-progression:tb;writing-mode:lr-tb;text-anchor:start;baseline-shift:baseline;color:#000000;fill:#e6e6e6;fill-opacity:1;fill-rule:nonzero;stroke:none;stroke-width:30;marker:none;visibility:visible;display:inline;overflow:visible;enable-background:accumulate;font-family:Sans;-inkscape-font-specification:Sans"
       inkscape:connector-curvature="0"
       sodipodi:nodetypes="ccccssccccc" />
    <path
       inkscape:connector-curvature="0"
       inkscape:export-ydpi="23.039482"
       inkscape:export-xdpi="23.039482"
       inkscape:export-filename="C:\Users\Madnester\Desktop\Sketches\256.png"
       id="path4321-7"
       d="m 10.414952,1037.3621 c -0.0688,0 -0.138384,0.017 -0.205185,0.048 l -8.8985957,4.0407 c -0.267192,0.1214 -0.38470998,0.4345 -0.26337,0.7017 l 4.041117,8.8982 c 0.12134,0.2671 0.434108,0.3847 0.701301,0.2633 l 8.8985977,-4.0411 c 0.267191,-0.1214 0.384711,-0.4342 0.26337,-0.7012 l -4.041118,-8.8987 c -0.09101,-0.2003 -0.289735,-0.3167 -0.496117,-0.311 z m -0.4829917,1.4001 c 0.1651057,-0.01 0.3240027,0.088 0.3968067,0.2488 l 3.233068,7.1189 c 0.09708,0.2137 0.003,0.4637 -0.21087,0.5608 l -7.1188787,3.233 c -0.213753,0.097 -0.463794,0.01 -0.560865,-0.2108 l -3.233069,-7.1188 c -0.09707,-0.2138 -0.0029,-0.4639 0.210871,-0.5609 l 7.118877,-3.233 c 0.05344,-0.024 0.109025,-0.037 0.16406,-0.039 z"
       style="fill:#656565;fill-opacity:1;fill-rule:nonzero;stroke:none" />
    <g
       id="g3779"
       style="font-size:5.13703537000000040px;font-style:normal;font-variant:normal;font-weight:normal;font-stretch:normal;line-height:125%;letter-spacing:0px;word-spacing:0px;fill:#e6e6e6;fill-opacity:1;stroke:#656565;font-family:Arial;-inkscape-font-specification:Arial;stroke-opacity:1;stroke-width:0.8747003;stroke-miterlimit:4;stroke-dasharray:none;stroke-linejoin:round"
       transform="matrix(0.52785883,0,0,0.61901855,11.675728,414.86474)">
      <path
         sodipodi:nodetypes="csssssssssssssssssssssssssssccc"
         inkscape:connector-curvature="0"
         id="path3781"
         d="m -14.660064,1011.3961 c -1.476217,0 -1.088922,0 -2.897925,0 -0.517164,0 -0.936325,0.1792 -0.708677,0.7593 0.7845,1.999 4.198806,8.4947 7.02916,10.0393 2.608764,1.4237 4.26167,1.1498 5.340825,1.1498 0.444354,0 0.740497,-0.142 0.842596,-0.5659 0.110641,-0.4599 0.100042,-1.7116 0.445872,-2.0593 0.229184,-0.2305 0.616701,-0.2316 0.844923,-0.1115 0.634884,0.3354 1.956467,2.0974 2.605957,2.4884 0.23920503,0.1442 0.70269703,0.2829 0.87142613,0.2829 1.255039,0 2.61867897,0.011 3.75300797,0.011 0.330992,0 0.9671007,-0.1803 0.9349301,-0.8325 -0.052124,-1.0564 -2.9694211,-3.3954 -3.54322207,-4.2668 -0.116242,-0.177 -0.111271,-0.5222 0.0251,-0.8194 0.50242697,-1.0983 3.48344997,-4.0762 3.41361037,-5.2927 -0.02106,-0.367 -0.1789584,-0.7417 -0.7990044,-0.7417 -0.873763,0 -2.50309797,0 -3.50542497,0 -0.8675101,0 -0.9377131,0.2775 -1.12316713,0.6325 -0.512639,0.9821 -2.142236,4.331 -3.183229,4.707 -0.276427,0.098 -0.672652,0.044 -0.672652,-0.6325 0,-0.9832 0.06167,-3.069 0.06167,-4.1244 0,-0.9537 -1.115032,-1.0542 -1.52456,-1.0542 -0.829316,0 -1.777386,-0.01 -2.866578,-0.01 -0.870183,0 -1.626015,0.6642 -1.53134,0.9646 0.03261,0.098 0.220443,0.055 0.538992,0.066 0.437307,0.011 0.815264,0.5276 0.815264,1.661 0,0.933 -2.89e-4,1.4245 -2.89e-4,2.429 0,0.804 -0.710148,1.0203 -1.149448,0.5658 -0.239036,-0.2468 -1.368891,-1.5003 -2.807856,-4.6674 -0.301394,-0.5703 -0.949189,-0.5878 -1.209909,-0.5878 z"
         style="fill:#e6e6e6;fill-opacity:1;stroke:#656565;stroke-opacity:1;stroke-width:0.8747003;stroke-miterlimit:4;stroke-dasharray:none;stroke-linejoin:round" />
    </g>
  </g>
</svg>
