<?xml version="1.0" encoding="UTF-8" standalone="no"?>
<!-- Created with Inkscape (http://www.inkscape.org/) -->

<svg
   xmlns:dc="http://purl.org/dc/elements/1.1/"
   xmlns:cc="http://creativecommons.org/ns#"
   xmlns:rdf="http://www.w3.org/1999/02/22-rdf-syntax-ns#"
   xmlns:svg="http://www.w3.org/2000/svg"
   xmlns="http://www.w3.org/2000/svg"
   xmlns:xlink="http://www.w3.org/1999/xlink"
   xmlns:sodipodi="http://sodipodi.sourceforge.net/DTD/sodipodi-0.dtd"
   xmlns:inkscape="http://www.inkscape.org/namespaces/inkscape"
   width="16"
   height="16"
   id="svg3301"
   version="1.1"
   inkscape:version="0.48.4 r9939"
   sodipodi:docname="unknown.svg">
  <defs
     id="defs3303">
    <linearGradient
       id="linearGradient3827">
      <stop
         id="stop3829"
         offset="0"
         style="stop-color:#dbdbdb;stop-opacity:1" />
      <stop
         id="stop3831"
         offset="1"
         style="stop-color:#f5f5f5;stop-opacity:1" />
    </linearGradient>
    <linearGradient
       inkscape:collect="always"
       xlink:href="#linearGradient3827"
       id="linearGradient3788"
       gradientUnits="userSpaceOnUse"
       gradientTransform="matrix(0.86905371,0.46131762,-0.39631343,1.0115979,414.93958,-16.811557)"
       x1="5.2746978"
       y1="1038.7067"
       x2="10.457751"
       y2="1050.0723" />
    <linearGradient
       inkscape:collect="always"
       xlink:href="#linearGradient3827"
       id="linearGradient3845"
       x1="8"
       y1="1040.3622"
       x2="8"
       y2="1035.3622"
       gradientUnits="userSpaceOnUse"
       gradientTransform="matrix(0.8412007,0,0,0.94747967,1.2703943,54.423603)" />
    <linearGradient
       id="linearGradient4800">
      <stop
         id="stop4802"
         offset="0"
         style="stop-color:#000000;stop-opacity:1;" />
      <stop
         id="stop4804"
         offset="1"
         style="stop-color:#fff6d5;stop-opacity:0;" />
    </linearGradient>
    <linearGradient
       id="linearGradient4794">
      <stop
         id="stop4796"
         offset="0"
         style="stop-color:#646464;stop-opacity:1;" />
      <stop
         id="stop4798"
         offset="1"
         style="stop-color:#969696;stop-opacity:1;" />
    </linearGradient>
  </defs>
  <sodipodi:namedview
     id="base"
     pagecolor="#ffffff"
     bordercolor="#666666"
     borderopacity="1.0"
     inkscape:pageopacity="0.0"
     inkscape:pageshadow="2"
     inkscape:zoom="13.943262"
     inkscape:cx="7.2332407"
     inkscape:cy="8.6946348"
     inkscape:document-units="px"
     inkscape:current-layer="layer1"
     showgrid="false"
     inkscape:window-width="1440"
     inkscape:window-height="848"
     inkscape:window-x="-8"
     inkscape:window-y="-8"
     inkscape:window-maximized="1">
    <inkscape:grid
       type="xygrid"
       id="grid3219"
       empspacing="5"
       visible="true"
       enabled="true"
       snapvisiblegridlinesonly="true" />
  </sodipodi:namedview>
  <metadata
     id="metadata3306">
    <rdf:RDF>
      <cc:Work
         rdf:about="">
        <dc:format>image/svg+xml</dc:format>
        <dc:type
           rdf:resource="http://purl.org/dc/dcmitype/StillImage" />
        <dc:title />
      </cc:Work>
    </rdf:RDF>
  </metadata>
  <g
     inkscape:label="Layer 1"
     inkscape:groupmode="layer"
     id="layer1"
     transform="translate(0,-1036.3622)">
    <path
       style="font-size:medium;font-style:normal;font-variant:normal;font-weight:normal;font-stretch:normal;text-indent:0;text-align:start;text-decoration:none;line-height:normal;letter-spacing:normal;word-spacing:normal;text-transform:none;direction:ltr;block-progression:tb;writing-mode:lr-tb;text-anchor:start;baseline-shift:baseline;opacity:0.07999998;color:#000000;fill:#000000;fill-opacity:1;fill-rule:nonzero;stroke:none;stroke-width:1;marker:none;visibility:visible;display:inline;overflow:visible;enable-background:accumulate;font-family:Sans;-inkscape-font-specification:Sans"
       d="m 2.5480177,1036.3673 c -0.8472481,-0.021 -1.5471267,0.7771 -1.54807377,1.7317 l 0,12.469 c -9.9991e-4,0.9542 0.67924237,1.7302 1.51441997,1.7319 9.7806181,0.1157 9.6301861,0.034 10.9374761,0.038 0.846963,0.021 1.547025,-0.7767 1.548075,-1.732 l 0,-12.5074 c 0.002,-0.5478 -0.159556,-1.01 -0.471154,-1.3084 -0.311596,-0.2981 -0.707924,-0.4065 -1.043266,-0.4233 -3.6478011,-0.014 -7.2912967,0.013 -10.9374773,0 z"
       id="path3803"
       inkscape:connector-curvature="0" />
    <path
       style="font-size:medium;font-style:normal;font-variant:normal;font-weight:normal;font-stretch:normal;text-indent:0;text-align:start;text-decoration:none;line-height:normal;letter-spacing:normal;word-spacing:normal;text-transform:none;direction:ltr;block-progression:tb;writing-mode:lr-tb;text-anchor:start;baseline-shift:baseline;opacity:0.1;color:#000000;fill:#000000;fill-opacity:1;fill-rule:nonzero;stroke:none;stroke-width:0.5;marker:none;visibility:visible;display:inline;overflow:visible;enable-background:accumulate;font-family:Sans;-inkscape-font-specification:Sans"
       d="m 2.5480177,1036.675 c -0.6939808,-0.017 -1.2780643,0.6385 -1.2788435,1.4239 l 0,12.4692 c -8.253e-4,0.7853 0.5572419,1.4227 1.2451897,1.4241 9.7790891,0.1157 9.6187611,0.034 10.9374761,0.038 0.693668,0.017 1.277981,-0.6382 1.278844,-1.4243 l 0,-12.5076 c 0.0018,-0.4859 -0.12502,-0.8428 -0.370191,-1.0777 -0.24517,-0.2345 -0.57207,-0.331 -0.874998,-0.3462 -3.6473242,-0.014 -7.2909786,0.013 -10.9374773,0 z"
       id="path3799"
       inkscape:connector-curvature="0" />
    <path
       sodipodi:nodetypes="cccccccccccc"
       inkscape:connector-curvature="0"
       id="path3005"
       d="m 13.862395,1037.0918 c -0.123773,-0.049 -0.252495,-0.086 -0.384822,-0.087 -3.6468466,-0.014 -7.2941311,-0.016 -10.9409477,-0.026 -0.5407137,-0.014 -0.9858037,0.5034 -0.986415,1.1192 l -0.011804,12.4675 c -6.478e-4,0.6161 0.44228,1.1238 0.9829976,1.1249 9.7775581,0.1156 9.6116881,0.018 10.9418301,0.022 0.540368,0.014 0.98574,-0.5031 0.986418,-1.1194 l 0.0118,-12.4673 c 4.43e-4,-0.4466 -0.228617,-0.8386 -0.566246,-1.0186 -0.01105,-4e-4 -0.02171,-0.014 -0.03291,-0.016 z"
       style="opacity:0.15;fill:#000000;fill-opacity:1;stroke:none" />
    <path
       style="opacity:0.3;fill:#000000;fill-opacity:1;stroke:none"
       d="m 13.443737,1037.2184 c -0.114932,-0.046 -0.234462,-0.081 -0.357336,-0.082 -3.3863665,-0.014 -6.77314,-0.015 -10.1594795,-0.024 -0.5020925,-0.014 -0.9153915,0.4772 -0.9159592,1.0611 l -0.010962,11.8185 c -6.016e-4,0.584 0.4106896,1.0654 0.9127859,1.0663 9.0791878,0.1098 8.9251638,0.017 10.1603008,0.021 0.50177,0.014 0.915331,-0.4769 0.915961,-1.0611 l 0.01095,-11.8185 c 4.12e-4,-0.4234 -0.212287,-0.7953 -0.525799,-0.9657 -0.01026,-4e-4 -0.02016,-0.014 -0.03055,-0.015 z"
       id="path3764"
       inkscape:connector-curvature="0"
       sodipodi:nodetypes="cccccccccccc" />
    <path
       sodipodi:nodetypes="cccccccccccc"
       inkscape:connector-curvature="0"
       id="path3786"
       d="m 13.443737,1036.4691 c -0.114932,-0.046 -0.234461,-0.081 -0.357336,-0.082 -3.3863657,-0.014 -6.7731395,-0.015 -10.159479,-0.024 -0.5020926,-0.014 -0.9153916,0.4773 -0.9159593,1.0611 l -0.010962,11.818 c -6.016e-4,0.584 0.4106896,1.0655 0.9127859,1.0664 9.0791864,0.1096 8.9251634,0.017 10.1603004,0.021 0.50177,0.014 0.915331,-0.477 0.915961,-1.0611 l 0.01095,-11.8181 c 4.11e-4,-0.4234 -0.212288,-0.795 -0.525799,-0.9655 -0.01026,-4e-4 -0.02016,-0.014 -0.03055,-0.015 z"
       style="fill:url(#linearGradient3788);fill-opacity:1;stroke:none" />
    <path
       id="path3824"
       d="m 2.1115,1037.9225 0,0.922 11.777,0 0,-0.922 z"
       style="opacity:0.15;fill:#000000;fill-opacity:1;stroke:none"
       inkscape:connector-curvature="0"
       sodipodi:nodetypes="ccccc" />
    <path
       style="fill:url(#linearGradient3845);fill-opacity:1;fill-rule:evenodd;stroke:#000000;stroke-width:0.223;stroke-miterlimit:4;stroke-opacity:0.17254902000000000;stroke-dasharray:none"
       d="m 3.0316584,1036.4741 c -0.4927538,-0.013 -0.9195063,0.4535 -0.9200633,1.0066 l 0,0.77 11.7768099,0 0,-0.7403 c 4.04e-4,-0.401 -0.218069,-0.7564 -0.525751,-0.9179 -0.01007,-4e-4 -0.01609,-0.028 -0.02628,-0.029 -0.112793,-0.043 -0.221147,-0.059 -0.341739,-0.059 -3.3233792,-0.013 -6.6396143,-0.021 -9.962969,-0.029 z"
       id="path3042"
       inkscape:connector-curvature="0"
       sodipodi:nodetypes="cccccccccc" />
    <path
       style="opacity:0.5;fill:#ffffff;fill-opacity:1;stroke:none"
       d="m 3.0252328,1036.3626 c -0.4927617,-0.014 -0.913176,0.4722 -0.9137331,1.056 l 0,0.6337 c 5.571e-4,-0.5839 0.4209714,-1.0696 0.9137331,-1.0561 3.3234093,0.01 6.6514858,-0.014 9.9749222,0 0.120593,0 0.217162,0.044 0.329957,0.091 0.01021,0 0.0407,0.03 0.05076,0.03 0.307686,0.1705 0.508034,0.542 0.507628,0.9654 l 0,-0.6336 c 4.06e-4,-0.4235 -0.199942,-0.7949 -0.507628,-0.9654 -0.01007,-4e-4 -0.04056,0 -0.05076,0 -0.112795,-0.046 -0.209364,-0.09 -0.329957,-0.091 -3.3234364,-0.014 -6.6515129,-0.022 -9.9749222,-0.03 z"
       id="path3805"
       inkscape:connector-curvature="0" />
    <path
       style="opacity:0.07999998;fill:#505050;fill-opacity:1;fill-rule:evenodd;stroke:none"
       d="M 3,3 3,4 3.3125,4 C 3.3510927,3.9090544 3.3602089,3.8104356 3.40625,3.71875 3.5279747,3.4763242 3.6931063,3.2316387 3.875,3 z m 9.46875,0 c 0.09819,0.1242925 0.179735,0.2713605 0.25,0.40625 C 12.81632,3.5936 12.882912,3.7885697 12.9375,4 L 13,4 13,3 z M 7.53125,5 C 7.4497,5.16493 7.340059,5.386029 7.28125,5.71875 L 7.1875,6 7.90625,6 c 0.2324218,-0.1660234 0.4725272,-0.3149969 0.5625,-0.40625 0.1224685,-0.1242 0.220403,-0.2665 0.25,-0.3125 0.00974,-0.0563 0,-0.14875 0,-0.21875 -10e-7,-0.034767 -0.00306,-0.038085 0,-0.0625 z M 3,7 3,8 6.21875,8 C 6.2554972,7.8951367 6.2922159,7.7826979 6.34375,7.6875 6.4786816,7.4411995 6.6523804,7.2287661 6.84375,7 z m 9.40625,0 C 12.39357,7.0197389 12.38797,7.0428952 12.375,7.0625 12.181767,7.3547 12.044523,7.65205 11.78125,7.90625 11.743398,7.9427994 11.695727,7.966145 11.65625,8 L 13,8 13,7 z M 3,9 3,10 c 0,0 2,0 3,0 C 6.010022,9.6414966 6.037584,9.3230049 6.0625,9 z m 7.4375,0 C 10.108157,9 10.015851,9.5246418 10,10 c 0.958333,0 3,0 3,0 L 13,9 z M 3,11 l 0,1 3,0 0,-1 z m 7,0 0,1 3,0 0,-1 z"
       transform="translate(0,1036.3622)"
       id="rect3781"
       inkscape:connector-curvature="0"
       sodipodi:nodetypes="cccccccccccccccccccccccccccccccccccccccccccccccccccccc" />
    <path
       inkscape:connector-curvature="0"
       id="path3783"
       style="font-size:5px;font-style:normal;font-variant:normal;font-weight:bold;font-stretch:normal;line-height:125%;letter-spacing:0px;word-spacing:0px;opacity:0.1;fill:#000000;fill-opacity:1;stroke:none;font-family:Raavi;-inkscape-font-specification:Raavi Bold"
       d="m 3.9999999,1041.8704 c 0.055298,-0.5355 0.19201,-1.0204 0.4101384,-1.4549 0.2181262,-0.4344 0.5038387,-0.8033 0.8571431,-1.1065 0.3533018,-0.3033 0.764974,-0.5369 1.2350231,-0.7009 0.4700423,-0.1639 0.9815626,-0.2459 1.5345623,-0.2459 0.5898566,10e-5 1.1274904,0.075 1.6129035,0.2255 0.4854007,0.1502 0.9016827,0.3593 1.2488487,0.627 0.347148,0.2678 0.617503,0.5874 0.811059,0.959 0.193539,0.3716 0.290314,0.776 0.290322,1.2131 -9e-6,0.2951 -0.04302,0.5724 -0.129033,0.832 -0.08603,0.2596 -0.205846,0.5055 -0.359448,0.7377 -0.153617,0.2322 -0.337949,0.4522 -0.552996,0.6598 -0.215061,0.2077 -0.45162,0.4071 -0.709677,0.5984 -0.2887929,0.2131 -0.5207439,0.4016 -0.6958527,0.5656 -0.1751201,0.1639 -0.293402,0.306 -0.3548382,0.4262 C 9.07526,1045.4415 8.9999925,1045.9579 9,1046.7557 l -2,0 c -3.8e-6,-1.0929 0.059902,-1.8607 0.2995384,-2.3033 0.2334841,-0.4262 0.6697353,-0.877 1.3087571,-1.3525 0.2764921,-0.2021 0.4915458,-0.3811 0.6451616,-0.5368 0.1536019,-0.1558 0.2703474,-0.2951 0.3502288,-0.4181 0.07987,-0.1229 0.129026,-0.2377 0.1474674,-0.3442 0.018423,-0.1066 0.027634,-0.2172 0.027634,-0.332 -6.4e-6,-0.2131 -0.041481,-0.4098 -0.124424,-0.5902 -0.082954,-0.1803 -0.2012363,-0.336 -0.3548382,-0.4672 -0.153617,-0.1311 -0.3348755,-0.2336 -0.543779,-0.3074 -0.2089149,-0.074 -0.4424013,-0.1106 -0.7004611,-0.1106 -1.0076841,0 -1.6221231,0.6257 -1.843318,1.877 z M 9,1049.3622 l -2,0 0,-2.0164 2,0 z"
       sodipodi:nodetypes="ccccccccccccccccccccccccccsccccccc" />
  </g>
</svg>
