<?xml version="1.0" encoding="UTF-8" standalone="no"?>
<!-- Created with Inkscape (http://www.inkscape.org/) -->

<svg
   xmlns:osb="http://www.openswatchbook.org/uri/2009/osb"
   xmlns:dc="http://purl.org/dc/elements/1.1/"
   xmlns:cc="http://creativecommons.org/ns#"
   xmlns:rdf="http://www.w3.org/1999/02/22-rdf-syntax-ns#"
   xmlns:svg="http://www.w3.org/2000/svg"
   xmlns="http://www.w3.org/2000/svg"
   xmlns:xlink="http://www.w3.org/1999/xlink"
   xmlns:sodipodi="http://sodipodi.sourceforge.net/DTD/sodipodi-0.dtd"
   xmlns:inkscape="http://www.inkscape.org/namespaces/inkscape"
   width="256"
   height="256"
   id="svg2"
   version="1.1"
   inkscape:version="0.48+devel r11760"
   sodipodi:docname="dock-offline-qutim-0.2.1.svg">
  <defs
     id="defs4">
    <linearGradient
       id="linearGradient4683">
      <stop
         style="stop-color:#89bfe9;stop-opacity:1;"
         offset="0"
         id="stop4685" />
      <stop
         style="stop-color:#d7ebff;stop-opacity:1"
         offset="1"
         id="stop4687" />
    </linearGradient>
    <linearGradient
       osb:paint="gradient"
       id="linearGradient4156">
      <stop
         id="stop4158"
         offset="0"
         style="stop-color:#a7a7a7;stop-opacity:1" />
      <stop
         style="stop-color:#e1e1e1;stop-opacity:1;"
         offset="1"
         id="stop4160" />
    </linearGradient>
    <linearGradient
       id="linearGradient4094-5">
      <stop
         id="stop4096-8"
         offset="0"
         style="stop-color:#aaaaaa;stop-opacity:1;" />
      <stop
         id="stop4098-6"
         offset="1"
         style="stop-color:#f0f0f0;stop-opacity:1;" />
    </linearGradient>
    <linearGradient
       inkscape:collect="always"
       xlink:href="#linearGradient4094-5"
       id="linearGradient4422"
       gradientUnits="userSpaceOnUse"
       gradientTransform="matrix(0.26852898,0,0,0.26852898,-6.2047957,776.47961)"
       x1="623.2478"
       y1="993.46124"
       x2="623.2478"
       y2="98.363487" />
    <linearGradient
       inkscape:collect="always"
       xlink:href="#linearGradient4683"
       id="linearGradient831"
       x1="189.41527"
       y1="-967.00433"
       x2="327.72147"
       y2="-840.10974"
       gradientUnits="userSpaceOnUse" />
  </defs>
  <sodipodi:namedview
     id="base"
     pagecolor="#ffffff"
     bordercolor="#666666"
     borderopacity="1.0"
     inkscape:pageopacity="0.0"
     inkscape:pageshadow="2"
     inkscape:zoom="1.7043185"
     inkscape:cx="65.140586"
     inkscape:cy="122.48588"
     inkscape:document-units="px"
     inkscape:current-layer="layer1"
     showgrid="false"
     inkscape:window-width="1440"
     inkscape:window-height="848"
     inkscape:window-x="-8"
     inkscape:window-y="-8"
     inkscape:window-maximized="1" />
  <metadata
     id="metadata7">
    <rdf:RDF>
      <cc:Work
         rdf:about="">
        <dc:format>image/svg+xml</dc:format>
        <dc:type
           rdf:resource="http://purl.org/dc/dcmitype/StillImage" />
        <dc:title />
      </cc:Work>
    </rdf:RDF>
  </metadata>
  <g
     inkscape:label="Layer 1"
     inkscape:groupmode="layer"
     id="layer1"
     transform="translate(0,-796.36218)">
    <path
       style="opacity:0.07999998;fill:#000000;fill-opacity:1;fill-rule:nonzero;stroke:none"
       d="m 169.88307,796.36754 c -9.69722,1.13009 -17.67207,7.41379 -26.70366,10.6286 -45.502441,20.79517 -91.230004,41.09964 -136.5619496,62.26862 -7.32785782,5.12572 -8.6537707,16.35688 -3.558009,23.46272 23.4030496,50.95498 46.0949406,102.23559 69.8175346,153.04472 5.138791,7.3796 16.481544,8.6124 23.655725,3.4405 50.875969,-23.3454 102.056619,-46.0467 152.797349,-69.67412 7.30423,-5.09603 8.68387,-16.30461 3.62081,-23.42147 -23.35796,-50.86489 -46.0815,-102.02975 -69.66651,-152.7846 -2.96663,-4.32375 -8.15923,-7.10937 -13.40129,-6.96497 z m -7.84607,38.72691 c 1.72423,2.54304 2.20694,5.69934 3.82979,8.31222 17.17764,38.29682 35.11747,76.25815 51.74734,114.79154 -2.61483,1.96086 -5.98605,2.39124 -8.74922,4.10527 -38.24725,17.19359 -76.21096,35.06952 -114.665044,51.72362 -2.088963,-2.6776 -2.445177,-6.2045 -4.259037,-9.0333 -17.144485,-38.14623 -34.990247,-75.98645 -51.578208,-114.37259 2.412845,-1.98367 5.683614,-2.26247 8.278587,-3.94741 38.405028,-17.26005 76.512892,-35.19288 115.144052,-51.93179 l 0.15607,0.21851 0.0957,0.13393 z"
       id="path4054-4"
       inkscape:connector-curvature="0" />
    <path
       style="opacity:0.1;fill:#000000;fill-opacity:1;fill-rule:nonzero;stroke:none"
       d="m 169.45512,798.53255 c -8.10539,1.14547 -14.82347,6.3434 -22.40827,9.04472 -46.35964,21.18148 -92.915856,41.93284 -139.1454854,63.39937 -6.380015,4.39722 -7.51047365,14.19919 -3.1132579,20.35785 23.3682883,51.00176 46.1572933,102.2691 69.8007513,153.14541 4.398688,6.3888 14.162498,7.4778 20.315896,3.1133 50.945896,-23.3026 102.097866,-46.1579 152.952446,-69.65811 6.54881,-4.31893 7.76621,-14.17843 3.33983,-20.45856 -23.27032,-50.862 -46.101,-101.9238 -69.54063,-152.70907 -2.60508,-3.97346 -7.4201,-6.54611 -12.20128,-6.23491 z m -7.48525,33.91018 c 2.8919,0.98175 2.99064,4.51878 4.3578,6.80001 17.82777,39.62762 36.23943,79.00159 53.67803,118.79603 -0.5333,2.88222 -3.9448,3.22062 -6.07697,4.33117 -39.93582,17.9549 -79.59644,36.5386 -119.720473,54.05706 -2.920792,-0.8268 -3.199609,-4.3205 -4.440317,-6.6056 -17.865319,-39.74257 -36.368335,-79.20581 -53.805297,-119.13306 0.605742,-2.84082 3.930351,-3.17246 6.100643,-4.28807 39.927039,-17.955 79.571334,-36.55622 119.705194,-54.03307 l 0.20139,0.0755 z"
       id="path4024-2"
       inkscape:connector-curvature="0" />
    <rect
       ry="8.2263708"
       rx="8.2257328"
       transform="matrix(-0.91049114,0.41352858,-0.41344788,-0.91052779,0,0)"
       y="-982.35785"
       x="183.32361"
       height="168.23087"
       width="168.21782"
       id="rect4679"
       style="fill:url(#linearGradient831);fill-opacity:1;fill-rule:nonzero;stroke:none" />
    <path
       style="opacity:0.15;fill:#000000;fill-opacity:1;fill-rule:nonzero;stroke:none"
       d="m 169.40477,800.65561 c -5.99134,0.80426 -10.94006,4.59843 -16.53623,6.62404 -47.80973,21.80929 -95.764004,43.31041 -143.490266,65.29977 -5.3982113,3.52549 -6.6533963,11.59878 -3.0941548,16.84277 23.3980118,51.23317 46.3874468,102.66357 70.0295088,153.78031 3.640214,5.3218 11.719612,6.3718 16.938967,2.7772 51.085805,-23.32 102.337375,-46.28517 153.337495,-69.79005 5.40828,-3.5072 6.64526,-11.58943 3.08605,-16.8429 -23.25392,-51.04823 -46.28535,-102.19828 -69.67288,-153.1863 -2.22149,-3.55269 -6.40235,-5.74987 -10.59849,-5.50484 z m -7.61951,29.56336 c 3.09069,0.089 4.6467,3.36581 5.47297,5.9005 18.25696,40.37089 36.80214,80.61569 54.84535,121.08014 0.54552,2.95957 -2.18773,5.42584 -4.8683,6.01852 -40.71296,18.40803 -81.29369,37.12397 -122.112346,55.28997 -2.962482,0.5262 -5.378517,-2.2362 -5.984724,-4.8851 -18.384319,-40.69674 -37.087789,-81.25337 -55.27345,-122.03676 -0.529681,-2.96111 2.182488,-5.45284 4.868305,-6.02691 40.69316,-18.39451 81.253675,-37.09979 122.045205,-55.26483 0.33336,-0.0517 0.66977,-0.0725 1.00699,-0.0755 z"
       id="path4010-8"
       inkscape:connector-curvature="0" />
    <path
       style="opacity:0.3;fill:#000000;fill-opacity:1;fill-rule:nonzero;stroke:none"
       d="m 169.7476,803.33251 c -1.18972,0.0325 -2.39327,0.30765 -3.54848,0.83226 L 12.305498,874.04452 c -4.6208685,2.09843 -6.6532274,7.51512 -4.5547675,12.13589 L 77.63841,1040.0657 c 2.098469,4.6208 7.50752,6.6531 12.128391,4.5547 L 243.66047,974.7331 c 4.62085,-2.09843 6.65323,-7.50755 4.55476,-12.12833 l -69.8877,-153.89282 c -1.57388,-3.46558 -5.01072,-5.477 -8.57993,-5.37944 z m -8.35292,24.21126 c 2.85535,-0.078 5.60334,1.53256 6.86242,4.30506 l 55.91319,123.11426 c 1.67876,3.69667 0.0498,8.02087 -3.64684,9.69963 L 97.408521,1020.5756 c -3.696693,1.6788 -8.020918,0.05 -9.699686,-3.6468 L 31.795661,893.81453 c -1.67877,-3.69667 -0.04985,-8.02087 3.646839,-9.69964 l 123.11491,-55.91288 c 0.92417,-0.41969 1.88547,-0.63222 2.83727,-0.65824 z"
       id="path4022-2"
       inkscape:export-filename="C:\Users\Madnester\Desktop\Sketches\256.png"
       inkscape:export-xdpi="23.039482"
       inkscape:export-ydpi="23.039482"
       inkscape:connector-curvature="0" />
    <path
       inkscape:connector-curvature="0"
       inkscape:export-ydpi="23.039482"
       inkscape:export-xdpi="23.039482"
       inkscape:export-filename="C:\Users\Madnester\Desktop\Sketches\256.png"
       id="path4021-8"
       d="m 169.7476,800.64722 c -1.18972,0.0325 -2.39327,0.30765 -3.54848,0.83226 L 12.305498,871.35923 c -4.6208685,2.09843 -6.6532274,7.51512 -4.5547675,12.13589 L 77.63841,1037.3804 c 2.098469,4.6208 7.50752,6.6531 12.128391,4.5547 L 243.66047,972.04781 c 4.62085,-2.09843 6.65323,-7.50755 4.55476,-12.12833 l -69.8877,-153.89282 c -1.57388,-3.46558 -5.01072,-5.477 -8.57993,-5.37944 z m -8.35292,24.21126 c 2.85535,-0.078 5.60334,1.53256 6.86242,4.30506 l 55.91319,123.11426 c 1.67876,3.69667 0.0498,8.02087 -3.64684,9.69963 L 97.408521,1017.8903 c -3.696693,1.6788 -8.020918,0.05 -9.699686,-3.6468 L 31.795661,891.12924 c -1.67877,-3.69667 -0.04985,-8.02087 3.646839,-9.69964 l 123.11491,-55.91288 c 0.92417,-0.41969 1.88547,-0.63222 2.83727,-0.65824 z"
       style="fill:url(#linearGradient4422);fill-opacity:1;fill-rule:nonzero;stroke:none" />
    <path
       inkscape:connector-curvature="0"
       style="opacity:0.6;fill:#ffffff;fill-opacity:1;fill-rule:nonzero;stroke:none"
       d="m 169.7487,800.64381 c -1.18973,0.0325 -2.3944,0.31454 -3.54961,0.83915 L 12.306805,871.35923 c -4.1633951,1.89068 -6.2190903,6.47219 -5.0517011,10.74116 0.6966821,-2.52654 2.4699497,-4.73521 5.0517011,-5.90763 L 166.19909,806.31648 c 1.15521,-0.52461 2.35988,-0.80663 3.54961,-0.83915 3.5692,-0.0976 7.00229,1.91339 8.57615,5.37897 l 69.89306,153.90067 c 0.20775,0.45746 0.36682,0.91566 0.4951,1.3846 0.55025,-1.99387 0.43093,-4.17904 -0.4951,-6.21812 L 178.32485,806.02278 c -1.57386,-3.46558 -5.00695,-5.47653 -8.57615,-5.37897 z m -138.200115,89.8649 c -0.602144,1.71585 -0.571588,3.65998 0.243354,5.45449 l 55.912769,123.1121 c 1.678768,3.6967 6.003916,5.3291 9.700609,3.6504 L 220.52585,966.8129 c 3.49266,-1.58611 5.13838,-5.53937 3.89367,-9.08803 -0.63769,1.82045 -1.99013,3.39006 -3.89367,4.2545 L 97.405317,1017.8921 c -3.696693,1.6788 -8.021841,0.046 -9.700609,-3.6503 L 31.791939,891.12968 c -0.09353,-0.20595 -0.170145,-0.41169 -0.243354,-0.62097 z"
       id="path4080" />
  </g>
</svg>
