<svg xmlns="http://www.w3.org/2000/svg" viewBox="0 0 16 16">
<defs>
<linearGradient xlink:href="#linearGradient3806-4" id="linearGradient3765" y1="1.091" x1="8.003" y2="15" gradientUnits="userSpaceOnUse" x2="8.033"/>
<linearGradient xlink:href="#linearGradient3290-7" id="linearGradient3868" y1="14.885" x1="8.028" y2="1.079" gradientUnits="userSpaceOnUse" x2="8.007"/>
<linearGradient id="linearGradient3290-7">
<stop offset="0" stop-color="#ba0000"/>
<stop offset="1" stop-color="#ff331e"/>
</linearGradient>
<linearGradient id="linearGradient3806-4">
<stop offset="0" stop-color="#fff6d5" stop-opacity=".5"/>
<stop offset="1" stop-color="#fff6d5" stop-opacity="0"/>
</linearGradient>
</defs>
<g transform="translate(0 -1036.3622)">
<path opacity=".3" direction="ltr" block-progression="tb" fill-rule="evenodd" color="#000000" d="m8,2c-.8284,0-1.5,.6716-1.5,1.5c0,.8285 .6716,1.5 1.5,1.5c.8284,0 1.5-.6715 1.5-1.5c0-.8284-.6716-1.5-1.5-1.5zm-3.4688,.9688c-2.0966,1.2095-3.5312,3.4457-3.5312,6.0312c0,3.853 3.1526,7 7,7c3.8474,0 7-3.147 7-7c0-2.5856-1.4346-4.8217-3.5312-6.0312c.0176,.1421 .0312,.2906 .0312,.4375c0,.9665-.3979,1.8354-1.0312,2.4688c.9299,.7273 1.5312,1.843 1.5312,3.125c0,2.2189-1.7764,4-4,4c-2.2236,0-4-1.7811-4-4c0-1.282 .6013-2.3977 1.5312-3.125c-.6334-.6334-1.0312-1.5023-1.0312-2.4688c0-.1469 .0137-.2954 .0312-.4375z" transform="translate(0 1036.3622)"/>
<path direction="ltr" fill="url(#linearGradient3868)" block-progression="tb" fill-rule="evenodd" stroke="#a00000" color="#000000" stroke-width=".2" d="m8,1c-.8284,0-1.5,.6716-1.5,1.5c0,.8284 .6716,1.5 1.5,1.5c.8284,0 1.5-.6716 1.5-1.5c0-.8284-.6716-1.5-1.5-1.5zm-3.4375,.9375c-2.1168,1.2042-3.5625,3.4618-3.5625,6.0625c0,3.853 3.1526,7 7,7c3.8474,0 7-3.147 7-7c0-2.6007-1.4457-4.8583-3.5625-6.0625c.029,.1813 .0625,.373 .0625,.5625c0,.9344-.3721,1.7785-.9688,2.4062c.8987,.7281 1.4688,1.8369 1.4688,3.0938c0,2.2189-1.7764,4-4,4c-2.2236,0-4-1.7811-4-4c0-1.2569 .5701-2.3657 1.4688-3.0938c-.5967-.6277-.9688-1.4718-.9688-2.4062c0-.1895 .0335-.3812 .0625-.5625z" transform="translate(0 1036.3622)"/>
<path direction="ltr" fill="url(#linearGradient3765)" block-progression="tb" fill-rule="evenodd" color="#000000" d="m8,1c-.8284,0-1.5,.6716-1.5,1.5c0,.1726 .0401,.3457 .0938,.5c.2038-.5864 .7504-1 1.4062-1c.6558,0 1.2024,.4136 1.4062,1c.0536-.1543 .0938-.3274 .0938-.5c0-.8284-.6716-1.5-1.5-1.5zm-3.4375,.9375c-2.1168,1.2042-3.5625,3.4618-3.5625,6.0625c0,.199 .0148,.3988 .0312,.5938c.1412-2.4191 1.5064-4.5123 3.5-5.6562c-.0182-.1433-.0312-.2891-.0312-.4375c0-.1895 .0335-.3812 .0625-.5625zm6.875,0c.029,.1813 .0625,.373 .0625,.5625c0,.1484-.0131,.2942-.0312,.4375c1.9936,1.1439 3.3588,3.2372 3.5,5.6562c.0165-.1949 .0312-.3947 .0312-.5938c0-2.6007-1.4457-4.8583-3.5625-6.0625zm-6.875,1.125c-.0227,.1446-.0625,.2897-.0625,.4375c0,.6862 .1884,1.3362 .5312,1.875c.1428-.1602 .2704-.3334 .4375-.4688c-.4744-.4991-.7899-1.1344-.9062-1.8438zm6.875,0c-.1163,.7093-.4318,1.3447-.9062,1.8438c.1671,.1354 .2947,.3085 .4375,.4688c.3428-.5388 .5312-1.1888 .5312-1.875c0-.1478-.0398-.2929-.0625-.4375zm-7.375,5.3438c-.0286,.194-.0625,.3911-.0625,.5938c0,2.2189 1.7764,4 4,4c2.2236,0 4-1.7811 4-4c0-.2027-.0339-.3998-.0625-.5938c-.2041,2.0231-1.8534,3.5938-3.9375,3.5938c-2.0841,0-3.7334-1.5706-3.9375-3.5938z" transform="translate(0 1036.3622)"/>
</g>
</svg>
