<svg xmlns="http://www.w3.org/2000/svg" viewBox="0 0 1000 1000">
<defs>
<linearGradient gradientTransform="matrix(5.38241 5.38241 -5.38241 5.38241 501.00017 -189.74218)" xlink:href="#linearGradient3290-7" id="linearGradient3022" y1="106.055" x1="104.436" y2="24.448" gradientUnits="userSpaceOnUse" x2="24.202"/>
<linearGradient xlink:href="#linearGradient3806-4" id="linearGradient3787" y1="70.942" y2="934.65" x2="0" gradientUnits="userSpaceOnUse"/>
<linearGradient id="linearGradient3290-7">
<stop offset="0" stop-color="#ba0000"/>
<stop offset="1" stop-color="#ff331e"/>
</linearGradient>
<linearGradient id="linearGradient3806-4">
<stop offset="0" stop-color="#fff6d5"/>
<stop offset="1" stop-color="#fff6d5" stop-opacity="0"/>
</linearGradient>
</defs>
<g transform="translate(0 -52.36218)">
<path opacity=".1" d="m496.0625,69.375c-40.8388,.1069-81.3379,6.8333-120.8438,16.7188c.0144,193.5104 .0937,512.5312 .0937,512.5312l258.6562-.0312c0,0-.0793-317.5209-.0937-510.2813c-44.814-12.4537-91.1981-19.6616-137.8125-18.9375zm219.5,415.75c40.9139,85.8646 21.2132,195.9462-45.2853,263.0973c-58.7452,61.7047-152.8893,87.0364-234.8084,62.4027c-78.9946-22.6959-144.9135-89.3093-163.5938-169.8438c-12.4461-50.5518-5.2365-117.5394 14.4397-165.4595c.6029-213.1082 1.2743-17.2575 1.6853-304.478c-155.3656,77.7268-256.7061,250.0447-251.5773,423.5615c3.376,155.8289 90.2146,307.4925 224.4468,387.0076c119.148,71.8186 271.9328,87.4005 402.3789,37.4225c124.124-46.3572 227.3885-147.3142 272.6578-272.3666c45.0739-120.0361 38.5696-259.3071-20.9529-373.2353c-40.5567-79.8464-104.5574-147.0289-181.2659-193.0459c-7.2789-4.8643-14.4928-9.8247-21.6875-14.8125c4.3814,111.1481 .7139,2.9954 3.5625,319.75z"/>
<path opacity=".15" d="m496.1875,87.375c-34.6967,.1942-69.3641,5.057-102.9688,12.9688c.0143,182.7604 .0937,476.2812 .0937,476.2812l222.6562-.0312c0,0-.0794-292.2709-.0937-474.4063c-39.0294-10.0096-79.3297-15.3644-119.6875-14.8125zm233.8125,115.75c1.2456,91.4222-2.4193,182.9832 1.875,274.3125c38.304,81.207 28.1211,183.1168-25.625,255.0312c-49.1549,70.7832-137.0113,111.5555-222.8728,104.5591c-70.8147-4.6179-139.3353-40.5054-182.4284-96.8481c-46.9968-59.8329-65.6141-141.2047-47.0727-215.1863c3.8595-17.5266 10.6701-34.3711 15.8483-51.4309c.604-90.6968 .111-181.3959 .2757-272.0938c-137.6209,81.6949-224.081,242.6323-214.875,402.875c5.9533,133.5405 74.9099,263.4334 183.9602,340.6465c95.8797,69.733 220.1695,99.4699 337.2331,78.5045c118.2206-20.073 227.4201-89.3465 293.9941-189.2134c66.08-97.1258 92.3523-221.293 68.5897-336.8877c-21.2382-108.5934-84.0575-208.9167-174.0022-273.8123c-11.3241-8.4458-23.0764-16.3041-34.9-24.2063c0,1.25 0,2.5 0,3.75z"/>
<path opacity=".3" d="m501,117.3622c-29.428,0-58.8628,3.043-87.7812,9.0938c.0358,170.7536 .0938,430.1562 .0938,430.1562l182.6562-.0312c0,0-.0598-258.3969-.0937-428.5938c-31.1929-7.0824-63.0371-10.625-94.875-10.625zm249,120.1562 0,231.5c30.352,66.0572 33.0526,141.7317 8.0938,209.5c-15.1282,37.0163-39.4925,74.807-63.2188,98.9062c-101.195,101.1949-262.0619,106.6312-369.6876,16.3437c-14.4162-12.7611-26.8756-24.9774-38.0312-38.875c-64.8588-80.7768-77.2549-189.8638-37.1562-281.4375v-234.4688c-17.6293,12.8695-34.4921,27.2421-50.4062,43.1562c-166.3816,166.3816-166.3812,436.4626 0,602.8438c166.3812,166.3812 436.4309,166.3816 602.8125,0c166.3812-166.3812 166.3812-436.4626 0-602.8438c-16.5169-16.5169-34.0492-31.3877-52.4062-44.625z"/>
<path fill="url(#linearGradient3022)" stroke="#a00000" stroke-linecap="round" stroke-width="20" d="m501,23c-29.428,0-58.8628,3.043-87.7812,9.0938c.0359,170.7535 .0937,442.1562 .0937,442.1562l182.6562-.0312c0,0-.0657-289.0254-.0937-440.5938c-31.1929-7.0825-63.0371-10.625-94.875-10.625zm249,130.1562 0,231.5c30.352,66.0572 33.0526,141.7317 8.0938,209.5c-15.1282,37.0163-39.4925,74.807-63.2188,98.9062c-101.1949,101.1949-262.0618,106.6312-369.6875,16.3438c-14.4162-12.7611-26.8756-24.9774-38.0312-38.875c-64.8588-80.7768-77.2549-189.8638-37.1562-281.4375v-234.4688c-17.6293,12.8695-34.4921,27.2421-50.4062,43.1562c-166.3816,166.3816-166.3812,436.4626 0,602.8438c166.3812,166.3812 436.4309,166.3816 602.8125,0c166.3812-166.3812 166.3812-436.4626 0-602.8438c-16.5169-16.5169-34.0492-31.3877-52.4062-44.625z" transform="translate(0 52.36218)"/>
<path opacity=".5" fill="url(#linearGradient3787)" d="m501,23c-29.428,0-58.8628,3.043-87.7812,9.0938l.0312,74c60.2134-12.5966 122.6251-12.0758 182.6562,1.5625l-.0312-74.0312c-31.1929-7.0824-63.0371-10.625-94.875-10.625zm249,130.1562 0,74c18.3573,13.2376 35.8894,28.1081 52.4062,44.625c73.7724,73.7724 114.8356,167.9414 123.1875,264.4062c10.4747-121.0856-30.5866-245.8054-123.1875-338.4062c-16.5169-16.5169-34.0492-31.3877-52.4062-44.625zm-500,1.4688c-17.6293,12.8695-34.4921,27.2421-50.4062,43.1562c-92.6011,92.6011-133.6622,217.3206-123.1875,338.4062c8.352-96.4649 49.4149-190.6337 123.1875-264.4062c15.9141-15.9141 32.7767-30.2864 50.4062-43.1562zm345.875,161.5625 .1562,513.875c36.0112-13.2827 69.8446-34.1883 98.75-63.0938c62.9046-62.9046 88.7734-148.8535 77.6875-230.75c-7.7658,57.3516-33.6356,112.6981-77.6875,156.75c-28.9054,28.9054-62.7388,49.8111-98.75,63.0938l-.0938-408.3125l-.0312-105.5625c-.009-.003-.0221,.003-.0312,0zm-366.3438,220.0312c-11.0858,81.8964 14.7829,167.8454 77.6875,230.75c30.8845,30.8845 67.3672,52.7316 106.1562,65.7812l-.0312-74c-38.7786-13.0507-75.248-34.9042-106.125-65.7812c-44.0519-44.0519-69.9217-99.3984-77.6875-156.75z" transform="translate(0 52.36218)"/>
</g>
</svg>
