<svg xmlns="http://www.w3.org/2000/svg" viewBox="0 0 16 16">
<defs>
<linearGradient gradientTransform="matrix(.02217 0 0 .02217 25.96881 1039.6289)" xlink:href="#linearGradient4148" id="linearGradient3015" y1="-102.646" y2="507.571" gradientUnits="userSpaceOnUse" x2="0"/>
<linearGradient xlink:href="#linearGradient4108" id="linearGradient3870" y1="504.689" y2="-104.34" x2="0" gradientUnits="userSpaceOnUse"/>
<linearGradient id="linearGradient4108">
<stop offset="0" stop-color="#e66c00"/>
<stop offset="1" stop-color="#ffe991"/>
</linearGradient>
<linearGradient id="linearGradient4148">
<stop offset="0" stop-color="#fffad5"/>
<stop offset="1" stop-color="#fff6d5" stop-opacity="0"/>
</linearGradient>
</defs>
<g transform="translate(0 -1036.3622)">
<path opacity=".08" d="m-607.3723,500.9846c-.6216,.4649-198.2422-74.6249-199.0183-74.6141c-.7761,.0107-196.2497,80.5241-196.8839,80.0766c-.6342-.4475 9.7122-211.5999 9.4622-212.3347c-.25-.7348-137.2275-161.7613-136.9978-162.5028c.2296-.7414 204.2447-56.1511 204.8663-56.6159c.6216-.4648 111.4385-180.4981 112.2146-180.5088c.7761-.0107 116.5179,176.8966 117.1521,177.3441c.6342,.4475 206.1003,50.2074 206.3503,50.9422c.25,.7348-132.2327,165.4792-132.4623,166.2206c-.2296,.7414 15.9385,211.528 15.3169,211.9928z" transform="matrix(.02498 0 0 .02498 28.24449 1039.3551)"/>
<path opacity=".15" d="m-607.3723,500.9846c-.6239,.4666-198.2694-76.8062-199.0484-76.7955c-.779,.0107-196.2173,82.7071-196.8538,82.2579c-.6366-.4492 11.7785-212.2998 11.5275-213.0374c-.251-.7376-139.2936-161.0558-139.0631-161.8001c.2305-.7442 205.5488-54.4022 206.1728-54.8688c.6239-.4666 110.1291-182.2451 110.9081-182.2559c.779-.0108 115.2577,178.6774 115.8943,179.1266c.6366,.4492 207.3572,48.4222 207.6081,49.1597c.251,.7376-134.3157,164.8309-134.5462,165.5752c-.2305,.7442 18.0247,212.1716 17.4008,212.6382z" transform="matrix(.02354 0 0 .02354 27.0799 1039.6961)"/>
<path opacity=".3" d="m-607.3723,500.9846c-.6218,.465-198.2449-74.841-199.0213-74.8303c-.7764,.0107-196.2466,80.7404-196.881,80.2927c-.6344-.4477 9.917-211.6693 9.6669-212.4043c-.2501-.7351-137.4323-161.6914-137.2025-162.4331c.2297-.7417 204.3739-55.9778 204.9957-56.4428c.6218-.465 111.3088-180.6712 112.0852-180.6819c.7764-.0107 116.3931,177.0731 117.0275,177.5208c.6344,.4477 206.2248,50.0305 206.4749,50.7656c.2501,.7351-132.4391,165.415-132.6688,166.1567c-.2297,.7417 16.1452,211.5917 15.5234,212.0567z" transform="matrix(.02217 0 0 .02217 25.96881 1040.0129)"/>
<path fill="url(#linearGradient3870)" stroke="#a07200" stroke-width="14.434" d="m-607.3723,500.9846c-.6218,.465-198.2449-74.841-199.0213-74.8303c-.7764,.0107-196.2466,80.7404-196.881,80.2927c-.6344-.4477 9.917-211.6693 9.6669-212.4043c-.2501-.7351-137.4323-161.6914-137.2025-162.4331c.2297-.7417 204.3739-55.9778 204.9957-56.4428c.6218-.465 111.3088-180.6712 112.0852-180.6819c.7764-.0107 116.3931,177.0731 117.0275,177.5208c.6344,.4477 206.2248,50.0305 206.4749,50.7656c.2501,.7351-132.4391,165.415-132.6688,166.1567c-.2297,.7417 16.1452,211.5917 15.5234,212.0567z" transform="matrix(.02217 0 0 .02217 25.96881 1039.6289)"/>
<path opacity=".5" fill="url(#linearGradient3015)" d="m7.929,1037.2898c-.0172,.0002-2.4712,3.9952-2.485,4.0055c-.0138,.01-4.5394,1.235-4.5445,1.2515c-.0014,0 .2432,.2959 .583,.698c1.2124-.3355 3.9507-1.0775 3.9615-1.0855c.0138-.01 2.4678-4.0053 2.485-4.0055c.0172-.0003 2.5804,3.9256 2.5945,3.9355c.011,.01 2.8004,.6814 4.0095,.9805c.3305-.4138 .5691-.7145 .5675-.719c-.0055-.016-4.5629-1.1156-4.577-1.1255c-.0141-.01-2.5773-3.9358-2.5945-3.9355zm4.288,9.535c-.0334,.042-.0571,.072-.0575,.074c-.0037,.012 .1851,2.4613 .2845,3.817c.0365,.013 .0586,.021 .0595,.02c.0102-.01-.1862-2.5756-.2865-3.9105zm-8.3125,.142c-.0638,1.3435-.1884,3.8827-.178,3.89c.0007,.0005 .0147,0 .035-.013c.0618-1.3561 .1835-3.8207 .1795-3.8325c-.0004,0-.0132-.017-.0365-.045z"/>
</g>
</svg>
