<svg xmlns="http://www.w3.org/2000/svg" viewBox="0 0 1000 1000">
<defs>
<linearGradient gradientTransform="matrix(1.3856 0 0 1.3856 1623.0509 212.50429)" xlink:href="#linearGradient4148" id="linearGradient3801" y1="-102.646" y2="507.571" gradientUnits="userSpaceOnUse" x2="0"/>
<linearGradient xlink:href="#linearGradient4108" id="linearGradient3870" y1="504.689" y2="-104.34" x2="0" gradientUnits="userSpaceOnUse"/>
<linearGradient id="linearGradient4108">
<stop offset="0" stop-color="#e66c00"/>
<stop offset="1" stop-color="#ffe991"/>
</linearGradient>
<linearGradient id="linearGradient4148">
<stop offset="0" stop-color="#fffad5"/>
<stop offset="1" stop-color="#fff6d5" stop-opacity="0"/>
</linearGradient>
</defs>
<g transform="translate(0 -52.36218)">
<path opacity=".08" d="m-607.3723,500.9846c-.6216,.4649-198.2422-74.6249-199.0183-74.6141c-.7761,.0107-196.2497,80.5241-196.8839,80.0766c-.6342-.4475 9.7122-211.5999 9.4622-212.3347c-.25-.7348-137.2275-161.7613-136.9978-162.5028c.2296-.7414 204.2447-56.1511 204.8663-56.6159c.6216-.4648 111.4385-180.4981 112.2146-180.5088c.7761-.0107 116.5179,176.8966 117.1521,177.3441c.6342,.4475 206.1003,50.2074 206.3503,50.9422c.25,.7348-132.2327,165.4792-132.4623,166.2206c-.2296,.7414 15.9385,211.528 15.3169,211.9928z" transform="matrix(1.56108 0 0 1.56108 1765.2808 247.75735)"/>
<path opacity=".15" d="m-607.3723,500.9846c-.6239,.4666-198.2694-76.8062-199.0484-76.7955c-.779,.0107-196.2173,82.7071-196.8538,82.2579c-.6366-.4492 11.7785-212.2998 11.5275-213.0374c-.251-.7376-139.2936-161.0558-139.0631-161.8001c.2305-.7442 205.5488-54.4022 206.1728-54.8688c.6239-.4666 110.1291-182.2451 110.9081-182.2559c.779-.0108 115.2577,178.6774 115.8943,179.1266c.6366,.4492 207.3572,48.4222 207.6081,49.1597c.251,.7376-134.3157,164.8309-134.5462,165.5752c-.2305,.7442 18.0247,212.1716 17.4008,212.6382z" transform="matrix(1.47154 0 0 1.47154 1692.4939 269.07119)"/>
<path opacity=".3" d="m-607.3723,500.9846c-.6218,.465-198.2449-74.841-199.0213-74.8303c-.7764,.0107-196.2466,80.7404-196.881,80.2927c-.6344-.4477 9.917-211.6693 9.6669-212.4043c-.2501-.7351-137.4323-161.6914-137.2025-162.4331c.2297-.7417 204.3739-55.9778 204.9957-56.4428c.6218-.465 111.3088-180.6712 112.0852-180.6819c.7764-.0107 116.3931,177.0731 117.0275,177.5208c.6344,.4477 206.2248,50.0305 206.4749,50.7656c.2501,.7351-132.4391,165.415-132.6688,166.1567c-.2297,.7417 16.1452,211.5917 15.5234,212.0567z" transform="matrix(1.3856 0 0 1.3856 1623.0509 288.86647)"/>
<path fill="url(#linearGradient3870)" stroke="#a07200" stroke-width="14.434" d="m-607.3723,500.9846c-.6218,.465-198.2449-74.841-199.0213-74.8303c-.7764,.0107-196.2466,80.7404-196.881,80.2927c-.6344-.4477 9.917-211.6693 9.6669-212.4043c-.2501-.7351-137.4323-161.6914-137.2025-162.4331c.2297-.7417 204.3739-55.9778 204.9957-56.4428c.6218-.465 111.3088-180.6712 112.0852-180.6819c.7764-.0107 116.3931,177.0731 117.0275,177.5208c.6344,.4477 206.2248,50.0305 206.4749,50.7656c.2501,.7351-132.4391,165.415-132.6688,166.1567c-.2297,.7417 16.1452,211.5917 15.5234,212.0567z" transform="matrix(1.3856 0 0 1.3856 1623.0509 264.86647)"/>
<path opacity=".5" fill="url(#linearGradient3801)" d="m495.5625,66.3125c-1.0758,.0148-154.4509,249.6994-155.3125,250.3438c-.8616,.6443-283.7129,77.1911-284.0312,78.2188c-.0886,.2862 15.2026,18.4937 36.4375,43.625c75.7733-20.966 246.921-67.3406 247.5938-67.8438c.8616-.6443 154.2367-250.3289 155.3125-250.3438c1.0758-.0148 161.2772,245.3484 162.1562,245.9688c.6907,.4874 175.0232,42.5875 250.5938,61.2812c20.6579-25.8624 35.5656-44.6528 35.4688-44.9375c-.3465-1.0185-285.1835-69.7234-286.0625-70.3438c-.879-.6203-161.0805-245.9836-162.1562-245.9688zm268,595.9375c-2.0879,2.6339-3.5689,4.5135-3.5938,4.5938c-.2309,.7455 11.571,153.8341 17.7812,238.5625c2.2821,.8134 3.6618,1.2926 3.7188,1.25c.6395-.4782-11.6345-160.9731-17.9062-244.4062zm-519.5312,8.875c-3.989,83.9725-11.7737,242.6672-11.125,243.125c.0429,.0303 .9218-.302 2.1875-.7812c3.8626-84.7523 11.4707-238.7908 11.2188-239.5312c-.022-.0647-.8252-1.0696-2.2812-2.8125z" transform="translate(0 52.36218)"/>
</g>
</svg>
