<svg xmlns="http://www.w3.org/2000/svg" viewBox="0 0 16 16">
<defs>
<linearGradient id="linearGradient3806-4">
<stop offset="0" stop-color="#fff6d5"/>
<stop offset="1" stop-color="#fff6d5" stop-opacity="0"/>
</linearGradient>
<linearGradient xlink:href="#linearGradient3806-4" id="linearGradient3771" y1="1.176" x1="7.989" y2="15.07" x2="7.845" gradientUnits="userSpaceOnUse"/>
<linearGradient id="linearGradient3290-7">
<stop offset="0" stop-color="#ba0000"/>
<stop offset="1" stop-color="#ff331e"/>
</linearGradient>
<linearGradient xlink:href="#linearGradient3290-7" id="linearGradient3766" y1="14.849" x1="7.885" y2="1.079" gradientUnits="userSpaceOnUse" x2="8.079"/>
</defs>
<g transform="translate(0 -1036.3622)">
<path opacity=".3" direction="ltr" block-progression="tb" fill-rule="evenodd" color="#000000" d="m8,1038.3622c-3.8474,0-7,3.1469-7,7c0,3.853 3.1526,7 7,7c3.8474,0 7-3.147 7-7c0-3.8531-3.1526-7-7-7zm0,3c2.2236,0 4,1.7809 4,4c0,.5548-.1112,1.0835-.3125,1.5625l-5.25-5.25c.4792-.2016 1.0066-.3125 1.5625-.3125zm-3.6875,2.4375 5.25,5.25c-.4792,.2017-1.0066,.3125-1.5625,.3125c-2.2236,0-4-1.7811-4-4c0-.5547 .1112-1.0834 .3125-1.5625z"/>
<path direction="ltr" fill="url(#linearGradient3766)" block-progression="tb" fill-rule="evenodd" stroke="#a00000" color="#000000" stroke-width=".2" d="m8,1c-3.8474,0-7,3.1469-7,7c0,3.853 3.1526,7 7,7c3.8474,0 7-3.147 7-7c0-3.8531-3.1526-7-7-7zm0,3c2.2236,0 4,1.7809 4,4c0,.5547-.1112,1.0835-.3125,1.5625l-5.25-5.25c.4792-.2016 1.0066-.3125 1.5625-.3125zm-3.6875,2.4375l5.25,5.25c-.4792,.2016-1.0066,.3125-1.5625,.3125c-2.2236,0-4-1.7811-4-4c0-.5548 .1112-1.0835 .3125-1.5625z" transform="translate(0 1036.3622)"/>
<path opacity=".5" direction="ltr" fill="url(#linearGradient3771)" block-progression="tb" fill-rule="evenodd" color="#000000" d="m8,1c-3.8474,0-7,3.1469-7,7c0,.1677 .0195,.3352 .0312,.5c.258-3.6222 3.2888-6.5 6.9688-6.5c3.68,0 6.7108,2.8778 6.9688,6.5c.0117-.1648 .0312-.3323 .0312-.5c0-3.8531-3.1526-7-7-7zm-.8125,4.0938c-.2612,.0529-.5104,.118-.75,.2188l5.25,5.25c.2013-.479 .3125-1.0078 .3125-1.5625c0-.1709-.042-.3349-.0625-.5c-.046,.3712-.1107,.731-.25,1.0625l-4.4688-4.4688h-.0312zm-3.125,3.4062c-.0205,.1653-.0625,.3291-.0625,.5c0,2.2189 1.7764,4 4,4c.5559,0 1.0833-.1109 1.5625-.3125l-.75-.7812h-.0312c-.252,.0491-.5138,.0938-.7812,.0938c-2.0524,0-3.6923-1.5216-3.9375-3.5z" transform="translate(0 1036.3622)"/>
</g>
</svg>
