<svg xmlns="http://www.w3.org/2000/svg" viewBox="0 0 16 16">
<defs>
<linearGradient gradientTransform="matrix(.95826 0 0 .95826 -5.06168 51.99108)" xlink:href="#linearGradient3981" id="linearGradient3037" y1="1030.384" y2="1040.82" gradientUnits="userSpaceOnUse" x2="0"/>
<linearGradient id="linearGradient4414">
<stop offset="0" stop-color="#0069c8"/>
<stop offset="1" stop-color="#55c4ff"/>
</linearGradient>
<linearGradient gradientTransform="matrix(.95826 0 0 .95826 -5.06168 51.99108)" xlink:href="#linearGradient4414" id="linearGradient3039" y1="1041.55" y2="1029.862" gradientUnits="userSpaceOnUse" x2="0"/>
<linearGradient id="linearGradient3981">
<stop offset="0" stop-color="#d5ebff"/>
<stop offset="1" stop-color="#fff6d5" stop-opacity="0"/>
</linearGradient>
<linearGradient gradientTransform="matrix(1.0139 .46133 -.46237 1.01163 482.76263 -16.84992)" xlink:href="#linearGradient3827" id="linearGradient3788" y1="1038.707" x1="5.275" y2="1050.072" gradientUnits="userSpaceOnUse" x2="10.458"/>
<linearGradient id="linearGradient3827">
<stop offset="0" stop-color="#dbdbdb"/>
<stop offset="1" stop-color="#f5f5f5"/>
</linearGradient>
<linearGradient xlink:href="#linearGradient3827" id="linearGradient3845" y1="1040.362" y2="1035.362" x2="0" gradientUnits="userSpaceOnUse"/>
</defs>
<g transform="translate(0 -1036.3622)">
<path opacity=".08" direction="ltr" block-progression="tb" color="#000000" d="m1.7692,1036.3668c-.9683-.021-1.7681,.777-1.7692,1.7317v12.4695c-.0011,.9542 .7763,1.7302 1.7308,1.7319c11.1779,.1157 11.0059,.034 12.5,.038c.968,.021 1.768-.7767 1.7692-1.732v-12.5079c.0023-.5477-.1824-1.0101-.5385-1.3084c-.3561-.2982-.8091-.4065-1.1923-.4233c-4.1689-.014-8.3329,.013-12.5,0z"/>
<path opacity=".1" direction="ltr" block-progression="tb" color="#000000" d="m1.7692,1036.6744c-.7931-.017-1.4606,.6385-1.4615,1.424v12.4697c-.0009,.7853 .6368,1.4228 1.4231,1.4242c11.1761,.1156 10.9929,.034 12.5,.038c.7928,.017 1.4605-.6382 1.4615-1.4243v-12.5081c.0021-.4859-.1429-.843-.4231-1.0777c-.2802-.2345-.6538-.331-1-.3463c-4.1684-.014-8.3326,.013-12.5,0z"/>
<path opacity=".15" d="m14.7,1037.0912c-.1415-.049-.2886-.086-.4398-.087c-4.1678-.014-8.3362-.016-12.5039-.026c-.618-.014-1.1266,.5034-1.1273,1.1192l-.0135,12.468c-.0007,.616 .5055,1.1238 1.1234,1.1249c11.1744,.1157 10.9848,.018 12.505,.022c.6176,.014 1.1266-.5032 1.1273-1.1194l.0135-12.4678c.0005-.4466-.2613-.8387-.6471-1.0187c-.0126-.0004-.0248-.014-.0376-.016z"/>
<path opacity=".3" d="m14.351,1037.2185c-.1341-.046-.2735-.081-.4169-.082c-3.9508-.014-7.902-.015-11.8527-.024c-.5858-.014-1.068,.4772-1.0686,1.0611l-.0128,11.8185c-.0007,.584 .4791,1.0654 1.0649,1.0663c10.5924,.1097 10.4127,.017 11.8537,.021c.5854,.014 1.0679-.4769 1.0686-1.0611l.0128-11.8185c.0005-.4234-.2477-.7951-.6134-.9656c-.012-.0004-.0235-.014-.0357-.015z"/>
<path fill="url(#linearGradient3788)" d="m14.351,1036.4685c-.1341-.046-.2735-.081-.4169-.082c-3.9508-.014-7.902-.015-11.8527-.024c-.5858-.014-1.068,.4772-1.0686,1.0611l-.0128,11.8185c-.0007,.584 .4791,1.0654 1.0649,1.0663c10.5924,.1097 10.4127,.017 11.8537,.021c.5854,.014 1.0679-.4769 1.0686-1.0611l.0128-11.8185c.0005-.4234-.2477-.7951-.6134-.9656c-.012-.0004-.0235-.014-.0357-.015z"/>
<path opacity=".15" d="m1,1037.9221 0,.9219 14,0 0-.9219z"/>
<path stroke-opacity=".173" fill="url(#linearGradient3845)" fill-rule="evenodd" stroke="#000" stroke-width=".25" d="m2.0938,1036.4872c-.5858-.014-1.0931,.4786-1.0938,1.0625v.8125h14v-.7812c.0005-.4234-.2592-.7983-.625-.9688c-.012-.0004-.0191-.03-.0312-.031c-.1341-.046-.2629-.062-.4062-.062c-3.9508-.014-7.893-.022-11.8438-.031z"/>
<path opacity=".5" fill="#fff" d="m2.0862,1036.3621c-.5858-.014-1.0855,.4722-1.0862,1.056v.6337c.0007-.5839 .5004-1.0696 1.0862-1.0561c3.9507,.01 7.907-.014 11.8578,0c.1434,0 .2582,.044 .3922,.091c.0121,0 .0484,.03 .0603,.03c.3658,.1705 .6039,.5421 .6034,.9655v-.6336c.0005-.4235-.2377-.795-.6034-.9655c-.012-.0004-.0482,0-.0603,0c-.1341-.046-.2489-.09-.3922-.091c-3.9508-.014-7.907-.022-11.8578-.03z"/>
<path opacity=".08" fill="#505050" fill-rule="evenodd" d="m2,3 0,1 12,0 0-1zm0,2 0,1 12,0 0-1zm0,2 0,1 12,0 0-1zm0,2 0,1 12,0 0-1zm0,2 0,1 12,0 0-1z" transform="translate(0 1036.3622)"/>
<path opacity=".3" d="m10,1040.1229 0,2-3,0 0,6 3,0 0,2 5-5z"/>
<path fill="url(#linearGradient3039)" stroke="#0030a0" stroke-width=".2" d="m10,1039.3622 0,2-3,0 0,6 3,0 0,2 5-5z"/>
<path opacity="0" direction="ltr" block-progression="tb" color="#000000" d="m32.5227,1035.4227 0,.3437 0,2.875-4.4062,0-.1562,0 0,.1563 0,5.9687 0,.1563 .1562,0 4.4062,0 0,2.8437 0,.375 .25-.25 5.9375-6 .125-.125-.125-.094-5.875-5.9063-.0625-.094-.25-.25zm.3125,.7187 5.5938,5.6563-5.5938,5.625 0-2.6563 0-.1562-.1562,0-4.4062,0 0-5.6562 4.4062,0 .1562,0 0-.1563 0-2.6563zm-6.125,8.2813-.25,.25-.0625,.094-5.875,5.9063-.125,.094 .125,.125 5.9375,6 .25,.25 0-.375 0-2.8437 4.4062,0 .1562,0 0-.1563 0-5.9687 0-.1563-.1562,0-4.4062,0 0-2.875 0-.3437zm-.3125,.7187 0,2.6563 0,.1563 .1562,0 4.4062,0 0,5.6562-4.4062,0-.1562,0 0,.1562 0,2.6563-5.5938-5.625 5.5938-5.6563z"/>
<path opacity=".5" fill="url(#linearGradient3037)" d="m10,1039.3622 0,.625 4.6875,4.6875 .3125-.3125zm-3,2 0,.625 3,0 0-.625z"/>
</g>
</svg>
