<?xml version="1.0" encoding="UTF-8" standalone="no"?>
<!-- Created with Inkscape (http://www.inkscape.org/) -->

<svg
   xmlns:dc="http://purl.org/dc/elements/1.1/"
   xmlns:cc="http://creativecommons.org/ns#"
   xmlns:rdf="http://www.w3.org/1999/02/22-rdf-syntax-ns#"
   xmlns:svg="http://www.w3.org/2000/svg"
   xmlns="http://www.w3.org/2000/svg"
   xmlns:xlink="http://www.w3.org/1999/xlink"
   xmlns:sodipodi="http://sodipodi.sourceforge.net/DTD/sodipodi-0.dtd"
   xmlns:inkscape="http://www.inkscape.org/namespaces/inkscape"
   width="16"
   height="16"
   id="svg3301"
   version="1.1"
   inkscape:version="0.48.4 r9939"
   sodipodi:docname="document-open.svg">
  <defs
     id="defs3303">
    <linearGradient
       gradientUnits="userSpaceOnUse"
       y2="-1.1619365"
       x2="3.2429624"
       y1="7.1086192"
       x1="6.9746933"
       id="linearGradient3786"
       xlink:href="#linearGradient4108"
       inkscape:collect="always" />
    <linearGradient
       id="linearGradient3827-1">
      <stop
         id="stop3829-7"
         offset="0"
         style="stop-color:#dbdbdb;stop-opacity:1" />
      <stop
         id="stop3831-4"
         offset="1"
         style="stop-color:#f5f5f5;stop-opacity:1" />
    </linearGradient>
    <linearGradient
       id="linearGradient4108">
      <stop
         style="stop-color:#e66c00;stop-opacity:1;"
         offset="0"
         id="stop4110" />
      <stop
         style="stop-color:#ffe991;stop-opacity:1;"
         offset="1"
         id="stop4112" />
    </linearGradient>
    <linearGradient
       id="linearGradient4148">
      <stop
         id="stop4150"
         offset="0"
         style="stop-color:#fffad5;stop-opacity:1;" />
      <stop
         id="stop4152"
         offset="1"
         style="stop-color:#fff6d5;stop-opacity:0;" />
    </linearGradient>
    <linearGradient
       inkscape:collect="always"
       xlink:href="#linearGradient3827-1"
       id="linearGradient3060"
       gradientUnits="userSpaceOnUse"
       x1="8"
       y1="13"
       x2="8"
       y2="5"
       gradientTransform="matrix(0.625,0,0,0.625,4.6529315,1040.0427)" />
    <linearGradient
       inkscape:collect="always"
       xlink:href="#linearGradient4148"
       id="linearGradient3064"
       gradientUnits="userSpaceOnUse"
       x1="8"
       y1="1"
       x2="8"
       y2="14"
       gradientTransform="matrix(0.625,0,0,0.625,4.6529315,1040.0427)" />
    <linearGradient
       gradientTransform="matrix(0.8412007,0,0,0.94747967,1.2703943,54.423603)"
       gradientUnits="userSpaceOnUse"
       y2="1035.3622"
       x2="8"
       y1="1040.3622"
       x1="8"
       id="linearGradient3845-8"
       xlink:href="#linearGradient3827-4"
       inkscape:collect="always" />
    <linearGradient
       y2="1050.0723"
       x2="10.457751"
       y1="1038.7067"
       x1="5.2746978"
       gradientTransform="matrix(0.86905371,0.46131762,-0.39631343,1.0115979,414.93958,-16.811557)"
       gradientUnits="userSpaceOnUse"
       id="linearGradient3788-4"
       xlink:href="#linearGradient3827-4"
       inkscape:collect="always" />
    <linearGradient
       id="linearGradient3827-4">
      <stop
         style="stop-color:#dbdbdb;stop-opacity:1"
         offset="0"
         id="stop3829-0" />
      <stop
         style="stop-color:#f5f5f5;stop-opacity:1"
         offset="1"
         id="stop3831-9" />
    </linearGradient>
  </defs>
  <sodipodi:namedview
     id="base"
     pagecolor="#ffffff"
     bordercolor="#666666"
     borderopacity="1.0"
     inkscape:pageopacity="0.0"
     inkscape:pageshadow="2"
     inkscape:zoom="39.4375"
     inkscape:cx="8"
     inkscape:cy="8"
     inkscape:document-units="px"
     inkscape:current-layer="layer1"
     showgrid="true"
     inkscape:window-width="1440"
     inkscape:window-height="848"
     inkscape:window-x="-8"
     inkscape:window-y="-8"
     inkscape:window-maximized="1">
    <inkscape:grid
       type="xygrid"
       id="grid3219"
       empspacing="5"
       visible="true"
       enabled="true"
       snapvisiblegridlinesonly="true" />
  </sodipodi:namedview>
  <metadata
     id="metadata3306">
    <rdf:RDF>
      <cc:Work
         rdf:about="">
        <dc:format>image/svg+xml</dc:format>
        <dc:type
           rdf:resource="http://purl.org/dc/dcmitype/StillImage" />
        <dc:title />
      </cc:Work>
    </rdf:RDF>
  </metadata>
  <g
     inkscape:label="Layer 1"
     inkscape:groupmode="layer"
     id="layer1"
     transform="translate(0,-1036.3622)">
    <g
       id="layer1-5"
       inkscape:label="Layer 1"
       transform="translate(5.717094e-5,7.4677348e-6)">
      <path
         inkscape:connector-curvature="0"
         id="path3803-5"
         d="m 2.5480177,1036.3673 c -0.8472481,-0.021 -1.5471267,0.7771 -1.54807377,1.7317 l 0,12.469 c -9.9991e-4,0.9542 0.67924237,1.7302 1.51441997,1.7319 9.7806181,0.1157 9.6301861,0.034 10.9374761,0.038 0.846963,0.021 1.547025,-0.7767 1.548075,-1.732 l 0,-12.5074 c 0.002,-0.5478 -0.159556,-1.01 -0.471154,-1.3084 -0.311596,-0.2981 -0.707924,-0.4065 -1.043266,-0.4233 -3.6478011,-0.014 -7.2912967,0.013 -10.9374773,0 z"
         style="font-size:medium;font-style:normal;font-variant:normal;font-weight:normal;font-stretch:normal;text-indent:0;text-align:start;text-decoration:none;line-height:normal;letter-spacing:normal;word-spacing:normal;text-transform:none;direction:ltr;block-progression:tb;writing-mode:lr-tb;text-anchor:start;baseline-shift:baseline;opacity:0.07999998;color:#000000;fill:#000000;fill-opacity:1;fill-rule:nonzero;stroke:none;stroke-width:1;marker:none;visibility:visible;display:inline;overflow:visible;enable-background:accumulate;font-family:Sans;-inkscape-font-specification:Sans" />
      <path
         inkscape:connector-curvature="0"
         id="path3799-1"
         d="m 2.5480177,1036.675 c -0.6939808,-0.017 -1.2780643,0.6385 -1.2788435,1.4239 l 0,12.4692 c -8.253e-4,0.7853 0.5572419,1.4227 1.2451897,1.4241 9.7790891,0.1157 9.6187611,0.034 10.9374761,0.038 0.693668,0.017 1.277981,-0.6382 1.278844,-1.4243 l 0,-12.5076 c 0.0018,-0.4859 -0.12502,-0.8428 -0.370191,-1.0777 -0.24517,-0.2345 -0.57207,-0.331 -0.874998,-0.3462 -3.6473242,-0.014 -7.2909786,0.013 -10.9374773,0 z"
         style="font-size:medium;font-style:normal;font-variant:normal;font-weight:normal;font-stretch:normal;text-indent:0;text-align:start;text-decoration:none;line-height:normal;letter-spacing:normal;word-spacing:normal;text-transform:none;direction:ltr;block-progression:tb;writing-mode:lr-tb;text-anchor:start;baseline-shift:baseline;opacity:0.1;color:#000000;fill:#000000;fill-opacity:1;fill-rule:nonzero;stroke:none;stroke-width:0.5;marker:none;visibility:visible;display:inline;overflow:visible;enable-background:accumulate;font-family:Sans;-inkscape-font-specification:Sans" />
      <path
         style="opacity:0.15;fill:#000000;fill-opacity:1;stroke:none"
         d="m 13.862395,1037.0918 c -0.123773,-0.049 -0.252495,-0.086 -0.384822,-0.087 -3.6468466,-0.014 -7.2941311,-0.016 -10.9409477,-0.026 -0.5407137,-0.014 -0.9858037,0.5034 -0.986415,1.1192 l -0.011804,12.4675 c -6.478e-4,0.6161 0.44228,1.1238 0.9829976,1.1249 9.7775581,0.1156 9.6116881,0.018 10.9418301,0.022 0.540368,0.014 0.98574,-0.5031 0.986418,-1.1194 l 0.0118,-12.4673 c 4.43e-4,-0.4466 -0.228617,-0.8386 -0.566246,-1.0186 -0.01105,-4e-4 -0.02171,-0.014 -0.03291,-0.016 z"
         id="path3005-7"
         inkscape:connector-curvature="0"
         sodipodi:nodetypes="cccccccccccc" />
      <path
         sodipodi:nodetypes="cccccccccccc"
         inkscape:connector-curvature="0"
         id="path3764-1"
         d="m 13.443737,1037.2184 c -0.114932,-0.046 -0.234462,-0.081 -0.357336,-0.082 -3.3863665,-0.014 -6.77314,-0.015 -10.1594795,-0.024 -0.5020925,-0.014 -0.9153915,0.4772 -0.9159592,1.0611 l -0.010962,11.8185 c -6.016e-4,0.584 0.4106896,1.0654 0.9127859,1.0663 9.0791878,0.1098 8.9251638,0.017 10.1603008,0.021 0.50177,0.014 0.915331,-0.4769 0.915961,-1.0611 l 0.01095,-11.8185 c 4.12e-4,-0.4234 -0.212287,-0.7953 -0.525799,-0.9657 -0.01026,-4e-4 -0.02016,-0.014 -0.03055,-0.015 z"
         style="opacity:0.3;fill:#000000;fill-opacity:1;stroke:none" />
      <path
         style="fill:url(#linearGradient3788-4);fill-opacity:1;stroke:none"
         d="m 13.443737,1036.4691 c -0.114932,-0.046 -0.234461,-0.081 -0.357336,-0.082 -3.3863657,-0.014 -6.7731395,-0.015 -10.159479,-0.024 -0.5020926,-0.014 -0.9153916,0.4773 -0.9159593,1.0611 l -0.010962,11.818 c -6.016e-4,0.584 0.4106896,1.0655 0.9127859,1.0664 9.0791864,0.1096 8.9251634,0.017 10.1603004,0.021 0.50177,0.014 0.915331,-0.477 0.915961,-1.0611 l 0.01095,-11.8181 c 4.11e-4,-0.4234 -0.212288,-0.795 -0.525799,-0.9655 -0.01026,-4e-4 -0.02016,-0.014 -0.03055,-0.015 z"
         id="path3786-1"
         inkscape:connector-curvature="0"
         sodipodi:nodetypes="cccccccccccc" />
      <path
         sodipodi:nodetypes="ccccc"
         inkscape:connector-curvature="0"
         style="opacity:0.15;fill:#000000;fill-opacity:1;stroke:none"
         d="m 2.1115,1037.9225 0,0.922 11.777,0 0,-0.922 z"
         id="path3824-5" />
      <path
         sodipodi:nodetypes="cccccccccc"
         inkscape:connector-curvature="0"
         id="path3042-2"
         d="m 3.0316584,1036.4741 c -0.4927538,-0.013 -0.9195063,0.4535 -0.9200633,1.0066 l 0,0.77 11.7768099,0 0,-0.7403 c 4.04e-4,-0.401 -0.218069,-0.7564 -0.525751,-0.9179 -0.01007,-4e-4 -0.01609,-0.028 -0.02628,-0.029 -0.112793,-0.043 -0.221147,-0.059 -0.341739,-0.059 -3.3233792,-0.013 -6.6396143,-0.021 -9.962969,-0.029 z"
         style="fill:url(#linearGradient3845-8);fill-opacity:1;fill-rule:evenodd;stroke:#000000;stroke-width:0.223;stroke-miterlimit:4;stroke-opacity:0.17254902;stroke-dasharray:none" />
      <path
         inkscape:connector-curvature="0"
         id="path3805-7"
         d="m 3.0252328,1036.3626 c -0.4927617,-0.014 -0.913176,0.4722 -0.9137331,1.056 l 0,0.6337 c 5.571e-4,-0.5839 0.4209714,-1.0696 0.9137331,-1.0561 3.3234093,0.01 6.6514858,-0.014 9.9749222,0 0.120593,0 0.217162,0.044 0.329957,0.091 0.01021,0 0.0407,0.03 0.05076,0.03 0.307686,0.1705 0.508034,0.542 0.507628,0.9654 l 0,-0.6336 c 4.06e-4,-0.4235 -0.199942,-0.7949 -0.507628,-0.9654 -0.01007,-4e-4 -0.04056,0 -0.05076,0 -0.112795,-0.046 -0.209364,-0.09 -0.329957,-0.091 -3.3234364,-0.014 -6.6515129,-0.022 -9.9749222,-0.03 z"
         style="opacity:0.5;fill:#ffffff;fill-opacity:1;stroke:none" />
    </g>
    <path
       style="opacity:0.07999998;fill:#505050;fill-opacity:1;fill-rule:evenodd;stroke:none"
       d="m 2,3 0,1 12,0 0,-1 z m 0,2 0,1 12,0 0,-1 z m 0,2 0,1 12,0 0,-1 z m 0,2 0,1 12,0 0,-1 z m 0,2 0,1 12,0 0,-1 z"
       id="rect3781"
       inkscape:connector-curvature="0"
       sodipodi:nodetypes="ccccccccccccccccccccccccc"
       transform="translate(0,1036.3622)" />
    <path
       style="font-size:medium;font-style:normal;font-variant:normal;font-weight:normal;font-stretch:normal;text-indent:0;text-align:start;text-decoration:none;line-height:normal;letter-spacing:normal;word-spacing:normal;text-transform:none;direction:ltr;block-progression:tb;writing-mode:lr-tb;text-anchor:start;baseline-shift:baseline;opacity:0;color:#000000;fill:#000000;fill-opacity:1;fill-rule:nonzero;stroke:none;stroke-width:0.30000001;marker:none;visibility:visible;display:inline;overflow:visible;enable-background:accumulate;font-family:Sans;-inkscape-font-specification:Sans"
       d="m 32.522732,1035.4227 0,0.3437 0,2.875 -4.40625,0 -0.15625,0 0,0.1563 0,5.9687 0,0.1563 0.15625,0 4.40625,0 0,2.8437 0,0.375 0.25,-0.25 5.9375,-6 0.125,-0.125 -0.125,-0.094 -5.875,-5.9063 -0.0625,-0.094 -0.25,-0.25 z m 0.3125,0.7187 5.59375,5.6563 -5.59375,5.625 0,-2.6563 0,-0.1562 -0.15625,0 -4.40625,0 0,-5.6562 4.40625,0 0.15625,0 0,-0.1563 0,-2.6563 z m -6.125,8.2813 -0.25,0.25 -0.0625,0.094 -5.875,5.9063 -0.125,0.094 0.125,0.125 5.9375,6 0.25,0.25 0,-0.375 0,-2.8437 4.40625,0 0.15625,0 0,-0.1563 0,-5.9687 0,-0.1563 -0.15625,0 -4.40625,0 0,-2.875 0,-0.3437 z m -0.3125,0.7187 0,2.6563 0,0.1563 0.15625,0 4.40625,0 0,5.6562 -4.40625,0 -0.15625,0 0,0.1562 0,2.6563 -5.59375,-5.625 5.59375,-5.6563 z"
       id="path3815"
       inkscape:connector-curvature="0" />
  </g>
</svg>
