<svg xmlns="http://www.w3.org/2000/svg" viewBox="0 0 16 16">
<defs>
<linearGradient xlink:href="#linearGradient4800" id="linearGradient3901" y1="1045.362" y2="1048.362" gradientUnits="userSpaceOnUse" x2="0"/>
<linearGradient xlink:href="#linearGradient4794" id="linearGradient3904" y1="1045.362" y2="1048.362" gradientUnits="userSpaceOnUse" x2="0"/>
<linearGradient gradientTransform="matrix(.42245 0 0 1.00868 1.12037 -9.0656)" xlink:href="#linearGradient4414" id="linearGradient3948" y1="1048.328" y2="1045.354" gradientUnits="userSpaceOnUse" x2="0"/>
<linearGradient gradientTransform="translate(0 -4.99999)" xlink:href="#linearGradient4794" id="linearGradient3912" y1="1045.362" y2="1048.362" gradientUnits="userSpaceOnUse" x2="0"/>
<linearGradient gradientTransform="matrix(.66971 0 0 .9977 .64232 -2.61872)" xlink:href="#linearGradient4414" id="linearGradient3942" y1="1048.388" y2="1045.38" gradientUnits="userSpaceOnUse" x2="0"/>
<linearGradient gradientTransform="matrix(.42245 0 0 1.00868 1.12037 -9.0656)" xlink:href="#linearGradient3981" id="linearGradient3945" y1="1045.354" y2="1048.328" gradientUnits="userSpaceOnUse" x2="0"/>
<linearGradient gradientTransform="matrix(.66971 0 0 .9977 .70929 -2.61842)" xlink:href="#linearGradient3981" id="linearGradient3939" y1="1045.38" y2="1048.387" gradientUnits="userSpaceOnUse" x2="0"/>
<linearGradient gradientTransform="translate(.1 -4.99969)" xlink:href="#linearGradient4800" id="linearGradient3891" y1="1045.362" y2="1048.362" gradientUnits="userSpaceOnUse" x2="0"/>
<linearGradient id="linearGradient3827">
<stop offset="0" stop-color="#dbdbdb"/>
<stop offset="1" stop-color="#f5f5f5"/>
</linearGradient>
<linearGradient gradientTransform="matrix(1.0139 .46133 -.46237 1.01163 482.76263 -16.84992)" xlink:href="#linearGradient3827" id="linearGradient3788" y1="1038.707" x1="5.275" y2="1050.072" gradientUnits="userSpaceOnUse" x2="10.458"/>
<linearGradient id="linearGradient4800">
<stop offset="0"/>
<stop offset="1" stop-color="#fff6d5" stop-opacity="0"/>
</linearGradient>
<linearGradient xlink:href="#linearGradient3827" id="linearGradient3845" y1="1040.362" y2="1035.362" x2="0" gradientUnits="userSpaceOnUse"/>
<linearGradient id="linearGradient4414">
<stop offset="0" stop-color="#0069c8"/>
<stop offset="1" stop-color="#55c4ff"/>
</linearGradient>
<linearGradient id="linearGradient4794">
<stop offset="0" stop-color="#646464"/>
<stop offset="1" stop-color="#969696"/>
</linearGradient>
<linearGradient id="linearGradient3981">
<stop offset="0" stop-color="#d5ebff"/>
<stop offset="1" stop-color="#fff6d5" stop-opacity="0"/>
</linearGradient>
</defs>
<g transform="translate(0 -1036.3622)">
<path opacity=".08" direction="ltr" block-progression="tb" color="#000000" d="m1.7692,1036.3668c-.9683-.021-1.7681,.777-1.7692,1.7317v12.4695c-.0011,.9542 .7763,1.7302 1.7308,1.7319c11.1779,.1157 11.0059,.034 12.5,.038c.968,.021 1.768-.7767 1.7692-1.732v-12.5079c.0023-.5477-.1824-1.0101-.5385-1.3084c-.3561-.2982-.8091-.4065-1.1923-.4233c-4.1689-.014-8.3329,.013-12.5,0z"/>
<path opacity=".1" direction="ltr" block-progression="tb" color="#000000" d="m1.7692,1036.6744c-.7931-.017-1.4606,.6385-1.4615,1.424v12.4697c-.0009,.7853 .6368,1.4228 1.4231,1.4242c11.1761,.1156 10.9929,.034 12.5,.038c.7928,.017 1.4605-.6382 1.4615-1.4243v-12.5081c.0021-.4859-.1429-.843-.4231-1.0777c-.2802-.2345-.6538-.331-1-.3463c-4.1684-.014-8.3326,.013-12.5,0z"/>
<path opacity=".15" d="m14.7,1037.0912c-.1415-.049-.2886-.086-.4398-.087c-4.1678-.014-8.3362-.016-12.5039-.026c-.618-.014-1.1266,.5034-1.1273,1.1192l-.0135,12.468c-.0007,.616 .5055,1.1238 1.1234,1.1249c11.1744,.1157 10.9848,.018 12.505,.022c.6176,.014 1.1266-.5032 1.1273-1.1194l.0135-12.4678c.0005-.4466-.2613-.8387-.6471-1.0187c-.0126-.0004-.0248-.014-.0376-.016z"/>
<path opacity=".3" d="m14.351,1037.2185c-.1341-.046-.2735-.081-.4169-.082c-3.9508-.014-7.902-.015-11.8527-.024c-.5858-.014-1.068,.4772-1.0686,1.0611l-.0128,11.8185c-.0007,.584 .4791,1.0654 1.0649,1.0663c10.5924,.1097 10.4127,.017 11.8537,.021c.5854,.014 1.0679-.4769 1.0686-1.0611l.0128-11.8185c.0005-.4234-.2477-.7951-.6134-.9656c-.012-.0004-.0235-.014-.0357-.015z"/>
<path fill="url(#linearGradient3788)" d="m14.351,1036.4685c-.1341-.046-.2735-.081-.4169-.082c-3.9508-.014-7.902-.015-11.8527-.024c-.5858-.014-1.068,.4772-1.0686,1.0611l-.0128,11.8185c-.0007,.584 .4791,1.0654 1.0649,1.0663c10.5924,.1097 10.4127,.017 11.8537,.021c.5854,.014 1.0679-.4769 1.0686-1.0611l.0128-11.8185c.0005-.4234-.2477-.7951-.6134-.9656c-.012-.0004-.0235-.014-.0357-.015z"/>
<path opacity=".15" d="m1,1037.9221 0,.9219 14,0 0-.9219z"/>
<path stroke-opacity=".173" fill="url(#linearGradient3845)" fill-rule="evenodd" stroke="#000" stroke-width=".25" d="m2.0938,1036.4872c-.5858-.014-1.0931,.4786-1.0938,1.0625v.8125h14v-.7812c.0005-.4234-.2592-.7983-.625-.9688c-.012-.0004-.0191-.03-.0312-.031c-.1341-.046-.2629-.062-.4062-.062c-3.9508-.014-7.893-.022-11.8438-.031z"/>
<path opacity=".5" fill="#fff" d="m2.0862,1036.3621c-.5858-.014-1.0855,.4722-1.0862,1.056v.6337c.0007-.5839 .5004-1.0696 1.0862-1.0561c3.9507,.01 7.907-.014 11.8578,0c.1434,0 .2582,.044 .3922,.091c.0121,0 .0484,.03 .0603,.03c.3658,.1705 .6039,.5421 .6034,.9655v-.6336c.0005-.4235-.2377-.795-.6034-.9655c-.012-.0004-.0482,0-.0603,0c-.1341-.046-.2489-.09-.3922-.091c-3.9508-.014-7.907-.022-11.8578-.03z"/>
</g>
<g transform="translate(0 -1036.3622)">
<path fill="url(#linearGradient3904)" fill-rule="evenodd" stroke="#505050" stroke-width=".2" d="m2,1045.36h12v3h-12z"/>
<path opacity=".5" fill="url(#linearGradient3901)" fill-rule="evenodd" d="m2,1045.3622 0,.7188 12,0 0-.7188-12,0z"/>
<path fill="url(#linearGradient3912)" fill-rule="evenodd" stroke="#505050" stroke-width=".2" d="m2,1040.36h12v3h-12z"/>
<path opacity=".5" fill="url(#linearGradient3891)" fill-rule="evenodd" d="m2.1,1040.3625 0,.7187 12,0 0-.7187-12,0z"/>
</g>
<g transform="translate(0 -1036.3622)">
<path fill="url(#linearGradient3948)" fill-rule="evenodd" stroke="#0030a0" stroke-width=".131" d="m1.9653,1045.37h5.0694v3.03h-5.0694z"/>
<path opacity=".5" fill="url(#linearGradient3945)" fill-rule="evenodd" d="m1.9653,1045.3709 0,.725 5.0694,0 0-.725-5.0694,0z"/>
<path fill="url(#linearGradient3942)" fill-rule="evenodd" stroke="#0030a0" stroke-width=".163" d="m1.9817,1040.34h8.0366v3h-8.0366z"/>
<path opacity=".5" fill="url(#linearGradient3939)" fill-rule="evenodd" d="m2.0487,1040.3443 0,.717 8.0365,0 0-.717-8.0365,0z"/>
</g>
</svg>
