<svg xmlns="http://www.w3.org/2000/svg" viewBox="0 0 16 16">
<defs>
<linearGradient gradientTransform="matrix(.8412 0 0 .94748 1.27039 54.4236)" id="linearGradient3845-8" xlink:href="#linearGradient3827-4" y1="1040.362" y2="1035.362" gradientUnits="userSpaceOnUse" x2="0"/>
<linearGradient gradientTransform="matrix(.86905 .46132 -.39631 1.0116 414.93958 -16.81156)" id="linearGradient3788-4" xlink:href="#linearGradient3827-4" y1="1038.707" y2="1050.072" x1="5.275" x2="10.458" gradientUnits="userSpaceOnUse"/>
<linearGradient id="linearGradient3827-4">
<stop offset="0" stop-color="#dbdbdb"/>
<stop offset="1" stop-color="#f5f5f5"/>
</linearGradient>
</defs>
<g transform="matrix(.87501 0 0 .87501 -.87496 -906.82339)">
<path opacity=".08" direction="ltr" block-progression="tb" color="#000000" d="m2.548,1036.3673c-.8472-.021-1.5471,.7771-1.5481,1.7317v12.469c-.001,.9542 .6792,1.7302 1.5144,1.7319c9.7806,.1157 9.6302,.034 10.9375,.038c.847,.021 1.547-.7767 1.5481-1.732v-12.5074c.002-.5478-.1596-1.01-.4712-1.3084c-.3116-.2981-.7079-.4065-1.0433-.4233c-3.6478-.014-7.2913,.013-10.9375,0z"/>
<path opacity=".1" direction="ltr" block-progression="tb" color="#000000" d="m2.548,1036.675c-.694-.017-1.2781,.6385-1.2788,1.4239v12.4692c-.0008,.7853 .5572,1.4227 1.2452,1.4241c9.7791,.1157 9.6188,.034 10.9375,.038c.6937,.017 1.278-.6382 1.2788-1.4243v-12.5076c.0018-.4859-.125-.8428-.3702-1.0777c-.2452-.2345-.5721-.331-.875-.3462c-3.6473-.014-7.291,.013-10.9375,0z"/>
<path opacity=".15" d="m13.8624,1037.0918c-.1238-.049-.2525-.086-.3848-.087c-3.6468-.014-7.2941-.016-10.9409-.026c-.5407-.014-.9858,.5034-.9864,1.1192l-.0118,12.4675c-.0006,.6161 .4423,1.1238 .983,1.1249c9.7776,.1156 9.6117,.018 10.9418,.022c.5404,.014 .9857-.5031 .9864-1.1194l.0118-12.4673c.0004-.4466-.2286-.8386-.5662-1.0186c-.011-.0004-.0217-.014-.0329-.016z"/>
<path opacity=".3" d="m13.4437,1037.2184c-.1149-.046-.2345-.081-.3573-.082c-3.3864-.014-6.7731-.015-10.1595-.024c-.5021-.014-.9154,.4772-.916,1.0611l-.011,11.8185c-.0006,.584 .4107,1.0654 .9128,1.0663c9.0792,.1098 8.9252,.017 10.1603,.021c.5018,.014 .9153-.4769 .916-1.0611l.0109-11.8185c.0004-.4234-.2123-.7953-.5258-.9657c-.0103-.0004-.0202-.014-.0305-.015z"/>
<path fill="url(#linearGradient3788-4)" d="m13.4437,1036.4691c-.1149-.046-.2345-.081-.3573-.082c-3.3864-.014-6.7731-.015-10.1595-.024c-.5021-.014-.9154,.4773-.916,1.0611l-.011,11.818c-.0006,.584 .4107,1.0655 .9128,1.0664c9.0792,.1096 8.9252,.017 10.1603,.021c.5018,.014 .9153-.477 .916-1.0611l.0109-11.8181c.0004-.4234-.2123-.795-.5258-.9655c-.0103-.0004-.0202-.014-.0305-.015z"/>
<path opacity=".15" d="m2.1115,1037.9225 0,.922 11.777,0 0-.922z"/>
<path stroke-opacity=".173" fill="url(#linearGradient3845-8)" fill-rule="evenodd" stroke="#000" stroke-width=".223" d="m3.0317,1036.4741c-.4928-.013-.9195,.4535-.9201,1.0066v.77h11.7768v-.7403c.0004-.401-.2181-.7564-.5258-.9179c-.0101-.0004-.0161-.028-.0263-.029c-.1128-.043-.2211-.059-.3417-.059c-3.3234-.013-6.6396-.021-9.963-.029z"/>
<path opacity=".5" fill="#fff" d="m3.0252,1036.3626c-.4928-.014-.9132,.4722-.9137,1.056v.6337c.0006-.5839 .421-1.0696 .9137-1.0561c3.3234,.01 6.6515-.014 9.9749,0c.1206,0 .2172,.044 .33,.091c.0102,0 .0407,.03 .0508,.03c.3077,.1705 .508,.542 .5076,.9654v-.6336c.0004-.4235-.1999-.7949-.5076-.9654c-.0101-.0004-.0406,0-.0508,0c-.1128-.046-.2094-.09-.33-.091c-3.3234-.014-6.6515-.022-9.9749-.03z"/>
</g>
<g transform="translate(0 -1036.3622)">
<path opacity=".08" fill="#505050" fill-rule="evenodd" d="m1.75,1038.9871 0,.9722 8.7501,0 0-.9722zm0,1.9445 0,.9723 8.7501,0 0-.9723zm0,1.9446 0,.9721 8.7501,0 0-.9721zm0,1.9443 0,.9723 8.7501,0 0-.9723zm0,1.9445 0,.9722 8.7501,0 0-.9722z"/>
<path opacity="0" direction="ltr" block-progression="tb" color="#000000" d="m32.5227,1035.4227 0,.3437 0,2.875-4.4062,0-.1562,0 0,.1563 0,5.9687 0,.1563 .1562,0 4.4062,0 0,2.8437 0,.375 .25-.25 5.9375-6 .125-.125-.125-.094-5.875-5.9063-.0625-.094-.25-.25zm.3125,.7187 5.5938,5.6563-5.5938,5.625 0-2.6563 0-.1562-.1562,0-4.4062,0 0-5.6562 4.4062,0 .1562,0 0-.1563 0-2.6563zm-6.125,8.2813-.25,.25-.0625,.094-5.875,5.9063-.125,.094 .125,.125 5.9375,6 .25,.25 0-.375 0-2.8437 4.4062,0 .1562,0 0-.1563 0-5.9687 0-.1563-.1562,0-4.4062,0 0-2.875 0-.3437zm-.3125,.7187 0,2.6563 0,.1563 .1562,0 4.4062,0 0,5.6562-4.4062,0-.1562,0 0,.1562 0,2.6563-5.5938-5.625 5.5938-5.6563z"/>
</g>
<g transform="matrix(.87501 0 0 .87501 2.87504 -904.82339)">
<path opacity=".08" direction="ltr" block-progression="tb" color="#000000" d="m2.548,1036.3673c-.8472-.021-1.5471,.7771-1.5481,1.7317v12.469c-.001,.9542 .6792,1.7302 1.5144,1.7319c9.7806,.1157 9.6302,.034 10.9375,.038c.847,.021 1.547-.7767 1.5481-1.732v-12.5074c.002-.5478-.1596-1.01-.4712-1.3084c-.3116-.2981-.7079-.4065-1.0433-.4233c-3.6478-.014-7.2913,.013-10.9375,0z"/>
<path opacity=".1" direction="ltr" block-progression="tb" color="#000000" d="m2.548,1036.675c-.694-.017-1.2781,.6385-1.2788,1.4239v12.4692c-.0008,.7853 .5572,1.4227 1.2452,1.4241c9.7791,.1157 9.6188,.034 10.9375,.038c.6937,.017 1.278-.6382 1.2788-1.4243v-12.5076c.0018-.4859-.125-.8428-.3702-1.0777c-.2452-.2345-.5721-.331-.875-.3462c-3.6473-.014-7.291,.013-10.9375,0z"/>
<path opacity=".15" d="m13.8624,1037.0918c-.1238-.049-.2525-.086-.3848-.087c-3.6468-.014-7.2941-.016-10.9409-.026c-.5407-.014-.9858,.5034-.9864,1.1192l-.0118,12.4675c-.0006,.6161 .4423,1.1238 .983,1.1249c9.7776,.1156 9.6117,.018 10.9418,.022c.5404,.014 .9857-.5031 .9864-1.1194l.0118-12.4673c.0004-.4466-.2286-.8386-.5662-1.0186c-.011-.0004-.0217-.014-.0329-.016z"/>
<path opacity=".3" d="m13.4437,1037.2184c-.1149-.046-.2345-.081-.3573-.082c-3.3864-.014-6.7731-.015-10.1595-.024c-.5021-.014-.9154,.4772-.916,1.0611l-.011,11.8185c-.0006,.584 .4107,1.0654 .9128,1.0663c9.0792,.1098 8.9252,.017 10.1603,.021c.5018,.014 .9153-.4769 .916-1.0611l.0109-11.8185c.0004-.4234-.2123-.7953-.5258-.9657c-.0103-.0004-.0202-.014-.0305-.015z"/>
<path fill="url(#linearGradient3788-4)" d="m13.4437,1036.4691c-.1149-.046-.2345-.081-.3573-.082c-3.3864-.014-6.7731-.015-10.1595-.024c-.5021-.014-.9154,.4773-.916,1.0611l-.011,11.818c-.0006,.584 .4107,1.0655 .9128,1.0664c9.0792,.1096 8.9252,.017 10.1603,.021c.5018,.014 .9153-.477 .916-1.0611l.0109-11.8181c.0004-.4234-.2123-.795-.5258-.9655c-.0103-.0004-.0202-.014-.0305-.015z"/>
<path opacity=".15" d="m2.1115,1037.9225 0,.922 11.777,0 0-.922z"/>
<path stroke-opacity=".173" fill="url(#linearGradient3845-8)" fill-rule="evenodd" stroke="#000" stroke-width=".223" d="m3.0317,1036.4741c-.4928-.013-.9195,.4535-.9201,1.0066v.77h11.7768v-.7403c.0004-.401-.2181-.7564-.5258-.9179c-.0101-.0004-.0161-.028-.0263-.029c-.1128-.043-.2211-.059-.3417-.059c-3.3234-.013-6.6396-.021-9.963-.029z"/>
<path opacity=".5" fill="#fff" d="m3.0252,1036.3626c-.4928-.014-.9132,.4722-.9137,1.056v.6337c.0006-.5839 .421-1.0696 .9137-1.0561c3.3234,.01 6.6515-.014 9.9749,0c.1206,0 .2172,.044 .33,.091c.0102,0 .0407,.03 .0508,.03c.3077,.1705 .508,.542 .5076,.9654v-.6336c.0004-.4235-.1999-.7949-.5076-.9654c-.0101-.0004-.0406,0-.0508,0c-.1128-.046-.2094-.09-.33-.091c-3.3234-.014-6.6515-.022-9.9749-.03z"/>
</g>
<g transform="translate(0 -1036.3622)">
<path opacity=".08" fill="#505050" fill-rule="evenodd" d="m5.5,1040.9871 0,.9722 8.7501,0 0-.9722zm0,1.9445 0,.9723 8.7501,0 0-.9723zm0,1.9446 0,.9721 8.7501,0 0-.9721zm0,1.9443 0,.9723 8.7501,0 0-.9723zm0,1.9445 0,.9722 8.7501,0 0-.9722z"/>
</g>
</svg>
