<svg xmlns="http://www.w3.org/2000/svg" viewBox="0 0 16 16">
<defs>
<linearGradient gradientTransform="matrix(.01015 0 0 .01613 4.38583 1033.9595)" xlink:href="#linearGradient3806-0" id="linearGradient3033" y1="328.653" y2="650.487" gradientUnits="userSpaceOnUse" x2="0"/>
<linearGradient gradientTransform="matrix(-.71362 -.95686 .7524 -.94276 11.93919 1066.1719)" xlink:href="#linearGradient3290-7-1" id="linearGradient3036" y1="8.643" x1="13.232" y2="12.23" gradientUnits="userSpaceOnUse" x2="17.014"/>
<linearGradient id="linearGradient3290-7-1">
<stop offset="0" stop-color="#ba0000"/>
<stop offset="1" stop-color="#ff331e"/>
</linearGradient>
<linearGradient gradientTransform="matrix(.875 0 0 .875 1 129.54524)" xlink:href="#linearGradient3827" id="linearGradient3815" y1="1052.362" y2="1036.362" x2="0" gradientUnits="userSpaceOnUse"/>
<linearGradient id="linearGradient3827">
<stop offset="0" stop-color="#dbdbdb"/>
<stop offset="1" stop-color="#f5f5f5"/>
</linearGradient>
<linearGradient id="linearGradient3806-0">
<stop offset="0" stop-color="#fff6d5"/>
<stop offset="1" stop-color="#fff6d5" stop-opacity="0"/>
</linearGradient>
</defs>
<g transform="translate(0 -1036.3622)">
<path opacity=".1" direction="ltr" block-progression="tb" color="#000000" d="m9.5629,1036.4822c-2.6451,1.1897-5.3654,2.4711-8.047,3.6898c-.8659,.3939-1.2548,1.453-.8611,2.321l3.6523,8.0639c.3984,.8782 1.4747,1.2591 2.3458,.8629l4.4343-2.1223l3.3257,1.9938c.3843,.2335 .8051,.08 1.069-.1488c.2638-.23 .316-.4692 .1386-.883v-.029h-.0297l-1.158-2.3804l.2375-.089h.0297c.8663-.3936 1.2548-1.4532 .8611-2.3212l-3.6523-8.0639c-.1231-.2713-.3602-.6338-.6522-.8083c-.2919-.1745-1.3944-.2192-1.6936-.084z"/>
<path opacity=".15" direction="ltr" block-progression="tb" color="#000000" d="m9.7842,1036.4564c-2.7931,1.2679-5.5797,2.566-8.3728,3.8337c-.6601,.2998-.9491,1.0704-.6488,1.7314l3.8002,8.3784c.3,.6603 1.1002,.9494 1.7611,.6493l4.6962-2.1333l3.6766,2.1951c.3553,.2157 .8747-.2362 .7106-.6183l-1.4212-2.9373l.7106-.3091c.6603-.2997 .9491-1.0704 .6488-1.7315l-3.8002-8.3786c-.145-.319-.2988-.4643-.5892-.6232c-.4215-.2306-.7992-.097-1.1719-.056z"/>
<path opacity=".3" d="m10.2915,1036.8622c-.1112,.01-.2219,.031-.3247,.077c-2.8251,1.2816-5.6505,2.5634-8.4757,3.8448c-.4189,.1901-.6072,.6896-.4169,1.108l3.8499,8.4665c.1902,.4183 .6902,.6067 1.109,.4166l5.0239-2.2793l3.932,2.3664l-1.6627-3.3975l1.1825-.5362c.4187-.1898 .6072-.6895 .4169-1.108l-3.8499-8.4665c-.1379-.3032-.4366-.4886-.7536-.4916c-.0102,0-.0205-.0004-.0308,0z"/>
<path fill="url(#linearGradient3815)" d="m10.2915,1036.3622c-.1112,.01-.2219,.031-.3247,.077c-2.8251,1.2816-5.6505,2.5634-8.4757,3.8448c-.4189,.1901-.6072,.6896-.4169,1.108l3.8499,8.4665c.1902,.4183 .6902,.6067 1.109,.4166l5.0239-2.2793l3.932,2.3664l-1.6627-3.3975l1.1825-.5362c.4187-.1898 .6072-.6895 .4169-1.108l-3.8499-8.4665c-.1379-.3032-.4366-.4886-.7536-.4916c-.0102,0-.0205-.0004-.0308,0z"/>
<path opacity=".5" fill="#fff" d="m10.2812,0c-.1112,.01-.2098,.0165-.3125,.0625c-2.8251,1.2816-5.6436,2.5623-8.4688,3.8438c-.3867,.1755-.5914,.6357-.4688,1.0312c.0531-.253 .217-.4795 .4688-.5938c2.8252-1.2814 5.6437-2.5621 8.4688-3.8438c.1027-.046 .2013-.0525 .3125-.0625c.0103-.0004 .021,0 .0312,0c.317,.003 .6121,.1655 .75,.4688l3.875,8.4688c.0175,.0385 .02,.0854 .0312,.125c.0438-.1765 .0492-.3542-.0312-.5312l-3.875-8.4688c-.1379-.3032-.433-.497-.75-.5c-.0102,0-.021-.0004-.0312,0zm3.2188,10.9375l-.1875,.0938l1.375,2.7812l.3125,.1875l-1.5-3.0625z" transform="translate(0 1036.3622)"/>
<path opacity=".3" direction="ltr" block-progression="tb" fill-rule="evenodd" color="#000000" d="m5.0137,1040.1826 0,.1298 0,3.92 0,.1298 .1001,0 8.7725,0 .1001,0 0-.1298 0-3.92 0-.1298-.1001,0-8.7725,0-.1001,0z"/>
<path opacity=".99" fill="url(#linearGradient3036)" fill-rule="evenodd" stroke="#a00000" stroke-width=".225" d="m13.8876,1043.3927 0-3.9179-8.7751,0 0,3.9179z"/>
<path opacity=".5" fill="url(#linearGradient3033)" fill-rule="evenodd" d="m14,1039.3622-9,0 0,1 9,0z"/>
</g>
</svg>
