<svg xmlns="http://www.w3.org/2000/svg" viewBox="0 0 1000 1000">
<defs>
<linearGradient xlink:href="#linearGradient3806" id="linearGradient3848" y1="130.955" y2="1052.362" x2="0" gradientUnits="userSpaceOnUse"/>
<linearGradient id="linearGradient3806">
<stop offset="0" stop-color="#fff6d5"/>
<stop offset="1" stop-color="#fff6d5" stop-opacity="0"/>
</linearGradient>
<linearGradient gradientTransform="matrix(0 -104.80417 106.81807 0 -675.91919 2123.2129)" xlink:href="#linearGradient3290-7" id="linearGradient3001" x1="11" gradientUnits="userSpaceOnUse" x2="19"/>
<linearGradient id="linearGradient3290-7">
<stop offset="0" stop-color="#ba0000"/>
<stop offset="1" stop-color="#ff331e"/>
</linearGradient>
</defs>
<g transform="translate(0 -52.36218)">
<path opacity=".08" fill-rule="evenodd" d="m498.5973,331.4251-213.0392-206.0981-259.4914,254.3523 209.5019,206.4318-209.5686,206.2983 259.5581,254.4189 213.0392-206.098 210.77,206.6319 266.6327-262.0274-210.2361-199.2237 210.2361-199.2904-266.2323-261.6271z"/>
<path opacity=".15" fill-rule="evenodd" d="m706.4974,151.8235-207.6331,203.4284-213.3062-206.2315-235.1974,230.7257 209.8356,206.365-209.8356,206.2983 235.1974,230.7257 213.3062-206.2316 210.503,206.4317 242.0718-237.8002-210.3028-199.4239 210.3028-199.4907-241.9383-237.6669l-1.5441,1.4755z"/>
<path opacity=".3" fill-rule="evenodd" d="m80.7281,379.746 210.1693,206.365-210.1693,206.2983 204.83,201.0256 213.5064-206.3649 210.3028,206.2317 211.3706-207.433-210.4363-199.7576 210.4363-199.8244-211.3706-207.4329-210.3028,206.2316-213.5064-206.365z"/>
<path fill="url(#linearGradient3001)" fill-rule="evenodd" stroke="#a00000" stroke-width="20" d="m68.4692,757.4836 216.9744,212.8831 213.6357-206.3329 210.2982,206.3329 223.6505-219.4334-210.2981-199.7829 210.2981-199.7829-223.6505-219.434-210.2982,206.3332-213.6357-206.3332-216.9744,212.8834 210.2982,206.3335-210.2982,206.3332z"/>
<path opacity=".5" fill="url(#linearGradient3848)" d="m285.7347,131.9335-217.2654,212.8834 36.0233,34.9347 181.2422-177.9487 213.8883,206.3332 209.3853-206.3332 187.9965,183.4073 36.0233-33.843-224.0198-219.4337-209.3853,206.3332zm-7.0184,418.3719-210.247,207.1779 36.0233,34.9347 174.4878-171.3985-.2521-70.7142zm444.6225,1.6524-.8213,69.0628 174.4878,165.9399 36.0233-36.0264-209.689-198.9763z"/>
</g>
</svg>
