<?xml version="1.0" encoding="UTF-8" standalone="no"?>
<!-- Created with Inkscape (http://www.inkscape.org/) -->

<svg
   xmlns:dc="http://purl.org/dc/elements/1.1/"
   xmlns:cc="http://creativecommons.org/ns#"
   xmlns:rdf="http://www.w3.org/1999/02/22-rdf-syntax-ns#"
   xmlns:svg="http://www.w3.org/2000/svg"
   xmlns="http://www.w3.org/2000/svg"
   xmlns:xlink="http://www.w3.org/1999/xlink"
   xmlns:sodipodi="http://sodipodi.sourceforge.net/DTD/sodipodi-0.dtd"
   xmlns:inkscape="http://www.inkscape.org/namespaces/inkscape"
   inkscape:version="0.48.3.1 r9886"
   version="1.1"
   id="svg2"
   height="1000"
   width="1000"
   sodipodi:docname="im-ban-user.svg">
  <defs
     id="defs4">
    <linearGradient
       id="linearGradient4094">
      <stop
         style="stop-color:#aaaaaa;stop-opacity:1;"
         offset="0"
         id="stop4096" />
      <stop
         style="stop-color:#f0f0f0;stop-opacity:1;"
         offset="1"
         id="stop4098" />
    </linearGradient>
    <linearGradient
       inkscape:collect="always"
       xlink:href="#linearGradient4094"
       id="linearGradient4362"
       gradientUnits="userSpaceOnUse"
       gradientTransform="matrix(1.1886704,0,0,1.1886704,-84.92715,4.1941383)"
       x1="499.01535"
       y1="852.69623"
       x2="499.01535"
       y2="439.80637" />
    <linearGradient
       id="linearGradient3183-0">
      <stop
         style="stop-color:#c80000;stop-opacity:1;"
         offset="0"
         id="stop3185-9" />
      <stop
         style="stop-color:#f3604d;stop-opacity:1;"
         offset="1"
         id="stop3187-6" />
    </linearGradient>
    <linearGradient
       inkscape:collect="always"
       xlink:href="#linearGradient3183-0"
       id="linearGradient3280"
       gradientUnits="userSpaceOnUse"
       gradientTransform="matrix(0,-49.071796,50.01475,0,127.3448,1543.77)"
       x1="11"
       y1="11.015625"
       x2="19"
       y2="11.015625" />
  </defs>
  <sodipodi:namedview
     id="base"
     pagecolor="#ffffff"
     bordercolor="#666666"
     borderopacity="1.0"
     inkscape:pageopacity="0.0"
     inkscape:pageshadow="2"
     inkscape:zoom="0.98994949"
     inkscape:cx="480.3455"
     inkscape:cy="305.21794"
     inkscape:document-units="px"
     inkscape:current-layer="g3273"
     showgrid="false"
     inkscape:window-width="1440"
     inkscape:window-height="848"
     inkscape:window-x="-8"
     inkscape:window-y="-8"
     inkscape:window-maximized="1"
     inkscape:snap-bbox="false"
     inkscape:snap-global="true"
     showguides="true"
     inkscape:guide-bbox="true">
    <sodipodi:guide
       orientation="1,0"
       position="0,810.14234"
       id="guide3219" />
    <sodipodi:guide
       orientation="1,0"
       position="1000.051,496.99505"
       id="guide3221" />
    <sodipodi:guide
       orientation="0,1"
       position="125.25891,1000.051"
       id="guide3223" />
    <sodipodi:guide
       orientation="0,1"
       position="-389.91888,499.01535"
       id="guide3224" />
    <sodipodi:guide
       orientation="1,0"
       position="499.01535,349.51278"
       id="guide3226" />
    <sodipodi:guide
       orientation="1,0"
       position="-499.01535,256.57874"
       id="guide3228" />
    <sodipodi:guide
       orientation="0,1"
       position="-909.13728,0"
       id="guide3230" />
  </sodipodi:namedview>
  <metadata
     id="metadata7">
    <rdf:RDF>
      <cc:Work
         rdf:about="">
        <dc:format>image/svg+xml</dc:format>
        <dc:type
           rdf:resource="http://purl.org/dc/dcmitype/StillImage" />
        <dc:title />
      </cc:Work>
    </rdf:RDF>
  </metadata>
  <g
     inkscape:label="Layer 1"
     inkscape:groupmode="layer"
     id="layer1"
     transform="translate(0,-52.362183)">
    <path
       style="opacity:0.07999998;fill:#000000;fill-opacity:1;stroke:none"
       d="m 451.94234,152.67479 c -8.71069,45.0828 0.38127,74.9265 9.0259,119.05764 7.82258,37.68908 16.20829,76.76731 8.96255,115.21523 -8.82883,36.60804 -23.77156,71.582 -42.76386,104.00701 -1.81813,-26.01264 -0.96071,-53.59257 -13.91544,-77.04355 -16.56131,-39.77541 -39.74635,-77.9996 -72.63462,-106.19743 -20.73575,-10.78911 -49.46833,12.13808 -41.3063,34.76862 7.18614,19.21299 21.70185,35.7682 23.32765,56.79615 11.23328,56.54047 -4.75629,114.49561 -26.83973,166.19969 -25.8808,58.00351 -67.21518,110.45589 -76.68604,174.50298 -15.35909,98.25299 29.5316,203.98072 112.56188,258.76942 93.98671,64.40315 224.86362,67.69595 323.45732,11.09595 63.65735,-35.11818 118.52899,-92.05192 139.07445,-162.92218 17.36564,-61.37536 4.66862,-129.07323 -29.53109,-182.23804 -10.93102,-17.94327 -25.19614,-33.50102 -38.40488,-49.68383 -12.48877,-18.65354 -13.3641,-41.95771 -9.55049,-63.49988 5.20269,-45.20574 25.42518,-87.20905 45.72661,-127.5592 5.11912,-16.77194 -9.31015,-34.94426 -26.5593,-35.17721 -18.3318,-1.5046 -31.58999,13.48224 -45.90241,22.38715 -28.92356,20.85495 -53.38783,48.54911 -66.39436,82.09383 -24.75714,48.59613 -35.51664,104.53181 -28.59785,158.92096 1.35182,22.35238 5.41944,46.18468 -2.63736,67.53133 -11.62575,9.68365 -30.31157,1.6679 -35.28865,-11.55238 -15.41566,-25.56027 -10.21821,-58.35113 1.76309,-84.24242 C 585.618,556.4418 626.01196,492.55621 633.73558,419.07726 639.14368,369.01315 616.38322,322.06027 593.96365,278.89771 538.33047,184.59076 526.90809,165.66888 487.73066,67.772934 462.3402,112.50178 461.46292,113.45441 451.94234,152.67479 z"
       id="path4142"
       inkscape:connector-curvature="0"
       sodipodi:nodetypes="cccccccccccccccccccccccccccc" />
    <path
       style="opacity:0.1;fill:#000000;fill-opacity:1;stroke:none"
       d="m 457.87965,185.70962 c 1.4352,71.23904 30.43287,122.48439 23.43582,194.19271 -8.32857,41.69645 -26.35653,80.98372 -46.64506,118.18436 -3.73463,5.84271 -7.76939,11.54486 -13.29825,15.74988 -8.71419,-28.84039 0.005,-61.35814 -14.009,-88.96457 -15.15604,-40.33168 -38.70461,-77.93022 -69.53225,-107.94612 -13.79005,-7.82823 -34.58289,6.22963 -29.56817,22.17614 4.90901,16.06439 17.92195,28.65779 20.58776,45.63889 14.90926,51.3362 4.25563,106.21102 -12.78343,155.62107 -19.35341,54.95233 -53.75063,102.87192 -76.11629,156.4962 -30.58699,83.6995 -10.48618,182.3921 47.25021,249.43156 65.32296,76.86486 174.75325,107.88176 272.53082,88.49836 66.38725,-12.6931 127.71123,-48.40641 173.01526,-98.18888 C 771.294,894.1889 796.02832,837.47389 792.0584,779.39489 789.29177,723.99273 764.71994,670.7904 726.37759,631.03205 712.18225,613.89909 702.6686,591.78728 705.79873,569.1469 c 1.9751,-49.89933 20.85201,-97.53512 44.64944,-141.00604 3.91595,-7.49395 5.55025,-17.77568 -1.78301,-23.73625 -8.85097,-8.46615 -24.35847,-8.14491 -32.75489,0.83586 -32.25242,20.59679 -64.28496,46.04701 -78.78472,82.60895 -23.8572,44.60016 -38.58695,95.5166 -33.5377,146.5241 1.00788,29.46104 7.02145,60.06136 -1.42635,88.78049 -12.14459,16.66503 -39.705,11.8479 -49.70128,-4.71754 -19.96085,-26.41776 -17.03662,-63.38384 -4.65529,-92.5972 25.66252,-67.32275 66.68302,-129.99951 75.82693,-202.67596 3.85274,-28.01907 -1.04003,-56.44487 -11.56236,-82.50119 -21.62514,-55.7277 -55.21476,-105.75236 -82.25426,-158.91938 -23.95421,-47.28466 -21.93744,-50.11286 -43.00813,-96.08583 -24.77613,39.19454 -29.8251,62.32645 -28.92746,100.05271 z"
       id="path4132"
       inkscape:connector-curvature="0"
       sodipodi:nodetypes="ccccccccccccccccccccccccccccc" />
    <path
       style="opacity:0.15;fill:#000000;fill-opacity:1;stroke:none"
       d="m 465.86419,184.35969 c 1.3528,69.96938 30.52943,121.23408 25.75096,191.55397 -5.17917,36.63896 -21.57385,70.4048 -36.068,104.11208 -8.64661,17.53517 -18.76207,36.02656 -35.4008,46.99765 -6.05352,0.60032 -6.13927,-7.24743 -8.24641,-11.0695 -8.43118,-26.63389 -0.14607,-56.62108 -11.58953,-82.72403 -13.45056,-39.76651 -37.1707,-75.38904 -64.93113,-106.53459 -7.10314,-5.54075 -20.36442,-0.13893 -17.94149,9.76939 2.29455,11.19969 12.14071,18.94191 15.04411,29.97678 21.35583,51.48555 13.4207,109.96182 -2.32513,161.60449 -16.43496,53.13809 -45.95637,100.9007 -71.85534,149.75288 -22.11499,46.39009 -29.202,100.09931 -17.89159,150.45464 14.07758,71.35712 60.72083,135.81569 125.652,168.92624 84.29683,45.61701 192.18091,44.84021 275.70594,-2.04522 58.72508,-31.14663 110.0111,-81.39697 131.78517,-145.16418 21.84265,-67.47868 3.92902,-144.7761 -42.03877,-198.00132 -16.12633,-19.36811 -34.66055,-40.24672 -35.00883,-66.88056 -2.80919,-40.00531 9.42473,-78.99791 23.11167,-116.04985 7.14594,-17.71127 17.19257,-34.40751 25.29634,-51.37285 -0.36314,-10.20531 -14.82843,-13.02092 -21.02461,-6.24052 -30.09892,19.7873 -61.90109,41.7624 -75.91004,76.3261 -20.74384,39.31607 -37.46504,82.6107 -35.19346,127.8652 -0.22275,35.55326 6.97569,71.61108 0.33431,106.83175 -6.89862,20.04004 -33.30441,25.16612 -50.66708,16.52994 -18.64653,-8.68889 -28.20689,-29.46899 -32.27983,-48.62404 -5.58889,-28.08111 2.78453,-56.22532 14.23644,-81.70474 26.19546,-63.70302 63.98205,-124.58477 70.71635,-194.40112 3.9528,-42.42161 -15.94429,-81.87604 -33.98855,-118.79276 C 542.10786,217.50654 510.86533,174.48627 485.4378,99.289088 468.64754,128.55706 464.48703,157.73014 465.86419,184.35969 z"
       id="path4120"
       inkscape:connector-curvature="0"
       sodipodi:nodetypes="cccccccccccccccccccccccccccccc" />
    <path
       style="opacity:0.3;fill:#000000;fill-opacity:1;stroke:none"
       d="m 329.3386,336.77529 c 0,0 71.05712,81.11598 -13.23983,258.3193 -30.26262,63.61592 -75.65656,111.80983 -68.09084,200.4866 12.49163,146.41281 132.39879,223.61971 257.23203,223.61971 124.83309,0 257.23208,-100.24335 264.79761,-212.05316 7.56566,-111.80983 -60.52519,-150.36498 -79.43932,-192.77559 -18.91412,-42.41062 5.67424,-138.79843 39.71978,-192.77557 -52.95967,36.62734 -58.6339,36.62734 -92.67933,117.5931 -34.04538,80.96573 15.39246,184.01556 -30.26258,208.19762 -57.98127,30.71093 -105.01546,-38.107 -87.0049,-106.02657 18.91406,-71.32698 76.93681,-145.0761 83.2221,-235.1862 5.23345,-75.02887 -104.02768,-204.34215 -119.15894,-283.38014 -30.26259,65.54371 38.322,200.2481 15.13134,275.66911 C 449.66444,560.75324 394.03144,578.23785 395.53807,473.64597 396.40152,413.69886 329.3386,336.77529 329.3386,336.77529 z"
       id="path4118"
       inkscape:connector-curvature="0"
       sodipodi:nodetypes="cssssscsssscssc"
       inkscape:export-filename="C:\Users\Madnester\Desktop\Sketches\256.png"
       inkscape:export-xdpi="23.039482"
       inkscape:export-ydpi="23.039482" />
    <path
       inkscape:export-ydpi="23.039482"
       inkscape:export-xdpi="23.039482"
       inkscape:export-filename="C:\Users\Madnester\Desktop\Sketches\256.png"
       sodipodi:nodetypes="cssssscsssscssc"
       inkscape:connector-curvature="0"
       id="path4019-2"
       d="m 329.3386,327.26593 c 0,0 71.05712,81.11598 -13.23983,258.31929 -30.26262,63.61593 -75.65656,111.80984 -68.09084,200.48661 12.49163,146.41281 132.39879,223.61967 257.23203,223.61967 124.83309,0 257.23208,-100.24331 264.79761,-212.05313 7.56566,-111.80982 -60.52519,-150.36498 -79.43932,-192.77558 -18.91412,-42.41063 5.67424,-138.79844 39.71978,-192.77557 -52.95967,36.62733 -58.6339,36.62733 -92.67933,117.5931 -34.04538,80.96572 15.39246,184.01556 -30.26258,208.19762 -57.98127,30.71093 -105.01546,-38.10701 -87.0049,-106.02657 18.91406,-71.32698 76.93681,-145.0761 83.2221,-235.1862 5.23345,-75.02887 -104.02768,-204.34215 -119.15894,-283.38014 -30.26259,65.54371 38.322,200.24809 15.13134,275.66911 C 449.66444,551.24388 394.03144,568.72848 395.53807,464.13661 396.40152,404.18949 329.3386,327.26593 329.3386,327.26593 z"
       style="fill:url(#linearGradient4362);fill-opacity:1;stroke:none" />
    <path
       inkscape:connector-curvature="0"
       style="opacity:0.6;fill:#ffffff;fill-opacity:1;stroke:none"
       d="m 484.44548,113.27668 c -6.93932,15.02939 -8.69779,33.70225 -7.54063,54.45596 0.77814,-12.24121 3.08421,-23.40802 7.54063,-33.0599 14.11497,73.72942 110.09419,191.21048 118.68131,267.56229 0.17414,-1.8555 0.35251,-3.70242 0.4829,-5.57189 C 608.84315,321.63428 499.57673,192.31466 484.44548,113.27668 z M 330.10406,328.20315 c 3.11235,3.9686 14.87399,20.36968 21.87896,50.07274 19.37869,27.88938 44.09858,70.69543 43.57221,107.24036 -1.50665,104.59187 54.10738,87.10634 104.00866,-75.1834 4.39128,-14.2814 5.46476,-30.66627 4.56895,-48.32688 -0.58141,9.58185 -2.01276,18.61749 -4.56895,26.93081 -49.90128,162.28974 -105.51531,179.77528 -104.00866,75.1834 0.83423,-57.91873 -61.21574,-130.99143 -65.45117,-135.91703 z m 400.21047,83.87556 c -52.9596,36.62734 -58.63371,36.63832 -92.67915,117.60407 -11.78849,28.03502 -13.55745,58.71059 -12.74105,87.85019 0.66536,-22.45398 3.81108,-45.21713 12.74105,-66.45411 29.82632,-70.93198 37.88781,-79.74012 75.03483,-105.45736 5.41495,-12.21275 11.37559,-23.60406 17.64432,-33.54279 z m -373.20537,25.25924 c -1.60734,38.65899 -12.288,87.87389 -41.00912,148.2495 -29.29506,61.582 -72.75877,108.72777 -68.64572,192.11885 3.50587,-70.48885 41.95064,-114.60627 68.64572,-170.72278 34.31801,-72.14099 42.9104,-128.34494 41.00912,-169.64557 z m 327.29298,139.55734 c -1.14001,19.50724 0.60599,36.81608 6.20337,49.36697 17.26759,38.71857 75.49732,74.22219 79.75236,165.18804 4.68982,-107.05608 -61.19197,-144.96673 -79.75236,-186.5841 -3.44647,-7.72793 -5.43974,-17.24173 -6.20337,-27.97091 z m -167.4168,95.61368 c -5.57467,60.81422 37.89409,114.57108 90.37609,86.77294 19.1944,-10.16667 21.58185,-34.31152 20.43028,-64.85683 -1.06411,20.23611 -5.98905,35.81168 -20.43028,43.46077 -46.20381,24.47277 -85.44996,-14.26457 -90.37609,-65.37688 z"
       id="path4082" />
    <g
       id="g3273"
       transform="translate(74,-20)">
      <path
         style="opacity:0.08;fill:#000000;fill-opacity:1;fill-rule:evenodd;stroke:none;display:inline"
         d="m 770,614.15625 c -31.09885,29.99819 -61.79774,60.45565 -92.71875,90.65625 -33.2314,-32.19918 -66.5156,-64.30488 -99.75,-96.5 -40.75617,39.48172 -81.22645,79.2084 -121.5,119.09375 32.64233,32.2751 65.3608,64.47329 98.09375,96.65625 -32.6281,32.27472 -65.60724,64.3251 -98.125,96.59375 40.27623,39.82812 80.84748,79.59555 121.53125,119.12495 33.23428,-32.1953 66.51856,-64.30092 99.75,-96.49995 32.93928,32.20523 65.79577,64.49585 98.6875,96.74995 41.65403,-40.85301 83.42098,-81.71649 124.84375,-122.68745 -32.83136,-31.06491 -65.63443,-62.16956 -98.4375,-93.28125 32.83213,-31.09139 65.59475,-62.24932 98.4375,-93.3125 -41.37514,-40.89514 -83.03708,-81.73643 -124.65625,-122.5 -2.05208,1.96875 -4.10417,3.9375 -6.15625,5.90625 z"
         id="path3349"
         inkscape:connector-curvature="0" />
      <path
         style="opacity:0.15;fill:#000000;fill-opacity:1;fill-rule:evenodd;stroke:none;display:inline"
         d="m 774.625,620.71875 c -32.46653,31.66274 -64.7949,63.52214 -97.21875,95.25 -33.27606,-32.21611 -66.6029,-64.34159 -99.875,-96.5625 -36.84532,35.87012 -73.54966,71.88577 -110.125,108.03125 32.6757,32.2837 65.51632,64.4001 98.25,96.625 -32.69987,32.2489 -65.61635,64.27776 -98.25,96.59375 36.61028,36.10991 73.28102,72.15978 110.125,108.03125 33.27206,-32.22104 66.59883,-64.34664 99.875,-96.5625 32.87981,32.1926 65.72506,64.42044 98.5625,96.6562 37.77062,-37.1253 75.65919,-74.13101 113.34375,-111.3437 -32.8675,-31.07792 -65.62294,-62.27416 -98.46875,-93.375 32.8283,-31.12972 65.61139,-62.30725 98.46875,-93.40625 C 851.6348,693.47863 813.80909,656.45092 776.03125,619.375 l -0.72299,0.69086 -0.68326,0.65289 z"
         id="path3337"
         inkscape:connector-curvature="0" />
      <path
         style="opacity:0.3;fill:#000000;fill-opacity:1;fill-rule:evenodd;stroke:none;display:inline"
         d="m 481.625,727.4375 c 32.78962,32.22099 65.64362,64.37673 98.40625,96.625 -32.75474,32.2459 -65.6078,64.39218 -98.40625,96.59375 31.96875,31.375 63.9375,62.75 95.90625,94.12495 33.31612,-32.2153 66.65722,-64.40492 99.96875,-96.62495 32.88816,32.1205 65.65166,64.36914 98.46875,96.56255 32.98958,-32.37505 65.97917,-64.75005 98.96875,-97.12505 C 842.0961,886.4142 809.27037,855.21803 776.40625,824.0625 809.26375,792.88958 842.0873,761.68069 874.9375,730.5 841.94792,698.125 808.95833,665.75 775.96875,633.375 743.1516,665.5683 710.38822,697.81706 677.5,729.9375 c -33.31155,-32.22 -66.65261,-64.40966 -99.96875,-96.625 -31.96875,31.375 -63.9375,62.75 -95.90625,94.125 z"
         id="path3751"
         inkscape:connector-curvature="0" />
      <path
         id="path7165"
         d="m 475.8851,904.30319 101.59254,99.67691 100.02931,-96.60993 98.46659,96.60993 L 880.69203,901.2362 782.22545,807.6931 880.69203,714.15 775.97354,611.40578 677.50695,708.01587 577.47764,611.40578 475.8851,711.08285 574.35168,807.6931 475.8851,904.30319 z"
         style="fill:url(#linearGradient3280);fill-opacity:1;fill-rule:evenodd;stroke:none;display:inline"
         inkscape:connector-curvature="0" />
      <path
         sodipodi:nodetypes="ccccccccccccccccccccc"
         id="path2970"
         d="m 577.61392,611.40578 -101.72882,99.67707 16.86695,16.35727 84.86187,-83.31981 100.14755,96.61008 98.03918,-96.61008 88.02443,85.87563 16.86695,-15.8461 -104.89138,-102.74406 -98.03918,96.61009 -100.14755,-96.61009 z m -3.28619,195.89164 -98.44263,97.0056 16.86695,16.35726 81.69931,-80.25282 -0.11806,-33.11004 z m 208.18277,0.7737 -0.38457,32.33684 81.69931,77.697 16.86696,-16.86843 -98.18136,-93.16541 z"
         style="opacity:0.2;fill:#ffffff;fill-opacity:1;fill-rule:evenodd;stroke:none;display:inline"
         inkscape:connector-curvature="0" />
    </g>
  </g>
</svg>
