<?xml version="1.0" encoding="UTF-8" standalone="no"?>
<!-- Created with Inkscape (http://www.inkscape.org/) -->

<svg
   xmlns:dc="http://purl.org/dc/elements/1.1/"
   xmlns:cc="http://creativecommons.org/ns#"
   xmlns:rdf="http://www.w3.org/1999/02/22-rdf-syntax-ns#"
   xmlns:svg="http://www.w3.org/2000/svg"
   xmlns="http://www.w3.org/2000/svg"
   xmlns:xlink="http://www.w3.org/1999/xlink"
   xmlns:sodipodi="http://sodipodi.sourceforge.net/DTD/sodipodi-0.dtd"
   xmlns:inkscape="http://www.inkscape.org/namespaces/inkscape"
   inkscape:version="0.48.4 r9939"
   version="1.1"
   id="svg2"
   height="1000"
   width="1000"
   sodipodi:docname="im-ban-user.svg">
  <defs
     id="defs4">
    <linearGradient
       inkscape:collect="always"
       xlink:href="#linearGradient3290-7"
       id="linearGradient3001"
       gradientUnits="userSpaceOnUse"
       gradientTransform="matrix(0,-104.80417,106.81807,0,-675.91919,2123.2129)"
       x1="11"
       y1="11.015625"
       x2="19"
       y2="11.015625" />
    <linearGradient
       id="linearGradient3290-7">
      <stop
         style="stop-color:#ba0000;stop-opacity:1;"
         offset="0"
         id="stop3292-2" />
      <stop
         style="stop-color:#ff331e;stop-opacity:1;"
         offset="1"
         id="stop3294-3" />
    </linearGradient>
    <linearGradient
       id="linearGradient3806"
       inkscape:collect="always">
      <stop
         id="stop3808"
         offset="0"
         style="stop-color:#fff6d5;stop-opacity:1;" />
      <stop
         id="stop3810"
         offset="1"
         style="stop-color:#fff6d5;stop-opacity:0;" />
    </linearGradient>
    <linearGradient
       inkscape:collect="always"
       xlink:href="#linearGradient3806"
       id="linearGradient3066"
       gradientUnits="userSpaceOnUse"
       gradientTransform="matrix(20.793434,0,0,20.793434,-1475.1054,-503.75856)"
       x1="52"
       y1="28"
       x2="52"
       y2="91.007935" />
    <linearGradient
       inkscape:collect="always"
       xlink:href="#linearGradient3290-7"
       id="linearGradient3069"
       gradientUnits="userSpaceOnUse"
       gradientTransform="matrix(7.6118818,0,0,7.611881,-964.18107,7.165955)"
       x1="47.609753"
       y1="121.36586"
       x2="47.609753"
       y2="6.6341324" />
    <linearGradient
       inkscape:collect="always"
       xlink:href="#linearGradient3806"
       id="linearGradient3848"
       x1="499.01535"
       y1="130.95543"
       x2="499.01535"
       y2="1052.3622"
       gradientUnits="userSpaceOnUse" />
  </defs>
  <sodipodi:namedview
     id="base"
     pagecolor="#ffffff"
     bordercolor="#666666"
     borderopacity="1.0"
     inkscape:pageopacity="0.0"
     inkscape:pageshadow="2"
     inkscape:zoom="0.631"
     inkscape:cx="430.26941"
     inkscape:cy="511.0935"
     inkscape:document-units="px"
     inkscape:current-layer="layer1"
     showgrid="false"
     inkscape:window-width="1440"
     inkscape:window-height="848"
     inkscape:window-x="-8"
     inkscape:window-y="-8"
     inkscape:window-maximized="1"
     inkscape:snap-bbox="false"
     inkscape:snap-global="true"
     showguides="true"
     inkscape:guide-bbox="true">
    <sodipodi:guide
       orientation="1,0"
       position="0,810.14234"
       id="guide3219" />
    <sodipodi:guide
       orientation="1,0"
       position="1000.051,496.99505"
       id="guide3221" />
    <sodipodi:guide
       orientation="0,1"
       position="125.25891,1000.051"
       id="guide3223" />
    <sodipodi:guide
       orientation="0,1"
       position="-389.91888,499.01535"
       id="guide3224" />
    <sodipodi:guide
       orientation="1,0"
       position="499.01535,349.51278"
       id="guide3226" />
    <sodipodi:guide
       orientation="1,0"
       position="-499.01535,256.57874"
       id="guide3228" />
    <sodipodi:guide
       orientation="0,1"
       position="-909.13728,0"
       id="guide3230" />
  </sodipodi:namedview>
  <metadata
     id="metadata7">
    <rdf:RDF>
      <cc:Work
         rdf:about="">
        <dc:format>image/svg+xml</dc:format>
        <dc:type
           rdf:resource="http://purl.org/dc/dcmitype/StillImage" />
        <dc:title />
      </cc:Work>
    </rdf:RDF>
  </metadata>
  <g
     inkscape:label="Layer 1"
     inkscape:groupmode="layer"
     id="layer1"
     transform="translate(0,-52.362183)">
    <path
       inkscape:connector-curvature="0"
       id="path3349"
       d="M 696.61963,137.80773 C 630.20084,201.8758 564.63626,266.92475 498.59729,331.42512 427.62395,262.65632 356.53785,194.08717 285.5581,125.32705 198.51387,209.64939 112.08023,294.49491 26.066744,379.6793 95.78199,448.61024 165.65985,517.37692 235.56864,586.11107 165.88378,655.0412 95.449201,723.4922 26.000003,792.40937 112.01921,877.47153 198.6685,962.40408 285.5581,1046.8283 356.53759,978.06774 427.62387,909.49877 498.59729,840.73029 568.94675,909.51201 639.11938,978.4761 709.36728,1047.3622 798.32909,960.11113 887.53208,872.83772 975.99998,785.33476 905.88102,718.98846 835.82248,652.55728 765.76393,586.11107 835.88454,519.70822 905.85669,453.16325 975.99998,386.82065 887.6338,299.47962 798.65509,212.2536 709.76773,125.19356 c -4.38269,4.20472 -8.76541,8.40945 -13.1481,12.61417 z"
       style="opacity:0.07999998;fill:#000000;fill-opacity:1;fill-rule:evenodd;stroke:none;display:inline" />
    <path
       inkscape:connector-curvature="0"
       id="path3337"
       d="M 706.49739,151.82346 C 637.1576,219.44657 568.11289,287.48969 498.86426,355.25187 427.79554,286.44691 356.61836,217.83552 285.5581,149.02032 206.86639,225.62925 128.47579,302.549 50.360688,379.74604 120.1472,448.69535 190.28594,517.28735 260.19629,586.11107 190.35815,654.98606 120.0574,723.3911 50.360688,792.40937 128.55041,869.53043 206.86926,946.52327 285.5581,1023.1351 356.61828,954.31961 427.7953,885.70796 498.86426,816.90354 569.0867,885.65828 639.23533,954.48829 709.36728,1023.3352 790.03517,944.04554 870.95498,865.01129 951.43907,785.53498 881.24292,719.1609 811.2861,652.53411 741.13628,586.11107 811.24871,519.62636 881.26458,453.03953 951.43907,386.62042 870.96963,307.21902 790.18408,228.13778 709.50076,148.95357 l -1.54411,1.4755 -1.45926,1.39439 z"
       style="opacity:0.15;fill:#000000;fill-opacity:1;fill-rule:evenodd;stroke:none;display:inline" />
    <path
       inkscape:connector-curvature="0"
       id="path3751"
       d="M 80.728117,379.74604 C 150.75794,448.56141 220.92525,517.23743 290.89743,586.11107 220.9421,654.97965 150.77679,723.63547 80.728117,792.40937 149.00478,859.41794 217.28144,926.42651 285.5581,993.43497 356.71238,924.63175 427.92001,855.88337 499.06449,787.07004 569.30476,855.6708 639.27879,924.54523 709.36728,993.3017 779.82416,924.15729 850.28106,855.01299 920.73793,785.86869 850.59753,719.27755 780.49059,652.65091 710.30166,586.11107 780.47645,519.53409 850.57873,452.88029 920.73793,386.28671 850.28106,317.14241 779.82416,247.99811 709.36728,178.85381 639.27866,247.61005 569.30489,316.48474 499.06449,385.08537 427.91997,316.2721 356.71242,247.52364 285.5581,178.72033 217.28144,245.7289 149.00478,312.73747 80.728117,379.74604 z"
       style="opacity:0.3;fill:#000000;fill-opacity:1;fill-rule:evenodd;stroke:none;display:inline" />
    <path
       inkscape:connector-curvature="0"
       style="fill:url(#linearGradient3001);fill-opacity:1;fill-rule:evenodd;stroke:#a00000;display:inline;stroke-opacity:1;stroke-width:20;stroke-miterlimit:4;stroke-dasharray:none;opacity:0.99"
       d="M 68.469233,757.48363 285.4436,970.36672 499.07933,764.03387 709.37751,970.36672 933.02806,750.93336 722.72991,551.15043 933.02806,351.36751 709.37751,131.93346 499.07933,338.26665 285.4436,131.93346 68.469233,344.8169 278.76739,551.15043 68.469233,757.48363 z"
       id="path7165" />
    <path
       inkscape:connector-curvature="0"
       style="opacity:0.5;fill:url(#linearGradient3848);fill-opacity:1;fill-rule:nonzero;stroke:none;display:inline"
       d="M 285.73466,131.93346 68.469233,344.8169 104.49251,379.75163 285.73466,201.80291 499.62292,408.13608 709.00826,201.80291 897.00479,385.21018 933.02806,351.36717 709.00826,131.93346 499.62292,338.26665 285.73466,131.93346 z m -7.01842,418.37191 -210.247007,207.17789 36.023277,34.93472 174.48777,-171.39846 -0.25214,-70.71415 z m 444.62246,1.65241 -0.82134,69.0628 174.48777,165.93992 36.0233,-36.02643 -209.68901,-198.97629 z"
       id="path2970"
       sodipodi:nodetypes="ccccccccccccccccccccc" />
  </g>
</svg>
