<svg xmlns="http://www.w3.org/2000/svg" viewBox="0 0 1000 1000">
<defs>
<linearGradient gradientTransform="matrix(7.61188 0 0 7.61188 13.83954 12.04624)" xlink:href="#linearGradient3806" id="linearGradient3067" y1="6.856" x1="64.682" y2="126.765" gradientUnits="userSpaceOnUse" x2="65.931"/>
<linearGradient id="linearGradient3290-7">
<stop offset="0" stop-color="#ba0000"/>
<stop offset="1" stop-color="#ff331e"/>
</linearGradient>
<linearGradient id="linearGradient3806">
<stop offset="0" stop-color="#fff6d5"/>
<stop offset="1" stop-color="#fff6d5" stop-opacity="0"/>
</linearGradient>
<linearGradient gradientTransform="matrix(7.61188 0 0 7.61188 13.83954 64.40842)" xlink:href="#linearGradient3290-7" id="linearGradient3330" y1="121.366" y2="6.634" gradientUnits="userSpaceOnUse" x2="0"/>
</defs>
<g transform="translate(0 -52.36218)">
<path opacity=".1" d="m48,26.1562c-12.5889,0-22.8438,10.2548-22.8438,22.8438c0,12.5889 10.2548,22.8438 22.8438,22.8438c12.5889,0 22.8438-10.2548 22.8438-22.8438c0-12.5889-10.2548-22.8438-22.8438-22.8438zm0,12c6.0038,0 10.8438,4.84 10.8438,10.8438c0,.2522-.1313,.575-.1875,.8438l-11.5-11.5c.2687-.0562 .5904-.1875 .8438-.1875zm-10.625,9.5l11.9688,11.9688c-.4437,.0775-.8936,.2188-1.3438,.2188c-6.0038,0-10.8438-4.84-10.8438-10.8438c0-.4486 .1413-.8998 .2188-1.3438z" transform="matrix(20.79343 0 0 20.79343 -497.08482 -446.51609)"/>
<path opacity=".15" d="m48,26.9688c-12.1467,0-22.0312,9.8845-22.0312,22.0312c0,12.1467 9.8845,22.0312 22.0312,22.0312c12.1467,0 22.0312-9.8845 22.0312-22.0312c0-12.1467-9.8845-22.0312-22.0312-22.0312zm0,10.375c6.4434,0 11.6562,5.2128 11.6562,11.6562c0,.8677-.3004,1.6563-.5,2.4688l-13.625-13.625c.8115-.1995 1.5984-.5 2.4688-.5zm-11.1562,8.6562 14.1562,14.1562c-.9683,.2839-1.955,.5-3,.5c-6.4434,0-11.6562-5.2128-11.6562-11.6562c0-1.0421 .216-2.0306 .5-3z" transform="matrix(20.79343 0 0 20.79343 -497.08482 -446.51609)"/>
<path opacity=".3" d="m48,27.9375c-11.623,0-21.0625,9.4395-21.0625,21.0625c0,11.623 9.4395,21.0625 21.0625,21.0625c11.623,0 21.0625-9.4395 21.0625-21.0625c0-11.623-9.4395-21.0625-21.0625-21.0625zm0,8.4375c6.9671,0 12.625,5.6579 12.625,12.625c0,1.5772-.3411,3.0454-.875,4.4375l-16.1875-16.1875c1.392-.5348 2.8566-.875 4.4375-.875zm-11.5938,7.8125 16.4062,16.4062c-1.4921,.6247-3.0941,1.0312-4.8125,1.0312c-6.9671,0-12.625-5.6579-12.625-12.625c0-1.7147 .4076-3.3204 1.0312-4.8125z" transform="matrix(20.79343 0 0 20.79343 -497.08482 -446.51609)"/>
<path fill="url(#linearGradient3330)" stroke="#a00000" stroke-linecap="round" stroke-width="20" d="m501,125.3034c-235.2985,0-426.2654,190.9669-426.2654,426.2654c0,235.2991 190.9669,426.2661 426.2654,426.2661c235.2985,0 426.2654-190.967 426.2654-426.2661c0-235.2985-190.9669-426.2654-426.2654-426.2654zm0,152.2377c151.2633,0 274.0277,122.7645 274.0277,274.0278c0,40.8784-9.1428,79.5605-25.2143,114.4165l-363.4673-363.2301c34.906-16.1284 73.6984-25.2142 114.654-25.2142zm-245.4831,152.7132 367.0353,366.7982c-36.6555,18.2005-77.875,28.5432-121.5522,28.5432c-151.2633,0-274.0277-122.7645-274.0277-274.0269c0-43.6018 10.4017-84.7062 28.5446-121.3145z"/>
<path opacity=".5" fill="url(#linearGradient3067)" d="m501,72.9375c-235.2985,0-426.25,190.9827-426.25,426.2812c0,12.4727 .5424,24.7983 1.5938,37c18.7706-217.9965 201.8221-389.2812 424.6562-389.2812c222.8341,0 405.8856,171.2847 424.6562,389.2812c1.0513-12.2017 1.5938-24.5273 1.5938-37c0-235.2985-190.9515-426.2812-426.25-426.2812zm-59.3438,232.75c-19.2714,4.2885-37.7831,10.6192-55.3125,18.7188l363.4688,363.2188c16.0715-34.856 25.2188-73.5278 25.2188-114.4062c0-12.5875-.8853-24.9865-2.5312-37.125c-3.7406,27.322-11.5372,53.3483-22.6875,77.5312l-308.1562-307.9375zm-212.1562,230.5938c-1.6559,12.0738-2.5312,24.4035-2.5312,36.9375c0,151.2624 122.768,274 274.0312,274c43.6772,0 84.907-10.3307 121.5625-28.5312l-53.9688-53.9375c-21.6136,5.5269-44.2554,8.4688-67.5938,8.4688c-138.6864,0-253.3802-103.1943-271.5-236.9375z" transform="translate(0 52.36218)"/>
</g>
</svg>
