<svg xmlns="http://www.w3.org/2000/svg" viewBox="0 0 16 16">
<defs>
<linearGradient gradientTransform="matrix(.00527 .0055 -.00533 .00543 18.23375 1040.7899)" xlink:href="#linearGradient974" id="linearGradient3093" y1="336.775" x1="-211.158" y2="341.816" gradientUnits="userSpaceOnUse" x2="-866.261"/>
<linearGradient gradientTransform="matrix(.00761 0 0 .00761 742.07697 707.50072)" xlink:href="#linearGradient990" id="linearGradient3090" y1="631.156" x1="-322.455" y2="530.337" gradientUnits="userSpaceOnUse" x2="-722.222"/>
<linearGradient gradientTransform="matrix(.00527 .0055 -.00533 .00543 18.23375 1040.7899)" xlink:href="#linearGradient956" id="linearGradient3100" y1="884.213" x1="-282.443" y2="888.172" gradientUnits="userSpaceOnUse" x2="-751.158"/>
<linearGradient gradientTransform="matrix(.00527 .0055 -.00533 .00543 18.23375 1040.7899)" xlink:href="#linearGradient918" id="linearGradient3083" y1="1288.587" x1="-743.58" y2="1259.601" gradientUnits="userSpaceOnUse" x2="-654.719"/>
<linearGradient id="linearGradient918">
<stop offset="0" stop-color="#fff"/>
<stop offset="1" stop-color="#fff" stop-opacity="0"/>
</linearGradient>
<linearGradient id="linearGradient990">
<stop offset="0" stop-color="#b0b0b0"/>
<stop offset="1" stop-color="#ededed"/>
</linearGradient>
<linearGradient id="linearGradient956">
<stop offset="0" stop-color="#628bd6"/>
<stop offset=".306" stop-color="#29508b"/>
<stop offset="1" stop-color="#84aede"/>
</linearGradient>
<linearGradient id="linearGradient974">
<stop offset="0" stop-color="#d63838"/>
<stop offset=".306" stop-color="#c52626"/>
<stop offset="1" stop-color="#fd9797"/>
</linearGradient>
<radialGradient cx="-543.873" cy="1468.444" gradientTransform="matrix(.01442 .00683 -.0244 .05483 50.94383 969.17416)" id="radialGradient3087" r="259.409" gradientUnits="userSpaceOnUse">
<stop offset="0" stop-color="#fcf4d0"/>
<stop offset="1" stop-color="#c59d35"/>
</radialGradient>
</defs>
<g transform="translate(0 -1036.3622)">
<path direction="ltr" fill="#e6e6e6" block-progression="tb" color="#000000" d="m10.6536,1036.3624c-.0117,0-.0235,0-.0352,.0005c-.1271,0-.2526,.034-.3701,.087c-3.229,1.4661-6.4581,2.9323-9.6872,4.3982c-.4788,.2174-.6937,.789-.4763,1.2677l4.3995,9.6856c.2173,.4785 .7887,.6935 1.2674,.4762l9.6872-4.3988c.4786-.2173 .6937-.789 .4763-1.2676l-4.3995-9.6861c-.1576-.3469-.4997-.5588-.8621-.5624z"/>
<path fill="#656565" d="m10.415,1037.3623c-.0688,0-.1384,.018-.2052,.049l-8.8986,4.0405c-.2672,.121-.3847,.4342-.2634,.7014l4.0411,8.8978c.1213,.2673 .4341,.3848 .7013,.2634l8.8986-4.0409c.2672-.1215 .3847-.4341 .2634-.7013l-4.0411-8.8984c-.091-.2004-.2897-.3167-.4961-.311zm-.483,1.3998c.1651-.01 .324,.088 .3968,.2488l3.2331,7.1188c.0971,.2137 .003,.4638-.2109,.5609l-7.1189,3.2329c-.2138,.097-.4638,.01-.5609-.2109l-3.2331-7.1187c-.0971-.2138-.0029-.4636 .2109-.5607l7.1189-3.233c.0534-.024 .109-.037 .1641-.038z"/>
<path direction="ltr" fill="#656565" block-progression="tb" stroke="#656565" color="#000000" stroke-width=".381" d="m13.7265,1037.8183c-.3404-.355-.9105-.3166-1.2698,.05l-1.1215,1.1438c-.1387-.026-.2874,.015-.394,.1235l-.3655,.3725c-.1066,.1089-.1483,.2616-.1242,.4051l-2.9608,3.0194l0,.011c-.006,.011-.0168,.015-.0168,.015l-.056,.091l-1.1149,3.8852l.033,.1748l.0825,.1075l.0788,.026l.1174,.04l3.787-1.1599c0,0 .065-.034 .0874-.057h.0024l2.961-3.0194c.1387,.026 .2872-.015 .3936-.1236l.3655-.3729c.1065-.1086 .1482-.2612 .1242-.4046l.4286-.4371l.6931-.7069c.3593-.3662 .4028-.9535 .0624-1.3088l-1.7934-1.8703zm-.2664,.2717 1.7934,1.8705c.1825,.1903 .1717,.5265-.0595,.7623l-.6931,.7067l-.5109,.5211l-.0302,.2343c.0154,.027 .0133,.06-.0117,.087l-.3655,.3728c-.0251,.024-.0575,.027-.0839,.011l-.2275,.028l-3.0181,3.0778l-1.8222,.5583l-.0032,.011l-1.7107,.5237l1.0486-3.6538l3.0318-3.0917l.0303-.2344c-.0154-.027-.0133-.061 .0116-.088l.3655-.3727c.0249-.025 .0576-.027 .084-.011l.2275-.028l1.204-1.2279c.2312-.2356 .5574-.2431 .7399-.053z"/>
<path fill="url(#linearGradient3100)" d="m11.8955,1038.7122-4.2731,4.3577 2.7371,2.8547 4.2731-4.3577z"/>
<path d="m736.19,711.456h3.823a.2609,.2609 0 0,1 .261,.261v.522a.2609,.2609 0 0,1 -.261,.261h-3.823a.2609,.2609 0 0,1 -.261-.261v-.522a.2609,.2609 0 0,1 .261-.261" transform="matrix(.6921 .72181 -.70015 .714 0 0)"/>
<path fill="url(#linearGradient3093)" d="m13.5934,1037.9542c-.2614-.2727-.7096-.2498-1.0048,.052l-1.8118,1.8477l2.7371,2.8545l1.8118-1.8476c.2952-.301 .3224-.7629 .061-1.0355l-1.7933-1.8703z"/>
<path fill="url(#linearGradient3090)" d="m736.16,711.361h3.823a.2609,.2609 0 0,1 .261,.261v.521a.2609,.2609 0 0,1 -.261,.261h-3.823a.2609,.2609 0 0,1 -.261-.261v-.521a.2609,.2609 0 0,1 .261-.261" transform="matrix(.6921 .72181 -.70015 .714 0 0)"/>
<path fill="url(#radialGradient3087)" d="m7.5976,1043.0999-1.115,3.885 .0824,.1075 3.7833-1.1586c0,0 .6692-.6533 .3598-1.1515c-.3094-.4979-.8891-.078-.8891-.078l-.0505-.1115c0,0 .4458-.6526 .1003-.993c-.3455-.3407-.9901,.1073-.9901,.1073l-.1015-.033c0,0 .3812-.6856-.0419-.9602c-.4231-.2743-1.1377,.386-1.1377,.386z"/>
<path fill="#1a1807" d="m8.1324,1045.9035c-.3216-.3356-.782-.4577-1.241-.3766l-.4213,1.4685l.0825,.1073l1.9132-.586c-.0565-.2287-.1672-.4398-.3335-.6132z"/>
<path fill="url(#linearGradient3083)" d="m6.9695,1045.4775 .6692-2.3483c0,0 .1318-.1499 .5132-.3244c.3814-.1744 .5231-.064 .5231-.064l-1.3323,2.7245c0,0-.1041-.011-.1899-.012c-.0858,0-.1832,.024-.1832,.024z"/>
</g>
</svg>
