<?xml version="1.0" encoding="UTF-8" standalone="no"?>
<!-- Created with Inkscape (http://www.inkscape.org/) -->

<svg
   xmlns:dc="http://purl.org/dc/elements/1.1/"
   xmlns:cc="http://creativecommons.org/ns#"
   xmlns:rdf="http://www.w3.org/1999/02/22-rdf-syntax-ns#"
   xmlns:svg="http://www.w3.org/2000/svg"
   xmlns="http://www.w3.org/2000/svg"
   xmlns:xlink="http://www.w3.org/1999/xlink"
   xmlns:sodipodi="http://sodipodi.sourceforge.net/DTD/sodipodi-0.dtd"
   xmlns:inkscape="http://www.inkscape.org/namespaces/inkscape"
   width="256"
   height="256"
   id="svg3301"
   version="1.1"
   inkscape:version="0.48.3.1 r9886"
   sodipodi:docname="im-status-message-edit.svg"
   inkscape:export-filename="C:\Users\Madnester\Desktop\qutIM\share\icons\QutIM default\16x16\Actions\im-status-message-edit.png"
   inkscape:export-xdpi="5.625"
   inkscape:export-ydpi="5.625">
  <defs
     id="defs3303">
    <linearGradient
       gradientTransform="matrix(0.70257109,0.7133036,-0.71049866,0.70534473,1615.7916,185.10877)"
       gradientUnits="userSpaceOnUse"
       y2="896.09222"
       x2="-713.29675"
       y1="896.09222"
       x1="-781.34979"
       id="linearGradient1010"
       xlink:href="#linearGradient1004"
       inkscape:collect="always" />
    <linearGradient
       gradientTransform="matrix(1.0012034,0,0,1.0011591,1269.7478,-1021.2769)"
       gradientUnits="userSpaceOnUse"
       y2="530.33685"
       x2="-722.22174"
       y1="631.15619"
       x1="-322.45477"
       id="linearGradient996"
       xlink:href="#linearGradient990"
       inkscape:collect="always" />
    <linearGradient
       gradientTransform="matrix(0.70257109,0.7133036,-0.71049866,0.70534473,1615.7916,185.10877)"
       gradientUnits="userSpaceOnUse"
       y2="341.81567"
       x2="-866.2608"
       y1="336.77472"
       x1="-211.15808"
       id="linearGradient972"
       xlink:href="#linearGradient974"
       inkscape:collect="always" />
    <linearGradient
       gradientTransform="matrix(0.70257109,0.7133036,-0.71049866,0.70534473,1615.7916,185.10877)"
       gradientUnits="userSpaceOnUse"
       y2="888.17242"
       x2="-751.15802"
       y1="884.21259"
       x1="-282.44284"
       id="linearGradient962"
       xlink:href="#linearGradient956"
       inkscape:collect="always" />
    <linearGradient
       gradientTransform="matrix(0.70257109,0.7133036,-0.71049866,0.70534473,1615.7916,185.10877)"
       gradientUnits="userSpaceOnUse"
       y2="1259.6013"
       x2="-654.71936"
       y1="1288.5868"
       x1="-743.57953"
       id="linearGradient924"
       xlink:href="#linearGradient918"
       inkscape:collect="always" />
    <radialGradient
       gradientUnits="userSpaceOnUse"
       gradientTransform="matrix(1.9229217,0.88598732,-3.2532454,7.11661,5977.079,-9110.3523)"
       r="259.40854"
       fy="1468.4442"
       fx="-543.87335"
       cy="1468.4442"
       cx="-543.87335"
       id="radialGradient886"
       xlink:href="#linearGradient812"
       inkscape:collect="always" />
    <linearGradient
       id="linearGradient812">
      <stop
         id="stop814"
         offset="0"
         style="stop-color:#fcf4d0;stop-opacity:1" />
      <stop
         id="stop816"
         offset="1"
         style="stop-color:#c59d35;stop-opacity:1" />
    </linearGradient>
    <linearGradient
       id="linearGradient918"
       inkscape:collect="always">
      <stop
         id="stop920"
         offset="0"
         style="stop-color:#ffffff;stop-opacity:1;" />
      <stop
         id="stop922"
         offset="1"
         style="stop-color:#ffffff;stop-opacity:0;" />
    </linearGradient>
    <linearGradient
       id="linearGradient956">
      <stop
         id="stop958"
         offset="0"
         style="stop-color:#628bd6;stop-opacity:1" />
      <stop
         style="stop-color:#29508b;stop-opacity:1;"
         offset="0.30559233"
         id="stop964" />
      <stop
         id="stop960"
         offset="1"
         style="stop-color:#84aede;stop-opacity:1" />
    </linearGradient>
    <linearGradient
       id="linearGradient974">
      <stop
         style="stop-color:#d63838;stop-opacity:1;"
         offset="0"
         id="stop976" />
      <stop
         id="stop978"
         offset="0.30559233"
         style="stop-color:#c52626;stop-opacity:1;" />
      <stop
         style="stop-color:#fd9797;stop-opacity:1;"
         offset="1"
         id="stop980" />
    </linearGradient>
    <linearGradient
       id="linearGradient990">
      <stop
         id="stop992"
         offset="0"
         style="stop-color:#b0b0b0;stop-opacity:1;" />
      <stop
         id="stop994"
         offset="1"
         style="stop-color:#ededed;stop-opacity:1;" />
    </linearGradient>
    <linearGradient
       id="linearGradient1004">
      <stop
         id="stop1006"
         offset="0"
         style="stop-color:#ffffff;stop-opacity:1;" />
      <stop
         id="stop1008"
         offset="1"
         style="stop-color:#ffffff;stop-opacity:0;" />
    </linearGradient>
    <linearGradient
       id="linearGradient1020">
      <stop
         style="stop-color:#c9eaf6;stop-opacity:1;"
         offset="0"
         id="stop1022" />
      <stop
         style="stop-color:#ffffff;stop-opacity:0;"
         offset="1"
         id="stop1024" />
    </linearGradient>
    <linearGradient
       id="linearGradient1026">
      <stop
         style="stop-color:#ffffff;stop-opacity:1;"
         offset="0"
         id="stop1028" />
      <stop
         style="stop-color:#ffffff;stop-opacity:0;"
         offset="1"
         id="stop1030" />
    </linearGradient>
    <linearGradient
       inkscape:collect="always"
       xlink:href="#linearGradient918"
       id="linearGradient3083"
       gradientUnits="userSpaceOnUse"
       gradientTransform="matrix(0.08430885,0.08793035,-0.08526016,0.08694925,291.7399,867.20237)"
       x1="-743.57953"
       y1="1288.5868"
       x2="-654.71936"
       y2="1259.6013" />
    <radialGradient
       inkscape:collect="always"
       xlink:href="#linearGradient812"
       id="radialGradient3087"
       gradientUnits="userSpaceOnUse"
       gradientTransform="matrix(0.23075147,0.10921742,-0.39039091,0.87727868,815.09635,-278.66762)"
       cx="-543.87335"
       cy="1468.4442"
       fx="-543.87335"
       fy="1468.4442"
       r="259.40854" />
    <linearGradient
       inkscape:collect="always"
       xlink:href="#linearGradient990"
       id="linearGradient3090"
       gradientUnits="userSpaceOnUse"
       gradientTransform="matrix(0.12181843,0,0,0.1217763,815.8533,389.78176)"
       x1="-322.45477"
       y1="631.15619"
       x2="-722.22174"
       y2="530.33685" />
    <linearGradient
       inkscape:collect="always"
       xlink:href="#linearGradient974"
       id="linearGradient3093"
       gradientUnits="userSpaceOnUse"
       gradientTransform="matrix(0.08430885,0.08793035,-0.08526016,0.08694925,291.7399,867.20237)"
       x1="-211.15808"
       y1="336.77472"
       x2="-866.2608"
       y2="341.81567" />
    <linearGradient
       inkscape:collect="always"
       xlink:href="#linearGradient1004"
       id="linearGradient3097"
       gradientUnits="userSpaceOnUse"
       gradientTransform="matrix(0.08430885,0.08793035,-0.08526016,0.08694925,231.13075,858.11099)"
       x1="-781.34979"
       y1="896.09222"
       x2="-713.29675"
       y2="896.09222" />
    <linearGradient
       inkscape:collect="always"
       xlink:href="#linearGradient956"
       id="linearGradient3100"
       gradientUnits="userSpaceOnUse"
       gradientTransform="matrix(0.08430885,0.08793035,-0.08526016,0.08694925,291.7399,867.20237)"
       x1="-282.44284"
       y1="884.21259"
       x2="-751.15802"
       y2="888.17242" />
  </defs>
  <sodipodi:namedview
     id="base"
     pagecolor="#ffffff"
     bordercolor="#666666"
     borderopacity="1.0"
     inkscape:pageopacity="0.0"
     inkscape:pageshadow="2"
     inkscape:zoom="1.979899"
     inkscape:cx="102.09443"
     inkscape:cy="142.44127"
     inkscape:document-units="px"
     inkscape:current-layer="layer1"
     showgrid="false"
     inkscape:window-width="1440"
     inkscape:window-height="848"
     inkscape:window-x="-8"
     inkscape:window-y="-8"
     inkscape:window-maximized="1" />
  <metadata
     id="metadata3306">
    <rdf:RDF>
      <cc:Work
         rdf:about="">
        <dc:format>image/svg+xml</dc:format>
        <dc:type
           rdf:resource="http://purl.org/dc/dcmitype/StillImage" />
        <dc:title></dc:title>
      </cc:Work>
    </rdf:RDF>
  </metadata>
  <g
     inkscape:label="Layer 1"
     inkscape:groupmode="layer"
     id="layer1"
     transform="translate(0,-796.36218)">
    <g
       id="g4972"
       inkscape:export-filename="/home/madnester/Рабочий стол/витва.png"
       inkscape:export-xdpi="2.8124993"
       inkscape:export-ydpi="2.8124993"
       transform="matrix(0.5,0,0,0.5,-256,270.18127)">
      <path
         sodipodi:nodetypes="ccccssccccc"
         inkscape:connector-curvature="0"
         style="font-size:medium;font-style:normal;font-variant:normal;font-weight:normal;font-stretch:normal;text-indent:0;text-align:start;text-decoration:none;line-height:normal;letter-spacing:normal;word-spacing:normal;text-transform:none;direction:ltr;block-progression:tb;writing-mode:lr-tb;text-anchor:start;baseline-shift:baseline;color:#000000;fill:#e6e6e6;fill-opacity:1;fill-rule:nonzero;stroke:none;stroke-width:30;marker:none;visibility:visible;display:inline;overflow:visible;enable-background:accumulate;font-family:Sans;-inkscape-font-specification:Sans"
         d="m 852.91624,1052.3625 c -0.37408,0 -0.75264,0 -1.12784,0.014 -4.06576,0.16 -8.0843,1.072 -11.8423,2.7744 -103.32856,46.9171 -206.65675,93.8349 -309.988,140.7461 -15.32158,6.9568 -22.19879,25.2481 -15.24107,40.5665 l 140.78173,309.9443 c 6.95485,15.312 25.23725,22.1952 40.55646,15.2384 l 309.98798,-140.7617 c 15.3147,-6.9537 22.1983,-25.2481 15.2411,-40.5649 L 880.50257,1070.3593 c -5.04238,-11.1008 -15.99096,-17.8832 -27.58633,-17.9968 z"
         id="path4319" />
      <path
         style="fill:#858585;fill-opacity:1;fill-rule:nonzero;stroke:none"
         d="m 842.51855,1092.4249 c -2.12277,0 -4.27018,0.56 -6.3314,1.488 l -274.58521,124.6642 c -8.2448,3.7456 -11.87105,13.408 -8.12686,21.6528 l 124.69731,274.5314 c 3.74419,8.2416 13.39533,11.8689 21.64014,8.1248 l 274.58525,-124.6785 c 8.24478,-3.7456 11.87108,-13.3952 8.12683,-21.6368 L 857.8273,1102.0234 c -2.80818,-6.1825 -8.9404,-9.7713 -15.30875,-9.5969 z m -14.90375,43.1937 c 5.09469,-0.176 9.99776,2.7328 12.24431,7.6784 l 99.76326,219.6386 c 2.99538,6.5936 0.0896,14.3072 -6.50688,17.3024 l -219.66821,99.7489 c -6.59582,2.9952 -14.31134,0.176 -17.3067,-6.5072 l -99.76325,-219.6354 c -2.99536,-6.5952 -0.0896,-14.3088 6.50688,-17.304 l 219.66818,-99.7489 c 1.64904,-0.736 3.36419,-1.136 5.06241,-1.168 z"
         id="path4321"
         inkscape:export-filename="C:\Users\Madnester\Desktop\Sketches\256.png"
         inkscape:export-xdpi="23.039482"
         inkscape:export-ydpi="23.039482"
         inkscape:connector-curvature="0" />
    </g>
    <path
       style="font-size:xx-small;font-style:normal;font-variant:normal;font-weight:normal;font-stretch:normal;text-indent:0;text-align:start;text-decoration:none;line-height:normal;letter-spacing:normal;word-spacing:normal;text-transform:none;direction:ltr;block-progression:tb;writing-mode:lr-tb;text-anchor:start;baseline-shift:baseline;color:#000000;fill:#858585;fill-opacity:1;fill-rule:nonzero;stroke:#858585;stroke-width:6.08842039;stroke-opacity:1;marker:none;visibility:visible;display:inline;overflow:visible;enable-background:accumulate;font-family:Sans;-inkscape-font-specification:Sans"
       d="m 219.62477,819.65631 c -5.44616,-5.68008 -14.56813,-5.06678 -20.31617,0.79514 l -17.9446,18.3001 c -2.21901,-0.42187 -4.598,0.23809 -6.30356,1.97744 l -5.84831,5.96417 c -1.70556,1.73935 -2.37213,4.18529 -1.988,6.47838 l -47.37267,48.31117 -6e-4,0.12023 c -0.0963,0.0854 -0.2689,0.23618 -0.2689,0.23618 l -0.89547,1.44582 -17.83876,62.16408 0.52794,2.79849 1.32074,1.71825 1.26157,0.42534 1.87778,0.6339 60.5913,-18.55888 c 0,0 1.03993,-0.54374 1.39864,-0.91006 l 0.0371,0 47.37534,-48.3139 c 2.21884,0.42031 4.59476,-0.24022 6.29827,-1.97747 l 5.8483,-5.96418 c 1.70352,-1.73724 2.37059,-4.18001 1.98797,-6.4729 l 6.85812,-6.99399 11.08914,-11.30883 c 5.74805,-5.86192 6.44504,-15.2621 0.99889,-20.94218 L 219.6248,819.65629 z m -4.26303,4.34746 28.69399,29.92655 c 2.91995,3.04537 2.74747,8.42614 -0.95132,12.1982 l -11.08914,11.30884 -8.17434,8.33625 -0.48405,3.74904 c 0.24634,0.43837 0.21316,0.9728 -0.1877,1.3816 l -5.84831,5.96417 c -0.40086,0.4088 -0.9194,0.43703 -1.34167,0.17805 l -3.64039,0.45714 -48.28921,49.24587 -29.15442,8.92808 -0.0509,0.0954 -27.37091,8.38094 16.77733,-58.46211 48.5077,-49.46869 0.48408,-3.74903 c -0.24692,-0.43931 -0.21324,-0.97816 0.18505,-1.38435 l 5.84832,-5.96418 c 0.39829,-0.40618 0.92113,-0.43486 1.3443,-0.1753 l 3.64038,-0.45714 19.26347,-19.64509 c 3.69878,-3.77206 8.91776,-3.88957 11.8377,-0.8442 z"
       id="path869"
       inkscape:connector-curvature="0"
       sodipodi:nodetypes="cscssccccccccccccccssccssccssscccsscccccccccssccss"
       inkscape:export-filename="D:\Hobby\QutIM\pencil16.png"
       inkscape:export-xdpi="1.1016982"
       inkscape:export-ydpi="1.1016982" />
    <path
       style="fill:url(#linearGradient3100);fill-opacity:1;stroke:none"
       d="m 190.32848,833.95991 -68.36892,69.72336 43.7936,45.67476 68.36891,-69.72337 z"
       id="rect10"
       inkscape:connector-curvature="0"
       sodipodi:nodetypes="ccccc"
       inkscape:export-filename="D:\Hobby\QutIM\pencil16.png"
       inkscape:export-xdpi="1.1016982"
       inkscape:export-ydpi="1.1016982" />
    <rect
       ry="4.1751871"
       y="453.07333"
       x="717.49365"
       height="16.700748"
       width="69.511917"
       id="rect998"
       style="fill:#000000;fill-opacity:1;stroke:none"
       transform="matrix(0.69208614,0.72181492,-0.70013757,0.71400797,0,0)"
       inkscape:export-filename="D:\Hobby\QutIM\pencil16.png"
       inkscape:export-xdpi="1.1016982"
       inkscape:export-ydpi="1.1016982" />
    <path
       style="fill:url(#linearGradient3093);fill-opacity:1;stroke:none"
       d="m 217.4947,821.83065 c -4.18304,-4.36273 -11.35322,-3.99703 -16.07663,0.81996 l -28.98845,29.56275 43.79359,45.67476 28.98846,-29.56275 c 4.72342,-4.81699 5.15842,-12.20715 0.9754,-16.56988 L 217.4947,821.83065 z"
       id="path19"
       inkscape:connector-curvature="0"
       inkscape:export-filename="D:\Hobby\QutIM\pencil16.png"
       inkscape:export-xdpi="1.1016982"
       inkscape:export-ydpi="1.1016982" />
    <rect
       style="fill:url(#linearGradient3090);fill-opacity:1;stroke:none"
       id="rect12"
       width="69.511917"
       height="16.700748"
       x="717.00635"
       y="451.53867"
       ry="4.1751871"
       transform="matrix(0.69208614,0.72181492,-0.70013757,0.71400797,0,0)"
       inkscape:export-filename="D:\Hobby\QutIM\pencil16.png"
       inkscape:export-xdpi="1.1016982"
       inkscape:export-ydpi="1.1016982" />
    <path
       style="fill:url(#radialGradient3087);fill-opacity:1;stroke:none"
       d="m 121.56334,904.16263 -17.84009,62.16278 1.31895,1.71924 60.53239,-18.54012 c 0,0 10.70748,-10.44946 5.75733,-18.4186 -4.95015,-7.96917 -14.22566,-1.24706 -14.22566,-1.24706 l -0.80788,-1.78539 c 0,0 7.13294,-10.44145 1.60496,-15.89037 -5.52798,-5.44891 -15.84159,1.71824 -15.84159,1.71824 l -1.62384,-0.53232 c 0,0 6.09908,-10.97032 -0.67102,-15.36104 -6.7701,-4.39072 -18.20355,6.17464 -18.20355,6.17464 z"
       id="path836"
       inkscape:connector-curvature="0"
       sodipodi:nodetypes="cccczcczcczc"
       inkscape:export-filename="D:\Hobby\QutIM\pencil16.png"
       inkscape:export-xdpi="1.1016982"
       inkscape:export-ydpi="1.1016982" />
    <path
       inkscape:connector-curvature="0"
       style="fill:#1a1807;fill-opacity:1;stroke:none"
       d="m 130.1205,949.02113 c -5.14589,-5.36692 -12.51216,-7.32051 -19.85513,-6.02273 l -6.74122,23.494 1.32076,1.71823 30.61148,-9.37599 c -0.90382,-3.66004 -2.67496,-7.03827 -5.33589,-9.81351 z"
       id="path836-4"
       inkscape:export-filename="D:\Hobby\QutIM\pencil16.png"
       inkscape:export-xdpi="1.1016982"
       inkscape:export-ydpi="1.1016982" />
    <path
       style="fill:url(#linearGradient3083);fill-opacity:1;stroke:none"
       d="m 111.51344,942.20676 10.70668,-37.57451 c 0,0 2.10858,-2.39805 8.2105,-5.18923 6.10194,-2.79119 8.37008,-1.02654 8.37008,-1.02654 l -21.31725,43.59106 c 0,0 -1.66516,-0.14524 -3.03871,-0.19137 -1.37356,-0.0461 -2.9313,0.39059 -2.9313,0.39059 z"
       id="path908"
       inkscape:connector-curvature="0"
       sodipodi:nodetypes="cczcczc"
       inkscape:export-filename="D:\Hobby\QutIM\pencil16.png"
       inkscape:export-xdpi="1.1016982"
       inkscape:export-ydpi="1.1016982" />
  </g>
</svg>
