<?xml version="1.0" encoding="utf8" standalone="no"?>
<svg height="256" id="svg3301" inkscape:export-filename="C:\Users\Madnester\Desktop\qutIM\share\icons\QutIM default\16x16\Actions\im-status-message-edit.png" inkscape:export-xdpi="5.625" inkscape:export-ydpi="5.625" inkscape:version="0.48.3.1 r9886" sodipodi:docname="im-status-message-edit.svg" width="256" xmlns="http://www.w3.org/2000/svg" xmlns:cc="http://creativecommons.org/ns#" xmlns:dc="http://purl.org/dc/elements/1.1/" xmlns:inkscape="http://www.inkscape.org/namespaces/inkscape" xmlns:rdf="http://www.w3.org/1999/02/22-rdf-syntax-ns#" xmlns:sodipodi="http://sodipodi.sourceforge.net/DTD/sodipodi-0.dtd" xmlns:svg="http://www.w3.org/2000/svg">
<defs id="defs3303">
<linearGradient gradientTransform="matrix(.08431,.08793,-.08526,.08695,291.7399,867.20237)" gradientUnits="userSpaceOnUse" id="linearGradient3083" inkscape:collect="always" x1="-743.57953" x2="-654.71936" y1="1288.5868" y2="1259.6013">
<stop id="stop920" offset="0" style="stop-color:#fff"/>
<stop id="stop922" offset="1" style="stop-opacity:0;stop-color:#fff"/>
</linearGradient>
<linearGradient gradientTransform="matrix(.12182,0,0,.12178,815.8533,389.78176)" gradientUnits="userSpaceOnUse" id="linearGradient3090" inkscape:collect="always" x1="-322.45477" x2="-722.22174" y1="631.15619" y2="530.33685">
<stop id="stop992" offset="0" style="stop-color:#b0b0b0"/>
<stop id="stop994" offset="1" style="stop-color:#ededed"/>
</linearGradient>
<linearGradient gradientTransform="matrix(.08431,.08793,-.08526,.08695,291.7399,867.20237)" gradientUnits="userSpaceOnUse" id="linearGradient3093" inkscape:collect="always" x1="-211.15808" x2="-866.2608" y1="336.77472" y2="341.81567">
<stop id="stop976" offset="0" style="stop-color:#d63838"/>
<stop id="stop978" offset="0.30559233" style="stop-color:#c52626"/>
<stop id="stop980" offset="1" style="stop-color:#fd9797"/>
</linearGradient>
<linearGradient gradientTransform="matrix(.08431,.08793,-.08526,.08695,291.7399,867.20237)" gradientUnits="userSpaceOnUse" id="linearGradient3100" inkscape:collect="always" x1="-282.44284" x2="-751.15802" y1="884.21259" y2="888.17242">
<stop id="stop958" offset="0" style="stop-color:#628bd6"/>
<stop id="stop964" offset="0.30559233" style="stop-color:#29508b"/>
<stop id="stop960" offset="1" style="stop-color:#84aede"/>
</linearGradient>
<radialGradient cx="-543.87335" cy="1468.4442" fx="-543.87335" fy="1468.4442" gradientTransform="matrix(.23075,.10922,-.39039,.87728,815.09635,-278.66762)" gradientUnits="userSpaceOnUse" id="radialGradient3087" inkscape:collect="always" r="259.40854">
<stop id="stop814" offset="0" style="stop-color:#fcf4d0"/>
<stop id="stop816" offset="1" style="stop-color:#c59d35"/>
</radialGradient>
</defs>
<sodipodi:namedview id="base" inkscape:current-layer="layer1" inkscape:cx="102.09443" inkscape:cy="142.44127" inkscape:document-units="px" inkscape:pageopacity="0" inkscape:pageshadow="2" inkscape:window-height="848" inkscape:window-maximized="1" inkscape:window-width="1440" inkscape:window-x="-8" inkscape:window-y="-8" inkscape:zoom="1.979899"/>
<g id="layer1" inkscape:groupmode="layer" inkscape:label="Layer 1" transform="translate(0,-796.3622)">
<g id="g4972" inkscape:export-filename="/home/madnester/Рабочий стол/витва.png" inkscape:export-xdpi="2.8124993" inkscape:export-ydpi="2.8124993" transform="matrix(.5,0,0,.5,-256,270.18127)">
<path d="m 852.91624,1052.3625 c -0.37408,0 -0.75264,0 -1.12784,0.014 -4.06576,0.16 -8.0843,1.072 -11.8423,2.7744 -103.32856,46.9171 -206.65675,93.8349 -309.988,140.7461 -15.32158,6.9568 -22.19879,25.2481 -15.24107,40.5665 l 140.78173,309.9443 c 6.95485,15.312 25.23725,22.1952 40.55646,15.2384 l 309.98798,-140.7617 c 15.3147,-6.9537 22.1983,-25.2481 15.2411,-40.5649 L 880.50257,1070.3593 c -5.04238,-11.1008 -15.99096,-17.8832 -27.58633,-17.9968 z" id="path4319" inkscape:connector-curvature="0" sodipodi:nodetypes="ccccssccccc" style="font-family:Sans;fill:#e6e6e6;stroke-width:30"/>
<path d="m 842.51855,1092.4249 c -2.12277,0 -4.27018,0.56 -6.3314,1.488 l -274.58521,124.6642 c -8.2448,3.7456 -11.87105,13.408 -8.12686,21.6528 l 124.69731,274.5314 c 3.74419,8.2416 13.39533,11.8689 21.64014,8.1248 l 274.58525,-124.6785 c 8.24478,-3.7456 11.87108,-13.3952 8.12683,-21.6368 L 857.8273,1102.0234 c -2.80818,-6.1825 -8.9404,-9.7713 -15.30875,-9.5969 z m -14.90375,43.1937 c 5.09469,-0.176 9.99776,2.7328 12.24431,7.6784 l 99.76326,219.6386 c 2.99538,6.5936 0.0896,14.3072 -6.50688,17.3024 l -219.66821,99.7489 c -6.59582,2.9952 -14.31134,0.176 -17.3067,-6.5072 l -99.76325,-219.6354 c -2.99536,-6.5952 -0.0896,-14.3088 6.50688,-17.304 l 219.66818,-99.7489 c 1.64904,-0.736 3.36419,-1.136 5.06241,-1.168 z" id="path4321" inkscape:connector-curvature="0" inkscape:export-filename="C:\Users\Madnester\Desktop\Sketches\256.png" inkscape:export-xdpi="23.039482" inkscape:export-ydpi="23.039482" style="fill:#707070"/>
</g>
<path d="m 219.62477,819.65631 c -5.44616,-5.68008 -14.56813,-5.06678 -20.31617,0.79514 l -17.9446,18.3001 c -2.21901,-0.42187 -4.598,0.23809 -6.30356,1.97744 l -5.84831,5.96417 c -1.70556,1.73935 -2.37213,4.18529 -1.988,6.47838 l -47.37267,48.31117 -6e-4,0.12023 c -0.0963,0.0854 -0.2689,0.23618 -0.2689,0.23618 l -0.89547,1.44582 -17.83876,62.16408 0.52794,2.79849 1.32074,1.71825 1.26157,0.42534 1.87778,0.6339 60.5913,-18.55888 c 0,0 1.03993,-0.54374 1.39864,-0.91006 l 0.0371,0 47.37534,-48.3139 c 2.21884,0.42031 4.59476,-0.24022 6.29827,-1.97747 l 5.8483,-5.96418 c 1.70352,-1.73724 2.37059,-4.18001 1.98797,-6.4729 l 6.85812,-6.99399 11.08914,-11.30883 c 5.74805,-5.86192 6.44504,-15.2621 0.99889,-20.94218 L 219.6248,819.65629 z m -4.26303,4.34746 28.69399,29.92655 c 2.91995,3.04537 2.74747,8.42614 -0.95132,12.1982 l -11.08914,11.30884 -8.17434,8.33625 -0.48405,3.74904 c 0.24634,0.43837 0.21316,0.9728 -0.1877,1.3816 l -5.84831,5.96417 c -0.40086,0.4088 -0.9194,0.43703 -1.34167,0.17805 l -3.64039,0.45714 -48.28921,49.24587 -29.15442,8.92808 -0.0509,0.0954 -27.37091,8.38094 16.77733,-58.46211 48.5077,-49.46869 0.48408,-3.74903 c -0.24692,-0.43931 -0.21324,-0.97816 0.18505,-1.38435 l 5.84832,-5.96418 c 0.39829,-0.40618 0.92113,-0.43486 1.3443,-0.1753 l 3.64038,-0.45714 19.26347,-19.64509 c 3.69878,-3.77206 8.91776,-3.88957 11.8377,-0.8442 z" id="path869" inkscape:connector-curvature="0" inkscape:export-filename="D:\Hobby\QutIM\pencil16.png" inkscape:export-xdpi="1.1016982" inkscape:export-ydpi="1.1016982" sodipodi:nodetypes="cscssccccccccccccccssccssccssscccsscccccccccssccss" style="font-family:Sans;fill:#707070;stroke-width:6.08842039;stroke:#707070;font-size:xx-small"/>
<path d="m 190.32848,833.95991 -68.36892,69.72336 43.7936,45.67476 68.36891,-69.72337 z" id="rect10" inkscape:connector-curvature="0" inkscape:export-filename="D:\Hobby\QutIM\pencil16.png" inkscape:export-xdpi="1.1016982" inkscape:export-ydpi="1.1016982" sodipodi:nodetypes="ccccc" style="fill:url(#linearGradient3100)"/>
<rect height="16.700748" id="rect998" inkscape:export-filename="D:\Hobby\QutIM\pencil16.png" inkscape:export-xdpi="1.1016982" inkscape:export-ydpi="1.1016982" rx="4.1751871" transform="matrix(.69209,.72181,-.70014,.71401,0,0)" width="69.511917" x="717.49365" y="453.07333"/>
<path d="m 217.4947,821.83065 c -4.18304,-4.36273 -11.35322,-3.99703 -16.07663,0.81996 l -28.98845,29.56275 43.79359,45.67476 28.98846,-29.56275 c 4.72342,-4.81699 5.15842,-12.20715 0.9754,-16.56988 L 217.4947,821.83065 z" id="path19" inkscape:connector-curvature="0" inkscape:export-filename="D:\Hobby\QutIM\pencil16.png" inkscape:export-xdpi="1.1016982" inkscape:export-ydpi="1.1016982" style="fill:url(#linearGradient3093)"/>
<rect height="16.700748" id="rect12" inkscape:export-filename="D:\Hobby\QutIM\pencil16.png" inkscape:export-xdpi="1.1016982" inkscape:export-ydpi="1.1016982" rx="4.1751871" style="fill:url(#linearGradient3090)" transform="matrix(.69209,.72181,-.70014,.71401,0,0)" width="69.511917" x="717.00635" y="451.53867"/>
<path d="m 121.56334,904.16263 -17.84009,62.16278 1.31895,1.71924 60.53239,-18.54012 c 0,0 10.70748,-10.44946 5.75733,-18.4186 -4.95015,-7.96917 -14.22566,-1.24706 -14.22566,-1.24706 l -0.80788,-1.78539 c 0,0 7.13294,-10.44145 1.60496,-15.89037 -5.52798,-5.44891 -15.84159,1.71824 -15.84159,1.71824 l -1.62384,-0.53232 c 0,0 6.09908,-10.97032 -0.67102,-15.36104 -6.7701,-4.39072 -18.20355,6.17464 -18.20355,6.17464 z" id="path836" inkscape:connector-curvature="0" inkscape:export-filename="D:\Hobby\QutIM\pencil16.png" inkscape:export-xdpi="1.1016982" inkscape:export-ydpi="1.1016982" sodipodi:nodetypes="cccczcczcczc" style="fill:url(#radialGradient3087)"/>
<path d="m 130.1205,949.02113 c -5.14589,-5.36692 -12.51216,-7.32051 -19.85513,-6.02273 l -6.74122,23.494 1.32076,1.71823 30.61148,-9.37599 c -0.90382,-3.66004 -2.67496,-7.03827 -5.33589,-9.81351 z" id="path836-4" inkscape:connector-curvature="0" inkscape:export-filename="D:\Hobby\QutIM\pencil16.png" inkscape:export-xdpi="1.1016982" inkscape:export-ydpi="1.1016982" style="fill:#1a1807"/>
<path d="m 111.51344,942.20676 10.70668,-37.57451 c 0,0 2.10858,-2.39805 8.2105,-5.18923 6.10194,-2.79119 8.37008,-1.02654 8.37008,-1.02654 l -21.31725,43.59106 c 0,0 -1.66516,-0.14524 -3.03871,-0.19137 -1.37356,-0.0461 -2.9313,0.39059 -2.9313,0.39059 z" id="path908" inkscape:connector-curvature="0" inkscape:export-filename="D:\Hobby\QutIM\pencil16.png" inkscape:export-xdpi="1.1016982" inkscape:export-ydpi="1.1016982" sodipodi:nodetypes="cczcczc" style="fill:url(#linearGradient3083)"/>
</g>
</svg>
