<svg xmlns="http://www.w3.org/2000/svg" viewBox="0 0 1000 1000">
<defs>
<linearGradient gradientTransform="matrix(1.18867 0 0 1.18867 -84.92715 4.19414)" xlink:href="#linearGradient4414-9-4" id="linearGradient4362" y1="852.696" y2="439.806" gradientUnits="userSpaceOnUse" x2="0"/>
<linearGradient id="linearGradient4414-9-4">
<stop offset="0" stop-color="#0069c8"/>
<stop offset="1" stop-color="#55c4ff"/>
</linearGradient>
</defs>
<g transform="translate(0 -52.36218)">
<path opacity=".08" d="m451.9423,152.6748c-8.7107,45.0828 .3813,74.9265 9.0259,119.0576c7.8226,37.6891 16.2083,76.7673 8.9626,115.2152c-8.8288,36.608-23.7716,71.582-42.7639,104.007c-1.8181-26.0126-.9607-53.5926-13.9154-77.0435c-16.5613-39.7754-39.7464-77.9996-72.6346-106.1974c-20.7357-10.7891-49.4683,12.1381-41.3063,34.7686c7.1861,19.213 21.7018,35.7682 23.3277,56.7962c11.2333,56.5405-4.7563,114.4956-26.8397,166.1997c-25.8808,58.0035-67.2152,110.4559-76.686,174.503c-15.3591,98.253 29.5316,203.9807 112.5619,258.7694c93.9867,64.4032 224.8636,67.696 323.4573,11.096c63.6573-35.1182 118.529-92.0519 139.0745-162.9222c17.3656-61.3754 4.6686-129.0732-29.5311-182.238c-10.931-17.9433-25.1961-33.501-38.4049-49.6838c-12.4888-18.6535-13.3641-41.9577-9.5505-63.4999c5.2027-45.2057 25.4252-87.209 45.7266-127.5592c5.1191-16.7719-9.3102-34.9443-26.5593-35.1772c-18.3318-1.5046-31.59,13.4822-45.9024,22.3872c-28.9236,20.8549-53.3878,48.5491-66.3944,82.0938c-24.7571,48.5961-35.5166,104.5318-28.5978,158.921c1.3518,22.3524 5.4194,46.1847-2.6374,67.5313c-11.6258,9.6837-30.3116,1.6679-35.2886-11.5524c-15.4157-25.5603-10.2182-58.3511 1.7631-84.2424c26.7886-67.4628 67.1825-131.3484 74.9062-204.8274c5.4081-50.0641-17.3524-97.017-39.7719-140.1796c-55.6332-94.307-67.0556-113.2288-106.233-211.1248c-25.3905,44.7288-26.2677,45.6815-35.7883,84.9019z"/>
<path opacity=".1" d="m457.8797,185.7096c1.4352,71.239 30.4329,122.4844 23.4358,194.1927c-8.3286,41.6965-26.3565,80.9837-46.6451,118.1844c-3.7346,5.8427-7.7694,11.5449-13.2982,15.7499c-8.7142-28.8404 .005-61.3581-14.009-88.9646c-15.156-40.3317-38.7046-77.9302-69.5322-107.9461c-13.7901-7.8282-34.5829,6.2296-29.5682,22.1761c4.909,16.0644 17.9219,28.6578 20.5878,45.6389c14.9093,51.3362 4.2556,106.211-12.7834,155.6211c-19.3534,54.9523-53.7506,102.8719-76.1163,156.4962c-30.587,83.6995-10.4862,182.3921 47.2502,249.4316c65.323,76.8649 174.7533,107.8818 272.5308,88.4984c66.3872-12.6931 127.7112-48.4064 173.0153-98.1889c38.5469-42.4103 63.2812-99.1253 59.3113-157.2043c-2.7666-55.4022-27.3385-108.6045-65.6808-148.3628c-14.1953-17.133-23.709-39.2448-20.5789-61.8852c1.9751-49.8993 20.852-97.5351 44.6494-141.006c3.9159-7.4939 5.5503-17.7757-1.783-23.7362c-8.851-8.4662-24.3585-8.1449-32.7549,.8359c-32.2524,20.5968-64.285,46.047-78.7847,82.6089c-23.8572,44.6002-38.587,95.5166-33.5377,146.5241c1.0079,29.461 7.0214,60.0614-1.4263,88.7805c-12.1446,16.665-39.705,11.8479-49.7013-4.7175c-19.9609-26.4178-17.0366-63.3838-4.6553-92.5972c25.6625-67.3228 66.683-129.9995 75.8269-202.676c3.8527-28.0191-1.04-56.4449-11.5624-82.5012c-21.6251-55.7277-55.2148-105.7524-82.2543-158.9194c-23.9542-47.2847-21.9374-50.1129-43.0081-96.0858c-24.7761,39.1945-29.8251,62.3265-28.9275,100.0527z"/>
<path opacity=".15" d="m465.8642,184.3597c1.3528,69.9694 30.5294,121.2341 25.751,191.554c-5.1792,36.639-21.5738,70.4048-36.068,104.1121c-8.6466,17.5352-18.7621,36.0266-35.4008,46.9976c-6.0535,.6003-6.1393-7.2474-8.2464-11.0695c-8.4312-26.6339-.1461-56.6211-11.5895-82.724c-13.4506-39.7665-37.1707-75.389-64.9311-106.5346c-7.1031-5.5408-20.3644-.1389-17.9415,9.7694c2.2946,11.1997 12.1407,18.9419 15.0441,29.9768c21.3558,51.4855 13.4207,109.9618-2.3251,161.6045c-16.435,53.1381-45.9564,100.9007-71.8553,149.7529c-22.115,46.3901-29.202,100.0993-17.8916,150.4546c14.0776,71.3571 60.7208,135.8157 125.652,168.9262c84.2968,45.617 192.1809,44.8402 275.7059-2.0452c58.7251-31.1466 110.0111-81.397 131.7852-145.1642c21.8427-67.4787 3.929-144.7761-42.0388-198.0013c-16.1263-19.3681-34.6606-40.2467-35.0088-66.8806c-2.8092-40.0053 9.4247-78.9979 23.1117-116.0498c7.1459-17.7113 17.1926-34.4075 25.2963-51.3728c-.3631-10.2053-14.8284-13.0209-21.0246-6.2405c-30.0989,19.7873-61.9011,41.7624-75.91,76.3261c-20.7438,39.3161-37.465,82.6107-35.1935,127.8652c-.2228,35.5533 6.9757,71.6111 .3343,106.8318c-6.8986,20.04-33.3044,25.1661-50.6671,16.5299c-18.6465-8.6889-28.2069-29.469-32.2798-48.624c-5.5889-28.0811 2.7845-56.2253 14.2364-81.7047c26.1955-63.703 63.982-124.5848 70.7164-194.4011c3.9528-42.4216-15.9443-81.876-33.9886-118.7928c-39.029-77.949-70.2716-120.9693-95.6991-196.1664c-16.7903,29.268-20.9508,58.4411-19.5736,85.0706z"/>
<path opacity=".3" d="m329.3386,336.7753c0,0 71.0571,81.116-13.2398,258.3193c-30.2626,63.6159-75.6566,111.8098-68.0908,200.4866c12.4916,146.4128 132.3988,223.6197 257.232,223.6197c124.8331,0 257.2321-100.2433 264.7976-212.0532c7.5657-111.8098-60.5252-150.365-79.4393-192.7756c-18.9141-42.4106 5.6742-138.7984 39.7198-192.7756c-52.9597,36.6273-58.6339,36.6273-92.6793,117.5931c-34.0454,80.9657 15.3925,184.0156-30.2626,208.1976c-57.9813,30.7109-105.0155-38.107-87.0049-106.0266c18.9141-71.327 76.9368-145.0761 83.2221-235.1862c5.2334-75.0289-104.0277-204.3422-119.1589-283.3801c-30.2626,65.5437 38.322,200.2481 15.1313,275.6691c-49.9013,162.2897-105.5343,179.7743-104.0276,75.1825c.8635-59.9471-66.1995-136.8707-66.1995-136.8707z"/>
<path fill="url(#linearGradient4362)" d="m329.3386,327.2659c0,0 71.0571,81.116-13.2398,258.3193c-30.2626,63.6159-75.6566,111.8098-68.0908,200.4866c12.4916,146.4128 132.3988,223.6197 257.232,223.6197c124.8331,0 257.2321-100.2433 264.7976-212.0531c7.5657-111.8098-60.5252-150.365-79.4393-192.7756c-18.9141-42.4106 5.6742-138.7984 39.7198-192.7756c-52.9597,36.6273-58.6339,36.6273-92.6793,117.5931c-34.0454,80.9657 15.3925,184.0156-30.2626,208.1976c-57.9813,30.7109-105.0155-38.107-87.0049-106.0266c18.9141-71.327 76.9368-145.0761 83.2221-235.1862c5.2334-75.0289-104.0277-204.3422-119.1589-283.3801c-30.2626,65.5437 38.322,200.2481 15.1313,275.6691c-49.9013,162.2897-105.5343,179.7743-104.0276,75.1825c.8635-59.9471-66.1995-136.8707-66.1995-136.8707z"/>
<path opacity=".6" fill="#fff" d="m484.4455,113.2767c-6.9393,15.0294-8.6978,33.7022-7.5406,54.456c.7781-12.2412 3.0842-23.408 7.5406-33.0599c14.115,73.7294 110.0942,191.2105 118.6813,267.5623c.1741-1.8555 .3525-3.7024 .4829-5.5719c5.2335-75.0289-104.033-204.3485-119.1642-283.3865zm-154.3414,214.9265c3.1123,3.9686 14.874,20.3697 21.879,50.0727c19.3787,27.8894 44.0986,70.6954 43.5722,107.2404c-1.5066,104.5919 54.1074,87.1063 104.0087-75.1834c4.3913-14.2814 5.4648-30.6663 4.5689-48.3269c-.5814,9.5818-2.0128,18.6175-4.5689,26.9308c-49.9013,162.2897-105.5153,179.7753-104.0087,75.1834c.8342-57.9187-61.2157-130.9914-65.4512-135.917zm400.2105,83.8756c-52.9596,36.6273-58.6337,36.6383-92.6792,117.6041c-11.7885,28.035-13.5575,58.7106-12.741,87.8502c.6654-22.454 3.8111-45.2171 12.741-66.4541c29.8263-70.932 37.8878-79.7401 75.0348-105.4574c5.4149-12.2128 11.3756-23.6041 17.6443-33.5428zm-373.2054,25.2592c-1.6073,38.659-12.288,87.8739-41.0091,148.2495c-29.2951,61.582-72.7588,108.7278-68.6457,192.1189c3.5059-70.4888 41.9506-114.6063 68.6457-170.7228c34.318-72.141 42.9104-128.3449 41.0091-169.6456zm327.293,139.5573c-1.14,19.5072 .606,36.8161 6.2034,49.367c17.2676,38.7186 75.4973,74.2222 79.7524,165.188c4.6898-107.0561-61.192-144.9667-79.7524-186.5841c-3.4465-7.7279-5.4397-17.2417-6.2034-27.9709zm-167.4168,95.6137c-5.5747,60.8142 37.8941,114.5711 90.3761,86.7729c19.1944-10.1667 21.5819-34.3115 20.4303-64.8568c-1.0641,20.2361-5.9891,35.8117-20.4303,43.4608c-46.2038,24.4728-85.45-14.2646-90.3761-65.3769z"/>
</g>
</svg>
