<?xml version="1.0" encoding="UTF-8" standalone="no"?>
<!-- Created with Inkscape (http://www.inkscape.org/) -->

<svg
   xmlns:dc="http://purl.org/dc/elements/1.1/"
   xmlns:cc="http://creativecommons.org/ns#"
   xmlns:rdf="http://www.w3.org/1999/02/22-rdf-syntax-ns#"
   xmlns:svg="http://www.w3.org/2000/svg"
   xmlns="http://www.w3.org/2000/svg"
   xmlns:xlink="http://www.w3.org/1999/xlink"
   xmlns:sodipodi="http://sodipodi.sourceforge.net/DTD/sodipodi-0.dtd"
   xmlns:inkscape="http://www.inkscape.org/namespaces/inkscape"
   width="16"
   height="16"
   id="svg3301"
   version="1.1"
   inkscape:version="0.48.4 r9939"
   sodipodi:docname="insert-text.svg">
  <defs
     id="defs3303">
    <linearGradient
       id="linearGradient3827">
      <stop
         id="stop3829"
         offset="0"
         style="stop-color:#dbdbdb;stop-opacity:1" />
      <stop
         id="stop3831"
         offset="1"
         style="stop-color:#f5f5f5;stop-opacity:1" />
    </linearGradient>
    <linearGradient
       inkscape:collect="always"
       xlink:href="#linearGradient3827"
       id="linearGradient3815"
       x1="6"
       y1="1052.3622"
       x2="6"
       y2="1036.3622"
       gradientUnits="userSpaceOnUse"
       gradientTransform="matrix(0.87500003,0,0,0.87500003,1,129.54524)" />
    <linearGradient
       id="linearGradient3981">
      <stop
         id="stop3983"
         offset="0"
         style="stop-color:#d5ebff;stop-opacity:1;" />
      <stop
         id="stop3985"
         offset="1"
         style="stop-color:#fff6d5;stop-opacity:0;" />
    </linearGradient>
    <linearGradient
       id="linearGradient4414">
      <stop
         id="stop4416"
         offset="0"
         style="stop-color:#0069c8;stop-opacity:1;" />
      <stop
         id="stop4418"
         offset="1"
         style="stop-color:#55c4ff;stop-opacity:1;" />
    </linearGradient>
    <linearGradient
       inkscape:collect="always"
       xlink:href="#linearGradient4414"
       id="linearGradient3784"
       x1="11"
       y1="8"
       x2="11"
       y2="3"
       gradientUnits="userSpaceOnUse"
       gradientTransform="translate(2,1036.3622)" />
    <linearGradient
       inkscape:collect="always"
       xlink:href="#linearGradient3981"
       id="linearGradient3797"
       gradientUnits="userSpaceOnUse"
       gradientTransform="translate(2,1036.3622)"
       x1="9"
       y1="3"
       x2="9"
       y2="6" />
    <linearGradient
       inkscape:collect="always"
       xlink:href="#linearGradient4414"
       id="linearGradient3012"
       gradientUnits="userSpaceOnUse"
       gradientTransform="matrix(0.95189244,0,0,0.97251988,2.2405377,1036.5409)"
       x1="11"
       y1="8"
       x2="11"
       y2="3" />
    <linearGradient
       inkscape:collect="always"
       xlink:href="#linearGradient3981"
       id="linearGradient3014"
       gradientUnits="userSpaceOnUse"
       gradientTransform="matrix(1,0,0,2.4612355,2,1031.9785)"
       x1="9"
       y1="3"
       x2="9"
       y2="6" />
    <linearGradient
       inkscape:collect="always"
       xlink:href="#linearGradient4414"
       id="linearGradient3016"
       gradientUnits="userSpaceOnUse"
       gradientTransform="matrix(0.95189266,0,0,0.97251012,2.4810732,1036.5409)"
       x1="11"
       y1="8"
       x2="11"
       y2="3" />
    <linearGradient
       inkscape:collect="always"
       xlink:href="#linearGradient3981"
       id="linearGradient3018"
       gradientUnits="userSpaceOnUse"
       gradientTransform="matrix(1,0,0,2.4612355,2,1031.9785)"
       x1="9"
       y1="3"
       x2="9"
       y2="6" />
  </defs>
  <sodipodi:namedview
     id="base"
     pagecolor="#ffffff"
     bordercolor="#666666"
     borderopacity="1.0"
     inkscape:pageopacity="0.0"
     inkscape:pageshadow="2"
     inkscape:zoom="39.4375"
     inkscape:cx="11.575277"
     inkscape:cy="9.496038"
     inkscape:document-units="px"
     inkscape:current-layer="layer1"
     showgrid="true"
     inkscape:window-width="1016"
     inkscape:window-height="694"
     inkscape:window-x="457"
     inkscape:window-y="72"
     inkscape:window-maximized="0">
    <inkscape:grid
       type="xygrid"
       id="grid3219"
       empspacing="5"
       visible="true"
       enabled="true"
       snapvisiblegridlinesonly="true" />
  </sodipodi:namedview>
  <metadata
     id="metadata3306">
    <rdf:RDF>
      <cc:Work
         rdf:about="">
        <dc:format>image/svg+xml</dc:format>
        <dc:type
           rdf:resource="http://purl.org/dc/dcmitype/StillImage" />
        <dc:title />
      </cc:Work>
    </rdf:RDF>
  </metadata>
  <g
     inkscape:label="Layer 1"
     inkscape:groupmode="layer"
     id="layer1"
     transform="translate(0,-1036.3622)">
    <path
       style="font-size:medium;font-style:normal;font-variant:normal;font-weight:normal;font-stretch:normal;text-indent:0;text-align:start;text-decoration:none;line-height:normal;letter-spacing:normal;word-spacing:normal;text-transform:none;direction:ltr;block-progression:tb;writing-mode:lr-tb;text-anchor:start;baseline-shift:baseline;opacity:0.1;color:#000000;fill:#000000;fill-opacity:1;fill-rule:nonzero;stroke:none;stroke-width:1;marker:none;visibility:visible;display:inline;overflow:visible;enable-background:accumulate;font-family:Sans;-inkscape-font-specification:Sans"
       d="m 9.5629109,1036.4822 c -2.6450915,1.1897 -5.3653818,2.4711 -8.0469685,3.6898 -0.86593695,0.3939 -1.25482105,1.453 -0.86111475,2.321 l 3.65231405,8.0639 c 0.3984131,0.8782 1.4746793,1.2591 2.3457953,0.8629 l 4.434262,-2.1223 3.325685,1.9938 c 0.384319,0.2335 0.805126,0.08 1.06897,-0.1488 0.263844,-0.23 0.316044,-0.4692 0.138554,-0.883 l 0,-0.029 -0.02969,0 -1.15805,-2.3804 0.237548,-0.089 0.02969,0 c 0.866286,-0.3936 1.254754,-1.4532 0.861115,-2.3212 l -3.652314,-8.0639 c -0.12312,-0.2713 -0.36023,-0.6338 -0.65217,-0.8083 -0.291941,-0.1745 -1.3943916,-0.2192 -1.6936261,-0.084 z"
       id="path3878"
       inkscape:connector-curvature="0"
       sodipodi:nodetypes="cccccccccccccccczsc"
       inkscape:transform-center-x="2.1117813"
       inkscape:transform-center-y="7.58674" />
    <path
       id="path3870"
       d="m 9.7841592,1036.4564 c -2.7930959,1.2679 -5.5796923,2.566 -8.3728305,3.8337 -0.66013695,0.2998 -0.94910975,1.0704 -0.64881705,1.7314 l 3.80021455,8.3784 c 0.299963,0.6603 1.1002203,0.9494 1.761075,0.6493 l 4.6962008,-2.1333 3.67663,2.1951 c 0.355334,0.2157 0.874665,-0.2362 0.710609,-0.6183 l -1.421219,-2.9373 0.71061,-0.3091 c 0.660334,-0.2997 0.949103,-1.0704 0.648817,-1.7315 l -3.800215,-8.3786 c -0.144994,-0.319 -0.298829,-0.4643 -0.589184,-0.6232 -0.421506,-0.2306 -0.799176,-0.097 -1.1718908,-0.056 z"
       style="font-size:medium;font-style:normal;font-variant:normal;font-weight:normal;font-stretch:normal;text-indent:0;text-align:start;text-decoration:none;line-height:normal;letter-spacing:normal;word-spacing:normal;text-transform:none;direction:ltr;block-progression:tb;writing-mode:lr-tb;text-anchor:start;baseline-shift:baseline;opacity:0.15;color:#000000;fill:#000000;fill-opacity:1;fill-rule:nonzero;stroke:none;stroke-width:1;marker:none;visibility:visible;display:inline;overflow:visible;enable-background:accumulate;font-family:Sans;-inkscape-font-specification:Sans"
       inkscape:connector-curvature="0"
       sodipodi:nodetypes="ccccccccccccsc"
       inkscape:transform-center-x="2.2675199"
       inkscape:transform-center-y="7.393223" />
    <path
       inkscape:connector-curvature="0"
       id="path3854"
       d="m 10.291521,1036.8622 c -0.111161,0.01 -0.221925,0.031 -0.324672,0.077 -2.8250888,1.2816 -5.6504955,2.5634 -8.4756578,3.8448 -0.4189047,0.1901 -0.60717755,0.6896 -0.4169477,1.108 l 3.8499308,8.4665 c 0.1901514,0.4183 0.6901726,0.6067 1.1090125,0.4166 l 5.0238772,-2.2793 3.931954,2.3664 -1.662665,-3.3975 1.182491,-0.5362 c 0.418717,-0.1898 0.607163,-0.6895 0.416948,-1.108 l -3.849931,-8.4665 c -0.137863,-0.3032 -0.436555,-0.4886 -0.753582,-0.4916 -0.01023,0 -0.0205,-4e-4 -0.03076,0 z"
       style="opacity:0.3;fill:#000000;fill-opacity:1;stroke:none" />
    <path
       style="fill:url(#linearGradient3815);fill-opacity:1;stroke:none"
       d="m 10.291521,1036.3622 c -0.111161,0.01 -0.221925,0.031 -0.324672,0.077 -2.8250888,1.2816 -5.6504955,2.5634 -8.4756578,3.8448 -0.4189047,0.1901 -0.60717755,0.6896 -0.4169477,1.108 l 3.8499308,8.4665 c 0.1901514,0.4183 0.6901726,0.6067 1.1090125,0.4166 l 5.0238772,-2.2793 3.931954,2.3664 -1.662665,-3.3975 1.182491,-0.5362 c 0.418717,-0.1898 0.607163,-0.6895 0.416948,-1.108 l -3.849931,-8.4665 c -0.137863,-0.3032 -0.436555,-0.4886 -0.753582,-0.4916 -0.01023,0 -0.0205,-4e-4 -0.03076,0 z"
       id="path3764"
       inkscape:connector-curvature="0" />
    <path
       style="fill:#ffffff;fill-opacity:1;stroke:none;opacity:0.5"
       d="M 10.28125 0 C 10.170089 0.01 10.071497 0.0165 9.96875 0.0625 C 7.1436612 1.3441 4.3251623 2.62485 1.5 3.90625 C 1.1133187 4.0817269 0.90859741 4.5419004 1.03125 4.9375 C 1.0843141 4.6845288 1.2482544 4.4579928 1.5 4.34375 C 4.3251623 3.06235 7.1436612 1.7816 9.96875 0.5 C 10.071497 0.454 10.170089 0.4475 10.28125 0.4375 C 10.29151 0.4371 10.30227 0.4375 10.3125 0.4375 C 10.629527 0.4405 10.924637 0.60305 11.0625 0.90625 L 14.9375 9.375 C 14.955 9.413502 14.957545 9.460428 14.96875 9.5 C 15.012593 9.323491 15.017976 9.1458077 14.9375 8.96875 L 11.0625 0.5 C 10.924637 0.1968 10.629527 0.003 10.3125 0 C 10.30227 0 10.29151 -0.0004 10.28125 0 z M 13.5 10.9375 L 13.3125 11.03125 L 14.6875 13.8125 L 15 14 L 13.5 10.9375 z "
       transform="translate(0,1036.3622)"
       id="path3777" />
    <path
       sodipodi:nodetypes="cccccccccccccccc"
       inkscape:connector-curvature="0"
       id="path3003"
       d="m 5,1040.3622 0,4 2,0 0,3 2,-2 0,-1 0,-4 z m 5,0 0,4 2,0 0,3 2,-2 0,-1 0,-4 z"
       style="opacity:0.3;fill:#000000;fill-opacity:1;fill-rule:nonzero;stroke:none" />
    <path
       style="fill:url(#linearGradient3012);fill-opacity:1;fill-rule:nonzero;stroke:#0038a0;stroke-width:0.19243018;stroke-miterlimit:4;stroke-opacity:1;stroke-dasharray:none"
       d="m 5.0962151,1039.4585 0,3.89 1.9037849,0 0,2.9175 1.9037849,-1.945 0,-0.9725 0,-3.89 z"
       id="path3006"
       inkscape:connector-curvature="0" />
    <path
       style="fill:url(#linearGradient3016);fill-opacity:1;fill-rule:nonzero;stroke:#0038a0;stroke-width:0.19242923;stroke-miterlimit:4;stroke-opacity:1;stroke-dasharray:none"
       d="m 10.096215,1039.4584 0,3.89 1.903785,0 0,2.9176 1.903785,-1.9451 0,-0.9725 0,-3.89 z"
       id="rect3005"
       inkscape:connector-curvature="0" />
    <path
       style="opacity:0.5;fill:url(#linearGradient3014);fill-opacity:1;fill-rule:nonzero;stroke:none"
       d="m 5,1039.3622 0,1 4,0 0,-1 z"
       id="path3010"
       inkscape:connector-curvature="0" />
    <path
       style="opacity:0.5;fill:url(#linearGradient3018);fill-opacity:1;fill-rule:nonzero;stroke:none"
       d="m 10,1039.3622 0,1 4,0 0,-1 z"
       id="path3788"
       inkscape:connector-curvature="0" />
  </g>
</svg>
