<svg viewBox="0 0 15.999999 16" enable-background="new 0 0 595.28 841.89" width="16" xmlns="http://www.w3.org/2000/svg" height="16">
<defs>
<linearGradient id="linearGradient3981">
<stop offset="0" stop-color="#d5ebff"/>
<stop offset="1" stop-color="#fff6d5" stop-opacity="0"/>
</linearGradient>
<linearGradient gradientTransform="matrix(0 -.95826 .95826 0 -981.57873 26.03157)" xlink:href="#linearGradient3981" id="linearGradient3903" x1="26.213" gradientUnits="userSpaceOnUse" x2="17.864"/>
<linearGradient id="linearGradient4414">
<stop offset="0" stop-color="#0069c8"/>
<stop offset="1" stop-color="#55c4ff"/>
</linearGradient>
<linearGradient gradientTransform="translate(0 -.00002)" xlink:href="#linearGradient3827" id="linearGradient3974" y1="15" y2="3" gradientUnits="userSpaceOnUse" x2="0"/>
<linearGradient gradientTransform="matrix(1.01578 0 0 -1.07412 -312.00904 -394.95778)" xlink:href="#radialGradient3976" id="linearGradient3968" x1="308.147" gradientUnits="userSpaceOnUse" x2="311.947"/>
<linearGradient gradientTransform="matrix(0 -.95826 .95826 0 -982.36478 21.21382)" xlink:href="#linearGradient4414" id="linearGradient3906" x1="11.793" gradientUnits="userSpaceOnUse" x2="21.185"/>
<linearGradient gradientTransform="matrix(1.01578 0 0 -1.07412 -312.00904 -394.95778)" xlink:href="#radialGradient3976" id="linearGradient3965" x1="315.721" gradientUnits="userSpaceOnUse" x2="319.022"/>
<linearGradient id="linearGradient4794">
<stop offset="0" stop-color="#646464"/>
<stop offset="1" stop-color="#969696"/>
</linearGradient>
<linearGradient gradientTransform="translate(0 -.00002)" xlink:href="#linearGradient4794" id="linearGradient3962" y1="15" y2="3" gradientUnits="userSpaceOnUse" x2="0"/>
<linearGradient id="linearGradient3827">
<stop offset="0" stop-color="#dbdbdb"/>
<stop offset="1" stop-color="#f5f5f5"/>
</linearGradient>
<radialGradient cx="25.706" cy="-306.871" gradientTransform="matrix(.28178 -2.58175 -1.47763 -.11096 -453.36973 44.06673)" xlink:href="#radialGradient3976" id="radialGradient3971" r="4.723" gradientUnits="userSpaceOnUse"/>
<radialGradient cx="25.706" cy="-306.871" gradientTransform="matrix(.28038 -2.47538 -1.47033 -.10639 -451.57769 42.62509)" id="radialGradient3976" r="4.723" gradientUnits="userSpaceOnUse">
<stop offset="0" stop-color="#707070"/>
<stop offset="1" stop-color="#707070" stop-opacity="0"/>
</radialGradient>
</defs>
<path opacity=".08" d="m1.0665,4h13.867a1.0665,1.0665 0 0,1 1.0665,1.0665v9.867a1.0665,1.0665 0 0,1 -1.0665,1.0665h-13.867a1.0665,1.0665 0 0,1 -1.0665-1.0665v-9.867a1.0665,1.0665 0 0,1 1.0665-1.0665"/>
<path opacity=".15" d="m1.4562,4h13.1376a1.0562,1.0562 0 0,1 1.0562,1.0562v9.6376a1.0562,1.0562 0 0,1 -1.0562,1.0562h-13.1376a1.0562,1.0562 0 0,1 -1.0562-1.0562v-9.6376a1.0562,1.0562 0 0,1 1.0562-1.0562"/>
<path opacity=".15" d="m1.7498,4h12.5004a.9998,.9998 0 0,1 .9998,.9998v9.4004a.9998,.9998 0 0,1 -.9998,.9998h-12.5004a.9998,.9998 0 0,1 -.9998-.9998v-9.4004a.9998,.9998 0 0,1 .9998-.9998"/>
<path fill="url(#linearGradient3974)" d="m2,3h12a1,1 0 0,1 1,1v10a1,1 0 0,1 -1,1h-12a1,1 0 0,1 -1-1v-10a1,1 0 0,1 1-1"/>
<path fill="url(#radialGradient3971)" d="m2.5944,4c-.3245-.0011-.5878,.2159-.5888,.4855l-.0056,1.0548l4.7373,6.8744c.2003,.2932 .649,.3963 1.0016,.2288l6.2515-2.9646l.0095-1.4393l-5.8311,2.7637c-.284,.1353-.6395,.0537-.8013-.1826l-4.697-6.8206h-.0762z"/>
<path opacity=".515" fill="url(#linearGradient3968)" d="m4.0534,9.594-3.0433,1.3351-.0102,1.4393 3.861-1.6939-.8075-1.0806z"/>
<path opacity=".515" fill="url(#linearGradient3965)" d="m10.1034,11.3867-1.4099,.6165 1.48,1.9882 1.8731,.0086-1.9432-2.6133z"/>
<path fill="url(#linearGradient3962)" d="m2,3c-.554,0-1,.446-1,1v10c0,.554 .446,1 1,1h12c.554,0 1-.446 1-1v-10c0-.554-.446-1-1-1zm.5,1 11,0c.2847,0 .5,.2153 .5,.5v9c0,.2847-.2153,.5-.5,.5h-11c-.2847,0-.5-.2153-.5-.5v-9c0-.2847 .2153-.5 .5-.5z"/>
<path opacity=".5" fill="#fff" d="m2,3c-.554,0-1,.446-1,1v.4688c0-.554 .446-1 1-1h12c.554,0 1,.446 1,1v-.4688c0-.554-.446-1-1-1h-12zm.6562,1.4688 4.7188,6.8125c.1618,.2363 .4972,.3228 .7812,.1875l5.8437-2.75v-.4688l-5.8437,2.75c-.284,.1353-.6195,.0488-.7812-.1875l-4.4062-6.3437h-.3125zm1.4062,5.125-2.0625,.9062 0,.4688 2.0625-.9062 .5625,.75 .25-.125-.8125-1.0937zm6.375,2.25-.25,.125 1.8438,2.5 1.4688,0c.2847,0 .5-.2153 .5-.5v-.4688c0,.2847-.2153,.5-.5,.5h-1.4688l-1.5938-2.1562zm-8.4375,1.6562 0,.4688c0,.2847 .2153,.5 .5,.5h7.6875l-.3437-.4688h-7.3438c-.2847,0-.5-.2153-.5-.5z"/>
<path opacity="0" direction="ltr" block-progression="tb" color="#000000" d="m47.869,1.1089 0,.3437 0,2.875-4.4062,0-.1562,0 0,.1563 0,5.9687 0,.1563 .1562,0 4.4062,0 0,2.8437 0,.375 .25-.25 5.9375-6 .125-.125-.125-.094-5.875-5.9063-.0625-.094-.25-.25zm.3125,.7187 5.5938,5.6563-5.5938,5.625 0-2.6563 0-.1562-.1562,0-4.4062,0 0-5.6562 4.4062,0 .1562,0 0-.1563 0-2.6563zm-6.125,8.2813-.25,.25-.0625,.094-5.875,5.9063-.125,.094 .125,.125 5.9375,6 .25,.25 0-.375 0-2.8437 4.4062,0 .1562,0 0-.1563 0-5.9687 0-.1563-.1562,0-4.4062,0 0-2.875 0-.3437zm-.3125,.7187 0,2.6563 0,.1563 .1562,0 4.4062,0 0,5.6562-4.4062,0-.1562,0 0,.1562 0,2.6563-5.5938-5.625 5.5938-5.6563z"/>
<path opacity=".3" d="m5.0063,6.7521 2,0 0,3 6,0 0-3 2,0-5-5z"/>
<path fill="url(#linearGradient3906)" stroke="#0030a0" stroke-width=".2" d="m5.0063,6.1521 2,0 0,3 6,0 0-3 2,0-5-5z"/>
<path opacity=".5" fill="url(#linearGradient3903)" d="m10.0001,1.1628-5,5 .7187,0 4.2813-4.2812 4.2812,4.2812 .7188,0z"/>
</svg>
