<?xml version="1.0" encoding="UTF-8" standalone="no"?>
<svg
   xmlns:dc="http://purl.org/dc/elements/1.1/"
   xmlns:cc="http://creativecommons.org/ns#"
   xmlns:rdf="http://www.w3.org/1999/02/22-rdf-syntax-ns#"
   xmlns:svg="http://www.w3.org/2000/svg"
   xmlns="http://www.w3.org/2000/svg"
   xmlns:xlink="http://www.w3.org/1999/xlink"
   xmlns:sodipodi="http://sodipodi.sourceforge.net/DTD/sodipodi-0.dtd"
   xmlns:inkscape="http://www.inkscape.org/namespaces/inkscape"
   height="16"
   id="Layer_1"
   inkscape:export-filename="D:\Hobby\QutIM\Images\q_outmsgok2.png"
   inkscape:export-xdpi="90"
   inkscape:export-ydpi="90"
   inkscape:version="0.48.4 r9939"
   sodipodi:docname="mail-send.svg"
   style="enable-background:new 0 0 595.28 841.89"
   version="1.1"
   viewBox="0 0 15.999999 16"
   width="16"
   xml:space="preserve"><metadata
   id="metadata30"><rdf:RDF><cc:Work
       rdf:about=""><dc:format>image/svg+xml</dc:format><dc:type
         rdf:resource="http://purl.org/dc/dcmitype/StillImage" /></cc:Work></rdf:RDF></metadata><defs
   id="defs31"><radialGradient
     cx="25.706499"
     cy="-306.87061"
     gradientTransform="matrix(.28038,-2.47538,-1.47033,-.10639,-451.57769,42.62509)"
     gradientUnits="userSpaceOnUse"
     id="radialGradient3976"
     r="4.7227998">
	<stop
   id="stop3978"
   offset="0"
   style="stop-color:#707070" />
	
	<stop
   id="stop3980"
   offset="1"
   style="stop-opacity:0;stop-color:#707070" />
</radialGradient><linearGradient
     id="linearGradient4794"><stop
       id="stop4796"
       offset="0"
       style="stop-color:#646464;stop-opacity:1;" /><stop
       id="stop4798"
       offset="1"
       style="stop-color:#969696;stop-opacity:1;" /></linearGradient><linearGradient
     id="linearGradient3827"><stop
       id="stop3829"
       offset="0"
       style="stop-color:#dbdbdb;stop-opacity:1" /><stop
       id="stop3831"
       offset="1"
       style="stop-color:#f5f5f5;stop-opacity:1" /></linearGradient><linearGradient
     inkscape:collect="always"
     xlink:href="#linearGradient4794"
     id="linearGradient3962"
     gradientUnits="userSpaceOnUse"
     gradientTransform="translate(2.3413086e-7,-2.3712134e-5)"
     x1="8.999999"
     y1="15"
     x2="8.999999"
     y2="3" /><linearGradient
     inkscape:collect="always"
     xlink:href="#radialGradient3976"
     id="linearGradient3965"
     gradientUnits="userSpaceOnUse"
     gradientTransform="matrix(1.01578,0,0,-1.07412,-312.00904,-394.95778)"
     x1="315.7207"
     y1="-379.52151"
     x2="319.02151"
     y2="-379.52151" /><linearGradient
     inkscape:collect="always"
     xlink:href="#radialGradient3976"
     id="linearGradient3968"
     gradientUnits="userSpaceOnUse"
     gradientTransform="matrix(1.01578,0,0,-1.07412,-312.00904,-394.95778)"
     x1="308.14651"
     y1="-377.9277"
     x2="311.9473"
     y2="-377.9277" /><radialGradient
     inkscape:collect="always"
     xlink:href="#radialGradient3976"
     id="radialGradient3971"
     gradientUnits="userSpaceOnUse"
     gradientTransform="matrix(0.28177755,-2.58175,-1.4776262,-0.11096,-453.36973,44.066726)"
     cx="25.706499"
     cy="-306.87061"
     r="4.7227998" /><linearGradient
     inkscape:collect="always"
     xlink:href="#linearGradient3827"
     id="linearGradient3974"
     gradientUnits="userSpaceOnUse"
     gradientTransform="translate(2.3413086e-7,-2.3712134e-5)"
     x1="8.999999"
     y1="15"
     x2="8.999999"
     y2="3" /><linearGradient
     id="linearGradient4414"><stop
       id="stop4416"
       offset="0"
       style="stop-color:#0069c8;stop-opacity:1;" /><stop
       id="stop4418"
       offset="1"
       style="stop-color:#55c4ff;stop-opacity:1;" /></linearGradient><linearGradient
     id="linearGradient3981"><stop
       id="stop3983"
       offset="0"
       style="stop-color:#d5ebff;stop-opacity:1;" /><stop
       id="stop3985"
       offset="1"
       style="stop-color:#fff6d5;stop-opacity:0;" /></linearGradient><linearGradient
     inkscape:collect="always"
     xlink:href="#linearGradient3981"
     id="linearGradient3903"
     gradientUnits="userSpaceOnUse"
     gradientTransform="matrix(0,-0.95825547,0.95825547,0,-981.57873,26.031571)"
     x1="26.21298"
     y1="1034.6771"
     x2="17.864475"
     y2="1034.6771" /><linearGradient
     inkscape:collect="always"
     xlink:href="#linearGradient4414"
     id="linearGradient3906"
     gradientUnits="userSpaceOnUse"
     gradientTransform="matrix(0,-0.95825547,0.95825547,0,-982.36478,21.213821)"
     x1="11.793287"
     y1="1035.4974"
     x2="21.185354"
     y2="1035.4974" /></defs><sodipodi:namedview
   id="namedview29"
   inkscape:current-layer="Layer_1"
   inkscape:cx="7.163233"
   inkscape:cy="8.6846276"
   inkscape:pageopacity="0"
   inkscape:pageshadow="2"
   inkscape:window-height="848"
   inkscape:window-maximized="1"
   inkscape:window-width="1440"
   inkscape:window-x="-8"
   inkscape:window-y="-8"
   inkscape:zoom="39.4375"
   showgrid="true"><inkscape:grid
     id="grid3010"
     type="xygrid" /></sodipodi:namedview>












<rect
   y="3.9999866"
   x="-5e-007"
   width="16"
   style="opacity:0.07999998"
   rx="1.0664759"
   inkscape:export-ydpi="90"
   inkscape:export-xdpi="90"
   inkscape:export-filename="D:\Hobby\QutIM\Images\th3.png"
   id="rect3867"
   height="12.000013" /><rect
   y="3.9999866"
   x="0.39999911"
   width="15.25"
   style="opacity:0.15"
   rx="1.0561854"
   inkscape:export-ydpi="90"
   inkscape:export-xdpi="90"
   inkscape:export-filename="D:\Hobby\QutIM\Images\th3.png"
   id="rect3869"
   height="11.750012" /><rect
   y="3.9999762"
   x="0.74999952"
   width="14.5"
   style="opacity:0.15"
   rx="0.99982119"
   inkscape:export-ydpi="90"
   inkscape:export-xdpi="90"
   inkscape:export-filename="D:\Hobby\QutIM\Images\th3.png"
   id="rect3871"
   height="11.4" /><rect
   y="2.9999762"
   x="0.99999952"
   width="13.99999"
   style="fill:url(#linearGradient3974);fill-opacity:1"
   rx="1"
   inkscape:export-ydpi="90"
   inkscape:export-xdpi="90"
   inkscape:export-filename="D:\Hobby\QutIM\Images\th3.png"
   id="rect3873"
   height="11.999998" /><path
   style="fill:url(#radialGradient3971)"
   inkscape:export-ydpi="90"
   inkscape:export-xdpi="90"
   inkscape:export-filename="D:\Hobby\QutIM\Images\th3.png"
   inkscape:connector-curvature="0"
   id="path3875"
   d="m 2.5944062,3.9999803 c -0.324475,-0.0011 -0.587816,0.215897 -0.588757,0.485501 l -0.0056,1.0547839 4.737332,6.8743538 c 0.200329,0.293234 0.648951,0.396348 1.001641,0.228787 l 6.2515448,-2.9645648 0.0095,-1.439318 -5.8311428,2.7637048 c -0.284032,0.135337 -0.639545,0.05369 -0.801312,-0.1826 L 2.6706032,3.9999803 h -0.07618 z" /><path
   style="opacity:0.51529996;fill:url(#linearGradient3968);fill-opacity:1;enable-background:new"
   inkscape:export-ydpi="90"
   inkscape:export-xdpi="90"
   inkscape:export-filename="D:\Hobby\QutIM\Images\th3.png"
   inkscape:connector-curvature="0"
   id="path3877"
   d="m 4.0534372,9.5939862 -3.043281,1.3351278 -0.01016,1.439318 3.860987,-1.693885 -0.807546,-1.0805608 z" /><path
   style="opacity:0.51529996;fill:url(#linearGradient3965);fill-opacity:1;enable-background:new"
   inkscape:export-ydpi="90"
   inkscape:export-xdpi="90"
   inkscape:export-filename="D:\Hobby\QutIM\Images\th3.png"
   inkscape:connector-curvature="0"
   id="path3879"
   d="m 10.103432,11.386689 -1.4099038,0.616544 1.4799928,1.988191 1.873102,0.0086 -1.943191,-2.613329 0,0 z" /><path
   sodipodi:nodetypes="ssssssssssssssssss"
   style="fill:url(#linearGradient3962);fill-opacity:1"
   inkscape:export-ydpi="90"
   inkscape:export-xdpi="90"
   inkscape:export-filename="D:\Hobby\QutIM\Images\th3.png"
   inkscape:connector-curvature="0"
   id="path3881"
   d="m 1.9999992,2.9999763 c -0.554,0 -0.99999997,0.446 -0.99999997,1 l 0,9.9999997 c 0,0.554 0.44599997,1 0.99999997,1 l 12.0000008,0 c 0.554,0 1,-0.446 1,-1 l 0,-9.9999997 c 0,-0.554 -0.446,-1 -1,-1 z m 0.5,1 11.0000008,0 c 0.284681,0 0.5,0.215319 0.5,0.5 l 0,8.9999997 c 0,0.284681 -0.215319,0.5 -0.5,0.5 l -11.0000008,0 c -0.28468,0 -0.5,-0.215319 -0.5,-0.5 l 0,-8.9999997 c 0,-0.284681 0.21532,-0.5 0.5,-0.5 z" /><path
   id="path3883"
   d="m 2.0000002,2.9999763 c -0.554,0 -1,0.446 -1,1 l 0,0.46875 c 0,-0.554 0.446,-1 1,-1 l 11.9999998,0 c 0.554,0 1,0.446 1,1 l 0,-0.46875 c 0,-0.554 -0.446,-1 -1,-1 l -11.9999998,0 z m 0.65625,1.46875 4.71875,6.8124997 c 0.161767,0.23629 0.497218,0.322837 0.78125,0.1875 L 14,8.7187262 14,8.2499762 8.1562502,10.999976 c -0.284032,0.135337 -0.619483,0.04879 -0.78125,-0.1875 l -4.40625,-6.3437497 -0.3125,0 z m 1.40625,5.1249999 -2.0625,0.9062498 0,0.46875 2.0625,-0.90625 0.5625,0.75 0.25,-0.125 -0.8125,-1.0937498 z m 6.3749998,2.2499998 -0.25,0.125 1.84375,2.5 1.46875,0 c 0.284681,0 0.5,-0.215319 0.5,-0.5 l 0,-0.46875 c 0,0.284681 -0.215319,0.5 -0.5,0.5 l -1.46875,0 -1.59375,-2.15625 z m -8.4374998,1.65625 0,0.46875 c 0,0.284681 0.21532,0.5 0.5,0.5 l 7.6874998,0 -0.3437498,-0.46875 -7.34375,0 c -0.28468,0 -0.5,-0.215319 -0.5,-0.5 z"
   style="opacity:0.5;fill:#ffffff;fill-opacity:1"
   inkscape:connector-curvature="0" />


<path
   style="font-size:medium;font-style:normal;font-variant:normal;font-weight:normal;font-stretch:normal;text-indent:0;text-align:start;text-decoration:none;line-height:normal;letter-spacing:normal;word-spacing:normal;text-transform:none;direction:ltr;block-progression:tb;writing-mode:lr-tb;text-anchor:start;baseline-shift:baseline;opacity:0;color:#000000;fill:#000000;fill-opacity:1;fill-rule:nonzero;stroke:none;stroke-width:0.30000001;marker:none;visibility:visible;display:inline;overflow:visible;enable-background:accumulate;font-family:Sans;-inkscape-font-specification:Sans"
   d="m 47.868982,1.1089 0,0.3437 0,2.875 -4.40625,0 -0.15625,0 0,0.1563 0,5.9687 0,0.1563 0.15625,0 4.40625,0 0,2.8437 0,0.375 0.25,-0.25 5.9375,-6 0.125,-0.125 -0.125,-0.094 -5.875,-5.9063 -0.0625,-0.094 -0.25,-0.25 z m 0.3125,0.7187 5.59375,5.6563 -5.59375,5.625 0,-2.6563 0,-0.1562 -0.15625,0 -4.40625,0 0,-5.6562 4.40625,0 0.15625,0 0,-0.1563 0,-2.6563 z m -6.125,8.2813 -0.25,0.25 -0.0625,0.094 -5.875,5.9063 -0.125,0.094 0.125,0.125 5.9375,6 0.25,0.25 0,-0.375 0,-2.8437 4.40625,0 0.15625,0 0,-0.1563 0,-5.9687 0,-0.1563 -0.15625,0 -4.40625,0 0,-2.875 0,-0.3437 z m -0.3125,0.7187 0,2.6563 0,0.1563 0.15625,0 4.40625,0 0,5.6562 -4.40625,0 -0.15625,0 0,0.1562 0,2.6563 -5.59375,-5.625 5.59375,-5.6563 z"
   id="path3815"
   inkscape:connector-curvature="0" /><path
   sodipodi:nodetypes="cccccccc"
   inkscape:connector-curvature="0"
   id="path3877-0"
   d="m 5.0063386,6.7521392 1.9999999,0 0,3.0000003 6.0000005,0 0,-3.0000003 1.999999,0 -4.999999,-5 z"
   style="opacity:0.3;fill:#000000;fill-opacity:1;stroke:none" /><path
   style="fill:url(#linearGradient3906);fill-opacity:1;stroke:#0030a0;stroke-width:0.2;stroke-miterlimit:4;stroke-opacity:1;stroke-dasharray:none"
   d="m 5.0063386,6.1521392 1.9999999,0 0,3.0000003 6.0000005,0 0,-3.0000003 1.999999,0 -4.999999,-5 z"
   id="path1375"
   inkscape:connector-curvature="0"
   sodipodi:nodetypes="cccccccc" /><path
   style="opacity:0.5;fill:url(#linearGradient3903);fill-opacity:1;stroke:none"
   d="m 10.000089,1.1628392 -5.0000004,5 0.7187499,0 4.2812505,-4.28125 4.281249,4.28125 0.71875,0 z"
   id="path3864"
   inkscape:connector-curvature="0"
   sodipodi:nodetypes="ccccccc" /></svg>