<?xml version="1.0" encoding="UTF-8" standalone="no"?>
<!-- Created with Inkscape (http://www.inkscape.org/) -->

<svg
   xmlns:dc="http://purl.org/dc/elements/1.1/"
   xmlns:cc="http://creativecommons.org/ns#"
   xmlns:rdf="http://www.w3.org/1999/02/22-rdf-syntax-ns#"
   xmlns:svg="http://www.w3.org/2000/svg"
   xmlns="http://www.w3.org/2000/svg"
   xmlns:xlink="http://www.w3.org/1999/xlink"
   xmlns:sodipodi="http://sodipodi.sourceforge.net/DTD/sodipodi-0.dtd"
   xmlns:inkscape="http://www.inkscape.org/namespaces/inkscape"
   width="256"
   height="256"
   id="svg3301"
   version="1.1"
   inkscape:version="0.48.3.1 r9886"
   sodipodi:docname="mail-sent.svg">
  <defs
     id="defs3303">
    <linearGradient
       id="linearGradient3772">
      <stop
         style="stop-color:#858585;stop-opacity:1;"
         offset="0"
         id="stop3774" />
      <stop
         id="stop3780"
         offset="0.68615735"
         style="stop-color:#aaaaaa;stop-opacity:0.9955157;" />
      <stop
         style="stop-color:#858585;stop-opacity:0;"
         offset="1"
         id="stop3776" />
    </linearGradient>
    <radialGradient
       inkscape:collect="always"
       xlink:href="#linearGradient3772"
       id="radialGradient3778"
       cx="123.4697"
       cy="966.73462"
       fx="123.4697"
       fy="966.73462"
       r="66.781225"
       gradientTransform="matrix(0.22177809,-2.4498993,1.1631692,0.10529632,-1031.3099,1161.9436)"
       gradientUnits="userSpaceOnUse" />
    <radialGradient
       inkscape:collect="always"
       xlink:href="#linearGradient3772"
       id="radialGradient2995"
       gradientUnits="userSpaceOnUse"
       gradientTransform="matrix(0.22177809,-2.4498993,1.1631692,0.10529632,-1031.3099,1161.9436)"
       cx="123.4697"
       cy="966.73462"
       fx="123.4697"
       fy="966.73462"
       r="66.781225" />
    <radialGradient
       inkscape:collect="always"
       xlink:href="#linearGradient3772"
       id="radialGradient2994"
       gradientUnits="userSpaceOnUse"
       gradientTransform="matrix(-0.22177809,2.4498993,-1.1631692,-0.10529632,1278.4685,-69.64819)"
       cx="123.4697"
       cy="966.73462"
       fx="123.4697"
       fy="966.73462"
       r="66.781225" />
    <radialGradient
       inkscape:collect="always"
       xlink:href="#linearGradient3772"
       id="radialGradient3001"
       gradientUnits="userSpaceOnUse"
       gradientTransform="matrix(-0.22177809,2.4498993,-1.1631692,-0.10529632,1278.4685,-69.64819)"
       cx="123.4697"
       cy="966.73462"
       fx="123.4697"
       fy="966.73462"
       r="66.781225" />
    <linearGradient
       inkscape:collect="always"
       xlink:href="#linearGradient3772"
       id="linearGradient3780"
       x1="165.03125"
       y1="1019.7371"
       x2="185.8125"
       y2="1019.7371"
       gradientUnits="userSpaceOnUse" />
    <linearGradient
       inkscape:collect="always"
       xlink:href="#linearGradient3772"
       id="linearGradient3782"
       x1="140.21875"
       y1="973.89337"
       x2="174.78125"
       y2="973.89337"
       gradientUnits="userSpaceOnUse" />
    <linearGradient
       inkscape:collect="always"
       xlink:href="#linearGradient3772"
       id="linearGradient3784"
       x1="60.9375"
       y1="950.92468"
       x2="100.71875"
       y2="950.92468"
       gradientUnits="userSpaceOnUse" />
    <linearGradient
       inkscape:collect="always"
       xlink:href="#linearGradient3772"
       id="linearGradient3786"
       x1="106.9375"
       y1="932.23633"
       x2="146.4375"
       y2="932.23633"
       gradientUnits="userSpaceOnUse" />
    <radialGradient
       inkscape:collect="always"
       xlink:href="#linearGradient3772"
       id="radialGradient4284"
       gradientUnits="userSpaceOnUse"
       gradientTransform="matrix(0.22177809,-2.4498993,1.1631692,0.10529632,-1031.3099,1161.9436)"
       cx="123.4697"
       cy="966.73462"
       fx="123.4697"
       fy="966.73462"
       r="66.781225" />
    <linearGradient
       inkscape:collect="always"
       xlink:href="#linearGradient3772"
       id="linearGradient4286"
       gradientUnits="userSpaceOnUse"
       x1="60.9375"
       y1="950.92468"
       x2="100.71875"
       y2="950.92468" />
    <linearGradient
       inkscape:collect="always"
       xlink:href="#linearGradient3772"
       id="linearGradient4288"
       gradientUnits="userSpaceOnUse"
       x1="140.21875"
       y1="973.89337"
       x2="174.78125"
       y2="973.89337" />
  </defs>
  <sodipodi:namedview
     id="base"
     pagecolor="#ffffff"
     bordercolor="#666666"
     borderopacity="1.0"
     inkscape:pageopacity="0.0"
     inkscape:pageshadow="2"
     inkscape:zoom="1.979899"
     inkscape:cx="124.83387"
     inkscape:cy="127.50127"
     inkscape:document-units="px"
     inkscape:current-layer="layer1"
     showgrid="false"
     inkscape:window-width="1440"
     inkscape:window-height="848"
     inkscape:window-x="-8"
     inkscape:window-y="-8"
     inkscape:window-maximized="1"
     showguides="true"
     inkscape:guide-bbox="true" />
  <metadata
     id="metadata3306">
    <rdf:RDF>
      <cc:Work
         rdf:about="">
        <dc:format>image/svg+xml</dc:format>
        <dc:type
           rdf:resource="http://purl.org/dc/dcmitype/StillImage" />
        <dc:title />
      </cc:Work>
    </rdf:RDF>
  </metadata>
  <g
     inkscape:label="Layer 1"
     inkscape:groupmode="layer"
     id="layer1"
     transform="translate(0,-796.36218)">
    <path
       id="path4319"
       d="m 202.35025,877.60703 c -0.13591,-0.0625 -0.27342,-0.12565 -0.41206,-0.18321 -1.50368,-0.62062 -3.11575,-0.96019 -4.76513,-0.96914 -45.3688,-0.20651 -90.73759,-0.4127 -136.106388,-0.62181 -6.727283,-0.0306 -12.279202,5.46593 -12.308987,12.19222 l -0.601571,136.09641 c -0.02976,6.7234 5.462593,12.2761 12.189015,12.3064 l 136.108981,0.6161 c 6.72427,0.03 12.27904,-5.4661 12.30873,-12.1917 l 0.60425,-136.10218 c 0.0215,-4.87439 -2.82355,-9.16604 -7.01684,-11.14309 z"
       style="font-size:medium;font-style:normal;font-variant:normal;font-weight:normal;font-stretch:normal;text-indent:0;text-align:start;text-decoration:none;line-height:normal;letter-spacing:normal;word-spacing:normal;text-transform:none;direction:ltr;block-progression:tb;writing-mode:lr-tb;text-anchor:start;baseline-shift:baseline;color:#000000;fill:#e6e6e6;fill-opacity:1;fill-rule:nonzero;stroke:none;stroke-width:30;marker:none;visibility:visible;display:inline;overflow:visible;enable-background:accumulate;font-family:Sans;-inkscape-font-specification:Sans"
       inkscape:connector-curvature="0"
       sodipodi:nodetypes="ccccssccccc" />
    <path
       inkscape:connector-curvature="0"
       inkscape:export-ydpi="23.039482"
       inkscape:export-xdpi="23.039482"
       inkscape:export-filename="C:\Users\Madnester\Desktop\Sketches\256.png"
       id="path4321"
       d="m 207.70833,873.87842 c -0.96442,-0.44321 -2.05696,-0.63714 -3.18717,-0.64589 L 53.742944,872.54018 c -4.527822,-0.0197 -8.192692,3.61301 -8.213038,8.14054 l -0.666073,150.76068 c -0.01968,4.5261 3.607705,8.1891 8.135219,8.2094 l 150.781228,0.6859 c 4.52781,0.02 8.19003,-3.6072 8.20968,-8.1333 l 0.66941,-150.76791 c 0.015,-3.39515 -2.02169,-6.30595 -4.95138,-7.55635 z m -15.78939,16.5121 c 2.35137,0.98374 3.97162,3.32897 3.95969,6.04491 l -0.53321,120.61577 c -0.0158,3.621 -2.94646,6.5188 -6.56874,6.5023 l -120.626257,-0.5459 c -3.621981,-0.016 -6.538692,-2.9081 -6.50418,-6.5698 l 0.532551,-120.61432 c 0.01614,-3.62173 2.946791,-6.5195 6.569072,-6.50302 l 120.626244,0.54592 c 0.90286,0.01 1.7656,0.18629 2.54382,0.52632 z"
       style="fill:#858585;fill-opacity:1;fill-rule:nonzero;stroke:none" />
    <g
       id="g4279"
       transform="translate(0.8397528,32.091948)">
      <path
         id="path2995"
         d="m 67.96875,857.26843 c -3.622281,-0.0165 -6.54636,2.87827 -6.5625,6.5 l -0.0625,14.15625 52.71875,92.25 c 2.24659,3.9312 7.22671,5.3085 11.15625,3.0625 l 69.59375,-39.78125 0.0937,-19.3125 L 130,951.23718 c -3.14379,1.7968 -7.10938,0.7077 -8.90625,-2.4375 l -52.28125,-91.53125 -0.84375,0 z"
         style="fill:url(#radialGradient4284);fill-opacity:1;fill-rule:nonzero;stroke:none"
         inkscape:connector-curvature="0" />
      <path
         id="path3008"
         d="m 92.40625,932.29968 -31.375,17.9375 -0.09375,19.3125 39.78125,-22.71875 -8.3125,-14.53125 z"
         style="opacity:0.51525424;fill:url(#linearGradient4286);fill-opacity:1;fill-rule:nonzero;stroke:none"
         inkscape:connector-curvature="0" />
      <path
         id="path3006"
         d="m 154.75,956.36218 -14.53125,8.28125 15.25,26.6875 19.3125,0.0937 -20.03125,-35.0625 z"
         style="opacity:0.51525424;fill:url(#linearGradient4288);fill-opacity:1;fill-rule:nonzero;stroke:none"
         inkscape:connector-curvature="0" />
    </g>
    <path
       style="fill:#d63434;fill-opacity:1;stroke:none"
       d="m 128.7616,806.09076 -59.114152,59.11415 28.10997,0 0,66.49438 c 0,0.24401 0.22631,0.47031 0.47031,0.47031 l 61.067752,0 c 0.244,0 0.47031,-0.2263 0.47031,-0.47031 l 0,-66.49438 28.10997,0 -59.11416,-59.11415 z"
       id="rect4290"
       inkscape:connector-curvature="0" />
  </g>
</svg>
