<svg xmlns="http://www.w3.org/2000/svg" viewBox="0 0 16 16">
<defs>
<linearGradient id="linearGradient918">
<stop offset="0" stop-color="#fff"/>
<stop offset="1" stop-color="#fff" stop-opacity="0"/>
</linearGradient>
<linearGradient gradientTransform="matrix(.00527 .0055 -.00533 .00543 28.71877 1044.1748)" xlink:href="#linearGradient918" id="linearGradient3105" y1="1288.587" x1="-743.58" y2="1259.601" gradientUnits="userSpaceOnUse" x2="-654.719"/>
<linearGradient gradientTransform="matrix(.00527 .0055 -.00533 .00543 28.71877 1044.1748)" xlink:href="#linearGradient956" id="linearGradient3097" y1="884.213" x1="-282.443" y2="888.172" gradientUnits="userSpaceOnUse" x2="-751.158"/>
<linearGradient gradientTransform="matrix(.00761 0 0 .00761 751.93786 702.27277)" xlink:href="#linearGradient990" id="linearGradient3101" y1="631.156" x1="-322.455" y2="530.337" gradientUnits="userSpaceOnUse" x2="-722.222"/>
<linearGradient gradientTransform="matrix(.00527 .0055 -.00533 .00543 28.71877 1044.1748)" xlink:href="#linearGradient974" id="linearGradient3099" y1="336.775" x1="-211.158" y2="341.816" gradientUnits="userSpaceOnUse" x2="-866.261"/>
<linearGradient id="linearGradient956">
<stop offset="0" stop-color="#628bd6"/>
<stop offset=".306" stop-color="#29508b"/>
<stop offset="1" stop-color="#84aede"/>
</linearGradient>
<linearGradient id="linearGradient4085">
<stop offset="0" stop-color="#3b8c00"/>
<stop offset="1" stop-color="#00ec16"/>
</linearGradient>
<linearGradient id="linearGradient974">
<stop offset="0" stop-color="#d63838"/>
<stop offset=".306" stop-color="#c52626"/>
<stop offset="1" stop-color="#fd9797"/>
</linearGradient>
<linearGradient id="linearGradient4091">
<stop offset="0" stop-color="#d5fff6"/>
<stop offset="1" stop-color="#fff6d5" stop-opacity="0"/>
</linearGradient>
<linearGradient id="linearGradient990">
<stop offset="0" stop-color="#b0b0b0"/>
<stop offset="1" stop-color="#ededed"/>
</linearGradient>
<linearGradient gradientTransform="matrix(.93773 0 0 .93773 .49817 66.10582)" xlink:href="#linearGradient4085" id="linearGradient3798" y1="1050.362" y2="1038.362" x2="0" gradientUnits="userSpaceOnUse"/>
<linearGradient gradientTransform="matrix(.93773 0 0 .93773 .49817 1037.9326)" xlink:href="#linearGradient4091" id="linearGradient3812" y1="2" y2="8.576" x2="0" gradientUnits="userSpaceOnUse"/>
<radialGradient cx="-543.873" cy="1468.444" gradientTransform="matrix(.01442 .00683 -.0244 .05483 61.42885 972.55905)" id="radialGradient3103" r="259.409" gradientUnits="userSpaceOnUse">
<stop offset="0" stop-color="#fcf4d0"/>
<stop offset="1" stop-color="#c59d35"/>
</radialGradient>
</defs>
<g transform="translate(0 -1036.3622)">
<path opacity=".1" direction="ltr" block-progression="tb" color="#000000" d="m12.2784,1040.0253-.3223,.3222-4.5714,4.5715-3.3407-3.3407-.3223-.3224-.3516,.3224-3.0476,3.0769l-.3223,.3224l.3223,.3224l6.7399,6.7398l.3223,.3224l.3223-.3224l7.9707-7.9707l.3223-.3223l-.3223-.3223l-3.0476-3.077l-.3516-.3222z"/>
<path opacity=".15" direction="ltr" block-progression="tb" color="#000000" d="m12.2784,1040.3475-.1465,.1759-4.7473,4.7179-3.5165-3.4872-.1465-.1758-.1758,.1758-3.0476,3.0477-.1758,.1758 .1758,.1758 6.7106,6.7107 .1758,.1757 .1758-.1757 7.9414-7.9415 .1758-.1758-.1758-.1758-3.0476-3.0476-.1758-.1759z"/>
<path opacity=".29" d="m12.285,1040.6903-4.8972,4.897-3.6729-3.6728-3.0607,3.0606 6.7336,6.7338 7.9579-7.958z"/>
<path fill="url(#linearGradient3798)" stroke="#00a000" stroke-width=".333" d="m12.285,1040.0451-4.8972,4.897-3.6729-3.6728-3.0607,3.0607 6.7336,6.7337 7.9579-7.9579z"/>
<path opacity=".5" fill="url(#linearGradient3812)" d="m12.2784,1040.0425-4.8938,4.8938-3.663-3.663-3.0769,3.0476 .6154,.6154 2.4615-2.4616 3.663,3.6923 4.8938-4.923 2.4615,2.4615 .6154-.5861-3.0769-3.0769z"/>
</g>
<g transform="matrix(.69191 -.69584 .69191 .69584 -730.96806 -707.47813)">
<path direction="ltr" fill="#656565" block-progression="tb" stroke="#656565" color="#000000" stroke-width=".381" d="m24.2115,1041.2032c-.3404-.355-.9105-.3166-1.2698,.05l-1.1215,1.1438c-.1387-.026-.2874,.015-.394,.1235l-.3655,.3725c-.1066,.1089-.1483,.2616-.1242,.4051l-2.9608,3.0194l0,.011c-.006,.011-.0168,.015-.0168,.015l-.056,.091l-1.1149,3.8852l.033,.1748l.0826,.1075l.0788,.026l.1174,.04l3.787-1.1599c0,0 .065-.034 .0874-.057h.0024l2.961-3.0194c.1387,.026 .2872-.015 .3936-.1236l.3655-.3729c.1065-.1086 .1482-.2612 .1242-.4046l.4286-.4371l.6931-.7069c.3593-.3662 .4028-.9535 .0624-1.3088l-1.7934-1.8703zm-.2664,.2717 1.7934,1.8705c.1825,.1903 .1717,.5265-.0594,.7623l-.6931,.7067l-.5109,.5211l-.0302,.2343c.0154,.027 .0133,.06-.0117,.087l-.3655,.3728c-.0251,.024-.0575,.027-.0839,.011l-.2275,.028l-3.0181,3.0778l-1.8222,.5583l-.0032,.011l-1.7107,.5237l1.0486-3.6538l3.0318-3.0917l.0302-.2344c-.0154-.027-.0133-.061 .0116-.088l.3655-.3727c.0249-.025 .0576-.027 .084-.011l.2275-.028l1.204-1.2279c.2312-.2356 .5574-.2431 .7399-.053z"/>
<path fill="url(#linearGradient3097)" d="m22.3805,1042.0971-4.2731,4.3577 2.7371,2.8547 4.2731-4.3577z"/>
<path d="m746.051,706.228h3.823a.2609,.2609 0 0,1 .261,.261v.522a.2609,.2609 0 0,1 -.261,.261h-3.823a.2609,.2609 0 0,1 -.261-.261v-.522a.2609,.2609 0 0,1 .261-.261" transform="matrix(.6921 .72181 -.70015 .714 0 0)"/>
<path fill="url(#linearGradient3099)" d="m24.0784,1041.3391c-.2614-.2727-.7096-.2498-1.0048,.052l-1.8118,1.8477l2.7371,2.8545l1.8118-1.8476c.2952-.301 .3224-.7629 .061-1.0355l-1.7933-1.8703z"/>
<path fill="url(#linearGradient3101)" d="m746.021,706.133h3.823a.2609,.2609 0 0,1 .26,.261v.521a.2609,.2609 0 0,1 -.26,.261h-3.823a.2609,.2609 0 0,1 -.261-.261v-.521a.2609,.2609 0 0,1 .261-.261" transform="matrix(.6921 .72181 -.70015 .714 0 0)"/>
<path fill="url(#radialGradient3103)" d="m18.0826,1046.4848-1.115,3.885 .0824,.1075 3.7833-1.1586c0,0 .6692-.6533 .3598-1.1515c-.3094-.4979-.8891-.078-.8891-.078l-.0505-.1115c0,0 .4458-.6526 .1003-.993c-.3455-.3407-.9901,.1073-.9901,.1073l-.1015-.033c0,0 .3812-.6856-.0419-.9602c-.4231-.2743-1.1377,.386-1.1377,.386z"/>
<path fill="#1a1807" d="m18.6175,1049.2884c-.3216-.3356-.782-.4577-1.241-.3766l-.4213,1.4685l.0826,.1073l1.9132-.586c-.0565-.2287-.1672-.4398-.3335-.6132z"/>
<path fill="url(#linearGradient3105)" d="m17.4545,1048.8624 .6692-2.3483c0,0 .1318-.1499 .5132-.3244c.3814-.1744 .5231-.064 .5231-.064l-1.3323,2.7245c0,0-.1041-.011-.1899-.012c-.0859,0-.1832,.024-.1832,.024z"/>
</g>
</svg>
