<svg xmlns="http://www.w3.org/2000/svg" viewBox="0 0 512 512">
<defs>
<linearGradient xlink:href="#linearGradient3809" id="linearGradient3786" y1="204.104" x1="311.378" y2="304.189" x2="313.231" gradientUnits="userSpaceOnUse"/>
<linearGradient gradientTransform="matrix(.485 0 0 1 -292.73981 .00001)" xlink:href="#linearGradient3809" id="linearGradient3790" y1="254.147" x1="412.648" y2="252.293" gradientUnits="userSpaceOnUse" x2="236.801"/>
<linearGradient gradientTransform="matrix(.92081 0 0 .92004 20.26376 12.96678)" xlink:href="#linearGradient4094" id="linearGradient3310" y1="501.891" y2="37.294" gradientUnits="userSpaceOnUse" x2="0"/>
<linearGradient id="linearGradient4094">
<stop offset="0" stop-color="#aaa"/>
<stop offset="1" stop-color="#f0f0f0"/>
</linearGradient>
<linearGradient id="linearGradient3809">
<stop offset="0" stop-color="#f8f8f8"/>
<stop offset="1" stop-color="#a4a4a4"/>
</linearGradient>
</defs>
<path opacity=".08" d="m257.3438,0c-1.3989-.0005-2.789,.0089-4.1875,.0312c-107.4174-.2426-210.001,75.0499-241.1562,177.7812c-28.9658,89.0742-4.5589,193.7796 62.875,259c59.1488,59.2993 148.7977,87.6484 231.2812,69.9688c78.558-15.4648 148.5844-69.4923 181.8125-142.375c35.8746-75.9174 31.6224-170.1771-13.1562-241.4688c-42.7957-70.8079-121.7963-119.1205-204.9062-122.5938c-4.189-.2502-8.3658-.3424-12.5625-.3438zm.3438,76.9062c38.4363,.2163 76.386,13.9673 106.4375,37.9688c49.8666,38.7468 73.8931,106.2322 61.8438,167.9688c-11.0968,60.9006-57.7837,112.765-116.5938,131.8438c-61.0652,20.5198-132.5682,2.5013-177.0938-43.5625c-46.1989-45.9742-61.6133-119.3317-39.0625-180.375c23.2194-66.1809 90.5962-114.1194 160.7188-113.8125c1.2406-.0213 2.5101-.0382 3.75-.0312z"/>
<path opacity=".1" d="m257.6468,7.3603c-1.535-.0068-3.0692,.0062-4.6041,.0288c-100.4971-.1017-197.0297,67.671-230.5192,162.3c-30.4489,81.5694-14.56,179.7103 42.7602,245.7645c52.1626,62.5649 136.5002,97.5581 217.9732,87.3746c76.9404-8.3402 149.1691-54.2161 187.3562-121.646c38.0691-64.6715 45.157-147.4367 16.4019-217.1284c-27.7707-69.9994-88.5251-126.2413-161.2858-146.6307c-22.054-6.549-45.0576-9.9608-68.0824-10.0629z"/>
<path opacity=".15" d="m249.0386,14.8356c-90.3643,1.6567-176.7994,59.0159-213.0905,141.5158c-33.0096,72.3741-27.6281,161.6239 15.9506,228.4248c39.2744,62.0734 107.9109,105.178 181.5402,111.174c72.2933,6.7134 147.2087-20.4126 196.7692-73.395c51.1909-53.3612 76.4765-131.1184 63.9676-204.3917c-11.3836-72.8646-57.6912-139.5226-123.0721-174.0017c-37.1083-20.3235-79.6329-30.6732-122.065-29.3261z"/>
<path opacity=".3" d="m255.9913,20.3271c-130.1887,0-235.7276,105.45-235.7276,235.5291c0,130.0791 105.5388,235.5291 235.7276,235.5291c130.1887,0 235.7276-105.45 235.7276-235.5291c0-130.0791-105.5388-235.5291-235.7276-235.5291z"/>
<path fill="url(#linearGradient3310)" d="m255.9913,12.9688c-130.1887,0-235.7188,105.4521-235.7188,235.5312c0,130.0791 105.53,235.5312 235.7188,235.5312c130.1887,0 235.7187-105.4521 235.7187-235.5312c0-130.0791-105.53-235.5312-235.7188-235.5312zm0,56.2188c99.0359,0 179.3125,80.2766 179.3125,179.3125c0,99.0359-80.2766,179.3125-179.3125,179.3125c-99.0359,0-179.3125-80.2766-179.3125-179.3125c0-99.0359 80.2766-179.3125 179.3125-179.3125z"/>
<path opacity=".6" fill="#fff" d="m256,12.9688c-130.1887,0-235.75,105.4521-235.75,235.5312c0,1.8495 .0513,3.6919 .0938,5.5312c2.9424-127.5231 107.3186-230.0312 235.6562-230.0312c128.3377,0 232.6826,102.5081 235.625,230.0312c.0424-1.8393 .0938-3.6817 .0938-5.5312c0-130.0791-105.53-235.5312-235.7188-235.5312zm-179.3125,238.0312c-.0117,.8661-.0312,1.7248-.0312,2.5938c0,101.8509 80.3079,184.4062 179.3438,184.4062c99.0359,0 179.3125-82.5554 179.3125-184.4062c0-.869-.0196-1.7276-.0312-2.5938c-1.3403,97.881-81.0818,176.8125-179.2812,176.8125c-98.1995,0-177.9722-78.9315-179.3125-176.8125z"/>
<path opacity=".4" fill-opacity=".506" d="m250.2144,101.463a155.689,155.689 0 1,1 -311.378,0a155.689,155.689 0 1,1 311.378,0z" transform="matrix(-.90682 0 0 .90682 341.71711 153.79794)"/>
<path opacity=".3" d="m237.4688,97.8125 0,88.9375 37.0625,0 0-88.9375zm10.6875,151.6875-111.75,61.3125 18.2812,30.75 107.2188-57.0312 160.5938,0 0-35.0312z"/>
<path fill="url(#linearGradient3786)" d="m248.1562,239.4982-111.75,61.3143 18.2812,30.75 107.2188-57.0312 160.5938,0 0-35.0331z"/>
<path fill="url(#linearGradient3790)" rx="0" ry="0" d="m-177.229,237.466h89.8921v37.068h-89.8921z" transform="matrix(0 -1 1 0 0 0)"/>
</svg>
