<svg xmlns="http://www.w3.org/2000/svg" viewBox="0 0 16 16">
<defs>
<linearGradient xlink:href="#linearGradient4800" id="linearGradient3881" y1="6" y2="10" x2="0" gradientUnits="userSpaceOnUse"/>
<linearGradient gradientTransform="matrix(.9823 0 0 1.00051 .14162 -.52996)" xlink:href="#linearGradient3806" id="linearGradient3821" y1="1036.362" y2="1040.362" x2="0" gradientUnits="userSpaceOnUse"/>
<linearGradient xlink:href="#linearGradient4794" id="linearGradient3868" y1="6" y2="11" x2="0" gradientUnits="userSpaceOnUse"/>
<linearGradient gradientTransform="matrix(.9823 0 0 1.00051 .14162 -.52996)" xlink:href="#linearGradient3290-7" id="linearGradient3845" y1="1040.362" y2="1035.362" x2="0" gradientUnits="userSpaceOnUse"/>
<linearGradient id="linearGradient3290-7">
<stop offset="0" stop-color="#ba0000"/>
<stop offset="1" stop-color="#ff331e"/>
</linearGradient>
<linearGradient id="linearGradient3827">
<stop offset="0" stop-color="#dbdbdb"/>
<stop offset="1" stop-color="#f5f5f5"/>
</linearGradient>
<linearGradient id="linearGradient3806">
<stop offset="0" stop-color="#fff6d5"/>
<stop offset="1" stop-color="#fff6d5" stop-opacity="0"/>
</linearGradient>
<linearGradient id="linearGradient4794">
<stop offset="0" stop-color="#646464"/>
<stop offset="1" stop-color="#969696"/>
</linearGradient>
<linearGradient gradientTransform="matrix(1.0139 .46133 -.46237 1.01163 482.76263 -16.84992)" xlink:href="#linearGradient3827" id="linearGradient3788" y1="1038.707" x1="5.275" y2="1050.072" gradientUnits="userSpaceOnUse" x2="10.458"/>
<linearGradient id="linearGradient4800">
<stop offset="0"/>
<stop offset="1" stop-color="#fff6d5" stop-opacity="0"/>
</linearGradient>
</defs>
<g transform="translate(0 -1036.3622)">
<path opacity=".08" direction="ltr" block-progression="tb" color="#000000" d="m1.7692,1036.3668c-.9683-.021-1.7681,.777-1.7692,1.7317v12.4695c-.0011,.9542 .7763,1.7302 1.7308,1.7319c11.1779,.1157 11.0059,.034 12.5,.038c.968,.021 1.768-.7767 1.7692-1.732v-12.5079c.0023-.5477-.1824-1.0101-.5385-1.3084c-.3561-.2982-.8091-.4065-1.1923-.4233c-4.1689-.014-8.3329,.013-12.5,0z"/>
<path opacity=".1" direction="ltr" block-progression="tb" color="#000000" d="m1.7692,1036.6744c-.7931-.017-1.4606,.6385-1.4615,1.424v12.4697c-.0009,.7853 .6368,1.4228 1.4231,1.4242c11.1761,.1156 10.9929,.034 12.5,.038c.7928,.017 1.4605-.6382 1.4615-1.4243v-12.5081c.0021-.4859-.1429-.843-.4231-1.0777c-.2802-.2345-.6538-.331-1-.3463c-4.1684-.014-8.3326,.013-12.5,0z"/>
<path opacity=".15" d="m14.7,1037.0912c-.1415-.049-.2886-.086-.4398-.087c-4.1678-.014-8.3362-.016-12.5039-.026c-.618-.014-1.1266,.5034-1.1273,1.1192l-.0135,12.468c-.0007,.616 .5055,1.1238 1.1234,1.1249c11.1744,.1157 10.9848,.018 12.505,.022c.6176,.014 1.1266-.5032 1.1273-1.1194l.0135-12.4678c.0005-.4466-.2613-.8387-.6471-1.0187c-.0126-.0004-.0248-.014-.0376-.016z"/>
<path opacity=".3" d="m14.351,1037.2185c-.1341-.046-.2735-.081-.4169-.082c-3.9508-.014-7.902-.015-11.8527-.024c-.5858-.014-1.068,.4772-1.0686,1.0611l-.0128,11.8185c-.0007,.584 .4791,1.0654 1.0649,1.0663c10.5924,.1097 10.4127,.017 11.8537,.021c.5854,.014 1.0679-.4769 1.0686-1.0611l.0128-11.8185c.0005-.4234-.2477-.7951-.6134-.9656c-.012-.0004-.0235-.014-.0357-.015z"/>
<path fill="url(#linearGradient3788)" d="m14.351,1036.4685c-.1341-.046-.2735-.081-.4169-.082c-3.9508-.014-7.902-.015-11.8527-.024c-.5858-.014-1.068,.4772-1.0686,1.0611l-.0128,11.8185c-.0007,.584 .4791,1.0654 1.0649,1.0663c10.5924,.1097 10.4127,.017 11.8537,.021c.5854,.014 1.0679-.4769 1.0686-1.0611l.0128-11.8185c.0005-.4234-.2477-.7951-.6134-.9656c-.012-.0004-.0235-.014-.0357-.015z"/>
<path opacity=".3" d="m1.1239,1037.9218 0,2.9233 13.7522,0 0-2.9233z"/>
<path fill="url(#linearGradient3845)" fill-rule="evenodd" stroke="#a00000" stroke-width=".248" d="m2.1983,1036.4861c-.5754-.014-1.0737,.4789-1.0744,1.0631v2.939h13.7522v-2.9077c.0005-.4236-.2546-.7987-.6139-.9693c-.0118-.0004-.0188-.03-.0307-.031c-.1317-.046-.2582-.062-.3991-.062c-3.8808-.014-7.7533-.022-11.6341-.031z"/>
<path opacity=".5" fill="url(#linearGradient3821)" d="m2.1909,1036.361c-.5754-.014-1.0663,.4724-1.067,1.0565v.634c.0007-.5842 .4916-1.0701 1.067-1.0566c3.8808,.01 7.767-.014 11.6478,0c.1408,0 .2536,.044 .3853,.091c.0119,0 .0475,.03 .0593,.03c.3593,.1706 .5932,.5424 .5928,.966v-.6339c.0005-.4237-.2335-.7954-.5928-.966c-.0118-.0004-.0474,0-.0593,0c-.1317-.046-.2445-.09-.3853-.091c-3.8808-.014-7.7671-.022-11.6478-.03z"/>
<path fill="url(#linearGradient3868)" stroke="#505050" word-spacing="0" stroke-width=".1" d="m3.8438,6.5625v2.8438c0,.2755-.0518,.4769-.1562,.5938c-.1044,.1164-.2934,.1562-.5312,.1562c-.1628,0-.2997-.0085-.4375-.0625c-.1378-.0542-.2852-.1165-.4062-.1875l-.3125,.75c.1335,.0917 .2954,.181 .5,.25c.2046,.0694 .4661,.0938 .75,.0938c.309,0 .5475-.044 .75-.125c.2025-.0814 .381-.2038 .5-.3438c.119-.1399 .202-.2808 .25-.4688c.048-.1879 .0625-.381 .0625-.5938v-2.9062h-.9688zm3.1875,0c-.1462,.3006-.2705,.6224-.4062,.9375c-.1357,.3152-.2663,.6493-.4062,1c-.1399,.3506-.2914,.7283-.4375,1.125c-.1461,.3965-.3059,.8138-.4688,1.2812h1.0312c.046-.1503 .0687-.3102 .125-.4688c.0563-.1587 .1332-.3102 .1875-.4688h1.6875c.0543,.1586 .0999,.3101 .1562,.4688c.0563,.1586 .1102,.3185 .1562,.4688h1.0625c-.1629-.4675-.3226-.8848-.4688-1.2812c-.1462-.3967-.2977-.7744-.4375-1.125c-.1399-.3507-.2684-.6848-.4062-1c-.1378-.3151-.2956-.6369-.4375-.9375h-.9375zm3.25,0v4.3438h.9375v-2.8438c.3674,.43 .7368,.8907 1.0625,1.375c.3257,.4843 .6264,.972 .9062,1.4688h.8125v-4.3438h-.9688v2.5625c-.1504-.2255-.2976-.4434-.4688-.6875c-.1711-.2442-.358-.4912-.5312-.7188c-.1733-.2275-.333-.4246-.5-.625c-.1671-.2005-.331-.3934-.4688-.5312h-.7812zm-2.7812,1c.0251,.0627 .052,.1414 .0938,.25c.0417,.1086 .0999,.2331 .1562,.375c.0564,.142 .0936,.2977 .1562,.4688c.0626,.1712 .1207,.3432 .1875,.5312h-1.2188c.0668-.188 .1228-.36 .1875-.5312c.0647-.1711 .1332-.3268 .1875-.4688c.0543-.1419 .1145-.2664 .1562-.375c.0417-.1086 .0728-.187 .0938-.25z" letter-spacing="0" transform="translate(0 1036.3622)"/>
<path opacity=".623" fill="url(#linearGradient3881)" word-spacing="0" d="m3.8438,6.5625v.25h.9688v-.25h-.9688zm3.1875,0c-.1462,.3006-.2705,.6224-.4062,.9375c-.1357,.3152-.2663,.6493-.4062,1c-.1399,.3506-.2914,.7283-.4375,1.125c-.1461,.3965-.3059,.8138-.4688,1.2812h.0938c.1297-.3611 .2575-.7123 .375-1.0312c.1461-.3967 .2976-.7744 .4375-1.125c.1399-.3507 .2705-.6848 .4062-1c.1357-.3151 .2601-.6369 .4062-.9375h.9375c.1419,.3006 .2997,.6224 .4375,.9375c.1378,.3152 .2664,.6493 .4062,1c.1398,.3506 .2913,.7283 .4375,1.125c.1175,.3189 .2453,.6702 .375,1.0312h.0938c-.1629-.4675-.3226-.8848-.4688-1.2812c-.1462-.3967-.2977-.7744-.4375-1.125c-.1399-.3507-.2684-.6848-.4062-1c-.1378-.3151-.2956-.6369-.4375-.9375h-.9375zm3.25,0v.25h.7812c.1377,.1378 .3017,.3308 .4688,.5312c.167,.2004 .3267,.3975 .5,.625c.1733,.2276 .3601,.4746 .5312,.7188c.1711,.2441 .3184,.462 .4688,.6875v-.25c-.1504-.2255-.2976-.4434-.4688-.6875c-.1711-.2442-.358-.4912-.5312-.7188c-.1733-.2275-.333-.4246-.5-.625c-.1671-.2005-.331-.3934-.4688-.5312h-.7812zm2.75,0v.25h.9688v-.25h-.9688zm-6.0625,2.625c-.0289,.0835-.0621,.1609-.0938,.25h1.2188c-.0316-.0891-.0646-.1665-.0938-.25h-1.0312zm-3.125,.2188c0,.2755-.0518,.4769-.1562,.5938c-.1044,.1164-.2934,.1562-.5312,.1562c-.1628,0-.2997-.0085-.4375-.0625c-.1378-.0542-.2852-.1165-.4062-.1875l-.3125,.75c.0234,.016 .0686,.0154 .0938,.0312l.2188-.5312c.1211,.071 .2684,.1335 .4062,.1875c.1378,.052 .2747,.0625 .4375,.0625c.2379,0 .4268-.0398 .5312-.1562c.1044-.1169 .1562-.3183 .1562-.5938v-.25z" letter-spacing="0" transform="translate(0 1036.3622)"/>
</g>
</svg>
