<svg width="16" xmlns="http://www.w3.org/2000/svg" viewBox="0 0 15.999999 16" height="16" enable-background="new 0 0 595.28 841.89">
<defs/>
<path fill="#656565" d="m8.4845,0c-3.0312-.0004-5.4849,2.4742-5.4845,5.5312c.0002,1.6528 .7492,3.1412 1.8901,4.1562v.875c.0001,.788 .3025,1.4497 .8056,1.875v1.3125c.0001,.7765 .3616,1.4243 .8986,1.7812c.537,.3569 1.1915,.4687 1.8901,.4688c.6986,.0001 1.3855-.1115 1.9211-.4688c.5356-.3572 .8677-1.0055 .8676-1.7812v-1.3125c.5038-.4252 .8367-1.0863 .8366-1.875v-.875c1.1435-1.0155 1.8903-2.4695 1.8901-4.125c-.0002-1.5281-.6167-2.9328-1.6113-3.9375c-.9945-1.0047-2.3886-1.6248-3.9042-1.625z"/>
</svg>
