<svg xmlns="http://www.w3.org/2000/svg" viewBox="0 0 16 16">
<defs>
<linearGradient xlink:href="#linearGradient4794" id="linearGradient3853" y1="1" y2="3" x2="0" gradientUnits="userSpaceOnUse"/>
<linearGradient id="linearGradient4794">
<stop offset="0" stop-color="#646464"/>
<stop offset="1" stop-color="#969696"/>
</linearGradient>
<linearGradient xlink:href="#linearGradient4800" id="linearGradient3866" y1="1" y2="3" x2="0" gradientUnits="userSpaceOnUse"/>
<linearGradient id="linearGradient4800">
<stop offset="0"/>
<stop offset="1" stop-color="#fff6d5" stop-opacity="0"/>
</linearGradient>
<linearGradient gradientTransform="matrix(1.0139 .46133 -.46237 1.01163 482.76263 -16.84992)" xlink:href="#linearGradient3827" id="linearGradient3788" y1="1038.707" x1="5.275" y2="1050.072" gradientUnits="userSpaceOnUse" x2="10.458"/>
<linearGradient id="linearGradient3827">
<stop offset="0" stop-color="#dbdbdb"/>
<stop offset="1" stop-color="#f5f5f5"/>
</linearGradient>
<linearGradient xlink:href="#linearGradient3827" id="linearGradient3845" y1="1040.362" y2="1035.362" x2="0" gradientUnits="userSpaceOnUse"/>
</defs>
<g transform="translate(0 -1036.3622)">
<path opacity=".08" direction="ltr" block-progression="tb" color="#000000" d="m1.7692,1036.3668c-.9683-.021-1.7681,.777-1.7692,1.7317v12.4695c-.0011,.9542 .7763,1.7302 1.7308,1.7319c11.1779,.1157 11.0059,.034 12.5,.038c.968,.021 1.768-.7767 1.7692-1.732v-12.5079c.0023-.5477-.1824-1.0101-.5385-1.3084c-.3561-.2982-.8091-.4065-1.1923-.4233c-4.1689-.014-8.3329,.013-12.5,0z"/>
<path opacity=".1" direction="ltr" block-progression="tb" color="#000000" d="m1.7692,1036.6744c-.7931-.017-1.4606,.6385-1.4615,1.424v12.4697c-.0009,.7853 .6368,1.4228 1.4231,1.4242c11.1761,.1156 10.9929,.034 12.5,.038c.7928,.017 1.4605-.6382 1.4615-1.4243v-12.5081c.0021-.4859-.1429-.843-.4231-1.0777c-.2802-.2345-.6538-.331-1-.3463c-4.1684-.014-8.3326,.013-12.5,0z"/>
<path opacity=".15" d="m14.7,1037.0912c-.1415-.049-.2886-.086-.4398-.087c-4.1678-.014-8.3362-.016-12.5039-.026c-.618-.014-1.1266,.5034-1.1273,1.1192l-.0135,12.468c-.0007,.616 .5055,1.1238 1.1234,1.1249c11.1744,.1157 10.9848,.018 12.505,.022c.6176,.014 1.1266-.5032 1.1273-1.1194l.0135-12.4678c.0005-.4466-.2613-.8387-.6471-1.0187c-.0126-.0004-.0248-.014-.0376-.016z"/>
<path opacity=".3" d="m14.351,1037.2185c-.1341-.046-.2735-.081-.4169-.082c-3.9508-.014-7.902-.015-11.8527-.024c-.5858-.014-1.068,.4772-1.0686,1.0611l-.0128,11.8185c-.0007,.584 .4791,1.0654 1.0649,1.0663c10.5924,.1097 10.4127,.017 11.8537,.021c.5854,.014 1.0679-.4769 1.0686-1.0611l.0128-11.8185c.0005-.4234-.2477-.7951-.6134-.9656c-.012-.0004-.0235-.014-.0357-.015z"/>
<path fill="url(#linearGradient3788)" d="m14.351,1036.4685c-.1341-.046-.2735-.081-.4169-.082c-3.9508-.014-7.902-.015-11.8527-.024c-.5858-.014-1.068,.4772-1.0686,1.0611l-.0128,11.8185c-.0007,.584 .4791,1.0654 1.0649,1.0663c10.5924,.1097 10.4127,.017 11.8537,.021c.5854,.014 1.0679-.4769 1.0686-1.0611l.0128-11.8185c.0005-.4234-.2477-.7951-.6134-.9656c-.012-.0004-.0235-.014-.0357-.015z"/>
<path opacity=".3" d="m1,1037.9221 0,.9221 14,0 0-.9221z"/>
<path stroke-opacity=".173" fill="url(#linearGradient3845)" fill-rule="evenodd" stroke="#000" stroke-width=".25" d="m2.0938,1036.4872c-.5858-.014-1.0931,.4786-1.0938,1.0625v.8125h14v-.7812c.0005-.4234-.2592-.7983-.625-.9688c-.012-.0004-.0191-.03-.0312-.031c-.1341-.046-.2629-.062-.4062-.062c-3.9508-.014-7.893-.022-11.8438-.031z"/>
<path opacity=".5" fill="#fff" d="m2.0862,1036.3621c-.5858-.014-1.0855,.4722-1.0862,1.056v.6337c.0007-.5839 .5004-1.0696 1.0862-1.0561c3.9507,.01 7.907-.014 11.8578,0c.1434,0 .2582,.044 .3922,.091c.0121,0 .0484,.03 .0603,.03c.3658,.1705 .6039,.5421 .6034,.9655v-.6336c.0005-.4235-.2377-.795-.6034-.9655c-.012-.0004-.0482,0-.0603,0c-.1341-.046-.2489-.09-.3922-.091c-3.9508-.014-7.907-.022-11.8578-.03z"/>
<path opacity=".3" fill="#505050" fill-rule="evenodd" d="m2,4v3h3v-3h-3zm4,0v1h8v-1h-8zm0,2v1h8v-1h-8zm-4,2v1h12v-1h-12zm0,2v1h12v-1h-12zm0,2v1h12v-1h-12z" transform="translate(0 1036.3622)"/>
<path fill="url(#linearGradient3853)" fill-rule="evenodd" stroke="#505050" stroke-width=".1" d="m10,1c-.5523,0-1,.4477-1,1c0,.5523 .4477,1 1,1c.5523,0 1-.4477 1-1c0-.5523-.4477-1-1-1zm3,0c-.5523,0-1,.4477-1,1c0,.5523 .4477,1 1,1c.5523,0 1-.4477 1-1c0-.5523-.4477-1-1-1z" transform="translate(0 1036.3622)"/>
<path opacity=".669" fill="url(#linearGradient3866)" fill-rule="evenodd" d="m10,1c-.5523,0-1,.4477-1,1c0,.0677 .0184,.1236 .0312,.1875c.0794-.4729 .4733-.8438 .9688-.8438c.4954,0 .8893,.3709 .9688,.8438c.0128-.0639 .0312-.1198 .0312-.1875c0-.5523-.4477-1-1-1zm3,0c-.5523,0-1,.4477-1,1c0,.0677 .0184,.1236 .0312,.1875c.0794-.4729 .4733-.8438 .9688-.8438c.4954,0 .8893,.3709 .9688,.8438c.0128-.0639 .0312-.1198 .0312-.1875c0-.5523-.4477-1-1-1z" transform="translate(0 1036.3622)"/>
</g>
</svg>
