<svg width="16" xmlns="http://www.w3.org/2000/svg" viewBox="0 0 15.999999 16" height="16" enable-background="new 0 0 595.28 841.89">
<defs/>
<path fill="#e6e6e6" d="m8.4845,.4688c-2.7711-.0003-5.02,2.299-5.0197,5.0938c.0002,1.5948 .7459,3.0105 1.8901,3.9375v1.0625c.0001,.7643 .3266,1.2907 .8366,1.625v1.5625c.0002,1.2926 1.0113,1.7811 2.293,1.7812c1.2816,.0002 2.3241-.4887 2.3239-1.7812v-1.5625c.5079-.3343 .8057-.8624 .8056-1.625v-1.0625c1.1463-.9266 1.8903-2.3395 1.8901-3.9375c-.0003-2.7948-2.2486-5.0934-5.0197-5.0938z"/>
<path fill="#656565" word-spacing="0" d="m8.4845,0c-3.0312-.0004-5.4849,2.4742-5.4845,5.5312c.0002,1.6528 .7492,3.1412 1.8901,4.1562v.875c.0001,.788 .3025,1.4497 .8056,1.875v1.3125c.0001,.7765 .3616,1.4243 .8986,1.7812c.537,.3569 1.1915,.4687 1.8901,.4688c.6986,.0001 1.3855-.1115 1.9211-.4688c.5356-.3572 .8677-1.0055 .8676-1.7812v-1.3125c.5038-.4252 .8367-1.0863 .8366-1.875v-.875c1.1435-1.0155 1.8903-2.4695 1.8901-4.125c-.0002-1.5281-.6167-2.9328-1.6113-3.9375c-.9945-1.0047-2.3886-1.6248-3.9042-1.625zm0,.9688c1.2556,.0002 2.402,.5147 3.2225,1.3438c.8205,.829 1.3322,1.9521 1.3324,3.2188c.0002,1.4483-.6674,2.7556-1.7042,3.5938l-.1859,.125v.25v1.0625c.0001,.6047-.1965,.9324-.5577,1.1875c-.3612,.2551-.9181,.4063-1.5803,.4062h-1.0225c-.6622-.0001-1.219-.1511-1.5803-.4062c-.3612-.2551-.5887-.5828-.5887-1.1875v-1.0625v-.25l-.1549-.125c-1.0357-.8391-1.7041-2.1182-1.7042-3.5625c-.0003-2.5325 2.0128-4.5941 4.5239-4.5938z" letter-spacing="0"/>
</svg>
