<?xml version="1.0" encoding="UTF-8" standalone="no"?>
<!-- Generator: Adobe Illustrator 15.0.2, SVG Export Plug-In . SVG Version: 6.00 Build 0)  -->

<svg
   xmlns:dc="http://purl.org/dc/elements/1.1/"
   xmlns:cc="http://creativecommons.org/ns#"
   xmlns:rdf="http://www.w3.org/1999/02/22-rdf-syntax-ns#"
   xmlns:svg="http://www.w3.org/2000/svg"
   xmlns="http://www.w3.org/2000/svg"
   xmlns:xlink="http://www.w3.org/1999/xlink"
   xmlns:sodipodi="http://sodipodi.sourceforge.net/DTD/sodipodi-0.dtd"
   xmlns:inkscape="http://www.inkscape.org/namespaces/inkscape"
   version="1.1"
   id="Layer_1"
   x="0px"
   y="0px"
   width="16"
   height="16"
   viewBox="0 0 15.999999 16"
   enable-background="new 0 0 595.28 841.89"
   xml:space="preserve"
   inkscape:version="0.48.3.1 r9886"
   sodipodi:docname="alert.svg"
   inkscape:export-filename="D:\Hobby\QutIM\Images\q_outmsgok2.png"
   inkscape:export-xdpi="90"
   inkscape:export-ydpi="90"><metadata
   id="metadata33"><rdf:RDF><cc:Work
       rdf:about=""><dc:format>image/svg+xml</dc:format><dc:type
         rdf:resource="http://purl.org/dc/dcmitype/StillImage" /><dc:title /></cc:Work></rdf:RDF></metadata><defs
   id="defs31"><linearGradient
     id="linearGradient3988"
     gradientUnits="userSpaceOnUse"
     x1="308.14651"
     y1="-377.9277"
     x2="311.9473"
     y2="-377.9277"
     gradientTransform="matrix(0.93586036,0,0,-1.0298652,-286.87581,-378.31196)">
	<stop
   offset="0"
   style="stop-color:#656565;stop-opacity:1;"
   id="stop3990" />
	
	<stop
   offset="1"
   style="stop-color:#656565;stop-opacity:0;"
   id="stop3992" />
</linearGradient><linearGradient
     id="linearGradient3982"
     gradientUnits="userSpaceOnUse"
     x1="315.7207"
     y1="-379.52151"
     x2="319.02151"
     y2="-379.52151"
     gradientTransform="matrix(0.93586036,0,0,-1.0298652,-286.87581,-378.31196)">
	<stop
   offset="0"
   style="stop-color:#656565;stop-opacity:1;"
   id="stop3984" />
	
	<stop
   offset="1"
   style="stop-color:#656565;stop-opacity:0;"
   id="stop3986" />
</linearGradient><radialGradient
     id="radialGradient3976"
     cx="25.706499"
     cy="-306.87061"
     r="4.7227998"
     gradientTransform="matrix(0.28038377,-2.4753835,-1.4703301,-0.10638504,-451.57769,42.625089)"
     gradientUnits="userSpaceOnUse">
	<stop
   offset="0"
   style="stop-color:#656565;stop-opacity:1;"
   id="stop3978" />
	
	<stop
   offset="1"
   style="stop-color:#656565;stop-opacity:0;"
   id="stop3980" />
</radialGradient><radialGradient
     inkscape:collect="always"
     xlink:href="#radialGradient3976"
     id="radialGradient3257"
     gradientUnits="userSpaceOnUse"
     gradientTransform="matrix(0.30432818,-2.5817495,-1.5958944,-0.11095635,-472.77625,44.066747)"
     cx="25.706499"
     cy="-306.87061"
     r="4.7227998" /><linearGradient
     inkscape:collect="always"
     xlink:href="#linearGradient3988"
     id="linearGradient3259"
     gradientUnits="userSpaceOnUse"
     gradientTransform="matrix(1.0157816,0,0,-1.074118,-294.00904,-394.95776)"
     x1="308.14651"
     y1="-377.9277"
     x2="311.9473"
     y2="-377.9277" /><linearGradient
     inkscape:collect="always"
     xlink:href="#linearGradient3982"
     id="linearGradient3261"
     gradientUnits="userSpaceOnUse"
     gradientTransform="matrix(1.0157816,0,0,-1.074118,-294.00904,-394.95776)"
     x1="315.7207"
     y1="-379.52151"
     x2="319.02151"
     y2="-379.52151" /></defs><sodipodi:namedview
   pagecolor="#ffffff"
   bordercolor="#666666"
   borderopacity="1"
   objecttolerance="10"
   gridtolerance="10"
   guidetolerance="10"
   inkscape:pageopacity="0"
   inkscape:pageshadow="2"
   inkscape:window-width="1440"
   inkscape:window-height="848"
   id="namedview29"
   showgrid="true"
   inkscape:zoom="39.9375"
   inkscape:cx="8"
   inkscape:cy="8"
   inkscape:window-x="-8"
   inkscape:window-y="-8"
   inkscape:window-maximized="1"
   inkscape:current-layer="Layer_1"><inkscape:grid
     type="xygrid"
     id="grid3010"
     empspacing="5"
     visible="true"
     enabled="true"
     snapvisiblegridlinesonly="true" /></sodipodi:namedview>


<radialGradient
   id="path2995_1_"
   cx="25.706499"
   cy="-306.87061"
   r="4.7227998"
   gradientTransform="matrix(0.28038377,-2.4753835,-1.4703301,-0.10638504,-451.57769,42.625089)"
   gradientUnits="userSpaceOnUse">
	<stop
   offset="0"
   style="stop-color:#d63434;stop-opacity:1;"
   id="stop6" />
	
	<stop
   offset="1"
   style="stop-color:#d63434;stop-opacity:0;"
   id="stop10" />
</radialGradient>

<linearGradient
   id="path3008_1_"
   gradientUnits="userSpaceOnUse"
   x1="308.14651"
   y1="-377.9277"
   x2="311.9473"
   y2="-377.9277"
   gradientTransform="matrix(0.93586036,0,0,-1.0298652,-286.87581,-378.31196)">
	<stop
   offset="0"
   style="stop-color:#d63434;stop-opacity:1;"
   id="stop14" />
	
	<stop
   offset="1"
   style="stop-color:#d63434;stop-opacity:0;"
   id="stop18" />
</linearGradient>

<linearGradient
   id="path3006_1_"
   gradientUnits="userSpaceOnUse"
   x1="315.7207"
   y1="-379.52151"
   x2="319.02151"
   y2="-379.52151"
   gradientTransform="matrix(0.93586036,0,0,-1.0298652,-286.87581,-378.31196)">
	<stop
   offset="0"
   style="stop-color:#d63434;stop-opacity:1;"
   id="stop22" />
	
	<stop
   offset="1"
   style="stop-color:#d63434;stop-opacity:0;"
   id="stop26" />
</linearGradient>

<g
   id="g5435"
   transform="matrix(1,0,0,0.99982116,-18,0.00286144)"><g
     id="g5272"
     transform="matrix(1,0,0,1.0001789,-173.625,-2.8471226)"><rect
       inkscape:export-ydpi="90"
       inkscape:export-xdpi="90"
       inkscape:export-filename="D:\Hobby\QutIM\Images\th3.png"
       ry="0.99982113"
       y="6.8458977"
       x="192.625"
       height="11.997853"
       width="15"
       id="rect5274"
       style="opacity:0.07999998;fill:#000000;fill-opacity:1" /><rect
       inkscape:export-ydpi="90"
       inkscape:export-xdpi="90"
       inkscape:export-filename="D:\Hobby\QutIM\Images\th3.png"
       style="opacity:0.15;fill:#000000;fill-opacity:1"
       id="rect5276"
       width="14.75"
       height="11.747898"
       x="192.625"
       y="6.8458977"
       ry="1.0215564" /><rect
       inkscape:export-ydpi="90"
       inkscape:export-xdpi="90"
       inkscape:export-filename="D:\Hobby\QutIM\Images\th3.png"
       ry="0.99982113"
       y="6.8458977"
       x="192.625"
       height="11.497943"
       width="14.5"
       id="rect5278"
       style="opacity:0.15;fill:#000000;fill-opacity:1" /><rect
       inkscape:export-ydpi="90"
       inkscape:export-xdpi="90"
       inkscape:export-filename="D:\Hobby\QutIM\Images\th3.png"
       style="opacity:0.3;fill:#000000;fill-opacity:1"
       id="rect5280"
       width="14.25"
       height="11.247988"
       x="192.625"
       y="6.8458977"
       ry="0.97808588" /></g><g
     id="g5255"><rect
       inkscape:export-ydpi="90"
       inkscape:export-xdpi="90"
       inkscape:export-filename="D:\Hobby\QutIM\Images\th3.png"
       ry="1"
       y="3"
       x="18"
       height="12"
       width="15"
       id="rect4044"
       style="fill:#e6e6e6;fill-opacity:1" /><path
       inkscape:export-ydpi="90"
       inkscape:export-xdpi="90"
       inkscape:export-filename="D:\Hobby\QutIM\Images\th3.png"
       style="fill:url(#radialGradient3257);fill-opacity:1"
       inkscape:connector-curvature="0"
       d="m 19.681586,4.000004 c -0.350444,-0.0011 -0.634862,0.215897 -0.635878,0.485501 l -0.0061,1.054784 5.116491,6.874354 c 0.216361,0.293234 0.700889,0.396348 1.081807,0.228787 l 6.751897,-2.9645649 0.01019,-1.4393183 -6.297845,2.7637052 c -0.306766,0.135337 -0.690731,0.05369 -0.865446,-0.1826 l -5.07282,-6.820648 h -0.08228 z"
       connector-curvature="0"
       id="path4046" /><path
       inkscape:export-ydpi="90"
       inkscape:export-xdpi="90"
       inkscape:export-filename="D:\Hobby\QutIM\Images\th3.png"
       style="opacity:0.51529996;fill:url(#linearGradient3259);fill-opacity:1"
       inkscape:connector-curvature="0"
       d="m 22.053436,9.5940095 -3.04328,1.3351285 -0.01016,1.439318 3.860986,-1.693885 -0.807546,-1.0805615 z"
       enable-background="new    "
       id="path4048" /><path
       inkscape:export-ydpi="90"
       inkscape:export-xdpi="90"
       inkscape:export-filename="D:\Hobby\QutIM\Images\th3.png"
       style="opacity:0.51529996;fill:url(#linearGradient3261);fill-opacity:1"
       inkscape:connector-curvature="0"
       d="m 28.103432,11.386713 -1.409904,0.616544 1.479993,1.988191 1.873102,0.0086 -1.943191,-2.613329 0,0 z"
       enable-background="new    "
       id="path4050" /><path
       inkscape:connector-curvature="0"
       inkscape:export-ydpi="90"
       inkscape:export-xdpi="90"
       inkscape:export-filename="D:\Hobby\QutIM\Images\th3.png"
       id="path4052"
       d="m 19,3 c -0.554,0 -1,0.446 -1,1 l 0,10 c 0,0.554 0.446,1 1,1 l 13,0 c 0.554,0 1,-0.446 1,-1 L 33,4 C 33,3.446 32.554,3 32,3 L 19,3 z m 0.5,1 12,0 C 31.784682,4 32,4.215319 32,4.5 l 0,9 c 0,0.284681 -0.215318,0.5 -0.5,0.5 l -12,0 C 19.21532,14 19,13.784681 19,13.5 l 0,-9 C 19,4.215319 19.21532,4 19.5,4 z"
       style="fill:#656565;fill-opacity:1" /><path
       style="font-size:medium;font-style:normal;font-variant:normal;font-weight:normal;font-stretch:normal;text-indent:0;text-align:start;text-decoration:none;line-height:normal;letter-spacing:normal;word-spacing:normal;text-transform:none;direction:ltr;block-progression:tb;writing-mode:lr-tb;text-anchor:start;baseline-shift:baseline;color:#000000;fill:#e6e6e6;fill-opacity:1;fill-rule:nonzero;stroke:none;stroke-width:1;marker:none;visibility:visible;display:inline;overflow:visible;enable-background:accumulate;font-family:Sans;-inkscape-font-specification:Sans"
       d="M 27.8125,0 C 27.32365,0.09326143 26.991228,0.50236624 27,1 l 0,7.65625 c 5.6e-5,0.565039 0.435015,0.9999435 1,1 l 4,0 c 0.564985,-5.65e-5 0.999943,-0.434961 1,-1 L 33,1 C 32.999943,0.43496108 32.564985,5.6481112e-5 32,0 L 28.03125,0 C 28.01877,-0.00117486 28.012498,7.0491878e-4 28,0 27.950009,-0.00281968 27.92492,-0.00469946 27.875,0 L 27.84375,0 27.8125,0 z m 0,9.9375 c -0.488849,0.093261 -0.821271,0.502367 -0.8125,1 L 27,14 c 5.7e-5,0.565039 0.435016,0.999944 1,1 l 4,0 c 0.564984,-5.6e-5 0.999943,-0.434961 1,-1 l 0,-3.0625 c -5.7e-5,-0.565039 -0.435016,-0.9999435 -1,-1 l -3.96875,0 c -0.01248,-0.00117 -0.01875,7.049e-4 -0.03125,0 -0.04999,-0.00282 -0.07508,-0.0047 -0.125,0 l -0.03125,0 -0.03125,0 z"
       id="path5248"
       inkscape:connector-curvature="0" /><path
       style="fill:#d63434;fill-opacity:1;stroke:none"
       d="m 28,1.0021229 0,7.6458563 4,0 0,-7.6458563 -4,0 z m 0,9.9396131 0,3.058343 4,0 0,-3.058343 -4,0 z"
       id="rect4060"
       inkscape:connector-curvature="0"
       inkscape:export-filename="D:\Hobby\QutIM\Images\th3.png"
       inkscape:export-xdpi="90"
       inkscape:export-ydpi="90" /></g></g></svg>