<?xml version="1.0" encoding="utf8" standalone="no"?>
<svg height="32" id="svg2" inkscape:version="0.48.3.1 r9886" sodipodi:docname="qutim-offline.svg" width="32" xmlns="http://www.w3.org/2000/svg" xmlns:cc="http://creativecommons.org/ns#" xmlns:dc="http://purl.org/dc/elements/1.1/" xmlns:inkscape="http://www.inkscape.org/namespaces/inkscape" xmlns:rdf="http://www.w3.org/1999/02/22-rdf-syntax-ns#" xmlns:sodipodi="http://sodipodi.sourceforge.net/DTD/sodipodi-0.dtd" xmlns:svg="http://www.w3.org/2000/svg" xmlns:xlink="http://www.w3.org/1999/xlink">
<defs id="defs4">
<clipPath id="clipPath6769">
<rect height="554.61725" id="rect6771" rx="25.929497" style="fill:#4dff43" transform="rotate(.116)" width="554.61725" x="-1037.426" y="-374.23117"/>
</clipPath>
<clipPath id="clipPath6601">
<rect height="757.37421" id="rect6603" rx="35.408802" style="fill:#4dff43" transform="rotate(.116)" width="757.37421" x="-1031.5856" y="340.27667"/>
</clipPath>
<clipPath id="clipPath6988">
<rect height="430.66013" id="rect6990" inkscape:export-filename="C:\Users\Madnester\Desktop\QutIM\qutim x16.png" inkscape:export-xdpi="1.3333334" inkscape:export-ydpi="1.3333334" rx="20.134249" style="fill:url(#linearGradient6992)" transform="matrix(.9414,-.33728,.33728,.9414,0,0)" width="430.66013" x="1052.2825" y="1094.6482"/>
</clipPath>
<clipPath id="clipPath6970">
<rect height="659.80383" id="rect6972" inkscape:export-filename="C:\Users\Madnester\Desktop\QutIM\qutim x16.png" inkscape:export-xdpi="1.3333334" inkscape:export-ydpi="1.3333334" rx="30.847187" style="fill:url(#linearGradient6974)" transform="matrix(.9414,-.33728,.33728,.9414,0,0)" width="659.80383" x="1118.8516" y="887.25159"/>
</clipPath>
<clipPath id="clipPath6904">
<rect height="513.22998" id="rect6906" inkscape:export-filename="C:\Users\Madnester\Desktop\QutIM\qutim x512.png" inkscape:export-xdpi="38.117695" inkscape:export-ydpi="38.117695" rx="23.99456" style="fill:url(#radialGradient6908)" transform="matrix(.9414,-.33728,.33728,.9414,0,0)" width="513.22998" x="1009.4083" y="1028.2593"/>
</clipPath>
<clipPath id="clipPath6886">
<rect height="786.30707" id="rect6888" inkscape:export-filename="C:\Users\Madnester\Desktop\QutIM\qutim x512.png" inkscape:export-xdpi="38.117695" inkscape:export-ydpi="38.117695" rx="36.761475" style="fill:url(#radialGradient6890)" transform="matrix(.9414,-.33728,.33728,.9414,0,0)" width="786.30707" x="1053.165" y="785.5387"/>
</clipPath>
<clipPath id="clipPath6886-0">
<rect height="786.30707" id="rect6888-1" inkscape:export-filename="C:\Users\Madnester\Desktop\QutIM\qutim x512.png" inkscape:export-xdpi="38.117695" inkscape:export-ydpi="38.117695" rx="36.761475" style="fill:url(#radialGradient6890)" transform="matrix(.9414,-.33728,.33728,.9414,0,0)" width="786.30707" x="1053.165" y="785.5387"/>
</clipPath>
<clipPath id="clipPath6892-7">
<rect height="513.22998" id="rect6894-2" inkscape:export-filename="C:\Users\Madnester\Desktop\QutIM\qutim x512.png" inkscape:export-xdpi="38.117695" inkscape:export-ydpi="38.117695" rx="23.99456" style="fill:url(#radialGradient6908)" transform="matrix(.9414,-.33728,.33728,.9414,0,0)" width="513.22998" x="1009.4083" y="1028.2593"/>
</clipPath>
<clipPath id="clipPath6970-9">
<rect height="659.80383" id="rect6972-8" inkscape:export-filename="C:\Users\Madnester\Desktop\QutIM\qutim x16.png" inkscape:export-xdpi="1.3333334" inkscape:export-ydpi="1.3333334" rx="30.847187" style="fill:url(#linearGradient6974)" transform="matrix(.9414,-.33728,.33728,.9414,0,0)" width="659.80383" x="1118.8516" y="887.25159"/>
</clipPath>
<clipPath id="clipPath6976-1">
<rect height="430.66013" id="rect6978-3" inkscape:export-filename="C:\Users\Madnester\Desktop\QutIM\qutim x16.png" inkscape:export-xdpi="1.3333334" inkscape:export-ydpi="1.3333334" rx="20.134249" style="fill:url(#linearGradient6992)" transform="matrix(.9414,-.33728,.33728,.9414,0,0)" width="430.66013" x="1052.2825" y="1094.6482"/>
</clipPath>
<linearGradient gradientTransform="translate(-1148.0069,-810.4698)" gradientUnits="userSpaceOnUse" id="linearGradient6666" inkscape:collect="always" x1="422.58987" x2="889.19104" y1="919.09467" y2="89.199226">
<stop id="stop6695" offset="0" style="stop-color:#e6e6e6"/>
<stop id="stop6697" offset="0.41666666" style="stop-color:#e1e1e1"/>
<stop id="stop6699" offset="1" style="stop-color:#fff"/>
</linearGradient>
<linearGradient id="linearGradient3809">
<stop id="stop3811" offset="0" style="stop-color:#e7e7e7"/>
<stop id="stop3813" offset="1" style="stop-color:#656565"/>
</linearGradient>
<linearGradient id="linearGradient5319">
<stop id="stop5321" offset="0" style="stop-color:#a7a7a7"/>
<stop id="stop6405" offset="0.41666666" style="stop-color:#e1e1e1"/>
<stop id="stop5323" offset="1" style="stop-color:#fff"/>
</linearGradient>
<linearGradient id="linearGradient5341">
<stop id="stop5343" offset="0" style="stop-color:#fff"/>
<stop id="stop6267" offset="0.35140693" style="stop-color:#8bddf7"/>
<stop id="stop5345" offset="1" style="stop-color:#3e78cd"/>
</linearGradient>
<linearGradient id="linearGradient5361">
<stop id="stop5369" offset="0" style="stop-color:#c1c1c1"/>
<stop id="stop5365" offset="1" style="stop-color:#d6d6d6"/>
</linearGradient>
<linearGradient id="linearGradient5373">
<stop id="stop5375" offset="0" style="stop-color:#8e8e8e"/>
<stop id="stop5381" offset="0.30555555" style="stop-color:#dfdfdf"/>
<stop id="stop5383" offset="0.3923611" style="stop-color:#6c6c6c"/>
<stop id="stop6483" offset="0.63710457" style="stop-color:#6a6a6a"/>
<stop id="stop5377" offset="1" style="stop-color:#cacaca"/>
</linearGradient>
<linearGradient id="linearGradient5461">
<stop id="stop5463" offset="0"/>
<stop id="stop5465" offset="1" style="stop-color:#838383"/>
</linearGradient>
<linearGradient id="linearGradient5469">
<stop id="stop5471" offset="0" style="stop-color:#e3e3e3"/>
<stop id="stop5473" offset="1" style="stop-color:#121212"/>
</linearGradient>
<linearGradient id="linearGradient6469">
<stop id="stop6471" offset="0" style="stop-color:#e3e3e3"/>
<stop id="stop6481" offset="0.49165267" style="stop-color:#9ec6ed"/>
<stop id="stop6477" offset="0.52565688" style="stop-color:#24405d"/>
<stop id="stop6473" offset="1" style="stop-color:#121212"/>
</linearGradient>
<linearGradient gradientTransform="matrix(1.28304,0,0,1.28304,-78.4433,-250.31311)" gradientUnits="userSpaceOnUse" id="linearGradient7058" inkscape:collect="always" x1="422.58987" x2="889.19104" y1="919.09467" y2="89.199226">
<stop id="stop7006" offset="0" style="stop-color:#fdfdfd"/>
<stop id="stop7008" offset="1" style="stop-color:#b8b8b8"/>
</linearGradient>
<linearGradient gradientTransform="matrix(1.00767,0,0,1.00767,-242.61653,1219.7462)" gradientUnits="userSpaceOnUse" id="linearGradient6936" inkscape:collect="always" x1="953.02039" x2="1765.8719" y1="1398.2271" y2="608.85431">
<stop id="stop7022" offset="0" style="stop-color:#222"/>
<stop id="stop7024" offset="0.30555555" style="stop-color:#7c7c7c"/>
<stop id="stop7026" offset="0.3923611"/>
<stop id="stop7028" offset="0.63710457" style="stop-color:#292929"/>
<stop id="stop7030" offset="1" style="stop-color:#5c5c5c"/>
</linearGradient>
<linearGradient id="linearGradient7010">
<stop id="stop7012" offset="0" style="stop-color:#fff"/>
<stop id="stop7014" offset="0.35140693" style="stop-color:#2894f0"/>
<stop id="stop7016" offset="1" style="stop-color:#3e78cd"/>
</linearGradient>
<linearGradient gradientTransform="translate(-1149.1152,-807.029)" gradientUnits="userSpaceOnUse" id="linearGradient6669" inkscape:collect="always" x1="422.58987" x2="889.19104" xlink:href="#linearGradient5469" y1="919.09467" y2="89.199226"/>
<linearGradient gradientTransform="translate(-1144.0069,107.1969)" gradientUnits="userSpaceOnUse" id="linearGradient6663" inkscape:collect="always" x1="422.58987" x2="889.19104" xlink:href="#linearGradient5319" y1="919.09467" y2="89.199226"/>
<linearGradient gradientTransform="translate(-1145.1152,110.6376)" gradientUnits="userSpaceOnUse" id="linearGradient6661" inkscape:collect="always" x1="422.58987" x2="889.19104" xlink:href="#linearGradient5469" y1="919.09467" y2="89.199226"/>
<linearGradient gradientTransform="translate(-2213.231,174.4352)" gradientUnits="userSpaceOnUse" id="linearGradient6659" inkscape:collect="always" x1="1658.4646" x2="1763.1934" xlink:href="#linearGradient5469" y1="875.22601" y2="-139.51535"/>
<linearGradient gradientTransform="translate(-1144.0069,117.6824)" gradientUnits="userSpaceOnUse" id="linearGradient6657" inkscape:collect="always" x1="422.58987" x2="889.19104" xlink:href="#linearGradient5461" y1="919.09467" y2="89.199226"/>
<linearGradient gradientTransform="matrix(1.00202,0,0,1.00202,-2142.7122,-594.24254)" gradientUnits="userSpaceOnUse" id="linearGradient6542" inkscape:collect="always" x1="964.13104" x2="1747.3324" xlink:href="#linearGradient6469" y1="1384.9419" y2="614.99689"/>
<linearGradient gradientTransform="matrix(1.00767,0,0,1.00767,-2150.6562,-599.6676)" gradientUnits="userSpaceOnUse" id="linearGradient6540" inkscape:collect="always" x1="953.02039" x2="1765.8719" xlink:href="#linearGradient5373" y1="1398.2271" y2="608.85431"/>
<linearGradient gradientTransform="matrix(.5477,0,0,.5477,652.22229,90.83025)" gradientUnits="userSpaceOnUse" id="linearGradient6992" inkscape:collect="always" x1="172.49559" x2="1488.5695" xlink:href="#linearGradient5341" y1="3096.7139" y2="1846.9016"/>
<linearGradient gradientTransform="matrix(.83912,0,0,.83912,505.92924,-650.67331)" gradientUnits="userSpaceOnUse" id="linearGradient6974" inkscape:collect="always" x1="172.49559" x2="1488.5695" xlink:href="#linearGradient5341" y1="3096.7139" y2="1846.9016"/>
<linearGradient gradientUnits="userSpaceOnUse" id="linearGradient6950" inkscape:collect="always" x1="172.49559" x2="1488.5695" xlink:href="#linearGradient5341" y1="3096.7139" y2="1846.9016"/>
<linearGradient gradientTransform="matrix(1.53208,0,0,1.53208,1139.0577,-458.09631)" gradientUnits="userSpaceOnUse" id="linearGradient6948" inkscape:collect="always" x1="422.58987" x2="889.19104" xlink:href="#linearGradient5319" y1="919.09467" y2="89.199226"/>
<linearGradient gradientTransform="matrix(1.00202,0,0,1.00202,93.17027,175.50446)" gradientUnits="userSpaceOnUse" id="linearGradient6869" inkscape:collect="always" x1="964.13104" x2="1747.3324" xlink:href="#linearGradient6469" y1="1384.9419" y2="614.99689"/>
<linearGradient gradientTransform="matrix(1.00767,0,0,1.00767,85.22627,170.0794)" gradientUnits="userSpaceOnUse" id="linearGradient6867" inkscape:collect="always" x1="953.02039" x2="1765.8719" xlink:href="#linearGradient5373" y1="1398.2271" y2="608.85431"/>
<linearGradient gradientTransform="matrix(.96514,.00196,-.00196,.96514,-1960.6822,-1255.6254)" gradientUnits="userSpaceOnUse" id="linearGradient6808" inkscape:collect="always" x1="964.13104" x2="1747.3324" xlink:href="#linearGradient6469" y1="1384.9419" y2="614.99689"/>
<linearGradient gradientTransform="matrix(.97059,.00197,-.00197,.97059,-1968.3233,-1260.8663)" gradientUnits="userSpaceOnUse" id="linearGradient6805" inkscape:collect="always" x1="953.02039" x2="1765.8719" xlink:href="#linearGradient5373" y1="1398.2271" y2="608.85431"/>
<linearGradient gradientTransform="translate(-2217.231,-743.2314)" gradientUnits="userSpaceOnUse" id="linearGradient6675-8" inkscape:collect="always" x1="1658.4646" x2="1763.1934" xlink:href="#linearGradient5469" y1="875.22601" y2="-139.51535"/>
<linearGradient gradientTransform="translate(-1148.0069,-799.9843)" gradientUnits="userSpaceOnUse" id="linearGradient6673-8" inkscape:collect="always" x1="422.58987" x2="889.19104" xlink:href="#linearGradient5461" y1="919.09467" y2="89.199226"/>
<linearGradient gradientTransform="matrix(.96515,0,0,.96515,-1963.2238,-1251.6478)" gradientUnits="userSpaceOnUse" id="linearGradient6631-4" inkscape:collect="always" x1="964.13104" x2="1747.3324" xlink:href="#linearGradient6469" y1="1384.9419" y2="614.99689"/>
<linearGradient gradientTransform="matrix(.97059,0,0,.97059,-1970.8755,-1256.8732)" gradientUnits="userSpaceOnUse" id="linearGradient6629-4" inkscape:collect="always" x1="953.02039" x2="1765.8719" xlink:href="#linearGradient5373" y1="1398.2271" y2="608.85431"/>
<linearGradient gradientTransform="matrix(.97059,0,0,.97059,-1969.0069,-335.20845)" gradientUnits="userSpaceOnUse" id="linearGradient6559-4" inkscape:collect="always" x1="953.02039" x2="1765.8719" xlink:href="#linearGradient5373" y1="1398.2271" y2="608.85431"/>
<linearGradient gradientTransform="matrix(.96515,0,0,.96515,-1961.3552,-329.98301)" gradientUnits="userSpaceOnUse" id="linearGradient6556-2" inkscape:collect="always" x1="964.13104" x2="1747.3324" xlink:href="#linearGradient6469" y1="1384.9419" y2="614.99689"/>
<linearGradient gradientTransform="translate(5.8331,23.3675)" gradientUnits="userSpaceOnUse" id="linearGradient6395-3" inkscape:collect="always" x1="422.58987" x2="889.19104" xlink:href="#linearGradient5469" y1="919.09467" y2="89.199226"/>
<linearGradient gradientTransform="translate(-1062.2827,87.1651)" gradientUnits="userSpaceOnUse" id="linearGradient6261-4" inkscape:collect="always" x1="1658.4646" x2="1763.1934" xlink:href="#linearGradient5469" y1="875.22601" y2="-139.51535"/>
<linearGradient gradientTransform="translate(6.9414,30.4123)" gradientUnits="userSpaceOnUse" id="linearGradient6259-3" inkscape:collect="always" x1="422.58987" x2="889.19104" xlink:href="#linearGradient5461" y1="919.09467" y2="89.199226"/>
<marker id="Arrow1Lstart" inkscape:stockid="Arrow1Lstart" orient="auto" refX="0" refY="0">
<path d="M 0,0 5,-5 -12.5,0 5,5 0,0 z" id="path5480" inkscape:connector-curvature="0" style="stroke:#000;stroke-width:1pt;fill-rule:evenodd" transform="matrix(.8,0,0,.8,10,0)"/>
</marker>
<radialGradient cx="1268.403" cy="1141.4786" fx="1268.403" fy="1141.4786" gradientTransform="matrix(1.31259,.46522,-.31929,.90085,-2018.0928,-1801.7977)" gradientUnits="userSpaceOnUse" id="radialGradient6633-6" inkscape:collect="always" r="396.21722">
<stop id="stop6703" offset="0" style="stop-color:#fff"/>
<stop id="stop6705" offset="0.35140693" style="stop-color:#3fb4da"/>
<stop id="stop6707" offset="1" style="stop-color:#3e78cd"/>
</radialGradient>
<radialGradient cx="1268.403" cy="1141.4786" fx="1268.403" fy="1141.4786" gradientTransform="matrix(1.31259,.46522,-.31929,.90085,-2016.0519,-795.13307)" gradientUnits="userSpaceOnUse" id="radialGradient6596" inkscape:collect="always" r="396.21722" xlink:href="#linearGradient5341"/>
<radialGradient cx="1268.403" cy="1141.4786" fx="1268.403" fy="1141.4786" gradientTransform="matrix(1.36274,.48299,-.33148,.93526,-2199.6772,-1165.409)" gradientUnits="userSpaceOnUse" id="radialGradient6544" inkscape:collect="always" r="396.21722" xlink:href="#linearGradient5341"/>
<radialGradient cx="1243.1949" cy="1177.9652" fx="1243.1949" fy="1177.9652" gradientTransform="matrix(1.62386,.57601,-.42728,1.20457,-527.71412,200.25572)" gradientUnits="userSpaceOnUse" id="radialGradient6966" inkscape:collect="always" r="396.21722" xlink:href="#linearGradient5341"/>
<radialGradient cx="1243.1949" cy="1177.9652" fx="1243.1949" fy="1177.9652" gradientTransform="matrix(1.62386,.57601,-.42728,1.20457,-527.71412,200.25566)" gradientUnits="userSpaceOnUse" id="radialGradient6962" inkscape:collect="always" r="396.21722" xlink:href="#linearGradient5341"/>
<radialGradient cx="1243.1949" cy="1177.9652" fx="1243.1949" fy="1177.9652" gradientTransform="matrix(.88939,.31548,-.23402,.65974,363.19343,200.51024)" gradientUnits="userSpaceOnUse" id="radialGradient6908" inkscape:collect="always" r="396.21722" xlink:href="#linearGradient5341"/>
<radialGradient cx="1243.1949" cy="1177.9652" fx="1243.1949" fy="1177.9652" gradientTransform="matrix(1.36261,.48334,-.35854,1.01077,63.11523,-482.63533)" gradientUnits="userSpaceOnUse" id="radialGradient6890" inkscape:collect="always" r="396.21722" xlink:href="#linearGradient5341"/>
<radialGradient cx="1243.1949" cy="1177.9652" fx="1243.1949" fy="1177.9652" gradientTransform="matrix(1.36261,.48334,-.35854,1.01077,68.22997,-485.0518)" gradientUnits="userSpaceOnUse" id="radialGradient6871" inkscape:collect="always" r="396.21722" xlink:href="#linearGradient5341"/>
<radialGradient cx="1268.403" cy="1141.4786" fx="1268.403" fy="1141.4786" gradientTransform="matrix(1.31259,.46522,-.31929,.90085,-2016.2242,-880.13289)" gradientUnits="userSpaceOnUse" id="radialGradient6777-6" inkscape:collect="always" r="396.21722" xlink:href="#linearGradient5341"/>
</defs>
<sodipodi:namedview id="base" inkscape:current-layer="layer1" inkscape:cx="16" inkscape:cy="16" inkscape:document-units="px" inkscape:guide-bbox="true" inkscape:pageopacity="0" inkscape:pageshadow="2" inkscape:snap-bbox="false" inkscape:snap-global="true" inkscape:window-height="848" inkscape:window-maximized="1" inkscape:window-width="1440" inkscape:window-x="-8" inkscape:window-y="-8" inkscape:zoom="19.96875">
<sodipodi:guide id="guide3219" orientation="1,0"/>
<sodipodi:guide id="guide3221" orientation="1,0"/>
<sodipodi:guide id="guide3223" orientation="0,1"/>
<sodipodi:guide id="guide3224" orientation="0,1"/>
<sodipodi:guide id="guide3226" orientation="1,0"/>
<sodipodi:guide id="guide3228" orientation="1,0"/>
<sodipodi:guide id="guide3230" orientation="0,1"/>
</sodipodi:namedview>
<g id="layer1" inkscape:groupmode="layer" inkscape:label="Layer 1" transform="translate(0,-1020.3622)">
<path d="m 21.239364,1022.0437 c -0.148983,0 -0.299693,0.038 -0.444354,0.1042 l -19.2711134,8.7506 c -0.57864189,0.2628 -0.83314125,0.9411 -0.57036438,1.5197 l 8.75158678,19.2701 c 0.2627776,0.5786 0.940119,0.8331 1.518761,0.5704 l 19.271114,-8.7516 c 0.57864,-0.2628 0.833144,-0.9401 0.570364,-1.5187 l -8.751587,-19.2711 c -0.197084,-0.4339 -0.627459,-0.6858 -1.074407,-0.6736 z m -1.045984,3.0318 c 0.357558,-0.01 0.70167,0.1919 0.859336,0.5391 l 7.001649,15.4168 c 0.210222,0.463 0.0062,1.0044 -0.45667,1.2147 l -15.416892,7.0016 c -0.462913,0.2102 -1.004408,0.01 -1.214629,-0.4567 l -7.0016489,-15.4168 c -0.2102218,-0.4629 -0.00624,-1.0044 0.4566704,-1.2146 l 15.4168915,-7.0016 c 0.115728,-0.053 0.236107,-0.079 0.355293,-0.082 z" id="path4571" inkscape:connector-curvature="0" inkscape:export-filename="C:\Users\Madnester\Desktop\Sketches\256.png" inkscape:export-xdpi="23.039482" inkscape:export-ydpi="23.039482" style="opacity:0.3;fill:#fff"/>
<path d="m 21.239364,1020.3626 c -0.148983,0 -0.299693,0.038 -0.444354,0.1042 l -19.2711134,8.7506 c -0.57864189,0.2628 -0.83314125,0.9411 -0.57036438,1.5197 l 8.75158678,19.2701 c 0.2627776,0.5786 0.940119,0.8331 1.518761,0.5703 l 19.271114,-8.7515 c 0.57864,-0.2628 0.833144,-0.9401 0.570364,-1.5187 l -8.751587,-19.2711 c -0.197084,-0.4339 -0.627459,-0.6858 -1.074407,-0.6736 z m -1.045984,3.0318 c 0.357558,-0.01 0.70167,0.1919 0.859336,0.5391 l 7.001649,15.4168 c 0.210222,0.4629 0.0062,1.0044 -0.45667,1.2147 l -15.416892,7.0016 c -0.462913,0.2102 -1.004408,0.01 -1.214629,-0.4567 l -7.0016489,-15.4168 c -0.2102218,-0.4629 -0.00624,-1.0044 0.4566704,-1.2146 l 15.4168915,-7.0016 c 0.115728,-0.053 0.236107,-0.079 0.355293,-0.082 z" id="path4021-6" inkscape:connector-curvature="0" inkscape:export-filename="C:\Users\Madnester\Desktop\Sketches\256.png" inkscape:export-xdpi="23.039482" inkscape:export-ydpi="23.039482" style="fill:#3c3c3c"/>
<g id="g4573" style="opacity:0.4" transform="matrix(.032,0,0,.032,.04999,1018.6866)">
<path d="m 339.84686,281.4063 c 0,0 62.81646,71.70877 -11.70438,228.36142 -26.75299,56.23825 -66.8825,98.843 -60.19419,177.23572 11.04295,129.43299 117.0442,197.68604 227.40026,197.68604 110.35596,0 227.40025,-88.61791 234.08847,-187.4609 6.68821,-98.84298 -53.50599,-132.92681 -70.22662,-170.41895 -16.72055,-37.49218 5.01623,-122.70168 35.11336,-170.41896 -46.81776,32.37958 -51.83391,32.37958 -81.93102,103.95556 -30.0971,71.57595 13.60729,162.67486 -26.753,184.05248 -51.25705,27.14931 -92.83658,-33.68765 -76.91474,-93.73044 16.72055,-63.05502 68.01427,-128.25129 73.57064,-207.91112 4.62652,-66.3276 -91.96336,-180.64412 -105.3398,-250.515894 -26.75298,57.942444 33.8777,177.024864 13.37652,243.699124 -44.11412,143.46864 -93.29524,158.92552 -91.96333,66.4634 0.76331,-52.99492 -58.52217,-120.99748 -58.52217,-120.99748 z" id="path4569" inkscape:connector-curvature="0" inkscape:export-filename="C:\Users\Madnester\Desktop\Sketches\256.png" inkscape:export-xdpi="23.039482" inkscape:export-ydpi="23.039482" sodipodi:nodetypes="cssssscsssscssc" style="opacity:0.3;fill:#fff"/>
<path d="m 339.84686,243.4063 c 0,0 62.81646,71.70877 -11.70438,228.36142 -26.75299,56.23825 -66.8825,98.843 -60.19419,177.23572 11.04295,129.43299 117.0442,197.68604 227.40026,197.68604 110.35596,0 227.40025,-88.61791 234.08847,-187.4609 6.68821,-98.84298 -53.50599,-132.92681 -70.22662,-170.41895 -16.72055,-37.49218 5.01623,-122.70168 35.11336,-170.41896 -46.81776,32.37958 -51.83391,32.37958 -81.93102,103.95556 -30.0971,71.57595 13.60729,162.67486 -26.753,184.05248 -51.25705,27.14931 -92.83658,-33.68765 -76.91474,-93.73044 16.72055,-63.05502 68.01427,-128.25129 73.57064,-207.91112 4.62652,-66.3276 -91.96336,-180.64412 -105.3398,-250.515894 -26.75298,57.942444 33.8777,177.024864 13.37652,243.699124 -44.11412,143.46864 -93.29524,158.92552 -91.96333,66.4634 0.76331,-52.99492 -58.52217,-120.99748 -58.52217,-120.99748 z" id="path4019" inkscape:connector-curvature="0" inkscape:export-filename="C:\Users\Madnester\Desktop\Sketches\256.png" inkscape:export-xdpi="23.039482" inkscape:export-ydpi="23.039482" sodipodi:nodetypes="cssssscsssscssc" style="fill:#3c3c3c"/>
</g>
</g>
</svg>
