<?xml version="1.0" encoding="UTF-8" standalone="no"?>
<!-- Created with Inkscape (http://www.inkscape.org/) -->

<svg
   xmlns:dc="http://purl.org/dc/elements/1.1/"
   xmlns:cc="http://creativecommons.org/ns#"
   xmlns:rdf="http://www.w3.org/1999/02/22-rdf-syntax-ns#"
   xmlns:svg="http://www.w3.org/2000/svg"
   xmlns="http://www.w3.org/2000/svg"
   xmlns:xlink="http://www.w3.org/1999/xlink"
   xmlns:sodipodi="http://sodipodi.sourceforge.net/DTD/sodipodi-0.dtd"
   xmlns:inkscape="http://www.inkscape.org/namespaces/inkscape"
   width="256"
   height="256"
   id="svg2"
   version="1.1"
   inkscape:version="0.48.1 "
   sodipodi:docname="Jabber.svg">
  <defs
     id="defs4">
    <radialGradient
       inkscape:collect="always"
       xlink:href="#linearGradient3891-1"
       id="radialGradient4426"
       gradientUnits="userSpaceOnUse"
       gradientTransform="matrix(0.5072788,-0.49666068,0.13818279,0.13767126,-381.7338,659.02628)"
       cx="-108.37761"
       cy="900.44226"
       fx="-108.37761"
       fy="900.44226"
       r="210.18597" />
    <linearGradient
       id="linearGradient3891-1">
      <stop
         style="stop-color:#000000;stop-opacity:1;"
         offset="0"
         id="stop3893-2" />
      <stop
         style="stop-color:#ffffff;stop-opacity:0.45045045;"
         offset="1"
         id="stop3895-2" />
    </linearGradient>
    <radialGradient
       inkscape:collect="always"
       xlink:href="#linearGradient3891-1"
       id="radialGradient4423"
       gradientUnits="userSpaceOnUse"
       gradientTransform="matrix(0.5072788,-0.49666068,0.13818279,0.13767126,-360.58177,680.10003)"
       cx="-106.37761"
       cy="958.44226"
       fx="-106.37761"
       fy="958.44226"
       r="210.18597" />
    <linearGradient
       id="linearGradient3289">
      <stop
         style="stop-color:#000000;stop-opacity:1;"
         offset="0"
         id="stop3291" />
      <stop
         style="stop-color:#ffffff;stop-opacity:0.45045045;"
         offset="1"
         id="stop3293" />
    </linearGradient>
    <radialGradient
       inkscape:collect="always"
       xlink:href="#linearGradient3891-1"
       id="radialGradient4420"
       gradientUnits="userSpaceOnUse"
       gradientTransform="matrix(0.5072788,-0.49666068,0.14054246,0.14002222,-343.40191,697.21627)"
       cx="-107.4114"
       cy="1012.0989"
       fx="-107.4114"
       fy="1012.0989"
       r="203.1889" />
    <linearGradient
       id="linearGradient3296">
      <stop
         style="stop-color:#000000;stop-opacity:1;"
         offset="0"
         id="stop3298" />
      <stop
         style="stop-color:#ffffff;stop-opacity:0.45045045;"
         offset="1"
         id="stop3300" />
    </linearGradient>
    <radialGradient
       inkscape:collect="always"
       xlink:href="#linearGradient3891-1"
       id="radialGradient4417"
       gradientUnits="userSpaceOnUse"
       gradientTransform="matrix(0.5072788,-0.49666068,0.14479343,0.14425744,-328.50213,712.0609)"
       cx="-106.18565"
       cy="1065.7242"
       fx="-106.18565"
       fy="1065.7242"
       r="199.39359" />
    <linearGradient
       id="linearGradient3303">
      <stop
         style="stop-color:#000000;stop-opacity:1;"
         offset="0"
         id="stop3305" />
      <stop
         style="stop-color:#ffffff;stop-opacity:0.45045045;"
         offset="1"
         id="stop3307" />
    </linearGradient>
    <radialGradient
       inkscape:collect="always"
       xlink:href="#linearGradient3891-1"
       id="radialGradient4414"
       gradientUnits="userSpaceOnUse"
       gradientTransform="matrix(0.5072788,-0.49666068,0.15467218,0.15409965,-319.27617,721.25272)"
       cx="-102.55919"
       cy="1122.4559"
       fx="-102.55919"
       fy="1122.4559"
       r="185.19403" />
    <linearGradient
       id="linearGradient3310">
      <stop
         style="stop-color:#000000;stop-opacity:1;"
         offset="0"
         id="stop3312" />
      <stop
         style="stop-color:#ffffff;stop-opacity:0.45045045;"
         offset="1"
         id="stop3314" />
    </linearGradient>
    <linearGradient
       inkscape:collect="always"
       xlink:href="#linearGradient3916-0"
       id="linearGradient4411"
       gradientUnits="userSpaceOnUse"
       gradientTransform="matrix(0.5072788,-0.49666068,0.50287328,0.50101178,-710.11654,331.85913)"
       x1="-302.87885"
       y1="998.82416"
       x2="87.748688"
       y2="998.82416" />
    <linearGradient
       id="linearGradient3916-0">
      <stop
         style="stop-color:#636363;stop-opacity:1;"
         offset="0"
         id="stop3918-6" />
      <stop
         id="stop3924-0"
         offset="0.5"
         style="stop-color:#ffffff;stop-opacity:0;" />
      <stop
         style="stop-color:#474747;stop-opacity:1;"
         offset="1"
         id="stop3920-3" />
    </linearGradient>
    <radialGradient
       inkscape:collect="always"
       xlink:href="#linearGradient3985-7"
       id="radialGradient4405"
       gradientUnits="userSpaceOnUse"
       gradientTransform="matrix(0.580215,-0.56929701,0.35012146,0.34807372,-513.77845,512.84877)"
       cx="-107.06783"
       cy="1233.5167"
       fx="-107.06783"
       fy="1233.5167"
       r="69.676918" />
    <linearGradient
       id="linearGradient3985-7">
      <stop
         style="stop-color:#ffffff;stop-opacity:1;"
         offset="0"
         id="stop3987-6" />
      <stop
         style="stop-color:#363411;stop-opacity:0;"
         offset="1"
         id="stop3989-0" />
    </linearGradient>
    <radialGradient
       inkscape:collect="always"
       xlink:href="#linearGradient3997-9"
       id="radialGradient4402"
       gradientUnits="userSpaceOnUse"
       gradientTransform="matrix(1.0307314,0.70140738,-0.56919901,0.81590912,-294.18744,510.67726)"
       cx="-260.30264"
       cy="289.108"
       fx="-260.30264"
       fy="289.108"
       r="398" />
    <linearGradient
       id="linearGradient3997-9">
      <stop
         style="stop-color:#ffffff;stop-opacity:1;"
         offset="0"
         id="stop3999-5" />
      <stop
         id="stop4005-4"
         offset="0.44365835"
         style="stop-color:#ffffff;stop-opacity:0;" />
      <stop
         style="stop-color:#d3ca32;stop-opacity:0.81981981;"
         offset="1"
         id="stop4001-9" />
    </linearGradient>
    <radialGradient
       r="398"
       fy="289.108"
       fx="-260.30264"
       cy="289.108"
       cx="-260.30264"
       gradientTransform="matrix(1.0307314,0.70140738,-0.56919901,0.81590912,-294.18744,510.67726)"
       gradientUnits="userSpaceOnUse"
       id="radialGradient3348"
       xlink:href="#linearGradient3997-9"
       inkscape:collect="always" />
    <radialGradient
       inkscape:collect="always"
       xlink:href="#linearGradient4726"
       id="radialGradient4066"
       gradientUnits="userSpaceOnUse"
       gradientTransform="matrix(1.5733257,-0.09782065,0.10835636,1.7220173,-311.54758,1813.3754)"
       cx="360.4267"
       cy="365.36887"
       fx="360.4267"
       fy="365.36887"
       r="277.86301" />
    <linearGradient
       id="linearGradient4726">
      <stop
         style="stop-color:#ffffff;stop-opacity:0;"
         offset="0"
         id="stop4728" />
      <stop
         id="stop4734"
         offset="0.5"
         style="stop-color:#ffffff;stop-opacity:0.73873872;" />
      <stop
         style="stop-color:#000000;stop-opacity:1;"
         offset="1"
         id="stop4730" />
    </linearGradient>
    <radialGradient
       inkscape:collect="always"
       xlink:href="#linearGradient4003"
       id="radialGradient4010"
       cx="411.42856"
       cy="432.36218"
       fx="411.42856"
       fy="432.36218"
       r="154.28572"
       gradientUnits="userSpaceOnUse" />
    <linearGradient
       id="linearGradient4003">
      <stop
         style="stop-color:#0d300c;stop-opacity:1;"
         offset="0"
         id="stop4006" />
      <stop
         style="stop-color:#3ba246;stop-opacity:0;"
         offset="1"
         id="stop4008" />
    </linearGradient>
    <radialGradient
       inkscape:collect="always"
       xlink:href="#linearGradient4754"
       id="radialGradient4061"
       gradientUnits="userSpaceOnUse"
       gradientTransform="matrix(1.2695134,0,0,1.3244416,-162.45546,1924.6391)"
       cx="358.74881"
       cy="363.72919"
       fx="358.74881"
       fy="363.72919"
       r="287.14215" />
    <linearGradient
       id="linearGradient4754">
      <stop
         style="stop-color:#9ef58c;stop-opacity:0;"
         offset="0"
         id="stop4756" />
      <stop
         id="stop4762"
         offset="0.7684527"
         style="stop-color:#c5ffba;stop-opacity:1;" />
      <stop
         style="stop-color:#9ef58c;stop-opacity:0;"
         offset="1"
         id="stop4758" />
    </linearGradient>
    <filter
       inkscape:collect="always"
       id="filter4480"
       x="-1.0018349"
       width="3.0036697"
       y="-1.0018349"
       height="3.0036697"
       color-interpolation-filters="sRGB">
      <feGaussianBlur
         inkscape:collect="always"
         stdDeviation="128.80734"
         id="feGaussianBlur4482" />
    </filter>
    <radialGradient
       inkscape:collect="always"
       xlink:href="#linearGradient4813"
       id="radialGradient4012"
       gradientUnits="userSpaceOnUse"
       gradientTransform="matrix(2.0895106,-0.46453523,0.36061815,1.6220847,-545.78583,-73.906141)"
       cx="377.25143"
       cy="399.78336"
       fx="377.25143"
       fy="399.78336"
       r="154.28572" />
    <linearGradient
       id="linearGradient4813">
      <stop
         style="stop-color:#ffffff;stop-opacity:0.60747664"
         offset="0"
         id="stop4815" />
      <stop
         style="stop-color:#a5c20f;stop-opacity:0;"
         offset="1"
         id="stop4817" />
    </linearGradient>
    <radialGradient
       r="154.28572"
       fy="399.78336"
       fx="377.25143"
       cy="399.78336"
       cx="377.25143"
       gradientTransform="matrix(2.0895106,-0.46453523,0.36061815,1.6220847,-545.78583,-73.906141)"
       gradientUnits="userSpaceOnUse"
       id="radialGradient3394"
       xlink:href="#linearGradient4813"
       inkscape:collect="always" />
  </defs>
  <sodipodi:namedview
     id="base"
     pagecolor="#ffffff"
     bordercolor="#666666"
     borderopacity="1.0"
     inkscape:pageopacity="0.0"
     inkscape:pageshadow="2"
     inkscape:zoom="0.98994949"
     inkscape:cx="195"
     inkscape:cy="140"
     inkscape:document-units="px"
     inkscape:current-layer="layer1"
     showgrid="false"
     inkscape:window-width="808"
     inkscape:window-height="582"
     inkscape:window-x="17"
     inkscape:window-y="221"
     inkscape:window-maximized="0" />
  <metadata
     id="metadata7">
    <rdf:RDF>
      <cc:Work
         rdf:about="">
        <dc:format>image/svg+xml</dc:format>
        <dc:type
           rdf:resource="http://purl.org/dc/dcmitype/StillImage" />
        <dc:title></dc:title>
      </cc:Work>
    </rdf:RDF>
  </metadata>
  <g
     inkscape:label="Layer 1"
     inkscape:groupmode="layer"
     id="layer1"
     transform="translate(0,-796.36215)">
    <g
       style="display:inline"
       id="g4318"
       transform="matrix(0.32,0,0,0.32,34.051696,152.01837)"
       inkscape:export-filename="C:\Users\Madnester\Desktop\j32.png"
       inkscape:export-xdpi="10.591404"
       inkscape:export-ydpi="10.591404">
      <path
         id="path4979"
         d="m 379.50775,2026.0896 c -35.0718,0.9523 -74.728,47.5563 -98.784,114.6779 -29.37351,-56.6408 -68.9277,-94.0454 -101.48173,-94.8024 -0.61853,-0.014 -1.25059,-0.013 -1.86461,0 -4.29812,0.092 -8.46455,0.8535 -12.45709,2.2871 -33.56817,12.0551 -44.83492,69.5363 -30.90473,138.4573 -39.568747,-24.5626 -78.58925,-37.7268 -107.987977,-37.1481 -17.5972893,0.3465 -31.7539986,5.6012 -40.505415,16.2869 -25.687536,31.3644 4.052161,98.5271 66.808141,156.0849 -79.839379,-0.048 -142.409734,26.3836 -146.07338,64.7919 -3.900642,40.893 60.356256,80.909 146.708142,93.5012 -71.353131,53.5555 -114.189813,121.5954 -97.236794,157.9776 18.35865,39.399 99.853255,26.7336 182.016483,-28.3144 0.23837,-0.1598 0.47624,-0.313 0.7141,-0.4732 -29.97838,84.4775 -27.72799,165.5832 6.90298,186.6077 37.27826,22.6315 97.94375,-32.9291 135.52057,-124.0634 2.01669,-4.8911 3.91111,-9.7837 5.7128,-14.67 26.98234,76.8974 72.76059,132.3283 110.408,129.2688 39.22244,-3.1875 56.19409,-68.7627 41.89394,-151.6681 63.04449,44.9566 127.91671,63.2999 156.34851,40.8944 34.22935,-26.9742 2.71373,-102.7593 -70.37865,-169.2562 -12.72483,-11.5764 -25.86104,-22.1111 -39.0772,-31.4693 9.65762,-0.2089 19.5466,-0.7676 29.59552,-1.7745 95.85233,-9.6049 169.96181,-52.9832 165.51282,-96.8531 -3.51015,-34.6119 -54.86736,-59.1732 -123.4602,-63.2934 47.55411,-52.3339 67.49743,-107.6653 44.75035,-135.1054 -9.25581,-11.1655 -24.44951,-16.3524 -43.28246,-16.0896 -36.52765,0.5094 -86.82792,21.4253 -134.48908,58.4037 0.50381,-1.9017 1.02954,-3.7938 1.50755,-5.7182 23.09296,-92.9705 6.88276,-176.906 -36.18113,-187.4753 -3.36436,-0.8257 -6.7617,-1.159 -10.23546,-1.0648 z m -78.70984,335.9887 c 1.7384,0.7129 3.51869,1.3237 5.35577,1.7745 5.71207,1.4019 11.62704,1.4383 17.6145,0.2367 -1.08814,13.7224 1.78523,25.5648 9.1643,34.4662 0.44074,0.5318 0.88152,1.0335 1.34886,1.5381 -0.71632,3.6889 -0.89268,7.404 -0.51573,11.1207 0.64949,6.4047 2.93261,12.4869 6.66494,18.1402 -3.65102,1.4626 -6.95445,3.3351 -9.87843,5.6394 -2.39479,1.8871 -4.46872,4.0043 -6.22852,6.3489 -3.67911,-0.9007 -7.30477,-1.3518 -10.87022,-1.2619 -0.68543,0.017 -1.34304,0.063 -2.02328,0.1184 -13.74005,1.1165 -24.75921,9.8792 -32.6503,24.3709 -5.10555,-2.5292 -10.60593,-3.7285 -16.38466,-3.6282 -1.84692,0.032 -3.73189,0.2256 -5.63347,0.5129 0.66123,-8.3869 -0.42321,-16.0125 -3.49115,-22.5965 -1.00442,-2.1556 -2.19828,-4.1488 -3.57051,-5.994 2.10118,-4.278 3.40411,-8.7523 3.84821,-13.4081 0.8545,-8.9584 -1.5809,-17.8655 -6.78397,-26.4611 3.56306,-2.2493 6.68642,-4.9834 9.32301,-8.2025 2.24001,-2.735 4.02321,-5.7419 5.43509,-8.9913 7.67902,1.4405 15.06478,1.0489 21.93877,-1.4196 6.66728,-2.3943 12.45144,-6.5915 17.33679,-12.3037 z"
         style="fill:#a7a7a7;fill-opacity:1;fill-rule:nonzero;stroke:#a7a7a7;stroke-width:24.99997902;stroke-miterlimit:4;stroke-opacity:1;stroke-dasharray:none"
         inkscape:connector-curvature="0" />
      <path
         sodipodi:type="arc"
         style="fill:#69e151;fill-opacity:1;fill-rule:nonzero;stroke:none"
         id="path4460"
         sodipodi:cx="1000"
         sodipodi:cy="723.79077"
         sodipodi:rx="182.85715"
         sodipodi:ry="397.14285"
         d="m 1182.8571,723.79077 c 0,219.33594 -81.8679,397.14283 -182.8571,397.14283 -100.98921,0 -182.85715,-177.80689 -182.85715,-397.14283 0,-219.33594 81.86794,-397.14285 182.85715,-397.14285 100.9892,0 182.8571,177.80691 182.8571,397.14285 z"
         transform="matrix(0.41309439,-0.14834917,0.14924082,0.41062635,-296.90805,2062.4561)" />
      <path
         transform="matrix(0.04146015,-0.43465276,0.4372652,0.04121244,-278.04238,2807.9158)"
         d="m 1182.8571,723.79077 c 0,219.33594 -81.8679,397.14283 -182.8571,397.14283 -100.98921,0 -182.85715,-177.80689 -182.85715,-397.14283 0,-219.33594 81.86794,-397.14285 182.85715,-397.14285 100.9892,0 182.8571,177.80691 182.8571,397.14285 z"
         sodipodi:ry="397.14285"
         sodipodi:rx="182.85715"
         sodipodi:cy="723.79077"
         sodipodi:cx="1000"
         id="path4462"
         style="fill:#6be651;fill-opacity:1;fill-rule:nonzero;stroke:none"
         sodipodi:type="arc" />
      <path
         sodipodi:type="arc"
         style="fill:#76e65f;fill-opacity:1;fill-rule:nonzero;stroke:none"
         id="path4464"
         sodipodi:cx="1000"
         sodipodi:cy="723.79077"
         sodipodi:rx="182.85715"
         sodipodi:ry="397.14285"
         d="m 1182.8571,723.79077 c 0,219.33594 -81.8679,397.14283 -182.8571,397.14283 -100.98921,0 -182.85715,-177.80689 -182.85715,-397.14283 0,-219.33594 81.86794,-397.14285 182.85715,-397.14285 100.9892,0 182.8571,177.80691 182.8571,397.14285 z"
         transform="matrix(-0.36913115,-0.22409861,0.17132088,-0.41550122,458.51341,3155.8263)" />
      <path
         transform="matrix(-0.33894067,0.26710023,-0.33324404,-0.30317301,1043.0218,2507.7175)"
         d="m 1182.8571,723.79077 c 0,219.33594 -81.8679,397.14283 -182.8571,397.14283 -100.98921,0 -182.85715,-177.80689 -182.85715,-397.14283 0,-219.33594 81.86794,-397.14285 182.85715,-397.14285 100.9892,0 182.8571,177.80691 182.8571,397.14285 z"
         sodipodi:ry="397.14285"
         sodipodi:rx="182.85715"
         sodipodi:cy="723.79077"
         sodipodi:cx="1000"
         id="path4466"
         style="fill:#62e646;fill-opacity:1;fill-rule:nonzero;stroke:none"
         sodipodi:type="arc" />
      <path
         transform="matrix(0.27931866,0.33694516,-0.33897034,0.27764987,433.5792,1750.3813)"
         d="m 1182.8571,723.79077 c 0,219.33594 -81.8679,397.14283 -182.8571,397.14283 -100.98921,0 -182.85715,-177.80689 -182.85715,-397.14283 0,-219.33594 81.86794,-397.14285 182.85715,-397.14285 100.9892,0 182.8571,177.80691 182.8571,397.14285 z"
         sodipodi:ry="397.14285"
         sodipodi:rx="182.85715"
         sodipodi:cy="723.79077"
         sodipodi:cx="1000"
         id="path4468"
         style="fill:#e71010;fill-opacity:1;fill-rule:nonzero;stroke:none"
         sodipodi:type="arc" />
      <path
         id="path4766"
         d="m 177.37741,2045.9651 c -4.29812,0.092 -8.46455,0.8535 -12.45709,2.2871 -41.71809,14.9817 -48.99951,100.1312 -16.26566,190.1965 32.73388,90.0651 93.08839,150.9149 134.80646,135.9333 41.71808,-14.9816 48.99951,-100.1312 16.26565,-190.1964 -29.15362,-80.2142 -80.19147,-137.2836 -120.48475,-138.2205 -0.61853,-0.014 -1.25059,-0.013 -1.86461,0 z m 381.52846,115.9791 c -38.56273,0.5378 -92.47073,23.7969 -142.42354,64.7133 -74.34839,60.8984 -111.75801,137.8704 -83.54985,171.8982 28.20816,34.0279 111.35762,12.2355 185.70602,-48.6631 74.34837,-60.8984 111.758,-137.8311 83.54983,-171.8588 -9.25581,-11.1655 -24.44951,-16.3524 -43.28246,-16.0896 z m -506.575531,159.989 c -79.839379,-0.048 -142.409734,26.3836 -146.07338,64.7919 -4.18703,43.8954 70.16024,86.7885 166.06822,95.828 95.907971,9.0392 177.036011,-19.2014 181.223041,-63.0966 4.18702,-43.8953 -70.16025,-86.7884 -166.068222,-95.8277 -11.988497,-1.13 -23.744024,-1.689 -35.149659,-1.6956 z m 310.118331,103.478 c -12.96175,0.1548 -23.87404,3.2608 -31.89655,9.5829 -34.22935,26.9742 -2.75339,102.7199 70.339,169.2166 73.09239,66.4967 160.12522,98.5494 194.35457,71.575 34.22935,-26.9742 2.71373,-102.7593 -70.37865,-169.2562 -55.96136,-50.9115 -120.07673,-81.6239 -162.41837,-81.1183 z m -100.05353,35.5312 c -36.66639,0.6375 -84.81207,52.177 -116.51753,129.0718 -37.57682,91.1342 -37.79399,183.3782 -0.51574,206.0098 37.27826,22.6315 97.94375,-32.9291 135.52057,-124.0634 37.57681,-91.1344 37.83366,-183.339 0.55539,-205.9705 -5.82473,-3.5361 -12.25263,-5.1658 -19.04269,-5.0477 z"
         style="opacity:0.36000001;fill:url(#radialGradient4066);fill-opacity:1;fill-rule:nonzero;stroke:none"
         inkscape:connector-curvature="0" />
      <path
         id="path4450"
         d="m 379.48481,2026.0868 c -40.99032,1.1128 -88.2157,64.552 -109.50455,150.2593 -23.09296,92.9705 -6.90161,176.9176 36.16228,187.487 43.06391,10.5692 96.69034,-56.2435 119.78333,-149.2141 23.09297,-92.9705 6.90163,-176.8838 -36.16228,-187.4531 -3.36438,-0.8258 -6.80502,-1.1735 -10.27878,-1.0791 z M 28.683556,2149.5382 c -18.8341936,-0.1517 -33.9614998,5.1011 -43.150488,16.3209 -28.004537,34.1935 9.8602604,110.943 84.570885,171.402 74.710637,60.459 157.963217,81.7397 185.967747,47.5461 28.00454,-34.1936 -9.86027,-110.9431 -84.57088,-171.4021 -50.1962,-40.6209 -104.252008,-63.5566 -142.817264,-63.8669 z m 505.729164,162.972 c -11.4054,0.075 -23.16305,0.6877 -35.14459,1.8882 -95.85232,9.6051 -169.96098,52.976 -165.51197,96.8458 4.44899,43.8698 85.77323,71.6174 181.62554,62.0124 95.85234,-9.6049 169.96099,-52.9424 165.51199,-96.8122 -3.89288,-38.386 -66.6433,-64.4524 -146.48097,-63.9342 z M 206.57756,2415.965 c -35.43469,-0.1164 -85.25199,17.6769 -135.320212,51.2219 -82.163229,55.048 -133.901547,131.6322 -115.542896,171.0311 18.358651,39.399 99.869411,26.7227 182.032638,-28.3253 82.16323,-55.0481 133.86762,-131.6323 115.50898,-171.0311 -7.17136,-15.3903 -23.96397,-22.8219 -46.67851,-22.8966 z M 313.47,2440.109 c -0.68542,0.017 -1.35516,0.047 -2.03542,0.1009 -43.53574,3.5382 -59.66387,83.9479 -36.02657,179.5964 23.63731,95.6481 78.07942,170.3204 121.61517,166.7822 43.53577,-3.5378 59.6639,-83.9478 36.02658,-179.5961 C 409.7818,2512.8385 356.65136,2439.0182 313.47,2440.1087 z"
         style="fill:#65ff46;fill-opacity:1;fill-rule:nonzero;stroke:none"
         inkscape:connector-curvature="0" />
      <path
         transform="matrix(1.5770698,0,0,1.5676475,-357.95171,1729.1289)"
         d="m 565.71428,432.36218 c 0,85.20965 -69.07607,154.28572 -154.28572,154.28572 -85.20965,0 -154.28572,-69.07607 -154.28572,-154.28572 0,-85.20965 69.07607,-154.28572 154.28572,-154.28572 85.20965,0 154.28572,69.07607 154.28572,154.28572 z"
         sodipodi:ry="154.28572"
         sodipodi:rx="154.28572"
         sodipodi:cy="432.36218"
         sodipodi:cx="411.42856"
         id="path3997"
         style="fill:url(#radialGradient4010);fill-opacity:1;fill-rule:nonzero;stroke:none"
         sodipodi:type="arc" />
      <path
         id="path4738"
         d="m 379.50775,2026.0896 c -40.99032,1.1128 -88.24635,64.5806 -109.53519,150.2878 -23.09299,92.9706 -6.88276,176.9062 36.18112,187.4754 43.0639,10.5693 96.67769,-56.2525 119.77066,-149.2231 23.09296,-92.9705 6.88276,-176.906 -36.18113,-187.4753 -3.36436,-0.8257 -6.7617,-1.159 -10.23546,-1.0648 z M 26.027613,2149.5614 c -17.5972893,0.3465 -31.7539986,5.6012 -40.505415,16.2869 -28.004535,34.1936 9.8707084,110.9267 84.581333,171.3857 74.710639,60.4589 157.979179,81.7525 185.983729,47.559 28.00451,-34.1936 -9.87073,-110.9268 -84.58135,-171.3859 -51.36354,-41.5654 -106.764275,-64.6078 -145.478297,-63.8457 z m 508.400457,162.9467 c -11.40539,0.075 -23.16812,0.6922 -35.14966,1.8928 -95.85232,9.605 -169.9618,52.9438 -165.5128,96.8136 4.44897,43.8698 85.76742,71.6762 181.61975,62.0712 95.85233,-9.6049 169.96181,-52.9832 165.51282,-96.8531 -3.89288,-38.3861 -66.63243,-64.4426 -146.47011,-63.9245 z m -327.85184,103.4386 c -35.4347,-0.1164 -85.25399,17.7209 -135.322203,51.266 -82.163225,55.048 -133.884372,131.5924 -115.52572,170.9912 18.35865,39.399 99.853255,26.7336 182.016483,-28.3144 82.16323,-55.0482 133.88437,-131.6319 115.52573,-171.0308 -7.17135,-15.3903 -23.97976,-22.8373 -46.69429,-22.912 z m 106.87715,24.1344 c -0.68543,0.017 -1.34304,0.063 -2.02328,0.1184 -43.53575,3.5379 -59.65975,83.9398 -36.02244,179.5882 23.6373,95.6482 78.05982,170.3096 121.59558,166.7716 43.53576,-3.5379 59.69943,-83.9399 36.06213,-179.5882 -23.268,-94.1538 -76.43061,-167.9806 -119.61199,-166.89 z"
         style="fill:url(#radialGradient4061);fill-opacity:1;fill-rule:nonzero;stroke:none"
         inkscape:connector-curvature="0" />
      <path
         sodipodi:type="arc"
         style="fill:#000000;fill-opacity:1;fill-rule:nonzero;stroke:none;filter:url(#filter4480)"
         id="path4470"
         sodipodi:cx="411.42856"
         sodipodi:cy="432.36218"
         sodipodi:rx="154.28572"
         sodipodi:ry="154.28572"
         d="m 565.71428,432.36218 c 0,85.20965 -69.07607,154.28572 -154.28572,154.28572 -85.20965,0 -154.28572,-69.07607 -154.28572,-154.28572 0,-85.20965 69.07607,-154.28572 154.28572,-154.28572 85.20965,0 154.28572,69.07607 154.28572,154.28572 z"
         transform="matrix(0.43922638,0,0,0.43660222,112.02142,2217.5431)" />
      <path
         transform="matrix(0.43922638,0,0,0.43660222,112.02142,2217.5431)"
         d="m 565.71428,432.36218 c 0,85.20965 -69.07607,154.28572 -154.28572,154.28572 -85.20965,0 -154.28572,-69.07607 -154.28572,-154.28572 0,-85.20965 69.07607,-154.28572 154.28572,-154.28572 85.20965,0 154.28572,69.07607 154.28572,154.28572 z"
         sodipodi:ry="154.28572"
         sodipodi:rx="154.28572"
         sodipodi:cy="432.36218"
         sodipodi:cx="411.42856"
         id="path4448"
         style="fill:#a5c20f;fill-opacity:1;fill-rule:nonzero;stroke:none"
         sodipodi:type="arc" />
      <path
         sodipodi:type="arc"
         style="fill:url(#radialGradient3394);fill-opacity:1;fill-rule:nonzero;stroke:none"
         id="path4811"
         sodipodi:cx="411.42856"
         sodipodi:cy="432.36218"
         sodipodi:rx="154.28572"
         sodipodi:ry="154.28572"
         d="m 565.71428,432.36218 c 0,85.20965 -69.07607,154.28572 -154.28572,154.28572 -85.20965,0 -154.28572,-69.07607 -154.28572,-154.28572 0,-85.20965 69.07607,-154.28572 154.28572,-154.28572 85.20965,0 154.28572,69.07607 154.28572,154.28572 z"
         transform="matrix(0.43922638,0,0,0.43660222,112.02142,2217.5431)" />
    </g>
  </g>
</svg>
