<?xml version="1.0" encoding="UTF-8" standalone="no"?>
<!-- Generator: Adobe Illustrator 15.0.2, SVG Export Plug-In . SVG Version: 6.00 Build 0)  -->

<svg
   xmlns:dc="http://purl.org/dc/elements/1.1/"
   xmlns:cc="http://creativecommons.org/ns#"
   xmlns:rdf="http://www.w3.org/1999/02/22-rdf-syntax-ns#"
   xmlns:svg="http://www.w3.org/2000/svg"
   xmlns="http://www.w3.org/2000/svg"
   xmlns:xlink="http://www.w3.org/1999/xlink"
   xmlns:sodipodi="http://sodipodi.sourceforge.net/DTD/sodipodi-0.dtd"
   xmlns:inkscape="http://www.inkscape.org/namespaces/inkscape"
   version="1.1"
   id="Layer_1"
   x="0px"
   y="0px"
   width="16"
   height="16"
   viewBox="0 0 15.999999 16"
   enable-background="new 0 0 595.28 841.89"
   xml:space="preserve"
   inkscape:version="0.48.3.1 r9886"
   sodipodi:docname="alert.svg"
   inkscape:export-filename="D:\Hobby\QutIM\Images\q_outmsgok2.png"
   inkscape:export-xdpi="90"
   inkscape:export-ydpi="90"><metadata
   id="metadata33"><rdf:RDF><cc:Work
       rdf:about=""><dc:format>image/svg+xml</dc:format><dc:type
         rdf:resource="http://purl.org/dc/dcmitype/StillImage" /><dc:title /></cc:Work></rdf:RDF></metadata><defs
   id="defs31"><linearGradient
     id="linearGradient3988"
     gradientUnits="userSpaceOnUse"
     x1="308.14651"
     y1="-377.9277"
     x2="311.9473"
     y2="-377.9277"
     gradientTransform="matrix(0.93586036,0,0,-1.0298652,-286.87581,-378.31196)">
	<stop
   offset="0"
   style="stop-color:#656565;stop-opacity:1;"
   id="stop3990" />
	
	<stop
   offset="1"
   style="stop-color:#656565;stop-opacity:0;"
   id="stop3992" />
</linearGradient><radialGradient
     id="radialGradient3976"
     cx="25.706499"
     cy="-306.87061"
     r="4.7227998"
     gradientTransform="matrix(0.28038377,-2.4753835,-1.4703301,-0.10638504,-451.57769,42.625089)"
     gradientUnits="userSpaceOnUse">
	<stop
   offset="0"
   style="stop-color:#656565;stop-opacity:1;"
   id="stop3978" />
	
	<stop
   offset="1"
   style="stop-color:#656565;stop-opacity:0;"
   id="stop3980" />
</radialGradient><radialGradient
     inkscape:collect="always"
     xlink:href="#radialGradient3976"
     id="radialGradient5418"
     gradientUnits="userSpaceOnUse"
     gradientTransform="matrix(0.30432818,-2.5812877,-1.5958944,-0.1109365,-490.77625,5.55967)"
     cx="25.706499"
     cy="-306.87061"
     r="4.7227998" /><linearGradient
     inkscape:collect="always"
     xlink:href="#linearGradient3988"
     id="linearGradient5420"
     gradientUnits="userSpaceOnUse"
     gradientTransform="matrix(1.0157816,0,0,-1.0739259,-312.00904,-433.38632)"
     x1="308.14651"
     y1="-377.9277"
     x2="311.9473"
     y2="-377.9277" /></defs><sodipodi:namedview
   pagecolor="#ffffff"
   bordercolor="#666666"
   borderopacity="1"
   objecttolerance="10"
   gridtolerance="10"
   guidetolerance="10"
   inkscape:pageopacity="0"
   inkscape:pageshadow="2"
   inkscape:window-width="1440"
   inkscape:window-height="848"
   id="namedview29"
   showgrid="true"
   inkscape:zoom="39.9375"
   inkscape:cx="8"
   inkscape:cy="8"
   inkscape:window-x="-8"
   inkscape:window-y="-8"
   inkscape:window-maximized="1"
   inkscape:current-layer="Layer_1"><inkscape:grid
     type="xygrid"
     id="grid3010"
     empspacing="5"
     visible="true"
     enabled="true"
     snapvisiblegridlinesonly="true" /></sodipodi:namedview>


<radialGradient
   id="path2995_1_"
   cx="25.706499"
   cy="-306.87061"
   r="4.7227998"
   gradientTransform="matrix(0.28038377,-2.4753835,-1.4703301,-0.10638504,-451.57769,42.625089)"
   gradientUnits="userSpaceOnUse">
	<stop
   offset="0"
   style="stop-color:#d63434;stop-opacity:1;"
   id="stop6" />
	
	<stop
   offset="1"
   style="stop-color:#d63434;stop-opacity:0;"
   id="stop10" />
</radialGradient>

<linearGradient
   id="path3008_1_"
   gradientUnits="userSpaceOnUse"
   x1="308.14651"
   y1="-377.9277"
   x2="311.9473"
   y2="-377.9277"
   gradientTransform="matrix(0.93586036,0,0,-1.0298652,-286.87581,-378.31196)">
	<stop
   offset="0"
   style="stop-color:#d63434;stop-opacity:1;"
   id="stop14" />
	
	<stop
   offset="1"
   style="stop-color:#d63434;stop-opacity:0;"
   id="stop18" />
</linearGradient>

<linearGradient
   id="path3006_1_"
   gradientUnits="userSpaceOnUse"
   x1="315.7207"
   y1="-379.52151"
   x2="319.02151"
   y2="-379.52151"
   gradientTransform="matrix(0.93586036,0,0,-1.0298652,-286.87581,-378.31196)">
	<stop
   offset="0"
   style="stop-color:#d63434;stop-opacity:1;"
   id="stop22" />
	
	<stop
   offset="1"
   style="stop-color:#d63434;stop-opacity:0;"
   id="stop26" />
</linearGradient>

<g
   id="g5464"
   transform="translate(-17.999987,35)"><g
     id="g5392"
     transform="matrix(1,0,0,1.0001789,-173.625,-37.847122)"><rect
       inkscape:export-ydpi="90"
       inkscape:export-xdpi="90"
       inkscape:export-filename="D:\Hobby\QutIM\Images\th3.png"
       ry="0.99982113"
       y="6.8458977"
       x="192.625"
       height="11.997853"
       width="15"
       id="rect5394"
       style="opacity:0.07999998;fill:#000000;fill-opacity:1" /><rect
       inkscape:export-ydpi="90"
       inkscape:export-xdpi="90"
       inkscape:export-filename="D:\Hobby\QutIM\Images\th3.png"
       style="opacity:0.15;fill:#000000;fill-opacity:1"
       id="rect5396"
       width="14.75"
       height="11.747898"
       x="192.625"
       y="6.8458977"
       ry="1.0215564" /><rect
       inkscape:export-ydpi="90"
       inkscape:export-xdpi="90"
       inkscape:export-filename="D:\Hobby\QutIM\Images\th3.png"
       ry="0.99982113"
       y="6.8458977"
       x="192.625"
       height="11.497943"
       width="14.5"
       id="rect5398"
       style="opacity:0.15;fill:#000000;fill-opacity:1" /><rect
       inkscape:export-ydpi="90"
       inkscape:export-xdpi="90"
       inkscape:export-filename="D:\Hobby\QutIM\Images\th3.png"
       style="opacity:0.3;fill:#000000;fill-opacity:1"
       id="rect5400"
       width="14.25"
       height="11.247988"
       x="192.625"
       y="6.8458977"
       ry="0.97808588" /></g><g
     transform="translate(18,3.49991)"
     id="g5410"><rect
       style="fill:#e6e6e6;fill-opacity:1"
       id="rect4910"
       width="15"
       height="11.997853"
       x="-1.3887818e-005"
       y="-35.499729"
       ry="0.99982113"
       inkscape:export-filename="D:\Hobby\QutIM\Images\path4355.png"
       inkscape:export-xdpi="90"
       inkscape:export-ydpi="90" /><path
       id="path4912"
       connector-curvature="0"
       d="m 1.6815895,-34.499906 c -0.35045,-0.0011 -0.63487,0.215858 -0.63588,0.485414 l -0.006,1.054595 5.11649,6.873124 c 0.21636,0.293182 0.70089,0.396277 1.08181,0.228746 l 6.7518905,-2.964034 0.0102,-1.439061 -6.2978405,2.763211 c -0.30677,0.135313 -0.69073,0.05368 -0.86545,-0.182567 l -5.07282,-6.819428 h -0.0823 z"
       inkscape:connector-curvature="0"
       style="fill:url(#radialGradient5418);fill-opacity:1"
       inkscape:export-filename="D:\Hobby\QutIM\Images\path4355.png"
       inkscape:export-xdpi="90"
       inkscape:export-ydpi="90" /><path
       id="path4914"
       enable-background="new    "
       d="m 4.0534395,-28.906902 -3.043279,1.33489 -0.0102,1.439061 3.86098,-1.693582 -0.80754,-1.080369 z"
       inkscape:connector-curvature="0"
       style="opacity:0.51529996;fill:url(#linearGradient5420);fill-opacity:1"
       inkscape:export-filename="D:\Hobby\QutIM\Images\path4355.png"
       inkscape:export-xdpi="90"
       inkscape:export-ydpi="90" /><path
       style="fill:#656565;fill-opacity:1"
       d="m 0.9999995,-35.499732 c -0.554,0 -1,0.445921 -1,0.999822 l 0,9.998211 c 0,0.553901 0.446,0.999821 1,0.999821 l 13.0000005,0 c 0.554,0 1,-0.44592 1,-0.999821 l 0,-9.998211 c 0,-0.553901 -0.446,-0.999822 -1,-0.999822 l -13.0000005,0 z m 0.5,0.999822 12.0000005,0 c 0.28468,0 0.5,0.21528 0.5,0.49991 l 0,8.99839 c 0,0.28463 -0.21532,0.499911 -0.5,0.499911 l -12.0000005,0 c -0.28468,0 -0.5,-0.215281 -0.5,-0.499911 l 0,-8.99839 c 0,-0.28463 0.21532,-0.49991 0.5,-0.49991 z"
       id="path4918"
       inkscape:export-filename="D:\Hobby\QutIM\Images\path4355.png"
       inkscape:export-xdpi="90"
       inkscape:export-ydpi="90"
       inkscape:connector-curvature="0" /><path
       inkscape:connector-curvature="0"
       style="font-size:medium;font-style:normal;font-variant:normal;font-weight:normal;font-stretch:normal;text-indent:0;text-align:start;text-decoration:none;line-height:normal;letter-spacing:normal;word-spacing:normal;text-transform:none;direction:ltr;block-progression:tb;writing-mode:lr-tb;text-anchor:start;baseline-shift:baseline;color:#000000;fill:#e6e6e6;fill-opacity:1;fill-rule:nonzero;stroke:none;stroke-width:2.02694058;marker:none;visibility:visible;display:inline;overflow:visible;enable-background:accumulate;font-family:Sans;-inkscape-font-specification:Sans"
       d="M 10.0625,-37.90625 A 1.0135716,1.0135716 0 0 0 9.25,-37.3125 c -0.4224896,0.948122 -0.1408943,1.753115 0,2.46875 0.089872,0.456482 0.0756,0.65904 0.09375,0.9375 -0.232087,-0.361728 -0.46875,-0.6875 -0.46875,-0.6875 a 1.0135716,1.0135716 0 0 0 -1.53125,1.3125 c 0,0 0.032212,6.44e-4 0.09375,0.375 0.061538,0.374356 0.054449,1.053452 -0.4375,2.125 -0.32379,0.705237 -1.1304903,1.665629 -1,3.25 0.207524,2.520537 2.3415855,4.03125 4.4375,4.03125 1.11256,0 2.171034,-0.449662 3,-1.125 0.828966,-0.675338 1.488343,-1.614379 1.5625,-2.75 0.127533,-1.952997 -1.165298,-3.146021 -1.15625,-3.125 0.04729,0.109885 -0.02179,-0.263533 0.0625,-0.65625 0.08429,-0.392717 0.262459,-0.857524 0.40625,-1.09375 a 1.0135716,1.0135716 0 0 0 -1.46875,-1.34375 c -0.06385,0.04576 -0.09644,0.142139 -0.15625,0.1875 -0.09391,-0.752703 -0.400622,-1.373198 -0.71875,-1.96875 -0.390866,-0.731722 -0.772961,-1.473494 -0.8125,-1.6875 a 1.0135716,1.0135716 0 0 0 -1.09375,-0.84375 z"
       id="path5408" /><path
       inkscape:export-ydpi="90"
       inkscape:export-xdpi="90"
       inkscape:export-filename="D:\Hobby\QutIM\Images\path4355.png"
       sodipodi:nodetypes="cssssscsssscssc"
       inkscape:connector-curvature="0"
       id="path4019-2"
       d="m 8.1080495,-33.935025 c 0,0 0.94655,1.119641 -0.176379,3.565572 -0.40315,0.878089 -1.00786,1.543308 -0.90705,2.76731 0.16639,2.020933 1.76372,3.086615 3.4266485,3.086615 1.66295,0 3.426692,-1.383655 3.527471,-2.926963 0.10078,-1.543307 -0.806271,-2.075482 -1.058241,-2.660874 -0.251949,-0.585393 0.0756,-1.91583 0.52911,-2.660876 -0.70548,0.505567 -0.78106,0.505567 -1.2346,1.623135 -0.45352,1.117567 0.20504,2.539954 -0.40315,2.873744 -0.77238,0.423909 -1.39893,-0.525984 -1.15902,-1.463481 0.25199,-0.984524 1.024921,-2.002481 1.108651,-3.246267 0.0697,-1.035621 -1.3858,-2.820528 -1.587361,-3.911487 -0.4031395,0.904698 0.510501,2.764018 0.201561,3.805052 -0.6647505,2.24008 -1.4058505,2.48142 -1.3857805,1.037741 0.0114,-0.827447 -0.88186,-1.889221 -0.88186,-1.889221 z"
       style="fill:#d63434;fill-opacity:1;stroke:none" /></g></g></svg>