<?xml version="1.0" encoding="UTF-8" standalone="no"?>
<!-- Generator: Adobe Illustrator 15.0.2, SVG Export Plug-In . SVG Version: 6.00 Build 0)  -->

<svg
   xmlns:dc="http://purl.org/dc/elements/1.1/"
   xmlns:cc="http://creativecommons.org/ns#"
   xmlns:rdf="http://www.w3.org/1999/02/22-rdf-syntax-ns#"
   xmlns:svg="http://www.w3.org/2000/svg"
   xmlns="http://www.w3.org/2000/svg"
   xmlns:xlink="http://www.w3.org/1999/xlink"
   xmlns:sodipodi="http://sodipodi.sourceforge.net/DTD/sodipodi-0.dtd"
   xmlns:inkscape="http://www.inkscape.org/namespaces/inkscape"
   version="1.1"
   id="Layer_1"
   x="0px"
   y="0px"
   width="16"
   height="16"
   viewBox="0 0 15.999999 16"
   enable-background="new 0 0 595.28 841.89"
   xml:space="preserve"
   inkscape:version="0.48.3.1 r9886"
   sodipodi:docname="inmsg.svg"
   inkscape:export-filename="D:\Hobby\QutIM\Images\q_outmsgok2.png"
   inkscape:export-xdpi="90"
   inkscape:export-ydpi="90"><metadata
   id="metadata33"><rdf:RDF><cc:Work
       rdf:about=""><dc:format>image/svg+xml</dc:format><dc:type
         rdf:resource="http://purl.org/dc/dcmitype/StillImage" /><dc:title /></cc:Work></rdf:RDF></metadata><defs
   id="defs31"><radialGradient
     id="radialGradient3976-1"
     cx="25.706499"
     cy="-306.87061"
     r="4.7227998"
     gradientTransform="matrix(0.28038377,-2.4753835,-1.4703301,-0.10638504,-451.57769,42.625089)"
     gradientUnits="userSpaceOnUse"><stop
       offset="0"
       style="stop-color:#656565;stop-opacity:1;"
       id="stop3978-8" /><stop
       offset="1"
       style="stop-color:#656565;stop-opacity:0;"
       id="stop3980-4" /></radialGradient><linearGradient
     inkscape:collect="always"
     xlink:href="#radialGradient3976-1"
     id="linearGradient5029"
     gradientUnits="userSpaceOnUse"
     gradientTransform="matrix(1.0157816,0,0,-1.074118,-348.00904,-412.95804)"
     x1="315.7207"
     y1="-379.52151"
     x2="319.02151"
     y2="-379.52151" /><linearGradient
     inkscape:collect="always"
     xlink:href="#radialGradient3976-1"
     id="linearGradient5032"
     gradientUnits="userSpaceOnUse"
     gradientTransform="matrix(1.0157816,0,0,-1.074118,-348.00904,-412.95804)"
     x1="308.14651"
     y1="-377.9277"
     x2="311.9473"
     y2="-377.9277" /><radialGradient
     inkscape:collect="always"
     xlink:href="#radialGradient3976-1"
     id="radialGradient5035"
     gradientUnits="userSpaceOnUse"
     gradientTransform="matrix(0.30432818,-2.5817495,-1.5958944,-0.11095635,-526.77625,26.06647)"
     cx="25.706499"
     cy="-306.87061"
     r="4.7227998" /></defs><sodipodi:namedview
   pagecolor="#ffffff"
   bordercolor="#666666"
   borderopacity="1"
   objecttolerance="10"
   gridtolerance="10"
   guidetolerance="10"
   inkscape:pageopacity="0"
   inkscape:pageshadow="2"
   inkscape:window-width="1440"
   inkscape:window-height="848"
   id="namedview29"
   showgrid="true"
   inkscape:zoom="39.9375"
   inkscape:cx="8"
   inkscape:cy="8"
   inkscape:window-x="-8"
   inkscape:window-y="-8"
   inkscape:window-maximized="1"
   inkscape:current-layer="Layer_1"><inkscape:grid
     type="xygrid"
     id="grid3010"
     empspacing="5"
     visible="true"
     enabled="true"
     snapvisiblegridlinesonly="true" /></sodipodi:namedview>


<radialGradient
   id="path2995_1_"
   cx="25.706499"
   cy="-306.87061"
   r="4.7227998"
   gradientTransform="matrix(0.28038377,-2.4753835,-1.4703301,-0.10638504,-451.57769,42.625089)"
   gradientUnits="userSpaceOnUse">
	<stop
   offset="0"
   style="stop-color:#d63434;stop-opacity:1;"
   id="stop6" />
	
	<stop
   offset="1"
   style="stop-color:#d63434;stop-opacity:0;"
   id="stop10" />
</radialGradient>

<linearGradient
   id="path3008_1_"
   gradientUnits="userSpaceOnUse"
   x1="308.14651"
   y1="-377.9277"
   x2="311.9473"
   y2="-377.9277"
   gradientTransform="matrix(0.93586036,0,0,-1.0298652,-286.87581,-378.31196)">
	<stop
   offset="0"
   style="stop-color:#d63434;stop-opacity:1;"
   id="stop14" />
	
	<stop
   offset="1"
   style="stop-color:#d63434;stop-opacity:0;"
   id="stop18" />
</linearGradient>

<linearGradient
   id="path3006_1_"
   gradientUnits="userSpaceOnUse"
   x1="315.7207"
   y1="-379.52151"
   x2="319.02151"
   y2="-379.52151"
   gradientTransform="matrix(0.93586036,0,0,-1.0298652,-286.87581,-378.31196)">
	<stop
   offset="0"
   style="stop-color:#d63434;stop-opacity:1;"
   id="stop22" />
	
	<stop
   offset="1"
   style="stop-color:#d63434;stop-opacity:0;"
   id="stop26" />
</linearGradient>

<g
   id="g5518"
   transform="matrix(1,0,0,0.99995339,36,17.999578)"><g
     transform="matrix(1,0,0,1.0001789,-227.625,-20.847123)"
     id="g5322"><rect
       style="opacity:0.07999998;fill:#000000;fill-opacity:1"
       id="rect5324"
       width="15"
       height="11.997853"
       x="192.625"
       y="6.8458977"
       ry="0.99982113"
       inkscape:export-filename="D:\Hobby\QutIM\Images\th3.png"
       inkscape:export-xdpi="90"
       inkscape:export-ydpi="90" /><rect
       ry="1.0215564"
       y="6.8458977"
       x="192.625"
       height="11.747898"
       width="14.75"
       id="rect5326"
       style="opacity:0.15;fill:#000000;fill-opacity:1"
       inkscape:export-filename="D:\Hobby\QutIM\Images\th3.png"
       inkscape:export-xdpi="90"
       inkscape:export-ydpi="90" /><rect
       style="opacity:0.15;fill:#000000;fill-opacity:1"
       id="rect5328"
       width="14.5"
       height="11.497943"
       x="192.625"
       y="6.8458977"
       ry="0.99982113"
       inkscape:export-filename="D:\Hobby\QutIM\Images\th3.png"
       inkscape:export-xdpi="90"
       inkscape:export-ydpi="90" /><rect
       ry="0.97808588"
       y="6.8458977"
       x="192.625"
       height="11.247988"
       width="14.25"
       id="rect5330"
       style="opacity:0.3;fill:#000000;fill-opacity:1"
       inkscape:export-filename="D:\Hobby\QutIM\Images\th3.png"
       inkscape:export-xdpi="90"
       inkscape:export-ydpi="90" /></g><g
     id="g5183"><rect
       ry="1"
       y="-15.000277"
       x="-36"
       height="12"
       width="15"
       id="rect3906-8"
       style="fill:#e6e6e6;fill-opacity:1"
       inkscape:export-filename="D:\Hobby\QutIM\Images\th2.png"
       inkscape:export-xdpi="90"
       inkscape:export-ydpi="90" /><path
       style="fill:url(#radialGradient5035);fill-opacity:1"
       inkscape:connector-curvature="0"
       d="m -34.318413,-14.000273 c -0.350445,-0.0011 -0.634864,0.215897 -0.63588,0.485501 l -0.0061,1.054784 5.116492,6.8743544 c 0.216362,0.293234 0.70089,0.396348 1.081808,0.228787 l 6.751905,-2.964565 0.01019,-1.439318 -6.297846,2.763705 c -0.306766,0.135337 -0.690732,0.05369 -0.865446,-0.1826 l -5.072826,-6.8206484 h -0.08228 z"
       connector-curvature="0"
       id="path3908-4"
       inkscape:export-filename="D:\Hobby\QutIM\Images\th2.png"
       inkscape:export-xdpi="90"
       inkscape:export-ydpi="90" /><path
       style="opacity:0.51529996;fill:url(#linearGradient5032);fill-opacity:1"
       inkscape:connector-curvature="0"
       d="m -31.946563,-8.4062666 -3.043282,1.335128 -0.01016,1.439318 3.860986,-1.693885 -0.807547,-1.080561 z"
       enable-background="new    "
       id="path3910-0"
       inkscape:export-filename="D:\Hobby\QutIM\Images\th2.png"
       inkscape:export-xdpi="90"
       inkscape:export-ydpi="90" /><path
       style="opacity:0.51529996;fill:url(#linearGradient5029);fill-opacity:1"
       inkscape:connector-curvature="0"
       d="m -25.896569,-6.6135636 -1.409904,0.616544 1.479994,1.988191 1.873102,0.0086 -1.943192,-2.613329 0,0 z"
       enable-background="new    "
       id="path3912-7"
       inkscape:export-filename="D:\Hobby\QutIM\Images\th2.png"
       inkscape:export-xdpi="90"
       inkscape:export-ydpi="90" /><path
       id="path3914-6"
       d="m -35,-15.000277 c -0.554,0 -1,0.446 -1,1 l 0,10.0000004 c 0,0.554 0.446,1 1,1 l 13,0 c 0.554,0 1,-0.446 1,-1 l 0,-10.0000004 c 0,-0.554 -0.446,-1 -1,-1 l -13,0 z m 0.5,1 12,0 c 0.284681,0 0.5,0.215319 0.5,0.5 l 0,9.0000004 c 0,0.284681 -0.215319,0.5 -0.5,0.5 l -12,0 c -0.28468,0 -0.5,-0.215319 -0.5,-0.5 l 0,-9.0000004 c 0,-0.284681 0.21532,-0.5 0.5,-0.5 z"
       style="fill:#656565;fill-opacity:1"
       inkscape:connector-curvature="0"
       inkscape:export-filename="D:\Hobby\QutIM\Images\th2.png"
       inkscape:export-xdpi="90"
       inkscape:export-ydpi="90" /><path
       style="font-size:medium;font-style:normal;font-variant:normal;font-weight:normal;font-stretch:normal;text-indent:0;text-align:start;text-decoration:none;line-height:normal;letter-spacing:normal;word-spacing:normal;text-transform:none;direction:ltr;block-progression:tb;writing-mode:lr-tb;text-anchor:start;baseline-shift:baseline;color:#000000;fill:#e6e6e6;fill-opacity:1;fill-rule:nonzero;stroke:none;stroke-width:2;marker:none;visibility:visible;display:inline;overflow:visible;enable-background:accumulate;font-family:Sans;-inkscape-font-specification:Sans"
       d="m -35.09375,-14 a 1.0001,1.0001 0 0 0 -0.5625,1.75 L -30.875,-8 -35.65625,-3.75 A 1.0001,1.0001 0 0 0 -35,-2 l 3.15625,0 a 1.0001,1.0001 0 0 0 0.6875,-0.25 l 5.625,-5 a 1.0001,1.0001 0 0 0 0,-1.5 l -5.625,-5 A 1.0001,1.0001 0 0 0 -31.84375,-14 L -35,-14 a 1.0001,1.0001 0 0 0 -0.09375,0 z"
       id="path5160"
       inkscape:connector-curvature="0" /><path
       inkscape:connector-curvature="0"
       id="path3876"
       d="m -31.832,-3.0002766 5.631999,-5 -5.631999,-5.0000004 -3.168,0 5.632,5.0000004 -5.632,5 3.168,0 z"
       style="fill:#d63434;fill-opacity:1;stroke:none"
       inkscape:export-filename="D:\Hobby\QutIM\Images\th2.png"
       inkscape:export-xdpi="90"
       inkscape:export-ydpi="90" /></g></g></svg>