<?xml version="1.0" encoding="UTF-8" standalone="no"?>
<!-- Created with Inkscape (http://www.inkscape.org/) -->

<svg
   xmlns:dc="http://purl.org/dc/elements/1.1/"
   xmlns:cc="http://creativecommons.org/ns#"
   xmlns:rdf="http://www.w3.org/1999/02/22-rdf-syntax-ns#"
   xmlns:svg="http://www.w3.org/2000/svg"
   xmlns="http://www.w3.org/2000/svg"
   xmlns:xlink="http://www.w3.org/1999/xlink"
   xmlns:sodipodi="http://sodipodi.sourceforge.net/DTD/sodipodi-0.dtd"
   xmlns:inkscape="http://www.inkscape.org/namespaces/inkscape"
   width="16"
   height="16"
   id="svg4666"
   version="1.1"
   inkscape:version="0.48.3.1 r9886"
   sodipodi:docname="outmsg.svg">
  <defs
     id="defs4668">
    <radialGradient
       inkscape:collect="always"
       xlink:href="#radialGradient3976-1-2"
       id="radialGradient4805"
       gradientUnits="userSpaceOnUse"
       gradientTransform="matrix(0.30432818,-2.5816292,-1.5958944,-0.11095118,-530.77625,44.064833)"
       cx="25.706499"
       cy="-306.87061"
       r="4.7227998" />
    <radialGradient
       gradientUnits="userSpaceOnUse"
       gradientTransform="matrix(0.28038377,-2.4753835,-1.4703301,-0.10638504,-451.57769,42.625089)"
       r="4.7227998"
       cy="-306.87061"
       cx="25.706499"
       id="radialGradient3976-1-2">
      <stop
         id="stop3978-8-3"
         style="stop-color:#656565;stop-opacity:1;"
         offset="0" />
      <stop
         id="stop3980-4-3"
         style="stop-color:#656565;stop-opacity:0;"
         offset="1" />
    </radialGradient>
    <linearGradient
       inkscape:collect="always"
       xlink:href="#radialGradient3976-1-2"
       id="linearGradient4802"
       gradientUnits="userSpaceOnUse"
       gradientTransform="matrix(1.0157816,0,0,-1.0740679,-352.00904,-394.93921)"
       x1="308.14651"
       y1="-377.9277"
       x2="311.9473"
       y2="-377.9277" />
    <linearGradient
       inkscape:collect="always"
       xlink:href="#radialGradient3976-1-2"
       id="linearGradient4799"
       gradientUnits="userSpaceOnUse"
       gradientTransform="matrix(1.0157816,0,0,-1.0740679,-352.00904,-394.93921)"
       x1="315.7207"
       y1="-379.52151"
       x2="319.02151"
       y2="-379.52151" />
  </defs>
  <sodipodi:namedview
     id="base"
     pagecolor="#ffffff"
     bordercolor="#666666"
     borderopacity="1.0"
     inkscape:pageopacity="0.0"
     inkscape:pageshadow="2"
     inkscape:zoom="39.9375"
     inkscape:cx="8"
     inkscape:cy="8"
     inkscape:document-units="px"
     inkscape:current-layer="layer1"
     showgrid="true"
     inkscape:window-width="1440"
     inkscape:window-height="848"
     inkscape:window-x="-8"
     inkscape:window-y="-8"
     inkscape:window-maximized="1">
    <inkscape:grid
       type="xygrid"
       id="grid3019" />
  </sodipodi:namedview>
  <metadata
     id="metadata4671">
    <rdf:RDF>
      <cc:Work
         rdf:about="">
        <dc:format>image/svg+xml</dc:format>
        <dc:type
           rdf:resource="http://purl.org/dc/dcmitype/StillImage" />
        <dc:title />
      </cc:Work>
    </rdf:RDF>
  </metadata>
  <g
     inkscape:label="Layer 1"
     inkscape:groupmode="layer"
     id="layer1"
     transform="translate(0,-1036.3622)">
    <g
       transform="translate(40,1036.3622)"
       id="g4808">
      <g
         id="g5322"
         transform="matrix(1,0,0,1.0001323,-231.625,-2.8465733)">
        <rect
           inkscape:export-ydpi="90"
           inkscape:export-xdpi="90"
           inkscape:export-filename="D:\Hobby\QutIM\Images\th3.png"
           ry="0.99982113"
           y="6.8458977"
           x="192.625"
           height="11.997853"
           width="15"
           id="rect5324"
           style="opacity:0.07999998;fill:#000000;fill-opacity:1" />
        <rect
           inkscape:export-ydpi="90"
           inkscape:export-xdpi="90"
           inkscape:export-filename="D:\Hobby\QutIM\Images\th3.png"
           style="opacity:0.15;fill:#000000;fill-opacity:1"
           id="rect5326"
           width="14.75"
           height="11.747898"
           x="192.625"
           y="6.8458977"
           ry="1.0215564" />
        <rect
           inkscape:export-ydpi="90"
           inkscape:export-xdpi="90"
           inkscape:export-filename="D:\Hobby\QutIM\Images\th3.png"
           ry="0.99982113"
           y="6.8458977"
           x="192.625"
           height="11.497943"
           width="14.5"
           id="rect5328"
           style="opacity:0.15;fill:#000000;fill-opacity:1" />
        <rect
           inkscape:export-ydpi="90"
           inkscape:export-xdpi="90"
           inkscape:export-filename="D:\Hobby\QutIM\Images\th3.png"
           style="opacity:0.3;fill:#000000;fill-opacity:1"
           id="rect5330"
           width="14.25"
           height="11.247988"
           x="192.625"
           y="6.8458977"
           ry="0.97808588" />
      </g>
      <rect
         ry="0.99995339"
         y="3.0000007"
         x="-40"
         height="11.999441"
         width="15"
         id="rect3906-8"
         style="fill:#e6e6e6;fill-opacity:1"
         inkscape:export-filename="D:\Hobby\QutIM\Images\th2.png"
         inkscape:export-xdpi="90"
         inkscape:export-ydpi="90" />
      <path
         style="fill:url(#radialGradient4805);fill-opacity:1"
         inkscape:connector-curvature="0"
         d="m -38.318413,3.9999576 c -0.350445,-0.0011 -0.634864,0.2158869 -0.63588,0.4854783 l -0.0061,1.0547349 5.116493,6.8740342 c 0.216361,0.29322 0.70089,0.396329 1.081807,0.228776 l 6.751905,-2.9644267 0.01019,-1.439251 -6.297847,2.7635767 c -0.306765,0.13533 -0.690731,0.05369 -0.865446,-0.182592 l -5.072826,-6.8203304 h -0.08228 z"
         connector-curvature="0"
         id="path3908-4"
         inkscape:export-filename="D:\Hobby\QutIM\Images\th2.png"
         inkscape:export-xdpi="90"
         inkscape:export-ydpi="90" />
      <path
         style="opacity:0.51529996;fill:url(#linearGradient4802);fill-opacity:1"
         inkscape:connector-curvature="0"
         d="m -35.946564,9.5937032 -3.043282,1.3350658 -0.01016,1.439251 3.860985,-1.693806 -0.807547,-1.0805108 z"
         enable-background="new    "
         id="path3910-0"
         inkscape:export-filename="D:\Hobby\QutIM\Images\th2.png"
         inkscape:export-xdpi="90"
         inkscape:export-ydpi="90" />
      <path
         style="opacity:0.51529996;fill:url(#linearGradient4799);fill-opacity:1"
         inkscape:connector-curvature="0"
         d="m -29.896569,11.386323 -1.409904,0.616515 1.479994,1.988098 1.873102,0.0086 -1.943192,-2.613207 0,0 z"
         enable-background="new    "
         id="path3912-7"
         inkscape:export-filename="D:\Hobby\QutIM\Images\th2.png"
         inkscape:export-xdpi="90"
         inkscape:export-ydpi="90" />
      <path
         id="path3914-6"
         d="m -39,3.0000002 c -0.554,0 -1,0.4459792 -1,0.9999534 l 0,9.9995344 c 0,0.553974 0.446,0.999953 1,0.999953 l 13,0 c 0.554,0 1,-0.445979 1,-0.999953 l 0,-9.9995344 c 0,-0.5539742 -0.446,-0.9999534 -1,-0.9999534 l -13,0 z m 0.5,0.9999534 12,0 c 0.284681,0 0.5,0.2153089 0.5,0.4999766 l 0,8.9995808 c 0,0.284668 -0.215319,0.499977 -0.5,0.499977 l -12,0 c -0.28468,0 -0.5,-0.215309 -0.5,-0.499977 l 0,-8.9995808 c 0,-0.2846677 0.21532,-0.4999766 0.5,-0.4999766 z"
         style="fill:#656565;fill-opacity:1"
         inkscape:connector-curvature="0"
         inkscape:export-filename="D:\Hobby\QutIM\Images\th2.png"
         inkscape:export-xdpi="90"
         inkscape:export-ydpi="90" />
      <path
         style="font-size:medium;font-style:normal;font-variant:normal;font-weight:normal;font-stretch:normal;text-indent:0;text-align:start;text-decoration:none;line-height:normal;letter-spacing:normal;word-spacing:normal;text-transform:none;direction:ltr;block-progression:tb;writing-mode:lr-tb;text-anchor:start;baseline-shift:baseline;color:#000000;fill:#e6e6e6;fill-opacity:1;fill-rule:nonzero;stroke:none;stroke-width:2;marker:none;visibility:visible;display:inline;overflow:visible;enable-background:accumulate;font-family:Sans;-inkscape-font-specification:Sans"
         d="m -39.09375,4.0002305 a 1.0001,1.0000534 0 0 0 -0.5625,1.7499185 l 4.78125,4.2498019 -4.78125,4.2498021 A 1.0001,1.0000534 0 0 0 -39,15.999671 l 3.15625,0 a 1.0001,1.0000534 0 0 0 0.6875,-0.249988 l 5.625,-4.999767 a 1.0001,1.0000534 0 0 0 0,-1.4999302 l -5.625,-4.9997669 a 1.0001,1.0000534 0 0 0 -0.6875,-0.2499884 l -3.15625,0 a 1.0001,1.0000534 0 0 0 -0.09375,0 z"
         id="path5160"
         inkscape:connector-curvature="0" />
      <path
         inkscape:connector-curvature="0"
         id="path3876"
         d="m -35.832,14.999441 5.631999,-4.9997667 -5.631999,-4.9997674 -3.168,0 5.632,4.9997674 -5.632,4.9997667 3.168,0 z"
         style="fill:#3473e3;fill-opacity:1;stroke:none"
         inkscape:export-filename="D:\Hobby\QutIM\Images\th2.png"
         inkscape:export-xdpi="90"
         inkscape:export-ydpi="90" />
    </g>
  </g>
</svg>
