<?xml version="1.0" encoding="UTF-8" standalone="no"?>
<!-- Created with Inkscape (http://www.inkscape.org/) -->

<svg
   xmlns:dc="http://purl.org/dc/elements/1.1/"
   xmlns:cc="http://creativecommons.org/ns#"
   xmlns:rdf="http://www.w3.org/1999/02/22-rdf-syntax-ns#"
   xmlns:svg="http://www.w3.org/2000/svg"
   xmlns="http://www.w3.org/2000/svg"
   xmlns:xlink="http://www.w3.org/1999/xlink"
   xmlns:sodipodi="http://sodipodi.sourceforge.net/DTD/sodipodi-0.dtd"
   xmlns:inkscape="http://www.inkscape.org/namespaces/inkscape"
   inkscape:version="0.48.3.1 r9886"
   version="1.1"
   id="svg2"
   height="1000"
   width="1000"
   sodipodi:docname="qutim-offline.svg">
  <defs
     id="defs4">
    <linearGradient
       id="linearGradient4094">
      <stop
         style="stop-color:#aaaaaa;stop-opacity:1;"
         offset="0"
         id="stop4096" />
      <stop
         style="stop-color:#f0f0f0;stop-opacity:1;"
         offset="1"
         id="stop4098" />
    </linearGradient>
    <linearGradient
       inkscape:collect="always"
       xlink:href="#linearGradient4094"
       id="linearGradient4369"
       gradientUnits="userSpaceOnUse"
       gradientTransform="translate(4.3e-4,-1e-4)"
       x1="623.2478"
       y1="993.46124"
       x2="623.2478"
       y2="98.363487" />
  </defs>
  <sodipodi:namedview
     id="base"
     pagecolor="#ffffff"
     bordercolor="#666666"
     borderopacity="1.0"
     inkscape:pageopacity="0.0"
     inkscape:pageshadow="2"
     inkscape:zoom="0.35"
     inkscape:cx="430.04347"
     inkscape:cy="444.76257"
     inkscape:document-units="px"
     inkscape:current-layer="layer1"
     showgrid="false"
     inkscape:window-width="1440"
     inkscape:window-height="848"
     inkscape:window-x="-8"
     inkscape:window-y="-8"
     inkscape:window-maximized="1"
     inkscape:snap-bbox="false"
     inkscape:snap-global="true"
     showguides="false"
     inkscape:guide-bbox="true">
    <sodipodi:guide
       orientation="1,0"
       position="0,810.14234"
       id="guide3219" />
    <sodipodi:guide
       orientation="1,0"
       position="1000.051,496.99505"
       id="guide3221" />
    <sodipodi:guide
       orientation="0,1"
       position="125.25891,1000.051"
       id="guide3223" />
    <sodipodi:guide
       orientation="0,1"
       position="-389.91888,499.01535"
       id="guide3224" />
    <sodipodi:guide
       orientation="1,0"
       position="499.01535,349.51278"
       id="guide3226" />
    <sodipodi:guide
       orientation="1,0"
       position="-499.01535,256.57874"
       id="guide3228" />
    <sodipodi:guide
       orientation="0,1"
       position="-909.13728,0"
       id="guide3230" />
  </sodipodi:namedview>
  <metadata
     id="metadata7">
    <rdf:RDF>
      <cc:Work
         rdf:about="">
        <dc:format>image/svg+xml</dc:format>
        <dc:type
           rdf:resource="http://purl.org/dc/dcmitype/StillImage" />
        <dc:title />
      </cc:Work>
    </rdf:RDF>
  </metadata>
  <g
     inkscape:label="Layer 1"
     inkscape:groupmode="layer"
     id="layer1"
     transform="translate(0,-52.362183)">
    <path
       style="opacity:0.07999998;fill:#000000;fill-opacity:1;fill-rule:nonzero;stroke:none"
       d="m 655.75039,74.06239 c -36.1124,4.20846 -65.81068,27.6089 -99.44423,39.58084 -169.45078,77.44107 -339.7399,153.05478 -508.55574,231.88791 -27.28889,19.08813 -32.22658,60.9129 -13.25,87.375 87.15279,189.75595 171.65723,380.7246 260,569.93756 19.13682,27.4814 61.37715,32.0723 88.09375,12.8124 189.46174,-86.93819 380.05812,-171.47785 569.01622,-259.46607 27.2009,-18.97758 32.3387,-60.71825 13.4839,-87.22139 C 878.10939,479.54816 793.48709,289.01058 705.65669,99.99989 694.60899,83.8983 675.27179,73.52467 655.75039,74.06239 z m -29.2187,144.21875 c 6.421,9.47027 8.2186,21.22429 14.2621,30.95463 63.9694,142.61709 130.7772,283.98481 192.7067,427.48287 -9.7376,7.30223 -22.292,8.90497 -32.582,15.28802 -142.4325,64.02879 -283.8091,130.59864 -427.01182,192.61823 -7.77928,-9.97104 -9.10582,-23.10535 -15.86062,-33.63997 -63.84594,-142.0561 -130.30343,-282.97283 -192.07688,-425.92253 8.98542,-7.38717 21.16574,-8.42543 30.8294,-14.70011 143.02005,-64.27631 284.93347,-131.05804 428.79562,-193.39364 l 0.5812,0.81373 0.3563,0.49877 z"
       id="path4054-4"
       inkscape:connector-curvature="0" />
    <path
       style="opacity:0.1;fill:#000000;fill-opacity:1;fill-rule:nonzero;stroke:none"
       d="m 654.15669,82.12489 c -30.1844,4.26572 -55.2025,23.62277 -83.44824,33.68248 -172.64295,78.87965 -346.01797,156.15758 -518.17678,236.09877 -23.75913,16.37521 -27.96895,52.8777 -11.59375,75.8125 87.02334,189.9302 171.88943,380.8494 259.9375,570.31257 16.38068,23.79159 52.74104,27.84719 75.65625,11.59369 189.72216,-86.77849 380.21172,-171.89147 569.59382,-259.40626 24.3877,-16.08364 28.9213,-52.80037 12.4375,-76.1875 -86.6585,-189.40975 -171.6798,-379.56353 -258.9688,-568.6875 -9.7013,-14.79715 -27.6324,-24.37766 -45.4375,-23.21875 z m -27.875,126.28125 c 10.7694,3.65603 11.1371,16.82792 16.2284,25.32319 66.3905,147.57299 134.9554,294.20136 199.8966,442.39556 -1.986,10.73337 -14.6904,11.99356 -22.6306,16.12924 C 671.05539,759.11808 523.35954,828.32365 373.93792,893.56239 363.06091,890.48332 362.0226,877.47256 357.40221,868.96312 290.87189,720.96199 221.96679,574.00117 157.03167,425.31239 c 2.25578,-10.5792 14.6366,-11.81421 22.71875,-15.96875 148.68801,-66.86428 296.32309,-136.13509 445.78127,-201.21875 l 0.75,0.28125 z"
       id="path4024-2"
       inkscape:connector-curvature="0" />
    <path
       style="opacity:0.15;fill:#000000;fill-opacity:1;fill-rule:nonzero;stroke:none"
       d="m 653.96919,90.03114 c -22.3117,2.99504 -40.7407,17.12453 -61.58078,24.66786 -178.04311,81.21764 -356.62448,161.28769 -534.35674,243.17589 -20.1029,13.12892 -24.7772,43.19376 -11.52261,62.72237 87.13403,190.79193 172.74652,382.31838 260.78939,572.67665 13.55613,19.81839 43.64375,23.72859 63.08059,10.34239 190.24316,-86.84369 381.10365,-172.36564 571.02775,-259.89766 20.1404,-13.06077 24.7469,-43.15894 11.4924,-62.72284 -86.5974,-190.10322 -172.3663,-380.58567 -259.4613,-570.46466 -8.2728,-13.23019 -23.8423,-21.41248 -39.4687,-20.5 z m -28.375,110.09375 c 11.5097,0.3314 17.3043,12.53423 20.3813,21.97342 67.9888,150.34091 137.0509,300.21224 204.2437,450.90158 2.0315,11.02142 -8.1471,20.20577 -18.1295,22.4129 -151.6148,68.55137 -302.73714,138.24959 -454.74552,205.89962 -11.03226,1.9594 -20.02956,-8.32766 -22.28707,-18.19242 -68.46307,-151.5542 -138.11466,-302.58677 -205.83793,-454.46385 -1.97253,-11.02712 8.12757,-20.30632 18.12953,-22.44415 151.54104,-68.50104 302.5881,-138.15935 454.49549,-205.80585 1.2414,-0.19236 2.4942,-0.27006 3.75,-0.28125 z"
       id="path4010-8"
       inkscape:connector-curvature="0" />
    <path
       style="opacity:0.3;fill:#000000;fill-opacity:1;fill-rule:nonzero;stroke:none"
       d="m 655.24589,99.99989 c -4.4305,0.1211 -8.9125,1.14571 -13.2145,3.09934 L 68.93263,363.33092 c -17.20808,7.81453 -24.77657,27.98624 -16.96192,45.19398 l 260.26122,573.06771 c 7.81468,17.2077 27.95795,24.77619 45.16604,16.9618 L 930.49689,738.29445 c 17.208,-7.81452 24.7766,-27.95806 16.9619,-45.1658 L 687.19749,120.03288 c -5.8611,-12.9058 -18.6599,-20.39629 -31.9516,-20.03299 z m -31.1062,90.16257 c 10.6333,-0.29066 20.8668,5.70724 25.5556,16.03202 l 208.2203,458.47661 c 6.2517,13.76638 0.1856,29.86968 -13.5808,36.12137 L 385.85568,909.01161 c -13.76646,6.2517 -29.86984,0.1857 -36.12156,-13.5807 L 141.51386,436.95428 c -6.25173,-13.76638 -0.18565,-29.86967 13.5808,-36.12138 L 613.57369,192.61375 c 3.4416,-1.56292 7.0215,-2.3544 10.566,-2.45129 z"
       id="path4022-2"
       inkscape:export-filename="C:\Users\Madnester\Desktop\Sketches\256.png"
       inkscape:export-xdpi="23.039482"
       inkscape:export-ydpi="23.039482"
       inkscape:connector-curvature="0" />
    <path
       inkscape:connector-curvature="0"
       inkscape:export-ydpi="23.039482"
       inkscape:export-xdpi="23.039482"
       inkscape:export-filename="C:\Users\Madnester\Desktop\Sketches\256.png"
       id="path4021-8"
       d="m 655.24589,89.99989 c -4.4305,0.1211 -8.9125,1.14571 -13.2145,3.09934 L 68.93263,353.33092 c -17.20808,7.81453 -24.77657,27.98624 -16.96192,45.19398 l 260.26122,573.06771 c 7.81468,17.2077 27.95795,24.7762 45.16604,16.9618 L 930.49689,728.29445 c 17.208,-7.81452 24.7766,-27.95806 16.9619,-45.1658 L 687.19749,110.03288 c -5.8611,-12.9058 -18.6599,-20.39629 -31.9516,-20.03299 z m -31.1062,90.16257 c 10.6333,-0.29066 20.8668,5.70724 25.5556,16.03202 l 208.2203,458.47661 c 6.2517,13.76638 0.1856,29.86968 -13.5808,36.12137 L 385.85568,899.01161 c -13.76646,6.2517 -29.86984,0.1857 -36.12156,-13.58072 L 141.51386,426.95428 c -6.25173,-13.76638 -0.18565,-29.86967 13.5808,-36.12138 L 613.57369,182.61375 c 3.4416,-1.56292 7.0215,-2.3544 10.566,-2.45129 z"
       style="fill:url(#linearGradient4369);fill-opacity:1;fill-rule:nonzero;stroke:none" />
    <path
       inkscape:connector-curvature="0"
       style="fill:#ffffff;fill-opacity:1;fill-rule:nonzero;stroke:none;opacity:0.6"
       d="m 655.25,89.987183 c -4.43056,0.1211 -8.91673,1.17137 -13.21875,3.125 L 68.9375,353.33093 c -15.504455,7.04088 -23.159849,24.10238 -18.8125,40 2.594439,-9.40884 9.198075,-17.6339 18.8125,-22 L 642.03125,111.11218 c 4.30202,-1.95363 8.78819,-3.0039 13.21875,-3.125 13.29167,-0.36331 26.07647,7.12545 31.9375,20.03125 l 260.28125,573.125 c 0.77368,1.70359 1.36606,3.40992 1.84375,5.15625 2.04915,-7.42516 1.60479,-15.56274 -1.84375,-23.15625 L 687.1875,110.01843 C 681.32647,97.112633 668.54167,89.623874 655.25,89.987183 z M 140.59375,424.64343 c -2.24238,6.38984 -2.12859,13.62975 0.90625,20.3125 l 208.21875,458.46875 c 6.25172,13.76638 22.35854,19.84545 36.125,13.59375 l 458.5,-208.21875 c 13.00661,-5.90663 19.13527,-20.62855 14.5,-33.84375 -2.37477,6.77937 -7.41126,12.62457 -14.5,15.84375 l -458.5,208.21875 c -13.76646,6.2517 -29.87328,0.17263 -36.125,-13.59375 L 141.5,426.95593 c -0.3483,-0.76696 -0.63362,-1.53315 -0.90625,-2.3125 z"
       id="path4080" />
  </g>
</svg>
