<?xml version="1.0" encoding="UTF-8" standalone="no"?>
<svg
   xmlns:dc="http://purl.org/dc/elements/1.1/"
   xmlns:cc="http://creativecommons.org/ns#"
   xmlns:rdf="http://www.w3.org/1999/02/22-rdf-syntax-ns#"
   xmlns:svg="http://www.w3.org/2000/svg"
   xmlns="http://www.w3.org/2000/svg"
   xmlns:xlink="http://www.w3.org/1999/xlink"
   xmlns:sodipodi="http://sodipodi.sourceforge.net/DTD/sodipodi-0.dtd"
   xmlns:inkscape="http://www.inkscape.org/namespaces/inkscape"
   height="16"
   id="Layer_1"
   inkscape:export-filename="D:\Hobby\QutIM\Images\q_outmsgok2.png"
   inkscape:export-xdpi="90"
   inkscape:export-ydpi="90"
   inkscape:version="0.48.4 r9939"
   sodipodi:docname="mail-message.svg"
   style="enable-background:new 0 0 595.28 841.89"
   version="1.1"
   viewBox="0 0 15.999999 16"
   width="16"
   xml:space="preserve"><metadata
   id="metadata30"><rdf:RDF><cc:Work
       rdf:about=""><dc:format>image/svg+xml</dc:format><dc:type
         rdf:resource="http://purl.org/dc/dcmitype/StillImage" /></cc:Work></rdf:RDF></metadata><defs
   id="defs31"><radialGradient
     cx="25.706499"
     cy="-306.87061"
     gradientTransform="matrix(.28038,-2.47538,-1.47033,-.10639,-451.57769,42.62509)"
     gradientUnits="userSpaceOnUse"
     id="radialGradient3976"
     r="4.7227998">
	<stop
   id="stop3978"
   offset="0"
   style="stop-color:#707070" />
	
	<stop
   id="stop3980"
   offset="1"
   style="stop-opacity:0;stop-color:#707070" />
</radialGradient><linearGradient
     inkscape:collect="always"
     xlink:href="#radialGradient3976"
     id="linearGradient3026"
     gradientUnits="userSpaceOnUse"
     gradientTransform="matrix(1.01578,0,0,-1.07412,-312.00904,-394.95776)"
     x1="315.7207"
     y1="-379.52151"
     x2="319.02151"
     y2="-379.52151" /><linearGradient
     inkscape:collect="always"
     xlink:href="#radialGradient3976"
     id="linearGradient3029"
     gradientUnits="userSpaceOnUse"
     gradientTransform="matrix(1.01578,0,0,-1.07412,-312.00904,-394.95776)"
     x1="308.14651"
     y1="-377.9277"
     x2="311.9473"
     y2="-377.9277" /><radialGradient
     inkscape:collect="always"
     xlink:href="#radialGradient3976"
     id="radialGradient3032"
     gradientUnits="userSpaceOnUse"
     gradientTransform="matrix(0.28177755,-2.58175,-1.4776262,-0.11096,-453.36973,44.06675)"
     cx="25.706499"
     cy="-306.87061"
     r="4.7227998" /><linearGradient
     id="linearGradient4794"><stop
       id="stop4796"
       offset="0"
       style="stop-color:#646464;stop-opacity:1;" /><stop
       id="stop4798"
       offset="1"
       style="stop-color:#969696;stop-opacity:1;" /></linearGradient><linearGradient
     id="linearGradient3827"><stop
       id="stop3829"
       offset="0"
       style="stop-color:#dbdbdb;stop-opacity:1" /><stop
       id="stop3831"
       offset="1"
       style="stop-color:#f5f5f5;stop-opacity:1" /></linearGradient><linearGradient
     inkscape:collect="always"
     xlink:href="#linearGradient3827"
     id="linearGradient3924"
     x1="8.999999"
     y1="15"
     x2="8.999999"
     y2="3"
     gradientUnits="userSpaceOnUse" /><linearGradient
     inkscape:collect="always"
     xlink:href="#linearGradient4794"
     id="linearGradient3932"
     x1="8.999999"
     y1="15"
     x2="8.999999"
     y2="3"
     gradientUnits="userSpaceOnUse" /></defs><sodipodi:namedview
   id="namedview29"
   inkscape:current-layer="Layer_1"
   inkscape:cx="8"
   inkscape:cy="8"
   inkscape:pageopacity="0"
   inkscape:pageshadow="2"
   inkscape:window-height="848"
   inkscape:window-maximized="1"
   inkscape:window-width="1440"
   inkscape:window-x="-8"
   inkscape:window-y="-8"
   inkscape:zoom="39.4375"
   showgrid="true"><inkscape:grid
     id="grid3010"
     type="xygrid" /></sodipodi:namedview>








<rect
   height="12.000013"
   id="rect5314"
   inkscape:export-filename="D:\Hobby\QutIM\Images\th3.png"
   inkscape:export-xdpi="90"
   inkscape:export-ydpi="90"
   rx="1.0664759"
   style="opacity:0.07999998"
   width="16"
   x="-5e-007"
   y="4.00001" /><rect
   height="11.750012"
   id="rect5316"
   inkscape:export-filename="D:\Hobby\QutIM\Images\th3.png"
   inkscape:export-xdpi="90"
   inkscape:export-ydpi="90"
   rx="1.0561854"
   style="opacity:0.15"
   width="15.25"
   x="0.3999995"
   y="4.00001" /><rect
   height="11.4"
   id="rect5318"
   inkscape:export-filename="D:\Hobby\QutIM\Images\th3.png"
   inkscape:export-xdpi="90"
   inkscape:export-ydpi="90"
   rx="0.99982119"
   style="opacity:0.15"
   width="14.5"
   x="0.74999952"
   y="4" /><rect
   height="11.999998"
   id="rect3801"
   inkscape:export-filename="D:\Hobby\QutIM\Images\th3.png"
   inkscape:export-xdpi="90"
   inkscape:export-ydpi="90"
   rx="1"
   style="fill:url(#linearGradient3924);fill-opacity:1"
   width="13.99999"
   x="0.99999952"
   y="3" /><path
   d="M 2.5944063,4.000004 C 2.2699311,3.998904 2.00659,4.215901 2.0056493,4.485505 l -0.00565,1.054784 4.7373322,6.874354 c 0.2003285,0.293234 0.6489504,0.396348 1.0016403,0.228787 L 13.990517,9.6788651 14,8.2395468 8.1688569,11.003252 c -0.2840321,0.135337 -0.6395443,0.05369 -0.801312,-0.1826 L 2.6706029,4.000004 H 2.59442 z"
   id="path2995"
   inkscape:connector-curvature="0"
   inkscape:export-filename="D:\Hobby\QutIM\Images\th3.png"
   inkscape:export-xdpi="90"
   inkscape:export-ydpi="90"
   style="fill:url(#radialGradient3032)" /><path
   d="M 4.053437,9.5940095 1.010156,10.929138 0.999996,12.368456 4.860983,10.674571 4.053437,9.5940095 z"
   id="path3008"
   inkscape:connector-curvature="0"
   inkscape:export-filename="D:\Hobby\QutIM\Images\th3.png"
   inkscape:export-xdpi="90"
   inkscape:export-ydpi="90"
   style="opacity:0.51529996000000000;fill:url(#linearGradient3029);enable-background:new;fill-opacity:1.0" /><path
   d="m 10.103432,11.386713 -1.409904,0.616544 1.479993,1.988191 1.873102,0.0086 -1.943191,-2.613329 0,0 z"
   id="path3006"
   inkscape:connector-curvature="0"
   inkscape:export-filename="D:\Hobby\QutIM\Images\th3.png"
   inkscape:export-xdpi="90"
   inkscape:export-ydpi="90"
   style="opacity:0.51529996000000000;fill:url(#linearGradient3026);enable-background:new;fill-opacity:1.0" /><path
   d="m 1.9999995,3 c -0.554,0 -1,0.446 -1,1 l 0,10 c 0,0.554 0.446,1 1,1 L 14,15 c 0.554,0 1,-0.446 1,-1 L 15,4 C 15,3.446 14.554,3 14,3 z m 0.5,1 L 13.5,4 C 13.784681,4 14,4.215319 14,4.5 l 0,9 C 14,13.784681 13.784681,14 13.5,14 L 2.4999995,14 c -0.28468,0 -0.5,-0.215319 -0.5,-0.5 l 0,-9 c 0,-0.284681 0.21532,-0.5 0.5,-0.5 z"
   id="rect3025"
   inkscape:connector-curvature="0"
   inkscape:export-filename="D:\Hobby\QutIM\Images\th3.png"
   inkscape:export-xdpi="90"
   inkscape:export-ydpi="90"
   style="fill:url(#linearGradient3932);fill-opacity:1"
   sodipodi:nodetypes="ssssssssssssssssss" /><path
   inkscape:connector-curvature="0"
   style="opacity:0.5;fill:#ffffff;fill-opacity:1"
   d="m 2,3.00025 c -0.554,0 -1,0.446 -1,1 L 1,4.469 c 0,-0.554 0.446,-1 1,-1 l 12.000001,0 c 0.554,0 1,0.446 1,1 l 0,-0.46875 c 0,-0.554 -0.446,-1 -1,-1 L 2,3.00025 z M 2.65625,4.469 7.375,11.2815 c 0.1617677,0.23629 0.4972179,0.322837 0.78125,0.1875 l 5.843751,-2.75 0,-0.46875 -5.843751,2.75 C 7.8722179,11.135587 7.5367677,11.04904 7.375,10.81275 L 2.96875,4.469 l -0.3125,0 z M 4.0625,9.594 2,10.50025 2,10.969 l 2.0625,-0.90625 0.5625,0.75 0.25,-0.125 L 4.0625,9.594 z m 6.375,2.25 -0.25,0.125 1.843751,2.5 1.46875,0 c 0.284681,0 0.5,-0.215319 0.5,-0.5 l 0,-0.46875 c 0,0.284681 -0.215319,0.5 -0.5,0.5 l -1.46875,0 L 10.4375,11.844 z M 2,13.50025 2,13.969 c 0,0.284681 0.21532,0.5 0.5,0.5 l 7.6875,0 -0.34375,-0.46875 -7.34375,0 c -0.28468,0 -0.5,-0.215319 -0.5,-0.5 z"
   id="path3072" /></svg>