<?xml version="1.0" encoding="UTF-8" standalone="no"?>
<!-- Generator: Adobe Illustrator 15.0.2, SVG Export Plug-In . SVG Version: 6.00 Build 0)  -->

<svg
   xmlns:dc="http://purl.org/dc/elements/1.1/"
   xmlns:cc="http://creativecommons.org/ns#"
   xmlns:rdf="http://www.w3.org/1999/02/22-rdf-syntax-ns#"
   xmlns:svg="http://www.w3.org/2000/svg"
   xmlns="http://www.w3.org/2000/svg"
   xmlns:xlink="http://www.w3.org/1999/xlink"
   xmlns:sodipodi="http://sodipodi.sourceforge.net/DTD/sodipodi-0.dtd"
   xmlns:inkscape="http://www.inkscape.org/namespaces/inkscape"
   version="1.1"
   id="Layer_1"
   x="0px"
   y="0px"
   width="16"
   height="16"
   viewBox="0 0 15.999999 16"
   enable-background="new 0 0 595.28 841.89"
   xml:space="preserve"
   inkscape:version="0.48.2 r9819"
   sodipodi:docname="chat_theme - копия.svg"
   inkscape:export-filename="D:\Hobby\QutIM\Images\q_outmsgok2.png"
   inkscape:export-xdpi="90"
   inkscape:export-ydpi="90"><metadata
   id="metadata33"><rdf:RDF><cc:Work
       rdf:about=""><dc:format>image/svg+xml</dc:format><dc:type
         rdf:resource="http://purl.org/dc/dcmitype/StillImage" /><dc:title /></cc:Work></rdf:RDF></metadata><defs
   id="defs31"><linearGradient
     id="linearGradient4676"><stop
       style="stop-color:#f8f8f8;stop-opacity:1;"
       offset="0"
       id="stop4678" /><stop
       style="stop-color:#e4e4e4;stop-opacity:1;"
       offset="1"
       id="stop4680" /></linearGradient><linearGradient
     id="linearGradient3988"
     gradientUnits="userSpaceOnUse"
     x1="308.14651"
     y1="-377.9277"
     x2="311.9473"
     y2="-377.9277"
     gradientTransform="matrix(0.93586036,0,0,-1.0298652,-286.87581,-378.31196)">
	<stop
   offset="0"
   style="stop-color:#858585;stop-opacity:1;"
   id="stop3990" />
	
	<stop
   offset="1"
   style="stop-color:#858585;stop-opacity:0;"
   id="stop3992" />
</linearGradient><linearGradient
     id="linearGradient3982"
     gradientUnits="userSpaceOnUse"
     x1="315.7207"
     y1="-379.52151"
     x2="319.02151"
     y2="-379.52151"
     gradientTransform="matrix(0.93586036,0,0,-1.0298652,-286.87581,-378.31196)">
	<stop
   offset="0"
   style="stop-color:#858585;stop-opacity:1;"
   id="stop3984" />
	
	<stop
   offset="1"
   style="stop-color:#858585;stop-opacity:0;"
   id="stop3986" />
</linearGradient><radialGradient
     id="radialGradient3976"
     cx="25.706499"
     cy="-306.87061"
     r="4.7227998"
     gradientTransform="matrix(0.28038377,-2.4753835,-1.4703301,-0.10638504,-451.57769,42.625089)"
     gradientUnits="userSpaceOnUse">
	<stop
   offset="0"
   style="stop-color:#858585;stop-opacity:1;"
   id="stop3978" />
	
	<stop
   offset="1"
   style="stop-color:#858585;stop-opacity:0;"
   id="stop3980" />
</radialGradient><linearGradient
     gradientTransform="matrix(0.93586036,0,0,-1.0298652,-286.87581,-378.31196)"
     y2="-379.52151"
     x2="319.02151"
     y1="-379.52151"
     x1="315.7207"
     gradientUnits="userSpaceOnUse"
     id="linearGradient3946">
	<stop
   id="stop3948"
   style="stop-color:#3473e3;stop-opacity:1;"
   offset="0" />
	
	<stop
   id="stop3950"
   style="stop-color:#3473e3;stop-opacity:0;"
   offset="1" />
</linearGradient><linearGradient
     gradientTransform="matrix(0.93586036,0,0,-1.0298652,-286.87581,-378.31196)"
     y2="-377.9277"
     x2="311.9473"
     y1="-377.9277"
     x1="308.14651"
     gradientUnits="userSpaceOnUse"
     id="linearGradient3940">
	<stop
   id="stop3942"
   style="stop-color:#3473e3;stop-opacity:1;"
   offset="0" />
	
	<stop
   id="stop3944"
   style="stop-color:#3473e3;stop-opacity:0;"
   offset="1" />
</linearGradient><radialGradient
     gradientUnits="userSpaceOnUse"
     gradientTransform="matrix(0.28038377,-2.4753835,-1.4703301,-0.10638504,-451.57769,42.625089)"
     r="4.7227998"
     cy="-306.87061"
     cx="25.706499"
     id="radialGradient3934">
	<stop
   id="stop3936"
   style="stop-color:#3473e3;stop-opacity:1;"
   offset="0" />
	
	<stop
   id="stop3938"
   style="stop-color:#3473e3;stop-opacity:0;"
   offset="1" />
</radialGradient><radialGradient
     r="66.781225"
     fy="966.73462"
     fx="123.4697"
     cy="966.73462"
     cx="123.4697"
     gradientTransform="matrix(0.22177809,-2.4498993,1.1631692,0.10529632,-633.59145,1160.12)"
     gradientUnits="userSpaceOnUse"
     id="radialGradient3041"
     xlink:href="#linearGradient3772"
     inkscape:collect="always" /><linearGradient
     gradientTransform="translate(397.71845,-1.82357)"
     y2="950.92468"
     x2="100.71875"
     y1="950.92468"
     x1="60.9375"
     gradientUnits="userSpaceOnUse"
     id="linearGradient3037"
     xlink:href="#linearGradient3772"
     inkscape:collect="always" /><linearGradient
     gradientTransform="translate(397.71845,-1.82357)"
     y2="973.89337"
     x2="174.78125"
     y1="973.89337"
     x1="140.21875"
     gradientUnits="userSpaceOnUse"
     id="linearGradient3034"
     xlink:href="#linearGradient3772"
     inkscape:collect="always" /><linearGradient
     id="linearGradient3772"><stop
       style="stop-color:#858585;stop-opacity:1;"
       offset="0"
       id="stop3774" /><stop
       id="stop3780"
       offset="0.68615735"
       style="stop-color:#aaaaaa;stop-opacity:0.9955157;" /><stop
       style="stop-color:#858585;stop-opacity:0;"
       offset="1"
       id="stop3776" /></linearGradient><radialGradient
     inkscape:collect="always"
     xlink:href="#linearGradient3772"
     id="radialGradient3778"
     cx="123.4697"
     cy="966.73462"
     fx="123.4697"
     fy="966.73462"
     r="66.781225"
     gradientTransform="matrix(0.22177809,-2.4498993,1.1631692,0.10529632,-1031.3099,1161.9436)"
     gradientUnits="userSpaceOnUse" /><radialGradient
     inkscape:collect="always"
     xlink:href="#linearGradient3772"
     id="radialGradient2995"
     gradientUnits="userSpaceOnUse"
     gradientTransform="matrix(0.22177809,-2.4498993,1.1631692,0.10529632,-1031.3099,1161.9436)"
     cx="123.4697"
     cy="966.73462"
     fx="123.4697"
     fy="966.73462"
     r="66.781225" /><radialGradient
     inkscape:collect="always"
     xlink:href="#linearGradient3772"
     id="radialGradient2994"
     gradientUnits="userSpaceOnUse"
     gradientTransform="matrix(-0.22177809,2.4498993,-1.1631692,-0.10529632,1278.4685,-69.64819)"
     cx="123.4697"
     cy="966.73462"
     fx="123.4697"
     fy="966.73462"
     r="66.781225" /><radialGradient
     inkscape:collect="always"
     xlink:href="#linearGradient3772"
     id="radialGradient3001"
     gradientUnits="userSpaceOnUse"
     gradientTransform="matrix(-0.22177809,2.4498993,-1.1631692,-0.10529632,1278.4685,-69.64819)"
     cx="123.4697"
     cy="966.73462"
     fx="123.4697"
     fy="966.73462"
     r="66.781225" /><linearGradient
     inkscape:collect="always"
     xlink:href="#linearGradient3772"
     id="linearGradient3780"
     x1="165.03125"
     y1="1019.7371"
     x2="185.8125"
     y2="1019.7371"
     gradientUnits="userSpaceOnUse" /><linearGradient
     inkscape:collect="always"
     xlink:href="#linearGradient3772"
     id="linearGradient3782"
     x1="140.21875"
     y1="973.89337"
     x2="174.78125"
     y2="973.89337"
     gradientUnits="userSpaceOnUse" /><linearGradient
     inkscape:collect="always"
     xlink:href="#linearGradient3772"
     id="linearGradient3784"
     x1="60.9375"
     y1="950.92468"
     x2="100.71875"
     y2="950.92468"
     gradientUnits="userSpaceOnUse" /><linearGradient
     inkscape:collect="always"
     xlink:href="#linearGradient3772"
     id="linearGradient3786"
     x1="106.9375"
     y1="932.23633"
     x2="146.4375"
     y2="932.23633"
     gradientUnits="userSpaceOnUse" /><radialGradient
     id="radialGradient3976-1"
     cx="25.706499"
     cy="-306.87061"
     r="4.7227998"
     gradientTransform="matrix(0.28038377,-2.4753835,-1.4703301,-0.10638504,-451.57769,42.625089)"
     gradientUnits="userSpaceOnUse"><stop
       offset="0"
       style="stop-color:#858585;stop-opacity:1;"
       id="stop3978-8" /><stop
       offset="1"
       style="stop-color:#858585;stop-opacity:0;"
       id="stop3980-4" /></radialGradient><linearGradient
     id="linearGradient3982-6"
     gradientUnits="userSpaceOnUse"
     x1="315.7207"
     y1="-379.52151"
     x2="319.02151"
     y2="-379.52151"
     gradientTransform="matrix(0.93586036,0,0,-1.0298652,-286.87581,-378.31196)"><stop
       offset="0"
       style="stop-color:#858585;stop-opacity:1;"
       id="stop3984-3" /><stop
       offset="1"
       style="stop-color:#858585;stop-opacity:0;"
       id="stop3986-7" /></linearGradient><radialGradient
     id="radialGradient3111"
     cx="25.706499"
     cy="-306.87061"
     r="4.7227998"
     gradientTransform="matrix(0.28038377,-2.4753835,-1.4703301,-0.10638504,-451.57769,42.625089)"
     gradientUnits="userSpaceOnUse"><stop
       offset="0"
       style="stop-color:#858585;stop-opacity:1;"
       id="stop3113" /><stop
       offset="1"
       style="stop-color:#858585;stop-opacity:0;"
       id="stop3115" /></radialGradient><radialGradient
     id="radialGradient3118"
     cx="25.706499"
     cy="-306.87061"
     r="4.7227998"
     gradientTransform="matrix(0.28038377,-2.4753835,-1.4703301,-0.10638504,-451.57769,42.625089)"
     gradientUnits="userSpaceOnUse"><stop
       offset="0"
       style="stop-color:#858585;stop-opacity:1;"
       id="stop3120" /><stop
       offset="1"
       style="stop-color:#858585;stop-opacity:0;"
       id="stop3122" /></radialGradient><radialGradient
     id="radialGradient3125"
     cx="25.706499"
     cy="-306.87061"
     r="4.7227998"
     gradientTransform="matrix(0.28038377,-2.4753835,-1.4703301,-0.10638504,-451.57769,42.625089)"
     gradientUnits="userSpaceOnUse"><stop
       offset="0"
       style="stop-color:#858585;stop-opacity:1;"
       id="stop3127" /><stop
       offset="1"
       style="stop-color:#858585;stop-opacity:0;"
       id="stop3129" /></radialGradient><radialGradient
     id="radialGradient3132"
     cx="25.706499"
     cy="-306.87061"
     r="4.7227998"
     gradientTransform="matrix(0.28038377,-2.4753835,-1.4703301,-0.10638504,-451.57769,42.625089)"
     gradientUnits="userSpaceOnUse"><stop
       offset="0"
       style="stop-color:#858585;stop-opacity:1;"
       id="stop3134" /><stop
       offset="1"
       style="stop-color:#858585;stop-opacity:0;"
       id="stop3136" /></radialGradient><radialGradient
     inkscape:collect="always"
     xlink:href="#radialGradient3976-1"
     id="radialGradient4067"
     gradientUnits="userSpaceOnUse"
     gradientTransform="matrix(0.30432818,-2.5817495,-1.5958944,-0.11095635,-526.4676,27.347392)"
     cx="25.706499"
     cy="-306.87061"
     r="4.7227998" /><linearGradient
     inkscape:collect="always"
     xlink:href="#radialGradient3976-1"
     id="linearGradient4069"
     gradientUnits="userSpaceOnUse"
     gradientTransform="matrix(1.0157816,0,0,-1.074118,-347.70039,-411.67712)"
     x1="308.14651"
     y1="-377.9277"
     x2="311.9473"
     y2="-377.9277" /><linearGradient
     inkscape:collect="always"
     xlink:href="#radialGradient3976-1"
     id="linearGradient4071"
     gradientUnits="userSpaceOnUse"
     gradientTransform="matrix(1.0157816,0,0,-1.074118,-347.70039,-411.67712)"
     x1="315.7207"
     y1="-379.52151"
     x2="319.02151"
     y2="-379.52151" /><linearGradient
     gradientTransform="matrix(0.93586036,0,0,-1.0298652,-286.87581,-378.31196)"
     y2="-379.52151"
     x2="319.02151"
     y1="-379.52151"
     x1="315.7207"
     gradientUnits="userSpaceOnUse"
     id="linearGradient3946-7"><stop
       id="stop3948-2"
       style="stop-color:#3473e3;stop-opacity:1;"
       offset="0" /><stop
       id="stop3950-6"
       style="stop-color:#3473e3;stop-opacity:0;"
       offset="1" /></linearGradient><linearGradient
     id="linearGradient3982-1"
     gradientUnits="userSpaceOnUse"
     x1="315.7207"
     y1="-379.52151"
     x2="319.02151"
     y2="-379.52151"
     gradientTransform="matrix(0.93586036,0,0,-1.0298652,-286.87581,-378.31196)"><stop
       offset="0"
       style="stop-color:#858585;stop-opacity:1;"
       id="stop3984-6" /><stop
       offset="1"
       style="stop-color:#858585;stop-opacity:0;"
       id="stop3986-5" /></linearGradient><radialGradient
     id="radialGradient3976-5"
     cx="25.706499"
     cy="-306.87061"
     r="4.7227998"
     gradientTransform="matrix(0.28038377,-2.4753835,-1.4703301,-0.10638504,-451.57769,42.625089)"
     gradientUnits="userSpaceOnUse"><stop
       offset="0"
       style="stop-color:#858585;stop-opacity:1;"
       id="stop3978-4" /><stop
       offset="1"
       style="stop-color:#858585;stop-opacity:0;"
       id="stop3980-1" /></radialGradient><radialGradient
     inkscape:collect="always"
     xlink:href="#radialGradient3976-5"
     id="radialGradient4216"
     gradientUnits="userSpaceOnUse"
     gradientTransform="matrix(0.30432818,-2.5792678,-1.5958944,-0.11084969,-490.77625,8.0397668)"
     cx="25.706499"
     cy="-306.87061"
     r="4.7227998" /><linearGradient
     inkscape:collect="always"
     xlink:href="#linearGradient3982-1"
     id="linearGradient4218"
     gradientUnits="userSpaceOnUse"
     gradientTransform="matrix(1.0157816,0,0,-1.0730855,-312.00904,-430.56273)"
     x1="308.14651"
     y1="-377.9277"
     x2="311.9473"
     y2="-377.9277" /><linearGradient
     inkscape:collect="always"
     xlink:href="#linearGradient3946-7"
     id="linearGradient4220"
     gradientUnits="userSpaceOnUse"
     gradientTransform="matrix(1.0157816,0,0,-1.0730855,-312.00904,-430.56273)"
     x1="315.7207"
     y1="-379.52151"
     x2="319.02151"
     y2="-379.52151" /><linearGradient
     inkscape:collect="always"
     xlink:href="#linearGradient3982"
     id="linearGradient4470"
     gradientUnits="userSpaceOnUse"
     gradientTransform="matrix(1.0157816,0,0,-1.0739259,-294.00904,-430.88425)"
     x1="315.7207"
     y1="-379.52151"
     x2="319.02151"
     y2="-379.52151" /><linearGradient
     inkscape:collect="always"
     xlink:href="#linearGradient3988"
     id="linearGradient4473"
     gradientUnits="userSpaceOnUse"
     gradientTransform="matrix(1.0157816,0,0,-1.0739259,-294.00904,-430.88425)"
     x1="308.14651"
     y1="-377.9277"
     x2="311.9473"
     y2="-377.9277" /><radialGradient
     inkscape:collect="always"
     xlink:href="#radialGradient3976"
     id="radialGradient4476"
     gradientUnits="userSpaceOnUse"
     gradientTransform="matrix(0.30432818,-2.5812877,-1.5958944,-0.1109365,-472.77625,8.0617268)"
     cx="25.706499"
     cy="-306.87061"
     r="4.7227998" /><radialGradient
     r="11.304"
     fy="31.675301"
     fx="264.71329"
     cy="32.850101"
     cx="265.40311"
     gradientTransform="matrix(3.3801264,1.995,-1.0468431,1.7742307,-840.51883,-565.61439)"
     gradientUnits="userSpaceOnUse"
     id="radialGradient2999"
     xlink:href="#SVGID_1_"
     inkscape:collect="always" /><radialGradient
     id="SVGID_1_"
     cx="265.40311"
     cy="32.850101"
     r="11.304"
     fx="264.71329"
     fy="31.675301"
     gradientTransform="matrix(4.3265618,2.5536,-1.3399592,2.2710153,-1075.8641,-723.98641)"
     gradientUnits="userSpaceOnUse"><stop
       offset="0"
       style="stop-color:#0077AA"
       id="stop5" /><stop
       offset="1"
       style="stop-color:#009BDD"
       id="stop7" /></radialGradient><linearGradient
     id="linearGradient4094"><stop
       style="stop-color:#aaaaaa;stop-opacity:1;"
       offset="0"
       id="stop4096" /><stop
       style="stop-color:#f0f0f0;stop-opacity:1;"
       offset="1"
       id="stop4098" /></linearGradient><linearGradient
     id="linearGradient3270"><stop
       style="stop-color:#aaaaaa;stop-opacity:1;"
       offset="0"
       id="stop3272" /><stop
       style="stop-color:#f0f0f0;stop-opacity:1;"
       offset="1"
       id="stop3274" /></linearGradient><linearGradient
     inkscape:collect="always"
     xlink:href="#linearGradient3982"
     id="linearGradient4953"
     gradientUnits="userSpaceOnUse"
     gradientTransform="matrix(1.0157816,0,0,-1.074118,-294.00904,-394.95776)"
     x1="315.7207"
     y1="-379.52151"
     x2="319.02151"
     y2="-379.52151" /><linearGradient
     inkscape:collect="always"
     xlink:href="#linearGradient3988"
     id="linearGradient4956"
     gradientUnits="userSpaceOnUse"
     gradientTransform="matrix(1.0157816,0,0,-1.074118,-294.00904,-394.95776)"
     x1="308.14651"
     y1="-377.9277"
     x2="311.9473"
     y2="-377.9277" /><radialGradient
     inkscape:collect="always"
     xlink:href="#radialGradient3976"
     id="radialGradient4959"
     gradientUnits="userSpaceOnUse"
     gradientTransform="matrix(0.30432818,-2.5817495,-1.5958944,-0.11095635,-472.77625,44.066747)"
     cx="25.706499"
     cy="-306.87061"
     r="4.7227998" /><linearGradient
     inkscape:collect="always"
     xlink:href="#linearGradient3940"
     id="linearGradient4970"
     gradientUnits="userSpaceOnUse"
     gradientTransform="matrix(1.0157816,0,0,-1.0730855,-312.00904,-394.56273)"
     x1="308.14651"
     y1="-377.9277"
     x2="311.9473"
     y2="-377.9277" /><radialGradient
     inkscape:collect="always"
     xlink:href="#radialGradient3934"
     id="radialGradient4973"
     gradientUnits="userSpaceOnUse"
     gradientTransform="matrix(0.30432818,-2.5792678,-1.5958944,-0.11084969,-490.77625,44.039768)"
     cx="25.706499"
     cy="-306.87061"
     r="4.7227998" /><linearGradient
     inkscape:collect="always"
     xlink:href="#linearGradient3946"
     id="linearGradient4982"
     gradientUnits="userSpaceOnUse"
     gradientTransform="matrix(1.0157816,0,0,-1.074118,-330.00904,-394.95776)"
     x1="315.7207"
     y1="-379.52151"
     x2="319.02151"
     y2="-379.52151" /><linearGradient
     inkscape:collect="always"
     xlink:href="#linearGradient3940"
     id="linearGradient4985"
     gradientUnits="userSpaceOnUse"
     gradientTransform="matrix(1.0157816,0,0,-1.074118,-330.00904,-394.95776)"
     x1="308.14651"
     y1="-377.9277"
     x2="311.9473"
     y2="-377.9277" /><radialGradient
     inkscape:collect="always"
     xlink:href="#radialGradient3934"
     id="radialGradient4988"
     gradientUnits="userSpaceOnUse"
     gradientTransform="matrix(0.30432818,-2.5817495,-1.5958944,-0.11095635,-508.77625,44.066747)"
     cx="25.706499"
     cy="-306.87061"
     r="4.7227998" /><linearGradient
     inkscape:collect="always"
     xlink:href="#linearGradient3982"
     id="linearGradient4997"
     gradientUnits="userSpaceOnUse"
     gradientTransform="matrix(1.0157816,0,0,-1.074118,-366.00904,-394.95776)"
     x1="315.7207"
     y1="-379.52151"
     x2="319.02151"
     y2="-379.52151" /><linearGradient
     inkscape:collect="always"
     xlink:href="#linearGradient3988"
     id="linearGradient5000"
     gradientUnits="userSpaceOnUse"
     gradientTransform="matrix(1.0157816,0,0,-1.074118,-366.00904,-394.95776)"
     x1="308.14651"
     y1="-377.9277"
     x2="311.9473"
     y2="-377.9277" /><radialGradient
     inkscape:collect="always"
     xlink:href="#radialGradient3976"
     id="radialGradient5003"
     gradientUnits="userSpaceOnUse"
     gradientTransform="matrix(0.30432818,-2.5817495,-1.5958944,-0.11095635,-544.77625,44.066747)"
     cx="25.706499"
     cy="-306.87061"
     r="4.7227998" /><linearGradient
     inkscape:collect="always"
     xlink:href="#path3006_1_"
     id="linearGradient5012"
     gradientUnits="userSpaceOnUse"
     gradientTransform="matrix(1.0157816,0,0,-1.074118,-348.00904,-394.95776)"
     x1="315.7207"
     y1="-379.52151"
     x2="319.02151"
     y2="-379.52151" /><linearGradient
     inkscape:collect="always"
     xlink:href="#path3008_1_"
     id="linearGradient5015"
     gradientUnits="userSpaceOnUse"
     gradientTransform="matrix(1.0157816,0,0,-1.074118,-348.00904,-394.95776)"
     x1="308.14651"
     y1="-377.9277"
     x2="311.9473"
     y2="-377.9277" /><radialGradient
     inkscape:collect="always"
     xlink:href="#path2995_1_"
     id="radialGradient5018"
     gradientUnits="userSpaceOnUse"
     gradientTransform="matrix(0.30432818,-2.5817495,-1.5958944,-0.11095635,-526.77625,44.066747)"
     cx="25.706499"
     cy="-306.87061"
     r="4.7227998" /><linearGradient
     inkscape:collect="always"
     xlink:href="#radialGradient3976-1"
     id="linearGradient5029"
     gradientUnits="userSpaceOnUse"
     gradientTransform="matrix(1.0157816,0,0,-1.074118,-348.00904,-412.95804)"
     x1="315.7207"
     y1="-379.52151"
     x2="319.02151"
     y2="-379.52151" /><linearGradient
     inkscape:collect="always"
     xlink:href="#radialGradient3976-1"
     id="linearGradient5032"
     gradientUnits="userSpaceOnUse"
     gradientTransform="matrix(1.0157816,0,0,-1.074118,-348.00904,-412.95804)"
     x1="308.14651"
     y1="-377.9277"
     x2="311.9473"
     y2="-377.9277" /><radialGradient
     inkscape:collect="always"
     xlink:href="#radialGradient3976-1"
     id="radialGradient5035"
     gradientUnits="userSpaceOnUse"
     gradientTransform="matrix(0.30432818,-2.5817495,-1.5958944,-0.11095635,-526.77625,26.06647)"
     cx="25.706499"
     cy="-306.87061"
     r="4.7227998" /><linearGradient
     inkscape:collect="always"
     xlink:href="#radialGradient3976-1"
     id="linearGradient5045"
     gradientUnits="userSpaceOnUse"
     gradientTransform="matrix(1.0157816,0,0,-1.074118,-330.00904,-412.95804)"
     x1="315.7207"
     y1="-379.52151"
     x2="319.02151"
     y2="-379.52151" /><linearGradient
     inkscape:collect="always"
     xlink:href="#linearGradient3982-6"
     id="linearGradient5048"
     gradientUnits="userSpaceOnUse"
     gradientTransform="matrix(1.0157816,0,0,-1.074118,-330.00904,-412.95804)"
     x1="308.14651"
     y1="-377.9277"
     x2="311.9473"
     y2="-377.9277" /><radialGradient
     inkscape:collect="always"
     xlink:href="#radialGradient3976-1"
     id="radialGradient5051"
     gradientUnits="userSpaceOnUse"
     gradientTransform="matrix(0.30432818,-2.5817495,-1.5958944,-0.11095635,-508.77625,26.06647)"
     cx="25.706499"
     cy="-306.87061"
     r="4.7227998" /><linearGradient
     inkscape:collect="always"
     xlink:href="#linearGradient3982-1"
     id="linearGradient5069"
     gradientUnits="userSpaceOnUse"
     gradientTransform="matrix(1.0157816,0,0,-1.0730855,-312.00904,-412.56273)"
     x1="308.14651"
     y1="-377.9277"
     x2="311.9473"
     y2="-377.9277" /><radialGradient
     inkscape:collect="always"
     xlink:href="#radialGradient3976-5"
     id="radialGradient5072"
     gradientUnits="userSpaceOnUse"
     gradientTransform="matrix(0.30432818,-2.5792678,-1.5958944,-0.11084969,-490.77625,26.039766)"
     cx="25.706499"
     cy="-306.87061"
     r="4.7227998" /><linearGradient
     inkscape:collect="always"
     xlink:href="#linearGradient3988"
     id="linearGradient5092"
     gradientUnits="userSpaceOnUse"
     gradientTransform="matrix(1.0157816,0,0,-1.0739259,-294.00904,-430.88425)"
     x1="308.14651"
     y1="-377.9277"
     x2="311.9473"
     y2="-377.9277" /><radialGradient
     inkscape:collect="always"
     xlink:href="#radialGradient3976"
     id="radialGradient5095"
     gradientUnits="userSpaceOnUse"
     gradientTransform="matrix(0.30432818,-2.5812877,-1.5958944,-0.1109365,-472.77625,8.0617268)"
     cx="25.706499"
     cy="-306.87061"
     r="4.7227998" /><radialGradient
     inkscape:collect="always"
     xlink:href="#radialGradient3976"
     id="radialGradient5418"
     gradientUnits="userSpaceOnUse"
     gradientTransform="matrix(0.30432818,-2.5812877,-1.5958944,-0.1109365,-490.77625,5.55967)"
     cx="25.706499"
     cy="-306.87061"
     r="4.7227998" /><linearGradient
     inkscape:collect="always"
     xlink:href="#linearGradient3988"
     id="linearGradient5420"
     gradientUnits="userSpaceOnUse"
     gradientTransform="matrix(1.0157816,0,0,-1.0739259,-312.00904,-433.38632)"
     x1="308.14651"
     y1="-377.9277"
     x2="311.9473"
     y2="-377.9277" /></defs><sodipodi:namedview
   pagecolor="#ffffff"
   bordercolor="#666666"
   borderopacity="1"
   objecttolerance="10"
   gridtolerance="10"
   guidetolerance="10"
   inkscape:pageopacity="0"
   inkscape:pageshadow="2"
   inkscape:window-width="1440"
   inkscape:window-height="848"
   id="namedview29"
   showgrid="true"
   inkscape:zoom="5.6568543"
   inkscape:cx="-4.9763597"
   inkscape:cy="45.408726"
   inkscape:window-x="-8"
   inkscape:window-y="-8"
   inkscape:window-maximized="1"
   inkscape:current-layer="Layer_1"><inkscape:grid
     type="xygrid"
     id="grid3010"
     empspacing="5"
     visible="true"
     enabled="true"
     snapvisiblegridlinesonly="true" /></sodipodi:namedview>


<radialGradient
   id="path2995_1_"
   cx="25.706499"
   cy="-306.87061"
   r="4.7227998"
   gradientTransform="matrix(0.28038377,-2.4753835,-1.4703301,-0.10638504,-451.57769,42.625089)"
   gradientUnits="userSpaceOnUse">
	<stop
   offset="0"
   style="stop-color:#d63434;stop-opacity:1;"
   id="stop6" />
	
	<stop
   offset="1"
   style="stop-color:#d63434;stop-opacity:0;"
   id="stop10" />
</radialGradient>

<linearGradient
   id="path3008_1_"
   gradientUnits="userSpaceOnUse"
   x1="308.14651"
   y1="-377.9277"
   x2="311.9473"
   y2="-377.9277"
   gradientTransform="matrix(0.93586036,0,0,-1.0298652,-286.87581,-378.31196)">
	<stop
   offset="0"
   style="stop-color:#d63434;stop-opacity:1;"
   id="stop14" />
	
	<stop
   offset="1"
   style="stop-color:#d63434;stop-opacity:0;"
   id="stop18" />
</linearGradient>

<linearGradient
   id="path3006_1_"
   gradientUnits="userSpaceOnUse"
   x1="315.7207"
   y1="-379.52151"
   x2="319.02151"
   y2="-379.52151"
   gradientTransform="matrix(0.93586036,0,0,-1.0298652,-286.87581,-378.31196)">
	<stop
   offset="0"
   style="stop-color:#d63434;stop-opacity:1;"
   id="stop22" />
	
	<stop
   offset="1"
   style="stop-color:#d63434;stop-opacity:0;"
   id="stop26" />
</linearGradient>

<g
   id="g5450"
   transform="translate(-17.99961,18)"><g
     id="g5352"
     transform="matrix(1,0,0,1.0001789,-173.625,-20.847123)"><rect
       inkscape:export-ydpi="90"
       inkscape:export-xdpi="90"
       inkscape:export-filename="D:\Hobby\QutIM\Images\th3.png"
       ry="0.99982113"
       y="6.8458977"
       x="192.625"
       height="11.997853"
       width="15"
       id="rect5354"
       style="opacity:0.07999998;fill:#000000;fill-opacity:1" /><rect
       inkscape:export-ydpi="90"
       inkscape:export-xdpi="90"
       inkscape:export-filename="D:\Hobby\QutIM\Images\th3.png"
       style="opacity:0.15;fill:#000000;fill-opacity:1"
       id="rect5356"
       width="14.75"
       height="11.747898"
       x="192.625"
       y="6.8458977"
       ry="1.0215564" /><rect
       inkscape:export-ydpi="90"
       inkscape:export-xdpi="90"
       inkscape:export-filename="D:\Hobby\QutIM\Images\th3.png"
       ry="0.99982113"
       y="6.8458977"
       x="192.625"
       height="11.497943"
       width="14.5"
       id="rect5358"
       style="opacity:0.15;fill:#000000;fill-opacity:1" /><rect
       inkscape:export-ydpi="90"
       inkscape:export-xdpi="90"
       inkscape:export-filename="D:\Hobby\QutIM\Images\th3.png"
       style="opacity:0.3;fill:#000000;fill-opacity:1"
       id="rect5360"
       width="14.25"
       height="11.247988"
       x="192.625"
       y="6.8458977"
       ry="0.97808588" /></g><g
     transform="matrix(0.99940004,0,0,0.99950272,0.01040883,17.981266)"
     id="g5234"><rect
       style="fill:#e6e6e6;fill-opacity:1"
       id="rect4446"
       width="15"
       height="11.997853"
       x="18"
       y="-32.997673"
       ry="0.99982113"
       inkscape:export-filename="D:\Hobby\QutIM\Images\th3.png"
       inkscape:export-xdpi="90"
       inkscape:export-ydpi="90" /><path
       id="path4448"
       connector-curvature="0"
       d="m 19.681586,-31.997849 c -0.350444,-0.0011 -0.634862,0.215858 -0.635878,0.485414 l -0.0061,1.054595 5.116491,6.873124 c 0.216361,0.293182 0.700889,0.396277 1.081807,0.228746 l 6.751897,-2.964034 0.01019,-1.439061 -6.297845,2.763211 c -0.306766,0.135313 -0.690731,0.05368 -0.865446,-0.182567 l -5.07282,-6.819428 h -0.08228 z"
       inkscape:connector-curvature="0"
       style="fill:url(#radialGradient5095);fill-opacity:1"
       inkscape:export-filename="D:\Hobby\QutIM\Images\th3.png"
       inkscape:export-xdpi="90"
       inkscape:export-ydpi="90" /><path
       id="path4450"
       enable-background="new    "
       d="m 22.053436,-26.404845 -3.04328,1.33489 -0.01016,1.439061 3.860986,-1.693582 -0.807546,-1.080369 z"
       inkscape:connector-curvature="0"
       style="opacity:0.51529996;fill:url(#linearGradient5092);fill-opacity:1"
       inkscape:export-filename="D:\Hobby\QutIM\Images\th3.png"
       inkscape:export-xdpi="90"
       inkscape:export-ydpi="90" /><path
       style="fill:#858585;fill-opacity:1"
       d="m 19,-32.997675 c -0.554,0 -1,0.445921 -1,0.999822 l 0,9.998211 c 0,0.553901 0.446,0.999821 1,0.999821 l 13,0 c 0.554,0 1,-0.44592 1,-0.999821 l 0,-9.998211 c 0,-0.553901 -0.446,-0.999822 -1,-0.999822 l -13,0 z m 0.5,0.999822 12,0 c 0.284682,0 0.5,0.21528 0.5,0.49991 l 0,8.99839 c 0,0.28463 -0.215318,0.499911 -0.5,0.499911 l -12,0 c -0.28468,0 -0.5,-0.215281 -0.5,-0.499911 l 0,-8.99839 c 0,-0.28463 0.21532,-0.49991 0.5,-0.49991 z"
       id="path4454"
       inkscape:export-filename="D:\Hobby\QutIM\Images\th3.png"
       inkscape:export-xdpi="90"
       inkscape:export-ydpi="90"
       inkscape:connector-curvature="0" /><path
       inkscape:connector-curvature="0"
       style="font-size:medium;font-style:normal;font-variant:normal;font-weight:normal;font-stretch:normal;text-indent:0;text-align:start;text-decoration:none;line-height:normal;letter-spacing:normal;word-spacing:normal;text-transform:none;direction:ltr;block-progression:tb;writing-mode:lr-tb;text-anchor:start;baseline-shift:baseline;color:#000000;fill:#e6e6e6;fill-opacity:1;stroke:none;stroke-width:2;marker:none;visibility:visible;display:inline;overflow:visible;enable-background:accumulate;font-family:Sans;-inkscape-font-specification:Sans"
       d="m 26.53125,-32 a 0.99866873,0.99678994 0 0 0 -0.125,0.03125 0.99866873,0.99678994 0 0 0 -0.09375,0.03125 c -0.447177,0.127147 -0.90248,0.306238 -1.3125,0.53125 a 0.99866873,0.99678994 0 0 0 -0.3125,1.46875 c -0.222877,0.185918 -0.435414,0.374109 -0.625,0.59375 a 0.99866873,0.99678994 0 0 0 -1.46875,0.3125 c -0.241667,0.424678 -0.426972,0.896027 -0.5625,1.375 A 0.99866873,0.99678994 0 0 0 22.75,-26.4375 c -0.01331,0.148112 -0.0625,0.284201 -0.0625,0.4375 0,0.153297 0.04919,0.289387 0.0625,0.4375 a 0.99866873,0.99678994 0 0 0 -0.71875,1.25 c 0.127372,0.446359 0.305839,0.90323 0.53125,1.3125 a 0.99866873,0.99678994 0 0 0 1.46875,0.3125 c 0.186327,0.222514 0.373512,0.435708 0.59375,0.625 a 0.99866873,0.99678994 0 0 0 0.3125,1.46875 c 0.425451,0.241237 0.895139,0.427212 1.375,0.5625 a 0.99866873,0.99678994 0 0 0 1.25,-0.71875 c 0.148387,0.01328 0.283918,0.0625 0.4375,0.0625 0.153579,0 0.289112,-0.04922 0.4375,-0.0625 a 0.99866873,0.99678994 0 0 0 1.25,0.71875 c 0.447176,-0.127146 0.90248,-0.30624 1.3125,-0.53125 a 0.99866873,0.99678994 0 0 0 0.3125,-1.46875 c 0.222877,-0.185918 0.435415,-0.374108 0.625,-0.59375 a 0.99866873,0.99678994 0 0 0 1.46875,-0.3125 c 0.241667,-0.424679 0.426971,-0.896029 0.5625,-1.375 a 0.99866873,0.99678994 0 0 0 -0.71875,-1.25 c 0.01331,-0.148112 0.0625,-0.284201 0.0625,-0.4375 0,-0.153296 -0.04919,-0.289388 -0.0625,-0.4375 a 0.99866873,0.99678994 0 0 0 0.71875,-1.21875 c -0.127374,-0.446355 -0.305838,-0.90323 -0.53125,-1.3125 a 0.99866873,0.99678994 0 0 0 -1.46875,-0.3125 c -0.186327,-0.222514 -0.373513,-0.435708 -0.59375,-0.625 A 0.99866873,0.99678994 0 0 0 31.0625,-31.375 c -0.425454,-0.241238 -0.895146,-0.427212 -1.375,-0.5625 a 0.99866873,0.99678994 0 0 0 -1.25,0.71875 c -0.148388,-0.01328 -0.283918,-0.0625 -0.4375,-0.0625 -0.153579,0 -0.289113,0.04922 -0.4375,0.0625 A 0.99866873,0.99678994 0 0 0 26.625,-32 0.99866873,0.99678994 0 0 0 26.53125,-32 z M 28,-27.125 c 0.633515,0 1.125,0.492501 1.125,1.125 0,0.632501 -0.491485,1.125 -1.125,1.125 -0.633525,0 -1.125,-0.492497 -1.125,-1.125 0,-0.632501 0.491475,-1.125 1.125,-1.125 z"
       id="path5231" /><path
       d="m 32.311568,-25.988699 c 0,-0.349607 -0.04608,-0.68695 -0.124426,-1.012024 0.214292,-0.210838 0.492332,-0.358042 0.805705,-0.40251 -0.108298,-0.379509 -0.255,-0.742917 -0.441641,-1.081791 -0.255767,0.190904 -0.560689,0.272172 -0.864845,0.272172 -0.353317,-0.581913 -0.839504,-1.072591 -1.419397,-1.4314 0.0046,-0.301307 0.09831,-0.601081 0.29033,-0.852553 -0.355615,-0.201638 -0.738116,-0.361875 -1.140584,-0.475345 -0.04455,0.312808 -0.192017,0.590347 -0.403239,0.804253 -0.325662,-0.0782 -0.663612,-0.124204 -1.013851,-0.124204 -0.35024,0 -0.68819,0.04599 -1.013855,0.124204 -0.211217,-0.213906 -0.358687,-0.491445 -0.403236,-0.804253 -0.380196,0.108102 -0.744261,0.254539 -1.083747,0.440844 0.19125,0.255305 0.272665,0.55968 0.272665,0.863286 -0.582967,0.352676 -1.074532,0.837987 -1.433989,1.416069 -0.301851,-0.0077 -0.602167,-0.09813 -0.854095,-0.289809 -0.202002,0.354976 -0.362528,0.736785 -0.476203,1.138527 0.313371,0.04448 0.591413,0.191672 0.805702,0.40251 -0.07834,0.325074 -0.124426,0.662417 -0.124426,1.012024 0,0.349608 0.04608,0.686951 0.124426,1.012024 -0.214291,0.210839 -0.492332,0.358042 -0.805702,0.40251 0.108295,0.379508 0.254999,0.742917 0.44164,1.081793 0.255766,-0.190906 0.560689,-0.272174 0.864845,-0.272174 0.353317,0.581914 0.839506,1.072592 1.419399,1.431401 -0.0046,0.301307 -0.09831,0.60108 -0.290329,0.852553 0.355614,0.201638 0.738112,0.361875 1.140583,0.475344 0.04455,-0.312807 0.192016,-0.590347 0.403236,-0.804252 0.325664,0.0782 0.663617,0.124204 1.013855,0.124204 0.350241,0 0.688185,-0.04599 1.013849,-0.124204 0.21122,0.213905 0.35869,0.491445 0.403238,0.804252 0.380197,-0.108102 0.74426,-0.254538 1.083749,-0.440843 -0.19125,-0.255306 -0.272666,-0.55968 -0.272666,-0.863287 0.582966,-0.352675 1.074531,-0.837988 1.433988,-1.416068 0.301851,0.0077 0.602169,0.09813 0.854096,0.289808 0.202002,-0.354975 0.362527,-0.736785 0.476203,-1.138527 -0.313373,-0.04448 -0.591413,-0.191671 -0.805704,-0.40251 0.07834,-0.325073 0.124426,-0.662416 0.124426,-1.012024 z m -2.188232,0 c 0,1.170728 -0.950105,2.119117 -2.122946,2.119117 -1.172848,0 -2.122948,-0.948389 -2.122948,-2.119117 0,-1.170728 0.9501,-2.119116 2.122948,-2.119116 1.172841,0 2.122946,0.948388 2.122946,2.119116 z"
       id="path9"
       inkscape:connector-curvature="0"
       style="fill:#d63434;fill-opacity:1"
       inkscape:export-filename="D:\Hobby\QutIM\settings.png"
       inkscape:export-xdpi="90"
       inkscape:export-ydpi="90" /></g></g></svg>