<?xml version="1.0" encoding="UTF-8" standalone="no"?>
<!-- Generator: Adobe Illustrator 15.0.2, SVG Export Plug-In . SVG Version: 6.00 Build 0)  -->

<svg
   xmlns:dc="http://purl.org/dc/elements/1.1/"
   xmlns:cc="http://creativecommons.org/ns#"
   xmlns:rdf="http://www.w3.org/1999/02/22-rdf-syntax-ns#"
   xmlns:svg="http://www.w3.org/2000/svg"
   xmlns="http://www.w3.org/2000/svg"
   xmlns:xlink="http://www.w3.org/1999/xlink"
   xmlns:sodipodi="http://sodipodi.sourceforge.net/DTD/sodipodi-0.dtd"
   xmlns:inkscape="http://www.inkscape.org/namespaces/inkscape"
   version="1.1"
   id="Layer_1"
   x="0px"
   y="0px"
   width="16"
   height="16"
   viewBox="0 0 15.999999 16"
   enable-background="new 0 0 595.28 841.89"
   xml:space="preserve"
   inkscape:version="0.48.3.1 r9886"
   sodipodi:docname="outmsgok.svg"
   inkscape:export-filename="D:\Hobby\QutIM\Images\q_outmsgok2.png"
   inkscape:export-xdpi="90"
   inkscape:export-ydpi="90"><metadata
   id="metadata33"><rdf:RDF><cc:Work
       rdf:about=""><dc:format>image/svg+xml</dc:format><dc:type
         rdf:resource="http://purl.org/dc/dcmitype/StillImage" /><dc:title /></cc:Work></rdf:RDF></metadata><defs
   id="defs31"><linearGradient
     gradientTransform="matrix(0.93586036,0,0,-1.0298652,-286.87581,-378.31196)"
     y2="-377.9277"
     x2="311.9473"
     y1="-377.9277"
     x1="308.14651"
     gradientUnits="userSpaceOnUse"
     id="linearGradient3940">
	<stop
   id="stop3942"
   style="stop-color:#3473e3;stop-opacity:1;"
   offset="0" />
	
	<stop
   id="stop3944"
   style="stop-color:#3473e3;stop-opacity:0;"
   offset="1" />
</linearGradient><radialGradient
     gradientUnits="userSpaceOnUse"
     gradientTransform="matrix(0.28038377,-2.4753835,-1.4703301,-0.10638504,-451.57769,42.625089)"
     r="4.7227998"
     cy="-306.87061"
     cx="25.706499"
     id="radialGradient3934">
	<stop
   id="stop3936"
   style="stop-color:#3473e3;stop-opacity:1;"
   offset="0" />
	
	<stop
   id="stop3938"
   style="stop-color:#3473e3;stop-opacity:0;"
   offset="1" />
</radialGradient><linearGradient
     inkscape:collect="always"
     xlink:href="#linearGradient3940"
     id="linearGradient4970"
     gradientUnits="userSpaceOnUse"
     gradientTransform="matrix(1.0157816,0,0,-1.0730855,-312.00904,-394.56273)"
     x1="308.14651"
     y1="-377.9277"
     x2="311.9473"
     y2="-377.9277" /><radialGradient
     inkscape:collect="always"
     xlink:href="#radialGradient3934"
     id="radialGradient4973"
     gradientUnits="userSpaceOnUse"
     gradientTransform="matrix(0.30432818,-2.5792678,-1.5958944,-0.11084969,-490.77625,44.039768)"
     cx="25.706499"
     cy="-306.87061"
     r="4.7227998" /></defs><sodipodi:namedview
   pagecolor="#ffffff"
   bordercolor="#666666"
   borderopacity="1"
   objecttolerance="10"
   gridtolerance="10"
   guidetolerance="10"
   inkscape:pageopacity="0"
   inkscape:pageshadow="2"
   inkscape:window-width="1440"
   inkscape:window-height="848"
   id="namedview29"
   showgrid="true"
   inkscape:zoom="39.9375"
   inkscape:cx="8"
   inkscape:cy="8"
   inkscape:window-x="-8"
   inkscape:window-y="-8"
   inkscape:window-maximized="1"
   inkscape:current-layer="Layer_1"><inkscape:grid
     type="xygrid"
     id="grid3010"
     empspacing="5"
     visible="true"
     enabled="true"
     snapvisiblegridlinesonly="true" /></sodipodi:namedview>


<radialGradient
   id="path2995_1_"
   cx="25.706499"
   cy="-306.87061"
   r="4.7227998"
   gradientTransform="matrix(0.28038377,-2.4753835,-1.4703301,-0.10638504,-451.57769,42.625089)"
   gradientUnits="userSpaceOnUse">
	<stop
   offset="0"
   style="stop-color:#d63434;stop-opacity:1;"
   id="stop6" />
	
	<stop
   offset="1"
   style="stop-color:#d63434;stop-opacity:0;"
   id="stop10" />
</radialGradient>

<linearGradient
   id="path3008_1_"
   gradientUnits="userSpaceOnUse"
   x1="308.14651"
   y1="-377.9277"
   x2="311.9473"
   y2="-377.9277"
   gradientTransform="matrix(0.93586036,0,0,-1.0298652,-286.87581,-378.31196)">
	<stop
   offset="0"
   style="stop-color:#d63434;stop-opacity:1;"
   id="stop14" />
	
	<stop
   offset="1"
   style="stop-color:#d63434;stop-opacity:0;"
   id="stop18" />
</linearGradient>

<linearGradient
   id="path3006_1_"
   gradientUnits="userSpaceOnUse"
   x1="315.7207"
   y1="-379.52151"
   x2="319.02151"
   y2="-379.52151"
   gradientTransform="matrix(0.93586036,0,0,-1.0298652,-286.87581,-378.31196)">
	<stop
   offset="0"
   style="stop-color:#d63434;stop-opacity:1;"
   id="stop22" />
	
	<stop
   offset="1"
   style="stop-color:#d63434;stop-opacity:0;"
   id="stop26" />
</linearGradient>

<g
   id="g5478"
   transform="matrix(1,0,0,0.99947809,1,34.990085)"><g
     transform="matrix(1,0,0,1.0001789,-192.625,-37.847123)"
     id="g5282"><rect
       style="opacity:0.07999998;fill:#000000;fill-opacity:1"
       id="rect5284"
       width="15"
       height="11.997853"
       x="192.625"
       y="6.8458977"
       ry="0.99982113"
       inkscape:export-filename="D:\Hobby\QutIM\Images\th3.png"
       inkscape:export-xdpi="90"
       inkscape:export-ydpi="90" /><rect
       ry="1.0215564"
       y="6.8458977"
       x="192.625"
       height="11.747898"
       width="14.75"
       id="rect5286"
       style="opacity:0.15;fill:#000000;fill-opacity:1"
       inkscape:export-filename="D:\Hobby\QutIM\Images\th3.png"
       inkscape:export-xdpi="90"
       inkscape:export-ydpi="90" /><rect
       style="opacity:0.15;fill:#000000;fill-opacity:1"
       id="rect5288"
       width="14.5"
       height="11.497943"
       x="192.625"
       y="6.8458977"
       ry="0.99982113"
       inkscape:export-filename="D:\Hobby\QutIM\Images\th3.png"
       inkscape:export-xdpi="90"
       inkscape:export-ydpi="90" /><rect
       ry="0.97808588"
       y="6.8458977"
       x="192.625"
       height="11.247988"
       width="14.25"
       id="rect5290"
       style="opacity:0.3;fill:#000000;fill-opacity:1"
       inkscape:export-filename="D:\Hobby\QutIM\Images\th3.png"
       inkscape:export-xdpi="90"
       inkscape:export-ydpi="90" /></g><g
     transform="translate(-1.0000005,-35)"
     id="g5264"><rect
       style="fill:#f0f4fa;fill-opacity:1"
       id="rect4002"
       width="15"
       height="11.988465"
       x="-5e-007"
       y="3.012496"
       ry="0.99903876"
       inkscape:export-filename="D:\Hobby\QutIM\Images\th3.png"
       inkscape:export-xdpi="90"
       inkscape:export-ydpi="90" /><path
       id="path4004"
       connector-curvature="0"
       d="m 1.6815865,4.0115388 c -0.350446,-0.0011 -0.634864,0.2156895 -0.63588,0.4850343 l -0.0061,1.0537701 5.116492,6.8677458 c 0.216362,0.292953 0.70089,0.395967 1.081808,0.228567 L 13.989804,9.6849412 13.999994,8.2470064 7.7021475,11.008055 c -0.306767,0.135207 -0.690732,0.05364 -0.865446,-0.182424 L 1.7638735,4.0115388 h -0.08228 z"
       inkscape:connector-curvature="0"
       style="fill:url(#radialGradient4973);fill-opacity:1"
       inkscape:export-filename="D:\Hobby\QutIM\Images\th3.png"
       inkscape:export-xdpi="90"
       inkscape:export-ydpi="90" /><path
       id="path4006"
       enable-background="new    "
       d="m 4.0534345,9.6001672 -3.043282,1.3338448 -0.01016,1.437935 3.860985,-1.692257 -0.807546,-1.0795228 z"
       inkscape:connector-curvature="0"
       style="opacity:0.51529996;fill:url(#linearGradient4970);fill-opacity:1"
       inkscape:export-filename="D:\Hobby\QutIM\Images\th3.png"
       inkscape:export-xdpi="90"
       inkscape:export-ydpi="90" /><path
       inkscape:connector-curvature="0"
       style="fill:#3473e3;fill-opacity:1"
       d="m 0.9999995,3.0124961 c -0.554001,0 -1,0.4455712 -1,0.9990387 l 0,9.9903872 c 0,0.553468 0.445999,0.999039 1,0.999039 l 13.0000005,0 c 0.554,0 1,-0.445571 1,-0.999039 L 15,4.0115348 C 15,3.4580673 14.554,3.0124961 14,3.0124961 l -13.0000005,0 z m 0.5,0.9990387 12.0000005,0 c 0.28468,0 0.5,0.2151121 0.5,0.4995194 l 0,8.9913488 c 0,0.284407 -0.21532,0.499519 -0.5,0.499519 l -12.0000005,0 c -0.284681,0 -0.5,-0.215112 -0.5,-0.499519 l 0,-8.9913488 c 0,-0.2844073 0.215319,-0.4995194 0.5,-0.4995194 z"
       id="path4010"
       inkscape:export-filename="D:\Hobby\QutIM\Images\th3.png"
       inkscape:export-xdpi="90"
       inkscape:export-ydpi="90" /><path
       style="font-size:medium;font-style:normal;font-variant:normal;font-weight:normal;font-stretch:normal;text-indent:0;text-align:start;text-decoration:none;line-height:normal;letter-spacing:normal;word-spacing:normal;text-transform:none;direction:ltr;block-progression:tb;writing-mode:lr-tb;text-anchor:start;baseline-shift:baseline;color:#000000;fill:#f0f4fa;fill-opacity:1;fill-rule:nonzero;stroke:none;stroke-width:2;marker:none;visibility:visible;display:inline;overflow:visible;enable-background:accumulate;font-family:Sans;-inkscape-font-specification:Sans"
       d="m 14.875,1 a 1.0001,1.0001 0 0 0 -0.71875,0.46875 l -3.84375,6 L 6.65625,4.3125 A 1.0001,1.0001 0 0 0 5,5.0625 L 5,9.59375 A 1.0001,1.0001 0 0 0 5.34375,10.375 L 10.5,14.75 A 1.0001,1.0001 0 0 0 12,14.53125 l 3.84375,-6 A 1.0001,1.0001 0 0 0 16,8 L 16,2 A 1.0001,1.0001 0 0 0 14.875,1 z M 14,5.40625 14,7.71875 10.9375,12.5 7,9.125 7,7.25 9.875,9.71875 A 1.0001,1.0001 0 0 0 11.375,9.5 L 14,5.40625 z"
       id="path4589"
       inkscape:connector-curvature="0" /><path
       inkscape:connector-curvature="0"
       id="path4591"
       d="m 15,1.9999999 -4.467627,6.966667 -4.5323735,-3.900001 0,4.5333341 5.1474815,4.4 3.852518,-6.0000001 0,-6 z"
       style="fill:#3473e3;fill-opacity:1;stroke:none" /></g></g></svg>