<?xml version="1.0" encoding="utf8" standalone="no"?>
<svg height="16" id="svg3886" inkscape:version="0.47 r22583" sodipodi:docname="bookmark-new.svg" width="16" xmlns="http://www.w3.org/2000/svg" xmlns:cc="http://creativecommons.org/ns#" xmlns:dc="http://purl.org/dc/elements/1.1/" xmlns:inkscape="http://www.inkscape.org/namespaces/inkscape" xmlns:rdf="http://www.w3.org/1999/02/22-rdf-syntax-ns#" xmlns:sodipodi="http://sodipodi.sourceforge.net/DTD/sodipodi-0.dtd" xmlns:svg="http://www.w3.org/2000/svg" xmlns:xlink="http://www.w3.org/1999/xlink">
<defs id="defs3888">
<linearGradient id="linearGradient3943">
<stop id="stop3945" offset="0" style="stop-color:#fff"/>
<stop id="stop3947" offset="1" style="stop-opacity:0;stop-color:#fff"/>
</linearGradient>
<linearGradient gradientTransform="matrix(.10408,0,0,.10482,2.84058,2.7754)" gradientUnits="userSpaceOnUse" id="linearGradient2880" inkscape:collect="always" x1="72.421684" x2="72.421684" y1="124.75623" y2="51.244411">
<stop id="stop2492-3" offset="0" style="stop-color:#365f0e"/>
<stop id="stop2494-8" offset="1" style="stop-color:#84a718"/>
</linearGradient>
<linearGradient gradientTransform="matrix(.48936,0,0,.48936,1.71318,22.7281)" gradientUnits="userSpaceOnUse" id="linearGradient3674" inkscape:collect="always" x1="11.566265" x2="15.214532" y1="22.292103" y2="33.95525">
<stop id="stop2687" offset="0" style="stop-opacity:0.27450982;stop-color:#fff"/>
<stop id="stop2689" offset="1" style="stop-opacity:0;stop-color:#fff"/>
</linearGradient>
<linearGradient gradientTransform="matrix(.55048,0,0,.57816,-3.82622,-5.27623)" gradientUnits="userSpaceOnUse" id="linearGradient3884" inkscape:collect="always" x1="21.483376" x2="21.483376" y1="36.255058" y2="9.5799999">
<stop id="stop3605" offset="0" style="stop-color:#a7651c"/>
<stop id="stop3607" offset="1" style="stop-color:#c8a700"/>
</linearGradient>
<linearGradient gradientTransform="matrix(.20131,0,0,.19992,7.4133,7.30885)" gradientUnits="userSpaceOnUse" id="linearGradient5530" inkscape:collect="always" x1="24.138529" x2="24.138529" xlink:href="#linearGradient3943" y1="7.0478544" y2="39.268391"/>
<linearGradient gradientTransform="matrix(.55048,0,0,.57816,-3.82622,-5.27623)" gradientUnits="userSpaceOnUse" id="linearGradient3677" inkscape:collect="always" x1="24.046366" x2="24.046366" xlink:href="#linearGradient3943" y1="11.673002" y2="34.713669"/>
<radialGradient cx="69.447609" cy="51.694645" fx="69.447609" fy="51.694645" gradientTransform="matrix(0,.25031,-.27259,0,25.24473,-8.07671)" gradientUnits="userSpaceOnUse" id="radialGradient2878" inkscape:collect="always" r="31.000002">
<stop id="stop3244-5" offset="0" style="stop-color:#eef87e"/>
<stop id="stop3246-9" offset="0.26238" style="stop-color:#cde34f"/>
<stop id="stop3248-7" offset="0.66093999" style="stop-color:#93b723"/>
<stop id="stop3250-8" offset="1" style="stop-color:#5a7e0d"/>
</radialGradient>
<radialGradient cx="13.138569" cy="25.625349" fx="13.138569" fy="25.625349" gradientTransform="matrix(0,.92615,-1.05463,0,32.40258,-9.33459)" gradientUnits="userSpaceOnUse" id="radialGradient3882" inkscape:collect="always" r="13.931416">
<stop id="stop3692" offset="0" style="stop-color:#ffeb9f"/>
<stop id="stop3694" offset="0.26238" style="stop-color:#ffd57e"/>
<stop id="stop3696" offset="0.66093999" style="stop-color:#ffbc43"/>
<stop id="stop3698" offset="1" style="stop-color:#ff921a"/>
</radialGradient>
</defs>
<sodipodi:namedview id="base" inkscape:current-layer="layer1" inkscape:cx="8" inkscape:cy="8" inkscape:document-units="px" inkscape:grid-bbox="true" inkscape:pageopacity="0" inkscape:pageshadow="2" inkscape:window-height="484" inkscape:window-maximized="0" inkscape:window-width="603" inkscape:window-x="417" inkscape:window-y="162" inkscape:zoom="22.197802"/>
<g id="layer1" inkscape:groupmode="layer" inkscape:label="Layer 1">
<path d="m 8.0000006,0.49613568 c 0.5064396,0 2.1391894,4.28357812 2.5489094,4.59622212 0.409717,0.3126432 4.793178,0.6198528 4.949676,1.125721 C 15.655085,6.7239468 12.28072,9.6785531 12.124222,10.18442 11.967724,10.690288 13.409718,15.163733 13,15.476376 12.590282,15.789021 8.5064402,13.33149 7.9999999,13.33149 7.4935604,13.33149 3.4097187,15.789021 3,15.476376 2.5902818,15.163733 4.0322763,10.690287 3.8757779,10.18442 3.7192794,9.6785531 0.34491544,6.7239461 0.50141397,6.218078 0.65791242,5.7122106 5.0413721,5.405001 5.4510908,5.0923578 5.8608088,4.7797138 7.4935611,0.49613568 8.0000006,0.49613568 z" id="path1307" sodipodi:nodetypes="csssssssssc" style="stroke-linejoin:round;fill:url(#radialGradient3882);stroke-width:0.99227136;stroke:url(#linearGradient3884)"/>
<path d="m 11.96875,26.375 c -0.506596,0.779667 -1.63252,2.593568 -2.90625,5.59375 A 0.14192008,0.14192008 0 0 1 9.03125,32 0.14192008,0.14192008 0 0 1 9,32.03125 a 0.14192008,0.14192008 0 0 1 -0.03125,0 0.14192008,0.14192008 0 0 1 -0.03125,0.03125 0.14192008,0.14192008 0 0 1 -0.03125,-0.03125 0.14192008,0.14192008 0 0 1 -0.03125,0 A 0.14192008,0.14192008 0 0 1 8.84375,32 0.14192008,0.14192008 0 0 1 8.8125,31.96875 a 0.14192008,0.14192008 0 0 1 0,-0.03125 0.14192008,0.14192008 0 0 1 -0.03125,0 c 0.00461,-0.0064 -0.035912,0.0063 -0.03125,0 0.00522,-0.0059 -0.00527,0.03708 0,0.03125 0.00556,-0.0056 -0.036852,0.0055 -0.03125,0 0.00608,-0.005 -0.00612,0.03618 0,0.03125 0.00629,-0.0047 -0.037574,0.0047 -0.03125,0 0.00682,-0.0039 -0.038107,0.0038 -0.03125,0 0.00692,-0.0037 -0.00695,0.03492 0,0.03125 0.00726,-0.003 -0.038533,0.003 -0.03125,0 a 0.14192008,0.14192008 0 0 1 0,0.03125 0.14192008,0.14192008 0 0 1 0.03125,0 0.14192008,0.14192008 0 0 1 0.03125,0.03125 0.14192008,0.14192008 0 0 1 0.03125,0.03125 0.14192008,0.14192008 0 0 1 0,0.03125 0.14192008,0.14192008 0 0 1 0,0.03125 0.14192008,0.14192008 0 0 1 0,0.03125 0.14192008,0.14192008 0 0 1 0,0.03125 0.14192008,0.14192008 0 0 1 -0.03125,0.03125 0.14192008,0.14192008 0 0 1 -0.03125,0.03125 0.14192008,0.14192008 0 0 1 -0.03125,0 C 6.5674679,32.648003 4.0200464,32.991828 2.28125,33.40625 3.3338095,34.641661 4.546242,35.810257 5.71875,37 L 20.75,34.28125 c 0.0052,-0.0052 0.02606,0.0052 0.03125,0 0.28516,-0.285558 0.552815,-0.584263 0.84375,-0.875 -1.985656,-0.473093 -4.21957,-0.75757 -6.28125,-1.09375 a 0.14192008,0.14192008 0 0 1 -0.03125,0 A 0.14192008,0.14192008 0 0 1 15.28125,32.28125 0.14192008,0.14192008 0 0 1 15.25,32.25 a 0.14192008,0.14192008 0 0 1 0,-0.03125 0.14192008,0.14192008 0 0 1 0,-0.03125 0.14192008,0.14192008 0 0 1 0,-0.03125 0.14192008,0.14192008 0 0 1 0,-0.03125 0.14192008,0.14192008 0 0 1 0.03125,-0.03125 0.14192008,0.14192008 0 0 1 0.03125,-0.03125 0.14192008,0.14192008 0 0 1 0.03125,0 0.14192008,0.14192008 0 0 1 0,-0.03125 c 0.0075,0.0027 -0.0387,-0.0027 -0.03125,0 0.0071,0.0035 -0.03835,-0.0035 -0.03125,0 0.007,0.0037 -0.007,-0.03496 0,-0.03125 0.0066,0.0044 -0.03785,-0.0044 -0.03125,0 0.0062,0.0049 -0.0062,-0.03622 0,-0.03125 0.006,0.0052 -0.03724,-0.0052 -0.03125,0 0.0054,0.0058 -0.0053,-0.03713 0,-0.03125 0.0052,0.006 -0.03638,-0.006 -0.03125,0 0.0045,0.0065 -0.0045,-0.0378 0,-0.03125 0.004,0.0069 -0.0352,-0.0069 -0.03125,0 0.0037,0.007 -0.0037,-0.03828 0,-0.03125 l -0.125,0.0625 -0.125,0.0625 c -0.985076,-2.286983 -2.388794,-4.698127 -2.9375,-5.625 z" id="path3672" inkscape:original="M 11.96875 26.09375 C 11.51172 26.787229 10.288988 28.722915 8.9375 31.90625 A 0.43670935 0.43670935 0 0 1 8.59375 32.1875 C 6.4582826 32.535711 3.7845647 32.904406 2.03125 33.34375 C 3.1314282 34.66265 4.424744 35.873706 5.65625 37.125 L 20.8125 34.40625 C 21.165744 34.052437 21.509676 33.708835 21.875 33.34375 C 19.823518 32.836264 17.50926 32.535515 15.375 32.1875 A 0.43670935 0.43670935 0 0 1 15.03125 31.9375 C 13.991778 29.524229 12.448328 26.900469 11.96875 26.09375 z" inkscape:radius="-0.14190589" sodipodi:type="inkscape:offset" style="opacity:0.8;fill:url(#linearGradient3674)" transform="matrix(.71439,0,0,.70012,-.57241,-16.95476)"/>
<path d="M 8,2.3125003 C 7.4204974,3.4092238 6.9588891,4.5689462 6.3425158,5.6446934 5.906923,6.2233231 5.14082,6.208774 4.4979816,6.3453057 3.6988865,6.4940441 2.8938979,6.607737 2.09375,6.7500003 c 0.8321477,1.0057613 1.9042251,1.803058 2.6553809,2.8730975 0.2931609,0.5612752 0.086735,1.1940262 0.048954,1.7875722 -0.1300362,0.873671 -0.7822554,2.011403 -0.8721349,2.890749 1.1003565,-0.559851 2.6237664,-1.531888 3.7910708,-1.94011 0.6246409,-0.12796 1.1682081,0.254232 1.7115393,0.49593 0.7264099,0.38268 1.7399469,0.939694 2.4653779,1.324105 -0.123973,-1.302273 -0.773372,-2.733611 -0.799425,-4.042542 0.09173,-0.7298892 0.734153,-1.1887208 1.185876,-1.7078873 C 12.836872,7.884812 13.396785,7.3411772 13.90625,6.7500003 12.695236,6.5344179 11.470554,6.3762266 10.271483,6.1040109 9.5203883,5.8103558 9.33382,4.9605762 8.9786043,4.3239545 8.6518684,3.653685 8.3459188,2.9733088 8,2.3125003 z" id="path2894" sodipodi:nodetypes="cccccccccccccccc" style="stroke-linejoin:round;opacity:0.4;fill:none;stroke-width:0.99227136;stroke:url(#linearGradient3677)"/>
<path d="m 10.5,10.5 0,-2.0072863 3,0 0,2.0072863 2.007286,0 0,3 -2.007286,0 0,2.007286 -3,0 0,-2.007286 -2.0072863,0 0,-3 2.0072863,0 z" id="path2262" sodipodi:nodetypes="ccccccccccccc" style="stroke-linejoin:round;fill:url(#radialGradient2878);stroke-width:0.98542738;stroke-linecap:round;stroke:url(#linearGradient2880)"/>
<path d="m 11.5,11.5 0,-1.9999997 1,0 0,1.9999997 2,0 0,1 -2,0 0,2.292538 -1,0 0,-2.292538 -2,0 0,-1 2,0 z" id="path2272" sodipodi:nodetypes="ccccccccccccc" style="stroke:url(#linearGradient5530);opacity:0.4;fill:none"/>
</g>
</svg>
