<?xml version="1.0" encoding="utf8" standalone="no"?>
<svg height="16" id="svg11300" width="16" xmlns="http://www.w3.org/2000/svg" xmlns:svg="http://www.w3.org/2000/svg" xmlns:xlink="http://www.w3.org/1999/xlink">
<defs id="defs3">
<linearGradient id="linearGradient5443">
<stop id="stop5445" offset="0" style="stop-color:#fff"/>
<stop id="stop5447" offset="1" style="stop-opacity:0;stop-color:#fff"/>
</linearGradient>
<linearGradient gradientTransform="matrix(.3007,-1.0669372e-8,0,.59926,-8.94045,-20.29923)" gradientUnits="userSpaceOnUse" id="linearGradient3818" x1="-2.1966379" x2="-10.565685" y1="40.971893" y2="40.94883">
<stop id="stop4101" offset="0" style="stop-color:#edd563"/>
<stop id="stop4103" offset="1" style="stop-color:#e08223"/>
</linearGradient>
<linearGradient gradientTransform="matrix(.37258,0,0,.3726,3.91569,.02952)" gradientUnits="userSpaceOnUse" id="linearGradient3820" x1="-45.568657" x2="-36.082916" y1="7.7140422" y2="12.324154">
<stop id="stop4095" offset="0" style="stop-color:#bb5e12"/>
<stop id="stop4097" offset="1" style="stop-color:#cd8033"/>
</linearGradient>
<linearGradient gradientTransform="matrix(-.32995,0,0,-.32761,14.09639,17.76601)" gradientUnits="userSpaceOnUse" id="linearGradient3824" x1="25.571766" x2="27.367689" y1="20.761639" y2="22.476452">
<stop id="stop7383" offset="0" style="stop-color:#babdb6"/>
<stop id="stop7385" offset="1" style="stop-color:#fff"/>
</linearGradient>
<linearGradient gradientTransform="matrix(.33136,0,0,.33046,-2.0149,-1.10958)" gradientUnits="userSpaceOnUse" id="linearGradient3826" x1="22.375778" x2="32.447292" y1="35.624268" y2="24.412022">
<stop id="stop7446" offset="0" style="stop-color:#888a85"/>
<stop id="stop7448" offset="1" style="stop-color:#555753"/>
</linearGradient>
<linearGradient gradientTransform="matrix(.29294,-.29197,.25622,.25537,-26.47287,28.65603)" gradientUnits="userSpaceOnUse" id="linearGradient3108" x1="97.442131" x2="90.220802" y1="35.152435" y2="35.079365">
<stop id="stop4958-4" offset="0" style="stop-color:#f8b17e"/>
<stop id="stop4960-5" offset="0.26238" style="stop-color:#e35d4f"/>
<stop id="stop4962-1" offset="0.66347069" style="stop-color:#c6262e"/>
<stop id="stop4964-0" offset="1" style="stop-color:#690b54"/>
</linearGradient>
<linearGradient gradientTransform="matrix(.35605,0,0,.35511,-.80039,-.30212)" gradientUnits="userSpaceOnUse" id="linearGradient3110" x1="29.278061" x2="36.000526" y1="34.022705" y2="27.272705">
<stop id="stop2492-7" offset="0" style="stop-color:#791235"/>
<stop id="stop2494-8" offset="1" style="stop-color:#dd3b27"/>
</linearGradient>
<linearGradient gradientUnits="userSpaceOnUse" id="linearGradient3126" x1="314.09293" x2="315.01315" y1="230.78207" y2="229.86185">
<stop id="stop3952" offset="0" style="stop-color:#eeeeec"/>
<stop id="stop3954" offset="1" style="stop-color:#fff"/>
</linearGradient>
<linearGradient gradientUnits="userSpaceOnUse" id="linearGradient3128" x1="312.95822" x2="311" y1="234.93124" y2="220.60095">
<stop id="stop3960" offset="0" style="stop-color:#555753"/>
<stop id="stop3962" offset="1" style="stop-color:#888a85"/>
</linearGradient>
<linearGradient gradientTransform="matrix(-.30644,-.29977,.30644,-.29977,17.69122,31.81732)" gradientUnits="userSpaceOnUse" id="linearGradient3795" x1="54.765163" x2="54.72097" xlink:href="#linearGradient5443" y1="1.0000008" y2="12.584867"/>
<radialGradient cx="-39.458145" cy="11.839552" fx="-39.458145" fy="11.839552" gradientTransform="matrix(.76416,-.05305,.09313,1.93961,18.7936,-21.01239)" gradientUnits="userSpaceOnUse" id="radialGradient3812" r="3.9059753" xlink:href="#linearGradient5443"/>
<radialGradient cx="307.65778" cy="223.93007" fx="307.65778" fy="223.93007" gradientTransform="matrix(1.95223,-1.95223,1.48928,1.48928,-626.26973,490.96044)" gradientUnits="userSpaceOnUse" id="radialGradient3130" r="2.2700634" xlink:href="#linearGradient5443"/>
</defs>
<g id="g7817" style="enable-background:new" transform="translate(-303.0582,-218.9313)">
<path d="m 306.75,219.5 c -0.37511,0.0471 -0.77839,0.25308 -1.1875,0.65625 l 1.71875,1.6875 c 0.3584,0.36046 0.34912,0.93023 0,1.28125 l -0.125,0.125 c -0.34912,0.35106 -0.92283,0.36044 -1.28125,0 l -1.6875,-1.6875 c -1.15661,1.13978 -0.64599,2.06839 0.125,2.84375 l 0.46875,0.46875 c 0.73274,0.7369 1.86697,0.81164 2.6875,0.21875 l 5.4375,5.4375 1.625,-1.62505 -5.4375,-5.4375 c 0.59284,-0.82529 0.54644,-1.98062 -0.1875,-2.71875 l -0.46875,-0.5 c -0.48639,-0.48917 -1.06232,-0.82854 -1.6875,-0.75 l 0,5e-5 z" id="path3935" style="stroke-linejoin:round;enable-background:new;fill:url(#linearGradient3126);stroke-width:0.89999998;stroke-linecap:round;stroke:url(#linearGradient3128);stroke-dashoffset:0.3612;fill-rule:evenodd"/>
<path d="m 305.21569,223.99896 c 1.74834,1.52344 4.48908,-1.00133 2.72395,-2.92439" id="path3967" style="stroke:url(#radialGradient3130);enable-background:new;fill:none"/>
</g>
<path d="m 5.440485,7.1070701 7.573456,8.0594769 c 0.496811,0.495162 1.347388,0.430334 1.915401,-0.135789 0.568013,-0.566125 0.633054,-1.413871 0.136243,-1.909032 L 6.9792242,5.5734621 5.440485,7.1070701 z" id="path6899" style="stroke:url(#linearGradient3110);stroke-dashoffset:0.7;stroke-linejoin:round;enable-background:new;fill:url(#linearGradient3108);stroke-width:0.99963278;stroke-linecap:round"/>
<rect height="10.683528" id="rect5288" rx="1.64700745" ry="1.7943631" style="stroke-linejoin:round;fill:url(#linearGradient3818);stroke-width:1.00018108;stroke-linecap:round;stroke:url(#linearGradient3820)" transform="matrix(-.70745,-.70676,.70394,-.71026,0,0)" width="3.2940149" x="-12.999969" y="-0.72031736"/>
<rect height="9.0729837" id="rect5292" rx="1.16535485" ry="2.1163242" style="stroke-linejoin:round;opacity:0.6;fill:none;stroke-width:1.00003386;stroke-linecap:round;stroke:url(#radialGradient3812)" transform="matrix(-.70546,-.70875,.70052,-.71364,0,0)" width="2.3307097" x="-12.560697" y="-0.15539567"/>
<path d="m 7.6871836,7.5790026 c -0.1959186,-0.0317 -0.3938297,0.01257 -0.5767962,0.158871 a 0.35804719,0.35749485 0 0 0 -0.039779,0.01985 L 2.297123,12.523851 1.7601059,12.682721 a 0.35804719,0.35749485 0 0 0 -0.1988953,0.139013 l -1.05414458,1.548989 a 0.35804719,0.35749485 0 0 0 0.039779,0.456754 l 0.67624368,0.6752 a 0.35804719,0.35749485 0 0 0 0.457459,0.03972 L 3.2319304,14.47002 A 0.35804719,0.35749485 0 0 0 3.371157,14.271432 l 0.1392267,-0.51633 4.7933747,-4.7859804 a 0.35804719,0.35749485 0 0 0 0,-0.01986 C 8.7684651,8.4267086 8.2749396,7.6741166 7.6871836,7.5790026 z" id="path3822" style="stroke:url(#linearGradient3826);stroke-linejoin:round;fill:url(#linearGradient3824);stroke-width:0.69999993;stroke-linecap:round"/>
<path d="m 1.4253769,15.305873 1.8297984,-1.198192 0.204852,-0.762458 C 3.6285333,13.15501 2.9678233,12.554389 2.7896996,12.68948 l -0.7698424,0.209763 -1.22481808,1.790008 c 0.24046958,0.235238 0.38986838,0.381384 0.63033778,0.616622 z" id="path5450" style="fill:url(#linearGradient3795)"/>
</svg>
