<?xml version="1.0" encoding="utf8" standalone="no"?>
<svg height="16" id="svg3277" inkscape:version="0.48.0 r9654" sodipodi:docname="feed-subscribe.svg" width="16" xmlns="http://www.w3.org/2000/svg" xmlns:cc="http://creativecommons.org/ns#" xmlns:dc="http://purl.org/dc/elements/1.1/" xmlns:inkscape="http://www.inkscape.org/namespaces/inkscape" xmlns:rdf="http://www.w3.org/1999/02/22-rdf-syntax-ns#" xmlns:sodipodi="http://sodipodi.sourceforge.net/DTD/sodipodi-0.dtd" xmlns:svg="http://www.w3.org/2000/svg" xmlns:xlink="http://www.w3.org/1999/xlink">
<defs id="defs3279">
<linearGradient id="linearGradient3251">
<stop id="stop3253" offset="0" style="stop-color:#917f6e"/>
<stop id="stop3255" offset="1" style="stop-color:#cbbaa9"/>
</linearGradient>
<linearGradient id="linearGradient4222">
<stop id="stop4224" offset="0" style="stop-color:#fff"/>
<stop id="stop4226" offset="1" style="stop-opacity:0;stop-color:#fff"/>
</linearGradient>
<linearGradient gradientTransform="matrix(.65217,0,0,.65217,-15.80435,15.34783)" gradientUnits="userSpaceOnUse" id="linearGradient3162" x1="39.905758" x2="39.905758" y1="6.1230369" y2="24.0341">
<stop id="stop3245" offset="0" style="stop-color:#fff4e9"/>
<stop id="stop3247" offset="1" style="stop-color:#e7d6c5"/>
</linearGradient>
<linearGradient gradientTransform="matrix(.65217,0,0,.65217,-.15217,17.30435)" gradientUnits="userSpaceOnUse" id="linearGradient3153" x1="17.591623" x2="17.591623" xlink:href="#linearGradient3251" y1="7" y2="-0.02451775"/>
<linearGradient gradientTransform="matrix(.65217,0,0,.65217,-15.80435,15.34783)" gradientUnits="userSpaceOnUse" id="linearGradient3156" x1="40.006763" x2="40.006763" xlink:href="#linearGradient4222" y1="12.910877" y2="7.0924568"/>
<linearGradient gradientTransform="matrix(.65217,0,0,.65217,-15.80435,15.34783)" gradientUnits="userSpaceOnUse" id="linearGradient3159" x1="38.382198" x2="38.382198" xlink:href="#linearGradient4222" y1="5.90625" y2="22.697742"/>
<linearGradient gradientTransform="matrix(.65217,0,0,.65217,-15.80435,15.34783)" gradientUnits="userSpaceOnUse" id="linearGradient3164" x1="32.015705" x2="32.015705" xlink:href="#linearGradient3251" y1="24.011269" y2="5"/>
<radialGradient cx="10.471204" cy="20.146597" fx="10.471204" fy="20.146597" gradientTransform="matrix(.63698,0,0,.21233,-.30039,24.76578)" gradientUnits="userSpaceOnUse" id="radialGradient3275" r="9.2146597">
<stop id="stop3285" offset="0"/>
<stop id="stop3287" offset="1" style="stop-opacity:0"/>
</radialGradient>
</defs>
<sodipodi:namedview id="namedview44" inkscape:current-layer="layer1" inkscape:cx="12" inkscape:cy="12" inkscape:pageopacity="0" inkscape:pageshadow="2" inkscape:window-height="692" inkscape:window-maximized="1" inkscape:window-width="1366" inkscape:window-x="0" inkscape:window-y="24" inkscape:zoom="12.208333"/>
<g id="layer1" transform="translate(0,-16)">
<path d="m 12.23913,29.043449 a 5.869565,1.9565218 0 0 1 -11.73913,0 5.869565,1.9565218 0 1 1 11.73913,0 z" id="path3281" inkscape:connector-curvature="0" style="opacity:0.3;fill:url(#radialGradient3275);fill-rule:evenodd"/>
<path d="m 7.6739129,18.934782 -6.1956521,6.419837 5.3804348,5.319294 6.3586954,-6.195653 0,-5.543478 -5.5434781,0 z m 2.6086961,1.956522 c 0.54,0 0.97826,0.438261 0.97826,0.978261 0,0.54 -0.43826,0.978261 -0.97826,0.978261 -0.5400005,0 -0.9782614,-0.438261 -0.9782614,-0.978261 0,-0.54 0.4382609,-0.978261 0.9782614,-0.978261 z" id="path2463" inkscape:connector-curvature="0" style="stroke:url(#linearGradient3164);fill:url(#linearGradient3162);stroke-width:0.65217388;fill-rule:evenodd"/>
<path d="m 7.9184781,19.525815 c -1.8682062,1.936141 -3.7364131,3.872282 -5.6046194,5.808424 1.5149459,1.494565 3.0298911,2.98913 4.5448369,4.483695 1.9225544,-1.868206 3.8451084,-3.736413 5.7676634,-5.604619 0,-1.5625 0,-3.125 0,-4.6875 -1.569294,0 -3.1385875,0 -4.7078809,0 z" id="path3265" inkscape:connector-curvature="0" style="stroke:url(#linearGradient3159);opacity:0.6;fill:none;stroke-width:0.65217388"/>
<path d="m 10.282609,20.300271 c 0.986927,-0.03479 1.800695,1.013344 1.519792,1.96097 -0.20859,0.929881 -1.353596,1.465773 -2.1994738,1.022605 -0.8706509,-0.384579 -1.17414,-1.60897 -0.5773957,-2.352552 0.2898874,-0.392275 0.7686829,-0.634801 1.2570775,-0.631023 z" id="path3294" inkscape:connector-curvature="0" style="stroke:url(#linearGradient3156);opacity:0.6;fill:none;stroke-width:0.65217388"/>
<path d="m 10.608696,21.543478 c 0.723272,-0.382969 1.665667,-0.500295 2.561003,-0.520265 0.402487,-0.009 0.809311,0.07298 1.204259,-0.02096 0.502657,-0.119563 0.845206,-0.487834 0.795097,-0.82451 -0.06727,-0.451933 -0.674359,-0.785559 -1.243736,-1.024303 -0.505048,-0.211772 -0.893767,-0.589143 -1.099197,-0.987793 -0.103791,-0.201413 0.07747,-0.412898 0.368213,-0.477822 0.264128,-0.05898 0.540771,-0.08229 0.80954,-0.02241 0.409071,0.09115 0.891967,0.202351 1.082263,0.49217" id="path3298" inkscape:connector-curvature="0" style="stroke:url(#linearGradient3153);fill:none;stroke-width:0.65217388"/>
</g>
</svg>
