<?xml version="1.0" encoding="utf8" standalone="no"?>
<svg height="16" id="svg11300" inkscape:version="0.48.0 r9654" sodipodi:docname="im-ban-user.svg" width="16" xmlns="http://www.w3.org/2000/svg" xmlns:cc="http://creativecommons.org/ns#" xmlns:dc="http://purl.org/dc/elements/1.1/" xmlns:inkscape="http://www.inkscape.org/namespaces/inkscape" xmlns:rdf="http://www.w3.org/1999/02/22-rdf-syntax-ns#" xmlns:sodipodi="http://sodipodi.sourceforge.net/DTD/sodipodi-0.dtd" xmlns:svg="http://www.w3.org/2000/svg" xmlns:xlink="http://www.w3.org/1999/xlink">
<defs id="defs3">
<linearGradient id="linearGradient3785">
<stop id="stop3787" offset="0" style="stop-color:#b8b8b8"/>
<stop id="stop3789" offset="1" style="stop-color:#878787"/>
</linearGradient>
<linearGradient id="linearGradient6954">
<stop id="stop6960" offset="0" style="stop-color:#f5f5f5"/>
<stop id="stop6962" offset="1" style="stop-color:#d2d2d2"/>
</linearGradient>
<linearGradient id="linearGradient3341">
<stop id="stop3343" offset="0" style="stop-color:#fff"/>
<stop id="stop3345" offset="1" style="stop-opacity:0;stop-color:#fff"/>
</linearGradient>
<linearGradient gradientTransform="matrix(.71266,0,0,.71266,-1.10387,-1.10387)" gradientUnits="userSpaceOnUse" id="linearGradient2496" x1="18.379412" x2="18.379412" y1="44.980297" y2="3.0816143">
<stop id="stop2492-9" offset="0" style="stop-color:#791235"/>
<stop id="stop2494-6" offset="1" style="stop-color:#dd3b27"/>
</linearGradient>
<linearGradient gradientTransform="matrix(.42809,0,0,.42297,-2.82381,-3.2486)" gradientUnits="userSpaceOnUse" id="linearGradient2858" x1="30" x2="30" xlink:href="#linearGradient3785" y1="25.084745" y2="45"/>
<linearGradient gradientTransform="matrix(.33686,0,0,.32161,-.10572,-.2953)" gradientUnits="userSpaceOnUse" id="linearGradient2862" x1="30" x2="30" xlink:href="#linearGradient3785" y1="5" y2="44.678879"/>
<linearGradient gradientTransform="matrix(.33686,0,0,.32161,-.10572,-.2953)" gradientUnits="userSpaceOnUse" id="linearGradient2864" x1="30" x2="30" xlink:href="#linearGradient3341" y1="0.91818392" y2="25.792814"/>
<linearGradient gradientTransform="matrix(.42809,0,0,.42297,-2.82381,-3.2486)" gradientUnits="userSpaceOnUse" id="linearGradient2866" x1="29.955881" x2="29.955881" xlink:href="#linearGradient3341" y1="21.86607" y2="43.144382"/>
<linearGradient gradientTransform="matrix(1.54365,0,0,1.54362,-80.01571,21.41938)" gradientUnits="userSpaceOnUse" id="linearGradient2491" x1="63.397362" x2="63.397362" xlink:href="#linearGradient3341" y1="-12.489107" y2="5.4675598"/>
<radialGradient cx="23.895569" cy="3.9900031" fx="23.895569" fy="3.9900031" gradientTransform="matrix(0,1.70088,-2.24513,0,24.95807,-40.23605)" gradientUnits="userSpaceOnUse" id="radialGradient2494" r="20.397499">
<stop id="stop3244-8" offset="0" style="stop-color:#f8b17e"/>
<stop id="stop3246-0" offset="0.26238" style="stop-color:#e35d4f"/>
<stop id="stop3248-8" offset="0.66093999" style="stop-color:#c6262e"/>
<stop id="stop3250-1" offset="1" style="stop-color:#690b54"/>
</radialGradient>
<radialGradient cx="62.625" cy="4.625" fx="62.625" fy="4.625" gradientTransform="matrix(1.50588,0,0,.37647,-78.30589,26.25882)" gradientUnits="userSpaceOnUse" id="radialGradient2499" r="10.625">
<stop id="stop8840" offset="0"/>
<stop id="stop8842" offset="1" style="stop-opacity:0"/>
</radialGradient>
<radialGradient cx="24.999998" cy="28.659998" fx="24.999998" fy="28.659998" gradientTransform="matrix(.56187,0,0,.15788,-6.16826,5.33852)" gradientUnits="userSpaceOnUse" id="radialGradient2856" r="16" xlink:href="#linearGradient6954"/>
<radialGradient cx="26.375898" cy="12.31301" fx="26.375898" fy="12.31301" gradientTransform="matrix(.5525,-.04264,.04316,.50972,-6.30267,-1.97651)" gradientUnits="userSpaceOnUse" id="radialGradient2860" r="8" xlink:href="#linearGradient6954"/>
</defs>
<sodipodi:namedview id="namedview24" inkscape:current-layer="svg11300" inkscape:cx="8" inkscape:cy="8.3867103" inkscape:pageopacity="0" inkscape:pageshadow="2" inkscape:window-height="692" inkscape:window-maximized="1" inkscape:window-width="1366" inkscape:window-x="0" inkscape:window-y="24" inkscape:zoom="18.3125"/>
<g id="g3743" transform="translate(-1.9999,-.0016)">
<path d="M 8.84375,6.5 C 8.76311,7.180093 9.4339142,8.600105 9.0625,9.21875 7.6176751,9.7236407 5.0136423,10.644898 4.875,11.25 4.77263,12.189935 4.6190814,13.561421 4.5,14.5 c 2.5328977,1.368167 8.491801,1.30225 10.9375,0 -0.0863,-0.665917 -0.163702,-2.584084 -0.25,-3.25 C 14.53386,10.469482 12.812615,10.01275 11,9.21875 10.526353,8.602577 11.243461,7.22557 11.09375,6.53125 10.807324,6.482003 9.133812,6.507525 8.84375,6.5 z" id="path2880" style="stroke:url(#linearGradient2858);stroke-linejoin:round;fill:url(#radialGradient2856);stroke-width:1.00012147"/>
<path d="m 10,1.46875 c -1.3953075,0 -2.53125,1.0066477 -2.53125,2.25 0.010946,0.4601408 0.05895,1.0054807 0.34375,2.25 0.1684289,0.4824189 1.6739448,1.7766941 1.6875,1.9375 0.3266416,0.1608049 0.850642,0.1608049 1.1875,0 0,-0.1608059 1.331572,-1.4550811 1.5,-1.9375 0.320478,-1.293427 0.326559,-1.7675806 0.34375,-2.25 0,-1.2433523 -1.13594,-2.25 -2.53125,-2.25 z" id="path2870" style="stroke:url(#linearGradient2862);fill:url(#radialGradient2860);stroke-width:0.94714093"/>
<path d="M 10,2.46875 C 9.3876089,2.453926 8.7330161,2.7993069 8.53125,3.40625 c -0.1135765,0.4104884 -0.010161,0.836839 0.03125,1.25 0.05222,0.3381399 0.1132782,0.6660809 0.1875,1 0.1940928,0.171452 0.3611426,0.3974634 0.5625,0.5625 C 9.5758075,6.4747814 9.8032965,6.7399516 10.0625,7 10.330703,6.7826897 10.510924,6.4967292 10.75,6.25 10.902681,6.070177 11.060251,5.8623797 11.21875,5.6875 11.376386,4.9772187 11.558479,4.2653005 11.5,3.53125 11.375368,2.844477 10.652976,2.4515616 10,2.46875 z" id="path2866" style="stroke:url(#linearGradient2864);fill:none;stroke-width:0.94714093"/>
<path d="m 10,9.0625 c 0.04083,0.6184717 -0.4844988,1.101042 -1.0625,1.1875 -1.0618145,0.377577 -2.1650919,0.706505 -3.125,1.3125 -0.224724,0.540724 -0.1042376,1.160705 -0.25,1.71875 -0.3309301,0.708961 0.5690774,0.776057 1.03125,0.90625 2.2561001,0.540715 4.652113,0.499061 6.90625,-0.03125 0.335847,-0.168593 1.138282,-0.08494 0.9375,-0.625 C 14.37527,12.943737 14.34558,12.339597 14.3125,11.75 13.392452,11.041669 12.225582,10.792671 11.1875,10.3125 10.364527,10.195739 10.334895,9.5928835 10,9.0625 z" id="path2876" style="stroke:url(#linearGradient2866);stroke-linejoin:round;fill:none;stroke-width:1.00012147"/>
</g>
<g id="layer1" transform="matrix(.27133,0,0,.27133,7.2628,7.25428)">
<path d="m 31.999998,28 c 0,2.209139 -7.163445,4 -16.000001,4 C 7.1634417,32 -3.2e-6,30.209139 -3.2e-6,28 c 0,-2.209139 7.1634449,-4 16.0000002,-4 8.836556,0 16.000001,1.790861 16.000001,4 l 0,0 z" id="path8836" inkscape:connector-curvature="0" style="opacity:0.3;fill:url(#radialGradient2499);stroke-width:0.99999988;fill-rule:evenodd"/>
<path d="m 16.000001,1.5017977 c -7.9996071,0 -14.4982031,6.4985937 -14.4982031,14.4982013 0,7.999609 6.498596,14.498206 14.4982031,14.498203 7.999605,0 14.498209,-6.498594 14.498201,-14.498203 0,-7.9996076 -6.498596,-14.4982013 -14.498201,-14.4982013 z" id="path2555" inkscape:connector-curvature="0" style="stroke:url(#linearGradient2496);stroke-linejoin:round;fill:url(#radialGradient2494);stroke-width:1.00365412;stroke-linecap:round"/>
<path d="M 29.5,15.999522 C 29.5,23.455607 23.455399,29.5 16.000172,29.5 8.5442598,29.5 2.5,23.455539 2.5,15.999522 2.5,8.5437822 8.5442598,2.5000011 16.000172,2.5000011 23.455399,2.5000011 29.5,8.5437822 29.5,15.999522 l 0,0 z" id="path8655" inkscape:connector-curvature="0" style="stroke:url(#linearGradient2491);opacity:0.4;fill:none"/>
<path d="m 11.209302,7.9999991 -2.2093023,2.2093029 4.5581393,4.534883 c 0.140032,0.141798 0.140032,0.369831 0,0.511629 L 8.9999997,19.790697 11.209302,22 15.744185,17.465116 c 0.141798,-0.140032 0.369831,-0.140032 0.511629,0 L 20.790697,22 23,19.790697 18.465116,15.255814 c -0.140032,-0.141798 -0.140032,-0.369831 0,-0.511629 L 23,10.209302 20.790697,7.9999991 16.255814,12.534883 c -0.141798,0.140032 -0.369831,0.140032 -0.511629,0 L 11.209302,7.9999991 z" id="path3243" inkscape:connector-curvature="0" style="opacity:0.2;fill-rule:evenodd"/>
<path d="m 11.209303,9.000001 -2.2093026,2.209302 4.5581396,4.534883 c 0.140031,0.141798 0.140031,0.369832 0,0.511629 L 9.0000004,20.790697 11.209303,23 15.744185,18.465116 c 0.141798,-0.140031 0.369831,-0.140031 0.511629,0 L 20.790697,23 23,20.790697 18.465116,16.255815 c -0.140032,-0.141797 -0.140032,-0.369831 0,-0.511629 L 23,11.209303 20.790697,9.000001 16.255814,13.534884 c -0.141798,0.140033 -0.369831,0.140033 -0.511629,0 L 11.209303,9.000001 z" id="path3256" inkscape:connector-curvature="0" style="fill:#fff;fill-rule:evenodd"/>
</g>
</svg>
