<?xml version="1.0" encoding="utf8" standalone="no"?>
<svg height="16" id="svg2606" inkscape:export-filename="/home/pinheiro/pics/oxygen/scalable/mimetypes/vcard.png" inkscape:export-xdpi="22.5" inkscape:export-ydpi="22.5" inkscape:output_extension="org.inkscape.output.svg.inkscape" inkscape:version="0.48.0 r9654" sodipodi:docname="list-add-user.svg" sodipodi:version="0.32" width="16" xmlns="http://www.w3.org/2000/svg" xmlns:cc="http://creativecommons.org/ns#" xmlns:dc="http://purl.org/dc/elements/1.1/" xmlns:i="http://ns.adobe.com/AdobeIllustrator/10.0/" xmlns:inkscape="http://www.inkscape.org/namespaces/inkscape" xmlns:rdf="http://www.w3.org/1999/02/22-rdf-syntax-ns#" xmlns:sodipodi="http://sodipodi.sourceforge.net/DTD/sodipodi-0.dtd" xmlns:svg="http://www.w3.org/2000/svg" xmlns:xlink="http://www.w3.org/1999/xlink">
<defs id="defs2608">
<clipPath id="clipPath3705">
<path d="m 341.25,409.625 c -1.51321,7.20236 -5.74124,23.3964 -0.5,27.25 -0.64647,6.99978 -7.0786,9.64392 -15,11.1875 l -1.5,0 c -7.9214,-1.54358 -14.35353,-4.18772 -15,-11.1875 5.24124,-3.8536 1.01321,-20.04764 -0.5,-27.25 l 16.25,7.40625 16.25,-7.40625 z" id="path3707" inkscape:connector-curvature="0" sodipodi:nodetypes="cccccccc" style="opacity:0.74906365;fill-rule:evenodd"/>
</clipPath>
<clipPath id="clipPath3429">
<path d="m 303.70236,398.81874 -0.17678,-13.25825 2.65166,-7.24784 5.3033,-1.76777 8.48528,2.65165 7.42462,1.41421 7.24784,-3.71231 5.3033,0 3.71231,5.12653 1.94455,8.13172 -0.17678,5.3033 0.35355,1.94455 -7.77817,-15.02602 -9.54594,3.71231 -6.89429,0.17678 -10.42983,-4.94975 -7.42462,17.50089 z" id="path3431" inkscape:connector-curvature="0" style="stroke:#000;fill:none"/>
</clipPath>
<clipPath id="clipPath4063">
<path d="m 410.16587,443.06739 c -10.24281,0.28613 -13.36749,-3.95368 -14.25,-7.69239 -1.27779,0.21006 -2.03383,1.22613 -2,2 -7.08333,2.83488 -15.64784,5.69235 -23.25,9.5 -2.82182,1.41335 -6.03661,5.72037 -6.875,8 -2.55698,6.95256 -5.375,16.75 -5.375,16.75 l 1.5,1.75 c 15.64476,8.91215 36.87916,8.5 50.25,8.5 13.37084,0 34.60524,0.41215 50.25,-8.5 l 1.5,-1.75 c 0,0 -2.81802,-9.79744 -5.375,-16.75 -0.83839,-2.27963 -4.05318,-6.58665 -6.875,-8 -7.60216,-3.80765 -16.16667,-6.66512 -23.25,-9.5 0.0338,-0.77387 -0.72221,-1.78994 -2,-2 -2.41363,3.74264 -4.00719,7.40626 -14.25,7.69239 z" id="path4065" inkscape:connector-curvature="0" sodipodi:nodetypes="cccssccsccssccz" style="fill:#f4f5f8;fill-rule:evenodd"/>
</clipPath>
<clipPath id="clipPath3289">
<path d="m 463.75,435.375 c -1.27779,0.21006 -2.03383,1.22613 -2,2 -0.0793,0.0317 -0.87749,1.12269 -0.95711,1.15441 1.25202,4.0018 5.15727,8.27208 16.75,7.96875 11.50018,-0.3009 15.9101,-5.26943 17.17586,-8.93566 -0.15115,-0.06 -0.3189,-0.12753 -0.46875,-0.1875 0.0338,-0.77387 -0.72221,-1.78994 -2,-2 -2.41363,3.74264 -4.00719,7.40137 -14.25,7.6875 -10.24281,0.28614 -13.36749,-3.94879 -14.25,-7.6875 z m -4.625,3.03125 c -5.44302,2.09883 -11.45793,4.26384 -17.21875,6.875 5.89563,-2.22917 11.62166,-3.16524 16.85447,-5.12684 -0.0106,-0.22696 0.25035,-1.50511 0.36428,-1.74816 z m 38.34375,0.21875 c 0.0532,0.16802 0.10109,0.31159 0.0937,0.46875 4.20807,1.57746 8.83741,3.15593 13.5625,4.875 -4.63354,-1.95913 -9.30506,-3.67529 -13.65625,-5.34375 z" id="path3291" inkscape:connector-curvature="0" sodipodi:nodetypes="cccscccsccccccccc" style="filter:url(#filter3283);stroke:#98a2bf;fill:#f4f5f8;fill-rule:evenodd"/>
</clipPath>
<filter id="filter3624" inkscape:collect="always" style="color-interpolation-filters:sRGB">
<feGaussianBlur id="feGaussianBlur3626" inkscape:collect="always" stdDeviation="1.1236176"/>
</filter>
<filter id="filter3694" inkscape:collect="always" style="color-interpolation-filters:sRGB">
<feGaussianBlur id="feGaussianBlur3696" inkscape:collect="always" stdDeviation="1.640636"/>
</filter>
<filter id="filter3325" inkscape:collect="always" style="color-interpolation-filters:sRGB">
<feGaussianBlur id="feGaussianBlur3327" inkscape:collect="always" stdDeviation="0.16076312"/>
</filter>
<filter id="filter3420" inkscape:collect="always" style="color-interpolation-filters:sRGB">
<feGaussianBlur id="feGaussianBlur3422" inkscape:collect="always" stdDeviation="1.110954"/>
</filter>
<filter id="filter3625" inkscape:collect="always" style="color-interpolation-filters:sRGB">
<feGaussianBlur id="feGaussianBlur3627" inkscape:collect="always" stdDeviation="0.34264273"/>
</filter>
<filter id="filter4059" inkscape:collect="always" style="color-interpolation-filters:sRGB">
<feGaussianBlur id="feGaussianBlur4061" inkscape:collect="always" stdDeviation="1.5449742"/>
</filter>
<filter id="filter3393" inkscape:collect="always" style="color-interpolation-filters:sRGB">
<feGaussianBlur id="feGaussianBlur3395" inkscape:collect="always" stdDeviation="0.49977699"/>
</filter>
<filter id="filter3493" inkscape:collect="always" style="color-interpolation-filters:sRGB">
<feGaussianBlur id="feGaussianBlur3495" inkscape:collect="always" stdDeviation="1.105682"/>
</filter>
<filter id="filter3319" inkscape:collect="always" style="color-interpolation-filters:sRGB">
<feGaussianBlur id="feGaussianBlur3321" inkscape:collect="always" stdDeviation="0.58883353"/>
</filter>
<filter height="1.1433711" id="filter3833" inkscape:collect="always" style="color-interpolation-filters:sRGB" width="1.3186002" x="-0.15930007" y="-0.071685553">
<feGaussianBlur id="feGaussianBlur3835" inkscape:collect="always" stdDeviation="0.10560268"/>
</filter>
<filter height="1.2123096" id="filter3479" inkscape:collect="always" style="color-interpolation-filters:sRGB" width="1.0570129" x="-0.028506439" y="-0.10615479">
<feGaussianBlur id="feGaussianBlur3481" inkscape:collect="always" stdDeviation="0.4439284"/>
</filter>
<filter height="1.1735966" id="filter3569" inkscape:collect="always" style="color-interpolation-filters:sRGB" width="1.2297184" x="-0.1148592" y="-0.086798318">
<feGaussianBlur id="feGaussianBlur3571" inkscape:collect="always" stdDeviation="0.6238629"/>
</filter>
<filter height="1.1181082" id="filter3775" inkscape:collect="always" style="color-interpolation-filters:sRGB" width="1.3761964" x="-0.18809821" y="-0.059054088">
<feGaussianBlur id="feGaussianBlur3777" inkscape:collect="always" stdDeviation="0.26451311"/>
</filter>
<filter height="1.2638637" id="filter3283" inkscape:collect="always" style="color-interpolation-filters:sRGB" width="1.0416274" x="-0.020813677" y="-0.13193184">
<feGaussianBlur id="feGaussianBlur3285" inkscape:collect="always" stdDeviation="0.60896269"/>
</filter>
<filter height="1.8533701" id="filter3339" inkscape:collect="always" style="color-interpolation-filters:sRGB" width="1.1665114" x="-0.083255701" y="-0.42668504">
<feGaussianBlur id="feGaussianBlur3341" inkscape:collect="always" stdDeviation="0.50285367"/>
</filter>
<filter height="1.1480397" id="filter3574" inkscape:collect="always" style="color-interpolation-filters:sRGB" width="1.3425866" x="-0.17129332" y="-0.074019864">
<feGaussianBlur id="feGaussianBlur3576" inkscape:collect="always" stdDeviation="0.57604943"/>
</filter>
<filter height="1.249912" id="filter3387" inkscape:collect="always" style="color-interpolation-filters:sRGB" width="1.2041403" x="-0.10207015" y="-0.12495601">
<feGaussianBlur id="feGaussianBlur3389" inkscape:collect="always" stdDeviation="0.44655691"/>
</filter>
<linearGradient id="linearGradient3654">
<stop id="stop3656" offset="0" style="stop-color:#f9ede0"/>
<stop id="stop3670" offset="0.5" style="stop-opacity:0.80575538;stop-color:#f9ede0"/>
<stop id="stop3658" offset="1" style="stop-opacity:0;stop-color:#f9ede0"/>
</linearGradient>
<linearGradient gradientTransform="translate(-372.5,-324.5)" gradientUnits="userSpaceOnUse" id="linearGradient3335" inkscape:collect="always" x1="317.01251" x2="331.42062" y1="431.1243" y2="418.65884">
<stop id="stop3331" offset="0" style="stop-color:#f9eee2"/>
<stop id="stop3333" offset="1" style="stop-opacity:0;stop-color:#f9eee2"/>
</linearGradient>
<linearGradient id="linearGradient3837" inkscape:collect="always">
<stop id="stop3839" offset="0" style="stop-color:#f1e4d4"/>
<stop id="stop3841" offset="1" style="stop-opacity:0;stop-color:#f1e4d4"/>
</linearGradient>
<linearGradient id="linearGradient3433" inkscape:collect="always">
<stop id="stop3435" offset="0" style="stop-color:#fff"/>
<stop id="stop3437" offset="1" style="stop-opacity:0;stop-color:#fff"/>
</linearGradient>
<linearGradient gradientUnits="userSpaceOnUse" id="linearGradient3495" inkscape:collect="always" x1="304.88663" x2="345.62039" y1="385.86127" y2="384.62384">
<stop id="stop3491" offset="0" style="stop-color:#765c44"/>
<stop id="stop3493" offset="1" style="stop-opacity:0;stop-color:#765c44"/>
</linearGradient>
<linearGradient gradientTransform="translate(-372.5,-324.5)" gradientUnits="userSpaceOnUse" id="linearGradient3587" inkscape:collect="always" x1="353.44516" x2="339.76785" y1="390.86218" y2="373.61218">
<stop id="stop3583" offset="0" style="stop-color:#dfcbba"/>
<stop id="stop3585" offset="1" style="stop-opacity:0;stop-color:#dfcbba"/>
</linearGradient>
<linearGradient gradientTransform="matrix(.11855,0,0,.11847,-31.83804,69.93439)" gradientUnits="userSpaceOnUse" id="linearGradient3403" inkscape:collect="always" x1="325.29688" x2="325.29688" y1="481.87405" y2="426.80276">
<stop id="stop3399" offset="0" style="stop-color:#f4f5f8"/>
<stop id="stop3401" offset="1" style="stop-color:#fdfdfe"/>
</linearGradient>
<linearGradient id="linearGradient3516" inkscape:collect="always">
<stop id="stop3518" offset="0" style="stop-color:#c8cddc"/>
<stop id="stop3520" offset="1" style="stop-opacity:0;stop-color:#c8cddc"/>
</linearGradient>
<linearGradient gradientUnits="userSpaceOnUse" id="linearGradient4073" inkscape:collect="always" x1="414.41586" x2="461.90625" y1="458.62646" y2="458.62646">
<stop id="stop4069" offset="0" style="stop-color:#8d97b7"/>
<stop id="stop4071" offset="1" style="stop-opacity:0;stop-color:#8d97b7"/>
</linearGradient>
<linearGradient id="linearGradient3343" inkscape:collect="always">
<stop id="stop3345" offset="0" style="stop-color:#bbc1d4"/>
<stop id="stop3347" offset="1" style="stop-opacity:0;stop-color:#bbc1d4"/>
</linearGradient>
<linearGradient gradientTransform="translate(-372.5,-324.5)" gradientUnits="userSpaceOnUse" id="linearGradient3592" inkscape:collect="always" x1="313.74829" x2="305.67725" y1="444.45746" y2="463.13513">
<stop id="stop3588" offset="0"/>
<stop id="stop3590" offset="1" style="stop-opacity:0"/>
</linearGradient>
<linearGradient gradientTransform="translate(-95.2254)" gradientUnits="userSpaceOnUse" id="linearGradient3279" inkscape:collect="always" x1="338.62283" x2="339.51855" y1="457.90872" y2="502.82175">
<stop id="stop3217" offset="0" style="stop-color:#671800"/>
<stop id="stop3219" offset="1" style="stop-opacity:0;stop-color:#7b3900"/>
</linearGradient>
<linearGradient gradientTransform="matrix(.53664,0,0,1.86343,-372.5,-324.5)" gradientUnits="userSpaceOnUse" id="linearGradient4765" inkscape:collect="always" x1="563.64667" x2="568.98871" y1="214.96599" y2="214.96599">
<stop id="stop3735" offset="0" style="stop-color:#e2e2e2"/>
<stop id="stop3737" offset="1" style="stop-color:#fff"/>
</linearGradient>
<linearGradient gradientUnits="userSpaceOnUse" id="linearGradient3330" inkscape:collect="always" x1="412.78592" x2="412.78592" y1="400.84558" y2="422.63611">
<stop id="stop3165" offset="0" style="stop-color:#fff5e4"/>
<stop id="stop3173" offset="0.25" style="stop-color:#ffecd0"/>
<stop id="stop3171" offset="0.5" style="stop-color:#ffd390"/>
<stop id="stop3167" offset="1" style="stop-color:#ffc46a"/>
</linearGradient>
<linearGradient gradientTransform="matrix(.36857,0,0,.36857,-.84577,-.84577)" gradientUnits="userSpaceOnUse" id="linearGradient2411" x1="18.379412" x2="18.379412" y1="44.980297" y2="3.0816143">
<stop id="stop2492" offset="0" style="stop-color:#791235"/>
<stop id="stop2494" offset="1" style="stop-color:#dd3b27"/>
</linearGradient>
<linearGradient gradientTransform="matrix(.74324,0,0,.74322,-38.22979,10.60933)" gradientUnits="userSpaceOnUse" id="linearGradient2406" x1="63.397362" x2="63.397362" y1="-12.489107" y2="5.4675598">
<stop id="stop4875" offset="0" style="stop-color:#fff"/>
<stop id="stop4877" offset="1" style="stop-opacity:0;stop-color:#fff"/>
</linearGradient>
<linearGradient gradientUnits="userSpaceOnUse" id="linearGradient3439" inkscape:collect="always" x1="324.65039" x2="325.7691" xlink:href="#linearGradient3433" y1="398.85446" y2="370.57019"/>
<linearGradient gradientTransform="translate(-372.5,-324.5)" gradientUnits="userSpaceOnUse" id="linearGradient3505" inkscape:collect="always" x1="330.09335" x2="320.36423" xlink:href="#linearGradient3433" y1="407.39011" y2="367.39182"/>
<linearGradient gradientTransform="translate(-372.5,-324.5)" gradientUnits="userSpaceOnUse" id="linearGradient3522" inkscape:collect="always" x1="283.50647" x2="312.78384" xlink:href="#linearGradient3516" y1="463.03894" y2="443.03894"/>
<linearGradient gradientTransform="translate(-372.5,-324.5)" gradientUnits="userSpaceOnUse" id="linearGradient4132" inkscape:collect="always" x1="326" x2="310.53195" xlink:href="#linearGradient3433" y1="476.40894" y2="429.73987"/>
<linearGradient gradientTransform="translate(-372.5,-324.5)" gradientUnits="userSpaceOnUse" id="linearGradient3349" inkscape:collect="always" x1="315.72318" x2="290.62091" xlink:href="#linearGradient3343" y1="453.0892" y2="434.35086"/>
<linearGradient gradientTransform="translate(58.5,26.5)" gradientUnits="userSpaceOnUse" id="linearGradient3359" inkscape:collect="always" x1="315.72318" x2="290.62091" xlink:href="#linearGradient3343" y1="453.0892" y2="434.35086"/>
<linearGradient gradientUnits="userSpaceOnUse" id="linearGradient3514" inkscape:collect="always" x1="270.50647" x2="299.28384" xlink:href="#linearGradient3516" y1="482.53894" y2="441.53894"/>
<linearGradient gradientTransform="translate(-372.5,-324.5)" gradientUnits="userSpaceOnUse" id="linearGradient3584" inkscape:collect="always" x1="313.74829" x2="305.67725" xlink:href="#linearGradient3516" y1="444.45746" y2="463.13513"/>
<linearGradient gradientUnits="userSpaceOnUse" id="linearGradient4289" inkscape:collect="always" spreadMethod="reflect" x1="73.742638" x2="80" xlink:href="#linearGradient3433" y1="15.336544" y2="19.281664"/>
<mask id="mask3287" maskUnits="userSpaceOnUse">
<path d="m 412.56716,362.7206 c -7.77656,0.205 -16.77771,5.86053 -19.90625,12.8125 -3.18672,7.08121 -2.72281,15.53626 -0.8125,25.3125 1.91032,9.77623 8.18827,19.94656 11.375,23.625 3.0204,3.48645 6.88924,2.85632 9.34375,2.78125 0.1258,0 0.30234,-0.004 0.4375,0 2.45451,0.0751 6.32335,0.7052 9.34375,-2.78125 3.18673,-3.67844 9.46468,-13.84877 11.375,-23.625 1.91033,-9.77624 2.37422,-18.23129 -0.8125,-25.3125 -3.12855,-6.95197 -12.12969,-12.6075 -19.90625,-12.8125 l -0.4375,0 z" id="path3289" inkscape:connector-curvature="0" sodipodi:nodetypes="csssssssscc" style="fill:url(#radialGradient3291);fill-rule:evenodd"/>
</mask>
<radialGradient cx="324.39758" cy="396.09259" fx="330.04404" fy="392.75388" gradientTransform="matrix(.11855,0,0,.17055,-31.8121,49.30285)" gradientUnits="userSpaceOnUse" id="radialGradient3155" inkscape:collect="always" r="22.444885">
<stop id="stop3151" offset="0" style="stop-color:#faf0e5"/>
<stop id="stop3378" offset="0.591133" style="stop-color:#f7e7d6"/>
<stop id="stop3153" offset="1" style="stop-color:#efcfac"/>
</radialGradient>
<radialGradient cx="332.49338" cy="369.61789" fx="332.49338" fy="369.61789" gradientTransform="matrix(-.08273,-.01304,.00988,-.0626,31.43416,141.52887)" gradientUnits="userSpaceOnUse" id="radialGradient3374" inkscape:collect="always" r="22.779818">
<stop id="stop3370" offset="0" style="stop-color:#e5d3c3"/>
<stop id="stop3372" offset="1" style="stop-opacity:0;stop-color:#e5d3c3"/>
</radialGradient>
<radialGradient cx="23.895569" cy="3.9900031" fx="23.895569" fy="3.9900031" gradientTransform="matrix(0,.87966,-1.16113,0,12.63293,-21.08413)" gradientUnits="userSpaceOnUse" id="radialGradient2409" r="20.397499">
<stop id="stop3244" offset="0" style="stop-color:#f8b17e"/>
<stop id="stop3246" offset="0.26238" style="stop-color:#e35d4f"/>
<stop id="stop3248" offset="0.66093999" style="stop-color:#c6262e"/>
<stop id="stop3250" offset="1" style="stop-color:#690b54"/>
</radialGradient>
<radialGradient cx="312" cy="431.38034" fx="311.27777" fy="433.70554" gradientTransform="matrix(.08207,0,0,.14012,-20.45732,60.65258)" gradientUnits="userSpaceOnUse" id="radialGradient3660" inkscape:collect="always" r="16.25" xlink:href="#linearGradient3654"/>
<radialGradient cx="312" cy="431.38034" fx="311.27777" fy="433.70554" gradientTransform="matrix(-.08207,0,0,.14012,33.8381,60.65258)" gradientUnits="userSpaceOnUse" id="radialGradient3674" inkscape:collect="always" r="16.25" xlink:href="#linearGradient3654"/>
<radialGradient cx="412.43237" cy="395.73904" fx="412.43237" fy="395.73904" gradientTransform="matrix(1,0,0,1.43959,.35355,-174.66839)" gradientUnits="userSpaceOnUse" id="radialGradient3291" inkscape:collect="always" r="22.444885" xlink:href="#linearGradient3279"/>
<radialGradient cx="303.71942" cy="397.17728" fx="303.71942" fy="397.17728" gradientTransform="matrix(1,0,0,2.57687,43.13351,-626.29699)" gradientUnits="userSpaceOnUse" id="radialGradient3853" inkscape:collect="always" r="0.79621875" xlink:href="#linearGradient3837"/>
<radialGradient cx="303.71942" cy="397.17728" fx="303.71942" fy="397.17728" gradientTransform="matrix(1,0,0,2.57687,-372.5,-950.79699)" gradientUnits="userSpaceOnUse" id="radialGradient3843" inkscape:collect="always" r="0.79621875" xlink:href="#linearGradient3837"/>
</defs>
<sodipodi:namedview height="128" id="base" inkscape:current-layer="layer1" inkscape:cx="-0.61135649" inkscape:cy="11.789177" inkscape:document-units="px" inkscape:grid-points="true" inkscape:guide-bbox="true" inkscape:pageopacity="0" inkscape:pageshadow="2" inkscape:window-height="692" inkscape:window-maximized="1" inkscape:window-width="1366" inkscape:window-x="0" inkscape:window-y="24" inkscape:zoom="16" width="128">
<inkscape:grid id="grid4304" type="xygrid"/>
<inkscape:grid id="GridFromPre046Settings" style="opacity:0.2;color:#00f" type="xygrid"/>
</sodipodi:namedview>
<g id="layer1" inkscape:groupmode="layer" inkscape:label="Livello 1" transform="translate(0,-112)">
<path d="m 118.07128,118.07128 c 0,4.00146 -24.508892,7.24528 -54.74214,7.24528 -30.233248,0 -54.7421382,-3.24382 -54.7421382,-7.24528 0,-4.00146 24.5088902,-7.24528 54.7421382,-7.24528 30.233248,0 54.74214,3.24382 54.74214,7.24528 z" id="path2724" sodipodi:cx="63.32914" sodipodi:cy="118.07128" sodipodi:rx="54.742138" sodipodi:ry="7.2452831" sodipodi:type="arc" style="filter:url(#filter3319);fill:#8994b5" transform="matrix(.11207,0,0,.18332,-.40009,104.18758)"/>
<path d="m -30.392688,128.03687 0,-0.32934 0,0.32934 z" id="path8227" inkscape:connector-curvature="0" sodipodi:nodetypes="ccc" style="fill:#fff;fill-opacity:0.75688076"/>
<path d="m -98.9545,147.40533 1.14644,1.21967 c 15.64476,8.91215 36.43722,8.5 49.80806,8.5 13.37084,0 34.60524,0.41215 50.25,-8.5 l 1.5,-1.75 c -32.9308,-25.78368 -88.77254,-47.21838 -102.7045,0.53033 z" id="path3259" inkscape:connector-curvature="0" sodipodi:nodetypes="ccsccc" style="filter:url(#filter3624);fill:#c8cddc;fill-rule:evenodd" transform="matrix(.11855,0,0,.11847,12.32146,108.37834)"/>
<path d="m 8.827128,118.08352 c 0.226656,-0.0192 0.447732,-0.17927 0.702048,-1.37176 0.0246,-0.24827 -0.306612,-0.27177 -0.324828,-0.0523 -0.246276,0.47471 -0.35418,0.94942 -0.37722,1.42413 z" id="path3845" inkscape:connector-curvature="0" sodipodi:nodetypes="cccc" style="fill:#ddc2a4;fill-rule:evenodd"/>
<path d="m 4.417056,118.25107 c -0.2266564,-0.0192 -0.4477324,-0.17929 -0.7020484,-1.37176 -0.0246,-0.24827 0.306612,-0.27178 0.324828,-0.0523 0.2462764,0.4747 0.3541804,0.94941 0.3772204,1.42412 z" id="path3715" inkscape:connector-curvature="0" sodipodi:nodetypes="cccc" style="fill:#ddc2a4;fill-rule:evenodd"/>
<path d="m 4.763964,118.46321 c 0.179388,0.85327 0.680616,2.7718 0.05928,3.22834 0.07668,0.82927 0.83916,1.14253 1.778232,1.3254 l 0.177816,0 c 0.939072,-0.18287 1.7016,-0.49613 1.778244,-1.3254 -0.621348,-0.45654 -0.12012,-2.37507 0.05928,-3.22834 l -1.92642,0.87743 -1.92642,-0.87743 z" id="path3629" inkscape:connector-curvature="0" sodipodi:nodetypes="cccccccc" style="fill:#cbb7a2;fill-rule:evenodd"/>
<path d="m 4.763964,118.46321 c 0.179388,0.85327 0.680616,2.7718 0.05928,3.22834 0.07668,0.82927 0.83916,1.14253 1.778232,1.3254 l 0.177816,0 c 0.939072,-0.18287 1.7016,-0.49613 1.778244,-1.3254 -0.621348,-0.45654 -0.12012,-2.37507 0.05928,-3.22834 l -1.92642,0.87743 -1.92642,-0.87743 z" id="path3634" inkscape:connector-curvature="0" sodipodi:nodetypes="cccccccc" style="fill:url(#radialGradient3660);fill-rule:evenodd"/>
<path d="m 8.616804,118.46321 c -0.179388,0.85327 -0.680616,2.7718 -0.05928,3.22834 -0.07668,0.82927 -0.839172,1.14253 -1.778244,1.3254 l -0.177816,0 c -0.939072,-0.18287 -1.7016,-0.49613 -1.778232,-1.3254 0.621336,-0.45654 0.120108,-2.37507 -0.05928,-3.22834 l 1.92642,0.87743 1.92642,-0.87743 z" id="path3672" inkscape:connector-curvature="0" sodipodi:nodetypes="cccccccc" style="opacity:0.74906365;fill:url(#radialGradient3674);fill-rule:evenodd"/>
<path d="m 324.17882,363.78125 c -7.77656,0.205 -13.87771,5.86053 -17.00625,12.8125 -3.18672,7.08121 -2.72281,15.53626 -0.8125,25.3125 1.91032,9.77623 5.28827,19.94656 8.475,23.625 3.0204,3.48645 6.88924,2.85632 9.34375,2.78125 0.1258,0 0.30234,-0.004 0.4375,0 2.45451,0.0751 6.32335,0.7052 9.34375,-2.78125 3.18673,-3.67844 7.56468,-13.84877 9.475,-23.625 1.91033,-9.77624 2.37422,-18.23129 -0.8125,-25.3125 -3.12855,-6.95197 -10.22969,-12.6075 -18.00625,-12.8125 l -0.4375,0 z" id="path3676" inkscape:connector-curvature="0" sodipodi:nodetypes="csssssssscc" style="filter:url(#filter3694);fill:#382509;clip-path:url(#clipPath3705);fill-rule:evenodd" transform="matrix(.11855,0,0,.11847,-31.81432,69.93439)"/>
<path d="m 6.618972,113.02834 c -0.9219,0.0242 -1.988988,0.69431 -2.359872,1.51791 -0.3777844,0.83891 -0.3227884,1.8406 -0.09636,2.9988 0.2264764,1.15821 0.9707164,2.36309 1.3485004,2.79888 0.358068,0.41306 0.816708,0.3384 1.107696,0.3295 0.01488,0 0.03588,-5.8e-4 0.05184,0 0.290976,0.008 0.749616,0.0835 1.107684,-0.3295 0.377784,-0.43579 1.122036,-1.64067 1.3485,-2.79888 0.226476,-1.1582 0.28146,-2.15989 -0.09636,-2.9988 -0.370884,-0.8236 -1.43796,-1.49362 -2.35986,-1.51791 l -0.05184,0 z" id="path2169" inkscape:connector-curvature="0" sodipodi:nodetypes="csssssssscc" style="fill:url(#radialGradient3155);fill-rule:evenodd"/>
<path d="m 391.84841,400.84559 c 3.67809,10.12978 8.18827,19.94656 11.375,23.625 3.0204,3.48645 6.88924,2.85632 9.34375,2.78125 0.1258,0 0.30234,-0.004 0.4375,0 2.45451,0.0751 6.32335,0.7052 9.34375,-2.78125 3.18673,-3.67844 8.05047,-13.84877 11.375,-23.625 l -41.875,0 z" id="path3157" inkscape:connector-curvature="0" sodipodi:nodetypes="csssscc" style="fill:url(#linearGradient3330);fill-rule:evenodd;mask:url(#mask3287)" transform="matrix(.11855,0,0,.11847,-42.28716,70.05878)"/>
<path d="m -34.57938,94.15885 c -2.03036,3.63213 -3.0434,3.30165 -5.10812,5.8099 -2.86612,3.30838 -6.79588,2.25873 -9.125,2.1875 -0.12825,-0.004 -0.28689,-1e-5 -0.40625,0 -2.32915,0.0712 -6.30889,0.68335 -9.175,-2.625 -0.32265,-0.37242 -0.71291,-0.83899 -1.09375,-1.34375 0.74015,1.06708 1.48636,2.02247 2.0625,2.6875 2.86612,3.30835 6.81462,2.69624 9.14375,2.625 0.11936,1e-5 0.30924,-0.004 0.4375,0 2.32911,0.0713 5.97763,0.68336 8.84375,-2.625 1.4015,-1.61776 2.41748,-3.10243 4.42062,-6.71615 z" id="path3161" inkscape:connector-curvature="0" sodipodi:nodetypes="ccssscssssc" style="filter:url(#filter3325);fill:url(#linearGradient3335);fill-rule:evenodd" transform="matrix(.11855,0,0,.11847,12.32146,108.37834)"/>
<path d="m 347.29991,395.43789 c -0.0925,-0.73861 -1.15458,-0.0553 -1.23744,0.88388 -0.0829,0.93913 0.75464,3.21422 0.90599,2.87262 1.21215,-2.73577 0.46272,-2.70792 0.33145,-3.7565 z" id="path3849" inkscape:connector-curvature="0" sodipodi:nodetypes="csss" style="filter:url(#filter3833);fill:url(#radialGradient3853);fill-rule:evenodd" transform="matrix(-.11855,0,0,.11847,50.19565,69.76684)"/>
<path d="m -68.3336,70.93789 c -0.09247,-0.73861 -1.15458,-0.05525 -1.23744,0.88388 -0.08286,0.93913 0.75464,3.21422 0.90599,2.87262 1.21215,-2.73577 0.46272,-2.70792 0.33145,-3.7565 z" id="path3779" inkscape:connector-curvature="0" sodipodi:nodetypes="csss" style="filter:url(#filter3833);fill:url(#radialGradient3843);fill-rule:evenodd" transform="matrix(.11855,0,0,.11847,12.32146,108.37834)"/>
<path d="m 324.5,363.375 c -12.558,0 -22.74999,10.19201 -22.75,22.75 0,3.49706 -0.34202,6.96567 1.0697,9.92678 L 304,396.91529 c 2.57247,-4.54407 0.92256,-8.09951 2,-12.04029 1,-2.5 2.58874,-4.663 5,-5.5 4.29826,-1.49201 10.81729,4.17868 13.5,4.25 2.90006,0.0771 9.05852,-5.34646 13.46875,-4.05 2.43629,0.71618 4.44027,3.0071 5,5.5 1.04798,4.66743 1.59553,6.25655 2.0026,11.27963 l 1.18306,-0.60463 c 1.37425,-2.92891 1.09559,-6.17758 1.09559,-9.625 0,-12.558 -10.19199,-22.74999 -22.75,-22.75 z" id="path3380" inkscape:connector-curvature="0" sodipodi:nodetypes="cscccssssccsc" style="filter:url(#filter3420);fill:url(#linearGradient3439);clip-path:url(#clipPath3429)" transform="matrix(.11855,0,0,.11847,-31.85864,69.93439)"/>
<path d="m 6.631104,112.98391 c -1.488732,0 -2.6969764,1.20746 -2.6969884,2.69522 0,0.4143 -0.04056,0.82522 0.126816,1.17604 l 0.13992,0.10236 c 0.3049684,-0.53834 0.1093204,-1.0188 0.2370964,-1.48567 0.11856,-0.29617 0.3069,-0.55243 0.592752,-0.65159 0.509556,-0.17676 1.28238,0.49506 1.600404,0.50351 0.343812,0.01 1.073892,-0.25167 1.596708,-0.098 0.288828,0.0848 0.526392,0.35627 0.592752,0.6516 0.124236,0.55296 0.189144,0.41872 0.237408,1.01382 l 0.140244,-0.0716 c 0.162924,-0.34699 0.129888,-0.73185 0.129888,-1.14029 0,-1.48776 -1.208256,-2.69521 -2.697,-2.69521 z" id="path3347" inkscape:connector-curvature="0" sodipodi:nodetypes="cscccssssccsc" style="fill:#b09278"/>
<path d="m 6.631104,112.98391 c -0.951324,0.51668 -1.151124,0.82383 -1.600404,1.8363 0.509556,-0.17676 1.28238,0.49506 1.600404,0.50351 0.343812,0.01 1.143612,-0.29601 1.66644,-0.14241 0.288816,0.0848 0.526392,0.35624 0.592752,0.65158 0.124236,0.55296 0.1194,0.46306 0.167676,1.05816 l 0.140244,-0.0716 c 0.162924,-0.34699 0.129888,-0.73185 0.129888,-1.14028 0,-1.48776 -1.208256,-2.69522 -2.697,-2.69522 z" id="path3358" inkscape:connector-curvature="0" sodipodi:nodetypes="ccsssccsc" style="fill:url(#radialGradient3374)"/>
<path d="m 312.54197,377.13598 c -0.59485,-0.0263 -1.18147,0.0448 -1.71875,0.21875 -2.41126,0.78087 -4.44194,3.60538 -5.44194,6.08211 -0.92612,4.1784 0.39346,5.94573 -0.49464,11.15501 0.84705,-3.03043 0.69815,-9.51676 0.93658,-10.42462 1,-2.50001 2.58874,-4.663 5,-5.5 4.29826,-1.49202 10.81729,4.17868 13.5,4.25 2.90006,0.0771 9.05852,-2.12428 13.46875,-0.82782 2.43629,0.71617 4.44027,3.0071 5,5.5 l 0,-0.5625 c -0.55973,-2.50593 -2.56371,-4.8521 -5,-5.625 -4.41023,-1.39914 -10.12675,-0.66589 -13.02681,-0.81051 -2.34737,-0.11705 -8.05923,-3.27163 -12.22319,-3.45542 z" id="path3441" inkscape:connector-curvature="0" sodipodi:nodetypes="cscccsssccssc" style="filter:url(#filter3479);fill:url(#linearGradient3495)" transform="matrix(.11855,0,0,.11847,-31.89826,69.93439)"/>
<path d="m -39.6875,56.221855 c 5.490352,-0.197478 -5.37217,-1.720195 -9.01956,-2.301355 -5.891562,-0.938737 -13.74889,-4.05702 -14.84149,-6.96579 -0.71516,-1.90391 4.892,-4.76519 4.54855,-3.84253 -0.65577,1.86233 -1.47583,3.56833 3.125,7.625 2.30198,1.77729 4.87994,3.83927 8.375,4.125 2.5,0.26777 5.3125,1.832065 7.8125,1.359675 z" id="path3497" inkscape:connector-curvature="0" sodipodi:nodetypes="csscccc" style="filter:url(#filter3625);opacity:0.88014981;fill:url(#linearGradient3505);fill-rule:evenodd" transform="matrix(.11855,0,0,.11847,12.32146,108.37834)"/>
<path d="m -29.75,50.61218 2.25,4.5 c 1.52892,6.14118 0.92245,5.35732 0.73483,8.33318 C -28.54202,59.02869 -27.22154,56.27885 -33,53.11218 l -6.25,-4 9.5,1.5 z" id="path3535" inkscape:connector-curvature="0" sodipodi:nodetypes="cccccc" style="filter:url(#filter3569);fill:url(#linearGradient3587);fill-rule:evenodd" transform="matrix(.11855,0,0,.11847,12.22162,108.37834)"/>
<path d="m -68.53033,81.05152 1.375,-2.5 c 0,0 -1.25,-3.125 -1.25,-4 0,-0.875 -0.88886,-3.4545 -0.88886,-3.4545 l -0.72791,0.47032 1.49177,9.48418 z" id="path3717" inkscape:connector-curvature="0" sodipodi:nodetypes="ccsccc" style="filter:url(#filter3775);opacity:0.33333333;fill:url(#linearGradient4765);fill-rule:evenodd" transform="matrix(.11855,0,0,.11847,12.32146,108.37834)"/>
<path d="m 6.72558,122.42471 c -1.21428,0.034 -1.584696,-0.46841 -1.689324,-0.91133 -0.151476,0.0248 -0.241104,0.14526 -0.237096,0.23694 -0.8397244,0.33585 -1.8550444,0.67439 -2.7562684,1.12548 -0.334524,0.16744 -0.715632,0.6777 -0.815016,0.94777 -0.30313202,0.82368 -0.63720002,1.9844 -0.63720002,1.9844 l 0.177816,0.20732 c 1.85467202,1.05583 4.37199642,1.00702 5.95708842,1.00702 1.585092,0 4.102416,0.0488 5.957088,-1.00702 l 0.177816,-0.20732 c 0,0 -0.334068,-1.16072 -0.637188,-1.9844 -0.09936,-0.27007 -0.480504,-0.78033 -0.815028,-0.94777 -0.901236,-0.45109 -1.916544,-0.78963 -2.756268,-1.12548 0.0048,-0.0917 -0.08556,-0.21205 -0.237096,-0.23694 -0.28614,0.44339 -0.475044,0.87743 -1.689324,0.91133 z" id="path3875" inkscape:connector-curvature="0" sodipodi:nodetypes="cccssccsccssccz" style="fill:url(#linearGradient3403);fill-rule:evenodd"/>
<path d="m -78.34358,152.98437 c -3.91725,-13.01958 -5.49592,-19.83203 3.53553,-26.87006 l 19.09189,-5.65686 -8.48528,-6.36395 -19.79899,7.77817 -10.6066,12.72792 c 0,0 -4.24265,9.8995 -1.41422,11.31371 2.82843,1.41422 9.8995,5.65686 9.8995,5.65686 l 7.77817,1.41421 z" id="path3451" inkscape:connector-curvature="0" sodipodi:nodetypes="ccccccscc" style="filter:url(#filter3493);opacity:0.32209742;fill:url(#linearGradient3522);fill-rule:evenodd" transform="matrix(.11855,0,0,.11847,12.32146,108.37834)"/>
<path d="m 395.90625,435.375 c -1.27778,0.21006 -2.03383,1.22613 -2,2 -7.08332,2.83488 -15.64784,5.69235 -23.25,9.5 -2.82181,1.41335 -6.03661,5.72037 -6.875,8 -2.55697,6.95256 -5.375,16.75 -5.375,16.75 l 1.5,1.75 c 15.64477,8.91215 36.87916,8.5 50.25,8.5 13.37085,0 34.60524,0.41215 50.25,-8.5 l 1.5,-1.75 c 10e-6,0 -2.81802,-9.79744 -5.375,-16.75 -0.83838,-2.27963 -4.05318,-6.58665 -6.875,-8 -7.60215,-3.80765 -16.16667,-6.66512 -23.25,-9.5 0.0338,-0.77387 -0.72221,-1.78994 -2,-2 -2.41362,3.74264 -4.00719,7.40137 -14.25,7.6875 -0.64018,0.0179 -1.25799,0.0163 -1.84375,0 0.80243,0.0468 1.64422,0.0883 2.5625,0.0625 9.79135,-0.27525 11.31776,-3.80588 13.625,-7.40625 1.22147,0.20208 1.93858,1.19304 1.90625,1.9375 6.77112,2.72711 14.95165,5.46211 22.21875,9.125 2.69745,1.35963 5.79232,5.52579 6.59375,7.71875 2.44429,6.68826 5.12499,16.09377 5.125,16.09375 l -1.4375,1.6875 c -14.95522,8.57336 -35.24974,8.18749 -48.03125,8.1875 -12.78153,0 -34.57865,1.62329 -49.53385,-6.95006 l -1.52589,-3.01333 c 0,0 3.74138,-14.97395 6.89277,-17.2428 1.89483,-1.36419 3.71952,-5.12167 6.41697,-6.48131 7.2671,-3.6629 15.44762,-6.39789 22.21875,-9.125 -0.0206,-0.47514 0.25339,-1.06595 0.78125,-1.46875 -0.0867,-0.26793 -0.15627,-0.54781 -0.21875,-0.8125 z" id="path3885" inkscape:connector-curvature="0" sodipodi:nodetypes="ccssccsccssccscsccssccsccssccc" style="filter:url(#filter4059);fill:url(#linearGradient4073);clip-path:url(#clipPath4063);fill-rule:evenodd" transform="matrix(.11855,0,0,.11847,-41.89808,69.93439)"/>
<path d="m -84.125,124.875 -1,1.75 c 4.03714,8.1176 5.20663,18.14697 7.4375,27.46875 -6.98354,-1.21816 -13.72843,-3.25291 -19.8125,-6.71875 l 0,0.4375 c 15.64477,8.91216 36.87916,8.5 50.25,8.5 13.37085,1e-5 34.60524,0.41215 50.25,-8.5 l 1.5,-1.75 -1.833441,1.48405 c -15.64475,8.91216 -36.545719,8.46226 -49.916559,8.46226 -7.45098,0 -17.33699,-0.57992 -27.34375,-2.00881 -3.17708,-14.39161 -6.35417,-22.16587 -9.53125,-29.125 z" id="path3880" inkscape:connector-curvature="0" sodipodi:nodetypes="cccccscccscc" style="filter:url(#filter3393);fill:url(#linearGradient4132);fill-rule:evenodd" transform="matrix(.11855,0,0,.11847,12.32146,108.37834)"/>
<path d="m 463.75,435.375 c -1.27779,0.21006 -2.03383,1.22613 -2,2 -0.0793,0.0317 -0.17038,0.062 -0.25,0.0937 1.25202,4.0018 5.15727,8.27208 16.75,7.96875 11.50018,-0.3009 13.82799,-3.95877 16.46875,-7.875 -0.15115,-0.06 -0.3189,-0.12753 -0.46875,-0.1875 0.0338,-0.77387 -0.72221,-1.78994 -2,-2 -2.41363,3.74264 -4.00719,7.40137 -14.25,7.6875 -10.24281,0.28614 -13.36749,-3.94879 -14.25,-7.6875 z m 33.71875,3.25 c 0.0532,0.16802 0.10109,0.31159 0.0937,0.46875 4.20807,1.57746 8.83741,3.15593 13.5625,4.875 -4.63354,-1.95913 -9.30506,-3.67529 -13.65625,-5.34375 z" id="path3261" inkscape:connector-curvature="0" sodipodi:nodetypes="cccscccsccccc" style="fill:#f4f5f8;stroke-width:0.14528722;filter:url(#filter3283);stroke:#98a2bf;clip-path:url(#clipPath3289);fill-rule:evenodd" transform="matrix(.11855,0,0,.11847,-49.94083,69.93485)"/>
<path d="m -59.25169,118.68969 -17.32412,0.70711 15.20279,-2.12132 2.12133,1.41421 z" id="path3293" inkscape:connector-curvature="0" sodipodi:nodetypes="cccc" style="filter:url(#filter3339);fill:url(#linearGradient3349);fill-rule:evenodd" transform="matrix(.11855,0,0,.11847,12.32146,108.37834)"/>
<path d="m 371.74831,469.68969 -17.32412,0.70711 15.20279,-2.12132 2.12133,1.41421 z" id="path3357" inkscape:connector-curvature="0" sodipodi:nodetypes="cccc" style="filter:url(#filter3339);fill:url(#linearGradient3359);fill-rule:evenodd" transform="matrix(.04027,.11143,.1115,-.04025,-63.55151,104.02853)"/>
<path d="m 294.15642,477.48437 c -3.91725,-13.01958 -5.49592,-19.83203 3.53553,-26.87006 l 19.09189,-5.65686 -8.48528,-6.36395 -19.79899,7.77817 -10.6066,12.72792 c 0,0 -4.24265,9.8995 -1.41422,11.31371 2.82843,1.41422 9.8995,5.65686 9.8995,5.65686 l 7.77817,1.41421 z" id="path3498" inkscape:connector-curvature="0" sodipodi:nodetypes="ccccccscc" style="filter:url(#filter3493);opacity:0.32209742;fill:url(#linearGradient3514);fill-rule:evenodd" transform="matrix(-.11855,0,0,.11847,45.31249,69.93439)"/>
<path d="m -59.2517,120.45746 -7.07106,17.67767 7.07106,-17.67767 z" id="path3524" inkscape:connector-curvature="0" style="filter:url(#filter3574);stroke:url(#linearGradient3592);opacity:0.06367044;fill:url(#linearGradient3584);stroke-width:0.29057443;fill-rule:evenodd" transform="matrix(.11855,0,0,.11847,12.32146,108.37834)"/>
<path d="m 25.556292,108.73206 0,-0.32935 0,0.32935 z" id="path2276" inkscape:connector-curvature="0" sodipodi:nodetypes="ccc" style="fill:#fff;fill-opacity:0.75688076"/>
<path d="m 29.607312,115.0243 0,-0.17992 0,0.17992 z" id="path1561" inkscape:connector-curvature="0" sodipodi:nodetypes="ccc" style="fill:#fff;fill-opacity:0.75688076"/>
<path d="m 69.875971,12.057888 c -1.077088,0.06528 -2.528221,0.219164 -3,0.9375 L 68.465655,24.133449 79,23.37409 79,22.90534 C 80.740958,20.33518 74.219552,11.998548 69.875971,12.057888 z" id="path3091" inkscape:connector-curvature="0" sodipodi:nodetypes="cccccc" style="filter:url(#filter3387);fill:url(#linearGradient4289);fill-rule:evenodd" transform="matrix(-.05892,0,0,.05892,16.20391,121.155)"/>
<path d="m 69.875971,12.057888 c -1.077088,0.06528 -2.528221,0.219164 -3,0.9375 L 68.172686,21.789699 79,23.37409 79,22.90534 C 80.740958,20.33518 74.219552,11.998548 69.875971,12.057888 z" id="path3095" inkscape:connector-curvature="0" sodipodi:nodetypes="cccccc" style="filter:url(#filter3387);fill:url(#linearGradient4289);fill-rule:evenodd" transform="matrix(.05892,0,0,.05892,8.70367,121.155)"/>
<path d="m 69.875971,12.057888 c -1.077088,0.06528 -2.528221,0.219164 -3,0.9375 L 68.465655,24.133449 79,23.37409 79,22.90534 C 80.740958,20.33518 74.219552,11.998548 69.875971,12.057888 z" id="path3221" inkscape:connector-curvature="0" sodipodi:nodetypes="cccccc" style="filter:url(#filter3387);opacity:0.55056176;fill:url(#linearGradient4289);fill-rule:evenodd" transform="matrix(.05892,0,0,.05892,10.58921,122.99483)"/>
<path d="m 69.875971,12.057888 c -1.077088,0.06528 -2.528221,0.219164 -3,0.9375 L 68.465655,24.133449 79,23.37409 79,22.90534 C 80.740958,20.33518 74.219552,11.998548 69.875971,12.057888 z" id="path3217" inkscape:connector-curvature="0" sodipodi:nodetypes="cccccc" style="filter:url(#filter3387);opacity:0.55056176;fill:url(#linearGradient4289);fill-rule:evenodd" transform="matrix(-.05892,0,0,.05892,14.27647,122.99483)"/>
<g id="layer1-0" transform="matrix(.53906,0,0,.53906,7.3125,119.3125)">
<path d="m 8.0000011,0.50182787 c -4.1372321,0 -7.4981741,3.36093913 -7.4981741,7.49817173 0,4.1372334 3.360942,7.4981754 7.4981741,7.4981724 4.1372309,0 7.4981759,-3.360939 7.4981719,-7.4981724 0,-4.1372326 -3.360941,-7.49817173 -7.4981719,-7.49817173 z" id="path2555" inkscape:connector-curvature="0" style="stroke:url(#linearGradient2411);stroke-linejoin:round;fill:url(#radialGradient2409);stroke-width:1.00365424;stroke-linecap:round"/>
<path d="M 14.500001,7.9997709 C 14.500001,11.589737 11.589636,14.5 8.0000818,14.5 4.4101984,14.5 1.5000001,11.589705 1.5000001,7.9997709 c 0,-3.5898006 2.9101983,-6.4997695 6.5000817,-6.4997695 3.5895542,0 6.4999192,2.9099689 6.4999192,6.4997695 l 0,0 z" id="path2463" inkscape:connector-curvature="0" style="stroke:url(#linearGradient2406);opacity:0.4;fill:none"/>
<path d="M 5.2624588,2.9999997 4.0000004,4.2624583 6.6046516,6.8538207 c 0.080018,0.081027 0.080018,0.211332 0,0.2923584 L 4.0000004,9.7375411 5.2624588,11 7.8538212,8.4086383 c 0.081026,-0.080018 0.2113312,-0.080018 0.2923584,0 L 10.737542,11 12,9.7375411 9.408638,7.1461791 c -0.080018,-0.081026 -0.080018,-0.2113312 0,-0.2923584 L 12,4.2624583 10.737542,2.9999997 8.1461796,5.591362 c -0.081027,0.080018 -0.211332,0.080018 -0.2923584,0 L 5.2624588,2.9999997 z" id="path3243" inkscape:connector-curvature="0" style="opacity:0.2;fill-rule:evenodd"/>
<path d="M 5.2624588,4.0000006 4.0000004,5.262459 6.6046516,7.8538205 c 0.080018,0.081027 0.080018,0.211332 0,0.2923592 L 4.0000004,10.737542 5.2624588,12 7.8538212,9.4086377 c 0.081026,-0.080018 0.2113312,-0.080018 0.2923584,0 L 10.737542,12 12,10.737542 9.408638,8.1461797 c -0.080018,-0.081027 -0.080018,-0.211332 0,-0.2923592 L 12,5.262459 10.737542,4.0000006 8.1461796,6.5913621 c -0.081027,0.080018 -0.211332,0.080018 -0.2923584,0 L 5.2624588,4.0000006 z" id="path3256" inkscape:connector-curvature="0" style="fill:#fff;fill-rule:evenodd"/>
</g>
</g>
</svg>
