<?xml version="1.0" encoding="utf8" standalone="no"?>
<svg height="16" id="svg2156" inkscape:version="0.48.0 r9654" sodipodi:docname="services.svg" sodipodi:version="0.32" width="16" xmlns="http://www.w3.org/2000/svg" xmlns:cc="http://creativecommons.org/ns#" xmlns:dc="http://purl.org/dc/elements/1.1/" xmlns:inkscape="http://www.inkscape.org/namespaces/inkscape" xmlns:rdf="http://www.w3.org/1999/02/22-rdf-syntax-ns#" xmlns:sodipodi="http://sodipodi.sourceforge.net/DTD/sodipodi-0.dtd" xmlns:svg="http://www.w3.org/2000/svg" xmlns:xlink="http://www.w3.org/1999/xlink">
<defs id="defs2158">
<linearGradient id="linearGradient2917" inkscape:collect="always">
<stop id="stop2919" offset="0"/>
<stop id="stop2921" offset="1" style="stop-opacity:0"/>
</linearGradient>
<linearGradient id="linearGradient30539" inkscape:collect="always">
<stop id="stop30541" offset="0" style="stop-color:#fff"/>
<stop id="stop30543" offset="1" style="stop-opacity:0;stop-color:#fff"/>
</linearGradient>
<linearGradient gradientTransform="translate(.17,.0162)" gradientUnits="userSpaceOnUse" id="linearGradient3087" inkscape:collect="always" x1="61.449543" x2="63.463215" xlink:href="#linearGradient2917" y1="70.109543" y2="75.52829"/>
<linearGradient gradientTransform="matrix(.12162,0,0,.12162,-.3311,111.27336)" gradientUnits="userSpaceOnUse" id="linearGradient3091" inkscape:collect="always" x1="11.043583" x2="46.833241" xlink:href="#linearGradient2917" y1="52.22617" y2="52.22617"/>
<linearGradient gradientUnits="userSpaceOnUse" id="linearGradient3095" inkscape:collect="always" x1="-742.43384" x2="-739.79175" xlink:href="#linearGradient30539" y1="195.60983" y2="217.92102"/>
<linearGradient gradientTransform="matrix(.03956,0,0,.03699,31.27294,104.39468)" gradientUnits="userSpaceOnUse" id="linearGradient3099" inkscape:collect="always" spreadMethod="reflect" x1="-744.58466" x2="-728.62476" xlink:href="#linearGradient30539" y1="296.54315" y2="296.41748"/>
<linearGradient gradientTransform="matrix(.03956,0,0,.03699,31.27294,105.16564)" gradientUnits="userSpaceOnUse" id="linearGradient3101" inkscape:collect="always" spreadMethod="reflect" x1="-744.58466" x2="-728.62476" xlink:href="#linearGradient30539" y1="296.54315" y2="296.41748"/>
<linearGradient gradientTransform="matrix(.03956,0,0,.03699,31.27294,103.62372)" gradientUnits="userSpaceOnUse" id="linearGradient3103" inkscape:collect="always" spreadMethod="reflect" x1="-744.58466" x2="-728.62476" xlink:href="#linearGradient30539" y1="296.54315" y2="296.41748"/>
<linearGradient gradientTransform="matrix(.03956,0,0,.03699,31.27294,105.9366)" gradientUnits="userSpaceOnUse" id="linearGradient3105" inkscape:collect="always" spreadMethod="reflect" x1="-744.58466" x2="-728.62476" xlink:href="#linearGradient30539" y1="296.54315" y2="296.41748"/>
<linearGradient gradientTransform="matrix(.03956,0,0,.03699,31.27294,106.70757)" gradientUnits="userSpaceOnUse" id="linearGradient3107" inkscape:collect="always" spreadMethod="reflect" x1="-744.58466" x2="-728.62476" xlink:href="#linearGradient30539" y1="296.54315" y2="296.41748"/>
<linearGradient gradientTransform="matrix(.03956,0,0,.03699,31.27294,107.47851)" gradientUnits="userSpaceOnUse" id="linearGradient3109" inkscape:collect="always" spreadMethod="reflect" x1="-744.58466" x2="-728.62476" xlink:href="#linearGradient30539" y1="296.54315" y2="296.41748"/>
<linearGradient gradientTransform="matrix(.03956,0,0,.03699,31.27294,108.24947)" gradientUnits="userSpaceOnUse" id="linearGradient3111" inkscape:collect="always" spreadMethod="reflect" x1="-744.58466" x2="-728.62476" xlink:href="#linearGradient30539" y1="296.54315" y2="296.41748"/>
<linearGradient gradientTransform="matrix(.03956,0,0,.03699,31.27294,109.02043)" gradientUnits="userSpaceOnUse" id="linearGradient3113" inkscape:collect="always" spreadMethod="reflect" x1="-744.58466" x2="-728.62476" xlink:href="#linearGradient30539" y1="296.54315" y2="296.41748"/>
<linearGradient gradientTransform="matrix(.03956,0,0,.03699,31.27294,109.79139)" gradientUnits="userSpaceOnUse" id="linearGradient3115" inkscape:collect="always" spreadMethod="reflect" x1="-744.58466" x2="-728.62476" xlink:href="#linearGradient30539" y1="296.54315" y2="296.41748"/>
<linearGradient gradientTransform="matrix(.03956,0,0,.03699,31.27294,110.56236)" gradientUnits="userSpaceOnUse" id="linearGradient3117" inkscape:collect="always" spreadMethod="reflect" x1="-744.58466" x2="-728.62476" xlink:href="#linearGradient30539" y1="296.54315" y2="296.41748"/>
<linearGradient gradientTransform="matrix(.03956,0,0,.03699,31.27294,111.3333)" gradientUnits="userSpaceOnUse" id="linearGradient3119" inkscape:collect="always" spreadMethod="reflect" x1="-744.58466" x2="-728.62476" xlink:href="#linearGradient30539" y1="296.54315" y2="296.41748"/>
<linearGradient gradientTransform="matrix(.03956,0,0,.03699,31.27294,112.10426)" gradientUnits="userSpaceOnUse" id="linearGradient3121" inkscape:collect="always" spreadMethod="reflect" x1="-744.58466" x2="-728.62476" xlink:href="#linearGradient30539" y1="296.54315" y2="296.41748"/>
<linearGradient gradientTransform="matrix(.03956,0,0,.03699,31.27294,113.64618)" gradientUnits="userSpaceOnUse" id="linearGradient3123" inkscape:collect="always" spreadMethod="reflect" x1="-744.58466" x2="-728.62476" xlink:href="#linearGradient30539" y1="296.54315" y2="296.41748"/>
<linearGradient gradientTransform="matrix(.03956,0,0,.03699,31.27294,114.41714)" gradientUnits="userSpaceOnUse" id="linearGradient3125" inkscape:collect="always" spreadMethod="reflect" x1="-744.58466" x2="-728.62476" xlink:href="#linearGradient30539" y1="296.54315" y2="296.41748"/>
<linearGradient gradientTransform="matrix(.03956,0,0,.03699,31.27294,112.87522)" gradientUnits="userSpaceOnUse" id="linearGradient3127" inkscape:collect="always" spreadMethod="reflect" x1="-744.58466" x2="-728.62476" xlink:href="#linearGradient30539" y1="296.54315" y2="296.41748"/>
<linearGradient gradientTransform="matrix(.03956,0,0,.03699,31.27294,104.84437)" gradientUnits="userSpaceOnUse" id="linearGradient3129" inkscape:collect="always" x1="-757.66064" x2="-714.74719" xlink:href="#linearGradient2917" y1="620.91235" y2="356.50623"/>
<linearGradient gradientTransform="matrix(.03956,0,0,.03699,31.27294,104.84437)" gradientUnits="userSpaceOnUse" id="linearGradient3131" inkscape:collect="always" x1="-751.59839" x2="-736.92932" xlink:href="#linearGradient30539" y1="238.11371" y2="242.4993"/>
<radialGradient cx="-416.22699" cy="413.23447" fx="-367.6416" fy="231.25175" gradientTransform="matrix(.17293,.14046,-.15516,.07211,222.6436,105.1597)" gradientUnits="userSpaceOnUse" id="radialGradient3089" inkscape:collect="always" r="170.91994" xlink:href="#linearGradient30539"/>
<radialGradient cx="-419.35272" cy="396.00266" fx="-309.60486" fy="160.80678" gradientTransform="matrix(.02707,.02113,-.01725,.01787,27.60252,120.42697)" gradientUnits="userSpaceOnUse" id="radialGradient3093" inkscape:collect="always" r="170.91994" xlink:href="#linearGradient30539"/>
<radialGradient cx="-633.63702" cy="565.84845" fx="-634.81256" fy="578.65271" gradientTransform="matrix(1,0,0,.92857,0,40.41772)" gradientUnits="userSpaceOnUse" id="radialGradient3097" inkscape:collect="always" r="18.908777" xlink:href="#linearGradient30539"/>
<radialGradient cx="-742.3244" cy="254.21584" fx="-745.34979" fy="255.14407" gradientTransform="matrix(1,0,0,.0582,0,239.4202)" gradientUnits="userSpaceOnUse" id="radialGradient3133" inkscape:collect="always" r="5.1053205" xlink:href="#linearGradient30539"/>
<radialGradient cx="-749.71906" cy="253.47478" fx="-749.71906" fy="253.47478" gradientTransform="matrix(.10115,-9.4385953e-4,3.247376e-4,.03042,77.3289,105.82682)" gradientUnits="userSpaceOnUse" id="radialGradient3135" inkscape:collect="always" r="4.234355" xlink:href="#linearGradient30539"/>
<radialGradient cx="78.620689" cy="801.51721" fx="78.620689" fy="801.51721" gradientTransform="matrix(1,0,0,.35714,0,515.2611)" gradientUnits="userSpaceOnUse" id="radialGradient3137" inkscape:collect="always" r="5.7931032" xlink:href="#linearGradient2917"/>
<radialGradient cx="114.58915" cy="801.87805" fx="83.909851" fy="801.87805" gradientTransform="matrix(1,0,0,.09009,0,729.6368)" gradientUnits="userSpaceOnUse" id="radialGradient3139" inkscape:collect="always" r="39.872711" xlink:href="#linearGradient2917"/>
</defs>
<sodipodi:namedview id="base" inkscape:current-layer="layer1" inkscape:cx="11.720083" inkscape:cy="14.2519" inkscape:document-units="px" inkscape:grid-bbox="true" inkscape:guide-bbox="true" inkscape:pageopacity="0" inkscape:pageshadow="2" inkscape:window-height="692" inkscape:window-maximized="1" inkscape:window-width="1366" inkscape:window-x="0" inkscape:window-y="24" inkscape:zoom="16.528621"/>
<g id="layer1" inkscape:groupmode="layer" inkscape:label="Layer 1" transform="translate(0,-112)">
<g id="g2245" transform="matrix(.12137,-.01143,.01127,.11968,-1.75136,111.68276)">
<path d="M 39.441097,76.987802 43.82491,42.056107 C 64.25366,52.89346 87.863189,61.188845 119.46823,66.146208 94.880699,70.455556 76.050734,78.899736 39.441097,76.987802 z" id="path34166" inkscape:connector-curvature="0" sodipodi:nodetypes="cccc" style="fill:#2c72c7;fill-rule:evenodd"/>
<path d="m 39.611073,77.004034 4.383813,-34.931695 c 20.42875,10.837353 40.553777,18.799987 72.158824,23.75735 -24.587537,4.309348 -39.933,13.086279 -76.542637,11.174345 z" id="path2915" inkscape:connector-curvature="0" sodipodi:nodetypes="cccc" style="fill:url(#linearGradient3087);fill-rule:evenodd"/>
<path d="m 39.916984,75.709564 3.916303,-31.20643 C 62.083424,54.184755 84.327239,61.721862 112.5618,66.150551 90.596375,70.000328 72.622404,77.4176 39.916984,75.709564 z" id="path34168" inkscape:connector-curvature="0" sodipodi:nodetypes="cccc" style="opacity:0.77209299;fill:url(#radialGradient3089);fill-rule:evenodd"/>
</g>
<path d="m 2.1353866,121.04302 0,-6.8356 c 1.013551,0.39887 2.069899,0.73439 3.191712,0.99504 2.367604,0.55012 5.0268094,0.76678 8.1907114,0.54184 -3.479369,1.81448 -6.0505824,4.18458 -11.3824234,5.29872 z" id="path2841" inkscape:connector-curvature="0" sodipodi:nodetypes="ccscc" style="fill:#0057ae;fill-rule:evenodd"/>
<path d="m 2.1825176,121.04302 0,-6.8356 c 1.013551,0.39887 2.069899,0.73439 3.191712,0.99504 2.367604,0.55012 5.0268094,0.76678 8.1907114,0.54184 -3.479369,1.81448 -6.0505824,4.18458 -11.3824234,5.29872 z" id="path27028" inkscape:connector-curvature="0" sodipodi:nodetypes="ccscc" style="fill:url(#linearGradient3091);fill-rule:evenodd"/>
<path d="m 2.1810326,120.81712 0,-6.34706 c 2.927346,1.15202 6.414824,1.71153 10.7445784,1.40372 -3.2307014,1.68479 -5.7938024,3.90883 -10.7445784,4.94334 z" id="path27903" inkscape:connector-curvature="0" sodipodi:nodetypes="cccc" style="opacity:0.87441861;fill:url(#radialGradient3093);fill-rule:evenodd"/>
<path d="m 1.6053146,114.23893 0.436238,-1.52039 0.436239,1.52039 0,12.80501 -0.872477,0 0,-12.80501 z" id="rect28786" inkscape:connector-curvature="0" sodipodi:nodetypes="cccccc"/>
<path d="m -614.72825,565.84845 a 18.908777,17.558151 0 1 1 -37.81755,0 18.908777,17.558151 0 1 1 37.81755,0 z" id="path29662" sodipodi:cx="-633.63702" sodipodi:cy="565.84845" sodipodi:rx="18.908777" sodipodi:ry="17.558151" sodipodi:type="arc" transform="matrix(.02936,0,0,.03294,20.62155,94.15471)"/>
<path d="m -730.10403,207.9397 a 7.3392043,6.6052842 0 1 1 -14.67841,0 7.3392043,6.6052842 0 1 1 14.67841,0 z" id="path29664" sodipodi:cx="-737.44324" sodipodi:cy="207.9397" sodipodi:rx="7.3392043" sodipodi:ry="6.6052842" sodipodi:type="arc" style="fill:url(#linearGradient3095)" transform="matrix(.04337,0,0,.03219,34.00862,105.79969)"/>
<path d="m -614.72825,565.84845 a 18.908777,17.558151 0 1 1 -37.81755,0 18.908777,17.558151 0 1 1 37.81755,0 z" id="path30547" sodipodi:cx="-633.63702" sodipodi:cy="565.84845" sodipodi:rx="18.908777" sodipodi:ry="17.558151" sodipodi:type="arc" style="opacity:0.70232556;fill:url(#radialGradient3097)" transform="matrix(.0266,0,0,.02923,18.87513,96.2544)"/>
<path d="m 1.6403736,115.39954 c 0.289494,-0.23047 0.565921,-0.21532 0.805449,-0.44387 l 0,0.36257 c -0.268483,0.26835 -0.536966,0.16187 -0.805449,0.44387 l 0,-0.36257 z" id="rect30557" inkscape:connector-curvature="0" sodipodi:nodetypes="ccccc" style="opacity:0.70232556;fill:url(#linearGradient3099)"/>
<path d="m 1.6403736,116.17049 c 0.289494,-0.23047 0.565921,-0.21531 0.805449,-0.44386 l 0,0.36257 c -0.268483,0.26835 -0.536966,0.16187 -0.805449,0.44386 l 0,-0.36257 z" id="path31441" inkscape:connector-curvature="0" sodipodi:nodetypes="ccccc" style="opacity:0.70232556;fill:url(#linearGradient3101)"/>
<path d="m 1.6403736,114.62858 c 0.289494,-0.23047 0.565921,-0.21532 0.805449,-0.44387 l 0,0.36257 c -0.268483,0.26835 -0.536966,0.16187 -0.805449,0.44387 l 0,-0.36257 z" id="path31445" inkscape:connector-curvature="0" sodipodi:nodetypes="ccccc" style="opacity:0.70232556;fill:url(#linearGradient3103)"/>
<path d="m 1.6403736,116.94145 c 0.289494,-0.23047 0.565921,-0.21532 0.805449,-0.44387 l 0,0.36257 c -0.268483,0.26836 -0.536966,0.16188 -0.805449,0.44387 l 0,-0.36257 z" id="path31449" inkscape:connector-curvature="0" sodipodi:nodetypes="ccccc" style="opacity:0.70232556;fill:url(#linearGradient3105)"/>
<path d="m 1.6403736,117.71241 c 0.289494,-0.23047 0.565921,-0.21532 0.805449,-0.44387 l 0,0.36257 c -0.268483,0.26836 -0.536966,0.16187 -0.805449,0.44387 l 0,-0.36257 z" id="path31453" inkscape:connector-curvature="0" sodipodi:nodetypes="ccccc" style="opacity:0.70232556;fill:url(#linearGradient3107)"/>
<path d="m 1.6403736,118.48337 c 0.289494,-0.23047 0.565921,-0.21532 0.805449,-0.44387 l 0,0.36257 c -0.268483,0.26835 -0.536966,0.16187 -0.805449,0.44387 l 0,-0.36257 z" id="path31457" inkscape:connector-curvature="0" sodipodi:nodetypes="ccccc" style="opacity:0.70232556;fill:url(#linearGradient3109)"/>
<path d="m 1.6403736,119.25432 c 0.289494,-0.23047 0.565921,-0.21531 0.805449,-0.44387 l 0,0.36258 c -0.268483,0.26835 -0.536966,0.16187 -0.805449,0.44386 l 0,-0.36257 z" id="path31461" inkscape:connector-curvature="0" sodipodi:nodetypes="ccccc" style="opacity:0.70232556;fill:url(#linearGradient3111)"/>
<path d="m 1.6403736,120.02528 c 0.289494,-0.23047 0.565921,-0.21532 0.805449,-0.44387 l 0,0.36258 c -0.268483,0.26835 -0.536966,0.16187 -0.805449,0.44386 l 0,-0.36257 z" id="path31465" inkscape:connector-curvature="0" sodipodi:nodetypes="ccccc" style="opacity:0.70232556;fill:url(#linearGradient3113)"/>
<path d="m 1.6403736,120.79624 c 0.289494,-0.23047 0.565921,-0.21532 0.805449,-0.44387 l 0,0.36257 c -0.268483,0.26836 -0.536966,0.16188 -0.805449,0.44387 l 0,-0.36257 z" id="path31469" inkscape:connector-curvature="0" sodipodi:nodetypes="ccccc" style="opacity:0.70232556;fill:url(#linearGradient3115)"/>
<path d="m 1.6403736,121.5672 c 0.289494,-0.23047 0.565921,-0.21532 0.805449,-0.44387 l 0,0.36257 c -0.268483,0.26835 -0.536966,0.16187 -0.805449,0.44387 l 0,-0.36257 z" id="path31473" inkscape:connector-curvature="0" sodipodi:nodetypes="ccccc" style="opacity:0.70232556;fill:url(#linearGradient3117)"/>
<path d="m 1.6403736,122.33815 c 0.289494,-0.23047 0.565921,-0.21531 0.805449,-0.44386 l 0,0.36257 c -0.268483,0.26835 -0.536966,0.16187 -0.805449,0.44387 l 0,-0.36258 z" id="path31477" inkscape:connector-curvature="0" sodipodi:nodetypes="ccccc" style="opacity:0.70232556;fill:url(#linearGradient3119)"/>
<path d="m 1.6403736,123.10911 c 0.289494,-0.23047 0.565921,-0.21532 0.805449,-0.44387 l 0,0.36258 c -0.268483,0.26835 -0.536966,0.16187 -0.805449,0.44386 l 0,-0.36257 z" id="path31481" inkscape:connector-curvature="0" sodipodi:nodetypes="ccccc" style="opacity:0.70232556;fill:url(#linearGradient3121)"/>
<path d="m 1.6403736,124.65103 c 0.289494,-0.23047 0.565921,-0.21532 0.805449,-0.44387 l 0,0.36257 c -0.268483,0.26835 -0.536966,0.16188 -0.805449,0.44387 l 0,-0.36257 z" id="path31485" inkscape:connector-curvature="0" sodipodi:nodetypes="ccccc" style="opacity:0.70232556;fill:url(#linearGradient3123)"/>
<path d="m 1.6403736,125.42198 c 0.289494,-0.23047 0.565921,-0.21531 0.805449,-0.44386 l 0,0.36257 c -0.268483,0.26835 -0.536966,0.16187 -0.805449,0.44387 l 0,-0.36258 z" id="path31489" inkscape:connector-curvature="0" sodipodi:nodetypes="ccccc" style="opacity:0.70232556;fill:url(#linearGradient3125)"/>
<path d="m 1.6403736,123.88007 c 0.289494,-0.23047 0.565921,-0.21532 0.805449,-0.44387 l 0,0.36257 c -0.268483,0.26836 -0.536966,0.16188 -0.805449,0.44387 l 0,-0.36257 z" id="path31493" inkscape:connector-curvature="0" sodipodi:nodetypes="ccccc" style="opacity:0.70232556;fill:url(#linearGradient3127)"/>
<path d="m 1.6053146,114.23893 0.436238,-1.52039 0.436239,1.52039 0,12.80501 -0.872477,0 0,-12.80501 z" id="path31497" inkscape:connector-curvature="0" sodipodi:nodetypes="cccccc" style="fill:url(#linearGradient3129)"/>
<path d="m 1.9078546,113.38906 -0.209409,0.85025 0.335054,-0.006 0.08376,-0.83347 -0.209408,-0.0112 z" id="path32380" inkscape:connector-curvature="0" style="opacity:0.69767438;fill:url(#linearGradient3131);fill-rule:evenodd"/>
<path d="m -737.21908,254.21584 a 5.1053205,0.29713506 0 1 1 -10.21064,0 5.1053205,0.29713506 0 1 1 10.21064,0 z" id="path32390" sodipodi:cx="-742.3244" sodipodi:cy="254.21584" sodipodi:rx="5.1053205" sodipodi:ry="0.29713506" sodipodi:type="arc" style="opacity:0.69767438;fill:url(#radialGradient3133)" transform="matrix(.03956,0,0,.07062,31.2366,96.28401)"/>
<path d="m 1.7005256,114.48014 -0.0021,-0.24083 0.335054,-0.006 -0.123566,0.25761 -0.209408,-0.0112 z" id="path33273" inkscape:connector-curvature="0" sodipodi:nodetypes="ccccc" style="opacity:0.69767438;fill:url(#radialGradient3135);fill-rule:evenodd"/>
<path d="m 84.413793,801.51721 a 5.7931032,2.0689654 0 1 1 -11.586207,0 5.7931032,2.0689654 0 1 1 11.586207,0 z" id="path36053" sodipodi:cx="78.620689" sodipodi:cy="801.51721" sodipodi:rx="5.7931032" sodipodi:ry="2.0689654" sodipodi:type="arc" style="fill:url(#radialGradient3137)" transform="matrix(.17664,0,0,.17664,-11.86424,-14.53009)"/>
<path d="m 154.46186,801.87805 a 39.872711,3.5921361 0 1 1 -79.745422,0 39.872711,3.5921361 0 1 1 79.745422,0 z" id="path37010" sodipodi:cx="114.58915" sodipodi:cy="801.87805" sodipodi:rx="39.872711" sodipodi:ry="3.5921361" sodipodi:type="arc" style="opacity:0.33953486;fill:url(#radialGradient3139)" transform="matrix(.17664,0,0,.17664,-11.98504,-14.56464)"/>
</g>
</svg>
