<?xml version="1.0" encoding="UTF-8" standalone="no"?>
<!-- Generator: Adobe Illustrator 15.0.2, SVG Export Plug-In . SVG Version: 6.00 Build 0)  -->

<svg
   xmlns:dc="http://purl.org/dc/elements/1.1/"
   xmlns:cc="http://creativecommons.org/ns#"
   xmlns:rdf="http://www.w3.org/1999/02/22-rdf-syntax-ns#"
   xmlns:svg="http://www.w3.org/2000/svg"
   xmlns="http://www.w3.org/2000/svg"
   xmlns:sodipodi="http://sodipodi.sourceforge.net/DTD/sodipodi-0.dtd"
   xmlns:inkscape="http://www.inkscape.org/namespaces/inkscape"
   version="1.1"
   id="ubuntu__x5F__black_x26_orange"
   x="0px"
   y="0px"
   width="22"
   height="22"
   viewBox="0 0 22 21.999999"
   enable-background="new 0 0 425.197 209.764"
   xml:space="preserve"
   inkscape:version="0.48+devel r11882"
   sodipodi:docname="show-menu.svg"><metadata
   id="metadata35"><rdf:RDF><cc:Work
       rdf:about=""><dc:format>image/svg+xml</dc:format><dc:type
         rdf:resource="http://purl.org/dc/dcmitype/StillImage" /><dc:title></dc:title></cc:Work></rdf:RDF></metadata><defs
   id="defs33" /><sodipodi:namedview
   pagecolor="#ffffff"
   bordercolor="#666666"
   borderopacity="1"
   objecttolerance="10"
   gridtolerance="10"
   guidetolerance="10"
   inkscape:pageopacity="0"
   inkscape:pageshadow="2"
   inkscape:window-width="1440"
   inkscape:window-height="848"
   id="namedview31"
   showgrid="true"
   inkscape:zoom="20.85965"
   inkscape:cx="11"
   inkscape:cy="11"
   inkscape:window-x="-8"
   inkscape:window-y="-8"
   inkscape:window-maximized="1"
   inkscape:current-layer="ubuntu__x5F__black_x26_orange"><inkscape:grid
     type="xygrid"
     id="grid4004" /></sodipodi:namedview>
<g
   id="g3"
   transform="translate(0,-187.76401)">
</g>
<g
   id="g5"
   transform="translate(0,-187.76401)">
</g>
<g
   id="g7"
   transform="translate(0,-187.76401)">
</g>
<g
   id="g9"
   transform="translate(0,-187.76401)">
</g>
<circle
   style="fill:#dd4814"
   sodipodi:ry="16.966"
   sodipodi:rx="16.966"
   sodipodi:cy="90.016998"
   sodipodi:cx="337.36499"
   id="circle13"
   r="16.966"
   cy="90.016998"
   cx="337.36499"
   transform="matrix(0.64835556,0,0,0.64835556,-207.73247,-47.363028)" /><path
   style="fill:#ffffff"
   inkscape:connector-curvature="0"
   id="path15"
   d="M 3.4768868,9.5221856 C 2.6594125,9.5221856 2,10.183744 2,11.001279 c 0,0.814627 0.6594125,1.477651 1.4768868,1.477651 0.8182911,0 1.4790888,-0.663024 1.4790888,-1.477651 C 4.9559756,10.183744 4.2951779,9.5221856 3.4768868,9.5221856 Z M 14.0352,16.243791 c -0.707991,0.405512 -0.948838,1.310821 -0.541852,2.015913 0.40837,0.708673 1.312217,0.949515 2.019505,0.542615 0.707289,-0.407716 0.950255,-1.312298 0.541885,-2.018845 C 15.646284,16.076189 14.741703,15.833938 14.0352,16.243791 Z M 6.6904304,11.001279 c 0,-1.4624115 0.7240087,-2.7543576 1.8346111,-3.5349046 L 7.4455943,5.6543135 C 6.1514822,6.51827 5.1881783,7.8406933 4.7877189,9.3887081 c 0.4686437,0.3808305 0.765276,0.9604339 0.765276,1.6125709 0,0.647786 -0.2959811,1.226662 -0.765276,1.609675 0.4004594,1.547276 1.3637633,2.86895 2.6578754,3.732917 L 8.5250415,14.533298 C 7.4144391,13.752751 6.6904304,12.462249 6.6904304,11.001279 Z M 11.008051,6.680043 c 2.257499,0 4.108013,1.7300835 4.302369,3.938952 l 2.107347,-0.03412 C 17.31329,8.9570599 16.602412,7.4946363 15.509182,6.4195884 14.946339,6.6306798 14.296303,6.6009411 13.735579,6.2752246 13.174855,5.9509738 12.821619,5.4054725 12.7244,4.8099032 12.177459,4.6597438 11.602216,4.5763343 11.008051,4.5763343 c -1.021376,0 -1.9883506,0.2408302 -2.8450558,0.6659108 L 9.18951,7.0826126 C 9.742241,6.8243956 10.359569,6.680043 11.008051,6.680043 z m 0,8.638121 c -0.649216,0 -1.26581,-0.142898 -1.818541,-0.401126 l -1.0265148,1.840334 c 0.8567052,0.426557 1.8236798,0.664467 2.8450558,0.664467 0.594165,0 1.169408,-0.08044 1.716349,-0.232125 0.09722,-0.59482 0.449721,-1.140366 1.011179,-1.466038 0.562193,-0.324273 1.21076,-0.355444 1.773603,-0.141432 1.09323,-1.076514 1.804107,-2.538949 1.908585,-4.168202 L 15.31042,11.384282 C 15.116064,13.589524 13.26555,15.318164 11.008051,15.318164 Z M 14.0352,5.7580523 C 14.741703,6.1649965 15.646284,5.9241664 16.053269,5.2154489 16.461639,4.5110724 16.219408,3.6057748 15.512853,3.1980922 14.80483,2.7904095 13.901718,3.0319781 13.493348,3.7392411 13.086362,4.4457881 13.327209,5.3496424 14.0352,5.7580523 Z" />
</svg>