<?xml version="1.0" encoding="utf8" standalone="no"?>
<svg height="16" id="svg2457" inkscape:version="0.48.0 r9654" sodipodi:docname="document-properties.svg" width="16" xmlns="http://www.w3.org/2000/svg" xmlns:cc="http://creativecommons.org/ns#" xmlns:dc="http://purl.org/dc/elements/1.1/" xmlns:inkscape="http://www.inkscape.org/namespaces/inkscape" xmlns:rdf="http://www.w3.org/1999/02/22-rdf-syntax-ns#" xmlns:sodipodi="http://sodipodi.sourceforge.net/DTD/sodipodi-0.dtd" xmlns:svg="http://www.w3.org/2000/svg">
<defs id="defs2459">
<linearGradient gradientTransform="matrix(.09614,0,0,.09614,1.84689,1.94304)" gradientUnits="userSpaceOnUse" id="linearGradient3260" x1="86.132919" x2="84.63858" y1="105.105" y2="20.895">
<stop id="stop5130" offset="0" style="stop-color:#e5e5e5"/>
<stop id="stop5132" offset="1" style="stop-color:#ababab"/>
</linearGradient>
<linearGradient gradientTransform="translate(-17.0582)" gradientUnits="userSpaceOnUse" id="linearGradient3264" x1="21" x2="21" y2="16.004715">
<stop id="stop3399" offset="0" style="stop-color:#aaa"/>
<stop id="stop3401" offset="1" style="stop-color:#8c8c8c"/>
</linearGradient>
<linearGradient gradientTransform="translate(-17.0582)" gradientUnits="userSpaceOnUse" id="linearGradient3262" x1="25" x2="25" y2="16.000105">
<stop id="stop3311" offset="0" style="stop-color:#f6f6f6"/>
<stop id="stop3313" offset="1" style="stop-color:#ccc"/>
</linearGradient>
</defs>
<sodipodi:namedview id="namedview21" inkscape:current-layer="svg2457" inkscape:cx="11.124564" inkscape:cy="6.6947368" inkscape:pageopacity="0" inkscape:pageshadow="2" inkscape:window-height="692" inkscape:window-maximized="1" inkscape:window-width="1366" inkscape:window-x="0" inkscape:window-y="24" inkscape:zoom="12.948893"/>
<path d="M 6.9375,0.5 C 6.6890831,0.5 6.5,0.68908218 6.5,0.9375 l 0,1.25 C 5.9460971,2.3297005 5.448836,2.5593783 4.96875,2.84375 L 4.0625,1.9375 c -0.1756569,-0.1756579 -0.449342,-0.1756579 -0.625,0 l -1.5,1.5 c -0.175657,0.1756579 -0.175657,0.4493421 0,0.625 L 2.84375,4.96875 C 2.5593789,5.4488356 2.329701,5.9460968 2.1875,6.5 l -1.25,0 C 0.68908301,6.5 0.5,6.6890821 0.5,6.9375 l 0,2.125 c 1e-8,0.2484178 0.189083,0.4375 0.4375,0.4375 l 1.25,0 c 0.1422009,0.553903 0.371879,1.051164 0.65625,1.53125 L 1.9375,11.9375 c -0.175657,0.175658 -0.175657,0.449342 0,0.625 l 1.5,1.5 c 0.1756579,0.175658 0.449342,0.175658 0.625,0 L 4.96875,13.15625 C 5.4488361,13.440622 5.946097,13.6703 6.5,13.8125 l 0,1.25 c 1e-7,0.248418 0.189083,0.4375 0.4375,0.4375 l 2.125,0 C 9.3109176,15.5 9.5,15.310918 9.5,15.0625 l 0,-1.25 c 0.553903,-0.1422 1.051164,-0.371878 1.53125,-0.65625 l 0.90625,0.90625 c 0.175658,0.175658 0.449342,0.175658 0.625,0 l 1.5,-1.5 c 0.175658,-0.175658 0.175658,-0.449342 0,-0.625 L 13.15625,11.03125 C 13.440622,10.551164 13.6703,10.053903 13.8125,9.5 l 1.25,0 C 15.310918,9.5 15.5,9.3109174 15.5,9.0625 l 0,-2.125 C 15.5,6.6890822 15.310917,6.5 15.0625,6.5 l -1.25,0 C 13.6703,5.9460968 13.440622,5.4488356 13.15625,4.96875 L 14.0625,4.0625 c 0.175658,-0.1756579 0.175658,-0.449342 0,-0.625 l -1.5,-1.5 c -0.175658,-0.1756579 -0.449342,-0.1756579 -0.625,0 L 11.03125,2.84375 C 10.551164,2.5593783 10.053903,2.3297005 9.5,2.1875 l 0,-1.25 C 9.4999996,0.68908218 9.310918,0.5 9.0625,0.5 l -2.125,0 z M 8,6 c 1.104,0 2,0.896 2,2 0,1.104 -0.896,2 -2,2 C 6.896,10 6,9.104 6,8 6,6.896 6.896,6 8,6 z" id="path2426" style="display:block;stroke-linejoin:round;fill:url(#linearGradient3262);stroke-width:0.99999994;stroke:url(#linearGradient3264)"/>
<path d="M 8,3.465116 C 5.4994229,3.465116 3.4651163,5.499423 3.4651163,8 3.4651163,10.500577 5.4994229,12.534884 8,12.534884 10.500576,12.534883 12.534884,10.500577 12.534884,8 12.534884,5.499423 10.500576,3.465116 8,3.465116 z M 8,5.55814 c 1.347907,0 2.44186,1.093953 2.44186,2.44186 0,1.347907 -1.093953,2.44186 -2.44186,2.44186 C 6.652093,10.44186 5.5581395,9.347907 5.5581395,8 5.5581395,6.652093 6.652093,5.55814 8,5.55814 z" id="path3315" style="opacity:0.05"/>
<path d="M 8.0000001,4 C 5.7943997,4 3.9999999,5.7944001 3.9999999,8.0000008 3.9999999,10.2056 5.7943997,12 8.0000001,12 10.2056,12 12,10.2056 12,8.0000008 12,5.7944001 10.2056,4 8.0000001,4 z" id="path28" style="stroke:url(#linearGradient3260);fill:none"/>
<g id="g3008" transform="matrix(.69806,0,0,.69806,5.11802,4.84973)">
<path d="M 9.335315,8.5380261 C 9.281338,8.5596131 9.2304355,8.5895071 9.1845787,8.6265501 L 8.2734918,9.2443863 c -0.1386079,0.087649 -0.2358191,0.2297701 -0.2646596,0.3869271 -0.028841,0.157157 0.013758,0.3126313 0.1159746,0.4232826 l 5.5131092,5.790109 c 0.09497,0.105821 0.234268,0.162049 0.383128,0.154646 0.148861,-0.0074 0.293228,-0.07774 0.397058,-0.193447 l 0.944433,-1.051287 c 0.19322,-0.219769 0.192317,-0.537725 -0.0021,-0.721685 L 9.8140285,8.676274 C 9.6969096,8.5476262 9.515648,8.4952796 9.335315,8.5380261 z" id="path3220" inkscape:connector-curvature="0" style="fill:#4d4d4d;fill-rule:evenodd"/>
<path d="m 10.056334,5.9999995 c 0,2.2402518 -1.8160823,4.0563345 -4.0563339,4.0563345 -2.2402516,0 -4.0563343,-1.8160827 -4.0563343,-4.0563345 0,-2.2402519 1.8160827,-4.0563349 4.0563343,-4.0563349 2.2402516,0 4.0563339,1.816083 4.0563339,4.0563349 l 0,0 z" id="path2447" inkscape:connector-curvature="0" style="fill-opacity:0.66666667;stroke:#4d4d4d;fill:#fff;stroke-width:1.88733149;fill-rule:evenodd"/>
</g>
</svg>
