<?xml version="1.0" encoding="utf8" standalone="no"?>
<svg height="16" id="svg3295" width="16" xmlns="http://www.w3.org/2000/svg" xmlns:svg="http://www.w3.org/2000/svg">
<defs id="defs3297">
<linearGradient gradientTransform="matrix(.74324,0,0,.74322,-38.22979,10.60933)" gradientUnits="userSpaceOnUse" id="linearGradient2838" x1="63.761036" x2="63.761036" y1="-12.929285" y2="5.9721518">
<stop id="stop37937" offset="0" style="stop-color:#929292"/>
<stop id="stop37939" offset="1" style="stop-color:#4a4a4a"/>
</linearGradient>
<linearGradient gradientTransform="matrix(.36876,0,0,.36876,-.851,-.85137)" gradientUnits="userSpaceOnUse" id="linearGradient2841" x1="28.771276" x2="28.771276" y1="12.91806" y2="45.347591">
<stop id="stop2147" offset="0" style="stop-color:#fffffd"/>
<stop id="stop2149" offset="1" style="stop-color:#cbcbc9"/>
</linearGradient>
<linearGradient gradientTransform="matrix(.36876,0,0,.36876,-.851,-.85137)" gradientUnits="userSpaceOnUse" id="linearGradient2843" x1="10.44315" x2="10.44315" y1="2.3087604" y2="45.697624">
<stop id="stop5356" offset="0" style="stop-color:#3f3f3f"/>
<stop id="stop5358" offset="1"/>
</linearGradient>
</defs>
<path d="m 7.9941083,0.4999771 c -4.139303,0 -7.4941309,3.3548271 -7.4941309,7.4941318 0,4.1393031 3.3548279,7.5059141 7.4941309,7.5059141 4.1393027,0 7.5059187,-3.366611 7.5059147,-7.5059141 0,-4.1393047 -3.366612,-7.4941318 -7.5059147,-7.4941318 z" id="path2555" style="stroke:url(#linearGradient2843);stroke-linejoin:round;fill:url(#linearGradient2841);stroke-width:0.99994898;stroke-linecap:round"/>
<path d="M 14.5,7.9997699 C 14.5,11.589736 11.589638,14.5 8.0000814,14.5 4.4101986,14.5 1.5,11.589704 1.5,7.9997699 1.5,4.409969 4.4101986,1.5 8.0000814,1.5 11.589638,1.5 14.5,4.409969 14.5,7.9997699 l 0,0 z" id="path8655" style="stroke:url(#linearGradient2838);opacity:0.52747258;fill:none"/>
<path d="M 7.6276796,9.7908924 12.744424,4.255576" id="path2312" style="stroke:#000;fill:none;stroke-width:0.5;stroke-linecap:round"/>
<path d="M 8.462302,9.7908924 5.2788102,6.3020443" id="path2314" style="stroke:#000;fill:none;stroke-width:0.5;stroke-linecap:round"/>
<path d="M 8,9.4191455 14,7" id="path2316" style="stroke:#f00;fill:#f00;stroke-width:0.40000001;fill-rule:evenodd;stroke-linecap:round"/>
</svg>
