<?xml version="1.0" encoding="utf8" standalone="no"?>
<svg height="16" id="svg3442" width="16" xmlns="http://www.w3.org/2000/svg" xmlns:svg="http://www.w3.org/2000/svg">
<defs id="defs3444">
<linearGradient gradientTransform="matrix(.38462,0,0,.33333,-1.23077,1)" gradientUnits="userSpaceOnUse" id="linearGradient2650" x1="24" x2="24" y1="44" y2="3.8904724">
<stop id="stop3106" offset="0" style="stop-color:#787878"/>
<stop id="stop3108" offset="1" style="stop-color:#aaa"/>
</linearGradient>
<linearGradient gradientTransform="matrix(.38462,0,0,.33333,-1.23077,.67752)" gradientUnits="userSpaceOnUse" id="linearGradient2648" x1="19.360001" x2="19.360001" y1="16.137854" y2="44.98436">
<stop id="stop3602-9" offset="0" style="stop-color:#f4f4f4"/>
<stop id="stop3604-6" offset="1" style="stop-color:#dbdbdb"/>
</linearGradient>
<linearGradient gradientTransform="matrix(.38462,0,0,.39875,-1.23077,-1.29492)" gradientUnits="userSpaceOnUse" id="linearGradient2645" x1="24" x2="24" y1="44" y2="3.8990016">
<stop id="stop2492" offset="0" style="stop-color:#791235"/>
<stop id="stop2494" offset="1" style="stop-color:#dd3b27"/>
</linearGradient>
<linearGradient gradientTransform="matrix(.35135,0,0,.35135,-.43243,-.43243)" gradientUnits="userSpaceOnUse" id="linearGradient2640" x1="23.99999" x2="23.99999" y1="4.999989" y2="43">
<stop id="stop3310-1-4" offset="0" style="stop-color:#fff"/>
<stop id="stop3312-5-3" offset="1" style="stop-opacity:0;stop-color:#fff"/>
</linearGradient>
<radialGradient cx="12.063192" cy="11.394437" fx="12.063192" fy="11.394437" gradientTransform="matrix(0,.44324,-.61396,0,12.25101,-1.30924)" gradientUnits="userSpaceOnUse" id="radialGradient2643" r="19.99999">
<stop id="stop3359" offset="0" style="stop-color:#f89b7e"/>
<stop id="stop3361" offset="0.39678687" style="stop-color:#e35d4f"/>
<stop id="stop3363" offset="1" style="stop-color:#c6262e"/>
</radialGradient>
</defs>
<rect height="13" id="rect5505" rx="0.8888889" style="stroke-linejoin:round;fill:url(#linearGradient2648);stroke-linecap:round;stroke:url(#linearGradient2650)" width="15" x="0.5" y="2.5"/>
<path d="M 1.3533652,0.5000001 C 0.87773174,0.5000001 0.5,0.8916174 0.5,1.3847352 L 0.5,4.5 L 15.5,4.5 L 15.5,1.3847352 C 15.5,0.8916173 15.122268,0.5000001 14.646634,0.5000001 L 1.3533652,0.5000001 L 1.3533652,0.5000001 z" id="rect2424" style="stroke:url(#linearGradient2645);fill:url(#radialGradient2643)"/>
<rect height="13" id="rect6741" style="stroke-linejoin:round;opacity:0.4;fill:none;stroke-linecap:round;stroke:url(#linearGradient2640)" width="13.000001" x="1.5000001" y="1.499999"/>
<path d="M 4.6715317,11.789208 C 5.5268247,11.789208 6.3821178,11.789208 7.2374108,11.789208 C 7.2374108,12.154093 7.2374108,12.518976 7.2374108,12.88386 C 5.8249406,12.88386 4.4124703,12.88386 3,12.88386 C 3,12.518976 3,12.154093 3,11.789208 C 3.752346,11.125056 4.5182612,10.475391 5.2617408,9.8017703 C 5.6679326,9.4467091 5.8668726,8.7706753 5.4746493,8.3336733 C 5.0246899,7.8586192 4.290042,8.0094495 3.7512032,8.2328937 C 3.5193205,8.2535101 3.088509,8.6916999 3.0156218,8.5209698 C 3.0156218,8.128929 3.0156218,7.7368883 3.0156218,7.3448476 C 4.0057779,7.0374203 5.1096488,6.839478 6.117033,7.1827572 C 6.7511026,7.3961809 7.2159972,8.0127864 7.1977877,8.6828106 C 7.2410325,9.3555133 6.7929894,9.9158059 6.3181827,10.343083 C 5.7810584,10.837808 5.2200759,11.30694 4.6715317,11.789208 z M 10.71326,10.300019 C 10.259223,10.258226 9.8332194,10.619804 9.8419779,11.078641 C 9.7820853,11.510204 10.033036,12.012314 10.514569,12.045949 C 10.937663,12.127175 11.466961,11.942626 11.545056,11.4733 C 11.655757,11.03346 11.511676,10.435296 10.999209,10.332113 C 10.905788,10.308968 10.809364,10.300047 10.71326,10.300019 z M 9.6158286,9.8087793 C 9.0609928,9.6743173 8.5612925,9.2138249 8.5499463,8.6216597 C 8.4726488,8.0107186 8.8540492,7.3961012 9.4469322,7.2022894 C 10.178092,6.9450009 10.993799,6.9487714 11.743288,7.1256285 C 12.347066,7.2596228 12.879419,7.7706612 12.870821,8.4109123 C 12.931232,8.9709141 12.579493,9.5229492 12.048188,9.7188495 C 11.842382,9.7867309 11.734886,9.8200593 12.011285,9.8769092 C 12.602569,10.062096 13.033537,10.639698 12.997946,11.259289 C 13.027118,11.893636 12.668233,12.541174 12.05283,12.770233 C 11.314938,13.056985 10.48176,13.050543 9.7154163,12.88676 C 9.0874708,12.756235 8.5197334,12.269429 8.4445144,11.614981 C 8.3269169,11.019171 8.5245611,10.323028 9.0944505,10.02249 C 9.2567076,9.9268339 9.4341894,9.8585426 9.6158286,9.8087793 z M 9.9673189,8.6522399 C 9.9053077,9.1808045 10.492329,9.4892461 10.954357,9.3417178 C 11.617348,9.2166109 11.618982,8.0909911 10.954357,7.966636 C 10.481143,7.8336471 9.9170533,8.1065891 9.9673189,8.6522399 z" id="text3437" style="font-family:Bitstream Vera Sans;font-weight:bold;font-size:8;opacity:0.6"/>
</svg>
