<?xml version="1.0" encoding="UTF-8" standalone="no"?>
<!-- Created with Inkscape (http://www.inkscape.org/) -->

<svg
   xmlns:dc="http://purl.org/dc/elements/1.1/"
   xmlns:cc="http://creativecommons.org/ns#"
   xmlns:rdf="http://www.w3.org/1999/02/22-rdf-syntax-ns#"
   xmlns:svg="http://www.w3.org/2000/svg"
   xmlns="http://www.w3.org/2000/svg"
   xmlns:xlink="http://www.w3.org/1999/xlink"
   xmlns:sodipodi="http://sodipodi.sourceforge.net/DTD/sodipodi-0.dtd"
   xmlns:inkscape="http://www.inkscape.org/namespaces/inkscape"
   width="256"
   height="256"
   id="svg2"
   version="1.1"
   inkscape:version="0.48.1 "
   sodipodi:docname="New document 1">
  <defs
     id="defs4">
    <radialGradient
       inkscape:collect="always"
       xlink:href="#linearGradient3891-1"
       id="radialGradient4426"
       gradientUnits="userSpaceOnUse"
       gradientTransform="matrix(0.5072788,-0.49666068,0.13818279,0.13767126,-381.7338,659.02628)"
       cx="-108.37761"
       cy="900.44226"
       fx="-108.37761"
       fy="900.44226"
       r="210.18597" />
    <linearGradient
       id="linearGradient3891-1">
      <stop
         style="stop-color:#000000;stop-opacity:1;"
         offset="0"
         id="stop3893-2" />
      <stop
         style="stop-color:#ffffff;stop-opacity:0.45045045;"
         offset="1"
         id="stop3895-2" />
    </linearGradient>
    <radialGradient
       inkscape:collect="always"
       xlink:href="#linearGradient3891-1"
       id="radialGradient4423"
       gradientUnits="userSpaceOnUse"
       gradientTransform="matrix(0.5072788,-0.49666068,0.13818279,0.13767126,-360.58177,680.10003)"
       cx="-106.37761"
       cy="958.44226"
       fx="-106.37761"
       fy="958.44226"
       r="210.18597" />
    <linearGradient
       id="linearGradient3289">
      <stop
         style="stop-color:#000000;stop-opacity:1;"
         offset="0"
         id="stop3291" />
      <stop
         style="stop-color:#ffffff;stop-opacity:0.45045045;"
         offset="1"
         id="stop3293" />
    </linearGradient>
    <radialGradient
       inkscape:collect="always"
       xlink:href="#linearGradient3891-1"
       id="radialGradient4420"
       gradientUnits="userSpaceOnUse"
       gradientTransform="matrix(0.5072788,-0.49666068,0.14054246,0.14002222,-343.40191,697.21627)"
       cx="-107.4114"
       cy="1012.0989"
       fx="-107.4114"
       fy="1012.0989"
       r="203.1889" />
    <linearGradient
       id="linearGradient3296">
      <stop
         style="stop-color:#000000;stop-opacity:1;"
         offset="0"
         id="stop3298" />
      <stop
         style="stop-color:#ffffff;stop-opacity:0.45045045;"
         offset="1"
         id="stop3300" />
    </linearGradient>
    <radialGradient
       inkscape:collect="always"
       xlink:href="#linearGradient3891-1"
       id="radialGradient4417"
       gradientUnits="userSpaceOnUse"
       gradientTransform="matrix(0.5072788,-0.49666068,0.14479343,0.14425744,-328.50213,712.0609)"
       cx="-106.18565"
       cy="1065.7242"
       fx="-106.18565"
       fy="1065.7242"
       r="199.39359" />
    <linearGradient
       id="linearGradient3303">
      <stop
         style="stop-color:#000000;stop-opacity:1;"
         offset="0"
         id="stop3305" />
      <stop
         style="stop-color:#ffffff;stop-opacity:0.45045045;"
         offset="1"
         id="stop3307" />
    </linearGradient>
    <radialGradient
       inkscape:collect="always"
       xlink:href="#linearGradient3891-1"
       id="radialGradient4414"
       gradientUnits="userSpaceOnUse"
       gradientTransform="matrix(0.5072788,-0.49666068,0.15467218,0.15409965,-319.27617,721.25272)"
       cx="-102.55919"
       cy="1122.4559"
       fx="-102.55919"
       fy="1122.4559"
       r="185.19403" />
    <linearGradient
       id="linearGradient3310">
      <stop
         style="stop-color:#000000;stop-opacity:1;"
         offset="0"
         id="stop3312" />
      <stop
         style="stop-color:#ffffff;stop-opacity:0.45045045;"
         offset="1"
         id="stop3314" />
    </linearGradient>
    <linearGradient
       inkscape:collect="always"
       xlink:href="#linearGradient3916-0"
       id="linearGradient4411"
       gradientUnits="userSpaceOnUse"
       gradientTransform="matrix(0.5072788,-0.49666068,0.50287328,0.50101178,-710.11654,331.85913)"
       x1="-302.87885"
       y1="998.82416"
       x2="87.748688"
       y2="998.82416" />
    <linearGradient
       id="linearGradient3916-0">
      <stop
         style="stop-color:#636363;stop-opacity:1;"
         offset="0"
         id="stop3918-6" />
      <stop
         id="stop3924-0"
         offset="0.5"
         style="stop-color:#ffffff;stop-opacity:0;" />
      <stop
         style="stop-color:#474747;stop-opacity:1;"
         offset="1"
         id="stop3920-3" />
    </linearGradient>
    <radialGradient
       inkscape:collect="always"
       xlink:href="#linearGradient3985-7"
       id="radialGradient4405"
       gradientUnits="userSpaceOnUse"
       gradientTransform="matrix(0.580215,-0.56929701,0.35012146,0.34807372,-513.77845,512.84877)"
       cx="-107.06783"
       cy="1233.5167"
       fx="-107.06783"
       fy="1233.5167"
       r="69.676918" />
    <linearGradient
       id="linearGradient3985-7">
      <stop
         style="stop-color:#ffffff;stop-opacity:1;"
         offset="0"
         id="stop3987-6" />
      <stop
         style="stop-color:#363411;stop-opacity:0;"
         offset="1"
         id="stop3989-0" />
    </linearGradient>
    <radialGradient
       inkscape:collect="always"
       xlink:href="#linearGradient3997-9"
       id="radialGradient4402"
       gradientUnits="userSpaceOnUse"
       gradientTransform="matrix(1.0307314,0.70140738,-0.56919901,0.81590912,-294.18744,510.67726)"
       cx="-260.30264"
       cy="289.108"
       fx="-260.30264"
       fy="289.108"
       r="398" />
    <linearGradient
       id="linearGradient3997-9">
      <stop
         style="stop-color:#ffffff;stop-opacity:1;"
         offset="0"
         id="stop3999-5" />
      <stop
         id="stop4005-4"
         offset="0.44365835"
         style="stop-color:#ffffff;stop-opacity:0;" />
      <stop
         style="stop-color:#d3ca32;stop-opacity:0.81981981;"
         offset="1"
         id="stop4001-9" />
    </linearGradient>
    <radialGradient
       r="398"
       fy="289.108"
       fx="-260.30264"
       cy="289.108"
       cx="-260.30264"
       gradientTransform="matrix(1.0307314,0.70140738,-0.56919901,0.81590912,-294.18744,510.67726)"
       gradientUnits="userSpaceOnUse"
       id="radialGradient3348"
       xlink:href="#linearGradient3997-9"
       inkscape:collect="always" />
  </defs>
  <sodipodi:namedview
     id="base"
     pagecolor="#ffffff"
     bordercolor="#666666"
     borderopacity="1.0"
     inkscape:pageopacity="0.0"
     inkscape:pageshadow="2"
     inkscape:zoom="0.98994949"
     inkscape:cx="195"
     inkscape:cy="140"
     inkscape:document-units="px"
     inkscape:current-layer="layer1"
     showgrid="false"
     inkscape:window-width="808"
     inkscape:window-height="582"
     inkscape:window-x="17"
     inkscape:window-y="221"
     inkscape:window-maximized="0" />
  <metadata
     id="metadata7">
    <rdf:RDF>
      <cc:Work
         rdf:about="">
        <dc:format>image/svg+xml</dc:format>
        <dc:type
           rdf:resource="http://purl.org/dc/dcmitype/StillImage" />
        <dc:title></dc:title>
      </cc:Work>
    </rdf:RDF>
  </metadata>
  <g
     inkscape:label="Layer 1"
     inkscape:groupmode="layer"
     id="layer1"
     transform="translate(0,-796.36215)">
    <g
       transform="matrix(0.32,0,0,0.32,288,715.60626)"
       style="display:inline"
       id="g4433"
       inkscape:export-filename="C:\Users\Madnester\Desktop\j32.png"
       inkscape:export-xdpi="10.591404"
       inkscape:export-ydpi="10.591404">
      <path
         inkscape:connector-curvature="0"
         id="path4135"
         d="m -803.65753,345.92499 c -111.26664,109.491 -111.89509,287.36613 -1.25142,397.60024 59.02646,58.80795 137.8311,86.49829 215.47198,83.00929 70.73497,-3.17866 109.86054,17.68416 139.63389,35.51584 -0.032,0.21463 -0.075,0.4325 -0.10373,0.64705 -2.57982,19.24678 7.40112,38.2104 31.89325,63.59088 a 8.9295451,8.8192279 0 0 0 2.09697,16.19619 c 4.87956,1.46811 9.87755,1.46553 15.15148,0.58822 3.95999,3.66394 8.19445,7.4714 12.65786,11.41041 a 8.9295451,8.8192279 0 0 0 2.34977,16.04783 c 5.32777,1.60298 10.82562,1.45457 16.64032,0.32072 3.30615,2.79516 6.70259,5.65132 10.2245,8.58583 a 8.7139588,8.6063049 0 0 0 2.95952,15.00452 c 5.46637,1.69294 11.14198,1.52109 17.16994,0.29811 3.5762,2.45677 7.17342,4.78185 10.81136,7.01938 0.42579,0.2619 0.85601,0.5188 1.28253,0.7776 a 8.6950702,8.5876495 0 0 0 0.0795,16.287 c 7.73507,2.5135 15.92621,1.3133 24.99387,-1.3614 0.71716,-0.2117 1.44271,-0.4539 2.17152,-0.6881 2.32942,1.027 4.63515,2.0094 6.9715,2.9438 1.1976,0.4789 2.42589,0.9559 3.6247,1.4101 0.98815,0.3745 1.95663,0.726 2.94535,1.0835 a 8.3722831,8.2688503 0 0 0 -3.52509,15.9976 c 7.34906,2.6329 15.29521,1.8432 23.98113,-0.4196 5.39737,-1.4062 11.12079,-3.4729 17.09745,-6.1274 0.0103,0 0.0151,-0.02 0.0253,-0.025 20.62237,2.8392 40.65786,1.6079 58.99594,-4.2037 0.31186,2.4163 6.18503,0.9902 9.79813,2.3583 20.48591,7.7572 43.25518,-13.2403 46.13833,-16.0631 0.54059,-0.5293 1.73583,-1.6202 3.29214,-3.2233 0.5188,-0.5344 1.08845,-1.1441 1.67208,-1.7858 6.71163,-7.3786 16.92818,-21.62453 12.37262,-38.19802 -0.19806,-0.72061 -0.44095,-1.46559 -0.69632,-2.1945 -1.23254,-3.51814 0.22425,-9.20977 -2.12598,-9.62183 8.43903,-24.68381 8.30099,-52.57714 0.63442,-80.85819 1.51875,-14.91656 -0.25191,-29.99892 -6.45972,-44.60466 a 8.3673535,8.2639817 0 0 0 -13.4517,-2.94673 c -1.2812,-2.2522 -2.58218,-4.50632 -3.95418,-6.74091 -0.73654,-7.98294 -2.54253,-15.91808 -5.59395,-23.68221 a 8.6923594,8.5849722 0 0 0 -13.77694,-3.52091 c -1.42435,-1.74623 -2.88271,-3.47457 -4.36442,-5.19868 -1.00138,-1.16521 -1.95033,-2.23306 -2.9352,-3.37457 -0.003,-0.0163 0.003,-0.0337 -1.5e-4,-0.0497 -0.89588,-5.23093 -2.28341,-10.44483 -4.21783,-15.55782 a 8.7139588,8.6063049 0 0 0 -13.09317,-4.19033 c -1.7719,-1.98551 -3.52857,-3.93116 -5.24418,-5.82505 -0.72212,-7.10724 -2.29619,-14.13568 -4.84918,-21.03925 a 8.9295451,8.8192279 0 0 0 -14.60934,-3.44977 8.9295451,8.8192279 0 0 0 -1.6483,2.10966 c -3.26564,-3.27221 -6.4005,-6.32609 -9.4654,-9.18028 -0.84104,-5.91973 -2.32733,-11.78099 -4.46118,-17.55109 a 8.9295451,8.8192279 0 0 0 -14.60934,-3.44979 8.9295451,8.8192279 0 0 0 -2.25956,3.50163 c -14.85734,-10.24522 -27.75901,-14.33178 -40.79132,-12.82657 -16.49174,-27.36647 -35.65099,-62.66427 -35.41213,-123.2245 0.0103,-2.47587 0.0833,-4.98353 0.15938,-7.54501 0.0761,-2.56144 0.16625,-5.14393 0.31179,-7.79337 4.21001,-76.64839 -23.1383,-154.71805 -82.16475,-213.526 -110.64366,-110.2341 -290.71709,-111.18972 -402.54398,-2.25686 z m 621.84989,678.82721 c 0.86999,-0.3452 1.74074,-0.6921 2.60179,-1.0597 0.82695,-0.3528 1.65741,-0.7116 2.47585,-1.0849 -0.82268,0.3752 -1.64461,0.7304 -2.47585,1.0849 -0.86037,0.3671 -1.73254,0.7149 -2.60179,1.0597 z m 17.28528,-8.6915 c 0.84215,-0.5242 1.67306,-1.0586 2.50337,-1.608 -0.82587,0.5457 -1.66575,1.0871 -2.50337,1.608 z m 33.78237,-33.0256 c -0.59432,0.90874 -1.17766,1.81231 -1.80221,2.70669 0.62525,-0.89413 1.20713,-1.7982 1.80221,-2.70669 z m -28.19341,29.2892 c 0.59331,-0.4226 1.18405,-0.8511 1.77072,-1.2873 -0.58713,0.4362 -1.17694,0.8647 -1.77072,1.2873 z m 20.15285,-18.54075 c -0.38443,0.45337 -0.77251,0.89097 -1.1658,1.33976 0.38709,-0.44151 0.78722,-0.89381 1.1658,-1.33976 z"
         style="fill:#f1f1ca;fill-opacity:1;fill-rule:nonzero;stroke:#a7a7a7;stroke-width:24.99780464;stroke-linecap:round;stroke-miterlimit:4;stroke-opacity:1;stroke-dasharray:none" />
      <path
         sodipodi:nodetypes="ssszs"
         inkscape:connector-curvature="0"
         id="path3776"
         d="m -165.81538,791.14216 c 59.89131,69.69022 73.19575,158.12509 19.99048,210.21664 -53.20526,52.0915 -142.62061,36.7555 -212.66377,-21.5763 -123.82292,-103.11938 -114.19008,-117.98887 -19.99051,-210.21671 94.19957,-92.22784 107.85368,-100.38192 212.6638,21.57637 z"
         style="fill:#e9e9e6;fill-opacity:1;fill-rule:nonzero;stroke:none" />
      <path
         sodipodi:nodetypes="zszzz"
         inkscape:connector-curvature="0"
         id="path3783"
         d="m -275.70644,712.0902 c 14.12551,14.07322 -17.55578,54.08451 -62.25257,97.84575 -44.69683,43.76124 -85.73739,74.44788 -99.60889,60.62773 -13.87152,-13.82017 9.68398,-46.37749 62.25258,-97.84574 52.56861,-51.46827 85.48339,-74.70095 99.60888,-60.62774 z"
         style="fill:#34342e;fill-opacity:1;fill-rule:nonzero;stroke:none" />
      <path
         inkscape:connector-curvature="0"
         id="path2985"
         d="m -803.6669,345.93829 c -111.26667,109.49102 -111.89419,287.34054 -1.25054,397.57465 59.02646,58.80796 137.82196,86.50838 215.46283,83.01939 85.75948,-3.85384 125.11526,27.64079 157.58783,46.21405 17.85798,2.45292 53.99451,-25.73321 92.90192,-63.82623 38.87276,-38.05909 67.89797,-73.26278 65.51079,-91.05336 -18.51091,-32.25801 -50.15054,-71.39697 -45.49412,-156.17878 4.20971,-76.64831 -23.14886,-154.70902 -82.17533,-213.51698 C -511.76717,237.93695 -691.84,237.00544 -803.6669,345.93829 z m 371.80012,526.80809 c 1.04163,0.59579 2.07298,1.17614 3.10174,1.74372 -1.02596,-0.5661 -2.06299,-1.14959 -3.10174,-1.74372 z m 3.10174,1.74372 c 1.02762,0.56696 2.0532,1.11443 3.07057,1.65006 -1.01573,-0.53491 -2.04462,-1.08395 -3.07057,-1.65006 z m 3.07057,1.65006 c 1.91894,1.01029 3.8212,1.9637 5.717,2.84623 -1.90133,-0.88512 -3.79243,-1.83269 -5.717,-2.84623 z m 157.14053,-149.16392 c 0.32156,0.64737 0.63266,1.2921 0.93846,1.93707 -0.30624,-0.6459 -0.61642,-1.28877 -0.93846,-1.93707 z m -147.83188,153.61569 c 0.90923,0.38027 1.83224,0.72793 2.74167,1.07187 -0.9111,-0.34464 -1.83079,-0.69079 -2.74167,-1.07187 z m 2.74167,1.07187 c 0.99933,0.37791 1.99219,0.74189 2.99421,1.07293 -1.00347,-0.33153 -1.99346,-0.69442 -2.99421,-1.07293 z m 2.99421,1.07293 c 1.28237,0.42365 2.57038,0.81365 3.86195,1.15462 -1.29051,-0.34082 -2.58065,-0.73129 -3.86195,-1.15462 z m 144.91007,-149.6375 c 0.28096,0.67134 0.53534,1.34326 0.79608,2.01439 -0.25941,-0.66781 -0.51662,-1.34638 -0.79608,-2.01439 z m -140.37017,150.96652 c 0.77454,0.1951 1.55391,0.37693 2.33365,0.54008 -0.78362,-0.16389 -1.5553,-0.34394 -2.33365,-0.54008 z m 3.04328,0.68343 c 0.51009,0.0999 1.01699,0.18598 1.52984,0.2716 -0.51354,-0.0858 -1.01908,-0.17149 -1.52984,-0.2716 z m 6.21517,0.83741 c 0.52266,0.0402 1.05122,0.0761 1.57794,0.10033 -0.52789,-0.0245 -1.05413,-0.0599 -1.57794,-0.10033 z m 3.17188,0.15395 c 0.53147,0.008 1.05804,-1.5e-4 1.59423,-0.009 -0.53703,0.008 -1.06193,0.017 -1.59423,0.009 z m 1.59423,-0.009 c 0.45733,-0.007 0.9124,-0.0211 1.37337,-0.0409 -0.45724,0.0193 -0.91971,0.0337 -1.37337,0.0409 z m 3.28368,-0.14174 c 0.53859,-0.0428 1.08236,-0.10439 1.62647,-0.16447 -0.54268,0.0597 -1.08926,0.12193 -1.62647,0.16447 z m 1.62647,-0.16447 c 0.43039,-0.0476 0.86091,-0.0917 1.29494,-0.15031 -0.43549,0.0586 -0.8631,0.10276 -1.29494,0.15031 z m 5.05435,-0.78887 c 0.57097,-0.11682 1.14418,-0.24607 1.72213,-0.38229 -0.57908,0.13636 -1.15004,0.2654 -1.72213,0.38229 z m 1.72213,-0.38229 c 0.58129,-0.13702 1.1653,-0.28751 1.75397,-0.44452 -0.58639,0.15619 -1.1749,0.30816 -1.75397,0.44452 z m 3.52394,-0.93575 c 1.16802,-0.34736 2.35711,-0.7259 3.55648,-1.15385 -1.19781,0.42689 -2.38993,0.80731 -3.55648,1.15385 z m 23.3462,-11.12346 c 0.61866,-0.39216 1.24022,-0.79653 1.86783,-1.20791 -0.63074,0.41332 -1.24613,0.81399 -1.86783,1.20791 z m 67.06931,-61.5368 c -0.49176,0.59238 -0.98362,1.20173 -1.49165,1.80188 0.50876,-0.60097 0.99922,-1.20871 1.49165,-1.80188 z"
         style="fill:#fff995;fill-opacity:0.64361704;fill-rule:nonzero;stroke:none" />
      <text
         transform="matrix(0.95059117,0.10112816,-0.04834496,1.0468338,0,0)"
         sodipodi:linespacing="125%"
         id="text4027"
         y="549.49249"
         x="-717.08405"
         style="font-size:47.06424713px;font-style:normal;font-weight:normal;line-height:125%;letter-spacing:0px;word-spacing:0px;fill:#000000;fill-opacity:1;stroke:none;font-family:Sans"
         xml:space="preserve"><tspan
           style="font-size:588.30310059px;font-style:normal;font-variant:normal;font-weight:normal;font-stretch:normal;font-family:Sakkal Majalla;-inkscape-font-specification:Sakkal Majalla"
           y="549.49249"
           x="-717.08405"
           id="tspan4029"
           sodipodi:role="line">..</tspan></text>
      <path
         inkscape:connector-curvature="0"
         id="path3809"
         d="m -240.95006,709.60436 a 8.929545,8.8192278 0 0 0 -2.15702,9.49998 c 7.9101,21.38956 4.3354,45.28841 -7.04804,69.82363 -11.38346,24.53519 -30.52994,49.20266 -52.0988,70.59607 -21.56887,21.39343 -45.55944,39.563 -66.12497,51.42366 -10.28277,5.93034 -19.73628,10.26436 -27.31483,12.68085 -7.57857,2.4165 -13.2604,2.50665 -15.01925,1.97746 a 8.929545,8.8192278 0 1 0 -5.20423,16.8604 c 8.02103,2.4133 16.36764,0.92637 25.7211,-2.05607 9.35345,-2.98244 19.73658,-7.86035 30.82582,-14.2558 22.17847,-12.79089 47.10498,-31.70466 69.76745,-54.18279 22.66247,-22.47816 43.05019,-48.45397 55.68848,-75.69381 12.63832,-27.23986 17.55542,-56.2554 7.58077,-83.22781 a 8.929545,8.8192278 0 0 0 -14.61648,-3.44577 z"
         style="font-size:medium;font-style:normal;font-variant:normal;font-weight:normal;font-stretch:normal;text-indent:0;text-align:start;text-decoration:none;line-height:normal;letter-spacing:normal;word-spacing:normal;text-transform:none;direction:ltr;block-progression:tb;writing-mode:lr-tb;text-anchor:start;baseline-shift:baseline;color:#000000;fill:url(#radialGradient4426);fill-opacity:1;stroke:none;stroke-width:25;marker:none;visibility:visible;display:inline;overflow:visible;enable-background:accumulate;font-family:Sans;-inkscape-font-specification:Sans" />
      <path
         inkscape:connector-curvature="0"
         id="path3811"
         d="m -210.76886,737.66972 a 8.929545,8.8192278 0 0 0 -2.15699,9.49996 c 7.91007,21.38958 4.33539,45.28845 -7.04807,69.82364 -11.38345,24.5352 -30.52993,49.20266 -52.0988,70.5961 -21.56886,21.39342 -45.55942,39.56299 -66.12496,51.42364 -10.28278,5.93034 -19.73629,10.26437 -27.31484,12.68085 -7.57857,2.41651 -13.26039,2.50666 -15.01924,1.97744 a 8.929545,8.8192278 0 1 0 -5.20424,16.86042 c 8.02105,2.41331 16.36765,0.92637 25.72111,-2.05607 9.35343,-2.98244 19.73657,-7.86036 30.82584,-14.25577 22.17848,-12.79091 47.10497,-31.70467 69.76741,-54.18283 22.66248,-22.47816 43.0502,-48.45393 55.6885,-75.69379 12.63832,-27.23986 17.55543,-56.25541 7.58078,-83.22783 a 8.929545,8.8192278 0 0 0 -14.6165,-3.44576 z"
         style="font-size:medium;font-style:normal;font-variant:normal;font-weight:normal;font-stretch:normal;text-indent:0;text-align:start;text-decoration:none;line-height:normal;letter-spacing:normal;word-spacing:normal;text-transform:none;direction:ltr;block-progression:tb;writing-mode:lr-tb;text-anchor:start;baseline-shift:baseline;color:#000000;fill:url(#radialGradient4423);fill-opacity:1;stroke:none;stroke-width:25;marker:none;visibility:visible;display:inline;overflow:visible;enable-background:accumulate;font-family:Sans;-inkscape-font-specification:Sans" />
      <path
         inkscape:connector-curvature="0"
         id="path3813"
         d="m -187.26252,768.91766 a 8.7139588,8.6063049 0 0 0 -2.0456,9.29779 c 7.94622,21.00324 4.68453,44.25682 -6.17218,68.06587 -10.85675,23.80899 -29.29196,47.68436 -50.11588,68.3442 -20.82395,20.65986 -44.0371,38.13036 -63.9699,49.4999 -9.96636,5.68479 -19.13473,9.84117 -26.49158,12.12322 -7.35685,2.28205 -12.88396,2.32496 -14.6553,1.77641 a 8.7139588,8.6063049 0 1 0 -5.20232,16.42386 c 7.80062,2.41585 15.97516,1.04876 25.08849,-1.77818 9.11337,-2.82696 19.20156,-7.4932 29.97077,-13.63594 21.53849,-12.28538 45.68447,-30.53519 67.59664,-52.27469 21.91216,-21.73952 41.59213,-46.91555 53.67383,-73.41092 12.08172,-26.49536 16.58422,-54.79192 6.60882,-81.15867 a 8.7139588,8.6063049 0 0 0 -14.28579,-3.27285 z"
         style="font-size:medium;font-style:normal;font-variant:normal;font-weight:normal;font-stretch:normal;text-indent:0;text-align:start;text-decoration:none;line-height:normal;letter-spacing:normal;word-spacing:normal;text-transform:none;direction:ltr;block-progression:tb;writing-mode:lr-tb;text-anchor:start;baseline-shift:baseline;color:#000000;fill:url(#radialGradient4420);fill-opacity:1;stroke:none;stroke-width:24.39642525;marker:none;visibility:visible;display:inline;overflow:visible;enable-background:accumulate;font-family:Sans;-inkscape-font-specification:Sans" />
      <path
         inkscape:connector-curvature="0"
         id="path3815"
         d="m -161.97355,796.80605 a 8.6923594,8.5849722 0 0 0 -1.91937,9.29831 c 8.3251,21.18247 5.45628,44.26759 -4.93981,67.79057 -10.39604,23.523 -28.35041,47.00728 -48.73778,67.24338 -20.38738,20.23609 -43.22429,37.25311 -62.87526,48.24188 -9.82541,5.49444 -18.86872,9.48034 -26.1421,11.62591 -7.27344,2.1455 -12.71091,2.1174 -14.57526,1.5117 a 8.6950702,8.5876495 0 1 0 -5.43859,16.3137 c 7.73507,2.5135 15.92435,1.3016 24.99201,-1.3731 9.06767,-2.675 19.07731,-7.1648 29.73172,-13.1227 21.30891,-11.91587 45.10245,-29.74335 66.61284,-51.09415 21.51038,-21.3508 40.72714,-46.19619 52.34389,-72.4813 11.61674,-26.2851 15.6045,-54.48237 5.23432,-80.8684 a 8.6923594,8.5849722 0 0 0 -14.28661,-3.0858 z"
         style="font-size:medium;font-style:normal;font-variant:normal;font-weight:normal;font-stretch:normal;text-indent:0;text-align:start;text-decoration:none;line-height:normal;letter-spacing:normal;word-spacing:normal;text-transform:none;direction:ltr;block-progression:tb;writing-mode:lr-tb;text-anchor:start;baseline-shift:baseline;color:#000000;fill:url(#radialGradient4417);fill-opacity:1;stroke:none;stroke-width:24.33595276;marker:none;visibility:visible;display:inline;overflow:visible;enable-background:accumulate;font-family:Sans;-inkscape-font-specification:Sans" />
      <path
         inkscape:connector-curvature="0"
         id="path3817"
         d="m -138.5102,830.64156 a 8.3673535,8.2639817 0 0 0 -1.60226,8.98794 c 8.88708,20.90957 6.91033,42.97198 -2.18185,65.15228 -9.0921,22.18033 -25.43297,44.05878 -44.25108,62.75754 -18.81813,18.69871 -40.11228,34.23258 -58.5478,44.06698 -9.21777,4.9173 -17.71769,8.4085 -24.58904,10.1986 -6.87133,1.7899 -12.00903,1.5953 -14.01996,0.8749 a 8.37229,8.2688571 0 1 0 -5.70355,15.5486 c 7.34907,2.6331 15.29184,1.8206 23.97774,-0.4422 8.68591,-2.2628 18.21002,-6.2402 28.28874,-11.6166 20.15745,-10.7531 42.49093,-27.12369 62.47503,-46.98101 19.98417,-19.85729 37.6342,-43.19489 47.88978,-68.21348 10.25561,-25.01861 12.97855,-52.12678 2.09528,-77.73297 a 8.3673535,8.2639817 0 0 0 -13.83103,-2.60058 z"
         style="font-size:medium;font-style:normal;font-variant:normal;font-weight:normal;font-stretch:normal;text-indent:0;text-align:start;text-decoration:none;line-height:normal;letter-spacing:normal;word-spacing:normal;text-transform:none;direction:ltr;block-progression:tb;writing-mode:lr-tb;text-anchor:start;baseline-shift:baseline;color:#000000;fill:url(#radialGradient4414);fill-opacity:1;stroke:none;stroke-width:23.42603493;marker:none;visibility:visible;display:inline;overflow:visible;enable-background:accumulate;font-family:Sans;-inkscape-font-specification:Sans" />
      <path
         style="fill:url(#linearGradient4411);fill-opacity:1;fill-rule:nonzero;stroke:none"
         d="m -165.81538,791.14216 c 59.89131,69.69022 73.19575,158.12509 19.99048,210.21664 -53.20526,52.0915 -142.62061,36.7555 -212.66377,-21.5763 -123.82292,-103.11938 -114.19008,-117.98887 -19.99051,-210.21671 94.19957,-92.22784 107.85368,-100.38192 212.6638,21.57637 z"
         id="path3914"
         inkscape:connector-curvature="0"
         sodipodi:nodetypes="ssszs" />
      <text
         transform="matrix(1.0543937,-1.0323238,0.48011958,0.47834231,0,0)"
         sodipodi:linespacing="125%"
         id="text4007"
         y="373.0043"
         x="-603.10876"
         style="font-size:749.32183838px;font-style:normal;font-weight:normal;line-height:125%;letter-spacing:0px;word-spacing:0px;fill:#000000;fill-opacity:1;stroke:none;font-family:Sans"
         xml:space="preserve"><tspan
           style="font-style:normal;font-variant:normal;font-weight:normal;font-stretch:normal;font-family:Sakkal Majalla;-inkscape-font-specification:Sakkal Majalla"
           y="373.0043"
           x="-603.10876"
           id="tspan4009"
           sodipodi:role="line">J</tspan></text>
      <path
         sodipodi:nodetypes="cssscsc"
         inkscape:connector-curvature="0"
         id="path3977"
         d="m -189.28799,1027.4356 c 0.31187,2.4163 6.16898,1.006 9.78208,2.3741 20.4859,7.7572 43.24588,-13.2399 46.12903,-16.0627 2.88315,-2.8228 24.82156,-22.07638 16.64955,-45.4017 -1.23799,-3.53359 0.24962,-9.29849 -2.14484,-9.66523 -5.39494,15.79237 -14.26565,30.2643 -26.94224,42.67543 -12.67907,12.4138 -27.43403,20.9943 -43.47358,26.0801 z"
         style="fill:#363411;fill-opacity:1;stroke:none" />
      <path
         style="fill:url(#radialGradient4405);fill-opacity:1;stroke:none"
         d="m -189.28799,1027.4356 c 0.31187,2.4163 6.16898,1.006 9.78208,2.3741 20.4859,7.7572 43.24588,-13.2399 46.12903,-16.0627 2.88315,-2.8228 24.82156,-22.07638 16.64955,-45.4017 -1.23799,-3.53359 0.24962,-9.29849 -2.14484,-9.66523 -5.39494,15.79237 -14.26565,30.2643 -26.94224,42.67543 -12.67907,12.4138 -27.43403,20.9943 -43.47358,26.0801 z"
         id="path3983"
         inkscape:connector-curvature="0"
         sodipodi:nodetypes="cssscsc" />
      <path
         sodipodi:nodetypes="csscscssc"
         style="fill:url(#radialGradient3348);fill-opacity:1;fill-rule:nonzero;stroke:none"
         d="m -803.6669,345.93829 c -111.26667,109.49102 -111.89419,287.34054 -1.25054,397.57465 59.02646,58.80796 137.82196,86.50838 215.46283,83.01939 85.75948,-3.85384 125.11526,27.64079 157.58783,46.21405 17.85798,2.45292 53.99451,-25.73321 92.90192,-63.82623 38.87276,-38.05909 67.89797,-73.26278 65.51079,-91.05336 -18.51091,-32.25801 -50.15054,-71.39697 -45.49412,-156.17878 4.20971,-76.64831 -23.14886,-154.70902 -82.17533,-213.51698 C -511.76717,237.93695 -691.84,237.00544 -803.6669,345.93829 z"
         id="path3995"
         inkscape:connector-curvature="0" />
    </g>
  </g>
</svg>
