<?xml version="1.0" encoding="UTF-8" standalone="no"?>
<!-- Created with Inkscape (http://www.inkscape.org/) -->

<svg
   xmlns:dc="http://purl.org/dc/elements/1.1/"
   xmlns:cc="http://creativecommons.org/ns#"
   xmlns:rdf="http://www.w3.org/1999/02/22-rdf-syntax-ns#"
   xmlns:svg="http://www.w3.org/2000/svg"
   xmlns="http://www.w3.org/2000/svg"
   xmlns:xlink="http://www.w3.org/1999/xlink"
   xmlns:sodipodi="http://sodipodi.sourceforge.net/DTD/sodipodi-0.dtd"
   xmlns:inkscape="http://www.inkscape.org/namespaces/inkscape"
   width="256"
   height="256"
   id="svg2"
   version="1.1"
   inkscape:version="0.48.1 "
   sodipodi:docname="ICQ.svg">
  <defs
     id="defs4">
    <radialGradient
       inkscape:collect="always"
       xlink:href="#linearGradient3891-1"
       id="radialGradient4426"
       gradientUnits="userSpaceOnUse"
       gradientTransform="matrix(0.5072788,-0.49666068,0.13818279,0.13767126,-381.7338,659.02628)"
       cx="-108.37761"
       cy="900.44226"
       fx="-108.37761"
       fy="900.44226"
       r="210.18597" />
    <linearGradient
       id="linearGradient3891-1">
      <stop
         style="stop-color:#000000;stop-opacity:1;"
         offset="0"
         id="stop3893-2" />
      <stop
         style="stop-color:#ffffff;stop-opacity:0.45045045;"
         offset="1"
         id="stop3895-2" />
    </linearGradient>
    <radialGradient
       inkscape:collect="always"
       xlink:href="#linearGradient3891-1"
       id="radialGradient4423"
       gradientUnits="userSpaceOnUse"
       gradientTransform="matrix(0.5072788,-0.49666068,0.13818279,0.13767126,-360.58177,680.10003)"
       cx="-106.37761"
       cy="958.44226"
       fx="-106.37761"
       fy="958.44226"
       r="210.18597" />
    <linearGradient
       id="linearGradient3289">
      <stop
         style="stop-color:#000000;stop-opacity:1;"
         offset="0"
         id="stop3291" />
      <stop
         style="stop-color:#ffffff;stop-opacity:0.45045045;"
         offset="1"
         id="stop3293" />
    </linearGradient>
    <radialGradient
       inkscape:collect="always"
       xlink:href="#linearGradient3891-1"
       id="radialGradient4420"
       gradientUnits="userSpaceOnUse"
       gradientTransform="matrix(0.5072788,-0.49666068,0.14054246,0.14002222,-343.40191,697.21627)"
       cx="-107.4114"
       cy="1012.0989"
       fx="-107.4114"
       fy="1012.0989"
       r="203.1889" />
    <linearGradient
       id="linearGradient3296">
      <stop
         style="stop-color:#000000;stop-opacity:1;"
         offset="0"
         id="stop3298" />
      <stop
         style="stop-color:#ffffff;stop-opacity:0.45045045;"
         offset="1"
         id="stop3300" />
    </linearGradient>
    <radialGradient
       inkscape:collect="always"
       xlink:href="#linearGradient3891-1"
       id="radialGradient4417"
       gradientUnits="userSpaceOnUse"
       gradientTransform="matrix(0.5072788,-0.49666068,0.14479343,0.14425744,-328.50213,712.0609)"
       cx="-106.18565"
       cy="1065.7242"
       fx="-106.18565"
       fy="1065.7242"
       r="199.39359" />
    <linearGradient
       id="linearGradient3303">
      <stop
         style="stop-color:#000000;stop-opacity:1;"
         offset="0"
         id="stop3305" />
      <stop
         style="stop-color:#ffffff;stop-opacity:0.45045045;"
         offset="1"
         id="stop3307" />
    </linearGradient>
    <radialGradient
       inkscape:collect="always"
       xlink:href="#linearGradient3891-1"
       id="radialGradient4414"
       gradientUnits="userSpaceOnUse"
       gradientTransform="matrix(0.5072788,-0.49666068,0.15467218,0.15409965,-319.27617,721.25272)"
       cx="-102.55919"
       cy="1122.4559"
       fx="-102.55919"
       fy="1122.4559"
       r="185.19403" />
    <linearGradient
       id="linearGradient3310">
      <stop
         style="stop-color:#000000;stop-opacity:1;"
         offset="0"
         id="stop3312" />
      <stop
         style="stop-color:#ffffff;stop-opacity:0.45045045;"
         offset="1"
         id="stop3314" />
    </linearGradient>
    <linearGradient
       inkscape:collect="always"
       xlink:href="#linearGradient3916-0"
       id="linearGradient4411"
       gradientUnits="userSpaceOnUse"
       gradientTransform="matrix(0.5072788,-0.49666068,0.50287328,0.50101178,-710.11654,331.85913)"
       x1="-302.87885"
       y1="998.82416"
       x2="87.748688"
       y2="998.82416" />
    <linearGradient
       id="linearGradient3916-0">
      <stop
         style="stop-color:#636363;stop-opacity:1;"
         offset="0"
         id="stop3918-6" />
      <stop
         id="stop3924-0"
         offset="0.5"
         style="stop-color:#ffffff;stop-opacity:0;" />
      <stop
         style="stop-color:#474747;stop-opacity:1;"
         offset="1"
         id="stop3920-3" />
    </linearGradient>
    <radialGradient
       inkscape:collect="always"
       xlink:href="#linearGradient3985-7"
       id="radialGradient4405"
       gradientUnits="userSpaceOnUse"
       gradientTransform="matrix(0.580215,-0.56929701,0.35012146,0.34807372,-513.77845,512.84877)"
       cx="-107.06783"
       cy="1233.5167"
       fx="-107.06783"
       fy="1233.5167"
       r="69.676918" />
    <linearGradient
       id="linearGradient3985-7">
      <stop
         style="stop-color:#ffffff;stop-opacity:1;"
         offset="0"
         id="stop3987-6" />
      <stop
         style="stop-color:#363411;stop-opacity:0;"
         offset="1"
         id="stop3989-0" />
    </linearGradient>
    <radialGradient
       inkscape:collect="always"
       xlink:href="#linearGradient3997-9"
       id="radialGradient4402"
       gradientUnits="userSpaceOnUse"
       gradientTransform="matrix(1.0307314,0.70140738,-0.56919901,0.81590912,-294.18744,510.67726)"
       cx="-260.30264"
       cy="289.108"
       fx="-260.30264"
       fy="289.108"
       r="398" />
    <linearGradient
       id="linearGradient3997-9">
      <stop
         style="stop-color:#ffffff;stop-opacity:1;"
         offset="0"
         id="stop3999-5" />
      <stop
         id="stop4005-4"
         offset="0.44365835"
         style="stop-color:#ffffff;stop-opacity:0;" />
      <stop
         style="stop-color:#d3ca32;stop-opacity:0.81981981;"
         offset="1"
         id="stop4001-9" />
    </linearGradient>
    <radialGradient
       r="398"
       fy="289.108"
       fx="-260.30264"
       cy="289.108"
       cx="-260.30264"
       gradientTransform="matrix(1.0307314,0.70140738,-0.56919901,0.81590912,-294.18744,510.67726)"
       gradientUnits="userSpaceOnUse"
       id="radialGradient3348"
       xlink:href="#linearGradient3997-9"
       inkscape:collect="always" />
    <radialGradient
       inkscape:collect="always"
       xlink:href="#linearGradient4726"
       id="radialGradient4066"
       gradientUnits="userSpaceOnUse"
       gradientTransform="matrix(1.5733257,-0.09782065,0.10835636,1.7220173,-311.54758,1813.3754)"
       cx="360.4267"
       cy="365.36887"
       fx="360.4267"
       fy="365.36887"
       r="277.86301" />
    <linearGradient
       id="linearGradient4726">
      <stop
         style="stop-color:#ffffff;stop-opacity:0;"
         offset="0"
         id="stop4728" />
      <stop
         id="stop4734"
         offset="0.5"
         style="stop-color:#ffffff;stop-opacity:0.73873872;" />
      <stop
         style="stop-color:#000000;stop-opacity:1;"
         offset="1"
         id="stop4730" />
    </linearGradient>
    <radialGradient
       inkscape:collect="always"
       xlink:href="#linearGradient4003"
       id="radialGradient4010"
       cx="411.42856"
       cy="432.36218"
       fx="411.42856"
       fy="432.36218"
       r="154.28572"
       gradientUnits="userSpaceOnUse" />
    <linearGradient
       id="linearGradient4003">
      <stop
         style="stop-color:#0d300c;stop-opacity:1;"
         offset="0"
         id="stop4006" />
      <stop
         style="stop-color:#3ba246;stop-opacity:0;"
         offset="1"
         id="stop4008" />
    </linearGradient>
    <radialGradient
       inkscape:collect="always"
       xlink:href="#linearGradient4754"
       id="radialGradient4061"
       gradientUnits="userSpaceOnUse"
       gradientTransform="matrix(1.2695134,0,0,1.3244416,-162.45546,1924.6391)"
       cx="358.74881"
       cy="363.72919"
       fx="358.74881"
       fy="363.72919"
       r="287.14215" />
    <linearGradient
       id="linearGradient4754">
      <stop
         style="stop-color:#9ef58c;stop-opacity:0;"
         offset="0"
         id="stop4756" />
      <stop
         id="stop4762"
         offset="0.7684527"
         style="stop-color:#c5ffba;stop-opacity:1;" />
      <stop
         style="stop-color:#9ef58c;stop-opacity:0;"
         offset="1"
         id="stop4758" />
    </linearGradient>
    <filter
       inkscape:collect="always"
       id="filter4480"
       x="-1.0018349"
       width="3.0036697"
       y="-1.0018349"
       height="3.0036697"
       color-interpolation-filters="sRGB">
      <feGaussianBlur
         inkscape:collect="always"
         stdDeviation="128.80734"
         id="feGaussianBlur4482" />
    </filter>
    <radialGradient
       inkscape:collect="always"
       xlink:href="#linearGradient4813"
       id="radialGradient4012"
       gradientUnits="userSpaceOnUse"
       gradientTransform="matrix(2.0895106,-0.46453523,0.36061815,1.6220847,-545.78583,-73.906141)"
       cx="377.25143"
       cy="399.78336"
       fx="377.25143"
       fy="399.78336"
       r="154.28572" />
    <linearGradient
       id="linearGradient4813">
      <stop
         style="stop-color:#ffffff;stop-opacity:0.60747664"
         offset="0"
         id="stop4815" />
      <stop
         style="stop-color:#a5c20f;stop-opacity:0;"
         offset="1"
         id="stop4817" />
    </linearGradient>
    <radialGradient
       r="154.28572"
       fy="399.78336"
       fx="377.25143"
       cy="399.78336"
       cx="377.25143"
       gradientTransform="matrix(2.0895106,-0.46453523,0.36061815,1.6220847,-545.78583,-73.906141)"
       gradientUnits="userSpaceOnUse"
       id="radialGradient3394"
       xlink:href="#linearGradient4813"
       inkscape:collect="always" />
    <linearGradient
       inkscape:collect="always"
       xlink:href="#linearGradient3970"
       id="linearGradient4361"
       gradientUnits="userSpaceOnUse"
       gradientTransform="matrix(2.0100007,0,0,1.8299138,-904.74161,-3851.3224)"
       x1="1274.6506"
       y1="2400.7771"
       x2="904.44373"
       y2="2521.2961" />
    <linearGradient
       id="linearGradient3970">
      <stop
         style="stop-color:#fffacf;stop-opacity:1;"
         offset="0"
         id="stop3972" />
      <stop
         style="stop-color:#ff7000;stop-opacity:1;"
         offset="1"
         id="stop3974" />
    </linearGradient>
    <linearGradient
       inkscape:collect="always"
       xlink:href="#linearGradient3970"
       id="linearGradient4363"
       gradientUnits="userSpaceOnUse"
       gradientTransform="matrix(2.0100007,0,0,1.8299138,-904.74162,-3851.3223)"
       x1="1274.6506"
       y1="2400.7771"
       x2="904.44373"
       y2="2521.2961" />
    <linearGradient
       id="linearGradient3411">
      <stop
         style="stop-color:#fffacf;stop-opacity:1;"
         offset="0"
         id="stop3413" />
      <stop
         style="stop-color:#ff7000;stop-opacity:1;"
         offset="1"
         id="stop3415" />
    </linearGradient>
    <radialGradient
       inkscape:collect="always"
       xlink:href="#linearGradient3970"
       id="radialGradient4365"
       gradientUnits="userSpaceOnUse"
       gradientTransform="matrix(1.6048911,2.0062253,-1.4966285,1.2502573,3100.0374,-4583.111)"
       cx="1045.1827"
       cy="2398.6892"
       fx="1045.1827"
       fy="2398.6892"
       r="191.22911" />
    <linearGradient
       id="linearGradient3418">
      <stop
         style="stop-color:#fffacf;stop-opacity:1;"
         offset="0"
         id="stop3420" />
      <stop
         style="stop-color:#ff7000;stop-opacity:1;"
         offset="1"
         id="stop3422" />
    </linearGradient>
    <radialGradient
       r="191.22911"
       fy="2398.6892"
       fx="1045.1827"
       cy="2398.6892"
       cx="1045.1827"
       gradientTransform="matrix(1.6048911,2.0062253,-1.4966285,1.2502573,3100.0374,-4583.111)"
       gradientUnits="userSpaceOnUse"
       id="radialGradient3428"
       xlink:href="#linearGradient3970"
       inkscape:collect="always" />
  </defs>
  <sodipodi:namedview
     id="base"
     pagecolor="#ffffff"
     bordercolor="#666666"
     borderopacity="1.0"
     inkscape:pageopacity="0.0"
     inkscape:pageshadow="2"
     inkscape:zoom="0.98994949"
     inkscape:cx="195"
     inkscape:cy="140"
     inkscape:document-units="px"
     inkscape:current-layer="layer1"
     showgrid="false"
     inkscape:window-width="808"
     inkscape:window-height="582"
     inkscape:window-x="17"
     inkscape:window-y="221"
     inkscape:window-maximized="0" />
  <metadata
     id="metadata7">
    <rdf:RDF>
      <cc:Work
         rdf:about="">
        <dc:format>image/svg+xml</dc:format>
        <dc:type
           rdf:resource="http://purl.org/dc/dcmitype/StillImage" />
        <dc:title></dc:title>
      </cc:Work>
    </rdf:RDF>
  </metadata>
  <g
     inkscape:label="Layer 1"
     inkscape:groupmode="layer"
     id="layer1"
     transform="translate(0,-796.36215)">
    <g
       style="display:inline"
       id="g4356"
       transform="matrix(0.32000002,0,0,0.32000002,-288.18571,715.85037)"
       inkscape:export-filename="C:\Users\Madnester\Desktop\j32.png"
       inkscape:export-xdpi="10.591404"
       inkscape:export-ydpi="10.591404">
      <path
         sodipodi:nodetypes="ccsccscccccccsccscccccccccccccscccscccccccscccccccccccsc"
         inkscape:connector-curvature="0"
         id="path4050"
         d="m 1331.4908,264.09937 c -84.2024,1.06975 -157.5353,20.90992 -220.0411,59.54547 -62.506,38.63673 -111.0623,89.65154 -145.67282,153.02658 -34.61091,63.37599 -52.18001,132.68946 -52.6965,207.97614 1.67053,61.39455 13.70239,114.71702 36.07598,159.95357 17.62301,40.92243 42.98258,75.85726 76.12804,104.80408 67.6377,59.07039 149.5913,88.97659 245.8844,89.68459 39.4716,0.2019 75.9586,-2.8751 109.4338,-9.2249 33.4742,-6.3501 67.0263,-17.2084 100.6349,-32.53696 l -22.747,-62.8424 -19.3905,-9.52472 c -26.2793,10.85108 -54.1334,21.22792 -78.1485,26.4758 -28.4555,6.08573 -57.5605,9.13831 -87.306,9.15834 -84.1596,-0.41636 -152.1672,-24.8177 -204.0401,-73.16639 -12.1487,-11.32338 -22.9095,-23.82043 -32.2956,-37.49899 -24.9929,-43.0249 -38.0193,-96.12339 -39.07424,-159.32076 2.95414,-111.99268 37.28614,-200.35134 103.01394,-265.02395 65.7274,-64.67133 145.1106,-97.67418 238.1606,-99.00938 28.6645,0.47219 55.0501,3.31887 79.1913,8.49227 39.772,11.83056 72.394,31.17978 97.8323,58.08014 43.9943,46.52551 66.0361,106.89677 66.1231,181.13419 -1.3999,65.83304 -13.5993,115.65834 -36.5647,149.49635 -22.9669,33.83836 -48.3192,50.61808 -76.063,50.32064 -1.9848,-0.0639 -3.8769,-0.26215 -5.703,-0.53283 -5.7182,-8.65864 -8.6042,-21.43074 -8.6036,-38.33164 -6e-4,-14.72197 2.1548,-32.83317 6.4202,-54.3502 l 39.4325,-205.77828 c -8.5112,-3.95435 -18.3441,-7.51973 -29.5255,-10.69015 -13.6425,-5.78031 -30.4247,-10.62941 -50.3175,-14.55329 -22.5148,-4.43998 -45.6747,-6.73485 -69.4799,-6.89375 -82.9755,2.45856 -147.9385,28.95142 -194.8823,79.46056 -46.9444,50.5098 -70.8243,110.27204 -71.6635,179.33584 0.6457,42.67942 12.0043,75.81215 34.0883,99.34229 0.9523,1.01465 1.9227,1.99254 2.9005,2.96402 3.047,4.27757 6.3732,8.33165 9.972,12.12222 22.7905,24.00424 52.6365,36.15622 89.5549,36.49991 30.5643,-0.0203 58.736,-7.50172 84.5033,-22.44623 20.4811,-11.87902 38.7771,-28.39904 54.8799,-49.55461 4.4204,13.99976 11.5484,25.39914 21.3784,34.20206 5.3349,4.77771 11.272,8.76734 17.761,11.98902 1.1387,1.15595 2.3329,2.28431 3.5521,3.36353 16.8814,14.94451 39.3493,22.4262 67.4267,22.44623 63.5947,-0.60638 115.2542,-24.87238 154.9937,-72.80011 39.7378,-47.92743 60.2403,-115.87787 61.4628,-203.8466 -1.178,-88.83768 -31.6296,-161.8295 -91.3145,-218.99944 -44.8481,-42.95629 -102.2302,-70.33782 -172.1351,-82.12477 -28.6898,-6.57789 -59.7292,-10.18609 -93.1397,-10.82349 z m 19.6512,261.49385 c 6.8541,4.3e-4 13.1019,0.29936 18.7388,0.93248 l -21.8672,115.29454 c -5.9198,31.59846 -18.6179,59.05236 -38.0966,82.3246 -19.4798,23.27254 -41.2117,35.48344 -65.2107,36.63311 -11.2598,-0.11967 -20.8478,-2.38757 -28.8087,-6.76052 -8.588,-11.86605 -12.9293,-27.822 -12.9704,-47.88948 1.177,-50.41484 15.8926,-92.77275 44.1255,-127.05027 28.2321,-34.27719 62.9285,-52.0886 104.0893,-53.48446 z"
         style="font-size:530.46209717px;font-style:normal;font-variant:normal;font-weight:bold;font-stretch:normal;line-height:125%;letter-spacing:0px;word-spacing:0px;fill:url(#linearGradient4361);fill-opacity:1;stroke:#a7a7a7;stroke-width:25.00022316;stroke-miterlimit:4;stroke-opacity:1;stroke-dasharray:none;font-family:Adobe Gothic Std B;-inkscape-font-specification:Adobe Gothic Std B Bold" />
      <path
         style="font-size:530.46209717px;font-style:normal;font-variant:normal;font-weight:bold;font-stretch:normal;line-height:125%;letter-spacing:0px;word-spacing:0px;fill:url(#linearGradient4363);fill-opacity:1;stroke:none;font-family:Adobe Gothic Std B;-inkscape-font-specification:Adobe Gothic Std B Bold"
         inkscape:connector-curvature="0"
         id="path4051"
         d="m 1376.7344,763.39816 c 1.4211,29.62631 10.5727,51.9116 27.4548,66.8561 16.8814,14.94451 39.3608,22.42694 67.4382,22.44697 63.5946,-0.60638 115.2616,-24.87365 155.0012,-72.80137 39.7378,-47.92753 60.2182,-115.87564 61.4406,-203.84436 -1.1781,-88.83769 -31.6099,-161.84145 -91.2946,-219.01138 -59.6867,-57.16867 -141.5629,-86.73422 -245.6294,-88.69649 -86.8968,1.09118 -162.5982,21.34376 -227.104,60.7579 -64.5062,39.41521 -114.6183,91.44864 -150.33637,156.10079 -35.71832,64.65301 -53.84397,135.38118 -54.37697,212.18509 2.99871,108.93949 38.31699,192.94447 105.95524,252.01454 67.6377,59.07035 149.6029,88.95955 245.896,89.66755 39.4716,0.202 75.9451,-2.8718 109.4203,-9.2217 33.4741,-6.3501 67.0155,-17.1894 100.624,-32.518 l -22.7354,-62.86489 -19.7374,-9.72443 c 0,0 -33.3386,39.75465 -57.2184,44.80335 -29.3657,6.20861 -59.3975,9.32256 -90.0951,9.34282 -86.8525,-0.42469 -157.0451,-25.29857 -210.5777,-74.62149 -53.533,-49.32294 -81.0769,-120.5472 -82.63156,-213.67258 2.95426,-111.99269 37.29526,-200.32503 103.02306,-264.99765 65.7275,-64.67133 145.116,-97.67481 238.1659,-99.01002 89.6503,1.47685 157.1774,25.94617 202.5811,73.40819 45.402,47.46309 68.1479,109.06118 68.2376,184.79462 -1.4446,67.1596 -14.0169,117.99935 -37.7175,152.51919 -23.7017,34.52027 -49.8682,51.62844 -78.4998,51.32506 -12.7954,-0.40423 -22.3914,-4.93415 -28.7879,-13.5896 -6.3978,-8.65511 -9.5967,-21.92115 -9.5961,-39.7981 -6e-4,-14.722 2.1321,-32.84139 6.3974,-54.35843 l 39.4499,-205.78595 c -14.9719,-6.95598 -34.075,-12.69918 -57.309,-17.22956 -23.2353,-4.52938 -47.1362,-6.87529 -71.7029,-7.03749 -85.631,2.50811 -152.6693,29.52549 -201.1151,81.05237 -48.4464,51.52765 -73.1026,112.51905 -73.9686,182.97452 0.6661,43.53955 12.3944,77.31139 35.1848,101.31564 22.7905,24.00424 52.6442,36.17827 89.5625,36.52186 30.5642,-0.0202 58.7302,-7.50246 84.4975,-22.44697 25.7663,-14.9445 48.0681,-37.22979 66.905,-66.8561 z m -8.5298,-109.6877 c -6.1092,32.23522 -19.2145,60.22334 -39.3167,83.96449 -20.1031,23.74147 -42.5381,36.19863 -67.3049,37.37142 -19.2367,-0.20205 -33.8083,-6.3497 -43.7147,-18.44305 -9.9073,-12.09292 -14.883,-28.91827 -14.9272,-50.47569 1.177,-50.41484 15.8819,-92.76113 44.1148,-127.03865 28.232,-34.27708 62.9285,-52.11345 104.0893,-53.50929 8.4849,4.3e-4 16.0372,0.48586 22.6571,1.45605 6.6188,0.97116 12.5719,2.42722 17.8591,4.36816 z"
         sodipodi:nodetypes="cccccccsscscccccscscscccccccccccscscccccscccscccc" />
      <path
         sodipodi:nodetypes="cccccccccccccccccccccccccccccccccccccccccc"
         inkscape:connector-curvature="0"
         id="path3980"
         d="m 1326.5047,268.56206 c -89.1539,2.12967 -178.7341,31.24402 -248.1982,88.88522 -85.51963,68.84894 -140.48715,175.40436 -148.95374,286.20081 -6.22944,77.11968 8.58484,157.66267 50.49548,222.56856 49.76456,74.124 132.14086,121.85663 218.35776,135.42475 58.3056,9.16 118.2482,5.9078 175.9113,-5.74544 27.1815,-5.88783 53.8227,-14.63993 79.2892,-26.10943 -4.3145,-12.64985 -10.0627,-29.88303 -14.5582,-42.46596 -75.4262,34.06716 -160.1422,45.51161 -240.6932,28.77589 -71.4456,-16.08191 -139.2155,-60.12049 -174.4749,-127.01902 -37.71887,-70.26868 -42.88099,-154.80874 -28.76352,-232.64348 12.06562,-67.95388 41.45892,-133.66116 89.29712,-183.03742 60.6638,-64.16032 146.2569,-103.53046 233.9155,-104.63802 55.0414,-1.28565 111.2421,8.6467 160.0775,34.96798 54.6912,30.62029 94.5878,85.70307 109.499,147.46495 14.5583,58.0163 11.5436,119.9924 -3.5848,177.53747 -11.5467,40.16204 -34.3869,79.80264 -71.2069,100.37464 -19.2667,10.29255 -45.5547,14.40547 -63.9808,0.1118 -14.6892,-11.81617 -18.2379,-31.87919 -18.1638,-49.99924 -0.4737,-36.70578 10.4271,-72.15163 15.9526,-108.13958 9.061,-47.77673 18.1219,-95.55355 27.1831,-143.33029 -61.6734,-23.53077 -130.8844,-26.57266 -194.4264,-9.22483 -45.2667,12.37928 -87.8226,37.8722 -118.0816,74.49274 -47.0145,54.68945 -71.216,131.37687 -57.0193,203.41936 7.3542,33.86309 29.1659,65.51526 61.6095,78.37548 46.8587,19.54978 102.822,7.39633 142.2579,-23.72738 18.3955,-14.3166 33.2464,-32.98515 45.6994,-52.51671 6.7063,-6.71343 19.2758,0.76111 17.2723,10.12407 0.4489,29.72179 17.9618,60.63343 46.8955,69.40308 32.5898,11.37179 68.2568,5.2039 100.3091,-4.62913 59.3535,-21.2001 103.4701,-75.45325 120.8563,-136.39359 16.7184,-54.85718 20.5778,-114.00366 11.7744,-170.75883 -11.834,-68.77328 -49.4564,-132.46546 -104.6693,-173.74052 -62.7026,-48.19992 -142.5695,-65.06702 -219.8783,-64.00793 z m 11.1455,234.88483 c 16.723,-0.14183 33.5443,2.04475 49.0139,8.75869 -11.0532,51.56697 -17.4903,104.21667 -31.5786,155.02466 -13.5467,39.35553 -39.963,76.88233 -78.7677,92.88166 -25.3247,9.59643 -58.034,5.36714 -75.1506,-17.61727 -17.7137,-23.48834 -17.0887,-55.518 -13.1097,-83.53693 7.8159,-57.67081 39.9938,-113.96144 91.6338,-140.80823 17.9579,-9.15321 37.8467,-14.3104 57.9589,-14.70258 z"
         style="font-size:530.46209717px;font-style:normal;font-variant:normal;font-weight:bold;font-stretch:normal;line-height:125%;letter-spacing:0px;word-spacing:0px;fill:url(#radialGradient3428);fill-opacity:1;stroke:none;font-family:Adobe Gothic Std B;-inkscape-font-specification:Adobe Gothic Std B Bold" />
    </g>
  </g>
</svg>
