<?xml version="1.0" encoding="utf8" standalone="no"?>
<svg height="16" id="svg2" inkscape:version="0.48.0 r9654" sodipodi:docname="preferences-desktop-keyboard-shortcuts.svg" width="16" xmlns="http://www.w3.org/2000/svg" xmlns:cc="http://creativecommons.org/ns#" xmlns:dc="http://purl.org/dc/elements/1.1/" xmlns:inkscape="http://www.inkscape.org/namespaces/inkscape" xmlns:rdf="http://www.w3.org/1999/02/22-rdf-syntax-ns#" xmlns:sodipodi="http://sodipodi.sourceforge.net/DTD/sodipodi-0.dtd" xmlns:svg="http://www.w3.org/2000/svg" xmlns:xlink="http://www.w3.org/1999/xlink">
<defs id="defs4">
<linearGradient id="linearGradient2867">
<stop id="stop2869" offset="0" style="stop-color:#fff"/>
<stop id="stop2871" offset="1" style="stop-opacity:0;stop-color:#fff"/>
</linearGradient>
<linearGradient gradientTransform="matrix(1.71428,0,0,1.83332,-56.78546,13.75013)" gradientUnits="userSpaceOnUse" id="linearGradient5614" x1="37.520855" x2="37.520855" xlink:href="#linearGradient2867" y1="11.523975" y2="4.0999546"/>
<linearGradient gradientTransform="matrix(1.68749,0,0,1.74999,-2.09368,14.37513)" gradientUnits="userSpaceOnUse" id="linearGradient5617" x1="5.9419909" x2="10.656054" xlink:href="#linearGradient2867" y1="7.9213729" y2="14.624064"/>
<linearGradient gradientTransform="matrix(1.99993,0,0,1.99993,-43.49717,-7.49926)" gradientUnits="userSpaceOnUse" id="linearGradient5657" x1="37.520855" x2="37.520855" xlink:href="#linearGradient2867" y1="11.523975" y2="4.0999546"/>
<linearGradient gradientTransform="matrix(1.87497,0,0,1.87497,-38.93632,-6.56217)" gradientUnits="userSpaceOnUse" id="linearGradient5660" x1="38.244816" x2="40.93327" xlink:href="#linearGradient2867" y1="7.2332683" y2="11.500001"/>
<linearGradient gradientTransform="matrix(2.24996,0,0,1.87496,-76.62347,-6.56207)" gradientUnits="userSpaceOnUse" id="linearGradient6296" x1="38.244816" x2="40.93327" xlink:href="#linearGradient2867" y1="7.2332683" y2="11.500001"/>
<linearGradient gradientTransform="matrix(2.49999,0,0,1.99999,-86.24976,-7.49993)" gradientUnits="userSpaceOnUse" id="linearGradient6300" x1="37.520855" x2="37.520855" xlink:href="#linearGradient2867" y1="11.523975" y2="4.0999546"/>
<radialGradient cx="15.080146" cy="24.270937" fx="15.080146" fy="24.270937" gradientTransform="matrix(10.16324,0,0,2.38517,-134.75753,-21.43648)" gradientUnits="userSpaceOnUse" id="radialGradient5612" r="4.5000043" xlink:href="#linearGradient2867"/>
<radialGradient cx="13.892615" cy="24.270937" fx="13.892615" fy="24.270937" gradientTransform="matrix(4.39124,0,0,2.83733,-21.88091,-51.59688)" gradientUnits="userSpaceOnUse" id="radialGradient5655" r="4.5000043" xlink:href="#linearGradient2867"/>
<radialGradient cx="13.892615" cy="24.270937" fx="13.892615" fy="24.270937" gradientTransform="matrix(5.48923,0,0,2.83742,-59.22855,-51.59895)" gradientUnits="userSpaceOnUse" id="radialGradient6298" r="4.5000043" xlink:href="#linearGradient2867"/>
</defs>
<sodipodi:namedview id="namedview44" inkscape:current-layer="svg2" inkscape:cx="24" inkscape:cy="24" inkscape:pageopacity="0" inkscape:pageshadow="2" inkscape:window-height="692" inkscape:window-maximized="1" inkscape:window-width="1366" inkscape:window-x="0" inkscape:window-y="24" inkscape:zoom="6.1041667"/>
<g id="layer1" transform="matrix(.32609,0,0,.32609,-.15217,.32609)">
<path d="m 34,34.5 6,0 c 0.707107,0 1.5,-0.792893 1.5,-1.5 l 0,-9" id="path6595" inkscape:connector-curvature="0" style="stroke:#f8cd70;opacity:0.5;fill:none;stroke-width:3"/>
<path d="m 29,4 c -1.662,0 -3,1.338 -3,3 l 0,16 c 0,0.356638 0.0743,0.683219 0.1875,1 L 5,24 c -1.662,0 -3,1.338 -3,3 l 0,15 c 0,1.662 1.338,3 3,3 l 28,0 c 1.662,0 3,-1.338 3,-3 l 0,-15 c 0,-0.356638 -0.0743,-0.683219 -0.1875,-1 L 45,26 c 1.662,0 3,-1.338 3,-3 L 48,7 C 48,5.338 46.662,4 45,4 L 29,4 z" id="rect6302" inkscape:connector-curvature="0" style="opacity:0.5;fill:#f8cd70"/>
<rect height="19" id="rect1933" rx="3" style="fill:#deaa39;stroke-width:4.47177839" width="32" x="3" y="25"/>
<rect height="20" id="rect6286" rx="3" style="fill:#deaa39;stroke-width:1.62657523" width="20" x="27" y="4.9999981"/>
<rect height="15.000211" id="rect2969" rx="3" style="opacity:0.1;stroke-width:0.99978888" width="30" x="4" y="28.999788"/>
<path d="m 34,34.5 6,0 c 0.707107,0 1.5,-0.792893 1.5,-1.5 l 0,-9" id="path6593" inkscape:connector-curvature="0" style="stroke:#deaa39;fill:none"/>
<rect height="16" id="rect2985" rx="3" style="opacity:0.1;stroke-width:1.62657523" width="18" x="28" y="8.9999981"/>
<rect height="15.999943" id="rect4555" rx="2" style="stroke-linejoin:round;fill:#3c3c3c;stroke-width:1.0000571;stroke-linecap:square;stroke:#323232;stroke-dashoffset:1.20000057" width="28.999943" x="4.5000286" y="26.500027"/>
<rect height="16.999887" id="rect5557" rx="2" style="stroke-linejoin:round;fill:#3c3c3c;stroke-width:1.00011349;stroke-linecap:square;stroke:#323232;stroke-dashoffset:1.20000057" width="16.999886" x="28.500057" y="6.5000539"/>
<rect height="14.999768" id="rect5559" rx="1" style="stroke-linejoin:round;opacity:0.2;fill:none;stroke-width:1.00023174;stroke-linecap:square;stroke:url(#linearGradient5660);stroke-dashoffset:1.20000057" width="14.999767" x="29.500116" y="7.5001159"/>
<rect height="11.999579" id="rect5561" rx="1.0722798" ry="0.91909647" style="stroke-linejoin:round;opacity:0.3;fill:url(#radialGradient5655);stroke-width:1.00042009;stroke-linecap:square;stroke:url(#linearGradient5657);stroke-dashoffset:1.20000057" width="11.99958" x="31.50021" y="7.5002108"/>
<rect height="13.999907" id="rect2926" rx="1" style="stroke-linejoin:round;opacity:0.2;fill:none;stroke-width:1.00009286;stroke-linecap:square;stroke:url(#linearGradient5617);stroke-dashoffset:1.20000057" width="26.999907" x="5.5000463" y="27.500046"/>
<rect height="10.999922" id="rect2930" rx="1.0434811" ry="1.0000054" style="stroke-linejoin:round;opacity:0.3;fill:url(#radialGradient5612);stroke-width:1.00007856;stroke-linecap:square;stroke:url(#linearGradient5614);stroke-dashoffset:1.20000057" width="23.999922" x="7.5000391" y="27.500038"/>
<rect height="16" id="rect6288" rx="3" style="opacity:0.1;stroke-width:1.62657523" width="21" x="4" y="9"/>
<rect height="16.999786" id="rect6290" rx="2" ry="1.9999883" style="stroke-linejoin:round;fill:#3c3c3c;stroke-width:1.0002141;stroke-linecap:square;stroke:#323232;stroke-dashoffset:1.20000057" width="19.999784" x="4.5001068" y="6.5001068"/>
<rect height="14.999701" id="rect6292" rx="1.1999984" ry="0.99999559" style="stroke-linejoin:round;opacity:0.2;fill:none;stroke-width:1.0002991;stroke-linecap:square;stroke:url(#linearGradient6296);stroke-dashoffset:1.20000057" width="17.999701" x="5.5001497" y="7.5001497"/>
<rect height="11.999963" id="rect6294" rx="1.3403933" ry="0.91912591" style="stroke-linejoin:round;opacity:0.3;fill:url(#radialGradient6298);stroke-width:1.00003743;stroke-linecap:square;stroke:url(#linearGradient6300);stroke-dashoffset:1.20000057" width="14.999963" x="7.5000186" y="7.5000186"/>
</g>
</svg>
