<?xml version="1.0" encoding="UTF-8" standalone="no"?>
<!-- Created with Inkscape (http://www.inkscape.org/) -->

<svg
   xmlns:dc="http://purl.org/dc/elements/1.1/"
   xmlns:cc="http://creativecommons.org/ns#"
   xmlns:rdf="http://www.w3.org/1999/02/22-rdf-syntax-ns#"
   xmlns:svg="http://www.w3.org/2000/svg"
   xmlns="http://www.w3.org/2000/svg"
   xmlns:sodipodi="http://sodipodi.sourceforge.net/DTD/sodipodi-0.dtd"
   xmlns:inkscape="http://www.inkscape.org/namespaces/inkscape"
   inkscape:version="0.48.3.1 r9886"
   version="1.1"
   id="svg2"
   height="32"
   width="32"
   sodipodi:docname="qutim-online.svg">
  <defs
     id="defs4" />
  <sodipodi:namedview
     id="base"
     pagecolor="#ffffff"
     bordercolor="#666666"
     borderopacity="1.0"
     inkscape:pageopacity="0.0"
     inkscape:pageshadow="2"
     inkscape:zoom="19.96875"
     inkscape:cx="16"
     inkscape:cy="16"
     inkscape:document-units="px"
     inkscape:current-layer="layer1"
     showgrid="false"
     inkscape:window-width="1440"
     inkscape:window-height="848"
     inkscape:window-x="-8"
     inkscape:window-y="-8"
     inkscape:window-maximized="1"
     inkscape:snap-bbox="false"
     inkscape:snap-global="true"
     showguides="false"
     inkscape:guide-bbox="true">
    <sodipodi:guide
       orientation="1,0"
       position="0,810.14234"
       id="guide3219" />
    <sodipodi:guide
       orientation="1,0"
       position="1000.051,496.99505"
       id="guide3221" />
    <sodipodi:guide
       orientation="0,1"
       position="125.25891,1000.051"
       id="guide3223" />
    <sodipodi:guide
       orientation="0,1"
       position="-389.91888,499.01535"
       id="guide3224" />
    <sodipodi:guide
       orientation="1,0"
       position="499.01535,349.51278"
       id="guide3226" />
    <sodipodi:guide
       orientation="1,0"
       position="-499.01535,256.57874"
       id="guide3228" />
    <sodipodi:guide
       orientation="0,1"
       position="-909.13728,0"
       id="guide3230" />
    <inkscape:grid
       type="xygrid"
       id="grid4049"
       empspacing="5"
       visible="true"
       enabled="true"
       snapvisiblegridlinesonly="true" />
  </sodipodi:namedview>
  <metadata
     id="metadata7">
    <rdf:RDF>
      <cc:Work
         rdf:about="">
        <dc:format>image/svg+xml</dc:format>
        <dc:type
           rdf:resource="http://purl.org/dc/dcmitype/StillImage" />
        <dc:title />
      </cc:Work>
    </rdf:RDF>
  </metadata>
  <g
     inkscape:label="Layer 1"
     inkscape:groupmode="layer"
     id="layer1"
     transform="translate(0,-1020.3622)">
    <path
       style="opacity:0.3;fill:#000000;fill-opacity:1;stroke:none"
       d="m 15.312915,1021.6326 c -0.350517,0.7592 -0.232646,1.847 -0.01576,3.0127 l -13.7730672,6.2534 c -0.57864189,0.2628 -0.83337088,0.9409 -0.57059401,1.5195 l 8.75120931,19.2699 c 0.2627779,0.5786 0.9408399,0.8334 1.5194819,0.5706 l 19.270945,-8.7512 c 0.57864,-0.2628 0.833373,-0.9398 0.570594,-1.5184 l -8.75226,-19.272 c -0.197084,-0.434 -0.626988,-0.6858 -1.073936,-0.6736 -0.148982,0 -0.299835,0.039 -0.444496,0.1051 l -4.426044,2.0091 c -0.497865,-0.9237 -0.917206,-1.7997 -1.056071,-2.5251 z m 4.879997,3.4435 c 0.357558,-0.01 0.701902,0.1919 0.859569,0.5391 l 7.001598,15.4166 c 0.210221,0.4629 0.0069,1.0045 -0.456055,1.2147 l -7.108782,3.2281 c 1.61452,-1.1236 2.785419,-2.7535 2.902359,-4.4817 0.214023,-3.163 -1.711588,-4.254 -2.246648,-5.4538 -0.535058,-1.1997 0.160216,-3.9268 1.123324,-5.4537 -1.498169,1.0361 -1.658683,1.0364 -2.62179,3.3269 -0.963107,2.2904 0.435113,5.2057 -0.856417,5.8898 -1.640225,0.8688 -2.970513,-1.0787 -2.461014,-3.0001 0.535057,-2.0177 2.177078,-4.1036 2.354882,-6.6527 0.06499,-0.9317 -0.494978,-2.1587 -1.179017,-3.432 l 2.332815,-1.0592 c 0.115728,-0.053 0.23599,-0.079 0.355176,-0.082 z m -4.439704,1.9367 c 0.14197,0.8974 0.195308,1.7417 -0.01261,2.4179 -1.411652,4.591 -2.984911,5.0857 -2.94229,2.1269 0.01311,-0.91 -0.527376,-1.9581 -1.030852,-2.7342 l 3.985752,-1.8106 z m -4.236897,1.9251 c 0.322675,1.1622 0.415004,3.1534 -0.965702,6.0559 -0.8560951,1.7996 -2.1401742,3.1627 -1.9261483,5.6712 0.3533741,4.1419 3.7455183,6.3259 7.2769123,6.3259 0.572543,0 1.150253,-0.075 1.718086,-0.2133 l -5.439032,2.4705 c -0.462913,0.2102 -1.004523,0.01 -1.214745,-0.4571 l -7.0015976,-15.4166 c -0.2102217,-0.4629 -0.00581,-1.0045 0.4571056,-1.2147 l 7.095121,-3.2218 z"
       id="path4051"
       inkscape:connector-curvature="0" />
    <path
       style="fill:#dfdbd2;fill-opacity:1;fill-rule:nonzero;stroke:none"
       d="M 21.25 0 C 21.101017 0 20.925911 0.02755 20.78125 0.09375 L 16.15625 2.1875 C 15.757343 1.4172045 15.430463 0.67867873 15.3125 0.0625 C 15.007831 0.72237706 15.058167 1.6333274 15.21875 2.625 L 1.53125 8.84375 C 0.95260813 9.10655 0.70597314 9.7964 0.96875 10.375 L 9.71875 29.65625 C 9.9815276 30.23485 10.640108 30.48155 11.21875 30.21875 L 30.5 21.46875 C 31.07864 21.20595 31.32528 20.5162 31.0625 19.9375 L 22.3125 0.6875 C 22.115416 0.2536 21.696948 -0.0122 21.25 0 z M 20.1875 3.03125 C 20.545058 3.02125 20.904833 3.2153 21.0625 3.5625 L 28.0625 19 C 28.272722 19.4629 28.05662 19.9772 27.59375 20.1875 L 21.6875 22.875 C 22.649353 21.880085 23.321384 20.660462 23.40625 19.40625 C 23.620272 16.24325 21.69131 15.16845 21.15625 13.96875 C 20.621192 12.76895 21.318142 10.0269 22.28125 8.5 C 20.783082 9.5361 20.619357 9.55325 19.65625 11.84375 C 18.693142 14.13415 20.072779 17.03475 18.78125 17.71875 C 17.141024 18.58755 15.834251 16.64005 16.34375 14.71875 C 16.878808 12.70095 18.509697 10.6116 18.6875 8.0625 C 18.758724 7.0414054 18.083397 5.6838159 17.3125 4.28125 L 19.84375 3.125 C 19.959478 3.072 20.068314 3.03425 20.1875 3.03125 z M 15.65625 5.03125 C 15.845655 6.0779892 15.988997 7.0664716 15.75 7.84375 C 14.338349 12.43475 12.769879 12.9588 12.8125 10 C 12.827953 8.9273211 12.087013 7.6909599 11.53125 6.90625 L 15.65625 5.03125 z M 11.375 6.96875 C 11.783914 8.0392547 12.123849 10.124079 10.5625 13.40625 C 9.7064046 15.20585 8.4109741 16.58515 8.625 19.09375 C 8.9783744 23.23565 12.374856 25.40625 15.90625 25.40625 C 16.000627 25.40625 16.092889 25.410253 16.1875 25.40625 L 12.1875 27.21875 C 11.724586 27.42895 11.178971 27.2167 10.96875 26.75 L 3.96875 11.34375 C 3.7585282 10.88085 3.9433396 10.3352 4.40625 10.125 L 11.375 6.96875 z "
       transform="translate(0,1020.3622)"
       id="path4021" />
  </g>
</svg>
