<?xml version="1.0" encoding="UTF-8" standalone="no"?>
<!-- Created with Inkscape (http://www.inkscape.org/) -->

<svg
   xmlns:dc="http://purl.org/dc/elements/1.1/"
   xmlns:cc="http://creativecommons.org/ns#"
   xmlns:rdf="http://www.w3.org/1999/02/22-rdf-syntax-ns#"
   xmlns:svg="http://www.w3.org/2000/svg"
   xmlns="http://www.w3.org/2000/svg"
   xmlns:xlink="http://www.w3.org/1999/xlink"
   xmlns:sodipodi="http://sodipodi.sourceforge.net/DTD/sodipodi-0.dtd"
   xmlns:inkscape="http://www.inkscape.org/namespaces/inkscape"
   inkscape:version="0.48.3.1 r9886"
   version="1.1"
   id="svg2"
   height="1000"
   width="1000"
   sodipodi:docname="qutim-message-new 02.svg">
  <defs
     id="defs4">
    <linearGradient
       id="linearGradient4414">
      <stop
         id="stop4416"
         offset="0"
         style="stop-color:#c80000;stop-opacity:1;" />
      <stop
         id="stop4418"
         offset="1"
         style="stop-color:#ff5555;stop-opacity:1;" />
    </linearGradient>
    <linearGradient
       id="linearGradient4094">
      <stop
         style="stop-color:#aaaaaa;stop-opacity:1;"
         offset="0"
         id="stop4096" />
      <stop
         style="stop-color:#f0f0f0;stop-opacity:1;"
         offset="1"
         id="stop4098" />
    </linearGradient>
    <linearGradient
       inkscape:collect="always"
       xlink:href="#linearGradient4094"
       id="linearGradient4369"
       gradientUnits="userSpaceOnUse"
       gradientTransform="matrix(1.0490757,0,0,1.0489412,-24.240589,-25.304054)"
       x1="623.2478"
       y1="993.46124"
       x2="623.2478"
       y2="98.363487" />
    <linearGradient
       inkscape:collect="always"
       xlink:href="#linearGradient4414"
       id="linearGradient3261"
       gradientUnits="userSpaceOnUse"
       gradientTransform="matrix(1.2103826,0,0,1.210382,-106.55464,-12.377908)"
       x1="499.01535"
       y1="852.69623"
       x2="499.01535"
       y2="437.74796" />
  </defs>
  <sodipodi:namedview
     id="base"
     pagecolor="#ffffff"
     bordercolor="#666666"
     borderopacity="1.0"
     inkscape:pageopacity="0.0"
     inkscape:pageshadow="2"
     inkscape:zoom="0.24748737"
     inkscape:cx="-285.06405"
     inkscape:cy="517.61971"
     inkscape:document-units="px"
     inkscape:current-layer="layer1"
     showgrid="false"
     inkscape:window-width="1440"
     inkscape:window-height="848"
     inkscape:window-x="-8"
     inkscape:window-y="-8"
     inkscape:window-maximized="1"
     inkscape:snap-bbox="false"
     inkscape:snap-global="true"
     showguides="false"
     inkscape:guide-bbox="true">
    <sodipodi:guide
       orientation="1,0"
       position="0,810.14234"
       id="guide3219" />
    <sodipodi:guide
       orientation="1,0"
       position="1000.051,496.99505"
       id="guide3221" />
    <sodipodi:guide
       orientation="0,1"
       position="125.25891,1000.051"
       id="guide3223" />
    <sodipodi:guide
       orientation="0,1"
       position="-389.91888,499.01535"
       id="guide3224" />
    <sodipodi:guide
       orientation="1,0"
       position="499.01535,349.51278"
       id="guide3226" />
    <sodipodi:guide
       orientation="1,0"
       position="-499.01535,256.57874"
       id="guide3228" />
    <sodipodi:guide
       orientation="0,1"
       position="-909.13728,0"
       id="guide3230" />
  </sodipodi:namedview>
  <metadata
     id="metadata7">
    <rdf:RDF>
      <cc:Work
         rdf:about="">
        <dc:format>image/svg+xml</dc:format>
        <dc:type
           rdf:resource="http://purl.org/dc/dcmitype/StillImage" />
        <dc:title />
      </cc:Work>
    </rdf:RDF>
  </metadata>
  <g
     inkscape:label="Layer 1"
     inkscape:groupmode="layer"
     id="layer1"
     transform="translate(0,-52.362183)">
    <path
       style="opacity:0.07999998;fill:#000000;fill-opacity:1;fill-rule:nonzero;stroke:none"
       d="M 663.69075,52.383148 C 625.80611,56.797575 594.65038,81.343263 559.36623,93.90112 381.59953,175.13225 202.95335,254.4466 25.852766,337.13792 -2.7753453,357.16025 -7.9553563,401.03198 11.952514,428.78917 103.38238,627.83201 192.03394,828.14691 284.71219,1026.6202 c 20.07597,28.8264 64.38927,33.642 92.41701,13.4395 198.75972,-91.19311 398.70974,-179.87024 596.9411,-272.16472 28.5359,-19.90636 33.9258,-63.68987 14.14555,-91.49012 C 896.96218,477.7139 808.18699,277.85118 716.04624,79.59006 704.45637,62.70044 684.17018,51.819112 663.69075,52.383148 z M 633.03814,203.66014 c 6.73612,9.93376 8.62192,22.26304 14.96201,32.46959 67.10875,149.59695 137.19519,297.88339 202.16391,448.40443 -10.21548,7.65961 -23.38599,9.34079 -34.18097,16.03623 C 666.5606,767.73284 518.24585,837.5607 368.01535,902.61561 359.85431,892.15657 358.46267,878.37946 351.37637,867.32925 284.39714,718.32074 214.67821,570.50737 149.87317,420.56153 c 9.42639,-7.7487 22.20447,-8.83778 32.34239,-15.41955 C 332.25442,337.71991 481.13233,267.6698 632.05463,202.28341 l 0.60972,0.85355 0.37379,0.52318 z"
       id="path4054-4"
       inkscape:connector-curvature="0" />
    <path
       style="opacity:0.1;fill:#000000;fill-opacity:1;fill-rule:nonzero;stroke:none"
       d="M 662.01884,60.840237 C 630.35312,65.314727 604.10724,85.61914 574.47533,96.171182 393.35981,178.9113 211.47629,259.97131 30.868659,343.82492 5.9435337,361.00155 1.5271127,399.29052 18.705937,423.34778 110,622.57341 199.03096,822.83644 291.40005,1021.5721 c 17.18457,24.9561 55.32934,29.2102 79.36914,12.1612 C 569.8021,942.70773 769.64005,853.42922 968.31622,761.63134 993.90085,744.76055 998.65685,706.24686 981.36415,681.71513 890.45277,483.03542 801.259,283.57528 709.68623,85.195345 699.50883,69.674001 680.69775,59.624609 662.01884,60.840237 z M 632.77587,193.30185 c 11.2979,3.83496 11.68365,17.65149 17.02481,26.56254 69.64866,154.7954 141.57843,308.59995 209.70667,464.04697 -2.08347,11.25866 -15.41135,12.58053 -23.74121,16.91862 -156.01928,70.13635 -310.96341,142.72893 -467.71801,211.16054 -11.41079,-3.22976 -12.50006,-16.87729 -17.3472,-25.80319 -69.79534,-155.24449 -142.082,-309.39777 -210.20387,-465.36356 2.36649,-11.09697 15.3549,-12.39242 23.83369,-16.75029 155.98498,-70.1367 310.86536,-142.79771 467.65831,-211.06665 l 0.78681,0.29502 z"
       id="path4024-2"
       inkscape:connector-curvature="0" />
    <path
       style="opacity:0.15;fill:#000000;fill-opacity:1;fill-rule:nonzero;stroke:none"
       d="M 661.82214,69.133429 C 638.41548,72.27505 619.08206,87.096052 597.21924,95.008564 410.43854,180.20109 223.09316,264.18988 36.638575,350.08578 15.549112,363.85726 10.645417,395.3935 24.550484,415.87787 115.96067,616.0074 205.77465,816.9074 298.13829,1016.582 c 14.22142,20.7884 45.7856,24.8899 66.17631,10.8487 199.57949,-91.09402 399.80659,-180.80153 599.05135,-272.61747 21.1288,-13.69999 25.9614,-45.2712 12.05641,-65.79258 C 884.57511,489.61354 794.59705,289.80863 703.22779,90.636721 694.54901,76.759033 678.21542,68.176292 661.82214,69.133429 z M 632.05463,184.6153 c 12.07454,0.34762 18.15351,13.14768 21.38153,23.04883 71.32539,157.69879 143.77677,314.90501 214.26709,472.96928 2.1312,11.56082 -8.54692,21.19467 -19.01922,23.50981 -159.0554,71.90636 -317.59418,145.0157 -477.06247,215.97661 -11.57368,2.0553 -21.01253,-8.73523 -23.38083,-19.08277 C 276.41779,742.0656 203.34799,583.64131 132.30117,424.33116 c -2.06935,-11.5668 8.52642,-21.30013 19.01924,-23.54259 158.97802,-71.85357 317.43783,-144.92104 476.80017,-215.87825 1.30232,-0.20177 2.6166,-0.28328 3.93405,-0.29502 z"
       id="path4010-8"
       inkscape:connector-curvature="0" />
    <path
       style="opacity:0.3;fill:#000000;fill-opacity:1;fill-rule:nonzero;stroke:none"
       d="m 663.1615,79.59006 c -4.64792,0.127031 -9.34988,1.201785 -13.86302,3.251026 L 48.074508,355.80885 C 30.021929,364.00583 22.08201,385.16476 30.28017,403.21468 L 303.31388,1004.329 c 8.1982,18.05 29.33002,25.9888 47.38259,17.792 L 951.92063,749.12357 c 18.0525,-8.19698 25.99252,-29.32636 17.79432,-47.37628 L 696.68115,100.60349 C 690.5324,87.066069 677.1055,79.208983 663.1615,79.59006 z m -32.63276,94.57524 c 11.15513,-0.30488 21.89086,5.98656 26.80976,16.81665 l 218.43886,480.91504 c 6.5585,14.44012 0.19471,31.33154 -14.24728,37.88919 L 380.55077,928.19584 c -14.44206,6.55767 -31.33572,0.1948 -37.89426,-14.24535 L 124.2177,433.03543 c -6.55852,-14.44013 -0.19476,-31.33153 14.24729,-37.88921 L 619.4442,176.73656 c 3.61051,-1.63941 7.36609,-2.46963 11.08454,-2.57126 z"
       id="path4022-2"
       inkscape:export-filename="C:\Users\Madnester\Desktop\Sketches\256.png"
       inkscape:export-xdpi="23.039482"
       inkscape:export-ydpi="23.039482"
       inkscape:connector-curvature="0" />
    <path
       style="fill:url(#linearGradient4369);fill-opacity:1.0;fill-rule:nonzero;stroke:none"
       d="m 663.1615,69.10065 c -4.64792,0.127026 -9.34988,1.201782 -13.86302,3.251026 L 48.074508,345.31944 C 30.021929,353.51641 22.08201,374.67535 30.28017,392.72527 l 273.03371,601.11437 c 8.1982,18.04986 29.33002,25.98876 47.38259,17.79186 L 951.92063,738.63416 c 18.0525,-8.19698 25.99252,-29.32637 17.79432,-47.37628 L 696.68115,90.11408 C 690.5324,76.576653 677.1055,68.719569 663.1615,69.10065 z"
       id="path3260"
       inkscape:connector-curvature="0" />
    <path
       style="opacity:0.6;fill:#ffffff;fill-opacity:1;fill-rule:nonzero;stroke:none"
       d="m 663.16581,69.087321 c -4.64799,0.127027 -9.35432,1.228698 -13.86747,3.277941 L 48.079618,345.31945 c -16.265347,7.38546 -24.296435,25.28197 -19.735737,41.95765 2.721762,-9.86932 9.649476,-18.49693 19.735737,-23.07671 L 649.29834,91.246205 c 4.51315,-2.049241 9.21948,-3.150913 13.86747,-3.277944 13.94397,-0.381094 27.35618,7.47418 33.50486,21.011599 L 969.7254,710.15433 c 0.81164,1.78697 1.4331,3.5768 1.93423,5.40861 2.14973,-7.78856 1.68356,-16.32441 -1.93423,-24.28955 L 696.67067,90.09892 C 690.52199,76.5615 677.10978,68.706232 663.16581,69.087321 z"
       id="path3264"
       inkscape:connector-curvature="0" />
    <path
       style="opacity:0.07999998;fill:#000000;fill-opacity:1;stroke:none"
       d="m 440.12126,138.8148 c -8.86979,45.90626 0.38824,76.29507 9.19076,121.23229 7.96549,38.37749 16.50437,78.1695 9.12626,117.31967 -8.99008,37.2767 -24.20576,72.88947 -43.54497,105.90675 -1.85135,-26.48778 -0.97825,-54.57146 -14.16962,-78.45079 -16.86381,-40.50193 -40.47235,-79.42428 -73.96136,-108.13716 -21.1145,-10.98619 -50.37192,12.35979 -42.0608,35.40366 7.31741,19.56393 22.09827,36.42154 23.75377,57.83357 11.43846,57.57322 -4.84317,116.58692 -27.32999,169.23539 -26.35355,59.06298 -68.44293,112.47342 -78.08679,177.69035 -15.63963,100.04762 30.07101,207.70652 114.61792,263.49587 95.70347,65.5796 228.97097,68.9326 329.36557,11.2987 64.82011,-35.75961 120.69405,-93.73328 141.61479,-165.89802 17.68283,-62.49641 4.75388,-131.43079 -30.07051,-185.56668 -11.13069,-18.271 -25.65637,-34.11294 -39.10637,-50.59133 -12.7169,-18.99425 -13.60821,-42.7241 -9.72495,-64.65974 5.29772,-46.03142 25.88959,-88.80196 46.56185,-129.88912 5.21263,-17.07829 -9.48019,-35.58252 -27.04442,-35.81973 -18.66666,-1.53208 -32.167,13.72848 -46.74087,22.79606 -29.45187,21.23586 -54.363,49.43588 -67.60712,83.59331 -25.20934,49.48375 -36.16539,106.44112 -29.1202,161.8237 1.37651,22.76068 5.51842,47.02828 -2.68554,68.76483 -11.83811,9.86053 -30.86525,1.69836 -35.93323,-11.76339 -15.69724,-26.02713 -10.40485,-59.41692 1.79529,-85.78114 27.27792,-68.69508 68.4097,-133.74756 76.2744,-208.56864 5.50689,-50.97854 -17.66931,-98.78903 -40.49841,-142.73999 C 528.08735,171.31372 516.45634,152.04623 476.5633,52.362184 450.70905,97.908014 449.81576,98.87805 440.12126,138.8148 z"
       id="path4142"
       inkscape:connector-curvature="0"
       sodipodi:nodetypes="cccccccccccccccccccccccccccc" />
    <path
       style="opacity:0.1;fill:#000000;fill-opacity:1;stroke:none"
       d="m 446.16703,172.45302 c 1.46141,72.54024 30.98875,124.72162 23.8639,197.73973 -8.48072,42.45805 -26.83797,82.46292 -47.49708,120.34304 -3.80285,5.94944 -7.91131,11.75574 -13.54115,16.03757 -8.87336,-29.36718 0.005,-62.47889 -14.2649,-90.58956 -15.43287,-41.06836 -39.41158,-79.35364 -70.80231,-109.91778 -14.04195,-7.97124 -35.21459,6.3434 -30.10827,22.58117 4.99868,16.35783 18.24931,29.18124 20.96382,46.47252 15.18159,52.27387 4.33336,108.15101 -13.01693,158.46354 -19.70691,55.95607 -54.73243,104.75091 -77.50662,159.35468 -31.14569,85.2283 -10.67772,185.72357 48.11326,253.98752 66.51615,78.26885 177.94531,109.85215 277.50885,90.11475 67.59989,-12.9249 130.04401,-49.29049 176.17557,-99.98226 39.251,-43.18496 64.43714,-100.9359 60.3947,-160.07573 -2.81716,-56.41411 -27.83784,-110.5882 -66.88054,-151.07275 -14.45462,-17.44591 -24.14206,-39.96159 -20.95474,-63.01552 2.01116,-50.81076 21.23289,-99.31662 45.465,-143.58156 3.98748,-7.63083 5.65164,-18.10037 -1.8156,-24.16982 -9.01261,-8.62077 -24.80339,-8.29368 -33.35317,0.85114 -32.84155,20.973 -65.45919,46.88807 -80.22379,84.11784 -24.29297,45.41478 -39.29178,97.26125 -34.15031,149.20042 1.0263,29.99916 7.14971,61.15842 -1.4524,90.4021 -12.36642,16.96943 -40.43025,12.06432 -50.60912,-4.8037 -20.32546,-26.90029 -17.34781,-64.54158 -4.74031,-94.28853 26.13125,-68.55243 67.90103,-132.37401 77.21197,-206.37793 3.92312,-28.53084 -1.05904,-57.47586 -11.77356,-84.00811 C 581.15315,273.49021 546.95,222.55184 519.41659,168.4137 495.02484,120.26536 497.07844,117.3855 475.62288,70.572821 450.39419,110.48326 445.253,134.03768 446.16703,172.45302 z"
       id="path4132"
       inkscape:connector-curvature="0"
       sodipodi:nodetypes="ccccccccccccccccccccccccccccc" />
    <path
       style="opacity:0.15;fill:#000000;fill-opacity:1;stroke:none"
       d="m 454.29742,171.07844 c 1.3775,71.2474 31.08707,123.44847 26.22132,195.05278 -5.27377,37.30818 -21.96793,71.69078 -36.72681,106.01374 -8.80456,17.85546 -19.10478,36.68459 -36.04744,47.85607 -6.16409,0.61128 -6.25141,-7.37981 -8.39703,-11.27169 -8.58518,-27.12037 -0.14874,-57.65528 -11.80125,-84.23501 -13.69622,-40.49288 -37.84963,-76.76605 -66.11714,-108.48049 -7.23288,-5.64196 -20.7364,-0.14148 -18.2692,9.94783 2.33646,11.40426 12.36247,19.28789 15.31889,30.52432 21.74593,52.42595 13.66586,111.97031 -2.36759,164.55626 -16.73516,54.10867 -46.7958,102.7437 -73.16783,152.48818 -22.51897,47.23742 -29.73541,101.92766 -18.21842,153.20276 14.33473,72.6605 61.82996,138.29642 127.94717,172.01174 85.83658,46.45017 195.69128,45.65927 280.74196,-2.08256 59.79774,-31.71555 112.02055,-82.88374 134.19235,-147.81568 22.24163,-68.71119 4.0008,-147.42048 -42.80665,-201.6179 -16.42089,-19.72187 -35.29366,-40.98182 -35.6483,-68.10216 -2.8605,-40.73602 9.59688,-80.44084 23.53384,-118.16955 7.27645,-18.03476 17.50659,-35.03597 25.75838,-52.31119 -0.36977,-10.39172 -15.09927,-13.25876 -21.40865,-6.35452 -30.64869,20.14874 -63.03175,42.52523 -77.29659,77.72025 -21.12275,40.03419 -38.14939,84.11961 -35.83631,130.20068 -0.22681,36.20268 7.10311,72.91912 0.34042,108.78309 -7.02463,20.40609 -33.91274,25.6258 -51.59256,16.83188 -18.98714,-8.8476 -28.72211,-30.00726 -32.86945,-49.5122 -5.69098,-28.59401 2.83539,-57.25229 14.49648,-83.19709 C 560.95096,538.2514 599.42774,476.25762 606.28506,405.16604 610.31007,361.96958 590.04954,321.7945 571.67568,284.20349 531.93372,204.83073 500.12054,161.02468 474.22855,84.453987 457.13161,114.25655 452.89509,143.96248 454.29742,171.07844 z"
       id="path4120"
       inkscape:connector-curvature="0"
       sodipodi:nodetypes="cccccccccccccccccccccccccccccc" />
    <path
       style="opacity:0.3;fill:#000000;fill-opacity:1;stroke:none"
       d="m 315.27806,326.27798 c 0,0 72.35503,82.59759 -13.48169,263.03759 -30.81538,64.77791 -77.03849,113.85209 -69.33457,204.14859 12.71981,149.08709 134.81716,227.70414 261.93062,227.70414 127.11328,0 261.93066,-102.07426 269.63438,-215.92633 7.70384,-113.85208 -61.63074,-153.11147 -80.89035,-196.29671 -19.25961,-43.18527 5.77788,-141.33365 40.4453,-196.2967 -53.92703,37.29634 -59.70491,37.29634 -94.3722,119.74099 -34.66727,82.4446 15.6736,187.37667 -30.81537,212.00043 C 539.35384,775.66186 491.46053,705.58693 509.80006,636.4268 529.05961,563.797 588.1422,488.70081 594.54228,396.94482 599.87134,320.54552 488.61445,188.87029 473.20681,108.38864 442.39144,175.12952 512.2288,312.29433 488.61454,389.09293 437.80175,554.34697 381.15256,572.15094 382.68673,465.64866 383.56594,404.60658 315.27806,326.27798 315.27806,326.27798 z"
       id="path4118"
       inkscape:connector-curvature="0"
       sodipodi:nodetypes="cssssscsssscssc"
       inkscape:export-filename="C:\Users\Madnester\Desktop\Sketches\256.png"
       inkscape:export-xdpi="23.039482"
       inkscape:export-ydpi="23.039482" />
    <path
       inkscape:export-ydpi="23.039482"
       inkscape:export-xdpi="23.039482"
       inkscape:export-filename="C:\Users\Madnester\Desktop\Sketches\256.png"
       sodipodi:nodetypes="cssssscsssscssc"
       inkscape:connector-curvature="0"
       id="path4019-2"
       d="m 315.27806,316.59492 c 0,0 72.35503,82.59759 -13.48169,263.03761 -30.81538,64.77789 -77.03849,113.85207 -69.33457,204.14857 12.71981,149.08709 134.81716,227.7042 261.93062,227.7042 127.11328,0 261.93066,-102.07433 269.63438,-215.92639 7.70384,-113.85208 -61.63074,-153.11146 -80.89035,-196.2967 -19.25961,-43.18529 5.77788,-141.33366 40.4453,-196.29671 -53.92703,37.29636 -59.70491,37.29636 -94.3722,119.74099 -34.66727,82.4446 15.6736,187.37668 -30.81537,212.00044 C 539.35384,765.97881 491.46053,695.90389 509.80006,626.74374 529.05961,554.11393 588.1422,479.01776 594.54228,387.26176 599.87134,310.86247 488.61445,179.18723 473.20681,98.705577 442.39144,165.44646 512.2288,302.61128 488.61454,379.40988 437.80175,544.66392 381.15256,562.46789 382.68673,455.9656 383.56594,394.92351 315.27806,316.59492 315.27806,316.59492 z"
       style="fill:url(#linearGradient3261);fill-opacity:1.0;stroke:none" />
    <path
       inkscape:connector-curvature="0"
       style="opacity:0.6;fill:#ffffff;fill-opacity:1;stroke:none"
       d="m 473.21812,98.697072 c -7.06607,15.303908 -8.85669,34.317838 -7.67837,55.450608 0.79235,-12.46479 3.14055,-23.83557 7.67837,-33.66374 14.37276,75.07612 112.10515,194.70302 120.84913,272.44942 0.17731,-1.8894 0.35893,-3.77005 0.49172,-5.67366 C 599.88802,310.8604 488.62576,179.17871 473.21812,98.697072 z M 316.0575,317.54926 c 3.16919,4.04108 15.14568,20.74173 22.27861,50.98734 19.73264,28.39879 44.90406,71.98673 44.36807,109.19915 -1.53415,106.50229 55.09571,88.69736 105.90849,-76.55666 4.47149,-14.54226 5.56457,-31.22641 4.65241,-49.2096 -0.59203,9.75687 -2.04952,18.95755 -4.65241,27.42272 C 437.79989,544.64624 381.17003,562.45116 382.70418,455.94887 383.55367,396.97223 320.3703,322.56483 316.0575,317.54926 z m 407.52069,85.40758 c -53.92696,37.29634 -59.7047,37.30753 -94.37201,119.75217 -12.00384,28.54709 -13.8051,59.78296 -12.97379,89.4548 0.6775,-22.86412 3.88067,-46.04304 12.97379,-67.66794 30.3711,-72.22756 38.57985,-81.19658 76.4054,-107.38358 5.51385,-12.43582 11.58337,-24.03518 17.96661,-34.15545 z m -380.02231,25.72062 c -1.6367,39.3651 -12.51245,89.47894 -41.75822,150.95733 -29.83014,62.70682 -74.08776,110.71373 -69.89959,195.62799 3.56992,-71.77636 42.71691,-116.69961 69.89959,-173.84112 34.94489,-73.45867 43.69422,-130.6892 41.75822,-172.7442 z m 333.27129,142.10641 c -1.16084,19.86354 0.61706,37.48854 6.31668,50.26868 17.58299,39.42579 76.87635,75.57788 81.2091,168.20527 4.77549,-109.01151 -62.3097,-147.61462 -81.2091,-189.99215 -3.50942,-7.86908 -5.53911,-17.55666 -6.31668,-28.4818 z m -170.47483,97.3601 c -5.6765,61.92501 38.58627,116.66377 92.0269,88.35788 19.54498,-10.35237 21.97606,-34.93824 20.80344,-66.04146 -1.08353,20.60573 -6.09843,36.46579 -20.80344,44.25458 -47.04778,24.91979 -87.01078,-14.52512 -92.0269,-66.571 z"
       id="path4082" />
  </g>
</svg>
