<?xml version="1.0" encoding="UTF-8" standalone="no"?>
<!-- Created with Inkscape (http://www.inkscape.org/) -->

<svg
   xmlns:dc="http://purl.org/dc/elements/1.1/"
   xmlns:cc="http://creativecommons.org/ns#"
   xmlns:rdf="http://www.w3.org/1999/02/22-rdf-syntax-ns#"
   xmlns:svg="http://www.w3.org/2000/svg"
   xmlns="http://www.w3.org/2000/svg"
   xmlns:sodipodi="http://sodipodi.sourceforge.net/DTD/sodipodi-0.dtd"
   xmlns:inkscape="http://www.inkscape.org/namespaces/inkscape"
   width="256"
   height="256"
   id="svg3301"
   version="1.1"
   inkscape:version="0.48.0 r9654"
   sodipodi:docname="user-away.svg">
  <defs
     id="defs3303" />
  <sodipodi:namedview
     id="base"
     pagecolor="#ffffff"
     bordercolor="#666666"
     borderopacity="1.0"
     inkscape:pageopacity="0.0"
     inkscape:pageshadow="2"
     inkscape:zoom="0.35"
     inkscape:cx="192.14286"
     inkscape:cy="182.85714"
     inkscape:document-units="px"
     inkscape:current-layer="layer1"
     showgrid="false"
     inkscape:window-width="751"
     inkscape:window-height="515"
     inkscape:window-x="0"
     inkscape:window-y="24"
     inkscape:window-maximized="0" />
  <metadata
     id="metadata3306">
    <rdf:RDF>
      <cc:Work
         rdf:about="">
        <dc:format>image/svg+xml</dc:format>
        <dc:type
           rdf:resource="http://purl.org/dc/dcmitype/StillImage" />
        <dc:title></dc:title>
      </cc:Work>
    </rdf:RDF>
  </metadata>
  <g
     inkscape:label="Layer 1"
     inkscape:groupmode="layer"
     id="layer1"
     transform="translate(0,-796.36218)">
    <g
       id="g4981"
       inkscape:export-filename="/home/madnester/Рабочий стол/витва.png"
       inkscape:export-xdpi="2.8124993"
       inkscape:export-ydpi="2.8124993"
       transform="matrix(0.5,0,0,0.5,0,14.181073)">
      <path
         sodipodi:nodetypes="ccccssccccc"
         id="path4246"
         d="m 340.91624,1564.3629 c -0.37408,0 -0.75264,0.01 -1.12784,0.014 -4.06576,0.16 -8.0843,1.072 -11.8423,2.7744 -103.32849,46.9171 -206.65674,93.8347 -309.987996,140.7457 -15.321582,6.9568 -22.198797,25.248 -15.24107,40.5665 l 140.781726,309.9447 c 6.95485,15.312 25.23724,22.1952 40.55646,15.2384 l 309.98797,-140.7618 c 15.31472,-6.9536 22.19826,-25.248 15.24107,-40.5648 L 368.50257,1582.3597 c -5.04238,-11.1008 -15.99096,-17.8832 -27.58633,-17.9968 z"
         style="font-size:medium;font-style:normal;font-variant:normal;font-weight:normal;font-stretch:normal;text-indent:0;text-align:start;text-decoration:none;line-height:normal;letter-spacing:normal;word-spacing:normal;text-transform:none;direction:ltr;block-progression:tb;writing-mode:lr-tb;text-anchor:start;baseline-shift:baseline;color:#000000;fill:#e6e6e6;fill-opacity:1;fill-rule:nonzero;stroke:none;stroke-width:30;marker:none;visibility:visible;display:inline;overflow:visible;enable-background:accumulate;font-family:Sans;-inkscape-font-specification:Sans"
         inkscape:connector-curvature="0" />
      <path
         sodipodi:nodetypes="cccccccccccccccc"
         inkscape:connector-curvature="0"
         id="rect4252"
         transform="translate(0,540.3622)"
         d="m 145.65625,1183.3125 -54.78125,24.875 c -6.596479,2.9952 -9.49536,10.6861 -6.5,17.2813 l 8.125,17.9062 87.875,50.7188 -51.375,29.6562 32.65625,71.875 97.28125,-56.1562 83.4375,48.1562 78.75,-35.75 c 2.79342,-1.2684 4.91688,-3.389 6.21875,-5.9062 l -89.84375,-51.875 56.84375,-32.8126 -32.65625,-71.875 -102.71875,59.3126 z"
         style="fill:#d63434;fill-opacity:1;stroke:none" />
      <path
         inkscape:connector-curvature="0"
         id="path4281"
         d="m 330.25,1594.4375 0,0.031 c -3.76379,0.049 -7.17517,0.9703 -10.15625,2.3124 l -0.0312,0.031 -274.59375,124.6563 c -13.135909,5.9676 -19.059326,21.7699 -13.09375,34.9062 l 124.6875,274.5312 c 5.9638,13.1274 21.74117,19.0581 34.875,13.0938 L 466.5313,1919.3119 c 13.12802,-5.964 19.05956,-21.7434 13.09375,-34.875 L 354.9375,1609.875 c -2.93184,-6.4547 -8.22167,-11.1627 -14.40625,-13.5938 l 0,-1.8437 -10,0 c -0.0313,5e-4 -0.0625,-6e-4 -0.0937,0 -0.0626,0 -0.12486,0 -0.1875,0 z m 0.25,20 c 0.005,0 0.0265,0 0.0312,0 l 0.25,0 c 2.44006,-0.067 4.79368,1.2005 5.9375,3.7187 l 124.6875,274.5626 c 1.52269,3.3516 0.20531,6.8478 -3.15625,8.375 l -274.5625,124.6874 c -3.35581,1.524 -6.88167,0.1997 -8.40625,-3.1562 L 50.59375,1748.0938 c -1.522806,-3.3533 -0.197439,-6.8827 3.15625,-8.4063 l 274.53125,-124.6563 c 0.0138,-0.01 0.0175,0.01 0.0312,0 1.02931,-0.4575 1.82195,-0.5904 2.1875,-0.5937 z m -15.21875,23.1875 -9.65625,0.3438 0,2.0624 -218.875,99.4063 c -11.474798,5.2103 -16.685006,19.0461 -11.46875,30.5313 L 175,1989.5625 c 0.01,0.022 0.0215,0.041 0.0312,0.062 5.21033,11.5282 19.16391,16.6449 30.5625,11.4688 l 219.65625,-99.75 c 11.47479,-5.2103 16.68614,-19.0465 11.46875,-30.5313 l -99.75,-219.6563 c -3.87928,-8.5399 -12.47366,-13.7803 -21.53125,-13.5312 -0.0105,3e-4 -0.0207,-3e-4 -0.0312,0 -0.0421,0 -0.0829,0 -0.125,0 z m 0.53125,20 0.15625,0 c 1.07393,-0.037 2.19,0.5109 2.78125,1.8125 l 99.78125,219.625 c 0.77337,1.7024 0.15567,3.2823 -1.5625,4.0625 l -219.65625,99.75 c -1.7717,0.8045 -3.22786,0.2925 -4.03125,-1.5 l -0.0312,0 0,-0.031 -99.78125,-219.625 c -0.774464,-1.7053 -0.15566,-3.2824 1.5625,-4.0626 l 219.59375,-99.7187 0.0625,-0.031 c 0.48114,-0.2031 0.88365,-0.2767 1.125,-0.2812 z"
         style="font-size:medium;font-style:normal;font-variant:normal;font-weight:normal;font-stretch:normal;text-indent:0;text-align:start;text-decoration:none;line-height:normal;letter-spacing:normal;word-spacing:normal;text-transform:none;direction:ltr;block-progression:tb;writing-mode:lr-tb;text-anchor:start;baseline-shift:baseline;color:#000000;fill:#e6e6e6;fill-opacity:1;fill-rule:nonzero;stroke:none;stroke-width:20;marker:none;visibility:visible;display:inline;overflow:visible;enable-background:accumulate;font-family:Sans;-inkscape-font-specification:Sans" />
      <path
         inkscape:connector-curvature="0"
         inkscape:export-ydpi="23.039482"
         inkscape:export-xdpi="23.039482"
         inkscape:export-filename="C:\Users\Madnester\Desktop\Sketches\256.png"
         id="path4248"
         d="m 330.51854,1604.4253 c -2.12276,0 -4.27017,0.56 -6.33139,1.488 L 49.60194,1730.5774 c -8.244799,3.7456 -11.871054,13.4081 -8.126863,21.6529 l 124.697313,274.5314 c 3.74419,8.2416 13.39532,11.8689 21.64014,8.1248 L 462.39777,1910.208 c 8.24479,-3.7456 11.87109,-13.3952 8.12684,-21.6368 L 345.82729,1614.0237 c -2.80817,-6.1824 -8.9404,-9.7712 -15.30875,-9.5968 z m -14.90374,43.1937 c 5.09469,-0.176 9.99776,2.7328 12.2443,7.6784 l 99.76327,219.6386 c 2.99538,6.5936 0.0896,14.3072 -6.50688,17.3024 l -219.66821,99.7489 c -6.59582,2.9952 -14.31134,0.176 -17.3067,-6.5072 L 84.377328,1765.8447 c -2.99536,-6.5952 -0.0896,-14.3088 6.506879,-17.304 l 219.668183,-99.7489 c 1.64904,-0.736 3.36419,-1.136 5.06241,-1.168 z"
         style="fill:#858585;fill-opacity:1;fill-rule:nonzero;stroke:none" />
    </g>
  </g>
</svg>
